<?xml version="1.0" encoding="utf-8"?>
<svg xmlns="http://www.w3.org/2000/svg" xmlns:xlink="http://www.w3.org/1999/xlink" width="600" height="400" viewBox="0 0 2400 1600">
<defs>
  <clipPath id="clip320">
    <rect x="0" y="0" width="2400" height="1600"/>
  </clipPath>
</defs>
<path clip-path="url(#clip320)" d="
M0 1600 L2400 1600 L2400 0 L0 0  Z
  " fill="#ffffff" fill-rule="evenodd" fill-opacity="1"/>
<defs>
  <clipPath id="clip321">
    <rect x="480" y="0" width="1681" height="1600"/>
  </clipPath>
</defs>
<path clip-path="url(#clip320)" d="
M156.598 1486.45 L2352.76 1486.45 L2352.76 47.2441 L156.598 47.2441  Z
  " fill="#ffffff" fill-rule="evenodd" fill-opacity="1"/>
<defs>
  <clipPath id="clip322">
    <rect x="156" y="47" width="2197" height="1440"/>
  </clipPath>
</defs>
<polyline clip-path="url(#clip322)" style="stroke:#000000; stroke-linecap:butt; stroke-linejoin:round; stroke-width:2; stroke-opacity:0.1; fill:none" points="
  218.754,1486.45 218.754,47.2441 
  "/>
<polyline clip-path="url(#clip322)" style="stroke:#000000; stroke-linecap:butt; stroke-linejoin:round; stroke-width:2; stroke-opacity:0.1; fill:none" points="
  736.715,1486.45 736.715,47.2441 
  "/>
<polyline clip-path="url(#clip322)" style="stroke:#000000; stroke-linecap:butt; stroke-linejoin:round; stroke-width:2; stroke-opacity:0.1; fill:none" points="
  1254.68,1486.45 1254.68,47.2441 
  "/>
<polyline clip-path="url(#clip322)" style="stroke:#000000; stroke-linecap:butt; stroke-linejoin:round; stroke-width:2; stroke-opacity:0.1; fill:none" points="
  1772.64,1486.45 1772.64,47.2441 
  "/>
<polyline clip-path="url(#clip322)" style="stroke:#000000; stroke-linecap:butt; stroke-linejoin:round; stroke-width:2; stroke-opacity:0.1; fill:none" points="
  2290.6,1486.45 2290.6,47.2441 
  "/>
<polyline clip-path="url(#clip320)" style="stroke:#000000; stroke-linecap:butt; stroke-linejoin:round; stroke-width:4; stroke-opacity:1; fill:none" points="
  156.598,1486.45 2352.76,1486.45 
  "/>
<polyline clip-path="url(#clip320)" style="stroke:#000000; stroke-linecap:butt; stroke-linejoin:round; stroke-width:4; stroke-opacity:1; fill:none" points="
  218.754,1486.45 218.754,1467.55 
  "/>
<polyline clip-path="url(#clip320)" style="stroke:#000000; stroke-linecap:butt; stroke-linejoin:round; stroke-width:4; stroke-opacity:1; fill:none" points="
  736.715,1486.45 736.715,1467.55 
  "/>
<polyline clip-path="url(#clip320)" style="stroke:#000000; stroke-linecap:butt; stroke-linejoin:round; stroke-width:4; stroke-opacity:1; fill:none" points="
  1254.68,1486.45 1254.68,1467.55 
  "/>
<polyline clip-path="url(#clip320)" style="stroke:#000000; stroke-linecap:butt; stroke-linejoin:round; stroke-width:4; stroke-opacity:1; fill:none" points="
  1772.64,1486.45 1772.64,1467.55 
  "/>
<polyline clip-path="url(#clip320)" style="stroke:#000000; stroke-linecap:butt; stroke-linejoin:round; stroke-width:4; stroke-opacity:1; fill:none" points="
  2290.6,1486.45 2290.6,1467.55 
  "/>
<path clip-path="url(#clip320)" d="M187.654 1532.02 L217.33 1532.02 L217.33 1535.95 L187.654 1535.95 L187.654 1532.02 Z" fill="#000000" fill-rule="evenodd" fill-opacity="1" /><path clip-path="url(#clip320)" d="M240.27 1518.36 L228.464 1536.81 L240.27 1536.81 L240.27 1518.36 M239.043 1514.29 L244.922 1514.29 L244.922 1536.81 L249.853 1536.81 L249.853 1540.7 L244.922 1540.7 L244.922 1548.85 L240.27 1548.85 L240.27 1540.7 L224.668 1540.7 L224.668 1536.19 L239.043 1514.29 Z" fill="#000000" fill-rule="evenodd" fill-opacity="1" /><path clip-path="url(#clip320)" d="M706.658 1532.02 L736.333 1532.02 L736.333 1535.95 L706.658 1535.95 L706.658 1532.02 Z" fill="#000000" fill-rule="evenodd" fill-opacity="1" /><path clip-path="url(#clip320)" d="M750.454 1544.91 L766.773 1544.91 L766.773 1548.85 L744.829 1548.85 L744.829 1544.91 Q747.491 1542.16 752.074 1537.53 Q756.681 1532.88 757.861 1531.53 Q760.106 1529.01 760.986 1527.27 Q761.889 1525.51 761.889 1523.82 Q761.889 1521.07 759.944 1519.33 Q758.023 1517.6 754.921 1517.6 Q752.722 1517.6 750.269 1518.36 Q747.838 1519.13 745.06 1520.68 L745.06 1515.95 Q747.884 1514.82 750.338 1514.24 Q752.792 1513.66 754.829 1513.66 Q760.199 1513.66 763.393 1516.35 Q766.588 1519.03 766.588 1523.52 Q766.588 1525.65 765.778 1527.57 Q764.991 1529.47 762.884 1532.07 Q762.305 1532.74 759.204 1535.95 Q756.102 1539.15 750.454 1544.91 Z" fill="#000000" fill-rule="evenodd" fill-opacity="1" /><path clip-path="url(#clip320)" d="M1254.68 1517.37 Q1251.07 1517.37 1249.24 1520.93 Q1247.43 1524.47 1247.43 1531.6 Q1247.43 1538.71 1249.24 1542.27 Q1251.07 1545.82 1254.68 1545.82 Q1258.31 1545.82 1260.12 1542.27 Q1261.95 1538.71 1261.95 1531.6 Q1261.95 1524.47 1260.12 1520.93 Q1258.31 1517.37 1254.68 1517.37 M1254.68 1513.66 Q1260.49 1513.66 1263.54 1518.27 Q1266.62 1522.85 1266.62 1531.6 Q1266.62 1540.33 1263.54 1544.94 Q1260.49 1549.52 1254.68 1549.52 Q1248.87 1549.52 1245.79 1544.94 Q1242.73 1540.33 1242.73 1531.6 Q1242.73 1522.85 1245.79 1518.27 Q1248.87 1513.66 1254.68 1513.66 Z" fill="#000000" fill-rule="evenodd" fill-opacity="1" /><path clip-path="url(#clip320)" d="M1767.29 1544.91 L1783.61 1544.91 L1783.61 1548.85 L1761.67 1548.85 L1761.67 1544.91 Q1764.33 1542.16 1768.91 1537.53 Q1773.52 1532.88 1774.7 1531.53 Q1776.94 1529.01 1777.82 1527.27 Q1778.73 1525.51 1778.73 1523.82 Q1778.73 1521.07 1776.78 1519.33 Q1774.86 1517.6 1771.76 1517.6 Q1769.56 1517.6 1767.11 1518.36 Q1764.68 1519.13 1761.9 1520.68 L1761.9 1515.95 Q1764.72 1514.82 1767.18 1514.24 Q1769.63 1513.66 1771.67 1513.66 Q1777.04 1513.66 1780.23 1516.35 Q1783.43 1519.03 1783.43 1523.52 Q1783.43 1525.65 1782.62 1527.57 Q1781.83 1529.47 1779.72 1532.07 Q1779.14 1532.74 1776.04 1535.95 Q1772.94 1539.15 1767.29 1544.91 Z" fill="#000000" fill-rule="evenodd" fill-opacity="1" /><path clip-path="url(#clip320)" d="M2293.61 1518.36 L2281.8 1536.81 L2293.61 1536.81 L2293.61 1518.36 M2292.38 1514.29 L2298.26 1514.29 L2298.26 1536.81 L2303.19 1536.81 L2303.19 1540.7 L2298.26 1540.7 L2298.26 1548.85 L2293.61 1548.85 L2293.61 1540.7 L2278.01 1540.7 L2278.01 1536.19 L2292.38 1514.29 Z" fill="#000000" fill-rule="evenodd" fill-opacity="1" /><polyline clip-path="url(#clip322)" style="stroke:#000000; stroke-linecap:butt; stroke-linejoin:round; stroke-width:2; stroke-opacity:0.1; fill:none" points="
  156.598,1467.32 2352.76,1467.32 
  "/>
<polyline clip-path="url(#clip322)" style="stroke:#000000; stroke-linecap:butt; stroke-linejoin:round; stroke-width:2; stroke-opacity:0.1; fill:none" points="
  156.598,1176.91 2352.76,1176.91 
  "/>
<polyline clip-path="url(#clip322)" style="stroke:#000000; stroke-linecap:butt; stroke-linejoin:round; stroke-width:2; stroke-opacity:0.1; fill:none" points="
  156.598,886.496 2352.76,886.496 
  "/>
<polyline clip-path="url(#clip322)" style="stroke:#000000; stroke-linecap:butt; stroke-linejoin:round; stroke-width:2; stroke-opacity:0.1; fill:none" points="
  156.598,596.085 2352.76,596.085 
  "/>
<polyline clip-path="url(#clip322)" style="stroke:#000000; stroke-linecap:butt; stroke-linejoin:round; stroke-width:2; stroke-opacity:0.1; fill:none" points="
  156.598,305.674 2352.76,305.674 
  "/>
<polyline clip-path="url(#clip320)" style="stroke:#000000; stroke-linecap:butt; stroke-linejoin:round; stroke-width:4; stroke-opacity:1; fill:none" points="
  156.598,1486.45 156.598,47.2441 
  "/>
<polyline clip-path="url(#clip320)" style="stroke:#000000; stroke-linecap:butt; stroke-linejoin:round; stroke-width:4; stroke-opacity:1; fill:none" points="
  156.598,1467.32 175.496,1467.32 
  "/>
<polyline clip-path="url(#clip320)" style="stroke:#000000; stroke-linecap:butt; stroke-linejoin:round; stroke-width:4; stroke-opacity:1; fill:none" points="
  156.598,1176.91 175.496,1176.91 
  "/>
<polyline clip-path="url(#clip320)" style="stroke:#000000; stroke-linecap:butt; stroke-linejoin:round; stroke-width:4; stroke-opacity:1; fill:none" points="
  156.598,886.496 175.496,886.496 
  "/>
<polyline clip-path="url(#clip320)" style="stroke:#000000; stroke-linecap:butt; stroke-linejoin:round; stroke-width:4; stroke-opacity:1; fill:none" points="
  156.598,596.085 175.496,596.085 
  "/>
<polyline clip-path="url(#clip320)" style="stroke:#000000; stroke-linecap:butt; stroke-linejoin:round; stroke-width:4; stroke-opacity:1; fill:none" points="
  156.598,305.674 175.496,305.674 
  "/>
<path clip-path="url(#clip320)" d="M63.4226 1453.12 Q59.8115 1453.12 57.9828 1456.68 Q56.1773 1460.22 56.1773 1467.35 Q56.1773 1474.46 57.9828 1478.02 Q59.8115 1481.57 63.4226 1481.57 Q67.0569 1481.57 68.8624 1478.02 Q70.6911 1474.46 70.6911 1467.35 Q70.6911 1460.22 68.8624 1456.68 Q67.0569 1453.12 63.4226 1453.12 M63.4226 1449.41 Q69.2328 1449.41 72.2883 1454.02 Q75.367 1458.6 75.367 1467.35 Q75.367 1476.08 72.2883 1480.69 Q69.2328 1485.27 63.4226 1485.27 Q57.6125 1485.27 54.5338 1480.69 Q51.4782 1476.08 51.4782 1467.35 Q51.4782 1458.6 54.5338 1454.02 Q57.6125 1449.41 63.4226 1449.41 Z" fill="#000000" fill-rule="evenodd" fill-opacity="1" /><path clip-path="url(#clip320)" d="M83.5845 1478.72 L88.4688 1478.72 L88.4688 1484.6 L83.5845 1484.6 L83.5845 1478.72 Z" fill="#000000" fill-rule="evenodd" fill-opacity="1" /><path clip-path="url(#clip320)" d="M108.654 1453.12 Q105.043 1453.12 103.214 1456.68 Q101.409 1460.22 101.409 1467.35 Q101.409 1474.46 103.214 1478.02 Q105.043 1481.57 108.654 1481.57 Q112.288 1481.57 114.094 1478.02 Q115.922 1474.46 115.922 1467.35 Q115.922 1460.22 114.094 1456.68 Q112.288 1453.12 108.654 1453.12 M108.654 1449.41 Q114.464 1449.41 117.52 1454.02 Q120.598 1458.6 120.598 1467.35 Q120.598 1476.08 117.52 1480.69 Q114.464 1485.27 108.654 1485.27 Q102.844 1485.27 99.765 1480.69 Q96.7095 1476.08 96.7095 1467.35 Q96.7095 1458.6 99.765 1454.02 Q102.844 1449.41 108.654 1449.41 Z" fill="#000000" fill-rule="evenodd" fill-opacity="1" /><path clip-path="url(#clip320)" d="M64.6495 1162.71 Q61.0384 1162.71 59.2097 1166.27 Q57.4041 1169.81 57.4041 1176.94 Q57.4041 1184.05 59.2097 1187.61 Q61.0384 1191.15 64.6495 1191.15 Q68.2837 1191.15 70.0892 1187.61 Q71.9179 1184.05 71.9179 1176.94 Q71.9179 1169.81 70.0892 1166.27 Q68.2837 1162.71 64.6495 1162.71 M64.6495 1159 Q70.4596 1159 73.5152 1163.61 Q76.5938 1168.19 76.5938 1176.94 Q76.5938 1185.67 73.5152 1190.27 Q70.4596 1194.86 64.6495 1194.86 Q58.8393 1194.86 55.7606 1190.27 Q52.7051 1185.67 52.7051 1176.94 Q52.7051 1168.19 55.7606 1163.61 Q58.8393 1159 64.6495 1159 Z" fill="#000000" fill-rule="evenodd" fill-opacity="1" /><path clip-path="url(#clip320)" d="M84.8114 1188.31 L89.6956 1188.31 L89.6956 1194.19 L84.8114 1194.19 L84.8114 1188.31 Z" fill="#000000" fill-rule="evenodd" fill-opacity="1" /><path clip-path="url(#clip320)" d="M100.691 1190.25 L108.33 1190.25 L108.33 1163.89 L100.02 1165.55 L100.02 1161.29 L108.283 1159.63 L112.959 1159.63 L112.959 1190.25 L120.598 1190.25 L120.598 1194.19 L100.691 1194.19 L100.691 1190.25 Z" fill="#000000" fill-rule="evenodd" fill-opacity="1" /><path clip-path="url(#clip320)" d="M65.0198 872.294 Q61.4087 872.294 59.58 875.859 Q57.7745 879.401 57.7745 886.53 Q57.7745 893.637 59.58 897.202 Q61.4087 900.743 65.0198 900.743 Q68.6541 900.743 70.4596 897.202 Q72.2883 893.637 72.2883 886.53 Q72.2883 879.401 70.4596 875.859 Q68.6541 872.294 65.0198 872.294 M65.0198 868.591 Q70.83 868.591 73.8855 873.197 Q76.9642 877.78 76.9642 886.53 Q76.9642 895.257 73.8855 899.864 Q70.83 904.447 65.0198 904.447 Q59.2097 904.447 56.131 899.864 Q53.0754 895.257 53.0754 886.53 Q53.0754 877.78 56.131 873.197 Q59.2097 868.591 65.0198 868.591 Z" fill="#000000" fill-rule="evenodd" fill-opacity="1" /><path clip-path="url(#clip320)" d="M85.1818 897.896 L90.066 897.896 L90.066 903.776 L85.1818 903.776 L85.1818 897.896 Z" fill="#000000" fill-rule="evenodd" fill-opacity="1" /><path clip-path="url(#clip320)" d="M104.279 899.84 L120.598 899.84 L120.598 903.776 L98.6539 903.776 L98.6539 899.84 Q101.316 897.086 105.899 892.456 Q110.506 887.803 111.686 886.461 Q113.932 883.938 114.811 882.202 Q115.714 880.442 115.714 878.753 Q115.714 875.998 113.77 874.262 Q111.848 872.526 108.746 872.526 Q106.547 872.526 104.094 873.29 Q101.663 874.054 98.8854 875.604 L98.8854 870.882 Q101.709 869.748 104.163 869.169 Q106.617 868.591 108.654 868.591 Q114.024 868.591 117.219 871.276 Q120.413 873.961 120.413 878.452 Q120.413 880.581 119.603 882.503 Q118.816 884.401 116.709 886.993 Q116.131 887.665 113.029 890.882 Q109.927 894.077 104.279 899.84 Z" fill="#000000" fill-rule="evenodd" fill-opacity="1" /><path clip-path="url(#clip320)" d="M64.0708 581.883 Q60.4597 581.883 58.631 585.448 Q56.8254 588.99 56.8254 596.119 Q56.8254 603.226 58.631 606.791 Q60.4597 610.332 64.0708 610.332 Q67.705 610.332 69.5105 606.791 Q71.3392 603.226 71.3392 596.119 Q71.3392 588.99 69.5105 585.448 Q67.705 581.883 64.0708 581.883 M64.0708 578.18 Q69.8809 578.18 72.9365 582.786 Q76.0151 587.369 76.0151 596.119 Q76.0151 604.846 72.9365 609.453 Q69.8809 614.036 64.0708 614.036 Q58.2606 614.036 55.1819 609.453 Q52.1264 604.846 52.1264 596.119 Q52.1264 587.369 55.1819 582.786 Q58.2606 578.18 64.0708 578.18 Z" fill="#000000" fill-rule="evenodd" fill-opacity="1" /><path clip-path="url(#clip320)" d="M84.2327 607.485 L89.1169 607.485 L89.1169 613.365 L84.2327 613.365 L84.2327 607.485 Z" fill="#000000" fill-rule="evenodd" fill-opacity="1" /><path clip-path="url(#clip320)" d="M113.469 594.73 Q116.825 595.448 118.7 597.717 Q120.598 599.985 120.598 603.318 Q120.598 608.434 117.08 611.235 Q113.561 614.036 107.08 614.036 Q104.904 614.036 102.589 613.596 Q100.297 613.179 97.8437 612.323 L97.8437 607.809 Q99.7882 608.943 102.103 609.522 Q104.418 610.101 106.941 610.101 Q111.339 610.101 113.631 608.365 Q115.945 606.628 115.945 603.318 Q115.945 600.263 113.793 598.55 Q111.663 596.814 107.844 596.814 L103.816 596.814 L103.816 592.971 L108.029 592.971 Q111.478 592.971 113.307 591.605 Q115.135 590.217 115.135 587.624 Q115.135 584.962 113.237 583.55 Q111.362 582.115 107.844 582.115 Q105.922 582.115 103.723 582.531 Q101.524 582.948 98.8854 583.828 L98.8854 579.661 Q101.547 578.92 103.862 578.55 Q106.2 578.18 108.26 578.18 Q113.584 578.18 116.686 580.61 Q119.788 583.018 119.788 587.138 Q119.788 590.008 118.145 591.999 Q116.501 593.967 113.469 594.73 Z" fill="#000000" fill-rule="evenodd" fill-opacity="1" /><path clip-path="url(#clip320)" d="M62.9365 291.472 Q59.3254 291.472 57.4967 295.037 Q55.6912 298.579 55.6912 305.708 Q55.6912 312.815 57.4967 316.38 Q59.3254 319.921 62.9365 319.921 Q66.5707 319.921 68.3763 316.38 Q70.205 312.815 70.205 305.708 Q70.205 298.579 68.3763 295.037 Q66.5707 291.472 62.9365 291.472 M62.9365 287.769 Q68.7467 287.769 71.8022 292.375 Q74.8809 296.958 74.8809 305.708 Q74.8809 314.435 71.8022 319.042 Q68.7467 323.625 62.9365 323.625 Q57.1264 323.625 54.0477 319.042 Q50.9921 314.435 50.9921 305.708 Q50.9921 296.958 54.0477 292.375 Q57.1264 287.769 62.9365 287.769 Z" fill="#000000" fill-rule="evenodd" fill-opacity="1" /><path clip-path="url(#clip320)" d="M83.0984 317.074 L87.9827 317.074 L87.9827 322.954 L83.0984 322.954 L83.0984 317.074 Z" fill="#000000" fill-rule="evenodd" fill-opacity="1" /><path clip-path="url(#clip320)" d="M111.015 292.468 L99.2095 310.917 L111.015 310.917 L111.015 292.468 M109.788 288.394 L115.668 288.394 L115.668 310.917 L120.598 310.917 L120.598 314.805 L115.668 314.805 L115.668 322.954 L111.015 322.954 L111.015 314.805 L95.4132 314.805 L95.4132 310.292 L109.788 288.394 Z" fill="#000000" fill-rule="evenodd" fill-opacity="1" /><polyline clip-path="url(#clip322)" style="stroke:#009af9; stroke-linecap:butt; stroke-linejoin:round; stroke-width:4; stroke-opacity:1; fill:none" points="
  218.754,1445.72 239.681,1431.3 260.609,1377.01 281.537,1290.41 302.465,1246.74 323.392,1254.35 344.32,1328.37 365.248,1167.8 386.176,1043.79 407.103,1282.04 
  428.031,1362.66 448.959,1294.77 469.887,1117.75 490.814,1121.04 511.742,1132.17 532.67,1336.12 553.598,1315.66 574.525,1047.52 595.453,1259.99 616.381,1181.41 
  637.309,1093.25 658.236,1171.94 679.164,1232.26 700.092,1178.58 721.02,1024.54 741.947,1295.31 762.875,1286.52 783.803,1124.39 804.731,949.874 825.658,995.567 
  846.586,1176 867.514,1095.75 888.442,1188.84 909.369,1296.31 930.297,1138.12 951.225,968.778 972.152,850.818 993.08,1001.93 1014.01,1116.65 1034.94,1041.94 
  1055.86,1146.05 1076.79,982.478 1097.72,827.952 1118.65,617.949 1139.57,415.845 1160.5,684.188 1181.43,1229.3 1202.36,1348.36 1223.29,1383.84 1244.21,1394.64 
  1265.14,1391.98 1286.07,1374.51 1307,1326.31 1327.92,1170.36 1348.85,426.375 1369.78,87.9763 1390.71,873.35 1411.64,812.892 1432.56,856.238 1453.49,881.339 
  1474.42,738.508 1495.35,901.552 1516.27,918.043 1537.2,1077.86 1558.13,1208.32 1579.06,980.752 1599.98,1181.21 1620.91,903.166 1641.84,843.207 1662.77,1053.14 
  1683.7,1199.96 1704.62,1300.19 1725.55,1137.98 1746.48,1156.61 1767.41,1144.53 1788.33,1030.53 1809.26,961.836 1830.19,1129.5 1851.12,1301.79 1872.05,1282.81 
  1892.97,1015.17 1913.9,1177.56 1934.83,1246.91 1955.76,1138.72 1976.68,1117.02 1997.61,1203.8 2018.54,1248.25 2039.47,1069.71 2060.4,1325.62 2081.32,1332.3 
  2102.25,1097.78 2123.18,1127.51 2144.11,1122 2165.03,1308.22 2185.96,1362.16 2206.89,1265.68 2227.82,1063.19 2248.75,1175.56 2269.67,1332.33 2290.6,1240.45 
  
  "/>
<path clip-path="url(#clip320)" d="
M1983.1 198.898 L2279.55 198.898 L2279.55 95.2176 L1983.1 95.2176  Z
  " fill="#ffffff" fill-rule="evenodd" fill-opacity="1"/>
<polyline clip-path="url(#clip320)" style="stroke:#000000; stroke-linecap:butt; stroke-linejoin:round; stroke-width:4; stroke-opacity:1; fill:none" points="
  1983.1,198.898 2279.55,198.898 2279.55,95.2176 1983.1,95.2176 1983.1,198.898 
  "/>
<polyline clip-path="url(#clip320)" style="stroke:#009af9; stroke-linecap:butt; stroke-linejoin:round; stroke-width:4; stroke-opacity:1; fill:none" points="
  2007.5,147.058 2153.92,147.058 
  "/>
<path clip-path="url(#clip320)" d="M2192.16 166.745 Q2190.35 171.375 2188.64 172.787 Q2186.93 174.199 2184.06 174.199 L2180.65 174.199 L2180.65 170.634 L2183.15 170.634 Q2184.91 170.634 2185.89 169.8 Q2186.86 168.967 2188.04 165.865 L2188.8 163.921 L2178.32 138.412 L2182.83 138.412 L2190.93 158.689 L2199.03 138.412 L2203.55 138.412 L2192.16 166.745 Z" fill="#000000" fill-rule="evenodd" fill-opacity="1" /><path clip-path="url(#clip320)" d="M2210.84 160.402 L2218.48 160.402 L2218.48 134.037 L2210.17 135.703 L2210.17 131.444 L2218.43 129.778 L2223.11 129.778 L2223.11 160.402 L2230.75 160.402 L2230.75 164.338 L2210.84 164.338 L2210.84 160.402 Z" fill="#000000" fill-rule="evenodd" fill-opacity="1" /></svg>
