<?xml version="1.0" encoding="utf-8"?>
<svg xmlns="http://www.w3.org/2000/svg" xmlns:xlink="http://www.w3.org/1999/xlink" width="600" height="400" viewBox="0 0 2400 1600">
<defs>
  <clipPath id="clip480">
    <rect x="0" y="0" width="2400" height="1600"/>
  </clipPath>
</defs>
<path clip-path="url(#clip480)" d="
M0 1600 L2400 1600 L2400 0 L0 0  Z
  " fill="#ffffff" fill-rule="evenodd" fill-opacity="1"/>
<defs>
  <clipPath id="clip481">
    <rect x="480" y="0" width="1681" height="1600"/>
  </clipPath>
</defs>
<path clip-path="url(#clip480)" d="
M219.866 1423.18 L2352.76 1423.18 L2352.76 47.2441 L219.866 47.2441  Z
  " fill="#ffffff" fill-rule="evenodd" fill-opacity="1"/>
<defs>
  <clipPath id="clip482">
    <rect x="219" y="47" width="2134" height="1377"/>
  </clipPath>
</defs>
<polyline clip-path="url(#clip482)" style="stroke:#000000; stroke-linecap:butt; stroke-linejoin:round; stroke-width:2; stroke-opacity:0.1; fill:none" points="
  280.231,1423.18 280.231,47.2441 
  "/>
<polyline clip-path="url(#clip482)" style="stroke:#000000; stroke-linecap:butt; stroke-linejoin:round; stroke-width:2; stroke-opacity:0.1; fill:none" points="
  783.271,1423.18 783.271,47.2441 
  "/>
<polyline clip-path="url(#clip482)" style="stroke:#000000; stroke-linecap:butt; stroke-linejoin:round; stroke-width:2; stroke-opacity:0.1; fill:none" points="
  1286.31,1423.18 1286.31,47.2441 
  "/>
<polyline clip-path="url(#clip482)" style="stroke:#000000; stroke-linecap:butt; stroke-linejoin:round; stroke-width:2; stroke-opacity:0.1; fill:none" points="
  1789.35,1423.18 1789.35,47.2441 
  "/>
<polyline clip-path="url(#clip482)" style="stroke:#000000; stroke-linecap:butt; stroke-linejoin:round; stroke-width:2; stroke-opacity:0.1; fill:none" points="
  2292.39,1423.18 2292.39,47.2441 
  "/>
<polyline clip-path="url(#clip480)" style="stroke:#000000; stroke-linecap:butt; stroke-linejoin:round; stroke-width:4; stroke-opacity:1; fill:none" points="
  219.866,1423.18 2352.76,1423.18 
  "/>
<polyline clip-path="url(#clip480)" style="stroke:#000000; stroke-linecap:butt; stroke-linejoin:round; stroke-width:4; stroke-opacity:1; fill:none" points="
  280.231,1423.18 280.231,1404.28 
  "/>
<polyline clip-path="url(#clip480)" style="stroke:#000000; stroke-linecap:butt; stroke-linejoin:round; stroke-width:4; stroke-opacity:1; fill:none" points="
  783.271,1423.18 783.271,1404.28 
  "/>
<polyline clip-path="url(#clip480)" style="stroke:#000000; stroke-linecap:butt; stroke-linejoin:round; stroke-width:4; stroke-opacity:1; fill:none" points="
  1286.31,1423.18 1286.31,1404.28 
  "/>
<polyline clip-path="url(#clip480)" style="stroke:#000000; stroke-linecap:butt; stroke-linejoin:round; stroke-width:4; stroke-opacity:1; fill:none" points="
  1789.35,1423.18 1789.35,1404.28 
  "/>
<polyline clip-path="url(#clip480)" style="stroke:#000000; stroke-linecap:butt; stroke-linejoin:round; stroke-width:4; stroke-opacity:1; fill:none" points="
  2292.39,1423.18 2292.39,1404.28 
  "/>
<path clip-path="url(#clip480)" d="M249.132 1468.75 L278.807 1468.75 L278.807 1472.69 L249.132 1472.69 L249.132 1468.75 Z" fill="#000000" fill-rule="evenodd" fill-opacity="1" /><path clip-path="url(#clip480)" d="M301.747 1455.09 L289.942 1473.54 L301.747 1473.54 L301.747 1455.09 M300.52 1451.02 L306.4 1451.02 L306.4 1473.54 L311.33 1473.54 L311.33 1477.43 L306.4 1477.43 L306.4 1485.58 L301.747 1485.58 L301.747 1477.43 L286.145 1477.43 L286.145 1472.92 L300.52 1451.02 Z" fill="#000000" fill-rule="evenodd" fill-opacity="1" /><path clip-path="url(#clip480)" d="M753.213 1468.75 L782.889 1468.75 L782.889 1472.69 L753.213 1472.69 L753.213 1468.75 Z" fill="#000000" fill-rule="evenodd" fill-opacity="1" /><path clip-path="url(#clip480)" d="M797.009 1481.64 L813.329 1481.64 L813.329 1485.58 L791.384 1485.58 L791.384 1481.64 Q794.046 1478.89 798.63 1474.26 Q803.236 1469.61 804.417 1468.27 Q806.662 1465.74 807.542 1464.01 Q808.445 1462.25 808.445 1460.56 Q808.445 1457.8 806.5 1456.07 Q804.579 1454.33 801.477 1454.33 Q799.278 1454.33 796.824 1455.09 Q794.394 1455.86 791.616 1457.41 L791.616 1452.69 Q794.44 1451.55 796.894 1450.97 Q799.347 1450.39 801.384 1450.39 Q806.755 1450.39 809.949 1453.08 Q813.144 1455.77 813.144 1460.26 Q813.144 1462.39 812.333 1464.31 Q811.546 1466.2 809.44 1468.8 Q808.861 1469.47 805.759 1472.69 Q802.658 1475.88 797.009 1481.64 Z" fill="#000000" fill-rule="evenodd" fill-opacity="1" /><path clip-path="url(#clip480)" d="M1286.31 1454.1 Q1282.7 1454.1 1280.87 1457.66 Q1279.07 1461.2 1279.07 1468.33 Q1279.07 1475.44 1280.87 1479.01 Q1282.7 1482.55 1286.31 1482.55 Q1289.95 1482.55 1291.75 1479.01 Q1293.58 1475.44 1293.58 1468.33 Q1293.58 1461.2 1291.75 1457.66 Q1289.95 1454.1 1286.31 1454.1 M1286.31 1450.39 Q1292.12 1450.39 1295.18 1455 Q1298.26 1459.58 1298.26 1468.33 Q1298.26 1477.06 1295.18 1481.67 Q1292.12 1486.25 1286.31 1486.25 Q1280.5 1486.25 1277.42 1481.67 Q1274.37 1477.06 1274.37 1468.33 Q1274.37 1459.58 1277.42 1455 Q1280.5 1450.39 1286.31 1450.39 Z" fill="#000000" fill-rule="evenodd" fill-opacity="1" /><path clip-path="url(#clip480)" d="M1784 1481.64 L1800.32 1481.64 L1800.32 1485.58 L1778.38 1485.58 L1778.38 1481.64 Q1781.04 1478.89 1785.62 1474.26 Q1790.23 1469.61 1791.41 1468.27 Q1793.66 1465.74 1794.54 1464.01 Q1795.44 1462.25 1795.44 1460.56 Q1795.44 1457.8 1793.49 1456.07 Q1791.57 1454.33 1788.47 1454.33 Q1786.27 1454.33 1783.82 1455.09 Q1781.39 1455.86 1778.61 1457.41 L1778.61 1452.69 Q1781.43 1451.55 1783.89 1450.97 Q1786.34 1450.39 1788.38 1450.39 Q1793.75 1450.39 1796.94 1453.08 Q1800.14 1455.77 1800.14 1460.26 Q1800.14 1462.39 1799.33 1464.31 Q1798.54 1466.2 1796.43 1468.8 Q1795.86 1469.47 1792.75 1472.69 Q1789.65 1475.88 1784 1481.64 Z" fill="#000000" fill-rule="evenodd" fill-opacity="1" /><path clip-path="url(#clip480)" d="M2295.4 1455.09 L2283.59 1473.54 L2295.4 1473.54 L2295.4 1455.09 M2294.17 1451.02 L2300.05 1451.02 L2300.05 1473.54 L2304.98 1473.54 L2304.98 1477.43 L2300.05 1477.43 L2300.05 1485.58 L2295.4 1485.58 L2295.4 1477.43 L2279.8 1477.43 L2279.8 1472.92 L2294.17 1451.02 Z" fill="#000000" fill-rule="evenodd" fill-opacity="1" /><path clip-path="url(#clip480)" d="M1129.64 1520.52 L1159.68 1520.52 L1159.68 1525.93 L1136.06 1525.93 L1136.06 1540 L1158.69 1540 L1158.69 1545.41 L1136.06 1545.41 L1136.06 1562.63 L1160.25 1562.63 L1160.25 1568.04 L1129.64 1568.04 L1129.64 1520.52 Z" fill="#000000" fill-rule="evenodd" fill-opacity="1" /><path clip-path="url(#clip480)" d="M1200.2 1546.53 L1200.2 1568.04 L1194.34 1568.04 L1194.34 1546.72 Q1194.34 1541.66 1192.37 1539.14 Q1190.4 1536.63 1186.45 1536.63 Q1181.71 1536.63 1178.97 1539.65 Q1176.23 1542.68 1176.23 1547.9 L1176.23 1568.04 L1170.34 1568.04 L1170.34 1532.4 L1176.23 1532.4 L1176.23 1537.93 Q1178.33 1534.72 1181.17 1533.13 Q1184.03 1531.54 1187.75 1531.54 Q1193.9 1531.54 1197.05 1535.36 Q1200.2 1539.14 1200.2 1546.53 Z" fill="#000000" fill-rule="evenodd" fill-opacity="1" /><path clip-path="url(#clip480)" d="M1242.37 1548.76 L1242.37 1551.62 L1215.44 1551.62 Q1215.83 1557.67 1219.07 1560.85 Q1222.35 1564 1228.18 1564 Q1231.55 1564 1234.7 1563.17 Q1237.88 1562.35 1241 1560.69 L1241 1566.23 Q1237.85 1567.57 1234.54 1568.27 Q1231.23 1568.97 1227.83 1568.97 Q1219.3 1568.97 1214.3 1564 Q1209.33 1559.04 1209.33 1550.57 Q1209.33 1541.82 1214.04 1536.69 Q1218.79 1531.54 1226.81 1531.54 Q1234 1531.54 1238.17 1536.18 Q1242.37 1540.8 1242.37 1548.76 M1236.52 1547.04 Q1236.45 1542.23 1233.81 1539.37 Q1231.2 1536.5 1226.87 1536.5 Q1221.97 1536.5 1219.01 1539.27 Q1216.08 1542.04 1215.64 1547.07 L1236.52 1547.04 Z" fill="#000000" fill-rule="evenodd" fill-opacity="1" /><path clip-path="url(#clip480)" d="M1272.64 1537.87 Q1271.65 1537.3 1270.48 1537.04 Q1269.33 1536.76 1267.93 1536.76 Q1262.96 1536.76 1260.29 1540 Q1257.65 1543.22 1257.65 1549.27 L1257.65 1568.04 L1251.76 1568.04 L1251.76 1532.4 L1257.65 1532.4 L1257.65 1537.93 Q1259.5 1534.69 1262.46 1533.13 Q1265.42 1531.54 1269.65 1531.54 Q1270.25 1531.54 1270.99 1531.63 Q1271.72 1531.7 1272.61 1531.85 L1272.64 1537.87 Z" fill="#000000" fill-rule="evenodd" fill-opacity="1" /><path clip-path="url(#clip480)" d="M1301.1 1549.81 Q1301.1 1543.44 1298.45 1539.94 Q1295.84 1536.44 1291.1 1536.44 Q1286.39 1536.44 1283.75 1539.94 Q1281.14 1543.44 1281.14 1549.81 Q1281.14 1556.14 1283.75 1559.64 Q1286.39 1563.14 1291.1 1563.14 Q1295.84 1563.14 1298.45 1559.64 Q1301.1 1556.14 1301.1 1549.81 M1306.95 1563.62 Q1306.95 1572.72 1302.91 1577.15 Q1298.87 1581.6 1290.53 1581.6 Q1287.44 1581.6 1284.7 1581.13 Q1281.97 1580.68 1279.39 1579.72 L1279.39 1574.03 Q1281.97 1575.43 1284.48 1576.1 Q1287 1576.76 1289.61 1576.76 Q1295.37 1576.76 1298.23 1573.74 Q1301.1 1570.75 1301.1 1564.67 L1301.1 1561.77 Q1299.28 1564.92 1296.45 1566.48 Q1293.62 1568.04 1289.67 1568.04 Q1283.11 1568.04 1279.1 1563.05 Q1275.09 1558.05 1275.09 1549.81 Q1275.09 1541.53 1279.1 1536.53 Q1283.11 1531.54 1289.67 1531.54 Q1293.62 1531.54 1296.45 1533.1 Q1299.28 1534.66 1301.1 1537.81 L1301.1 1532.4 L1306.95 1532.4 L1306.95 1563.62 Z" fill="#000000" fill-rule="evenodd" fill-opacity="1" /><path clip-path="url(#clip480)" d="M1333.85 1571.35 Q1331.36 1577.72 1329.01 1579.66 Q1326.65 1581.6 1322.71 1581.6 L1318.03 1581.6 L1318.03 1576.7 L1321.47 1576.7 Q1323.88 1576.7 1325.22 1575.56 Q1326.56 1574.41 1328.18 1570.14 L1329.23 1567.47 L1314.81 1532.4 L1321.02 1532.4 L1332.16 1560.28 L1343.3 1532.4 L1349.51 1532.4 L1333.85 1571.35 Z" fill="#000000" fill-rule="evenodd" fill-opacity="1" /><path clip-path="url(#clip480)" d="M1377.77 1518.52 L1391.27 1518.52 L1391.27 1523.07 L1383.63 1523.07 L1383.63 1572.09 L1391.27 1572.09 L1391.27 1576.64 L1377.77 1576.64 L1377.77 1518.52 Z" fill="#000000" fill-rule="evenodd" fill-opacity="1" /><path clip-path="url(#clip480)" d="M1409.54 1522.27 L1409.54 1532.4 L1421.6 1532.4 L1421.6 1536.95 L1409.54 1536.95 L1409.54 1556.3 Q1409.54 1560.66 1410.71 1561.9 Q1411.92 1563.14 1415.58 1563.14 L1421.6 1563.14 L1421.6 1568.04 L1415.58 1568.04 Q1408.8 1568.04 1406.23 1565.53 Q1403.65 1562.98 1403.65 1556.3 L1403.65 1536.95 L1399.35 1536.95 L1399.35 1532.4 L1403.65 1532.4 L1403.65 1522.27 L1409.54 1522.27 Z" fill="#000000" fill-rule="evenodd" fill-opacity="1" /><path clip-path="url(#clip480)" d="M1442.99 1518.52 L1442.99 1576.64 L1429.49 1576.64 L1429.49 1572.09 L1437.1 1572.09 L1437.1 1523.07 L1429.49 1523.07 L1429.49 1518.52 L1442.99 1518.52 Z" fill="#000000" fill-rule="evenodd" fill-opacity="1" /><polyline clip-path="url(#clip482)" style="stroke:#000000; stroke-linecap:butt; stroke-linejoin:round; stroke-width:2; stroke-opacity:0.1; fill:none" points="
  219.866,1385.71 2352.76,1385.71 
  "/>
<polyline clip-path="url(#clip482)" style="stroke:#000000; stroke-linecap:butt; stroke-linejoin:round; stroke-width:2; stroke-opacity:0.1; fill:none" points="
  219.866,1081.74 2352.76,1081.74 
  "/>
<polyline clip-path="url(#clip482)" style="stroke:#000000; stroke-linecap:butt; stroke-linejoin:round; stroke-width:2; stroke-opacity:0.1; fill:none" points="
  219.866,777.769 2352.76,777.769 
  "/>
<polyline clip-path="url(#clip482)" style="stroke:#000000; stroke-linecap:butt; stroke-linejoin:round; stroke-width:2; stroke-opacity:0.1; fill:none" points="
  219.866,473.797 2352.76,473.797 
  "/>
<polyline clip-path="url(#clip482)" style="stroke:#000000; stroke-linecap:butt; stroke-linejoin:round; stroke-width:2; stroke-opacity:0.1; fill:none" points="
  219.866,169.825 2352.76,169.825 
  "/>
<polyline clip-path="url(#clip480)" style="stroke:#000000; stroke-linecap:butt; stroke-linejoin:round; stroke-width:4; stroke-opacity:1; fill:none" points="
  219.866,1423.18 219.866,47.2441 
  "/>
<polyline clip-path="url(#clip480)" style="stroke:#000000; stroke-linecap:butt; stroke-linejoin:round; stroke-width:4; stroke-opacity:1; fill:none" points="
  219.866,1385.71 238.764,1385.71 
  "/>
<polyline clip-path="url(#clip480)" style="stroke:#000000; stroke-linecap:butt; stroke-linejoin:round; stroke-width:4; stroke-opacity:1; fill:none" points="
  219.866,1081.74 238.764,1081.74 
  "/>
<polyline clip-path="url(#clip480)" style="stroke:#000000; stroke-linecap:butt; stroke-linejoin:round; stroke-width:4; stroke-opacity:1; fill:none" points="
  219.866,777.769 238.764,777.769 
  "/>
<polyline clip-path="url(#clip480)" style="stroke:#000000; stroke-linecap:butt; stroke-linejoin:round; stroke-width:4; stroke-opacity:1; fill:none" points="
  219.866,473.797 238.764,473.797 
  "/>
<polyline clip-path="url(#clip480)" style="stroke:#000000; stroke-linecap:butt; stroke-linejoin:round; stroke-width:4; stroke-opacity:1; fill:none" points="
  219.866,169.825 238.764,169.825 
  "/>
<path clip-path="url(#clip480)" d="M126.691 1371.51 Q123.08 1371.51 121.251 1375.08 Q119.445 1378.62 119.445 1385.75 Q119.445 1392.85 121.251 1396.42 Q123.08 1399.96 126.691 1399.96 Q130.325 1399.96 132.13 1396.42 Q133.959 1392.85 133.959 1385.75 Q133.959 1378.62 132.13 1375.08 Q130.325 1371.51 126.691 1371.51 M126.691 1367.81 Q132.501 1367.81 135.556 1372.41 Q138.635 1377 138.635 1385.75 Q138.635 1394.47 135.556 1399.08 Q132.501 1403.66 126.691 1403.66 Q120.88 1403.66 117.802 1399.08 Q114.746 1394.47 114.746 1385.75 Q114.746 1377 117.802 1372.41 Q120.88 1367.81 126.691 1367.81 Z" fill="#000000" fill-rule="evenodd" fill-opacity="1" /><path clip-path="url(#clip480)" d="M146.853 1397.11 L151.737 1397.11 L151.737 1402.99 L146.853 1402.99 L146.853 1397.11 Z" fill="#000000" fill-rule="evenodd" fill-opacity="1" /><path clip-path="url(#clip480)" d="M171.922 1371.51 Q168.311 1371.51 166.482 1375.08 Q164.677 1378.62 164.677 1385.75 Q164.677 1392.85 166.482 1396.42 Q168.311 1399.96 171.922 1399.96 Q175.556 1399.96 177.362 1396.42 Q179.19 1392.85 179.19 1385.75 Q179.19 1378.62 177.362 1375.08 Q175.556 1371.51 171.922 1371.51 M171.922 1367.81 Q177.732 1367.81 180.788 1372.41 Q183.866 1377 183.866 1385.75 Q183.866 1394.47 180.788 1399.08 Q177.732 1403.66 171.922 1403.66 Q166.112 1403.66 163.033 1399.08 Q159.978 1394.47 159.978 1385.75 Q159.978 1377 163.033 1372.41 Q166.112 1367.81 171.922 1367.81 Z" fill="#000000" fill-rule="evenodd" fill-opacity="1" /><path clip-path="url(#clip480)" d="M128.288 1067.54 Q124.677 1067.54 122.848 1071.1 Q121.043 1074.65 121.043 1081.78 Q121.043 1088.88 122.848 1092.45 Q124.677 1095.99 128.288 1095.99 Q131.922 1095.99 133.728 1092.45 Q135.556 1088.88 135.556 1081.78 Q135.556 1074.65 133.728 1071.1 Q131.922 1067.54 128.288 1067.54 M128.288 1063.84 Q134.098 1063.84 137.154 1068.44 Q140.232 1073.03 140.232 1081.78 Q140.232 1090.5 137.154 1095.11 Q134.098 1099.69 128.288 1099.69 Q122.478 1099.69 119.399 1095.11 Q116.343 1090.5 116.343 1081.78 Q116.343 1073.03 119.399 1068.44 Q122.478 1063.84 128.288 1063.84 Z" fill="#000000" fill-rule="evenodd" fill-opacity="1" /><path clip-path="url(#clip480)" d="M148.45 1093.14 L153.334 1093.14 L153.334 1099.02 L148.45 1099.02 L148.45 1093.14 Z" fill="#000000" fill-rule="evenodd" fill-opacity="1" /><path clip-path="url(#clip480)" d="M167.547 1095.09 L183.866 1095.09 L183.866 1099.02 L161.922 1099.02 L161.922 1095.09 Q164.584 1092.33 169.167 1087.7 Q173.774 1083.05 174.954 1081.71 Q177.2 1079.18 178.079 1077.45 Q178.982 1075.69 178.982 1074 Q178.982 1071.24 177.038 1069.51 Q175.116 1067.77 172.014 1067.77 Q169.815 1067.77 167.362 1068.53 Q164.931 1069.3 162.153 1070.85 L162.153 1066.13 Q164.977 1064.99 167.431 1064.41 Q169.885 1063.84 171.922 1063.84 Q177.292 1063.84 180.487 1066.52 Q183.681 1069.21 183.681 1073.7 Q183.681 1075.83 182.871 1077.75 Q182.084 1079.65 179.977 1082.24 Q179.399 1082.91 176.297 1086.13 Q173.195 1089.32 167.547 1095.09 Z" fill="#000000" fill-rule="evenodd" fill-opacity="1" /><path clip-path="url(#clip480)" d="M126.205 763.567 Q122.593 763.567 120.765 767.132 Q118.959 770.674 118.959 777.803 Q118.959 784.91 120.765 788.475 Q122.593 792.016 126.205 792.016 Q129.839 792.016 131.644 788.475 Q133.473 784.91 133.473 777.803 Q133.473 770.674 131.644 767.132 Q129.839 763.567 126.205 763.567 M126.205 759.864 Q132.015 759.864 135.07 764.47 Q138.149 769.053 138.149 777.803 Q138.149 786.53 135.07 791.137 Q132.015 795.72 126.205 795.72 Q120.394 795.72 117.316 791.137 Q114.26 786.53 114.26 777.803 Q114.26 769.053 117.316 764.47 Q120.394 759.864 126.205 759.864 Z" fill="#000000" fill-rule="evenodd" fill-opacity="1" /><path clip-path="url(#clip480)" d="M146.366 789.169 L151.251 789.169 L151.251 795.049 L146.366 795.049 L146.366 789.169 Z" fill="#000000" fill-rule="evenodd" fill-opacity="1" /><path clip-path="url(#clip480)" d="M174.283 764.563 L162.477 783.012 L174.283 783.012 L174.283 764.563 M173.056 760.489 L178.936 760.489 L178.936 783.012 L183.866 783.012 L183.866 786.901 L178.936 786.901 L178.936 795.049 L174.283 795.049 L174.283 786.901 L158.681 786.901 L158.681 782.387 L173.056 760.489 Z" fill="#000000" fill-rule="evenodd" fill-opacity="1" /><path clip-path="url(#clip480)" d="M126.529 459.595 Q122.918 459.595 121.089 463.16 Q119.283 466.702 119.283 473.831 Q119.283 480.938 121.089 484.503 Q122.918 488.044 126.529 488.044 Q130.163 488.044 131.968 484.503 Q133.797 480.938 133.797 473.831 Q133.797 466.702 131.968 463.16 Q130.163 459.595 126.529 459.595 M126.529 455.892 Q132.339 455.892 135.394 460.498 Q138.473 465.081 138.473 473.831 Q138.473 482.558 135.394 487.165 Q132.339 491.748 126.529 491.748 Q120.718 491.748 117.64 487.165 Q114.584 482.558 114.584 473.831 Q114.584 465.081 117.64 460.498 Q120.718 455.892 126.529 455.892 Z" fill="#000000" fill-rule="evenodd" fill-opacity="1" /><path clip-path="url(#clip480)" d="M146.691 485.197 L151.575 485.197 L151.575 491.077 L146.691 491.077 L146.691 485.197 Z" fill="#000000" fill-rule="evenodd" fill-opacity="1" /><path clip-path="url(#clip480)" d="M172.339 471.933 Q169.19 471.933 167.339 474.086 Q165.51 476.239 165.51 479.989 Q165.51 483.716 167.339 485.892 Q169.19 488.044 172.339 488.044 Q175.487 488.044 177.315 485.892 Q179.167 483.716 179.167 479.989 Q179.167 476.239 177.315 474.086 Q175.487 471.933 172.339 471.933 M181.621 457.281 L181.621 461.54 Q179.862 460.707 178.056 460.267 Q176.274 459.827 174.514 459.827 Q169.885 459.827 167.431 462.952 Q165.001 466.077 164.653 472.396 Q166.019 470.382 168.079 469.318 Q170.139 468.23 172.616 468.23 Q177.825 468.23 180.834 471.401 Q183.866 474.549 183.866 479.989 Q183.866 485.313 180.718 488.53 Q177.57 491.748 172.339 491.748 Q166.343 491.748 163.172 487.165 Q160.001 482.558 160.001 473.831 Q160.001 465.637 163.89 460.776 Q167.778 455.892 174.329 455.892 Q176.089 455.892 177.871 456.239 Q179.676 456.586 181.621 457.281 Z" fill="#000000" fill-rule="evenodd" fill-opacity="1" /><path clip-path="url(#clip480)" d="M126.783 155.623 Q123.172 155.623 121.343 159.188 Q119.538 162.73 119.538 169.859 Q119.538 176.966 121.343 180.531 Q123.172 184.072 126.783 184.072 Q130.417 184.072 132.223 180.531 Q134.052 176.966 134.052 169.859 Q134.052 162.73 132.223 159.188 Q130.417 155.623 126.783 155.623 M126.783 151.92 Q132.593 151.92 135.649 156.526 Q138.728 161.11 138.728 169.859 Q138.728 178.586 135.649 183.193 Q132.593 187.776 126.783 187.776 Q120.973 187.776 117.894 183.193 Q114.839 178.586 114.839 169.859 Q114.839 161.11 117.894 156.526 Q120.973 151.92 126.783 151.92 Z" fill="#000000" fill-rule="evenodd" fill-opacity="1" /><path clip-path="url(#clip480)" d="M146.945 181.225 L151.829 181.225 L151.829 187.105 L146.945 187.105 L146.945 181.225 Z" fill="#000000" fill-rule="evenodd" fill-opacity="1" /><path clip-path="url(#clip480)" d="M172.014 170.693 Q168.681 170.693 166.76 172.475 Q164.862 174.258 164.862 177.383 Q164.862 180.508 166.76 182.29 Q168.681 184.072 172.014 184.072 Q175.348 184.072 177.269 182.29 Q179.19 180.484 179.19 177.383 Q179.19 174.258 177.269 172.475 Q175.371 170.693 172.014 170.693 M167.339 168.702 Q164.329 167.961 162.64 165.901 Q160.973 163.841 160.973 160.878 Q160.973 156.735 163.913 154.327 Q166.876 151.92 172.014 151.92 Q177.176 151.92 180.116 154.327 Q183.056 156.735 183.056 160.878 Q183.056 163.841 181.366 165.901 Q179.7 167.961 176.714 168.702 Q180.093 169.489 181.968 171.781 Q183.866 174.072 183.866 177.383 Q183.866 182.406 180.788 185.091 Q177.732 187.776 172.014 187.776 Q166.297 187.776 163.218 185.091 Q160.163 182.406 160.163 177.383 Q160.163 174.072 162.061 171.781 Q163.959 169.489 167.339 168.702 M165.626 161.318 Q165.626 164.003 167.292 165.508 Q168.982 167.012 172.014 167.012 Q175.024 167.012 176.714 165.508 Q178.426 164.003 178.426 161.318 Q178.426 158.633 176.714 157.128 Q175.024 155.623 172.014 155.623 Q168.982 155.623 167.292 157.128 Q165.626 158.633 165.626 161.318 Z" fill="#000000" fill-rule="evenodd" fill-opacity="1" /><path clip-path="url(#clip480)" d="M16.4842 896.471 L16.4842 890.042 L58.5933 890.042 L58.5933 866.903 L64.0042 866.903 L64.0042 896.471 L16.4842 896.471 Z" fill="#000000" fill-rule="evenodd" fill-opacity="1" /><path clip-path="url(#clip480)" d="M32.4621 847.742 Q32.4621 852.452 36.1542 855.19 Q39.8145 857.927 46.212 857.927 Q52.6095 857.927 56.3017 855.221 Q59.9619 852.484 59.9619 847.742 Q59.9619 843.063 56.2698 840.326 Q52.5777 837.588 46.212 837.588 Q39.8781 837.588 36.186 840.326 Q32.4621 843.063 32.4621 847.742 M27.4968 847.742 Q27.4968 840.103 32.4621 835.742 Q37.4273 831.382 46.212 831.382 Q54.9649 831.382 59.9619 835.742 Q64.9272 840.103 64.9272 847.742 Q64.9272 855.412 59.9619 859.773 Q54.9649 864.102 46.212 864.102 Q37.4273 864.102 32.4621 859.773 Q27.4968 855.412 27.4968 847.742 Z" fill="#000000" fill-rule="evenodd" fill-opacity="1" /><path clip-path="url(#clip480)" d="M29.7248 796.02 L35.1993 796.02 Q33.8307 798.503 33.1623 801.017 Q32.4621 803.5 32.4621 806.046 Q32.4621 811.744 36.0905 814.895 Q39.6872 818.046 46.212 818.046 Q52.7369 818.046 56.3653 814.895 Q59.9619 811.744 59.9619 806.046 Q59.9619 803.5 59.2935 801.017 Q58.5933 798.503 57.2247 796.02 L62.6355 796.02 Q63.7814 798.471 64.3543 801.113 Q64.9272 803.723 64.9272 806.683 Q64.9272 814.736 59.8664 819.478 Q54.8057 824.22 46.212 824.22 Q37.491 824.22 32.4939 819.446 Q27.4968 814.64 27.4968 806.301 Q27.4968 803.596 28.0697 801.017 Q28.6108 798.439 29.7248 796.02 Z" fill="#000000" fill-rule="evenodd" fill-opacity="1" /><path clip-path="url(#clip480)" d="M46.0847 769.635 Q46.0847 776.732 47.7079 779.47 Q49.3312 782.207 53.2461 782.207 Q56.3653 782.207 58.2114 780.17 Q60.0256 778.101 60.0256 774.568 Q60.0256 769.698 56.5881 766.77 Q53.1188 763.81 47.3897 763.81 L46.0847 763.81 L46.0847 769.635 M43.6657 757.953 L64.0042 757.953 L64.0042 763.81 L58.5933 763.81 Q61.8398 765.815 63.3994 768.807 Q64.9272 771.799 64.9272 776.128 Q64.9272 781.602 61.8716 784.849 Q58.7843 788.063 53.6281 788.063 Q47.6125 788.063 44.5569 784.053 Q41.5014 780.011 41.5014 772.022 L41.5014 763.81 L40.9285 763.81 Q36.8862 763.81 34.6901 766.484 Q32.4621 769.125 32.4621 773.931 Q32.4621 776.987 33.1941 779.883 Q33.9262 782.78 35.3903 785.453 L29.9795 785.453 Q28.7381 782.239 28.1334 779.215 Q27.4968 776.191 27.4968 773.327 Q27.4968 765.592 31.5072 761.773 Q35.5176 757.953 43.6657 757.953 Z" fill="#000000" fill-rule="evenodd" fill-opacity="1" /><path clip-path="url(#clip480)" d="M14.479 745.89 L14.479 740.034 L64.0042 740.034 L64.0042 745.89 L14.479 745.89 Z" fill="#000000" fill-rule="evenodd" fill-opacity="1" /><path clip-path="url(#clip480)" d="M21.7677 700.376 L58.7206 700.376 L58.7206 692.609 Q58.7206 682.774 54.2646 678.223 Q49.8086 673.64 40.1964 673.64 Q30.6479 673.64 26.2237 678.223 Q21.7677 682.774 21.7677 692.609 L21.7677 700.376 M16.4842 706.805 L16.4842 693.596 Q16.4842 679.783 22.2451 673.321 Q27.9743 666.86 40.1964 666.86 Q52.4822 666.86 58.2432 673.353 Q64.0042 679.846 64.0042 693.596 L64.0042 706.805 L16.4842 706.805 Z" fill="#000000" fill-rule="evenodd" fill-opacity="1" /><path clip-path="url(#clip480)" d="M20.8447 637.323 Q20.8447 644.326 26.0645 648.463 Q31.2844 652.569 40.2919 652.569 Q49.2675 652.569 54.4874 648.463 Q59.7073 644.326 59.7073 637.323 Q59.7073 630.321 54.4874 626.247 Q49.2675 622.141 40.2919 622.141 Q31.2844 622.141 26.0645 626.247 Q20.8447 630.321 20.8447 637.323 M15.6248 637.323 Q15.6248 627.329 22.3406 621.345 Q29.0246 615.362 40.2919 615.362 Q51.5274 615.362 58.2432 621.345 Q64.9272 627.329 64.9272 637.323 Q64.9272 647.349 58.2432 653.365 Q51.5592 659.349 40.2919 659.349 Q29.0246 659.349 22.3406 653.365 Q15.6248 647.349 15.6248 637.323 Z" fill="#000000" fill-rule="evenodd" fill-opacity="1" /><path clip-path="url(#clip480)" d="M18.0438 576.817 L24.314 576.817 Q22.5634 580.478 21.704 583.724 Q20.8447 586.971 20.8447 589.994 Q20.8447 595.246 22.8817 598.111 Q24.9187 600.943 28.6745 600.943 Q31.8255 600.943 33.4488 599.065 Q35.0402 597.156 36.0269 591.872 L36.8226 587.989 Q38.1912 580.796 41.6605 577.39 Q45.098 573.953 50.8908 573.953 Q57.7976 573.953 61.3624 578.6 Q64.9272 583.215 64.9272 592.159 Q64.9272 595.532 64.1633 599.352 Q63.3994 603.139 61.9035 607.214 L55.2831 607.214 Q57.4793 603.299 58.5933 599.543 Q59.7073 595.787 59.7073 592.159 Q59.7073 586.652 57.543 583.66 Q55.3786 580.669 51.3682 580.669 Q47.8671 580.669 45.8937 582.833 Q43.9204 584.965 42.9337 589.867 L42.1698 593.782 Q40.7375 600.975 37.682 604.19 Q34.6264 607.404 29.1837 607.404 Q22.8817 607.404 19.2532 602.98 Q15.6248 598.524 15.6248 590.726 Q15.6248 587.384 16.2295 583.915 Q16.8343 580.446 18.0438 576.817 Z" fill="#000000" fill-rule="evenodd" fill-opacity="1" /><polyline clip-path="url(#clip482)" style="stroke:#009af9; stroke-linecap:butt; stroke-linejoin:round; stroke-width:4; stroke-opacity:1; fill:none" points="
  280.231,1123.79 282.245,1205.27 284.259,1232.43 286.274,1231.5 288.288,1204.45 290.302,1133.62 292.316,968.595 294.33,654.08 296.344,253.629 298.359,366.46 
  300.373,851.932 302.387,1071.7 304.401,1145.58 306.415,1144.87 308.43,1062.46 310.444,825.882 312.458,661.915 314.472,937.028 316.486,1101.92 318.5,1144.25 
  320.515,1107.75 322.529,963.672 324.543,733.118 326.557,600.874 328.571,304.776 330.585,529.857 332.6,830.739 334.614,908.192 336.628,781.854 338.642,714.714 
  340.656,910.103 342.67,1089.59 344.685,1135.27 346.699,1098.31 348.713,1062.82 350.727,1007.15 352.741,804.654 354.756,812.511 356.77,951.333 358.784,860.891 
  360.798,795.761 362.812,938.028 364.826,899.517 366.841,807.44 368.855,958.144 370.869,1103.65 372.883,1166.56 374.897,1157.92 376.911,1069.82 378.926,834.915 
  380.94,699.813 382.954,854.067 384.968,752.839 386.982,607.601 388.996,842.019 391.011,952.406 393.025,839.465 395.039,641.655 397.053,822.183 399.067,956.073 
  401.082,841.592 403.096,701.573 405.11,949.034 407.124,1095.1 409.138,1114.92 411.152,1033.51 413.167,813.251 415.181,765.236 417.195,941.775 419.209,896.535 
  421.223,833.408 423.237,977.104 425.252,951.971 427.266,778.692 429.28,892.669 431.294,1021.91 433.308,1088.24 435.322,1109.36 437.337,1067.93 439.351,898.007 
  441.365,845.459 443.379,889.526 445.393,856.148 447.408,953.455 449.422,925.71 451.436,724.011 453.45,348.683 455.464,461.281 457.478,719.25 459.493,955.575 
  461.507,1105.09 463.521,1145.99 465.535,1112.85 467.549,969.053 469.563,703.376 471.578,732.798 473.592,979.209 475.606,1091.24 477.62,1084.41 479.634,954.829 
  481.648,589.119 483.663,168.909 485.677,529.92 487.691,928.305 489.705,1071.3 491.719,1144.82 493.734,1197.34 495.748,1202.56 497.762,1156.52 499.776,1009.41 
  501.79,780.496 503.804,940.986 505.819,1117.68 507.833,1169.5 509.847,1147.41 511.861,1061.65 513.875,982.727 515.889,753.669 517.904,299.008 519.918,401.412 
  521.932,756.959 523.946,959.174 525.96,964.56 527.974,905.566 529.989,1039.79 532.003,1104.67 534.017,1045.78 536.031,929.991 538.045,996.912 540.06,980.931 
  542.074,797.769 544.088,550.409 546.102,237.644 548.116,514.03 550.13,851.15 552.145,1036.57 554.159,1060.69 556.173,1080.54 558.187,1162.69 560.201,1195.01 
  562.215,1184.04 564.23,1124.31 566.244,968.643 568.258,578.947 570.272,86.1857 572.286,209.648 574.301,701.557 576.315,1014.6 578.329,1133.34 580.343,1160.77 
  582.357,1108.11 584.371,1002.89 586.386,1077.64 588.4,1136.68 590.414,1127.91 592.428,1146.42 594.442,1205.66 596.456,1212.68 598.471,1170.94 600.485,1055.68 
  602.499,927.269 604.513,890.336 606.527,645.277 608.541,276.06 610.556,402.633 612.57,792.737 614.584,933.388 616.598,905.475 618.612,925.763 620.627,790.109 
  622.641,763.744 624.655,969.4 626.669,1029.35 628.683,921.065 630.697,909.517 632.712,1012.44 634.726,933.103 636.74,660.85 638.754,708.506 640.768,889.607 
  642.782,1056.47 644.797,1120.03 646.811,1069.46 648.825,927.679 650.839,911.438 652.853,886.599 654.867,981.452 656.882,996.854 658.896,825.505 660.91,569.048 
  662.924,690.827 664.938,709.176 666.953,886.834 668.967,1084.92 670.981,1149.1 672.995,1201.54 675.009,1242.74 677.023,1254.35 679.038,1245.86 681.052,1215.16 
  683.066,1142.79 685.08,967.657 687.094,689.275 689.108,605.207 691.123,522.002 693.137,702.775 695.151,723.591 697.165,532.36 699.179,522.619 701.193,752.287 
  703.208,1029.05 705.222,1141.49 707.236,1162.54 709.25,1114.42 711.264,984.704 713.279,896.857 715.293,1076.29 717.307,1169.66 719.321,1172.21 721.335,1127.39 
  723.349,1088.02 725.364,928.023 727.378,641.391 729.392,815.003 731.406,1024.92 733.42,1060.45 735.434,955.736 737.449,621.58 739.463,293.472 741.477,601.806 
  743.491,787.101 745.505,901.725 747.519,1092.86 749.534,1174.28 751.548,1188.38 753.562,1146.44 755.576,1010.1 757.59,796.152 759.605,683.29 761.619,835.362 
  763.633,1025.17 765.647,1030.79 767.661,901.739 769.675,1006.71 771.69,1153.03 773.704,1193.63 775.718,1157.76 777.732,1059.89 779.746,1099.79 781.76,1148.88 
  783.775,1109.55 785.789,1047.53 787.803,852.007 789.817,755.579 791.831,948.225 793.845,945.61 795.86,833.652 797.874,866.209 799.888,919.224 801.902,981.631 
  803.916,1063.72 805.931,1017.14 807.945,821.477 809.959,816.142 811.973,839.606 813.987,546.191 816.001,177.938 818.016,535.032 820.03,960.661 822.044,1140.39 
  824.058,1217.57 826.072,1253.13 828.086,1267.44 830.101,1265.67 832.115,1242.45 834.129,1175.17 836.143,1076.36 838.157,1081.54 840.171,993.116 842.186,831.08 
  844.2,911.856 846.214,1041.81 848.228,1011.56 850.242,812.458 852.257,827.726 854.271,943.727 856.285,884.913 858.299,1007.29 860.313,1116.29 862.327,1164.95 
  864.342,1170.21 866.356,1086.06 868.37,850.502 870.384,772.563 872.398,1023.72 874.412,1127.16 876.427,1099.32 878.441,942.173 880.455,904.512 882.469,1080.48 
  884.483,1196.11 886.498,1236.86 888.512,1236.43 890.526,1205.65 892.54,1131.75 894.554,953.769 896.568,674.975 898.583,358.742 900.597,538.147 902.611,957.65 
  904.625,1155.51 906.639,1239.37 908.653,1279.73 910.668,1301.07 912.682,1312.63 914.696,1318.23 916.71,1319.38 918.724,1316.27 920.738,1307.87 922.753,1291.12 
  924.767,1258.36 926.781,1188.78 928.795,1023.82 930.809,725.664 932.824,704.91 934.838,743.566 936.852,700.117 938.866,975.308 940.88,1161.38 942.894,1236.07 
  944.909,1264.65 946.923,1268.97 948.937,1250.77 950.951,1193.39 952.965,1039.09 954.979,760.973 956.994,884.591 959.008,1122.48 961.022,1213.45 963.036,1229.1 
  965.05,1220.04 967.064,1227.77 969.079,1207.89 971.093,1213.95 973.107,1189.87 975.121,1088.62 977.135,829.987 979.15,483.545 981.164,375.104 983.178,625.786 
  985.192,968.3 987.206,1160.15 989.22,1243.22 991.235,1283.36 993.249,1304.86 995.263,1316.93 997.277,1323.45 999.291,1326.12 1001.31,1325.56 1003.32,1321.62 
  1005.33,1313.3 1007.35,1298.2 1009.36,1270.78 1011.38,1217.3 1013.39,1099.65 1015.4,825.113 1017.42,460.76 1019.43,537.482 1021.45,719.648 1023.46,941.935 
  1025.48,1136.27 1027.49,1213.84 1029.5,1233.42 1031.52,1206.41 1033.53,1099.94 1035.55,981.593 1037.56,1117.31 1039.57,1213.3 1041.59,1235.13 1043.6,1206.21 
  1045.62,1130.1 1047.63,1004.59 1049.65,946.888 1051.66,1091.25 1053.67,1138.54 1055.69,1060.23 1057.7,793.472 1059.72,592.555 1061.73,871.331 1063.74,1064.68 
  1065.76,1191.58 1067.77,1243.51 1069.79,1255.13 1071.8,1233.23 1073.82,1155.36 1075.83,1054.38 1077.84,1043.9 1079.86,1072.46 1081.87,1112.12 1083.89,1087.84 
  1085.9,946.242 1087.91,730.479 1089.93,906.881 1091.94,1044.36 1093.96,1075.54 1095.97,1148.17 1097.99,1138.7 1100,1038.31 1102.01,915.007 1104.03,781.693 
  1106.04,975.958 1108.06,1078.32 1110.07,1043.17 1112.09,1038.54 1114.1,967.737 1116.11,1065.35 1118.13,1167.04 1120.14,1162.59 1122.16,1130.39 1124.17,1118.97 
  1126.18,1221.03 1128.2,1279.19 1130.21,1299.55 1132.23,1301.79 1134.24,1288.78 1136.26,1249.95 1138.27,1152.33 1140.28,1036.47 1142.3,1060.18 1144.31,1056.64 
  1146.33,985.791 1148.34,1050.37 1150.35,1059.05 1152.37,1043.74 1154.38,1035.49 1156.4,1039.49 1158.41,998.378 1160.43,944.183 1162.44,924.509 1164.45,966.07 
  1166.47,1110.48 1168.48,1234.98 1170.5,1290.38 1172.51,1315.86 1174.52,1328.69 1176.54,1335.02 1178.55,1337.11 1180.57,1335.48 1182.58,1329.32 1184.6,1315.81 
  1186.61,1287.23 1188.62,1221.3 1190.64,1067.65 1192.65,937.69 1194.67,954.338 1196.68,1024.46 1198.69,1182.56 1200.71,1255.98 1202.72,1270.48 1204.74,1237 
  1206.75,1170.89 1208.77,1177.71 1210.78,1257.77 1212.79,1295.7 1214.81,1297.08 1216.82,1262.14 1218.84,1172.58 1220.85,1175.5 1222.86,1262.36 1224.88,1291.93 
  1226.89,1278.53 1228.91,1211 1230.92,1154.66 1232.94,1241.5 1234.95,1289.36 1236.96,1289.21 1238.98,1240.24 1240.99,1162.02 1243.01,1231.36 1245.02,1300.33 
  1247.03,1326.1 1249.05,1332.69 1251.06,1326.61 1253.08,1301.89 1255.09,1233.21 1257.11,1125.42 1259.12,1200.11 1261.13,1290.35 1263.15,1326.11 1265.16,1339.33 
  1267.18,1341.87 1269.19,1335.3 1271.2,1313.07 1273.22,1252.63 1275.23,1163.87 1277.25,1232.75 1279.26,1306.93 1281.28,1336.57 1283.29,1348.43 1285.3,1352.72 
  1287.32,1352.39 1289.33,1347.3 1291.35,1334.08 1293.36,1301.47 1295.37,1220.06 1297.39,1144.56 1299.4,1242.21 1301.42,1308.89 1303.43,1333.86 1305.45,1342.02 
  1307.46,1340.92 1309.47,1329.77 1311.49,1298.27 1313.5,1218.11 1315.52,1151.62 1317.53,1247.2 1319.54,1307.76 1321.56,1328.79 1323.57,1332.46 1325.59,1323.13 
  1327.6,1292.33 1329.62,1211.75 1331.63,1131.11 1333.64,1222.49 1335.66,1280.42 1337.67,1282.81 1339.69,1232.49 1341.7,1139.91 1343.72,1201.34 1345.73,1275.1 
  1347.74,1291.48 1349.76,1263.95 1351.77,1179.49 1353.79,1177.42 1355.8,1266.43 1357.81,1302.16 1359.83,1303.42 1361.84,1272.28 1363.86,1205.05 1365.87,1199.78 
  1367.89,1252 1369.9,1273.36 1371.91,1247.72 1373.93,1153.14 1375.94,956.175 1377.96,918.875 1379.97,984.088 1381.98,1111.45 1384,1241.99 1386.01,1298.89 
  1388.03,1324.29 1390.04,1336.73 1392.06,1342.75 1394.07,1344.81 1396.08,1343.67 1398.1,1339 1400.11,1329.15 1402.13,1309.75 1404.14,1268.86 1406.15,1175.81 
  1408.17,1015.52 1410.18,886.241 1412.2,940.984 1414.21,1083.04 1416.23,1171.8 1418.24,1182 1420.25,1139.6 1422.27,1123.21 1424.28,1169.2 1426.3,1191.95 
  1428.31,1176.74 1430.32,1138.39 1432.34,1199.32 1434.35,1274.14 1436.37,1317.49 1438.38,1335.99 1440.4,1343.89 1442.41,1346.12 1444.42,1343.39 1446.44,1333.05 
  1448.45,1313.23 1450.47,1303.68 1452.48,1278.89 1454.49,1218.25 1456.51,1086.26 1458.52,1016.6 1460.54,1118.92 1462.55,1178.88 1464.57,1235.77 1466.58,1221.88 
  1468.59,1213.06 1470.61,1257.3 1472.62,1292.92 1474.64,1301.63 1476.65,1286.5 1478.66,1231.78 1480.68,1216.62 1482.69,1215.53 1484.71,1195.05 1486.72,1240.77 
  1488.74,1278.98 1490.75,1280.38 1492.76,1242.96 1494.78,1212.83 1496.79,1207.33 1498.81,1270.73 1500.82,1319.42 1502.83,1337.65 1504.85,1341.57 1506.86,1334.28 
  1508.88,1310.03 1510.89,1259.56 1512.91,1177.91 1514.92,1231.33 1516.93,1305.21 1518.95,1332.1 1520.96,1335.37 1522.98,1325.23 1524.99,1327.09 1527,1344.79 
  1529.02,1355.81 1531.03,1361.13 1533.05,1359.55 1535.06,1353.14 1537.08,1343.5 1539.09,1355 1541.1,1364.56 1543.12,1366.91 1545.13,1364.5 1547.15,1355.47 
  1549.16,1332.54 1551.17,1310.4 1553.19,1304.84 1555.2,1306.86 1557.22,1334.41 1559.23,1357.68 1561.25,1368.21 1563.26,1373.06 1565.27,1375.59 1567.29,1377.02 
  1569.3,1377.85 1571.32,1378.28 1573.33,1378.41 1575.35,1378.25 1577.36,1377.76 1579.37,1376.79 1581.39,1375.03 1583.4,1371.79 1585.42,1365.27 1587.43,1350.5 
  1589.44,1317.97 1591.46,1278.45 1593.47,1297.06 1595.49,1334.89 1597.5,1358.23 1599.52,1367.69 1601.53,1370.82 1603.54,1371.4 1605.56,1373.29 1607.57,1373.25 
  1609.59,1374.01 1611.6,1373.77 1613.61,1369.35 1615.63,1357.25 1617.64,1351.93 1619.66,1366.04 1621.67,1373.62 1623.69,1376.37 1625.7,1377.07 1627.71,1376.46 
  1629.73,1374.18 1631.74,1368.43 1633.76,1354.11 1635.77,1336.1 1637.78,1344.97 1639.8,1349.46 1641.81,1354.3 1643.83,1367.53 1645.84,1374.49 1647.86,1377.5 
  1649.87,1378.93 1651.88,1379.64 1653.9,1379.95 1655.91,1379.97 1657.93,1379.75 1659.94,1379.25 1661.95,1378.34 1663.97,1376.78 1665.98,1373.96 1668,1368.32 
  1670.01,1355.44 1672.03,1326.79 1674.04,1303.36 1676.05,1319.56 1678.07,1344.16 1680.08,1361.51 1682.1,1368.63 1684.11,1372.41 1686.12,1373.62 1688.14,1372.45 
  1690.15,1367.91 1692.17,1362.59 1694.18,1364.37 1696.2,1368.85 1698.21,1368.69 1700.22,1363.95 1702.24,1353.89 1704.25,1351.55 1706.27,1349.69 1708.28,1336.83 
  1710.29,1305.93 1712.31,1237.28 1714.32,1194.99 1716.34,1155.69 1718.35,1188.14 1720.37,1214.19 1722.38,1199.24 1724.39,1272.45 1726.41,1316.29 1728.42,1334.74 
  1730.44,1342.73 1732.45,1346.05 1734.46,1342.64 1736.48,1338.04 1738.49,1355.37 1740.51,1366.26 1742.52,1370.65 1744.54,1372.27 1746.55,1372.28 1748.56,1370.69 
  1750.58,1366.53 1752.59,1356.52 1754.61,1333.34 1756.62,1309.84 1758.63,1323.57 1760.65,1318.85 1762.66,1288.51 1764.68,1280.86 1766.69,1325 1768.71,1340.46 
  1770.72,1333.91 1772.73,1339.56 1774.75,1345.59 1776.76,1354.07 1778.78,1364.76 1780.79,1368.72 1782.81,1367.37 1784.82,1369.07 1786.83,1369.79 1788.85,1368.78 
  1790.86,1373.05 1792.88,1374.17 1794.89,1373.52 1796.9,1376.55 1798.92,1378.32 1800.93,1378.35 1802.95,1376.79 1804.96,1375.08 1806.98,1375.07 1808.99,1372.01 
  1811,1362.68 1813.02,1349.45 1815.03,1343.52 1817.05,1358.49 1819.06,1369.49 1821.07,1373.13 1823.09,1373.38 1825.1,1370.67 1827.12,1363.45 1829.13,1350.67 
  1831.15,1321.83 1833.16,1288.6 1835.17,1322.21 1837.19,1353.76 1839.2,1366.65 1841.22,1370.87 1843.23,1369.47 1845.24,1366.83 1847.26,1372.86 1849.27,1376.96 
  1851.29,1378.6 1853.3,1379.43 1855.32,1379 1857.33,1376.44 1859.34,1371.3 1861.36,1372.65 1863.37,1376.61 1865.39,1379.01 1867.4,1379.34 1869.41,1377.94 
  1871.43,1374.53 1873.44,1370.7 1875.46,1370.92 1877.47,1368.93 1879.49,1362.91 1881.5,1353.08 1883.51,1356.36 1885.53,1367.05 1887.54,1374.8 1889.56,1378.65 
  1891.57,1380.3 1893.58,1380.99 1895.6,1381.12 1897.61,1380.74 1899.63,1379.61 1901.64,1377.97 1903.66,1375.12 1905.67,1369.24 1907.68,1359.04 1909.7,1348.81 
  1911.71,1342.05 1913.73,1354 1915.74,1368.34 1917.75,1372.69 1919.77,1372.01 1921.78,1371.3 1923.8,1369.73 1925.81,1374.77 1927.83,1377.96 1929.84,1377.94 
  1931.85,1375.15 1933.87,1372.69 1935.88,1372.46 1937.9,1376.47 1939.91,1377.66 1941.92,1375.41 1943.94,1374.94 1945.95,1376.53 1947.97,1373.99 1949.98,1366.41 
  1952,1367.03 1954.01,1370.93 1956.02,1370.2 1958.04,1374.25 1960.05,1375.28 1962.07,1372.86 1964.08,1371.99 1966.09,1375.98 1968.11,1378.79 1970.12,1379.53 
  1972.14,1381.04 1974.15,1381.99 1976.17,1382.02 1978.18,1381.13 1980.19,1378.98 1982.21,1378.64 1984.22,1380.18 1986.24,1379.85 1988.25,1379.14 1990.26,1380.02 
  1992.28,1380.04 1994.29,1378.51 1996.31,1374.43 1998.32,1364.32 2000.34,1348.67 2002.35,1344.5 2004.36,1359.6 2006.38,1372.51 2008.39,1377.79 2010.41,1379.97 
  2012.42,1380.72 2014.44,1380.34 2016.45,1379.11 2018.46,1378.75 2020.48,1378.97 2022.49,1377.03 2024.51,1371.61 2026.52,1369.15 2028.53,1373.75 2030.55,1377.51 
  2032.56,1379.22 2034.58,1378.03 2036.59,1375.89 2038.61,1378.59 2040.62,1380.67 2042.63,1380.81 2044.65,1379.79 2046.66,1380 2048.68,1378.99 2050.69,1374.76 
  2052.7,1371.67 2054.72,1373.76 2056.73,1378.42 2058.75,1380.4 2060.76,1380.95 2062.78,1381.9 2064.79,1382.03 2066.8,1381 2068.82,1377.87 2070.83,1375.01 
  2072.85,1378.84 2074.86,1381.28 2076.87,1381.95 2078.89,1381.68 2080.9,1380.48 2082.92,1378.59 2084.93,1374.5 2086.95,1363.88 2088.96,1354.97 2090.97,1366.3 
  2092.99,1375.77 2095,1379.48 2097.02,1380.69 2099.03,1380.2 2101.04,1378.01 2103.06,1377.09 2105.07,1380.21 2107.09,1381.94 2109.1,1382.34 2111.12,1381.81 
  2113.13,1380.04 2115.14,1377.85 2117.16,1376.16 2119.17,1375.22 2121.19,1378.14 2123.2,1380.36 2125.21,1380.6 2127.23,1379.83 2129.24,1378.91 2131.26,1375.72 
  2133.27,1376.18 2135.29,1379.99 2137.3,1381.22 2139.31,1381.63 2141.33,1381.6 2143.34,1381.13 2145.36,1380.34 2147.37,1380.88 2149.38,1379.65 2151.4,1376.45 
  2153.41,1377.67 2155.43,1379.29 2157.44,1377.61 2159.46,1378.14 2161.47,1380.78 2163.48,1381.52 2165.5,1380.71 2167.51,1377.57 2169.53,1372.83 2171.54,1375.56 
  2173.55,1377.89 2175.57,1376 2177.58,1373.36 2179.6,1377.28 2181.61,1380.02 2183.63,1380.01 2185.64,1378.52 2187.65,1380.16 2189.67,1381.34 2191.68,1380.78 
  2193.7,1381.6 2195.71,1382.95 2197.72,1383.41 2199.74,1383.3 2201.75,1382.53 2203.77,1381 2205.78,1379.55 2207.8,1380.5 2209.81,1381.2 2211.82,1380.1 
  2213.84,1380.37 2215.85,1380.09 2217.87,1376.9 2219.88,1376.63 2221.9,1380.05 2223.91,1381.22 2225.92,1382.23 2227.94,1382.77 2229.95,1382.5 2231.97,1381.15 
  2233.98,1378.91 2235.99,1378.23 2238.01,1379.72 2240.02,1378.7 2242.04,1374.2 2244.05,1372.02 2246.07,1376.13 2248.08,1378.72 2250.09,1381.03 2252.11,1382.45 
  2254.12,1382.77 2256.14,1382.23 2258.15,1380.17 2260.16,1376.75 2262.18,1378.68 2264.19,1381.81 2266.21,1383.06 2268.22,1383.39 2270.24,1383.11 2272.25,1381.92 
  2274.26,1379.1 2276.28,1378.69 2278.29,1381.07 2280.31,1382.81 2282.32,1383.72 2284.33,1384.11 2286.35,1384.24 2288.36,1384.18 2290.38,1383.92 2292.39,1383.21 
  
  "/>
<path clip-path="url(#clip480)" d="
M1992.24 196.789 L2281.66 196.789 L2281.66 93.1086 L1992.24 93.1086  Z
  " fill="#ffffff" fill-rule="evenodd" fill-opacity="1"/>
<polyline clip-path="url(#clip480)" style="stroke:#000000; stroke-linecap:butt; stroke-linejoin:round; stroke-width:4; stroke-opacity:1; fill:none" points="
  1992.24,196.789 2281.66,196.789 2281.66,93.1086 1992.24,93.1086 1992.24,196.789 
  "/>
<polyline clip-path="url(#clip480)" style="stroke:#009af9; stroke-linecap:butt; stroke-linejoin:round; stroke-width:4; stroke-opacity:1; fill:none" points="
  2015.94,144.949 2158.13,144.949 
  "/>
<path clip-path="url(#clip480)" d="M2195.67 164.636 Q2193.87 169.266 2192.16 170.678 Q2190.44 172.09 2187.57 172.09 L2184.17 172.09 L2184.17 168.525 L2186.67 168.525 Q2188.43 168.525 2189.4 167.692 Q2190.37 166.858 2191.55 163.756 L2192.32 161.812 L2181.83 136.303 L2186.35 136.303 L2194.45 156.581 L2202.55 136.303 L2207.06 136.303 L2195.67 164.636 Z" fill="#000000" fill-rule="evenodd" fill-opacity="1" /><path clip-path="url(#clip480)" d="M2214.35 158.293 L2221.99 158.293 L2221.99 131.928 L2213.68 133.595 L2213.68 129.335 L2221.95 127.669 L2226.62 127.669 L2226.62 158.293 L2234.26 158.293 L2234.26 162.229 L2214.35 162.229 L2214.35 158.293 Z" fill="#000000" fill-rule="evenodd" fill-opacity="1" /></svg>
