<?xml version="1.0" encoding="utf-8"?>
<svg xmlns="http://www.w3.org/2000/svg" xmlns:xlink="http://www.w3.org/1999/xlink" width="600" height="400" viewBox="0 0 2400 1600">
<defs>
  <clipPath id="clip900">
    <rect x="0" y="0" width="2400" height="1600"/>
  </clipPath>
</defs>
<path clip-path="url(#clip900)" d="
M0 1600 L2400 1600 L2400 0 L0 0  Z
  " fill="#ffffff" fill-rule="evenodd" fill-opacity="1"/>
<defs>
  <clipPath id="clip901">
    <rect x="480" y="0" width="1681" height="1600"/>
  </clipPath>
</defs>
<path clip-path="url(#clip900)" d="
M249.542 1423.18 L2352.76 1423.18 L2352.76 47.2441 L249.542 47.2441  Z
  " fill="#ffffff" fill-rule="evenodd" fill-opacity="1"/>
<defs>
  <clipPath id="clip902">
    <rect x="249" y="47" width="2104" height="1377"/>
  </clipPath>
</defs>
<polyline clip-path="url(#clip902)" style="stroke:#000000; stroke-linecap:round; stroke-linejoin:round; stroke-width:2; stroke-opacity:0.1; fill:none" points="
  309.067,1423.18 309.067,47.2441 
  "/>
<polyline clip-path="url(#clip902)" style="stroke:#000000; stroke-linecap:round; stroke-linejoin:round; stroke-width:2; stroke-opacity:0.1; fill:none" points="
  805.108,1423.18 805.108,47.2441 
  "/>
<polyline clip-path="url(#clip902)" style="stroke:#000000; stroke-linecap:round; stroke-linejoin:round; stroke-width:2; stroke-opacity:0.1; fill:none" points="
  1301.15,1423.18 1301.15,47.2441 
  "/>
<polyline clip-path="url(#clip902)" style="stroke:#000000; stroke-linecap:round; stroke-linejoin:round; stroke-width:2; stroke-opacity:0.1; fill:none" points="
  1797.19,1423.18 1797.19,47.2441 
  "/>
<polyline clip-path="url(#clip902)" style="stroke:#000000; stroke-linecap:round; stroke-linejoin:round; stroke-width:2; stroke-opacity:0.1; fill:none" points="
  2293.23,1423.18 2293.23,47.2441 
  "/>
<polyline clip-path="url(#clip900)" style="stroke:#000000; stroke-linecap:round; stroke-linejoin:round; stroke-width:4; stroke-opacity:1; fill:none" points="
  249.542,1423.18 2352.76,1423.18 
  "/>
<polyline clip-path="url(#clip900)" style="stroke:#000000; stroke-linecap:round; stroke-linejoin:round; stroke-width:4; stroke-opacity:1; fill:none" points="
  309.067,1423.18 309.067,1404.28 
  "/>
<polyline clip-path="url(#clip900)" style="stroke:#000000; stroke-linecap:round; stroke-linejoin:round; stroke-width:4; stroke-opacity:1; fill:none" points="
  805.108,1423.18 805.108,1404.28 
  "/>
<polyline clip-path="url(#clip900)" style="stroke:#000000; stroke-linecap:round; stroke-linejoin:round; stroke-width:4; stroke-opacity:1; fill:none" points="
  1301.15,1423.18 1301.15,1404.28 
  "/>
<polyline clip-path="url(#clip900)" style="stroke:#000000; stroke-linecap:round; stroke-linejoin:round; stroke-width:4; stroke-opacity:1; fill:none" points="
  1797.19,1423.18 1797.19,1404.28 
  "/>
<polyline clip-path="url(#clip900)" style="stroke:#000000; stroke-linecap:round; stroke-linejoin:round; stroke-width:4; stroke-opacity:1; fill:none" points="
  2293.23,1423.18 2293.23,1404.28 
  "/>
<path clip-path="url(#clip900)" d="M277.968 1468.75 L307.643 1468.75 L307.643 1472.69 L277.968 1472.69 L277.968 1468.75 Z" fill="#000000" fill-rule="evenodd" fill-opacity="1" /><path clip-path="url(#clip900)" d="M330.583 1455.09 L318.778 1473.54 L330.583 1473.54 L330.583 1455.09 M329.356 1451.02 L335.236 1451.02 L335.236 1473.54 L340.166 1473.54 L340.166 1477.43 L335.236 1477.43 L335.236 1485.58 L330.583 1485.58 L330.583 1477.43 L314.981 1477.43 L314.981 1472.92 L329.356 1451.02 Z" fill="#000000" fill-rule="evenodd" fill-opacity="1" /><path clip-path="url(#clip900)" d="M775.05 1468.75 L804.726 1468.75 L804.726 1472.69 L775.05 1472.69 L775.05 1468.75 Z" fill="#000000" fill-rule="evenodd" fill-opacity="1" /><path clip-path="url(#clip900)" d="M818.846 1481.64 L835.166 1481.64 L835.166 1485.58 L813.221 1485.58 L813.221 1481.64 Q815.883 1478.89 820.467 1474.26 Q825.073 1469.61 826.254 1468.27 Q828.499 1465.74 829.379 1464.01 Q830.281 1462.25 830.281 1460.56 Q830.281 1457.8 828.337 1456.07 Q826.416 1454.33 823.314 1454.33 Q821.115 1454.33 818.661 1455.09 Q816.231 1455.86 813.453 1457.41 L813.453 1452.69 Q816.277 1451.55 818.731 1450.97 Q821.184 1450.39 823.221 1450.39 Q828.592 1450.39 831.786 1453.08 Q834.98 1455.77 834.98 1460.26 Q834.98 1462.39 834.17 1464.31 Q833.383 1466.2 831.277 1468.8 Q830.698 1469.47 827.596 1472.69 Q824.494 1475.88 818.846 1481.64 Z" fill="#000000" fill-rule="evenodd" fill-opacity="1" /><path clip-path="url(#clip900)" d="M1301.15 1454.1 Q1297.54 1454.1 1295.71 1457.66 Q1293.9 1461.2 1293.9 1468.33 Q1293.9 1475.44 1295.71 1479.01 Q1297.54 1482.55 1301.15 1482.55 Q1304.78 1482.55 1306.59 1479.01 Q1308.42 1475.44 1308.42 1468.33 Q1308.42 1461.2 1306.59 1457.66 Q1304.78 1454.1 1301.15 1454.1 M1301.15 1450.39 Q1306.96 1450.39 1310.01 1455 Q1313.09 1459.58 1313.09 1468.33 Q1313.09 1477.06 1310.01 1481.67 Q1306.96 1486.25 1301.15 1486.25 Q1295.34 1486.25 1292.26 1481.67 Q1289.2 1477.06 1289.2 1468.33 Q1289.2 1459.58 1292.26 1455 Q1295.34 1450.39 1301.15 1450.39 Z" fill="#000000" fill-rule="evenodd" fill-opacity="1" /><path clip-path="url(#clip900)" d="M1791.84 1481.64 L1808.16 1481.64 L1808.16 1485.58 L1786.22 1485.58 L1786.22 1481.64 Q1788.88 1478.89 1793.46 1474.26 Q1798.07 1469.61 1799.25 1468.27 Q1801.5 1465.74 1802.38 1464.01 Q1803.28 1462.25 1803.28 1460.56 Q1803.28 1457.8 1801.33 1456.07 Q1799.41 1454.33 1796.31 1454.33 Q1794.11 1454.33 1791.66 1455.09 Q1789.23 1455.86 1786.45 1457.41 L1786.45 1452.69 Q1789.27 1451.55 1791.73 1450.97 Q1794.18 1450.39 1796.22 1450.39 Q1801.59 1450.39 1804.78 1453.08 Q1807.98 1455.77 1807.98 1460.26 Q1807.98 1462.39 1807.17 1464.31 Q1806.38 1466.2 1804.27 1468.8 Q1803.69 1469.47 1800.59 1472.69 Q1797.49 1475.88 1791.84 1481.64 Z" fill="#000000" fill-rule="evenodd" fill-opacity="1" /><path clip-path="url(#clip900)" d="M2296.24 1455.09 L2284.43 1473.54 L2296.24 1473.54 L2296.24 1455.09 M2295.01 1451.02 L2300.89 1451.02 L2300.89 1473.54 L2305.82 1473.54 L2305.82 1477.43 L2300.89 1477.43 L2300.89 1485.58 L2296.24 1485.58 L2296.24 1477.43 L2280.64 1477.43 L2280.64 1472.92 L2295.01 1451.02 Z" fill="#000000" fill-rule="evenodd" fill-opacity="1" /><path clip-path="url(#clip900)" d="M1144.47 1520.52 L1174.52 1520.52 L1174.52 1525.93 L1150.9 1525.93 L1150.9 1540 L1173.53 1540 L1173.53 1545.41 L1150.9 1545.41 L1150.9 1562.63 L1175.09 1562.63 L1175.09 1568.04 L1144.47 1568.04 L1144.47 1520.52 Z" fill="#000000" fill-rule="evenodd" fill-opacity="1" /><path clip-path="url(#clip900)" d="M1215.04 1546.53 L1215.04 1568.04 L1209.18 1568.04 L1209.18 1546.72 Q1209.18 1541.66 1207.21 1539.14 Q1205.23 1536.63 1201.29 1536.63 Q1196.54 1536.63 1193.81 1539.65 Q1191.07 1542.68 1191.07 1547.9 L1191.07 1568.04 L1185.18 1568.04 L1185.18 1532.4 L1191.07 1532.4 L1191.07 1537.93 Q1193.17 1534.72 1196 1533.13 Q1198.87 1531.54 1202.59 1531.54 Q1208.73 1531.54 1211.89 1535.36 Q1215.04 1539.14 1215.04 1546.53 Z" fill="#000000" fill-rule="evenodd" fill-opacity="1" /><path clip-path="url(#clip900)" d="M1257.21 1548.76 L1257.21 1551.62 L1230.28 1551.62 Q1230.66 1557.67 1233.91 1560.85 Q1237.19 1564 1243.01 1564 Q1246.39 1564 1249.54 1563.17 Q1252.72 1562.35 1255.84 1560.69 L1255.84 1566.23 Q1252.69 1567.57 1249.38 1568.27 Q1246.07 1568.97 1242.66 1568.97 Q1234.13 1568.97 1229.14 1564 Q1224.17 1559.04 1224.17 1550.57 Q1224.17 1541.82 1228.88 1536.69 Q1233.62 1531.54 1241.65 1531.54 Q1248.84 1531.54 1253.01 1536.18 Q1257.21 1540.8 1257.21 1548.76 M1251.35 1547.04 Q1251.29 1542.23 1248.65 1539.37 Q1246.04 1536.5 1241.71 1536.5 Q1236.81 1536.5 1233.85 1539.27 Q1230.92 1542.04 1230.47 1547.07 L1251.35 1547.04 Z" fill="#000000" fill-rule="evenodd" fill-opacity="1" /><path clip-path="url(#clip900)" d="M1287.48 1537.87 Q1286.49 1537.3 1285.31 1537.04 Q1284.17 1536.76 1282.77 1536.76 Q1277.8 1536.76 1275.13 1540 Q1272.49 1543.22 1272.49 1549.27 L1272.49 1568.04 L1266.6 1568.04 L1266.6 1532.4 L1272.49 1532.4 L1272.49 1537.93 Q1274.33 1534.69 1277.29 1533.13 Q1280.25 1531.54 1284.49 1531.54 Q1285.09 1531.54 1285.82 1531.63 Q1286.56 1531.7 1287.45 1531.85 L1287.48 1537.87 Z" fill="#000000" fill-rule="evenodd" fill-opacity="1" /><path clip-path="url(#clip900)" d="M1315.93 1549.81 Q1315.93 1543.44 1313.29 1539.94 Q1310.68 1536.44 1305.94 1536.44 Q1301.23 1536.44 1298.59 1539.94 Q1295.98 1543.44 1295.98 1549.81 Q1295.98 1556.14 1298.59 1559.64 Q1301.23 1563.14 1305.94 1563.14 Q1310.68 1563.14 1313.29 1559.64 Q1315.93 1556.14 1315.93 1549.81 M1321.79 1563.62 Q1321.79 1572.72 1317.75 1577.15 Q1313.71 1581.6 1305.37 1581.6 Q1302.28 1581.6 1299.54 1581.13 Q1296.8 1580.68 1294.23 1579.72 L1294.23 1574.03 Q1296.8 1575.43 1299.32 1576.1 Q1301.83 1576.76 1304.44 1576.76 Q1310.2 1576.76 1313.07 1573.74 Q1315.93 1570.75 1315.93 1564.67 L1315.93 1561.77 Q1314.12 1564.92 1311.29 1566.48 Q1308.45 1568.04 1304.51 1568.04 Q1297.95 1568.04 1293.94 1563.05 Q1289.93 1558.05 1289.93 1549.81 Q1289.93 1541.53 1293.94 1536.53 Q1297.95 1531.54 1304.51 1531.54 Q1308.45 1531.54 1311.29 1533.1 Q1314.12 1534.66 1315.93 1537.81 L1315.93 1532.4 L1321.79 1532.4 L1321.79 1563.62 Z" fill="#000000" fill-rule="evenodd" fill-opacity="1" /><path clip-path="url(#clip900)" d="M1348.68 1571.35 Q1346.2 1577.72 1343.85 1579.66 Q1341.49 1581.6 1337.54 1581.6 L1332.87 1581.6 L1332.87 1576.7 L1336.3 1576.7 Q1338.72 1576.7 1340.06 1575.56 Q1341.4 1574.41 1343.02 1570.14 L1344.07 1567.47 L1329.65 1532.4 L1335.86 1532.4 L1347 1560.28 L1358.14 1532.4 L1364.34 1532.4 L1348.68 1571.35 Z" fill="#000000" fill-rule="evenodd" fill-opacity="1" /><path clip-path="url(#clip900)" d="M1392.61 1518.52 L1406.1 1518.52 L1406.1 1523.07 L1398.46 1523.07 L1398.46 1572.09 L1406.1 1572.09 L1406.1 1576.64 L1392.61 1576.64 L1392.61 1518.52 Z" fill="#000000" fill-rule="evenodd" fill-opacity="1" /><path clip-path="url(#clip900)" d="M1424.37 1522.27 L1424.37 1532.4 L1436.44 1532.4 L1436.44 1536.95 L1424.37 1536.95 L1424.37 1556.3 Q1424.37 1560.66 1425.55 1561.9 Q1426.76 1563.14 1430.42 1563.14 L1436.44 1563.14 L1436.44 1568.04 L1430.42 1568.04 Q1423.64 1568.04 1421.06 1565.53 Q1418.48 1562.98 1418.48 1556.3 L1418.48 1536.95 L1414.19 1536.95 L1414.19 1532.4 L1418.48 1532.4 L1418.48 1522.27 L1424.37 1522.27 Z" fill="#000000" fill-rule="evenodd" fill-opacity="1" /><path clip-path="url(#clip900)" d="M1457.82 1518.52 L1457.82 1576.64 L1444.33 1576.64 L1444.33 1572.09 L1451.94 1572.09 L1451.94 1523.07 L1444.33 1523.07 L1444.33 1518.52 L1457.82 1518.52 Z" fill="#000000" fill-rule="evenodd" fill-opacity="1" /><polyline clip-path="url(#clip902)" style="stroke:#000000; stroke-linecap:round; stroke-linejoin:round; stroke-width:2; stroke-opacity:0.1; fill:none" points="
  249.542,1385.24 2352.76,1385.24 
  "/>
<polyline clip-path="url(#clip902)" style="stroke:#000000; stroke-linecap:round; stroke-linejoin:round; stroke-width:2; stroke-opacity:0.1; fill:none" points="
  249.542,1063.92 2352.76,1063.92 
  "/>
<polyline clip-path="url(#clip902)" style="stroke:#000000; stroke-linecap:round; stroke-linejoin:round; stroke-width:2; stroke-opacity:0.1; fill:none" points="
  249.542,742.606 2352.76,742.606 
  "/>
<polyline clip-path="url(#clip902)" style="stroke:#000000; stroke-linecap:round; stroke-linejoin:round; stroke-width:2; stroke-opacity:0.1; fill:none" points="
  249.542,421.287 2352.76,421.287 
  "/>
<polyline clip-path="url(#clip902)" style="stroke:#000000; stroke-linecap:round; stroke-linejoin:round; stroke-width:2; stroke-opacity:0.1; fill:none" points="
  249.542,99.9682 2352.76,99.9682 
  "/>
<polyline clip-path="url(#clip900)" style="stroke:#000000; stroke-linecap:round; stroke-linejoin:round; stroke-width:4; stroke-opacity:1; fill:none" points="
  249.542,1423.18 249.542,47.2441 
  "/>
<polyline clip-path="url(#clip900)" style="stroke:#000000; stroke-linecap:round; stroke-linejoin:round; stroke-width:4; stroke-opacity:1; fill:none" points="
  249.542,1385.24 268.44,1385.24 
  "/>
<polyline clip-path="url(#clip900)" style="stroke:#000000; stroke-linecap:round; stroke-linejoin:round; stroke-width:4; stroke-opacity:1; fill:none" points="
  249.542,1063.92 268.44,1063.92 
  "/>
<polyline clip-path="url(#clip900)" style="stroke:#000000; stroke-linecap:round; stroke-linejoin:round; stroke-width:4; stroke-opacity:1; fill:none" points="
  249.542,742.606 268.44,742.606 
  "/>
<polyline clip-path="url(#clip900)" style="stroke:#000000; stroke-linecap:round; stroke-linejoin:round; stroke-width:4; stroke-opacity:1; fill:none" points="
  249.542,421.287 268.44,421.287 
  "/>
<polyline clip-path="url(#clip900)" style="stroke:#000000; stroke-linecap:round; stroke-linejoin:round; stroke-width:4; stroke-opacity:1; fill:none" points="
  249.542,99.9682 268.44,99.9682 
  "/>
<path clip-path="url(#clip900)" d="M126.205 1371.04 Q122.593 1371.04 120.765 1374.61 Q118.959 1378.15 118.959 1385.28 Q118.959 1392.38 120.765 1395.95 Q122.593 1399.49 126.205 1399.49 Q129.839 1399.49 131.644 1395.95 Q133.473 1392.38 133.473 1385.28 Q133.473 1378.15 131.644 1374.61 Q129.839 1371.04 126.205 1371.04 M126.205 1367.34 Q132.015 1367.34 135.07 1371.95 Q138.149 1376.53 138.149 1385.28 Q138.149 1394.01 135.07 1398.61 Q132.015 1403.19 126.205 1403.19 Q120.394 1403.19 117.316 1398.61 Q114.26 1394.01 114.26 1385.28 Q114.26 1376.53 117.316 1371.95 Q120.394 1367.34 126.205 1367.34 Z" fill="#000000" fill-rule="evenodd" fill-opacity="1" /><path clip-path="url(#clip900)" d="M146.366 1396.64 L151.251 1396.64 L151.251 1402.52 L146.366 1402.52 L146.366 1396.64 Z" fill="#000000" fill-rule="evenodd" fill-opacity="1" /><path clip-path="url(#clip900)" d="M171.436 1371.04 Q167.825 1371.04 165.996 1374.61 Q164.19 1378.15 164.19 1385.28 Q164.19 1392.38 165.996 1395.95 Q167.825 1399.49 171.436 1399.49 Q175.07 1399.49 176.876 1395.95 Q178.704 1392.38 178.704 1385.28 Q178.704 1378.15 176.876 1374.61 Q175.07 1371.04 171.436 1371.04 M171.436 1367.34 Q177.246 1367.34 180.301 1371.95 Q183.38 1376.53 183.38 1385.28 Q183.38 1394.01 180.301 1398.61 Q177.246 1403.19 171.436 1403.19 Q165.626 1403.19 162.547 1398.61 Q159.491 1394.01 159.491 1385.28 Q159.491 1376.53 162.547 1371.95 Q165.626 1367.34 171.436 1367.34 Z" fill="#000000" fill-rule="evenodd" fill-opacity="1" /><path clip-path="url(#clip900)" d="M201.598 1371.04 Q197.987 1371.04 196.158 1374.61 Q194.352 1378.15 194.352 1385.28 Q194.352 1392.38 196.158 1395.95 Q197.987 1399.49 201.598 1399.49 Q205.232 1399.49 207.037 1395.95 Q208.866 1392.38 208.866 1385.28 Q208.866 1378.15 207.037 1374.61 Q205.232 1371.04 201.598 1371.04 M201.598 1367.34 Q207.408 1367.34 210.463 1371.95 Q213.542 1376.53 213.542 1385.28 Q213.542 1394.01 210.463 1398.61 Q207.408 1403.19 201.598 1403.19 Q195.787 1403.19 192.709 1398.61 Q189.653 1394.01 189.653 1385.28 Q189.653 1376.53 192.709 1371.95 Q195.787 1367.34 201.598 1367.34 Z" fill="#000000" fill-rule="evenodd" fill-opacity="1" /><path clip-path="url(#clip900)" d="M127.2 1049.72 Q123.589 1049.72 121.76 1053.29 Q119.955 1056.83 119.955 1063.96 Q119.955 1071.07 121.76 1074.63 Q123.589 1078.17 127.2 1078.17 Q130.834 1078.17 132.64 1074.63 Q134.468 1071.07 134.468 1063.96 Q134.468 1056.83 132.64 1053.29 Q130.834 1049.72 127.2 1049.72 M127.2 1046.02 Q133.01 1046.02 136.066 1050.63 Q139.144 1055.21 139.144 1063.96 Q139.144 1072.69 136.066 1077.29 Q133.01 1081.88 127.2 1081.88 Q121.39 1081.88 118.311 1077.29 Q115.256 1072.69 115.256 1063.96 Q115.256 1055.21 118.311 1050.63 Q121.39 1046.02 127.2 1046.02 Z" fill="#000000" fill-rule="evenodd" fill-opacity="1" /><path clip-path="url(#clip900)" d="M147.362 1075.33 L152.246 1075.33 L152.246 1081.2 L147.362 1081.2 L147.362 1075.33 Z" fill="#000000" fill-rule="evenodd" fill-opacity="1" /><path clip-path="url(#clip900)" d="M166.459 1077.27 L182.778 1077.27 L182.778 1081.2 L160.834 1081.2 L160.834 1077.27 Q163.496 1074.52 168.079 1069.89 Q172.686 1065.23 173.866 1063.89 Q176.112 1061.37 176.991 1059.63 Q177.894 1057.87 177.894 1056.18 Q177.894 1053.43 175.95 1051.69 Q174.028 1049.95 170.927 1049.95 Q168.727 1049.95 166.274 1050.72 Q163.843 1051.48 161.065 1053.03 L161.065 1048.31 Q163.89 1047.18 166.343 1046.6 Q168.797 1046.02 170.834 1046.02 Q176.204 1046.02 179.399 1048.7 Q182.593 1051.39 182.593 1055.88 Q182.593 1058.01 181.783 1059.93 Q180.996 1061.83 178.889 1064.42 Q178.311 1065.09 175.209 1068.31 Q172.107 1071.51 166.459 1077.27 Z" fill="#000000" fill-rule="evenodd" fill-opacity="1" /><path clip-path="url(#clip900)" d="M192.639 1046.64 L210.996 1046.64 L210.996 1050.58 L196.922 1050.58 L196.922 1059.05 Q197.94 1058.7 198.959 1058.54 Q199.977 1058.36 200.996 1058.36 Q206.783 1058.36 210.162 1061.53 Q213.542 1064.7 213.542 1070.12 Q213.542 1075.7 210.07 1078.8 Q206.598 1081.88 200.278 1081.88 Q198.102 1081.88 195.834 1081.51 Q193.588 1081.14 191.181 1080.39 L191.181 1075.7 Q193.264 1076.83 195.487 1077.39 Q197.709 1077.94 200.186 1077.94 Q204.19 1077.94 206.528 1075.83 Q208.866 1073.73 208.866 1070.12 Q208.866 1066.51 206.528 1064.4 Q204.19 1062.29 200.186 1062.29 Q198.311 1062.29 196.436 1062.71 Q194.584 1063.13 192.639 1064.01 L192.639 1046.64 Z" fill="#000000" fill-rule="evenodd" fill-opacity="1" /><path clip-path="url(#clip900)" d="M126.205 728.405 Q122.593 728.405 120.765 731.969 Q118.959 735.511 118.959 742.641 Q118.959 749.747 120.765 753.312 Q122.593 756.854 126.205 756.854 Q129.839 756.854 131.644 753.312 Q133.473 749.747 133.473 742.641 Q133.473 735.511 131.644 731.969 Q129.839 728.405 126.205 728.405 M126.205 724.701 Q132.015 724.701 135.07 729.307 Q138.149 733.891 138.149 742.641 Q138.149 751.367 135.07 755.974 Q132.015 760.557 126.205 760.557 Q120.394 760.557 117.316 755.974 Q114.26 751.367 114.26 742.641 Q114.26 733.891 117.316 729.307 Q120.394 724.701 126.205 724.701 Z" fill="#000000" fill-rule="evenodd" fill-opacity="1" /><path clip-path="url(#clip900)" d="M146.366 754.006 L151.251 754.006 L151.251 759.886 L146.366 759.886 L146.366 754.006 Z" fill="#000000" fill-rule="evenodd" fill-opacity="1" /><path clip-path="url(#clip900)" d="M161.482 725.326 L179.839 725.326 L179.839 729.261 L165.765 729.261 L165.765 737.733 Q166.783 737.386 167.802 737.224 Q168.82 737.039 169.839 737.039 Q175.626 737.039 179.005 740.21 Q182.385 743.381 182.385 748.798 Q182.385 754.377 178.913 757.479 Q175.44 760.557 169.121 760.557 Q166.945 760.557 164.677 760.187 Q162.431 759.816 160.024 759.076 L160.024 754.377 Q162.107 755.511 164.329 756.067 Q166.552 756.622 169.028 756.622 Q173.033 756.622 175.371 754.516 Q177.709 752.409 177.709 748.798 Q177.709 745.187 175.371 743.08 Q173.033 740.974 169.028 740.974 Q167.153 740.974 165.278 741.391 Q163.427 741.807 161.482 742.687 L161.482 725.326 Z" fill="#000000" fill-rule="evenodd" fill-opacity="1" /><path clip-path="url(#clip900)" d="M201.598 728.405 Q197.987 728.405 196.158 731.969 Q194.352 735.511 194.352 742.641 Q194.352 749.747 196.158 753.312 Q197.987 756.854 201.598 756.854 Q205.232 756.854 207.037 753.312 Q208.866 749.747 208.866 742.641 Q208.866 735.511 207.037 731.969 Q205.232 728.405 201.598 728.405 M201.598 724.701 Q207.408 724.701 210.463 729.307 Q213.542 733.891 213.542 742.641 Q213.542 751.367 210.463 755.974 Q207.408 760.557 201.598 760.557 Q195.787 760.557 192.709 755.974 Q189.653 751.367 189.653 742.641 Q189.653 733.891 192.709 729.307 Q195.787 724.701 201.598 724.701 Z" fill="#000000" fill-rule="evenodd" fill-opacity="1" /><path clip-path="url(#clip900)" d="M127.2 407.086 Q123.589 407.086 121.76 410.651 Q119.955 414.192 119.955 421.322 Q119.955 428.428 121.76 431.993 Q123.589 435.535 127.2 435.535 Q130.834 435.535 132.64 431.993 Q134.468 428.428 134.468 421.322 Q134.468 414.192 132.64 410.651 Q130.834 407.086 127.2 407.086 M127.2 403.382 Q133.01 403.382 136.066 407.989 Q139.144 412.572 139.144 421.322 Q139.144 430.049 136.066 434.655 Q133.01 439.238 127.2 439.238 Q121.39 439.238 118.311 434.655 Q115.256 430.049 115.256 421.322 Q115.256 412.572 118.311 407.989 Q121.39 403.382 127.2 403.382 Z" fill="#000000" fill-rule="evenodd" fill-opacity="1" /><path clip-path="url(#clip900)" d="M147.362 432.687 L152.246 432.687 L152.246 438.567 L147.362 438.567 L147.362 432.687 Z" fill="#000000" fill-rule="evenodd" fill-opacity="1" /><path clip-path="url(#clip900)" d="M161.251 404.007 L183.473 404.007 L183.473 405.998 L170.927 438.567 L166.042 438.567 L177.848 407.942 L161.251 407.942 L161.251 404.007 Z" fill="#000000" fill-rule="evenodd" fill-opacity="1" /><path clip-path="url(#clip900)" d="M192.639 404.007 L210.996 404.007 L210.996 407.942 L196.922 407.942 L196.922 416.414 Q197.94 416.067 198.959 415.905 Q199.977 415.72 200.996 415.72 Q206.783 415.72 210.162 418.891 Q213.542 422.063 213.542 427.479 Q213.542 433.058 210.07 436.16 Q206.598 439.238 200.278 439.238 Q198.102 439.238 195.834 438.868 Q193.588 438.498 191.181 437.757 L191.181 433.058 Q193.264 434.192 195.487 434.748 Q197.709 435.303 200.186 435.303 Q204.19 435.303 206.528 433.197 Q208.866 431.09 208.866 427.479 Q208.866 423.868 206.528 421.762 Q204.19 419.655 200.186 419.655 Q198.311 419.655 196.436 420.072 Q194.584 420.488 192.639 421.368 L192.639 404.007 Z" fill="#000000" fill-rule="evenodd" fill-opacity="1" /><path clip-path="url(#clip900)" d="M117.015 113.313 L124.654 113.313 L124.654 86.9475 L116.343 88.6141 L116.343 84.3549 L124.607 82.6882 L129.283 82.6882 L129.283 113.313 L136.922 113.313 L136.922 117.248 L117.015 117.248 L117.015 113.313 Z" fill="#000000" fill-rule="evenodd" fill-opacity="1" /><path clip-path="url(#clip900)" d="M146.366 111.369 L151.251 111.369 L151.251 117.248 L146.366 117.248 L146.366 111.369 Z" fill="#000000" fill-rule="evenodd" fill-opacity="1" /><path clip-path="url(#clip900)" d="M171.436 85.7669 Q167.825 85.7669 165.996 89.3317 Q164.19 92.8734 164.19 100.003 Q164.19 107.109 165.996 110.674 Q167.825 114.216 171.436 114.216 Q175.07 114.216 176.876 110.674 Q178.704 107.109 178.704 100.003 Q178.704 92.8734 176.876 89.3317 Q175.07 85.7669 171.436 85.7669 M171.436 82.0632 Q177.246 82.0632 180.301 86.6697 Q183.38 91.253 183.38 100.003 Q183.38 108.73 180.301 113.336 Q177.246 117.92 171.436 117.92 Q165.626 117.92 162.547 113.336 Q159.491 108.73 159.491 100.003 Q159.491 91.253 162.547 86.6697 Q165.626 82.0632 171.436 82.0632 Z" fill="#000000" fill-rule="evenodd" fill-opacity="1" /><path clip-path="url(#clip900)" d="M201.598 85.7669 Q197.987 85.7669 196.158 89.3317 Q194.352 92.8734 194.352 100.003 Q194.352 107.109 196.158 110.674 Q197.987 114.216 201.598 114.216 Q205.232 114.216 207.037 110.674 Q208.866 107.109 208.866 100.003 Q208.866 92.8734 207.037 89.3317 Q205.232 85.7669 201.598 85.7669 M201.598 82.0632 Q207.408 82.0632 210.463 86.6697 Q213.542 91.253 213.542 100.003 Q213.542 108.73 210.463 113.336 Q207.408 117.92 201.598 117.92 Q195.787 117.92 192.709 113.336 Q189.653 108.73 189.653 100.003 Q189.653 91.253 192.709 86.6697 Q195.787 82.0632 201.598 82.0632 Z" fill="#000000" fill-rule="evenodd" fill-opacity="1" /><path clip-path="url(#clip900)" d="M16.4842 896.471 L16.4842 890.042 L58.5933 890.042 L58.5933 866.903 L64.0042 866.903 L64.0042 896.471 L16.4842 896.471 Z" fill="#000000" fill-rule="evenodd" fill-opacity="1" /><path clip-path="url(#clip900)" d="M32.4621 847.742 Q32.4621 852.452 36.1542 855.19 Q39.8145 857.927 46.212 857.927 Q52.6095 857.927 56.3017 855.221 Q59.9619 852.484 59.9619 847.742 Q59.9619 843.063 56.2698 840.326 Q52.5777 837.588 46.212 837.588 Q39.8781 837.588 36.186 840.326 Q32.4621 843.063 32.4621 847.742 M27.4968 847.742 Q27.4968 840.103 32.4621 835.742 Q37.4273 831.382 46.212 831.382 Q54.9649 831.382 59.9619 835.742 Q64.9272 840.103 64.9272 847.742 Q64.9272 855.412 59.9619 859.773 Q54.9649 864.102 46.212 864.102 Q37.4273 864.102 32.4621 859.773 Q27.4968 855.412 27.4968 847.742 Z" fill="#000000" fill-rule="evenodd" fill-opacity="1" /><path clip-path="url(#clip900)" d="M29.7248 796.02 L35.1993 796.02 Q33.8307 798.503 33.1623 801.017 Q32.4621 803.5 32.4621 806.046 Q32.4621 811.744 36.0905 814.895 Q39.6872 818.046 46.212 818.046 Q52.7369 818.046 56.3653 814.895 Q59.9619 811.744 59.9619 806.046 Q59.9619 803.5 59.2935 801.017 Q58.5933 798.503 57.2247 796.02 L62.6355 796.02 Q63.7814 798.471 64.3543 801.113 Q64.9272 803.723 64.9272 806.683 Q64.9272 814.736 59.8664 819.478 Q54.8057 824.22 46.212 824.22 Q37.491 824.22 32.4939 819.446 Q27.4968 814.64 27.4968 806.301 Q27.4968 803.596 28.0697 801.017 Q28.6108 798.439 29.7248 796.02 Z" fill="#000000" fill-rule="evenodd" fill-opacity="1" /><path clip-path="url(#clip900)" d="M46.0847 769.635 Q46.0847 776.732 47.7079 779.47 Q49.3312 782.207 53.2461 782.207 Q56.3653 782.207 58.2114 780.17 Q60.0256 778.101 60.0256 774.568 Q60.0256 769.698 56.5881 766.77 Q53.1188 763.81 47.3897 763.81 L46.0847 763.81 L46.0847 769.635 M43.6657 757.953 L64.0042 757.953 L64.0042 763.81 L58.5933 763.81 Q61.8398 765.815 63.3994 768.807 Q64.9272 771.799 64.9272 776.128 Q64.9272 781.602 61.8716 784.849 Q58.7843 788.063 53.6281 788.063 Q47.6125 788.063 44.5569 784.053 Q41.5014 780.011 41.5014 772.022 L41.5014 763.81 L40.9285 763.81 Q36.8862 763.81 34.6901 766.484 Q32.4621 769.125 32.4621 773.931 Q32.4621 776.987 33.1941 779.883 Q33.9262 782.78 35.3903 785.453 L29.9795 785.453 Q28.7381 782.239 28.1334 779.215 Q27.4968 776.191 27.4968 773.327 Q27.4968 765.592 31.5072 761.773 Q35.5176 757.953 43.6657 757.953 Z" fill="#000000" fill-rule="evenodd" fill-opacity="1" /><path clip-path="url(#clip900)" d="M14.479 745.89 L14.479 740.034 L64.0042 740.034 L64.0042 745.89 L14.479 745.89 Z" fill="#000000" fill-rule="evenodd" fill-opacity="1" /><path clip-path="url(#clip900)" d="M21.7677 700.376 L58.7206 700.376 L58.7206 692.609 Q58.7206 682.774 54.2646 678.223 Q49.8086 673.64 40.1964 673.64 Q30.6479 673.64 26.2237 678.223 Q21.7677 682.774 21.7677 692.609 L21.7677 700.376 M16.4842 706.805 L16.4842 693.596 Q16.4842 679.783 22.2451 673.321 Q27.9743 666.86 40.1964 666.86 Q52.4822 666.86 58.2432 673.353 Q64.0042 679.846 64.0042 693.596 L64.0042 706.805 L16.4842 706.805 Z" fill="#000000" fill-rule="evenodd" fill-opacity="1" /><path clip-path="url(#clip900)" d="M20.8447 637.323 Q20.8447 644.326 26.0645 648.463 Q31.2844 652.569 40.2919 652.569 Q49.2675 652.569 54.4874 648.463 Q59.7073 644.326 59.7073 637.323 Q59.7073 630.321 54.4874 626.247 Q49.2675 622.141 40.2919 622.141 Q31.2844 622.141 26.0645 626.247 Q20.8447 630.321 20.8447 637.323 M15.6248 637.323 Q15.6248 627.329 22.3406 621.345 Q29.0246 615.362 40.2919 615.362 Q51.5274 615.362 58.2432 621.345 Q64.9272 627.329 64.9272 637.323 Q64.9272 647.349 58.2432 653.365 Q51.5592 659.349 40.2919 659.349 Q29.0246 659.349 22.3406 653.365 Q15.6248 647.349 15.6248 637.323 Z" fill="#000000" fill-rule="evenodd" fill-opacity="1" /><path clip-path="url(#clip900)" d="M18.0438 576.817 L24.314 576.817 Q22.5634 580.478 21.704 583.724 Q20.8447 586.971 20.8447 589.994 Q20.8447 595.246 22.8817 598.111 Q24.9187 600.943 28.6745 600.943 Q31.8255 600.943 33.4488 599.065 Q35.0402 597.156 36.0269 591.872 L36.8226 587.989 Q38.1912 580.796 41.6605 577.39 Q45.098 573.953 50.8908 573.953 Q57.7976 573.953 61.3624 578.6 Q64.9272 583.215 64.9272 592.159 Q64.9272 595.532 64.1633 599.352 Q63.3994 603.139 61.9035 607.214 L55.2831 607.214 Q57.4793 603.299 58.5933 599.543 Q59.7073 595.787 59.7073 592.159 Q59.7073 586.652 57.543 583.66 Q55.3786 580.669 51.3682 580.669 Q47.8671 580.669 45.8937 582.833 Q43.9204 584.965 42.9337 589.867 L42.1698 593.782 Q40.7375 600.975 37.682 604.19 Q34.6264 607.404 29.1837 607.404 Q22.8817 607.404 19.2532 602.98 Q15.6248 598.524 15.6248 590.726 Q15.6248 587.384 16.2295 583.915 Q16.8343 580.446 18.0438 576.817 Z" fill="#000000" fill-rule="evenodd" fill-opacity="1" /><polyline clip-path="url(#clip902)" style="stroke:#009af9; stroke-linecap:round; stroke-linejoin:round; stroke-width:4; stroke-opacity:1; fill:none" points="
  309.067,1254.08 311.053,1277.17 313.039,1278.87 315.025,1261.95 317.012,1215 318.998,1111.38 320.984,947.046 322.97,661.248 324.956,617.506 326.942,970.69 
  328.928,1149.62 330.915,1209.49 332.901,1210.75 334.887,1145.62 336.873,978.533 338.859,989.485 340.845,1154.23 342.832,1215.41 344.818,1208.61 346.804,1133.78 
  348.79,1015.67 350.776,943.016 352.762,936.422 354.748,847.629 356.735,909.309 358.721,1096.89 360.707,1136.11 362.693,1100.34 364.679,1161.47 366.665,1204.77 
  368.651,1172.28 370.638,1046.34 372.624,896.196 374.61,864.811 376.596,1049.98 378.582,1195.05 380.568,1247.31 382.555,1251.28 384.541,1213.64 386.527,1201.01 
  388.513,1214.42 390.499,1193.3 392.485,1138.23 394.471,1014.86 396.458,1051.1 398.444,1163.35 400.43,1176.96 402.416,1099.1 404.402,870.764 406.388,681.551 
  408.374,841.963 410.361,847.709 412.347,934.539 414.333,1104.43 416.319,1154.16 418.305,1102.45 420.291,957.357 422.278,948.4 424.264,958.583 426.25,769.384 
  428.236,741.719 430.222,1004.01 432.208,1103.61 434.194,1049.01 436.181,983.767 438.167,1112.3 440.153,1168.68 442.139,1179.92 444.125,1172.31 446.111,1212.52 
  448.097,1232.73 450.084,1224.02 452.07,1171.32 454.056,1011.91 456.042,896.945 458.028,993.543 460.014,1035.01 462.001,1155.89 463.987,1227.98 465.973,1236.42 
  467.959,1191.65 469.945,1149.05 471.931,1176.94 473.917,1169.57 475.904,1096.23 477.89,903.925 479.876,812.37 481.862,776.758 483.848,961.426 485.834,1144.41 
  487.82,1208.71 489.807,1208.58 491.793,1156.74 493.779,1022.75 495.765,908.355 497.751,1073.25 499.737,1158.17 501.724,1136.26 503.71,990.52 505.696,684.334 
  507.682,628.229 509.668,968.719 511.654,1142.59 513.64,1189.39 515.627,1222.78 517.613,1256.96 519.599,1255.77 521.585,1210.02 523.571,1090.15 525.557,1075.42 
  527.543,1197.73 529.53,1246.68 531.516,1246.43 533.502,1205.16 535.488,1152.41 537.474,1098.97 539.46,896.81 541.447,479.463 543.433,579.12 545.419,921.675 
  547.405,1027.71 549.391,1036.97 551.377,1001.1 553.363,1106.24 555.35,1158.83 557.336,1104.22 559.322,1039.38 561.308,1103.63 563.294,1058.19 565.28,890.866 
  567.266,993.877 569.253,1140.05 571.239,1167.79 573.225,1192.59 575.211,1190.6 577.197,1101.56 579.183,1047.28 581.17,1159.32 583.156,1208.06 585.142,1193.78 
  587.128,1114.23 589.114,902.704 591.1,545.482 593.086,353.436 595.073,715.684 597.059,1027.7 599.045,1153.44 601.031,1186.62 603.017,1146.2 605.003,1030.35 
  606.989,1073.12 608.976,1156.14 610.962,1131.1 612.948,1126.35 614.934,1201.8 616.92,1227.55 618.906,1208.63 620.893,1171.58 622.879,1082.52 624.865,883.305 
  626.851,774.551 628.837,556.51 630.823,86.1857 632.809,381.179 634.796,707.116 636.782,909.008 638.768,1045.72 640.754,1028.82 642.74,895.298 644.726,959.096 
  646.712,1038.76 648.699,937.913 650.685,774.296 652.671,901.22 654.657,1029.97 656.643,1091.84 658.629,1048.13 660.616,1035.87 662.602,1082.31 664.588,1045.44 
  666.574,847.511 668.56,463.095 670.546,204.479 672.532,633.784 674.519,911.965 676.505,922.787 678.491,725.34 680.477,443.944 682.463,607.384 684.449,841.564 
  686.435,974.778 688.422,1122.98 690.408,1163.71 692.394,1152.61 694.38,1216.82 696.366,1265.69 698.352,1283.8 700.339,1286 702.325,1274.37 704.311,1239.62 
  706.297,1168.01 708.283,1119.92 710.269,1073.8 712.255,1001.18 714.242,863.992 716.228,510.639 718.214,421.445 720.2,743.986 722.186,814.328 724.172,968.587 
  726.158,1135.4 728.145,1194.79 730.131,1182.72 732.117,1110.71 734.103,1143.73 736.089,1207.41 738.075,1201.07 740.062,1119.85 742.048,1063.6 744.034,1116.16 
  746.02,1076.33 748.006,1066.79 749.992,1075.32 751.978,984.932 753.965,699.923 755.951,308.863 757.937,601.848 759.923,807.579 761.909,666.929 763.895,232.586 
  765.881,493.562 767.868,930.622 769.854,1106.32 771.84,1159.84 773.826,1139.98 775.812,1077.04 777.798,944.537 779.785,1008.57 781.771,1148.52 783.757,1181.28 
  785.743,1134.02 787.729,1167.78 789.715,1232.95 791.701,1242.74 793.688,1197.99 795.674,1060.26 797.66,970.235 799.646,1138.48 801.632,1234.64 803.618,1264.16 
  805.604,1266.24 807.591,1253.01 809.577,1218.05 811.563,1117.19 813.549,984.21 815.535,981.392 817.521,936.779 819.508,866.204 821.494,619.105 823.48,686.462 
  825.466,832.694 827.452,980.701 829.438,1024.18 831.424,985.529 833.411,999.668 835.397,1079.64 837.383,1203.98 839.369,1258.96 841.355,1275.87 843.341,1268.46 
  845.328,1226.24 847.314,1117.95 849.3,1080.49 851.286,1186.69 853.272,1233.63 855.258,1231.61 857.244,1183.85 859.231,1045.76 861.217,866.286 863.203,945.863 
  865.189,917.885 867.175,637.032 869.161,376.037 871.147,494.442 873.134,803.003 875.12,1070.08 877.106,1183.78 879.092,1218.28 881.078,1194.91 883.064,1151.6 
  885.051,1182.3 887.037,1199.32 889.023,1251.01 891.009,1269.09 892.995,1245.52 894.981,1161.83 896.967,1114.21 898.954,1206.39 900.94,1245.98 902.926,1236.11 
  904.912,1168.65 906.898,1038.94 908.884,1009.62 910.87,904.259 912.857,706.889 914.843,541.852 916.829,813.78 918.815,1102.96 920.801,1225.53 922.787,1280.07 
  924.774,1307.78 926.76,1323.18 928.746,1331.99 930.732,1336.7 932.718,1338.31 934.704,1336.98 936.69,1331.97 938.677,1321.09 940.663,1298.69 942.649,1248.95 
  944.635,1127.92 946.621,941.214 948.607,995.059 950.593,1029.75 952.58,1050.74 954.566,1200.08 956.552,1278.15 958.538,1310.09 960.524,1323.1 962.51,1325.78 
  964.497,1318.76 966.483,1295.03 968.469,1230.54 970.455,1116.84 972.441,1171.98 974.427,1262.6 976.413,1289.46 978.4,1277.31 980.386,1253.72 982.372,1214.49 
  984.358,1186.97 986.344,1244.92 988.33,1256.65 990.316,1209.48 992.303,1101.21 994.289,937.631 996.275,895.667 998.261,1087.81 1000.25,1232.68 1002.23,1294.03 
  1004.22,1321.82 1006.21,1335.95 1008.19,1343.6 1010.18,1347.67 1012.16,1349.4 1014.15,1349.29 1016.14,1347.38 1018.12,1343.3 1020.11,1336.07 1022.09,1323.51 
  1024.08,1300.58 1026.07,1254.12 1028.05,1147.4 1030.04,938.38 1032.03,802.646 1034.01,837.493 1036,947.656 1037.98,1149.97 1039.97,1246.09 1041.96,1282.13 
  1043.94,1288.47 1045.93,1265.52 1047.91,1211.64 1049.9,1191.65 1051.89,1165.51 1053.87,1224.79 1055.86,1256.42 1057.85,1239.47 1059.83,1193.12 1061.82,1211.31 
  1063.8,1260.83 1065.79,1264.84 1067.78,1227.34 1069.76,1116.13 1071.75,846.256 1073.73,731.623 1075.72,1014.9 1077.71,1185.08 1079.69,1259.58 1081.68,1290.31 
  1083.67,1301.68 1085.65,1301.52 1087.64,1290.58 1089.62,1263.76 1091.61,1203.55 1093.6,1062.39 1095.58,784.477 1097.57,750.728 1099.55,911.796 1101.54,842.171 
  1103.53,848.019 1105.51,955.668 1107.5,957.179 1109.49,912.781 1111.47,885.338 1113.46,923.935 1115.44,989.445 1117.43,1120.62 1119.42,1210.63 1121.4,1257.44 
  1123.39,1272.62 1125.37,1259.46 1127.36,1213.49 1129.35,1222.64 1131.33,1257.97 1133.32,1268.01 1135.31,1287.9 1137.29,1287.78 1139.28,1259.79 1141.26,1178.48 
  1143.25,1013.96 1145.24,1048.57 1147.22,1186.27 1149.21,1231.4 1151.19,1220.87 1153.18,1173.1 1155.17,1116.77 1157.15,966.946 1159.14,701.808 1161.13,453.001 
  1163.11,521.871 1165.1,441.353 1167.08,517.692 1169.07,489.411 1171.06,523.605 1173.04,766.206 1175.03,1047.26 1177.01,1171.49 1179,1209.9 1180.99,1184.32 
  1182.97,1081.77 1184.96,1107.43 1186.95,1234.25 1188.93,1293.35 1190.92,1319.27 1192.9,1331.9 1194.89,1337.59 1196.88,1337.55 1198.86,1334.09 1200.85,1333.67 
  1202.83,1323.87 1204.82,1304.22 1206.81,1300.15 1208.79,1279.52 1210.78,1206.04 1212.77,1022.37 1214.75,940.7 1216.74,1148.47 1218.72,1258.29 1220.71,1309.08 
  1222.7,1333.83 1224.68,1344.88 1226.67,1346.96 1228.65,1338.79 1230.64,1338.88 1232.63,1355.29 1234.61,1363.86 1236.6,1367.44 1238.59,1368.12 1240.57,1366.03 
  1242.56,1367.7 1244.54,1372.13 1246.53,1374.38 1248.52,1375.48 1250.5,1375.92 1252.49,1375.95 1254.47,1376.75 1256.46,1377.49 1258.45,1377.86 1260.43,1378 
  1262.42,1377.87 1264.41,1377.25 1266.39,1375.37 1268.38,1371.04 1270.36,1371.09 1272.35,1375.77 1274.34,1378.01 1276.32,1378.98 1278.31,1379.48 1280.29,1379.76 
  1282.28,1379.91 1284.27,1379.92 1286.25,1379.7 1288.24,1379.17 1290.23,1379.48 1292.21,1380.08 1294.2,1380.34 1296.18,1380.45 1298.17,1380.48 1300.16,1380.46 
  1302.14,1380.38 1304.13,1380.2 1306.11,1379.85 1308.1,1379.1 1310.09,1377.33 1312.07,1373.15 1314.06,1371.27 1316.05,1375.99 1318.03,1378.52 1320.02,1379.52 
  1322,1379.95 1323.99,1380.14 1325.98,1380.21 1327.96,1380.19 1329.95,1380.06 1331.93,1379.79 1333.92,1379.69 1335.91,1379.74 1337.89,1379.63 1339.88,1379.36 
  1341.87,1378.88 1343.85,1378.01 1345.84,1376.14 1347.82,1371.78 1349.81,1367.94 1351.8,1372.67 1353.78,1375.63 1355.77,1376.38 1357.75,1375.93 1359.74,1374.24 
  1361.73,1373.57 1363.71,1374.36 1365.7,1373.76 1367.69,1371.45 1369.67,1365.74 1371.66,1354.55 1373.64,1356 1375.63,1364.43 1377.62,1366.74 1379.6,1365.43 
  1381.59,1360.79 1383.57,1350.29 1385.56,1325.67 1387.55,1280.77 1389.53,1296.47 1391.52,1332.02 1393.5,1341.93 1395.49,1334.25 1397.48,1323.26 1399.46,1337.11 
  1401.45,1345.37 1403.44,1345.12 1405.42,1345.17 1407.41,1342.17 1409.39,1334.35 1411.38,1319.94 1413.37,1292.34 1415.35,1231.82 1417.34,1102.4 1419.32,1061.96 
  1421.31,1156.83 1423.3,1172.62 1425.28,1106.02 1427.27,909.082 1429.26,466.17 1431.24,277.564 1433.23,375.801 1435.21,305.479 1437.2,356.17 1439.19,516.247 
  1441.17,721.929 1443.16,844.585 1445.14,1081.51 1447.13,1199.29 1449.12,1250.95 1451.1,1283.82 1453.09,1301.94 1455.08,1304.86 1457.06,1291.57 1459.05,1296.72 
  1461.03,1318.1 1463.02,1325.14 1465.01,1324.64 1466.99,1316.96 1468.98,1294.41 1470.96,1239.85 1472.95,1158.62 1474.94,1116.07 1476.92,1203.25 1478.91,1252.78 
  1480.9,1257.46 1482.88,1226.65 1484.87,1138.01 1486.85,953.793 1488.84,789.401 1490.83,649.457 1492.81,731.393 1494.8,776.536 1496.78,688.622 1498.77,624.417 
  1500.76,763.866 1502.74,887.114 1504.73,774.495 1506.72,823.226 1508.7,1052.25 1510.69,1184.55 1512.67,1264.04 1514.66,1302.71 1516.65,1323.12 1518.63,1334.68 
  1520.62,1340.82 1522.6,1342.19 1524.59,1336.52 1526.58,1315.02 1528.56,1271.14 1530.55,1288.85 1532.54,1331.97 1534.52,1351.27 1536.51,1359.35 1538.49,1362.19 
  1540.48,1360.6 1542.47,1358.82 1544.45,1363.91 1546.44,1365.5 1548.42,1362.95 1550.41,1360.62 1552.4,1362.69 1554.38,1366.99 1556.37,1371.19 1558.36,1373.64 
  1560.34,1374.32 1562.33,1373.58 1564.31,1370.47 1566.3,1363.24 1568.29,1358.84 1570.27,1356.38 1572.26,1361.32 1574.24,1370.55 1576.23,1375.34 1578.22,1377.49 
  1580.2,1378.61 1582.19,1379.27 1584.18,1379.69 1586.16,1379.96 1588.15,1380.13 1590.13,1380.22 1592.12,1380.21 1594.11,1380.08 1596.09,1379.78 1598.08,1379.15 
  1600.06,1377.87 1602.05,1374.96 1604.04,1367.93 1606.02,1357.25 1608.01,1360.79 1610,1368.53 1611.98,1374.31 1613.97,1376.64 1615.95,1376.25 1617.94,1373.88 
  1619.93,1375.13 1621.91,1376.51 1623.9,1377.73 1625.88,1378.48 1627.87,1377.45 1629.86,1373.68 1631.84,1371.46 1633.83,1376.32 1635.82,1379.09 1637.8,1380.16 
  1639.79,1380.54 1641.77,1380.56 1643.76,1380.22 1645.75,1379.3 1647.73,1376.96 1649.72,1372.74 1651.7,1372.57 1653.69,1372.02 1655.68,1370.7 1657.66,1375.55 
  1659.65,1378.67 1661.64,1379.92 1663.62,1380.45 1665.61,1380.68 1667.59,1380.74 1669.58,1380.71 1671.57,1380.59 1673.55,1380.39 1675.54,1380.09 1677.52,1379.63 
  1679.51,1378.92 1681.5,1377.65 1683.48,1375.03 1685.47,1369.23 1687.46,1364.11 1689.44,1365.51 1691.43,1369 1693.41,1369.98 1695.4,1370.25 1697.39,1372.63 
  1699.37,1373.48 1701.36,1372.66 1703.34,1370.15 1705.33,1366.41 1707.32,1366.19 1709.3,1366.9 1711.29,1365.31 1713.28,1361.74 1715.26,1355.8 1717.25,1349.52 
  1719.23,1341.65 1721.22,1329.81 1723.21,1311 1725.19,1275.5 1727.18,1202.87 1729.16,1033.49 1731.15,652.678 1733.14,500.887 1735.12,825.125 1737.11,1024.85 
  1739.1,1020.55 1741.08,885.108 1743.07,1032.01 1745.05,1202.25 1747.04,1270.84 1749.03,1294.59 1751.01,1286.78 1753,1248.58 1754.98,1275.6 1756.97,1323.66 
  1758.96,1345.12 1760.94,1354.75 1762.93,1359.57 1764.92,1361.19 1766.9,1359.21 1768.89,1352.8 1770.87,1352.11 1772.86,1352.23 1774.85,1343.17 1776.83,1317.09 
  1778.82,1252.75 1780.8,1214.53 1782.79,1284.78 1784.78,1319.2 1786.76,1338.36 1788.75,1349.71 1790.73,1360.3 1792.72,1368.26 1794.71,1371.92 1796.69,1373.55 
  1798.68,1374.58 1800.67,1374.02 1802.65,1370.3 1804.64,1365 1806.62,1370.52 1808.61,1375.68 1810.6,1377.75 1812.58,1378.41 1814.57,1378.35 1816.55,1378.17 
  1818.54,1377.12 1820.53,1373.74 1822.51,1366.66 1824.5,1366.24 1826.49,1372.66 1828.47,1376.07 1830.46,1377.08 1832.44,1376.41 1834.43,1373.7 1836.42,1367.07 
  1838.4,1361.63 1840.39,1362.68 1842.37,1354.14 1844.36,1325.94 1846.35,1297.21 1848.33,1330.17 1850.32,1356.35 1852.31,1367.25 1854.29,1370.08 1856.28,1372.4 
  1858.26,1375.65 1860.25,1376.23 1862.24,1377.11 1864.22,1378.92 1866.21,1379.37 1868.19,1378.2 1870.18,1376.96 1872.17,1378.71 1874.15,1379.55 1876.14,1378.55 
  1878.13,1375.26 1880.11,1373.91 1882.1,1374.3 1884.08,1370.36 1886.07,1371.97 1888.06,1374.99 1890.04,1374.98 1892.03,1377.78 1894.01,1379.19 1896,1380.37 
  1897.99,1381.58 1899.97,1382.11 1901.96,1382.26 1903.95,1382.15 1905.93,1381.73 1907.92,1380.67 1909.9,1379.27 1911.89,1379.26 1913.88,1378.1 1915.86,1374.27 
  1917.85,1366.42 1919.83,1358.59 1921.82,1352.6 1923.81,1364.79 1925.79,1373.02 1927.78,1374.57 1929.77,1370.97 1931.75,1364.75 1933.74,1369.19 1935.72,1374.94 
  1937.71,1378.26 1939.7,1379.36 1941.68,1378.62 1943.67,1378.83 1945.65,1379.61 1947.64,1378.34 1949.63,1374.03 1951.61,1372.86 1953.6,1376.47 1955.59,1376.43 
  1957.57,1375.77 1959.56,1375.04 1961.54,1376.57 1963.53,1379.34 1965.52,1379.69 1967.5,1377.61 1969.49,1374.08 1971.47,1374.39 1973.46,1376.31 1975.45,1378.98 
  1977.43,1380.23 1979.42,1381.36 1981.41,1382.32 1983.39,1382.63 1985.38,1382.47 1987.36,1381.73 1989.35,1380.82 1991.34,1380.72 1993.32,1380.65 1995.31,1378.66 
  1997.29,1377.1 1999.28,1379.44 2001.27,1380.28 2003.25,1379.37 2005.24,1376.09 2007.23,1367.72 2009.21,1358.95 2011.2,1362.38 2013.18,1372.2 2015.17,1378.1 
  2017.16,1380.41 2019.14,1381.1 2021.13,1380.52 2023.11,1378.75 2025.1,1379.49 2027.09,1381.1 2029.07,1381.28 2031.06,1381.44 2033.05,1381.21 2035.03,1379.68 
  2037.02,1379.13 2039,1380.81 2040.99,1381.12 2042.98,1380.97 2044.96,1381.15 2046.95,1382.19 2048.93,1382.36 2050.92,1381.62 2052.91,1381.66 2054.89,1381.92 
  2056.88,1380.74 2058.87,1377.65 2060.85,1377.72 2062.84,1380.72 2064.82,1382.09 2066.81,1382.3 2068.8,1382.73 2070.78,1383.19 2072.77,1383.15 2074.75,1382.46 
  2076.74,1380.8 2078.73,1380.94 2080.71,1382.5 2082.7,1383.06 2084.69,1383.03 2086.67,1382.49 2088.66,1381.85 2090.64,1380.74 2092.63,1377.33 2094.62,1370.65 
  2096.6,1371.56 2098.59,1377.81 2100.57,1380.85 2102.56,1381.7 2104.55,1381.2 2106.53,1379.93 2108.52,1381.18 2110.51,1382.63 2112.49,1383.12 2114.48,1383.06 
  2116.46,1382.41 2118.45,1380.77 2120.44,1379.29 2122.42,1379.7 2124.41,1380.74 2126.39,1382.32 2128.38,1382.77 2130.37,1382.77 2132.35,1382.68 2134.34,1382.76 
  2136.33,1383.26 2138.31,1383.29 2140.3,1382.73 2142.28,1381.8 2144.27,1380.85 2146.26,1378.77 2148.24,1379.53 2150.23,1382.05 2152.21,1383.09 2154.2,1383.35 
  2156.19,1383.14 2158.17,1383.07 2160.16,1382.92 2162.15,1382.28 2164.13,1381.66 2166.12,1380.1 2168.1,1380.4 2170.09,1381.09 2172.08,1379.6 2174.06,1375.37 
  2176.05,1375.54 2178.03,1378.95 2180.02,1378.89 2182.01,1379.05 2183.99,1381.49 2185.98,1382.57 2187.97,1382.58 2189.95,1381.64 2191.94,1381.33 2193.92,1381.6 
  2195.91,1380.76 2197.9,1381.92 2199.88,1383.13 2201.87,1383.47 2203.85,1383.21 2205.84,1382.29 2207.83,1382.12 2209.81,1382.83 2211.8,1383.44 2213.78,1383.45 
  2215.77,1382.97 2217.76,1383.31 2219.74,1383.76 2221.73,1383.78 2223.72,1383.39 2225.7,1382.45 2227.69,1381.12 2229.67,1380.3 2231.66,1381.84 2233.65,1383.06 
  2235.63,1383.34 2237.62,1383 2239.6,1382.42 2241.59,1382.67 2243.58,1382.11 2245.56,1380.5 2247.55,1379.91 2249.54,1380.61 2251.52,1381.12 2253.51,1381.2 
  2255.49,1382.61 2257.48,1383.32 2259.47,1383.33 2261.45,1382.64 2263.44,1380.91 2265.42,1380.84 2267.41,1382.67 2269.4,1383.5 2271.38,1383.7 2273.37,1383.46 
  2275.36,1382.53 2277.34,1380.64 2279.33,1381 2281.31,1382.41 2283.3,1383.28 2285.29,1383.89 2287.27,1384.16 2289.26,1384.24 2291.24,1384.2 2293.23,1384 
  
  "/>
<path clip-path="url(#clip900)" d="
M1996.53 196.789 L2282.65 196.789 L2282.65 93.1086 L1996.53 93.1086  Z
  " fill="#ffffff" fill-rule="evenodd" fill-opacity="1"/>
<polyline clip-path="url(#clip900)" style="stroke:#000000; stroke-linecap:round; stroke-linejoin:round; stroke-width:4; stroke-opacity:1; fill:none" points="
  1996.53,196.789 2282.65,196.789 2282.65,93.1086 1996.53,93.1086 1996.53,196.789 
  "/>
<polyline clip-path="url(#clip900)" style="stroke:#009af9; stroke-linecap:round; stroke-linejoin:round; stroke-width:4; stroke-opacity:1; fill:none" points="
  2019.9,144.949 2160.11,144.949 
  "/>
<path clip-path="url(#clip900)" d="M2197.32 164.636 Q2195.52 169.266 2193.8 170.678 Q2192.09 172.09 2189.22 172.09 L2185.82 172.09 L2185.82 168.525 L2188.32 168.525 Q2190.08 168.525 2191.05 167.692 Q2192.02 166.858 2193.2 163.756 L2193.97 161.812 L2183.48 136.303 L2187.99 136.303 L2196.1 156.581 L2204.2 136.303 L2208.71 136.303 L2197.32 164.636 Z" fill="#000000" fill-rule="evenodd" fill-opacity="1" /><path clip-path="url(#clip900)" d="M2216 158.293 L2223.64 158.293 L2223.64 131.928 L2215.33 133.595 L2215.33 129.335 L2223.6 127.669 L2228.27 127.669 L2228.27 158.293 L2235.91 158.293 L2235.91 162.229 L2216 162.229 L2216 158.293 Z" fill="#000000" fill-rule="evenodd" fill-opacity="1" /></svg>
