<?xml version="1.0" encoding="utf-8"?>
<svg xmlns="http://www.w3.org/2000/svg" xmlns:xlink="http://www.w3.org/1999/xlink" width="600" height="400" viewBox="0 0 2400 1600">
<defs>
  <clipPath id="clip640">
    <rect x="0" y="0" width="2400" height="1600"/>
  </clipPath>
</defs>
<path clip-path="url(#clip640)" d="
M0 1600 L2400 1600 L2400 0 L0 0  Z
  " fill="#ffffff" fill-rule="evenodd" fill-opacity="1"/>
<defs>
  <clipPath id="clip641">
    <rect x="480" y="0" width="1681" height="1600"/>
  </clipPath>
</defs>
<path clip-path="url(#clip640)" d="
M219.866 1423.18 L2352.76 1423.18 L2352.76 47.2441 L219.866 47.2441  Z
  " fill="#ffffff" fill-rule="evenodd" fill-opacity="1"/>
<defs>
  <clipPath id="clip642">
    <rect x="219" y="47" width="2134" height="1377"/>
  </clipPath>
</defs>
<polyline clip-path="url(#clip642)" style="stroke:#000000; stroke-linecap:butt; stroke-linejoin:round; stroke-width:2; stroke-opacity:0.1; fill:none" points="
  280.231,1423.18 280.231,47.2441 
  "/>
<polyline clip-path="url(#clip642)" style="stroke:#000000; stroke-linecap:butt; stroke-linejoin:round; stroke-width:2; stroke-opacity:0.1; fill:none" points="
  783.271,1423.18 783.271,47.2441 
  "/>
<polyline clip-path="url(#clip642)" style="stroke:#000000; stroke-linecap:butt; stroke-linejoin:round; stroke-width:2; stroke-opacity:0.1; fill:none" points="
  1286.31,1423.18 1286.31,47.2441 
  "/>
<polyline clip-path="url(#clip642)" style="stroke:#000000; stroke-linecap:butt; stroke-linejoin:round; stroke-width:2; stroke-opacity:0.1; fill:none" points="
  1789.35,1423.18 1789.35,47.2441 
  "/>
<polyline clip-path="url(#clip642)" style="stroke:#000000; stroke-linecap:butt; stroke-linejoin:round; stroke-width:2; stroke-opacity:0.1; fill:none" points="
  2292.39,1423.18 2292.39,47.2441 
  "/>
<polyline clip-path="url(#clip640)" style="stroke:#000000; stroke-linecap:butt; stroke-linejoin:round; stroke-width:4; stroke-opacity:1; fill:none" points="
  219.866,1423.18 2352.76,1423.18 
  "/>
<polyline clip-path="url(#clip640)" style="stroke:#000000; stroke-linecap:butt; stroke-linejoin:round; stroke-width:4; stroke-opacity:1; fill:none" points="
  280.231,1423.18 280.231,1404.28 
  "/>
<polyline clip-path="url(#clip640)" style="stroke:#000000; stroke-linecap:butt; stroke-linejoin:round; stroke-width:4; stroke-opacity:1; fill:none" points="
  783.271,1423.18 783.271,1404.28 
  "/>
<polyline clip-path="url(#clip640)" style="stroke:#000000; stroke-linecap:butt; stroke-linejoin:round; stroke-width:4; stroke-opacity:1; fill:none" points="
  1286.31,1423.18 1286.31,1404.28 
  "/>
<polyline clip-path="url(#clip640)" style="stroke:#000000; stroke-linecap:butt; stroke-linejoin:round; stroke-width:4; stroke-opacity:1; fill:none" points="
  1789.35,1423.18 1789.35,1404.28 
  "/>
<polyline clip-path="url(#clip640)" style="stroke:#000000; stroke-linecap:butt; stroke-linejoin:round; stroke-width:4; stroke-opacity:1; fill:none" points="
  2292.39,1423.18 2292.39,1404.28 
  "/>
<path clip-path="url(#clip640)" d="M249.132 1468.75 L278.807 1468.75 L278.807 1472.69 L249.132 1472.69 L249.132 1468.75 Z" fill="#000000" fill-rule="evenodd" fill-opacity="1" /><path clip-path="url(#clip640)" d="M301.747 1455.09 L289.942 1473.54 L301.747 1473.54 L301.747 1455.09 M300.52 1451.02 L306.4 1451.02 L306.4 1473.54 L311.33 1473.54 L311.33 1477.43 L306.4 1477.43 L306.4 1485.58 L301.747 1485.58 L301.747 1477.43 L286.145 1477.43 L286.145 1472.92 L300.52 1451.02 Z" fill="#000000" fill-rule="evenodd" fill-opacity="1" /><path clip-path="url(#clip640)" d="M753.213 1468.75 L782.889 1468.75 L782.889 1472.69 L753.213 1472.69 L753.213 1468.75 Z" fill="#000000" fill-rule="evenodd" fill-opacity="1" /><path clip-path="url(#clip640)" d="M797.009 1481.64 L813.329 1481.64 L813.329 1485.58 L791.384 1485.58 L791.384 1481.64 Q794.046 1478.89 798.63 1474.26 Q803.236 1469.61 804.417 1468.27 Q806.662 1465.74 807.542 1464.01 Q808.445 1462.25 808.445 1460.56 Q808.445 1457.8 806.5 1456.07 Q804.579 1454.33 801.477 1454.33 Q799.278 1454.33 796.824 1455.09 Q794.394 1455.86 791.616 1457.41 L791.616 1452.69 Q794.44 1451.55 796.894 1450.97 Q799.347 1450.39 801.384 1450.39 Q806.755 1450.39 809.949 1453.08 Q813.144 1455.77 813.144 1460.26 Q813.144 1462.39 812.333 1464.31 Q811.546 1466.2 809.44 1468.8 Q808.861 1469.47 805.759 1472.69 Q802.658 1475.88 797.009 1481.64 Z" fill="#000000" fill-rule="evenodd" fill-opacity="1" /><path clip-path="url(#clip640)" d="M1286.31 1454.1 Q1282.7 1454.1 1280.87 1457.66 Q1279.07 1461.2 1279.07 1468.33 Q1279.07 1475.44 1280.87 1479.01 Q1282.7 1482.55 1286.31 1482.55 Q1289.95 1482.55 1291.75 1479.01 Q1293.58 1475.44 1293.58 1468.33 Q1293.58 1461.2 1291.75 1457.66 Q1289.95 1454.1 1286.31 1454.1 M1286.31 1450.39 Q1292.12 1450.39 1295.18 1455 Q1298.26 1459.58 1298.26 1468.33 Q1298.26 1477.06 1295.18 1481.67 Q1292.12 1486.25 1286.31 1486.25 Q1280.5 1486.25 1277.42 1481.67 Q1274.37 1477.06 1274.37 1468.33 Q1274.37 1459.58 1277.42 1455 Q1280.5 1450.39 1286.31 1450.39 Z" fill="#000000" fill-rule="evenodd" fill-opacity="1" /><path clip-path="url(#clip640)" d="M1784 1481.64 L1800.32 1481.64 L1800.32 1485.58 L1778.38 1485.58 L1778.38 1481.64 Q1781.04 1478.89 1785.62 1474.26 Q1790.23 1469.61 1791.41 1468.27 Q1793.66 1465.74 1794.54 1464.01 Q1795.44 1462.25 1795.44 1460.56 Q1795.44 1457.8 1793.49 1456.07 Q1791.57 1454.33 1788.47 1454.33 Q1786.27 1454.33 1783.82 1455.09 Q1781.39 1455.86 1778.61 1457.41 L1778.61 1452.69 Q1781.43 1451.55 1783.89 1450.97 Q1786.34 1450.39 1788.38 1450.39 Q1793.75 1450.39 1796.94 1453.08 Q1800.14 1455.77 1800.14 1460.26 Q1800.14 1462.39 1799.33 1464.31 Q1798.54 1466.2 1796.43 1468.8 Q1795.86 1469.47 1792.75 1472.69 Q1789.65 1475.88 1784 1481.64 Z" fill="#000000" fill-rule="evenodd" fill-opacity="1" /><path clip-path="url(#clip640)" d="M2295.4 1455.09 L2283.59 1473.54 L2295.4 1473.54 L2295.4 1455.09 M2294.17 1451.02 L2300.05 1451.02 L2300.05 1473.54 L2304.98 1473.54 L2304.98 1477.43 L2300.05 1477.43 L2300.05 1485.58 L2295.4 1485.58 L2295.4 1477.43 L2279.8 1477.43 L2279.8 1472.92 L2294.17 1451.02 Z" fill="#000000" fill-rule="evenodd" fill-opacity="1" /><path clip-path="url(#clip640)" d="M1129.64 1520.52 L1159.68 1520.52 L1159.68 1525.93 L1136.06 1525.93 L1136.06 1540 L1158.69 1540 L1158.69 1545.41 L1136.06 1545.41 L1136.06 1562.63 L1160.25 1562.63 L1160.25 1568.04 L1129.64 1568.04 L1129.64 1520.52 Z" fill="#000000" fill-rule="evenodd" fill-opacity="1" /><path clip-path="url(#clip640)" d="M1200.2 1546.53 L1200.2 1568.04 L1194.34 1568.04 L1194.34 1546.72 Q1194.34 1541.66 1192.37 1539.14 Q1190.4 1536.63 1186.45 1536.63 Q1181.71 1536.63 1178.97 1539.65 Q1176.23 1542.68 1176.23 1547.9 L1176.23 1568.04 L1170.34 1568.04 L1170.34 1532.4 L1176.23 1532.4 L1176.23 1537.93 Q1178.33 1534.72 1181.17 1533.13 Q1184.03 1531.54 1187.75 1531.54 Q1193.9 1531.54 1197.05 1535.36 Q1200.2 1539.14 1200.2 1546.53 Z" fill="#000000" fill-rule="evenodd" fill-opacity="1" /><path clip-path="url(#clip640)" d="M1242.37 1548.76 L1242.37 1551.62 L1215.44 1551.62 Q1215.83 1557.67 1219.07 1560.85 Q1222.35 1564 1228.18 1564 Q1231.55 1564 1234.7 1563.17 Q1237.88 1562.35 1241 1560.69 L1241 1566.23 Q1237.85 1567.57 1234.54 1568.27 Q1231.23 1568.97 1227.83 1568.97 Q1219.3 1568.97 1214.3 1564 Q1209.33 1559.04 1209.33 1550.57 Q1209.33 1541.82 1214.04 1536.69 Q1218.79 1531.54 1226.81 1531.54 Q1234 1531.54 1238.17 1536.18 Q1242.37 1540.8 1242.37 1548.76 M1236.52 1547.04 Q1236.45 1542.23 1233.81 1539.37 Q1231.2 1536.5 1226.87 1536.5 Q1221.97 1536.5 1219.01 1539.27 Q1216.08 1542.04 1215.64 1547.07 L1236.52 1547.04 Z" fill="#000000" fill-rule="evenodd" fill-opacity="1" /><path clip-path="url(#clip640)" d="M1272.64 1537.87 Q1271.65 1537.3 1270.48 1537.04 Q1269.33 1536.76 1267.93 1536.76 Q1262.96 1536.76 1260.29 1540 Q1257.65 1543.22 1257.65 1549.27 L1257.65 1568.04 L1251.76 1568.04 L1251.76 1532.4 L1257.65 1532.4 L1257.65 1537.93 Q1259.5 1534.69 1262.46 1533.13 Q1265.42 1531.54 1269.65 1531.54 Q1270.25 1531.54 1270.99 1531.63 Q1271.72 1531.7 1272.61 1531.85 L1272.64 1537.87 Z" fill="#000000" fill-rule="evenodd" fill-opacity="1" /><path clip-path="url(#clip640)" d="M1301.1 1549.81 Q1301.1 1543.44 1298.45 1539.94 Q1295.84 1536.44 1291.1 1536.44 Q1286.39 1536.44 1283.75 1539.94 Q1281.14 1543.44 1281.14 1549.81 Q1281.14 1556.14 1283.75 1559.64 Q1286.39 1563.14 1291.1 1563.14 Q1295.84 1563.14 1298.45 1559.64 Q1301.1 1556.14 1301.1 1549.81 M1306.95 1563.62 Q1306.95 1572.72 1302.91 1577.15 Q1298.87 1581.6 1290.53 1581.6 Q1287.44 1581.6 1284.7 1581.13 Q1281.97 1580.68 1279.39 1579.72 L1279.39 1574.03 Q1281.97 1575.43 1284.48 1576.1 Q1287 1576.76 1289.61 1576.76 Q1295.37 1576.76 1298.23 1573.74 Q1301.1 1570.75 1301.1 1564.67 L1301.1 1561.77 Q1299.28 1564.92 1296.45 1566.48 Q1293.62 1568.04 1289.67 1568.04 Q1283.11 1568.04 1279.1 1563.05 Q1275.09 1558.05 1275.09 1549.81 Q1275.09 1541.53 1279.1 1536.53 Q1283.11 1531.54 1289.67 1531.54 Q1293.62 1531.54 1296.45 1533.1 Q1299.28 1534.66 1301.1 1537.81 L1301.1 1532.4 L1306.95 1532.4 L1306.95 1563.62 Z" fill="#000000" fill-rule="evenodd" fill-opacity="1" /><path clip-path="url(#clip640)" d="M1333.85 1571.35 Q1331.36 1577.72 1329.01 1579.66 Q1326.65 1581.6 1322.71 1581.6 L1318.03 1581.6 L1318.03 1576.7 L1321.47 1576.7 Q1323.88 1576.7 1325.22 1575.56 Q1326.56 1574.41 1328.18 1570.14 L1329.23 1567.47 L1314.81 1532.4 L1321.02 1532.4 L1332.16 1560.28 L1343.3 1532.4 L1349.51 1532.4 L1333.85 1571.35 Z" fill="#000000" fill-rule="evenodd" fill-opacity="1" /><path clip-path="url(#clip640)" d="M1377.77 1518.52 L1391.27 1518.52 L1391.27 1523.07 L1383.63 1523.07 L1383.63 1572.09 L1391.27 1572.09 L1391.27 1576.64 L1377.77 1576.64 L1377.77 1518.52 Z" fill="#000000" fill-rule="evenodd" fill-opacity="1" /><path clip-path="url(#clip640)" d="M1409.54 1522.27 L1409.54 1532.4 L1421.6 1532.4 L1421.6 1536.95 L1409.54 1536.95 L1409.54 1556.3 Q1409.54 1560.66 1410.71 1561.9 Q1411.92 1563.14 1415.58 1563.14 L1421.6 1563.14 L1421.6 1568.04 L1415.58 1568.04 Q1408.8 1568.04 1406.23 1565.53 Q1403.65 1562.98 1403.65 1556.3 L1403.65 1536.95 L1399.35 1536.95 L1399.35 1532.4 L1403.65 1532.4 L1403.65 1522.27 L1409.54 1522.27 Z" fill="#000000" fill-rule="evenodd" fill-opacity="1" /><path clip-path="url(#clip640)" d="M1442.99 1518.52 L1442.99 1576.64 L1429.49 1576.64 L1429.49 1572.09 L1437.1 1572.09 L1437.1 1523.07 L1429.49 1523.07 L1429.49 1518.52 L1442.99 1518.52 Z" fill="#000000" fill-rule="evenodd" fill-opacity="1" /><polyline clip-path="url(#clip642)" style="stroke:#000000; stroke-linecap:butt; stroke-linejoin:round; stroke-width:2; stroke-opacity:0.1; fill:none" points="
  219.866,1385.71 2352.76,1385.71 
  "/>
<polyline clip-path="url(#clip642)" style="stroke:#000000; stroke-linecap:butt; stroke-linejoin:round; stroke-width:2; stroke-opacity:0.1; fill:none" points="
  219.866,1081.37 2352.76,1081.37 
  "/>
<polyline clip-path="url(#clip642)" style="stroke:#000000; stroke-linecap:butt; stroke-linejoin:round; stroke-width:2; stroke-opacity:0.1; fill:none" points="
  219.866,777.031 2352.76,777.031 
  "/>
<polyline clip-path="url(#clip642)" style="stroke:#000000; stroke-linecap:butt; stroke-linejoin:round; stroke-width:2; stroke-opacity:0.1; fill:none" points="
  219.866,472.691 2352.76,472.691 
  "/>
<polyline clip-path="url(#clip642)" style="stroke:#000000; stroke-linecap:butt; stroke-linejoin:round; stroke-width:2; stroke-opacity:0.1; fill:none" points="
  219.866,168.351 2352.76,168.351 
  "/>
<polyline clip-path="url(#clip640)" style="stroke:#000000; stroke-linecap:butt; stroke-linejoin:round; stroke-width:4; stroke-opacity:1; fill:none" points="
  219.866,1423.18 219.866,47.2441 
  "/>
<polyline clip-path="url(#clip640)" style="stroke:#000000; stroke-linecap:butt; stroke-linejoin:round; stroke-width:4; stroke-opacity:1; fill:none" points="
  219.866,1385.71 238.764,1385.71 
  "/>
<polyline clip-path="url(#clip640)" style="stroke:#000000; stroke-linecap:butt; stroke-linejoin:round; stroke-width:4; stroke-opacity:1; fill:none" points="
  219.866,1081.37 238.764,1081.37 
  "/>
<polyline clip-path="url(#clip640)" style="stroke:#000000; stroke-linecap:butt; stroke-linejoin:round; stroke-width:4; stroke-opacity:1; fill:none" points="
  219.866,777.031 238.764,777.031 
  "/>
<polyline clip-path="url(#clip640)" style="stroke:#000000; stroke-linecap:butt; stroke-linejoin:round; stroke-width:4; stroke-opacity:1; fill:none" points="
  219.866,472.691 238.764,472.691 
  "/>
<polyline clip-path="url(#clip640)" style="stroke:#000000; stroke-linecap:butt; stroke-linejoin:round; stroke-width:4; stroke-opacity:1; fill:none" points="
  219.866,168.351 238.764,168.351 
  "/>
<path clip-path="url(#clip640)" d="M126.691 1371.51 Q123.08 1371.51 121.251 1375.07 Q119.445 1378.62 119.445 1385.75 Q119.445 1392.85 121.251 1396.42 Q123.08 1399.96 126.691 1399.96 Q130.325 1399.96 132.13 1396.42 Q133.959 1392.85 133.959 1385.75 Q133.959 1378.62 132.13 1375.07 Q130.325 1371.51 126.691 1371.51 M126.691 1367.81 Q132.501 1367.81 135.556 1372.41 Q138.635 1377 138.635 1385.75 Q138.635 1394.47 135.556 1399.08 Q132.501 1403.66 126.691 1403.66 Q120.88 1403.66 117.802 1399.08 Q114.746 1394.47 114.746 1385.75 Q114.746 1377 117.802 1372.41 Q120.88 1367.81 126.691 1367.81 Z" fill="#000000" fill-rule="evenodd" fill-opacity="1" /><path clip-path="url(#clip640)" d="M146.853 1397.11 L151.737 1397.11 L151.737 1402.99 L146.853 1402.99 L146.853 1397.11 Z" fill="#000000" fill-rule="evenodd" fill-opacity="1" /><path clip-path="url(#clip640)" d="M171.922 1371.51 Q168.311 1371.51 166.482 1375.07 Q164.677 1378.62 164.677 1385.75 Q164.677 1392.85 166.482 1396.42 Q168.311 1399.96 171.922 1399.96 Q175.556 1399.96 177.362 1396.42 Q179.19 1392.85 179.19 1385.75 Q179.19 1378.62 177.362 1375.07 Q175.556 1371.51 171.922 1371.51 M171.922 1367.81 Q177.732 1367.81 180.788 1372.41 Q183.866 1377 183.866 1385.75 Q183.866 1394.47 180.788 1399.08 Q177.732 1403.66 171.922 1403.66 Q166.112 1403.66 163.033 1399.08 Q159.978 1394.47 159.978 1385.75 Q159.978 1377 163.033 1372.41 Q166.112 1367.81 171.922 1367.81 Z" fill="#000000" fill-rule="evenodd" fill-opacity="1" /><path clip-path="url(#clip640)" d="M128.288 1067.17 Q124.677 1067.17 122.848 1070.73 Q121.043 1074.28 121.043 1081.41 Q121.043 1088.51 122.848 1092.08 Q124.677 1095.62 128.288 1095.62 Q131.922 1095.62 133.728 1092.08 Q135.556 1088.51 135.556 1081.41 Q135.556 1074.28 133.728 1070.73 Q131.922 1067.17 128.288 1067.17 M128.288 1063.47 Q134.098 1063.47 137.154 1068.07 Q140.232 1072.66 140.232 1081.41 Q140.232 1090.13 137.154 1094.74 Q134.098 1099.32 128.288 1099.32 Q122.478 1099.32 119.399 1094.74 Q116.343 1090.13 116.343 1081.41 Q116.343 1072.66 119.399 1068.07 Q122.478 1063.47 128.288 1063.47 Z" fill="#000000" fill-rule="evenodd" fill-opacity="1" /><path clip-path="url(#clip640)" d="M148.45 1092.77 L153.334 1092.77 L153.334 1098.65 L148.45 1098.65 L148.45 1092.77 Z" fill="#000000" fill-rule="evenodd" fill-opacity="1" /><path clip-path="url(#clip640)" d="M167.547 1094.72 L183.866 1094.72 L183.866 1098.65 L161.922 1098.65 L161.922 1094.72 Q164.584 1091.96 169.167 1087.33 Q173.774 1082.68 174.954 1081.34 Q177.2 1078.81 178.079 1077.08 Q178.982 1075.32 178.982 1073.63 Q178.982 1070.87 177.038 1069.14 Q175.116 1067.4 172.014 1067.4 Q169.815 1067.4 167.362 1068.17 Q164.931 1068.93 162.153 1070.48 L162.153 1065.76 Q164.977 1064.62 167.431 1064.04 Q169.885 1063.47 171.922 1063.47 Q177.292 1063.47 180.487 1066.15 Q183.681 1068.84 183.681 1073.33 Q183.681 1075.46 182.871 1077.38 Q182.084 1079.28 179.977 1081.87 Q179.399 1082.54 176.297 1085.76 Q173.195 1088.95 167.547 1094.72 Z" fill="#000000" fill-rule="evenodd" fill-opacity="1" /><path clip-path="url(#clip640)" d="M126.205 762.83 Q122.593 762.83 120.765 766.394 Q118.959 769.936 118.959 777.066 Q118.959 784.172 120.765 787.737 Q122.593 791.279 126.205 791.279 Q129.839 791.279 131.644 787.737 Q133.473 784.172 133.473 777.066 Q133.473 769.936 131.644 766.394 Q129.839 762.83 126.205 762.83 M126.205 759.126 Q132.015 759.126 135.07 763.732 Q138.149 768.316 138.149 777.066 Q138.149 785.793 135.07 790.399 Q132.015 794.982 126.205 794.982 Q120.394 794.982 117.316 790.399 Q114.26 785.793 114.26 777.066 Q114.26 768.316 117.316 763.732 Q120.394 759.126 126.205 759.126 Z" fill="#000000" fill-rule="evenodd" fill-opacity="1" /><path clip-path="url(#clip640)" d="M146.366 788.431 L151.251 788.431 L151.251 794.311 L146.366 794.311 L146.366 788.431 Z" fill="#000000" fill-rule="evenodd" fill-opacity="1" /><path clip-path="url(#clip640)" d="M174.283 763.825 L162.477 782.274 L174.283 782.274 L174.283 763.825 M173.056 759.751 L178.936 759.751 L178.936 782.274 L183.866 782.274 L183.866 786.163 L178.936 786.163 L178.936 794.311 L174.283 794.311 L174.283 786.163 L158.681 786.163 L158.681 781.649 L173.056 759.751 Z" fill="#000000" fill-rule="evenodd" fill-opacity="1" /><path clip-path="url(#clip640)" d="M126.529 458.489 Q122.918 458.489 121.089 462.054 Q119.283 465.596 119.283 472.726 Q119.283 479.832 121.089 483.397 Q122.918 486.938 126.529 486.938 Q130.163 486.938 131.968 483.397 Q133.797 479.832 133.797 472.726 Q133.797 465.596 131.968 462.054 Q130.163 458.489 126.529 458.489 M126.529 454.786 Q132.339 454.786 135.394 459.392 Q138.473 463.976 138.473 472.726 Q138.473 481.452 135.394 486.059 Q132.339 490.642 126.529 490.642 Q120.718 490.642 117.64 486.059 Q114.584 481.452 114.584 472.726 Q114.584 463.976 117.64 459.392 Q120.718 454.786 126.529 454.786 Z" fill="#000000" fill-rule="evenodd" fill-opacity="1" /><path clip-path="url(#clip640)" d="M146.691 484.091 L151.575 484.091 L151.575 489.971 L146.691 489.971 L146.691 484.091 Z" fill="#000000" fill-rule="evenodd" fill-opacity="1" /><path clip-path="url(#clip640)" d="M172.339 470.827 Q169.19 470.827 167.339 472.98 Q165.51 475.133 165.51 478.883 Q165.51 482.61 167.339 484.786 Q169.19 486.938 172.339 486.938 Q175.487 486.938 177.315 484.786 Q179.167 482.61 179.167 478.883 Q179.167 475.133 177.315 472.98 Q175.487 470.827 172.339 470.827 M181.621 456.175 L181.621 460.434 Q179.862 459.601 178.056 459.161 Q176.274 458.721 174.514 458.721 Q169.885 458.721 167.431 461.846 Q165.001 464.971 164.653 471.29 Q166.019 469.276 168.079 468.212 Q170.139 467.124 172.616 467.124 Q177.825 467.124 180.834 470.295 Q183.866 473.443 183.866 478.883 Q183.866 484.207 180.718 487.424 Q177.57 490.642 172.339 490.642 Q166.343 490.642 163.172 486.059 Q160.001 481.452 160.001 472.726 Q160.001 464.531 163.89 459.67 Q167.778 454.786 174.329 454.786 Q176.089 454.786 177.871 455.133 Q179.676 455.48 181.621 456.175 Z" fill="#000000" fill-rule="evenodd" fill-opacity="1" /><path clip-path="url(#clip640)" d="M126.783 154.149 Q123.172 154.149 121.343 157.714 Q119.538 161.256 119.538 168.385 Q119.538 175.492 121.343 179.057 Q123.172 182.598 126.783 182.598 Q130.417 182.598 132.223 179.057 Q134.052 175.492 134.052 168.385 Q134.052 161.256 132.223 157.714 Q130.417 154.149 126.783 154.149 M126.783 150.446 Q132.593 150.446 135.649 155.052 Q138.728 159.635 138.728 168.385 Q138.728 177.112 135.649 181.719 Q132.593 186.302 126.783 186.302 Q120.973 186.302 117.894 181.719 Q114.839 177.112 114.839 168.385 Q114.839 159.635 117.894 155.052 Q120.973 150.446 126.783 150.446 Z" fill="#000000" fill-rule="evenodd" fill-opacity="1" /><path clip-path="url(#clip640)" d="M146.945 179.751 L151.829 179.751 L151.829 185.631 L146.945 185.631 L146.945 179.751 Z" fill="#000000" fill-rule="evenodd" fill-opacity="1" /><path clip-path="url(#clip640)" d="M172.014 169.219 Q168.681 169.219 166.76 171.001 Q164.862 172.783 164.862 175.908 Q164.862 179.033 166.76 180.816 Q168.681 182.598 172.014 182.598 Q175.348 182.598 177.269 180.816 Q179.19 179.01 179.19 175.908 Q179.19 172.783 177.269 171.001 Q175.371 169.219 172.014 169.219 M167.339 167.228 Q164.329 166.487 162.64 164.427 Q160.973 162.367 160.973 159.404 Q160.973 155.26 163.913 152.853 Q166.876 150.446 172.014 150.446 Q177.176 150.446 180.116 152.853 Q183.056 155.26 183.056 159.404 Q183.056 162.367 181.366 164.427 Q179.7 166.487 176.714 167.228 Q180.093 168.015 181.968 170.307 Q183.866 172.598 183.866 175.908 Q183.866 180.932 180.788 183.617 Q177.732 186.302 172.014 186.302 Q166.297 186.302 163.218 183.617 Q160.163 180.932 160.163 175.908 Q160.163 172.598 162.061 170.307 Q163.959 168.015 167.339 167.228 M165.626 159.844 Q165.626 162.529 167.292 164.033 Q168.982 165.538 172.014 165.538 Q175.024 165.538 176.714 164.033 Q178.426 162.529 178.426 159.844 Q178.426 157.159 176.714 155.654 Q175.024 154.149 172.014 154.149 Q168.982 154.149 167.292 155.654 Q165.626 157.159 165.626 159.844 Z" fill="#000000" fill-rule="evenodd" fill-opacity="1" /><path clip-path="url(#clip640)" d="M16.4842 896.471 L16.4842 890.042 L58.5933 890.042 L58.5933 866.903 L64.0042 866.903 L64.0042 896.471 L16.4842 896.471 Z" fill="#000000" fill-rule="evenodd" fill-opacity="1" /><path clip-path="url(#clip640)" d="M32.4621 847.742 Q32.4621 852.452 36.1542 855.19 Q39.8145 857.927 46.212 857.927 Q52.6095 857.927 56.3017 855.221 Q59.9619 852.484 59.9619 847.742 Q59.9619 843.063 56.2698 840.326 Q52.5777 837.588 46.212 837.588 Q39.8781 837.588 36.186 840.326 Q32.4621 843.063 32.4621 847.742 M27.4968 847.742 Q27.4968 840.103 32.4621 835.742 Q37.4273 831.382 46.212 831.382 Q54.9649 831.382 59.9619 835.742 Q64.9272 840.103 64.9272 847.742 Q64.9272 855.412 59.9619 859.773 Q54.9649 864.102 46.212 864.102 Q37.4273 864.102 32.4621 859.773 Q27.4968 855.412 27.4968 847.742 Z" fill="#000000" fill-rule="evenodd" fill-opacity="1" /><path clip-path="url(#clip640)" d="M29.7248 796.02 L35.1993 796.02 Q33.8307 798.503 33.1623 801.017 Q32.4621 803.5 32.4621 806.046 Q32.4621 811.744 36.0905 814.895 Q39.6872 818.046 46.212 818.046 Q52.7369 818.046 56.3653 814.895 Q59.9619 811.744 59.9619 806.046 Q59.9619 803.5 59.2935 801.017 Q58.5933 798.503 57.2247 796.02 L62.6355 796.02 Q63.7814 798.471 64.3543 801.113 Q64.9272 803.723 64.9272 806.683 Q64.9272 814.736 59.8664 819.478 Q54.8057 824.22 46.212 824.22 Q37.491 824.22 32.4939 819.446 Q27.4968 814.64 27.4968 806.301 Q27.4968 803.596 28.0697 801.017 Q28.6108 798.439 29.7248 796.02 Z" fill="#000000" fill-rule="evenodd" fill-opacity="1" /><path clip-path="url(#clip640)" d="M46.0847 769.635 Q46.0847 776.732 47.7079 779.47 Q49.3312 782.207 53.2461 782.207 Q56.3653 782.207 58.2114 780.17 Q60.0256 778.101 60.0256 774.568 Q60.0256 769.698 56.5881 766.77 Q53.1188 763.81 47.3897 763.81 L46.0847 763.81 L46.0847 769.635 M43.6657 757.953 L64.0042 757.953 L64.0042 763.81 L58.5933 763.81 Q61.8398 765.815 63.3994 768.807 Q64.9272 771.799 64.9272 776.128 Q64.9272 781.602 61.8716 784.849 Q58.7843 788.063 53.6281 788.063 Q47.6125 788.063 44.5569 784.053 Q41.5014 780.011 41.5014 772.022 L41.5014 763.81 L40.9285 763.81 Q36.8862 763.81 34.6901 766.484 Q32.4621 769.125 32.4621 773.931 Q32.4621 776.987 33.1941 779.883 Q33.9262 782.78 35.3903 785.453 L29.9795 785.453 Q28.7381 782.239 28.1334 779.215 Q27.4968 776.191 27.4968 773.327 Q27.4968 765.592 31.5072 761.773 Q35.5176 757.953 43.6657 757.953 Z" fill="#000000" fill-rule="evenodd" fill-opacity="1" /><path clip-path="url(#clip640)" d="M14.479 745.89 L14.479 740.034 L64.0042 740.034 L64.0042 745.89 L14.479 745.89 Z" fill="#000000" fill-rule="evenodd" fill-opacity="1" /><path clip-path="url(#clip640)" d="M21.7677 700.376 L58.7206 700.376 L58.7206 692.609 Q58.7206 682.774 54.2646 678.223 Q49.8086 673.64 40.1964 673.64 Q30.6479 673.64 26.2237 678.223 Q21.7677 682.774 21.7677 692.609 L21.7677 700.376 M16.4842 706.805 L16.4842 693.596 Q16.4842 679.783 22.2451 673.321 Q27.9743 666.86 40.1964 666.86 Q52.4822 666.86 58.2432 673.353 Q64.0042 679.846 64.0042 693.596 L64.0042 706.805 L16.4842 706.805 Z" fill="#000000" fill-rule="evenodd" fill-opacity="1" /><path clip-path="url(#clip640)" d="M20.8447 637.323 Q20.8447 644.326 26.0645 648.463 Q31.2844 652.569 40.2919 652.569 Q49.2675 652.569 54.4874 648.463 Q59.7073 644.326 59.7073 637.323 Q59.7073 630.321 54.4874 626.247 Q49.2675 622.141 40.2919 622.141 Q31.2844 622.141 26.0645 626.247 Q20.8447 630.321 20.8447 637.323 M15.6248 637.323 Q15.6248 627.329 22.3406 621.345 Q29.0246 615.362 40.2919 615.362 Q51.5274 615.362 58.2432 621.345 Q64.9272 627.329 64.9272 637.323 Q64.9272 647.349 58.2432 653.365 Q51.5592 659.349 40.2919 659.349 Q29.0246 659.349 22.3406 653.365 Q15.6248 647.349 15.6248 637.323 Z" fill="#000000" fill-rule="evenodd" fill-opacity="1" /><path clip-path="url(#clip640)" d="M18.0438 576.817 L24.314 576.817 Q22.5634 580.478 21.704 583.724 Q20.8447 586.971 20.8447 589.994 Q20.8447 595.246 22.8817 598.111 Q24.9187 600.943 28.6745 600.943 Q31.8255 600.943 33.4488 599.065 Q35.0402 597.156 36.0269 591.872 L36.8226 587.989 Q38.1912 580.796 41.6605 577.39 Q45.098 573.953 50.8908 573.953 Q57.7976 573.953 61.3624 578.6 Q64.9272 583.215 64.9272 592.159 Q64.9272 595.532 64.1633 599.352 Q63.3994 603.139 61.9035 607.214 L55.2831 607.214 Q57.4793 603.299 58.5933 599.543 Q59.7073 595.787 59.7073 592.159 Q59.7073 586.652 57.543 583.66 Q55.3786 580.669 51.3682 580.669 Q47.8671 580.669 45.8937 582.833 Q43.9204 584.965 42.9337 589.867 L42.1698 593.782 Q40.7375 600.975 37.682 604.19 Q34.6264 607.404 29.1837 607.404 Q22.8817 607.404 19.2532 602.98 Q15.6248 598.524 15.6248 590.726 Q15.6248 587.384 16.2295 583.915 Q16.8343 580.446 18.0438 576.817 Z" fill="#000000" fill-rule="evenodd" fill-opacity="1" /><polyline clip-path="url(#clip642)" style="stroke:#009af9; stroke-linecap:butt; stroke-linejoin:round; stroke-width:4; stroke-opacity:1; fill:none" points="
  280.231,1123.56 282.245,1205.01 284.259,1232.25 286.274,1231.36 288.288,1204.28 290.302,1133.06 292.316,967.84 294.33,654.259 296.344,250.744 298.359,366.339 
  300.373,850.836 302.387,1071 304.401,1145.17 306.415,1145.09 308.43,1062.34 310.444,824.266 312.458,661.682 314.472,935.224 316.486,1103.06 318.5,1144.43 
  320.515,1107 322.529,961.424 324.543,736.854 326.557,591.716 328.571,317.803 330.585,514.041 332.6,832.135 334.614,913.3 336.628,775.348 338.642,714.763 
  340.656,911.364 342.67,1087.31 344.685,1135.3 346.699,1097.43 348.713,1066.66 350.727,1000.24 352.741,812.109 354.756,805.119 356.77,949.194 358.784,869.946 
  360.798,786.451 362.812,937.411 364.826,900.899 366.841,806.149 368.855,958.802 370.869,1103.64 372.883,1165.37 374.897,1157.3 376.911,1069.56 378.926,834.909 
  380.94,698.302 382.954,852.919 384.968,754.649 386.982,604.748 388.996,838.31 391.011,957.409 393.025,836.666 395.039,641.94 397.053,824.365 399.067,946.973 
  401.082,844.198 403.096,702.814 405.11,945.862 407.124,1096.49 409.138,1116.83 411.152,1028.51 413.167,812.554 415.181,768.639 417.195,938.222 419.209,894.498 
  421.223,837.436 423.237,971.938 425.252,951.843 427.266,779.218 429.28,892.959 431.294,1018.69 433.308,1092.94 435.322,1105.91 437.337,1064.5 439.351,901.512 
  441.365,843.263 443.379,888.7 445.393,856.348 447.408,954.954 449.422,919.775 451.436,726.317 453.45,347.298 455.464,458.189 457.478,721.562 459.493,954.477 
  461.507,1103.35 463.521,1145.42 465.535,1113.58 467.549,968.553 469.563,700.344 471.578,736.353 473.592,976.1 475.606,1091.01 477.62,1084.09 479.634,954.39 
  481.648,587.597 483.663,171.491 485.677,525.839 487.691,927.409 489.705,1070.85 491.719,1144.98 493.734,1197.39 495.748,1202.41 497.762,1156.38 499.776,1009.12 
  501.79,778.965 503.804,939.63 505.819,1118.42 507.833,1169.87 509.847,1146.42 511.861,1061.87 513.875,983.297 515.889,748.086 517.904,300.716 519.918,402.154 
  521.932,752.471 523.946,965.793 525.96,957.905 527.974,903.839 529.989,1043.55 532.003,1101.06 534.017,1046.75 536.031,932.315 538.045,993.973 540.06,977.569 
  542.074,803.424 544.088,537.674 546.102,257.11 548.116,495.427 550.13,861.12 552.145,1028.34 554.159,1061.53 556.173,1081.54 558.187,1162.95 560.201,1194.94 
  562.215,1183.42 564.23,1123.58 566.244,967.674 568.258,577.594 570.272,86.1857 572.286,207.56 574.301,701.107 576.315,1014.18 578.329,1132.68 580.343,1159.61 
  582.357,1108.08 584.371,1002.47 586.386,1078.59 588.4,1136.24 590.414,1126.39 592.428,1146.85 594.442,1204.58 596.456,1211.87 598.471,1172.35 600.485,1055.89 
  602.499,925.599 604.513,890.251 606.527,643.527 608.541,273.819 610.556,402.739 612.57,794.229 614.584,930.646 616.598,905.188 618.612,925.494 620.627,791.063 
  622.641,756.266 624.655,976.391 626.669,1027.6 628.683,913.709 630.697,918.617 632.712,1011.11 634.726,916.295 636.74,684.357 638.754,685.359 640.768,898.45 
  642.782,1065.25 644.797,1106.37 646.811,1067.68 648.825,935.023 650.839,910.77 652.853,884.174 654.867,981.567 656.882,1000.61 658.896,809.758 660.91,583.652 
  662.924,687.308 664.938,707.309 666.953,887.64 668.967,1082.74 670.981,1147.74 672.995,1202.25 675.009,1243.19 677.023,1254.56 679.038,1245.77 681.052,1214.62 
  683.066,1141.82 685.08,967.033 687.094,692.906 689.108,585.158 691.123,552.099 693.137,681.107 695.151,721.942 697.165,558.313 699.179,481.786 701.193,770.49 
  703.208,1034.3 705.222,1130.62 707.236,1163.25 709.25,1124.59 711.264,971.371 713.279,898.292 715.293,1083.21 717.307,1167.45 719.321,1164.49 721.335,1139.58 
  723.349,1082.01 725.364,919.23 727.378,650.255 729.392,814.448 731.406,1021.77 733.42,1060.94 735.434,956.198 737.449,623.004 739.463,276.442 741.477,619.213 
  743.491,775.336 745.505,903.356 747.519,1093.69 749.534,1172.79 751.548,1185.26 753.562,1147.63 755.576,1016.38 757.59,784.909 759.605,690.454 761.619,832.935 
  763.633,1024.36 765.647,1030.48 767.661,903.487 769.675,1005.04 771.69,1152.06 773.704,1193.32 775.718,1158.05 777.732,1059.65 779.746,1098.92 781.76,1148.34 
  783.775,1111.65 785.789,1044.28 787.803,848.666 789.817,766.009 791.831,939.633 793.845,936.789 795.86,851.543 797.874,851.464 799.888,927.963 801.902,977.774 
  803.916,1059.4 805.931,1018.3 807.945,824.654 809.959,811.202 811.973,841.667 813.987,547.606 816.001,172.96 818.016,534.599 820.03,960.205 822.044,1140.38 
  824.058,1217.44 826.072,1252.9 828.086,1267.1 830.101,1265.4 832.115,1242.22 834.129,1174.99 836.143,1075.77 838.157,1081.61 840.171,994.272 842.186,826.658 
  844.2,915.619 846.214,1038.55 848.228,1011.58 850.242,813.316 852.257,827.735 854.271,938.346 856.285,892.756 858.299,999.175 860.313,1118.2 862.327,1166.52 
  864.342,1167.97 866.356,1085.87 868.37,852.063 870.384,769.448 872.398,1023.72 874.412,1127.31 876.427,1098.82 878.441,941.523 880.455,904.546 882.469,1079.44 
  884.483,1195.96 886.498,1236.61 888.512,1236.22 890.526,1206.54 892.54,1130.55 894.554,953.161 896.568,673.04 898.583,358.578 900.597,536.857 902.611,957.111 
  904.625,1155.24 906.639,1239.19 908.653,1279.6 910.668,1300.97 912.682,1312.55 914.696,1318.15 916.71,1319.29 918.724,1316.18 920.738,1307.77 922.753,1291 
  924.767,1258.2 926.781,1188.57 928.795,1023.44 930.809,725.074 932.824,702.954 934.838,743.816 936.852,698.972 938.866,974.914 940.88,1160.98 942.894,1235.8 
  944.909,1264.47 946.923,1268.88 948.937,1250.72 950.951,1193.21 952.965,1038.61 954.979,760.236 956.994,883.555 959.008,1122.5 961.022,1213.42 963.036,1228.7 
  965.05,1219.86 967.064,1227.55 969.079,1207.74 971.093,1213.66 973.107,1189.64 975.121,1088.38 977.135,828.929 979.15,484.383 981.164,373.58 983.178,624.782 
  985.192,967.813 987.206,1159.87 989.22,1243.04 991.235,1283.23 993.249,1304.76 995.263,1316.85 997.277,1323.37 999.291,1326.05 1001.31,1325.48 1003.32,1321.54 
  1005.33,1313.21 1007.35,1298.09 1009.36,1270.64 1011.38,1217.1 1013.39,1099.32 1015.4,824.517 1017.42,459.19 1019.43,536.214 1021.45,719.506 1023.46,941.384 
  1025.48,1135.86 1027.49,1213.52 1029.5,1233.14 1031.52,1206.1 1033.53,1099.59 1035.55,981.606 1037.56,1117.58 1039.57,1211.41 1041.59,1235.13 1043.6,1206.82 
  1045.62,1127.95 1047.63,1008.59 1049.65,941.875 1051.66,1092.19 1053.67,1138.66 1055.69,1059.39 1057.7,793.708 1059.72,591.496 1061.73,868.872 1063.74,1065.25 
  1065.76,1191.57 1067.77,1243.59 1069.79,1255.23 1071.8,1233.31 1073.82,1154.7 1075.83,1050.27 1077.84,1047.59 1079.86,1071.82 1081.87,1116.16 1083.89,1081.25 
  1085.9,940.21 1087.91,739.761 1089.93,906.188 1091.94,1041.9 1093.96,1075.53 1095.97,1140.09 1097.99,1138.71 1100,1069.54 1102.01,867.44 1104.03,812.08 
  1106.04,969.067 1108.06,1073.83 1110.07,1064.63 1112.09,1005.37 1114.1,986.477 1116.11,1063.62 1118.13,1164.31 1120.14,1165.65 1122.16,1124.25 1124.17,1121.08 
  1126.18,1221.38 1128.2,1279.23 1130.21,1299.49 1132.23,1301.66 1134.24,1288.5 1136.26,1249.24 1138.27,1150.36 1140.28,1035.87 1142.3,1070.43 1144.31,1047.62 
  1146.33,977.986 1148.34,1052.73 1150.35,1083.28 1152.37,1013.65 1154.38,1038.81 1156.4,1048.23 1158.41,998.168 1160.43,937.294 1162.44,928.9 1164.45,964.295 
  1166.47,1109.88 1168.48,1234.82 1170.5,1290.28 1172.51,1315.78 1174.52,1328.62 1176.54,1334.96 1178.55,1337.05 1180.57,1335.41 1182.58,1329.25 1184.6,1315.73 
  1186.61,1287.11 1188.62,1221.1 1190.64,1067.26 1192.65,937.149 1194.67,953.823 1196.68,1024.02 1198.69,1182.31 1200.71,1255.82 1202.72,1270.34 1204.74,1236.82 
  1206.75,1170.63 1208.77,1177.46 1210.78,1257.61 1212.79,1295.59 1214.81,1296.97 1216.82,1261.99 1218.84,1172.32 1220.85,1175.24 1222.86,1262.21 1224.88,1291.82 
  1226.89,1278.4 1228.91,1210.79 1230.92,1154.38 1232.94,1241.32 1234.95,1289.24 1236.96,1289.09 1238.98,1240.06 1240.99,1161.75 1243.01,1231.17 1245.02,1300.23 
  1247.03,1326.02 1249.05,1332.63 1251.06,1326.54 1253.08,1301.78 1255.09,1233.02 1257.11,1125.11 1259.12,1199.88 1261.13,1290.23 1263.15,1326.04 1265.16,1339.28 
  1267.18,1341.82 1269.19,1335.23 1271.2,1312.98 1273.22,1252.47 1275.23,1163.6 1277.25,1232.56 1279.26,1306.83 1281.28,1336.51 1283.29,1348.38 1285.3,1352.68 
  1287.32,1352.35 1289.33,1347.25 1291.35,1334.02 1293.36,1301.37 1295.37,1219.86 1297.39,1144.27 1299.4,1242.03 1301.42,1308.8 1303.43,1333.8 1305.45,1341.97 
  1307.46,1340.86 1309.47,1329.7 1311.49,1298.16 1313.5,1217.91 1315.52,1151.33 1317.53,1247.03 1319.54,1307.66 1321.56,1328.72 1323.57,1332.4 1325.59,1323.05 
  1327.6,1292.22 1329.62,1211.54 1331.63,1130.8 1333.64,1222.29 1335.66,1280.29 1337.67,1282.68 1339.69,1232.3 1341.7,1139.61 1343.72,1201.12 1345.73,1274.96 
  1347.74,1291.36 1349.76,1263.8 1351.77,1179.24 1353.79,1177.17 1355.8,1266.29 1357.81,1302.06 1359.83,1303.32 1361.84,1272.14 1363.86,1204.83 1365.87,1199.56 
  1367.89,1251.84 1369.9,1273.22 1371.91,1247.55 1373.93,1152.85 1375.94,955.646 1377.96,918.337 1379.97,983.581 1381.98,1111.11 1384,1241.82 1386.01,1298.78 
  1388.03,1324.22 1390.04,1336.67 1392.06,1342.7 1394.07,1344.76 1396.08,1343.62 1398.1,1338.94 1400.11,1329.08 1402.13,1309.64 1404.14,1268.63 1406.15,1175.62 
  1408.17,1017.19 1410.18,878.971 1412.2,944.706 1414.21,1085.56 1416.23,1162.49 1418.24,1186.08 1420.25,1144.44 1422.27,1119.92 1424.28,1160.71 1426.3,1200.37 
  1428.31,1177.53 1430.32,1134.98 1432.34,1198.03 1434.35,1274.92 1436.37,1317.85 1438.38,1336.11 1440.4,1343.91 1442.41,1346.04 1444.42,1343.13 1446.44,1332.55 
  1448.45,1312.46 1450.47,1303.48 1452.48,1282.46 1454.49,1219.45 1456.51,1074.34 1458.52,1025.7 1460.54,1111.39 1462.55,1196.82 1464.57,1216.26 1466.58,1225.57 
  1468.59,1213.12 1470.61,1261.55 1472.62,1291.92 1474.64,1300.82 1476.65,1281.58 1478.66,1233.43 1480.68,1218.93 1482.69,1221.09 1484.71,1184 1486.72,1243.55 
  1488.74,1278.39 1490.75,1281.42 1492.76,1246.89 1494.78,1207.04 1496.79,1208.21 1498.81,1270.99 1500.82,1319.61 1502.83,1337.82 1504.85,1341.7 1506.86,1334.33 
  1508.88,1309.4 1510.89,1258.24 1512.91,1179.33 1514.92,1230.84 1516.93,1305.09 1518.95,1332.72 1520.96,1335.27 1522.98,1321.59 1524.99,1330.55 1527,1344.22 
  1529.02,1355.95 1531.03,1360.71 1533.05,1358.79 1535.06,1353.43 1537.08,1343.86 1539.09,1354.96 1541.1,1364.52 1543.12,1366.8 1545.13,1364.37 1547.15,1355.32 
  1549.16,1332.47 1551.17,1310.84 1553.19,1304.43 1555.2,1306.41 1557.22,1334.47 1559.23,1357.68 1561.25,1368.2 1563.26,1373.04 1565.27,1375.58 1567.29,1377.01 
  1569.3,1377.84 1571.32,1378.27 1573.33,1378.4 1575.35,1378.24 1577.36,1377.75 1579.37,1376.78 1581.39,1375.02 1583.4,1371.77 1585.42,1365.24 1587.43,1350.47 
  1589.44,1317.89 1591.46,1278.31 1593.47,1297.02 1595.49,1334.85 1597.5,1358.2 1599.52,1367.64 1601.53,1370.78 1603.54,1371.43 1605.56,1373.28 1607.57,1373.15 
  1609.59,1374.04 1611.6,1373.8 1613.61,1369.34 1615.63,1357.18 1617.64,1351.86 1619.66,1366.03 1621.67,1373.61 1623.69,1376.36 1625.7,1377.06 1627.71,1376.45 
  1629.73,1374.17 1631.74,1368.4 1633.76,1354.06 1635.77,1335.94 1637.78,1345.08 1639.8,1349.37 1641.81,1354.22 1643.83,1367.51 1645.84,1374.48 1647.86,1377.49 
  1649.87,1378.92 1651.88,1379.63 1653.9,1379.94 1655.91,1379.96 1657.93,1379.74 1659.94,1379.24 1661.95,1378.33 1663.97,1376.77 1665.98,1373.94 1668,1368.29 
  1670.01,1355.39 1672.03,1326.73 1674.04,1303.49 1676.05,1319.1 1678.07,1344.09 1680.08,1361.64 1682.1,1368.86 1684.11,1372.14 1686.12,1373.46 1688.14,1372.44 
  1690.15,1368.02 1692.17,1362.76 1694.18,1364.28 1696.2,1368.64 1698.21,1368.58 1700.22,1363.93 1702.24,1354.01 1704.25,1351.68 1706.27,1349.88 1708.28,1336.23 
  1710.29,1305.1 1712.31,1237.86 1714.32,1195.84 1716.34,1154.34 1718.35,1188.14 1720.37,1211.99 1722.38,1201.72 1724.39,1272.37 1726.41,1314.75 1728.42,1335.64 
  1730.44,1341.27 1732.45,1347.31 1734.46,1342.56 1736.48,1337.58 1738.49,1355.43 1740.51,1366.26 1742.52,1370.64 1744.54,1372.25 1746.55,1372.25 1748.56,1370.66 
  1750.58,1366.5 1752.59,1356.52 1754.61,1333.06 1756.62,1311.13 1758.63,1320.94 1760.65,1321.75 1762.66,1286.03 1764.68,1282.18 1766.69,1325.21 1768.71,1338.14 
  1770.72,1337.65 1772.73,1336.14 1774.75,1346.82 1776.76,1354.15 1778.78,1364.46 1780.79,1368.81 1782.81,1367.29 1784.82,1368.78 1786.83,1369.95 1788.85,1368.91 
  1790.86,1373.05 1792.88,1374.09 1794.89,1373.41 1796.9,1376.49 1798.92,1378.31 1800.93,1378.4 1802.95,1376.94 1804.96,1375.16 1806.98,1374.75 1808.99,1371.82 
  1811,1362.75 1813.02,1349.5 1815.03,1344.04 1817.05,1357.85 1819.06,1369.34 1821.07,1373.23 1823.09,1373.46 1825.1,1370.71 1827.12,1363.52 1829.13,1350.84 
  1831.15,1320.64 1833.16,1289.68 1835.17,1321.92 1837.19,1353.83 1839.2,1366.67 1841.22,1370.79 1843.23,1369.22 1845.24,1366.87 1847.26,1372.96 1849.27,1376.88 
  1851.29,1378.75 1853.3,1379.47 1855.32,1378.83 1857.33,1376.07 1859.34,1371.74 1861.36,1372.42 1863.37,1377.09 1865.39,1378.73 1867.4,1379.03 1869.41,1377.95 
  1871.43,1374.36 1873.44,1371.48 1875.46,1370.63 1877.47,1368.71 1879.49,1362.64 1881.5,1352.97 1883.51,1356.86 1885.53,1366.85 1887.54,1374.73 1889.56,1378.61 
  1891.57,1380.28 1893.58,1380.97 1895.6,1381.11 1897.61,1380.75 1899.63,1379.75 1901.64,1378.02 1903.66,1374.83 1905.67,1369.15 1907.68,1358.56 1909.7,1350.32 
  1911.71,1340.61 1913.73,1354.46 1915.74,1367.89 1917.75,1372.47 1919.77,1373.49 1921.78,1369.96 1923.8,1369.86 1925.81,1375.07 1927.83,1377.73 1929.84,1378.02 
  1931.85,1375.62 1933.87,1371.69 1935.88,1372.99 1937.9,1376.62 1939.91,1377.33 1941.92,1375.61 1943.94,1374.87 1945.95,1376.4 1947.97,1374 1949.98,1366.52 
  1952,1367.02 1954.01,1370.79 1956.02,1370.12 1958.04,1374.31 1960.05,1375.32 1962.07,1372.96 1964.08,1371.73 1966.09,1375.89 1968.11,1378.91 1970.12,1379.62 
  1972.14,1380.99 1974.15,1381.95 1976.17,1382.01 1978.18,1381.12 1980.19,1378.88 1982.21,1378.78 1984.22,1380.16 1986.24,1379.93 1988.25,1378.98 1990.26,1380 
  1992.28,1380.05 1994.29,1378.52 1996.31,1374.44 1998.32,1364.37 2000.34,1348.6 2002.35,1344.33 2004.36,1359.62 2006.38,1372.53 2008.39,1377.81 2010.41,1379.99 
  2012.42,1380.73 2014.44,1380.3 2016.45,1378.89 2018.46,1378.85 2020.48,1379.09 2022.49,1377.06 2024.51,1371.66 2026.52,1368.73 2028.53,1373.89 2030.55,1377.59 
  2032.56,1379.24 2034.58,1378.03 2036.59,1375.79 2038.61,1378.52 2040.62,1380.74 2042.63,1380.85 2044.65,1379.79 2046.66,1379.99 2048.68,1378.97 2050.69,1374.68 
  2052.7,1371.72 2054.72,1373.74 2056.73,1378.41 2058.75,1380.38 2060.76,1380.94 2062.78,1381.9 2064.79,1382.02 2066.8,1381 2068.82,1377.86 2070.83,1375 
  2072.85,1378.83 2074.86,1381.28 2076.87,1381.95 2078.89,1381.68 2080.9,1380.45 2082.92,1378.53 2084.93,1374.52 2086.95,1363.89 2088.96,1354.92 2090.97,1366.25 
  2092.99,1375.74 2095,1379.48 2097.02,1380.67 2099.03,1380.2 2101.04,1378.03 2103.06,1377.09 2105.07,1380.15 2107.09,1381.91 2109.1,1382.33 2111.12,1381.84 
  2113.13,1380.05 2115.14,1377.92 2117.16,1376.01 2119.17,1375.21 2121.19,1378.19 2123.2,1380.37 2125.21,1380.6 2127.23,1379.75 2129.24,1378.85 2131.26,1375.82 
  2133.27,1376.26 2135.29,1379.71 2137.3,1381.32 2139.31,1381.67 2141.33,1381.71 2143.34,1381 2145.36,1380.25 2147.37,1380.88 2149.38,1379.72 2151.4,1376.47 
  2153.41,1377.69 2155.43,1379.2 2157.44,1377.48 2159.46,1378.21 2161.47,1380.82 2163.48,1381.53 2165.5,1380.72 2167.51,1377.57 2169.53,1372.64 2171.54,1375.6 
  2173.55,1377.97 2175.57,1376.05 2177.58,1373.33 2179.6,1377.09 2181.61,1380.05 2183.63,1380.01 2185.64,1378.68 2187.65,1380.1 2189.67,1381.25 2191.68,1380.73 
  2193.7,1381.62 2195.71,1382.97 2197.72,1383.42 2199.74,1383.31 2201.75,1382.52 2203.77,1380.94 2205.78,1379.51 2207.8,1380.56 2209.81,1381.23 2211.82,1380.08 
  2213.84,1380.33 2215.85,1380.05 2217.87,1376.89 2219.88,1376.68 2221.9,1380.02 2223.91,1381.2 2225.92,1382.2 2227.94,1382.77 2229.95,1382.52 2231.97,1381.14 
  2233.98,1378.86 2235.99,1378.25 2238.01,1379.73 2240.02,1378.75 2242.04,1374.1 2244.05,1372.03 2246.07,1376.14 2248.08,1378.73 2250.09,1381 2252.11,1382.43 
  2254.12,1382.77 2256.14,1382.23 2258.15,1380.18 2260.16,1376.73 2262.18,1378.66 2264.19,1381.8 2266.21,1383.06 2268.22,1383.39 2270.24,1383.12 2272.25,1381.89 
  2274.26,1379.07 2276.28,1378.71 2278.29,1381.09 2280.31,1382.77 2282.32,1383.71 2284.33,1384.11 2286.35,1384.24 2288.36,1384.18 2290.38,1383.92 2292.39,1383.21 
  
  "/>
<path clip-path="url(#clip640)" d="
M1992.24 196.789 L2281.66 196.789 L2281.66 93.1086 L1992.24 93.1086  Z
  " fill="#ffffff" fill-rule="evenodd" fill-opacity="1"/>
<polyline clip-path="url(#clip640)" style="stroke:#000000; stroke-linecap:butt; stroke-linejoin:round; stroke-width:4; stroke-opacity:1; fill:none" points="
  1992.24,196.789 2281.66,196.789 2281.66,93.1086 1992.24,93.1086 1992.24,196.789 
  "/>
<polyline clip-path="url(#clip640)" style="stroke:#009af9; stroke-linecap:butt; stroke-linejoin:round; stroke-width:4; stroke-opacity:1; fill:none" points="
  2015.94,144.949 2158.13,144.949 
  "/>
<path clip-path="url(#clip640)" d="M2195.67 164.636 Q2193.87 169.266 2192.16 170.678 Q2190.44 172.09 2187.57 172.09 L2184.17 172.09 L2184.17 168.525 L2186.67 168.525 Q2188.43 168.525 2189.4 167.692 Q2190.37 166.858 2191.55 163.756 L2192.32 161.812 L2181.83 136.303 L2186.35 136.303 L2194.45 156.581 L2202.55 136.303 L2207.06 136.303 L2195.67 164.636 Z" fill="#000000" fill-rule="evenodd" fill-opacity="1" /><path clip-path="url(#clip640)" d="M2214.35 158.293 L2221.99 158.293 L2221.99 131.928 L2213.68 133.595 L2213.68 129.335 L2221.95 127.669 L2226.62 127.669 L2226.62 158.293 L2234.26 158.293 L2234.26 162.229 L2214.35 162.229 L2214.35 158.293 Z" fill="#000000" fill-rule="evenodd" fill-opacity="1" /></svg>
