<?xml version="1.0" encoding="utf-8"?>
<svg xmlns="http://www.w3.org/2000/svg" xmlns:xlink="http://www.w3.org/1999/xlink" width="600" height="400" viewBox="0 0 2400 1600">
<defs>
  <clipPath id="clip170">
    <rect x="0" y="0" width="2400" height="1600"/>
  </clipPath>
</defs>
<path clip-path="url(#clip170)" d="
M0 1600 L2400 1600 L2400 0 L0 0  Z
  " fill="#ffffff" fill-rule="evenodd" fill-opacity="1"/>
<defs>
  <clipPath id="clip171">
    <rect x="480" y="0" width="1681" height="1600"/>
  </clipPath>
</defs>
<path clip-path="url(#clip170)" d="
M219.866 1423.18 L2352.76 1423.18 L2352.76 47.2441 L219.866 47.2441  Z
  " fill="#ffffff" fill-rule="evenodd" fill-opacity="1"/>
<defs>
  <clipPath id="clip172">
    <rect x="219" y="47" width="2134" height="1377"/>
  </clipPath>
</defs>
<polyline clip-path="url(#clip172)" style="stroke:#000000; stroke-linecap:butt; stroke-linejoin:round; stroke-width:2; stroke-opacity:0.1; fill:none" points="
  280.231,1423.18 280.231,47.2441 
  "/>
<polyline clip-path="url(#clip172)" style="stroke:#000000; stroke-linecap:butt; stroke-linejoin:round; stroke-width:2; stroke-opacity:0.1; fill:none" points="
  783.271,1423.18 783.271,47.2441 
  "/>
<polyline clip-path="url(#clip172)" style="stroke:#000000; stroke-linecap:butt; stroke-linejoin:round; stroke-width:2; stroke-opacity:0.1; fill:none" points="
  1286.31,1423.18 1286.31,47.2441 
  "/>
<polyline clip-path="url(#clip172)" style="stroke:#000000; stroke-linecap:butt; stroke-linejoin:round; stroke-width:2; stroke-opacity:0.1; fill:none" points="
  1789.35,1423.18 1789.35,47.2441 
  "/>
<polyline clip-path="url(#clip172)" style="stroke:#000000; stroke-linecap:butt; stroke-linejoin:round; stroke-width:2; stroke-opacity:0.1; fill:none" points="
  2292.39,1423.18 2292.39,47.2441 
  "/>
<polyline clip-path="url(#clip170)" style="stroke:#000000; stroke-linecap:butt; stroke-linejoin:round; stroke-width:4; stroke-opacity:1; fill:none" points="
  219.866,1423.18 2352.76,1423.18 
  "/>
<polyline clip-path="url(#clip170)" style="stroke:#000000; stroke-linecap:butt; stroke-linejoin:round; stroke-width:4; stroke-opacity:1; fill:none" points="
  280.231,1423.18 280.231,1404.28 
  "/>
<polyline clip-path="url(#clip170)" style="stroke:#000000; stroke-linecap:butt; stroke-linejoin:round; stroke-width:4; stroke-opacity:1; fill:none" points="
  783.271,1423.18 783.271,1404.28 
  "/>
<polyline clip-path="url(#clip170)" style="stroke:#000000; stroke-linecap:butt; stroke-linejoin:round; stroke-width:4; stroke-opacity:1; fill:none" points="
  1286.31,1423.18 1286.31,1404.28 
  "/>
<polyline clip-path="url(#clip170)" style="stroke:#000000; stroke-linecap:butt; stroke-linejoin:round; stroke-width:4; stroke-opacity:1; fill:none" points="
  1789.35,1423.18 1789.35,1404.28 
  "/>
<polyline clip-path="url(#clip170)" style="stroke:#000000; stroke-linecap:butt; stroke-linejoin:round; stroke-width:4; stroke-opacity:1; fill:none" points="
  2292.39,1423.18 2292.39,1404.28 
  "/>
<path clip-path="url(#clip170)" d="M249.132 1468.75 L278.807 1468.75 L278.807 1472.69 L249.132 1472.69 L249.132 1468.75 Z" fill="#000000" fill-rule="evenodd" fill-opacity="1" /><path clip-path="url(#clip170)" d="M301.747 1455.09 L289.942 1473.54 L301.747 1473.54 L301.747 1455.09 M300.52 1451.02 L306.4 1451.02 L306.4 1473.54 L311.33 1473.54 L311.33 1477.43 L306.4 1477.43 L306.4 1485.58 L301.747 1485.58 L301.747 1477.43 L286.145 1477.43 L286.145 1472.92 L300.52 1451.02 Z" fill="#000000" fill-rule="evenodd" fill-opacity="1" /><path clip-path="url(#clip170)" d="M753.213 1468.75 L782.889 1468.75 L782.889 1472.69 L753.213 1472.69 L753.213 1468.75 Z" fill="#000000" fill-rule="evenodd" fill-opacity="1" /><path clip-path="url(#clip170)" d="M797.009 1481.64 L813.329 1481.64 L813.329 1485.58 L791.384 1485.58 L791.384 1481.64 Q794.046 1478.89 798.63 1474.26 Q803.236 1469.61 804.417 1468.27 Q806.662 1465.74 807.542 1464.01 Q808.445 1462.25 808.445 1460.56 Q808.445 1457.8 806.5 1456.07 Q804.579 1454.33 801.477 1454.33 Q799.278 1454.33 796.824 1455.09 Q794.394 1455.86 791.616 1457.41 L791.616 1452.69 Q794.44 1451.55 796.894 1450.97 Q799.347 1450.39 801.384 1450.39 Q806.755 1450.39 809.949 1453.08 Q813.144 1455.77 813.144 1460.26 Q813.144 1462.39 812.333 1464.31 Q811.546 1466.2 809.44 1468.8 Q808.861 1469.47 805.759 1472.69 Q802.658 1475.88 797.009 1481.64 Z" fill="#000000" fill-rule="evenodd" fill-opacity="1" /><path clip-path="url(#clip170)" d="M1286.31 1454.1 Q1282.7 1454.1 1280.87 1457.66 Q1279.07 1461.2 1279.07 1468.33 Q1279.07 1475.44 1280.87 1479.01 Q1282.7 1482.55 1286.31 1482.55 Q1289.95 1482.55 1291.75 1479.01 Q1293.58 1475.44 1293.58 1468.33 Q1293.58 1461.2 1291.75 1457.66 Q1289.95 1454.1 1286.31 1454.1 M1286.31 1450.39 Q1292.12 1450.39 1295.18 1455 Q1298.26 1459.58 1298.26 1468.33 Q1298.26 1477.06 1295.18 1481.67 Q1292.12 1486.25 1286.31 1486.25 Q1280.5 1486.25 1277.42 1481.67 Q1274.37 1477.06 1274.37 1468.33 Q1274.37 1459.58 1277.42 1455 Q1280.5 1450.39 1286.31 1450.39 Z" fill="#000000" fill-rule="evenodd" fill-opacity="1" /><path clip-path="url(#clip170)" d="M1784 1481.64 L1800.32 1481.64 L1800.32 1485.58 L1778.38 1485.58 L1778.38 1481.64 Q1781.04 1478.89 1785.62 1474.26 Q1790.23 1469.61 1791.41 1468.27 Q1793.66 1465.74 1794.54 1464.01 Q1795.44 1462.25 1795.44 1460.56 Q1795.44 1457.8 1793.49 1456.07 Q1791.57 1454.33 1788.47 1454.33 Q1786.27 1454.33 1783.82 1455.09 Q1781.39 1455.86 1778.61 1457.41 L1778.61 1452.69 Q1781.43 1451.55 1783.89 1450.97 Q1786.34 1450.39 1788.38 1450.39 Q1793.75 1450.39 1796.94 1453.08 Q1800.14 1455.77 1800.14 1460.26 Q1800.14 1462.39 1799.33 1464.31 Q1798.54 1466.2 1796.43 1468.8 Q1795.86 1469.47 1792.75 1472.69 Q1789.65 1475.88 1784 1481.64 Z" fill="#000000" fill-rule="evenodd" fill-opacity="1" /><path clip-path="url(#clip170)" d="M2295.4 1455.09 L2283.59 1473.54 L2295.4 1473.54 L2295.4 1455.09 M2294.17 1451.02 L2300.05 1451.02 L2300.05 1473.54 L2304.98 1473.54 L2304.98 1477.43 L2300.05 1477.43 L2300.05 1485.58 L2295.4 1485.58 L2295.4 1477.43 L2279.8 1477.43 L2279.8 1472.92 L2294.17 1451.02 Z" fill="#000000" fill-rule="evenodd" fill-opacity="1" /><path clip-path="url(#clip170)" d="M1129.64 1520.52 L1159.68 1520.52 L1159.68 1525.93 L1136.06 1525.93 L1136.06 1540 L1158.69 1540 L1158.69 1545.41 L1136.06 1545.41 L1136.06 1562.63 L1160.25 1562.63 L1160.25 1568.04 L1129.64 1568.04 L1129.64 1520.52 Z" fill="#000000" fill-rule="evenodd" fill-opacity="1" /><path clip-path="url(#clip170)" d="M1200.2 1546.53 L1200.2 1568.04 L1194.34 1568.04 L1194.34 1546.72 Q1194.34 1541.66 1192.37 1539.14 Q1190.4 1536.63 1186.45 1536.63 Q1181.71 1536.63 1178.97 1539.65 Q1176.23 1542.68 1176.23 1547.9 L1176.23 1568.04 L1170.34 1568.04 L1170.34 1532.4 L1176.23 1532.4 L1176.23 1537.93 Q1178.33 1534.72 1181.17 1533.13 Q1184.03 1531.54 1187.75 1531.54 Q1193.9 1531.54 1197.05 1535.36 Q1200.2 1539.14 1200.2 1546.53 Z" fill="#000000" fill-rule="evenodd" fill-opacity="1" /><path clip-path="url(#clip170)" d="M1242.37 1548.76 L1242.37 1551.62 L1215.44 1551.62 Q1215.83 1557.67 1219.07 1560.85 Q1222.35 1564 1228.18 1564 Q1231.55 1564 1234.7 1563.17 Q1237.88 1562.35 1241 1560.69 L1241 1566.23 Q1237.85 1567.57 1234.54 1568.27 Q1231.23 1568.97 1227.83 1568.97 Q1219.3 1568.97 1214.3 1564 Q1209.33 1559.04 1209.33 1550.57 Q1209.33 1541.82 1214.04 1536.69 Q1218.79 1531.54 1226.81 1531.54 Q1234 1531.54 1238.17 1536.18 Q1242.37 1540.8 1242.37 1548.76 M1236.52 1547.04 Q1236.45 1542.23 1233.81 1539.37 Q1231.2 1536.5 1226.87 1536.5 Q1221.97 1536.5 1219.01 1539.27 Q1216.08 1542.04 1215.64 1547.07 L1236.52 1547.04 Z" fill="#000000" fill-rule="evenodd" fill-opacity="1" /><path clip-path="url(#clip170)" d="M1272.64 1537.87 Q1271.65 1537.3 1270.48 1537.04 Q1269.33 1536.76 1267.93 1536.76 Q1262.96 1536.76 1260.29 1540 Q1257.65 1543.22 1257.65 1549.27 L1257.65 1568.04 L1251.76 1568.04 L1251.76 1532.4 L1257.65 1532.4 L1257.65 1537.93 Q1259.5 1534.69 1262.46 1533.13 Q1265.42 1531.54 1269.65 1531.54 Q1270.25 1531.54 1270.99 1531.63 Q1271.72 1531.7 1272.61 1531.85 L1272.64 1537.87 Z" fill="#000000" fill-rule="evenodd" fill-opacity="1" /><path clip-path="url(#clip170)" d="M1301.1 1549.81 Q1301.1 1543.44 1298.45 1539.94 Q1295.84 1536.44 1291.1 1536.44 Q1286.39 1536.44 1283.75 1539.94 Q1281.14 1543.44 1281.14 1549.81 Q1281.14 1556.14 1283.75 1559.64 Q1286.39 1563.14 1291.1 1563.14 Q1295.84 1563.14 1298.45 1559.64 Q1301.1 1556.14 1301.1 1549.81 M1306.95 1563.62 Q1306.95 1572.72 1302.91 1577.15 Q1298.87 1581.6 1290.53 1581.6 Q1287.44 1581.6 1284.7 1581.13 Q1281.97 1580.68 1279.39 1579.72 L1279.39 1574.03 Q1281.97 1575.43 1284.48 1576.1 Q1287 1576.76 1289.61 1576.76 Q1295.37 1576.76 1298.23 1573.74 Q1301.1 1570.75 1301.1 1564.67 L1301.1 1561.77 Q1299.28 1564.92 1296.45 1566.48 Q1293.62 1568.04 1289.67 1568.04 Q1283.11 1568.04 1279.1 1563.05 Q1275.09 1558.05 1275.09 1549.81 Q1275.09 1541.53 1279.1 1536.53 Q1283.11 1531.54 1289.67 1531.54 Q1293.62 1531.54 1296.45 1533.1 Q1299.28 1534.66 1301.1 1537.81 L1301.1 1532.4 L1306.95 1532.4 L1306.95 1563.62 Z" fill="#000000" fill-rule="evenodd" fill-opacity="1" /><path clip-path="url(#clip170)" d="M1333.85 1571.35 Q1331.36 1577.72 1329.01 1579.66 Q1326.65 1581.6 1322.71 1581.6 L1318.03 1581.6 L1318.03 1576.7 L1321.47 1576.7 Q1323.88 1576.7 1325.22 1575.56 Q1326.56 1574.41 1328.18 1570.14 L1329.23 1567.47 L1314.81 1532.4 L1321.02 1532.4 L1332.16 1560.28 L1343.3 1532.4 L1349.51 1532.4 L1333.85 1571.35 Z" fill="#000000" fill-rule="evenodd" fill-opacity="1" /><path clip-path="url(#clip170)" d="M1377.77 1518.52 L1391.27 1518.52 L1391.27 1523.07 L1383.63 1523.07 L1383.63 1572.09 L1391.27 1572.09 L1391.27 1576.64 L1377.77 1576.64 L1377.77 1518.52 Z" fill="#000000" fill-rule="evenodd" fill-opacity="1" /><path clip-path="url(#clip170)" d="M1409.54 1522.27 L1409.54 1532.4 L1421.6 1532.4 L1421.6 1536.95 L1409.54 1536.95 L1409.54 1556.3 Q1409.54 1560.66 1410.71 1561.9 Q1411.92 1563.14 1415.58 1563.14 L1421.6 1563.14 L1421.6 1568.04 L1415.58 1568.04 Q1408.8 1568.04 1406.23 1565.53 Q1403.65 1562.98 1403.65 1556.3 L1403.65 1536.95 L1399.35 1536.95 L1399.35 1532.4 L1403.65 1532.4 L1403.65 1522.27 L1409.54 1522.27 Z" fill="#000000" fill-rule="evenodd" fill-opacity="1" /><path clip-path="url(#clip170)" d="M1442.99 1518.52 L1442.99 1576.64 L1429.49 1576.64 L1429.49 1572.09 L1437.1 1572.09 L1437.1 1523.07 L1429.49 1523.07 L1429.49 1518.52 L1442.99 1518.52 Z" fill="#000000" fill-rule="evenodd" fill-opacity="1" /><polyline clip-path="url(#clip172)" style="stroke:#000000; stroke-linecap:butt; stroke-linejoin:round; stroke-width:2; stroke-opacity:0.1; fill:none" points="
  219.866,1385.71 2352.76,1385.71 
  "/>
<polyline clip-path="url(#clip172)" style="stroke:#000000; stroke-linecap:butt; stroke-linejoin:round; stroke-width:2; stroke-opacity:0.1; fill:none" points="
  219.866,1080.68 2352.76,1080.68 
  "/>
<polyline clip-path="url(#clip172)" style="stroke:#000000; stroke-linecap:butt; stroke-linejoin:round; stroke-width:2; stroke-opacity:0.1; fill:none" points="
  219.866,775.648 2352.76,775.648 
  "/>
<polyline clip-path="url(#clip172)" style="stroke:#000000; stroke-linecap:butt; stroke-linejoin:round; stroke-width:2; stroke-opacity:0.1; fill:none" points="
  219.866,470.616 2352.76,470.616 
  "/>
<polyline clip-path="url(#clip172)" style="stroke:#000000; stroke-linecap:butt; stroke-linejoin:round; stroke-width:2; stroke-opacity:0.1; fill:none" points="
  219.866,165.583 2352.76,165.583 
  "/>
<polyline clip-path="url(#clip170)" style="stroke:#000000; stroke-linecap:butt; stroke-linejoin:round; stroke-width:4; stroke-opacity:1; fill:none" points="
  219.866,1423.18 219.866,47.2441 
  "/>
<polyline clip-path="url(#clip170)" style="stroke:#000000; stroke-linecap:butt; stroke-linejoin:round; stroke-width:4; stroke-opacity:1; fill:none" points="
  219.866,1385.71 238.764,1385.71 
  "/>
<polyline clip-path="url(#clip170)" style="stroke:#000000; stroke-linecap:butt; stroke-linejoin:round; stroke-width:4; stroke-opacity:1; fill:none" points="
  219.866,1080.68 238.764,1080.68 
  "/>
<polyline clip-path="url(#clip170)" style="stroke:#000000; stroke-linecap:butt; stroke-linejoin:round; stroke-width:4; stroke-opacity:1; fill:none" points="
  219.866,775.648 238.764,775.648 
  "/>
<polyline clip-path="url(#clip170)" style="stroke:#000000; stroke-linecap:butt; stroke-linejoin:round; stroke-width:4; stroke-opacity:1; fill:none" points="
  219.866,470.616 238.764,470.616 
  "/>
<polyline clip-path="url(#clip170)" style="stroke:#000000; stroke-linecap:butt; stroke-linejoin:round; stroke-width:4; stroke-opacity:1; fill:none" points="
  219.866,165.583 238.764,165.583 
  "/>
<path clip-path="url(#clip170)" d="M126.691 1371.51 Q123.08 1371.51 121.251 1375.08 Q119.445 1378.62 119.445 1385.75 Q119.445 1392.85 121.251 1396.42 Q123.08 1399.96 126.691 1399.96 Q130.325 1399.96 132.13 1396.42 Q133.959 1392.85 133.959 1385.75 Q133.959 1378.62 132.13 1375.08 Q130.325 1371.51 126.691 1371.51 M126.691 1367.81 Q132.501 1367.81 135.556 1372.41 Q138.635 1377 138.635 1385.75 Q138.635 1394.47 135.556 1399.08 Q132.501 1403.66 126.691 1403.66 Q120.88 1403.66 117.802 1399.08 Q114.746 1394.47 114.746 1385.75 Q114.746 1377 117.802 1372.41 Q120.88 1367.81 126.691 1367.81 Z" fill="#000000" fill-rule="evenodd" fill-opacity="1" /><path clip-path="url(#clip170)" d="M146.853 1397.11 L151.737 1397.11 L151.737 1402.99 L146.853 1402.99 L146.853 1397.11 Z" fill="#000000" fill-rule="evenodd" fill-opacity="1" /><path clip-path="url(#clip170)" d="M171.922 1371.51 Q168.311 1371.51 166.482 1375.08 Q164.677 1378.62 164.677 1385.75 Q164.677 1392.85 166.482 1396.42 Q168.311 1399.96 171.922 1399.96 Q175.556 1399.96 177.362 1396.42 Q179.19 1392.85 179.19 1385.75 Q179.19 1378.62 177.362 1375.08 Q175.556 1371.51 171.922 1371.51 M171.922 1367.81 Q177.732 1367.81 180.788 1372.41 Q183.866 1377 183.866 1385.75 Q183.866 1394.47 180.788 1399.08 Q177.732 1403.66 171.922 1403.66 Q166.112 1403.66 163.033 1399.08 Q159.978 1394.47 159.978 1385.75 Q159.978 1377 163.033 1372.41 Q166.112 1367.81 171.922 1367.81 Z" fill="#000000" fill-rule="evenodd" fill-opacity="1" /><path clip-path="url(#clip170)" d="M128.288 1066.48 Q124.677 1066.48 122.848 1070.04 Q121.043 1073.59 121.043 1080.72 Q121.043 1087.82 122.848 1091.39 Q124.677 1094.93 128.288 1094.93 Q131.922 1094.93 133.728 1091.39 Q135.556 1087.82 135.556 1080.72 Q135.556 1073.59 133.728 1070.04 Q131.922 1066.48 128.288 1066.48 M128.288 1062.78 Q134.098 1062.78 137.154 1067.38 Q140.232 1071.97 140.232 1080.72 Q140.232 1089.44 137.154 1094.05 Q134.098 1098.63 128.288 1098.63 Q122.478 1098.63 119.399 1094.05 Q116.343 1089.44 116.343 1080.72 Q116.343 1071.97 119.399 1067.38 Q122.478 1062.78 128.288 1062.78 Z" fill="#000000" fill-rule="evenodd" fill-opacity="1" /><path clip-path="url(#clip170)" d="M148.45 1092.08 L153.334 1092.08 L153.334 1097.96 L148.45 1097.96 L148.45 1092.08 Z" fill="#000000" fill-rule="evenodd" fill-opacity="1" /><path clip-path="url(#clip170)" d="M167.547 1094.03 L183.866 1094.03 L183.866 1097.96 L161.922 1097.96 L161.922 1094.03 Q164.584 1091.27 169.167 1086.64 Q173.774 1081.99 174.954 1080.65 Q177.2 1078.12 178.079 1076.39 Q178.982 1074.63 178.982 1072.94 Q178.982 1070.18 177.038 1068.45 Q175.116 1066.71 172.014 1066.71 Q169.815 1066.71 167.362 1067.47 Q164.931 1068.24 162.153 1069.79 L162.153 1065.07 Q164.977 1063.93 167.431 1063.35 Q169.885 1062.78 171.922 1062.78 Q177.292 1062.78 180.487 1065.46 Q183.681 1068.15 183.681 1072.64 Q183.681 1074.77 182.871 1076.69 Q182.084 1078.59 179.977 1081.18 Q179.399 1081.85 176.297 1085.07 Q173.195 1088.26 167.547 1094.03 Z" fill="#000000" fill-rule="evenodd" fill-opacity="1" /><path clip-path="url(#clip170)" d="M126.205 761.447 Q122.593 761.447 120.765 765.012 Q118.959 768.553 118.959 775.683 Q118.959 782.789 120.765 786.354 Q122.593 789.896 126.205 789.896 Q129.839 789.896 131.644 786.354 Q133.473 782.789 133.473 775.683 Q133.473 768.553 131.644 765.012 Q129.839 761.447 126.205 761.447 M126.205 757.743 Q132.015 757.743 135.07 762.35 Q138.149 766.933 138.149 775.683 Q138.149 784.41 135.07 789.016 Q132.015 793.6 126.205 793.6 Q120.394 793.6 117.316 789.016 Q114.26 784.41 114.26 775.683 Q114.26 766.933 117.316 762.35 Q120.394 757.743 126.205 757.743 Z" fill="#000000" fill-rule="evenodd" fill-opacity="1" /><path clip-path="url(#clip170)" d="M146.366 787.049 L151.251 787.049 L151.251 792.928 L146.366 792.928 L146.366 787.049 Z" fill="#000000" fill-rule="evenodd" fill-opacity="1" /><path clip-path="url(#clip170)" d="M174.283 762.442 L162.477 780.891 L174.283 780.891 L174.283 762.442 M173.056 758.368 L178.936 758.368 L178.936 780.891 L183.866 780.891 L183.866 784.78 L178.936 784.78 L178.936 792.928 L174.283 792.928 L174.283 784.78 L158.681 784.78 L158.681 780.266 L173.056 758.368 Z" fill="#000000" fill-rule="evenodd" fill-opacity="1" /><path clip-path="url(#clip170)" d="M126.529 456.414 Q122.918 456.414 121.089 459.979 Q119.283 463.521 119.283 470.65 Q119.283 477.757 121.089 481.322 Q122.918 484.863 126.529 484.863 Q130.163 484.863 131.968 481.322 Q133.797 477.757 133.797 470.65 Q133.797 463.521 131.968 459.979 Q130.163 456.414 126.529 456.414 M126.529 452.711 Q132.339 452.711 135.394 457.317 Q138.473 461.901 138.473 470.65 Q138.473 479.377 135.394 483.984 Q132.339 488.567 126.529 488.567 Q120.718 488.567 117.64 483.984 Q114.584 479.377 114.584 470.65 Q114.584 461.901 117.64 457.317 Q120.718 452.711 126.529 452.711 Z" fill="#000000" fill-rule="evenodd" fill-opacity="1" /><path clip-path="url(#clip170)" d="M146.691 482.016 L151.575 482.016 L151.575 487.896 L146.691 487.896 L146.691 482.016 Z" fill="#000000" fill-rule="evenodd" fill-opacity="1" /><path clip-path="url(#clip170)" d="M172.339 468.752 Q169.19 468.752 167.339 470.905 Q165.51 473.058 165.51 476.808 Q165.51 480.535 167.339 482.711 Q169.19 484.863 172.339 484.863 Q175.487 484.863 177.315 482.711 Q179.167 480.535 179.167 476.808 Q179.167 473.058 177.315 470.905 Q175.487 468.752 172.339 468.752 M181.621 454.1 L181.621 458.359 Q179.862 457.526 178.056 457.086 Q176.274 456.646 174.514 456.646 Q169.885 456.646 167.431 459.771 Q165.001 462.896 164.653 469.215 Q166.019 467.201 168.079 466.137 Q170.139 465.049 172.616 465.049 Q177.825 465.049 180.834 468.22 Q183.866 471.368 183.866 476.808 Q183.866 482.132 180.718 485.349 Q177.57 488.567 172.339 488.567 Q166.343 488.567 163.172 483.984 Q160.001 479.377 160.001 470.65 Q160.001 462.456 163.89 457.595 Q167.778 452.711 174.329 452.711 Q176.089 452.711 177.871 453.058 Q179.676 453.405 181.621 454.1 Z" fill="#000000" fill-rule="evenodd" fill-opacity="1" /><path clip-path="url(#clip170)" d="M126.783 151.382 Q123.172 151.382 121.343 154.947 Q119.538 158.488 119.538 165.618 Q119.538 172.724 121.343 176.289 Q123.172 179.831 126.783 179.831 Q130.417 179.831 132.223 176.289 Q134.052 172.724 134.052 165.618 Q134.052 158.488 132.223 154.947 Q130.417 151.382 126.783 151.382 M126.783 147.678 Q132.593 147.678 135.649 152.285 Q138.728 156.868 138.728 165.618 Q138.728 174.345 135.649 178.951 Q132.593 183.535 126.783 183.535 Q120.973 183.535 117.894 178.951 Q114.839 174.345 114.839 165.618 Q114.839 156.868 117.894 152.285 Q120.973 147.678 126.783 147.678 Z" fill="#000000" fill-rule="evenodd" fill-opacity="1" /><path clip-path="url(#clip170)" d="M146.945 176.984 L151.829 176.984 L151.829 182.863 L146.945 182.863 L146.945 176.984 Z" fill="#000000" fill-rule="evenodd" fill-opacity="1" /><path clip-path="url(#clip170)" d="M172.014 166.451 Q168.681 166.451 166.76 168.234 Q164.862 170.016 164.862 173.141 Q164.862 176.266 166.76 178.048 Q168.681 179.831 172.014 179.831 Q175.348 179.831 177.269 178.048 Q179.19 176.243 179.19 173.141 Q179.19 170.016 177.269 168.234 Q175.371 166.451 172.014 166.451 M167.339 164.461 Q164.329 163.72 162.64 161.66 Q160.973 159.599 160.973 156.637 Q160.973 152.493 163.913 150.086 Q166.876 147.678 172.014 147.678 Q177.176 147.678 180.116 150.086 Q183.056 152.493 183.056 156.637 Q183.056 159.599 181.366 161.66 Q179.7 163.72 176.714 164.461 Q180.093 165.248 181.968 167.539 Q183.866 169.831 183.866 173.141 Q183.866 178.164 180.788 180.849 Q177.732 183.535 172.014 183.535 Q166.297 183.535 163.218 180.849 Q160.163 178.164 160.163 173.141 Q160.163 169.831 162.061 167.539 Q163.959 165.248 167.339 164.461 M165.626 157.076 Q165.626 159.762 167.292 161.266 Q168.982 162.771 172.014 162.771 Q175.024 162.771 176.714 161.266 Q178.426 159.762 178.426 157.076 Q178.426 154.391 176.714 152.887 Q175.024 151.382 172.014 151.382 Q168.982 151.382 167.292 152.887 Q165.626 154.391 165.626 157.076 Z" fill="#000000" fill-rule="evenodd" fill-opacity="1" /><path clip-path="url(#clip170)" d="M16.4842 896.471 L16.4842 890.042 L58.5933 890.042 L58.5933 866.903 L64.0042 866.903 L64.0042 896.471 L16.4842 896.471 Z" fill="#000000" fill-rule="evenodd" fill-opacity="1" /><path clip-path="url(#clip170)" d="M32.4621 847.742 Q32.4621 852.452 36.1542 855.19 Q39.8145 857.927 46.212 857.927 Q52.6095 857.927 56.3017 855.221 Q59.9619 852.484 59.9619 847.742 Q59.9619 843.063 56.2698 840.326 Q52.5777 837.588 46.212 837.588 Q39.8781 837.588 36.186 840.326 Q32.4621 843.063 32.4621 847.742 M27.4968 847.742 Q27.4968 840.103 32.4621 835.742 Q37.4273 831.382 46.212 831.382 Q54.9649 831.382 59.9619 835.742 Q64.9272 840.103 64.9272 847.742 Q64.9272 855.412 59.9619 859.773 Q54.9649 864.102 46.212 864.102 Q37.4273 864.102 32.4621 859.773 Q27.4968 855.412 27.4968 847.742 Z" fill="#000000" fill-rule="evenodd" fill-opacity="1" /><path clip-path="url(#clip170)" d="M29.7248 796.02 L35.1993 796.02 Q33.8307 798.503 33.1623 801.017 Q32.4621 803.5 32.4621 806.046 Q32.4621 811.744 36.0905 814.895 Q39.6872 818.046 46.212 818.046 Q52.7369 818.046 56.3653 814.895 Q59.9619 811.744 59.9619 806.046 Q59.9619 803.5 59.2935 801.017 Q58.5933 798.503 57.2247 796.02 L62.6355 796.02 Q63.7814 798.471 64.3543 801.113 Q64.9272 803.723 64.9272 806.683 Q64.9272 814.736 59.8664 819.478 Q54.8057 824.22 46.212 824.22 Q37.491 824.22 32.4939 819.446 Q27.4968 814.64 27.4968 806.301 Q27.4968 803.596 28.0697 801.017 Q28.6108 798.439 29.7248 796.02 Z" fill="#000000" fill-rule="evenodd" fill-opacity="1" /><path clip-path="url(#clip170)" d="M46.0847 769.635 Q46.0847 776.732 47.7079 779.47 Q49.3312 782.207 53.2461 782.207 Q56.3653 782.207 58.2114 780.17 Q60.0256 778.101 60.0256 774.568 Q60.0256 769.698 56.5881 766.77 Q53.1188 763.81 47.3897 763.81 L46.0847 763.81 L46.0847 769.635 M43.6657 757.953 L64.0042 757.953 L64.0042 763.81 L58.5933 763.81 Q61.8398 765.815 63.3994 768.807 Q64.9272 771.799 64.9272 776.128 Q64.9272 781.602 61.8716 784.849 Q58.7843 788.063 53.6281 788.063 Q47.6125 788.063 44.5569 784.053 Q41.5014 780.011 41.5014 772.022 L41.5014 763.81 L40.9285 763.81 Q36.8862 763.81 34.6901 766.484 Q32.4621 769.125 32.4621 773.931 Q32.4621 776.987 33.1941 779.883 Q33.9262 782.78 35.3903 785.453 L29.9795 785.453 Q28.7381 782.239 28.1334 779.215 Q27.4968 776.191 27.4968 773.327 Q27.4968 765.592 31.5072 761.773 Q35.5176 757.953 43.6657 757.953 Z" fill="#000000" fill-rule="evenodd" fill-opacity="1" /><path clip-path="url(#clip170)" d="M14.479 745.89 L14.479 740.034 L64.0042 740.034 L64.0042 745.89 L14.479 745.89 Z" fill="#000000" fill-rule="evenodd" fill-opacity="1" /><path clip-path="url(#clip170)" d="M21.7677 700.376 L58.7206 700.376 L58.7206 692.609 Q58.7206 682.774 54.2646 678.223 Q49.8086 673.64 40.1964 673.64 Q30.6479 673.64 26.2237 678.223 Q21.7677 682.774 21.7677 692.609 L21.7677 700.376 M16.4842 706.805 L16.4842 693.596 Q16.4842 679.783 22.2451 673.321 Q27.9743 666.86 40.1964 666.86 Q52.4822 666.86 58.2432 673.353 Q64.0042 679.846 64.0042 693.596 L64.0042 706.805 L16.4842 706.805 Z" fill="#000000" fill-rule="evenodd" fill-opacity="1" /><path clip-path="url(#clip170)" d="M20.8447 637.323 Q20.8447 644.326 26.0645 648.463 Q31.2844 652.569 40.2919 652.569 Q49.2675 652.569 54.4874 648.463 Q59.7073 644.326 59.7073 637.323 Q59.7073 630.321 54.4874 626.247 Q49.2675 622.141 40.2919 622.141 Q31.2844 622.141 26.0645 626.247 Q20.8447 630.321 20.8447 637.323 M15.6248 637.323 Q15.6248 627.329 22.3406 621.345 Q29.0246 615.362 40.2919 615.362 Q51.5274 615.362 58.2432 621.345 Q64.9272 627.329 64.9272 637.323 Q64.9272 647.349 58.2432 653.365 Q51.5592 659.349 40.2919 659.349 Q29.0246 659.349 22.3406 653.365 Q15.6248 647.349 15.6248 637.323 Z" fill="#000000" fill-rule="evenodd" fill-opacity="1" /><path clip-path="url(#clip170)" d="M18.0438 576.817 L24.314 576.817 Q22.5634 580.478 21.704 583.724 Q20.8447 586.971 20.8447 589.994 Q20.8447 595.246 22.8817 598.111 Q24.9187 600.943 28.6745 600.943 Q31.8255 600.943 33.4488 599.065 Q35.0402 597.156 36.0269 591.872 L36.8226 587.989 Q38.1912 580.796 41.6605 577.39 Q45.098 573.953 50.8908 573.953 Q57.7976 573.953 61.3624 578.6 Q64.9272 583.215 64.9272 592.159 Q64.9272 595.532 64.1633 599.352 Q63.3994 603.139 61.9035 607.214 L55.2831 607.214 Q57.4793 603.299 58.5933 599.543 Q59.7073 595.787 59.7073 592.159 Q59.7073 586.652 57.543 583.66 Q55.3786 580.669 51.3682 580.669 Q47.8671 580.669 45.8937 582.833 Q43.9204 584.965 42.9337 589.867 L42.1698 593.782 Q40.7375 600.975 37.682 604.19 Q34.6264 607.404 29.1837 607.404 Q22.8817 607.404 19.2532 602.98 Q15.6248 598.524 15.6248 590.726 Q15.6248 587.384 16.2295 583.915 Q16.8343 580.446 18.0438 576.817 Z" fill="#000000" fill-rule="evenodd" fill-opacity="1" /><polyline clip-path="url(#clip172)" style="stroke:#009af9; stroke-linecap:butt; stroke-linejoin:round; stroke-width:4; stroke-opacity:1; fill:none" points="
  280.231,1122.82 282.245,1204.65 284.259,1231.93 286.274,1231.01 288.288,1203.84 290.302,1132.43 292.316,967.226 294.33,651.186 296.344,248.793 298.359,364.677 
  300.373,849.429 302.387,1070.26 304.401,1144.75 306.415,1144.61 308.43,1061.57 310.444,823.004 312.458,659.7 314.472,934.238 316.486,1102.65 318.5,1143.97 
  320.515,1106.24 322.529,960.192 324.543,736.974 326.557,584.584 328.571,326.868 330.585,503.351 332.6,835.896 334.614,909.793 336.628,773.375 338.642,715.473 
  340.656,909.45 342.67,1087.48 344.685,1131.69 346.699,1103.52 348.713,1057.09 350.727,1004.97 352.741,807.461 354.756,805.429 356.77,950.861 358.784,864.983 
  360.798,786.087 362.812,939.008 364.826,897.397 366.841,805.141 368.855,957.719 370.869,1102.54 372.883,1165.54 374.897,1156.63 376.911,1068.39 378.926,833.332 
  380.94,698.155 382.954,851.185 384.968,753.166 386.982,599.477 388.996,839.645 391.011,956.544 393.025,832.717 395.039,647.275 397.053,816.693 399.067,948.788 
  401.082,843.816 403.096,699.387 405.11,945.981 407.124,1096.06 409.138,1114.65 411.152,1028.27 413.167,814.118 415.181,762.198 417.195,939.086 419.209,897.131 
  421.223,831.043 423.237,974.374 425.252,950.418 427.266,776.981 429.28,890.309 431.294,1021.77 433.308,1088.59 435.322,1106.37 437.337,1066.86 439.351,895.731 
  441.365,842.995 443.379,890.785 445.393,852.731 447.408,950.156 449.422,931.2 451.436,704.034 453.45,365.65 455.464,447.588 457.478,721.196 459.493,953.222 
  461.507,1101.21 463.521,1145.48 465.535,1113.68 467.549,968.304 469.563,697.645 471.578,734.228 473.592,975.979 475.606,1090.28 477.62,1082.46 479.634,954.331 
  481.648,588.656 483.663,164.043 485.677,525.439 487.691,924.847 489.705,1071.2 491.719,1144.33 493.734,1196.82 495.748,1202.02 497.762,1155.84 499.776,1008.23 
  501.79,777.503 503.804,938.57 505.819,1117.91 507.833,1169.62 509.847,1146.3 511.861,1060.22 513.875,982.157 515.889,748.566 517.904,292.643 519.918,409.902 
  521.932,745.23 523.946,963.218 525.96,960.827 527.974,899.693 529.989,1042.79 532.003,1104.85 534.017,1042.87 536.031,929.085 538.045,995.254 540.06,980.911 
  542.074,789.384 544.088,553.757 546.102,231.739 548.116,511.604 550.13,857.134 552.145,1022.71 554.159,1065.14 556.173,1081.7 558.187,1159.67 560.201,1194.98 
  562.215,1183.39 564.23,1123.05 566.244,966.375 568.258,575.214 570.272,86.1857 572.286,202.13 574.301,700.127 576.315,1013.49 578.329,1131.89 580.343,1158.69 
  582.357,1108.14 584.371,1003.47 586.386,1074.51 588.4,1136.61 590.414,1127.86 592.428,1144 594.442,1204.42 596.456,1213.04 598.471,1171.69 600.485,1052.81 
  602.499,925.627 604.513,894.696 606.527,627.438 608.541,288.343 610.556,395.445 612.57,788.077 614.584,935.224 616.598,902.569 618.612,919.284 620.627,795.79 
  622.641,756.115 624.655,973.78 626.669,1020.8 628.683,926.096 630.697,904.303 632.712,1007.69 634.726,935.143 636.74,661.848 638.754,700.043 640.768,893.496 
  642.782,1052.46 644.797,1117.56 646.811,1068.67 648.825,929.549 650.839,908.198 652.853,883.811 654.867,982.592 656.882,992.895 658.896,819.879 660.91,575.932 
  662.924,681.345 664.938,710.57 666.953,884.009 668.967,1080.64 670.981,1150.91 672.995,1200.57 675.009,1241.92 677.023,1253.98 679.038,1245.85 681.052,1215 
  683.066,1140.66 685.08,963.491 687.094,700.607 689.108,572.844 691.123,561.723 693.137,669.474 695.151,728.014 697.165,539.726 699.179,506.054 701.193,757.411 
  703.208,1031.41 705.222,1136.11 707.236,1157.5 709.25,1123.1 711.264,976.267 713.279,895.613 715.293,1080.15 717.307,1167.74 719.321,1165.29 721.335,1133.97 
  723.349,1085.29 725.364,921.918 727.378,644.617 729.392,811.457 731.406,1024.04 733.42,1056.02 735.434,956.444 737.449,625.968 739.463,273.105 741.477,614.718 
  743.491,773.867 745.505,901.914 747.519,1093.03 749.534,1173.92 751.548,1187.3 753.562,1144.71 755.576,1013.8 757.59,780.62 759.605,694.514 761.619,830.881 
  763.633,1025.45 765.647,1027.46 767.661,899.542 769.675,1006.37 771.69,1151.23 773.704,1193.26 775.718,1158.45 777.732,1059.01 779.746,1096.25 781.76,1148.74 
  783.775,1109.78 785.789,1044.33 787.803,852.175 789.817,755.83 791.831,943.107 793.845,940.922 795.86,840.921 797.874,854.237 799.888,924.855 801.902,979.742 
  803.916,1059.34 805.931,1016.25 807.945,821.678 809.959,811.227 811.973,840.024 813.987,545.706 816.001,171.187 818.016,531.824 820.03,959.097 822.044,1139.71 
  824.058,1217.07 826.072,1252.72 828.086,1267.07 830.101,1265.28 832.115,1241.93 834.129,1174.4 836.143,1076.3 838.157,1075.02 840.171,1000.8 842.186,819.383 
  844.2,918.008 846.214,1040.87 848.228,1004.41 850.242,810.964 852.257,834.276 854.271,931.938 856.285,890.02 858.299,1007.38 860.313,1103.81 862.327,1173.65 
  864.342,1170.01 866.356,1078.89 868.37,855.866 870.384,766.859 872.398,1019.89 874.412,1128.07 876.427,1100.55 878.441,937.426 880.455,905.774 882.469,1078.61 
  884.483,1194.11 886.498,1236.44 888.512,1237.35 890.526,1204.2 892.54,1130.83 894.554,954.268 896.568,668.874 898.583,356.192 900.597,535.298 902.611,956.139 
  904.625,1154.69 906.639,1238.85 908.653,1279.35 910.668,1300.78 912.682,1312.38 914.696,1317.99 916.71,1319.15 918.724,1316.03 920.738,1307.6 922.753,1290.79 
  924.767,1257.92 926.781,1188.13 928.795,1022.63 930.809,723.483 932.824,701.499 934.838,742.307 936.852,697.734 938.866,973.795 940.88,1160.46 942.894,1235.47 
  944.909,1264.2 946.923,1268.62 948.937,1250.43 950.951,1192.79 952.965,1037.85 954.979,758.832 956.994,882.275 959.008,1121.92 961.022,1213.08 963.036,1228.48 
  965.05,1219.47 967.064,1227.02 969.079,1207.31 971.093,1213.36 973.107,1189.24 975.121,1087.72 977.135,827.604 979.15,482.26 981.164,371.418 983.178,623.04 
  985.192,966.867 987.206,1159.37 989.22,1242.72 991.235,1283 993.249,1304.58 995.263,1316.69 997.277,1323.23 999.291,1325.91 1001.31,1325.35 1003.32,1321.39 
  1005.33,1313.05 1007.35,1297.9 1009.36,1270.38 1011.38,1216.72 1013.39,1098.67 1015.4,823.303 1017.42,456.719 1019.43,534.548 1021.45,717.888 1023.46,940.466 
  1025.48,1135.29 1027.49,1213.04 1029.5,1232.76 1031.52,1205.76 1033.53,1099.08 1035.55,980.446 1037.56,1117.1 1039.57,1211.14 1041.59,1234.45 1043.6,1206.87 
  1045.62,1126.99 1047.63,1007.58 1049.65,941.317 1051.66,1091.55 1053.67,1138.11 1055.69,1058.48 1057.7,791.518 1059.72,590.49 1061.73,868.646 1063.74,1064.03 
  1065.76,1190.65 1067.77,1243.03 1069.79,1254.86 1071.8,1233.12 1073.82,1154.95 1075.83,1050.39 1077.84,1046.26 1079.86,1067.78 1081.87,1114.83 1083.89,1087.7 
  1085.9,938.934 1087.91,732.002 1089.93,906.454 1091.94,1035.06 1093.96,1088.55 1095.97,1135.88 1097.99,1138.16 1100,1045.27 1102.01,904.719 1104.03,786.721 
  1106.04,974.638 1108.06,1068.48 1110.07,1049.91 1112.09,1037.84 1114.1,960.393 1116.11,1071.9 1118.13,1158.35 1120.14,1166.47 1122.16,1128.24 1124.17,1117.78 
  1126.18,1221.18 1128.2,1278.66 1130.21,1299.1 1132.23,1301.39 1134.24,1288.37 1136.26,1249.46 1138.27,1151.52 1140.28,1035.59 1142.3,1059.54 1144.31,1053.06 
  1146.33,984.399 1148.34,1051.33 1150.35,1058.99 1152.37,1040.83 1154.38,1033.06 1156.4,1040.34 1158.41,996.876 1160.43,942.742 1162.44,922.06 1164.45,965.045 
  1166.47,1109.43 1168.48,1234.45 1170.5,1290.05 1172.51,1315.62 1174.52,1328.49 1176.54,1334.84 1178.55,1336.94 1180.57,1335.3 1182.58,1329.12 1184.6,1315.57 
  1186.61,1286.88 1188.62,1220.73 1190.64,1066.54 1192.65,936.124 1194.67,952.841 1196.68,1023.2 1198.69,1181.85 1200.71,1255.52 1202.72,1270.08 1204.74,1236.49 
  1206.75,1170.14 1208.77,1176.99 1210.78,1257.32 1212.79,1295.39 1214.81,1296.77 1216.82,1261.71 1218.84,1171.84 1220.85,1174.77 1222.86,1261.93 1224.88,1291.6 
  1226.89,1278.16 1228.91,1210.39 1230.92,1153.85 1232.94,1241 1234.95,1289.02 1236.96,1288.87 1238.98,1239.73 1240.99,1161.24 1243.01,1230.82 1245.02,1300.03 
  1247.03,1325.89 1249.05,1332.51 1251.06,1326.4 1253.08,1301.6 1255.09,1232.67 1257.11,1124.51 1259.12,1199.46 1261.13,1290.01 1263.15,1325.9 1265.16,1339.17 
  1267.18,1341.72 1269.19,1335.12 1271.2,1312.81 1273.22,1252.17 1275.23,1163.1 1277.25,1232.22 1279.26,1306.66 1281.28,1336.4 1283.29,1348.3 1285.3,1352.6 
  1287.32,1352.27 1289.33,1347.17 1291.35,1333.9 1293.36,1301.18 1295.37,1219.48 1297.39,1143.72 1299.4,1241.71 1301.42,1308.63 1303.43,1333.68 1305.45,1341.87 
  1307.46,1340.76 1309.47,1329.58 1311.49,1297.96 1313.5,1217.53 1315.52,1150.8 1317.53,1246.72 1319.54,1307.49 1321.56,1328.6 1323.57,1332.28 1325.59,1322.91 
  1327.6,1292 1329.62,1211.15 1331.63,1130.23 1333.64,1221.92 1335.66,1280.06 1337.67,1282.45 1339.69,1231.95 1341.7,1139.05 1343.72,1200.7 1345.73,1274.71 
  1347.74,1291.15 1349.76,1263.53 1351.77,1178.77 1353.79,1176.7 1355.8,1266.02 1357.81,1301.87 1359.83,1303.14 1361.84,1271.88 1363.86,1204.42 1365.87,1199.13 
  1367.89,1251.54 1369.9,1272.97 1371.91,1247.24 1373.93,1152.33 1375.94,954.679 1377.96,917.241 1379.97,982.693 1381.98,1110.48 1384,1241.49 1386.01,1298.58 
  1388.03,1324.08 1390.04,1336.56 1392.06,1342.61 1394.07,1344.67 1396.08,1343.52 1398.1,1338.84 1400.11,1328.96 1402.13,1309.49 1404.14,1268.45 1406.15,1175 
  1408.17,1014.19 1410.18,884.411 1412.2,936.462 1414.21,1083.91 1416.23,1170.85 1418.24,1184.24 1420.25,1134.02 1422.27,1123.35 1424.28,1168.54 1426.3,1194.47 
  1428.31,1172.21 1430.32,1138.73 1432.34,1198.5 1434.35,1273.98 1436.37,1317.33 1438.38,1335.83 1440.4,1343.71 1442.41,1345.88 1444.42,1343.13 1446.44,1332.8 
  1448.45,1313.2 1450.47,1302.92 1452.48,1280.69 1454.49,1215.9 1456.51,1081.3 1458.52,1018.9 1460.54,1115.54 1462.55,1183.56 1464.57,1228.31 1466.58,1224.84 
  1468.59,1212.98 1470.61,1256.86 1472.62,1290.41 1474.64,1304.23 1476.65,1283.93 1478.66,1230.03 1480.68,1220.12 1482.69,1212.07 1484.71,1195.54 1486.72,1239.12 
  1488.74,1278.42 1490.75,1280.4 1492.76,1244.47 1494.78,1209.84 1496.79,1207.15 1498.81,1270.34 1500.82,1319.29 1502.83,1337.63 1504.85,1341.58 1506.86,1334.3 
  1508.88,1309.64 1510.89,1258.14 1512.91,1177.84 1514.92,1230.79 1516.93,1305.18 1518.95,1332.69 1520.96,1335.08 1522.98,1321.36 1524.99,1330.31 1527,1344.16 
  1529.02,1356.11 1531.03,1360.53 1533.05,1358.69 1535.06,1353.38 1537.08,1343.75 1539.09,1354.93 1541.1,1364.49 1543.12,1366.76 1545.13,1364.31 1547.15,1355.22 
  1549.16,1332.36 1551.17,1310.66 1553.19,1304.61 1555.2,1305.97 1557.22,1334.37 1559.23,1357.62 1561.25,1368.16 1563.26,1373.02 1565.27,1375.55 1567.29,1376.99 
  1569.3,1377.82 1571.32,1378.25 1573.33,1378.38 1575.35,1378.23 1577.36,1377.73 1579.37,1376.76 1581.39,1375 1583.4,1371.74 1585.42,1365.2 1587.43,1350.39 
  1589.44,1317.75 1591.46,1278.07 1593.47,1296.78 1595.49,1334.78 1597.5,1358.15 1599.52,1367.6 1601.53,1370.72 1603.54,1371.35 1605.56,1373.26 1607.57,1373.23 
  1609.59,1373.98 1611.6,1373.72 1613.61,1369.28 1615.63,1357.13 1617.64,1351.82 1619.66,1365.98 1621.67,1373.58 1623.69,1376.33 1625.7,1377.04 1627.71,1376.42 
  1629.73,1374.14 1631.74,1368.36 1633.76,1354 1635.77,1335.94 1637.78,1344.86 1639.8,1349.29 1641.81,1354.2 1643.83,1367.47 1645.84,1374.45 1647.86,1377.47 
  1649.87,1378.91 1651.88,1379.62 1653.9,1379.93 1655.91,1379.95 1657.93,1379.73 1659.94,1379.22 1661.95,1378.32 1663.97,1376.75 1665.98,1373.92 1668,1368.25 
  1670.01,1355.33 1672.03,1326.6 1674.04,1303.25 1676.05,1319.05 1678.07,1344.04 1680.08,1361.44 1682.1,1368.6 1684.11,1372.36 1686.12,1373.56 1688.14,1372.37 
  1690.15,1367.83 1692.17,1362.6 1694.18,1364.32 1696.2,1368.77 1698.21,1368.59 1700.22,1363.81 1702.24,1353.78 1704.25,1351.55 1706.27,1349.54 1708.28,1337.09 
  1710.29,1304.74 1712.31,1236.75 1714.32,1195.68 1716.34,1151.91 1718.35,1192.38 1720.37,1205.51 1722.38,1207.51 1724.39,1267.01 1726.41,1318.06 1728.42,1335.2 
  1730.44,1340.57 1732.45,1347.44 1734.46,1341.63 1736.48,1338.28 1738.49,1355.28 1740.51,1366.18 1742.52,1370.58 1744.54,1372.2 1746.55,1372.21 1748.56,1370.61 
  1750.58,1366.45 1752.59,1356.47 1754.61,1333.27 1756.62,1310.32 1758.63,1321.08 1760.65,1320.9 1762.66,1286.78 1764.68,1281.61 1766.69,1325.11 1768.71,1338.24 
  1770.72,1336.07 1772.73,1337.75 1774.75,1346.3 1776.76,1353.96 1778.78,1364.14 1780.79,1368.79 1782.81,1367.52 1784.82,1368.88 1786.83,1369.8 1788.85,1368.76 
  1790.86,1372.95 1792.88,1374.07 1794.89,1373.55 1796.9,1376.5 1798.92,1378.3 1800.93,1378.36 1802.95,1376.81 1804.96,1374.98 1806.98,1374.94 1808.99,1371.94 
  1811,1362.67 1813.02,1349.25 1815.03,1343.89 1817.05,1357.85 1819.06,1369.35 1821.07,1373.23 1823.09,1373.45 1825.1,1370.68 1827.12,1363.43 1829.13,1350.67 
  1831.15,1320.46 1833.16,1289.64 1835.17,1321.8 1837.19,1353.78 1839.2,1366.58 1841.22,1370.68 1843.23,1369.18 1845.24,1366.9 1847.26,1372.92 1849.27,1377.02 
  1851.29,1378.59 1853.3,1379.35 1855.32,1378.85 1857.33,1376.23 1859.34,1371.5 1861.36,1372.62 1863.37,1376.65 1865.39,1378.98 1867.4,1379.2 1869.41,1377.68 
  1871.43,1374.49 1873.44,1371.19 1875.46,1370.56 1877.47,1369.37 1879.49,1361.73 1881.5,1353.55 1883.51,1356.48 1885.53,1366.97 1887.54,1374.74 1889.56,1378.61 
  1891.57,1380.27 1893.58,1380.95 1895.6,1381.08 1897.61,1380.69 1899.63,1379.59 1901.64,1378.02 1903.66,1375.31 1905.67,1369.07 1907.68,1358.46 1909.7,1348.61 
  1911.71,1342.66 1913.73,1354.01 1915.74,1367.86 1917.75,1372.52 1919.77,1372.25 1921.78,1370.81 1923.8,1370.03 1925.81,1374.95 1927.83,1377.7 1929.84,1377.74 
  1931.85,1375.42 1933.87,1372.07 1935.88,1372.9 1937.9,1376.61 1939.91,1377.38 1941.92,1375.3 1943.94,1374.95 1945.95,1376.52 1947.97,1373.9 1949.98,1366.62 
  1952,1366.63 1954.01,1370.84 1956.02,1370.33 1958.04,1374.1 1960.05,1375.36 1962.07,1372.75 1964.08,1371.87 1966.09,1376 1968.11,1378.81 1970.12,1379.53 
  1972.14,1380.97 1974.15,1381.96 1976.17,1382.03 1978.18,1381.15 1980.19,1378.93 1982.21,1378.65 1984.22,1380.09 1986.24,1379.92 1988.25,1379.04 1990.26,1380.02 
  1992.28,1380.04 1994.29,1378.49 1996.31,1374.39 1998.32,1364.23 2000.34,1348.57 2002.35,1344.3 2004.36,1359.53 2006.38,1372.47 2008.39,1377.77 2010.41,1379.96 
  2012.42,1380.72 2014.44,1380.3 2016.45,1378.94 2018.46,1378.81 2020.48,1379.04 2022.49,1377.09 2024.51,1371.42 2026.52,1368.93 2028.53,1373.8 2030.55,1377.63 
  2032.56,1379.2 2034.58,1377.94 2036.59,1375.75 2038.61,1378.54 2040.62,1380.78 2042.63,1380.88 2044.65,1379.79 2046.66,1379.8 2048.68,1378.97 2050.69,1374.8 
  2052.7,1371.68 2054.72,1373.73 2056.73,1378.3 2058.75,1380.4 2060.76,1380.97 2062.78,1381.9 2064.79,1382.01 2066.8,1380.98 2068.82,1377.84 2070.83,1374.97 
  2072.85,1378.82 2074.86,1381.27 2076.87,1381.94 2078.89,1381.67 2080.9,1380.46 2082.92,1378.53 2084.93,1374.5 2086.95,1363.81 2088.96,1354.83 2090.97,1366.24 
  2092.99,1375.73 2095,1379.47 2097.02,1380.66 2099.03,1380.17 2101.04,1377.97 2103.06,1377.12 2105.07,1380.15 2107.09,1381.91 2109.1,1382.33 2111.12,1381.83 
  2113.13,1380.01 2115.14,1377.78 2117.16,1376.23 2119.17,1375.1 2121.19,1378.27 2123.2,1380.05 2125.21,1380.74 2127.23,1379.86 2129.24,1378.84 2131.26,1375.75 
  2133.27,1376.07 2135.29,1379.91 2137.3,1381.23 2139.31,1381.72 2141.33,1381.66 2143.34,1380.97 2145.36,1380.28 2147.37,1380.83 2149.38,1379.72 2151.4,1376.48 
  2153.41,1377.63 2155.43,1379.17 2157.44,1377.51 2159.46,1378.19 2161.47,1380.8 2163.48,1381.52 2165.5,1380.69 2167.51,1377.55 2169.53,1372.65 2171.54,1375.6 
  2173.55,1377.9 2175.57,1376 2177.58,1373.36 2179.6,1377.12 2181.61,1380.03 2183.63,1379.99 2185.64,1378.54 2187.65,1380.19 2189.67,1381.28 2191.68,1380.71 
  2193.7,1381.59 2195.71,1382.96 2197.72,1383.42 2199.74,1383.31 2201.75,1382.53 2203.77,1380.94 2205.78,1379.48 2207.8,1380.52 2209.81,1381.22 2211.82,1380.1 
  2213.84,1380.33 2215.85,1380.03 2217.87,1376.85 2219.88,1376.63 2221.9,1380.04 2223.91,1381.24 2225.92,1382.16 2227.94,1382.74 2229.95,1382.51 2231.97,1381.14 
  2233.98,1378.89 2235.99,1378.22 2238.01,1379.68 2240.02,1378.69 2242.04,1374.15 2244.05,1372 2246.07,1376.11 2248.08,1378.68 2250.09,1381.01 2252.11,1382.43 
  2254.12,1382.77 2256.14,1382.23 2258.15,1380.16 2260.16,1376.69 2262.18,1378.66 2264.19,1381.81 2266.21,1383.05 2268.22,1383.38 2270.24,1383.11 2272.25,1381.87 
  2274.26,1379.08 2276.28,1378.7 2278.29,1381.06 2280.31,1382.76 2282.32,1383.71 2284.33,1384.11 2286.35,1384.24 2288.36,1384.18 2290.38,1383.91 2292.39,1383.2 
  
  "/>
<path clip-path="url(#clip170)" d="
M1992.24 196.789 L2281.66 196.789 L2281.66 93.1086 L1992.24 93.1086  Z
  " fill="#ffffff" fill-rule="evenodd" fill-opacity="1"/>
<polyline clip-path="url(#clip170)" style="stroke:#000000; stroke-linecap:butt; stroke-linejoin:round; stroke-width:4; stroke-opacity:1; fill:none" points="
  1992.24,196.789 2281.66,196.789 2281.66,93.1086 1992.24,93.1086 1992.24,196.789 
  "/>
<polyline clip-path="url(#clip170)" style="stroke:#009af9; stroke-linecap:butt; stroke-linejoin:round; stroke-width:4; stroke-opacity:1; fill:none" points="
  2015.94,144.949 2158.13,144.949 
  "/>
<path clip-path="url(#clip170)" d="M2195.67 164.636 Q2193.87 169.266 2192.16 170.678 Q2190.44 172.09 2187.57 172.09 L2184.17 172.09 L2184.17 168.525 L2186.67 168.525 Q2188.43 168.525 2189.4 167.692 Q2190.37 166.858 2191.55 163.756 L2192.32 161.812 L2181.83 136.303 L2186.35 136.303 L2194.45 156.581 L2202.55 136.303 L2207.06 136.303 L2195.67 164.636 Z" fill="#000000" fill-rule="evenodd" fill-opacity="1" /><path clip-path="url(#clip170)" d="M2214.35 158.293 L2221.99 158.293 L2221.99 131.928 L2213.68 133.595 L2213.68 129.335 L2221.95 127.669 L2226.62 127.669 L2226.62 158.293 L2234.26 158.293 L2234.26 162.229 L2214.35 162.229 L2214.35 158.293 Z" fill="#000000" fill-rule="evenodd" fill-opacity="1" /></svg>
