<?xml version="1.0" encoding="utf-8"?>
<svg xmlns="http://www.w3.org/2000/svg" xmlns:xlink="http://www.w3.org/1999/xlink" width="600" height="400" viewBox="0 0 2400 1600">
<defs>
  <clipPath id="clip970">
    <rect x="0" y="0" width="2400" height="1600"/>
  </clipPath>
</defs>
<path clip-path="url(#clip970)" d="
M0 1600 L2400 1600 L2400 0 L0 0  Z
  " fill="#ffffff" fill-rule="evenodd" fill-opacity="1"/>
<defs>
  <clipPath id="clip971">
    <rect x="480" y="0" width="1681" height="1600"/>
  </clipPath>
</defs>
<path clip-path="url(#clip970)" d="
M249.542 1423.18 L2352.76 1423.18 L2352.76 47.2441 L249.542 47.2441  Z
  " fill="#ffffff" fill-rule="evenodd" fill-opacity="1"/>
<defs>
  <clipPath id="clip972">
    <rect x="249" y="47" width="2104" height="1377"/>
  </clipPath>
</defs>
<polyline clip-path="url(#clip972)" style="stroke:#000000; stroke-linecap:butt; stroke-linejoin:round; stroke-width:2; stroke-opacity:0.1; fill:none" points="
  309.067,1423.18 309.067,47.2441 
  "/>
<polyline clip-path="url(#clip972)" style="stroke:#000000; stroke-linecap:butt; stroke-linejoin:round; stroke-width:2; stroke-opacity:0.1; fill:none" points="
  805.108,1423.18 805.108,47.2441 
  "/>
<polyline clip-path="url(#clip972)" style="stroke:#000000; stroke-linecap:butt; stroke-linejoin:round; stroke-width:2; stroke-opacity:0.1; fill:none" points="
  1301.15,1423.18 1301.15,47.2441 
  "/>
<polyline clip-path="url(#clip972)" style="stroke:#000000; stroke-linecap:butt; stroke-linejoin:round; stroke-width:2; stroke-opacity:0.1; fill:none" points="
  1797.19,1423.18 1797.19,47.2441 
  "/>
<polyline clip-path="url(#clip972)" style="stroke:#000000; stroke-linecap:butt; stroke-linejoin:round; stroke-width:2; stroke-opacity:0.1; fill:none" points="
  2293.23,1423.18 2293.23,47.2441 
  "/>
<polyline clip-path="url(#clip970)" style="stroke:#000000; stroke-linecap:butt; stroke-linejoin:round; stroke-width:4; stroke-opacity:1; fill:none" points="
  249.542,1423.18 2352.76,1423.18 
  "/>
<polyline clip-path="url(#clip970)" style="stroke:#000000; stroke-linecap:butt; stroke-linejoin:round; stroke-width:4; stroke-opacity:1; fill:none" points="
  309.067,1423.18 309.067,1404.28 
  "/>
<polyline clip-path="url(#clip970)" style="stroke:#000000; stroke-linecap:butt; stroke-linejoin:round; stroke-width:4; stroke-opacity:1; fill:none" points="
  805.108,1423.18 805.108,1404.28 
  "/>
<polyline clip-path="url(#clip970)" style="stroke:#000000; stroke-linecap:butt; stroke-linejoin:round; stroke-width:4; stroke-opacity:1; fill:none" points="
  1301.15,1423.18 1301.15,1404.28 
  "/>
<polyline clip-path="url(#clip970)" style="stroke:#000000; stroke-linecap:butt; stroke-linejoin:round; stroke-width:4; stroke-opacity:1; fill:none" points="
  1797.19,1423.18 1797.19,1404.28 
  "/>
<polyline clip-path="url(#clip970)" style="stroke:#000000; stroke-linecap:butt; stroke-linejoin:round; stroke-width:4; stroke-opacity:1; fill:none" points="
  2293.23,1423.18 2293.23,1404.28 
  "/>
<path clip-path="url(#clip970)" d="M277.968 1468.75 L307.643 1468.75 L307.643 1472.69 L277.968 1472.69 L277.968 1468.75 Z" fill="#000000" fill-rule="evenodd" fill-opacity="1" /><path clip-path="url(#clip970)" d="M330.583 1455.09 L318.778 1473.54 L330.583 1473.54 L330.583 1455.09 M329.356 1451.02 L335.236 1451.02 L335.236 1473.54 L340.166 1473.54 L340.166 1477.43 L335.236 1477.43 L335.236 1485.58 L330.583 1485.58 L330.583 1477.43 L314.981 1477.43 L314.981 1472.92 L329.356 1451.02 Z" fill="#000000" fill-rule="evenodd" fill-opacity="1" /><path clip-path="url(#clip970)" d="M775.05 1468.75 L804.726 1468.75 L804.726 1472.69 L775.05 1472.69 L775.05 1468.75 Z" fill="#000000" fill-rule="evenodd" fill-opacity="1" /><path clip-path="url(#clip970)" d="M818.846 1481.64 L835.166 1481.64 L835.166 1485.58 L813.221 1485.58 L813.221 1481.64 Q815.883 1478.89 820.467 1474.26 Q825.073 1469.61 826.254 1468.27 Q828.499 1465.74 829.379 1464.01 Q830.281 1462.25 830.281 1460.56 Q830.281 1457.8 828.337 1456.07 Q826.416 1454.33 823.314 1454.33 Q821.115 1454.33 818.661 1455.09 Q816.231 1455.86 813.453 1457.41 L813.453 1452.69 Q816.277 1451.55 818.731 1450.97 Q821.184 1450.39 823.221 1450.39 Q828.592 1450.39 831.786 1453.08 Q834.98 1455.77 834.98 1460.26 Q834.98 1462.39 834.17 1464.31 Q833.383 1466.2 831.277 1468.8 Q830.698 1469.47 827.596 1472.69 Q824.494 1475.88 818.846 1481.64 Z" fill="#000000" fill-rule="evenodd" fill-opacity="1" /><path clip-path="url(#clip970)" d="M1301.15 1454.1 Q1297.54 1454.1 1295.71 1457.66 Q1293.9 1461.2 1293.9 1468.33 Q1293.9 1475.44 1295.71 1479.01 Q1297.54 1482.55 1301.15 1482.55 Q1304.78 1482.55 1306.59 1479.01 Q1308.42 1475.44 1308.42 1468.33 Q1308.42 1461.2 1306.59 1457.66 Q1304.78 1454.1 1301.15 1454.1 M1301.15 1450.39 Q1306.96 1450.39 1310.01 1455 Q1313.09 1459.58 1313.09 1468.33 Q1313.09 1477.06 1310.01 1481.67 Q1306.96 1486.25 1301.15 1486.25 Q1295.34 1486.25 1292.26 1481.67 Q1289.2 1477.06 1289.2 1468.33 Q1289.2 1459.58 1292.26 1455 Q1295.34 1450.39 1301.15 1450.39 Z" fill="#000000" fill-rule="evenodd" fill-opacity="1" /><path clip-path="url(#clip970)" d="M1791.84 1481.64 L1808.16 1481.64 L1808.16 1485.58 L1786.22 1485.58 L1786.22 1481.64 Q1788.88 1478.89 1793.46 1474.26 Q1798.07 1469.61 1799.25 1468.27 Q1801.5 1465.74 1802.38 1464.01 Q1803.28 1462.25 1803.28 1460.56 Q1803.28 1457.8 1801.33 1456.07 Q1799.41 1454.33 1796.31 1454.33 Q1794.11 1454.33 1791.66 1455.09 Q1789.23 1455.86 1786.45 1457.41 L1786.45 1452.69 Q1789.27 1451.55 1791.73 1450.97 Q1794.18 1450.39 1796.22 1450.39 Q1801.59 1450.39 1804.78 1453.08 Q1807.98 1455.77 1807.98 1460.26 Q1807.98 1462.39 1807.17 1464.31 Q1806.38 1466.2 1804.27 1468.8 Q1803.69 1469.47 1800.59 1472.69 Q1797.49 1475.88 1791.84 1481.64 Z" fill="#000000" fill-rule="evenodd" fill-opacity="1" /><path clip-path="url(#clip970)" d="M2296.24 1455.09 L2284.43 1473.54 L2296.24 1473.54 L2296.24 1455.09 M2295.01 1451.02 L2300.89 1451.02 L2300.89 1473.54 L2305.82 1473.54 L2305.82 1477.43 L2300.89 1477.43 L2300.89 1485.58 L2296.24 1485.58 L2296.24 1477.43 L2280.64 1477.43 L2280.64 1472.92 L2295.01 1451.02 Z" fill="#000000" fill-rule="evenodd" fill-opacity="1" /><path clip-path="url(#clip970)" d="M1144.47 1520.52 L1174.52 1520.52 L1174.52 1525.93 L1150.9 1525.93 L1150.9 1540 L1173.53 1540 L1173.53 1545.41 L1150.9 1545.41 L1150.9 1562.63 L1175.09 1562.63 L1175.09 1568.04 L1144.47 1568.04 L1144.47 1520.52 Z" fill="#000000" fill-rule="evenodd" fill-opacity="1" /><path clip-path="url(#clip970)" d="M1215.04 1546.53 L1215.04 1568.04 L1209.18 1568.04 L1209.18 1546.72 Q1209.18 1541.66 1207.21 1539.14 Q1205.23 1536.63 1201.29 1536.63 Q1196.54 1536.63 1193.81 1539.65 Q1191.07 1542.68 1191.07 1547.9 L1191.07 1568.04 L1185.18 1568.04 L1185.18 1532.4 L1191.07 1532.4 L1191.07 1537.93 Q1193.17 1534.72 1196 1533.13 Q1198.87 1531.54 1202.59 1531.54 Q1208.73 1531.54 1211.89 1535.36 Q1215.04 1539.14 1215.04 1546.53 Z" fill="#000000" fill-rule="evenodd" fill-opacity="1" /><path clip-path="url(#clip970)" d="M1257.21 1548.76 L1257.21 1551.62 L1230.28 1551.62 Q1230.66 1557.67 1233.91 1560.85 Q1237.19 1564 1243.01 1564 Q1246.39 1564 1249.54 1563.17 Q1252.72 1562.35 1255.84 1560.69 L1255.84 1566.23 Q1252.69 1567.57 1249.38 1568.27 Q1246.07 1568.97 1242.66 1568.97 Q1234.13 1568.97 1229.14 1564 Q1224.17 1559.04 1224.17 1550.57 Q1224.17 1541.82 1228.88 1536.69 Q1233.62 1531.54 1241.65 1531.54 Q1248.84 1531.54 1253.01 1536.18 Q1257.21 1540.8 1257.21 1548.76 M1251.35 1547.04 Q1251.29 1542.23 1248.65 1539.37 Q1246.04 1536.5 1241.71 1536.5 Q1236.81 1536.5 1233.85 1539.27 Q1230.92 1542.04 1230.47 1547.07 L1251.35 1547.04 Z" fill="#000000" fill-rule="evenodd" fill-opacity="1" /><path clip-path="url(#clip970)" d="M1287.48 1537.87 Q1286.49 1537.3 1285.31 1537.04 Q1284.17 1536.76 1282.77 1536.76 Q1277.8 1536.76 1275.13 1540 Q1272.49 1543.22 1272.49 1549.27 L1272.49 1568.04 L1266.6 1568.04 L1266.6 1532.4 L1272.49 1532.4 L1272.49 1537.93 Q1274.33 1534.69 1277.29 1533.13 Q1280.25 1531.54 1284.49 1531.54 Q1285.09 1531.54 1285.82 1531.63 Q1286.56 1531.7 1287.45 1531.85 L1287.48 1537.87 Z" fill="#000000" fill-rule="evenodd" fill-opacity="1" /><path clip-path="url(#clip970)" d="M1315.93 1549.81 Q1315.93 1543.44 1313.29 1539.94 Q1310.68 1536.44 1305.94 1536.44 Q1301.23 1536.44 1298.59 1539.94 Q1295.98 1543.44 1295.98 1549.81 Q1295.98 1556.14 1298.59 1559.64 Q1301.23 1563.14 1305.94 1563.14 Q1310.68 1563.14 1313.29 1559.64 Q1315.93 1556.14 1315.93 1549.81 M1321.79 1563.62 Q1321.79 1572.72 1317.75 1577.15 Q1313.71 1581.6 1305.37 1581.6 Q1302.28 1581.6 1299.54 1581.13 Q1296.8 1580.68 1294.23 1579.72 L1294.23 1574.03 Q1296.8 1575.43 1299.32 1576.1 Q1301.83 1576.76 1304.44 1576.76 Q1310.2 1576.76 1313.07 1573.74 Q1315.93 1570.75 1315.93 1564.67 L1315.93 1561.77 Q1314.12 1564.92 1311.29 1566.48 Q1308.45 1568.04 1304.51 1568.04 Q1297.95 1568.04 1293.94 1563.05 Q1289.93 1558.05 1289.93 1549.81 Q1289.93 1541.53 1293.94 1536.53 Q1297.95 1531.54 1304.51 1531.54 Q1308.45 1531.54 1311.29 1533.1 Q1314.12 1534.66 1315.93 1537.81 L1315.93 1532.4 L1321.79 1532.4 L1321.79 1563.62 Z" fill="#000000" fill-rule="evenodd" fill-opacity="1" /><path clip-path="url(#clip970)" d="M1348.68 1571.35 Q1346.2 1577.72 1343.85 1579.66 Q1341.49 1581.6 1337.54 1581.6 L1332.87 1581.6 L1332.87 1576.7 L1336.3 1576.7 Q1338.72 1576.7 1340.06 1575.56 Q1341.4 1574.41 1343.02 1570.14 L1344.07 1567.47 L1329.65 1532.4 L1335.86 1532.4 L1347 1560.28 L1358.14 1532.4 L1364.34 1532.4 L1348.68 1571.35 Z" fill="#000000" fill-rule="evenodd" fill-opacity="1" /><path clip-path="url(#clip970)" d="M1392.61 1518.52 L1406.1 1518.52 L1406.1 1523.07 L1398.46 1523.07 L1398.46 1572.09 L1406.1 1572.09 L1406.1 1576.64 L1392.61 1576.64 L1392.61 1518.52 Z" fill="#000000" fill-rule="evenodd" fill-opacity="1" /><path clip-path="url(#clip970)" d="M1424.37 1522.27 L1424.37 1532.4 L1436.44 1532.4 L1436.44 1536.95 L1424.37 1536.95 L1424.37 1556.3 Q1424.37 1560.66 1425.55 1561.9 Q1426.76 1563.14 1430.42 1563.14 L1436.44 1563.14 L1436.44 1568.04 L1430.42 1568.04 Q1423.64 1568.04 1421.06 1565.53 Q1418.48 1562.98 1418.48 1556.3 L1418.48 1536.95 L1414.19 1536.95 L1414.19 1532.4 L1418.48 1532.4 L1418.48 1522.27 L1424.37 1522.27 Z" fill="#000000" fill-rule="evenodd" fill-opacity="1" /><path clip-path="url(#clip970)" d="M1457.82 1518.52 L1457.82 1576.64 L1444.33 1576.64 L1444.33 1572.09 L1451.94 1572.09 L1451.94 1523.07 L1444.33 1523.07 L1444.33 1518.52 L1457.82 1518.52 Z" fill="#000000" fill-rule="evenodd" fill-opacity="1" /><polyline clip-path="url(#clip972)" style="stroke:#000000; stroke-linecap:butt; stroke-linejoin:round; stroke-width:2; stroke-opacity:0.1; fill:none" points="
  249.542,1385.17 2352.76,1385.17 
  "/>
<polyline clip-path="url(#clip972)" style="stroke:#000000; stroke-linecap:butt; stroke-linejoin:round; stroke-width:2; stroke-opacity:0.1; fill:none" points="
  249.542,1059 2352.76,1059 
  "/>
<polyline clip-path="url(#clip972)" style="stroke:#000000; stroke-linecap:butt; stroke-linejoin:round; stroke-width:2; stroke-opacity:0.1; fill:none" points="
  249.542,732.822 2352.76,732.822 
  "/>
<polyline clip-path="url(#clip972)" style="stroke:#000000; stroke-linecap:butt; stroke-linejoin:round; stroke-width:2; stroke-opacity:0.1; fill:none" points="
  249.542,406.648 2352.76,406.648 
  "/>
<polyline clip-path="url(#clip972)" style="stroke:#000000; stroke-linecap:butt; stroke-linejoin:round; stroke-width:2; stroke-opacity:0.1; fill:none" points="
  249.542,80.474 2352.76,80.474 
  "/>
<polyline clip-path="url(#clip970)" style="stroke:#000000; stroke-linecap:butt; stroke-linejoin:round; stroke-width:4; stroke-opacity:1; fill:none" points="
  249.542,1423.18 249.542,47.2441 
  "/>
<polyline clip-path="url(#clip970)" style="stroke:#000000; stroke-linecap:butt; stroke-linejoin:round; stroke-width:4; stroke-opacity:1; fill:none" points="
  249.542,1385.17 268.44,1385.17 
  "/>
<polyline clip-path="url(#clip970)" style="stroke:#000000; stroke-linecap:butt; stroke-linejoin:round; stroke-width:4; stroke-opacity:1; fill:none" points="
  249.542,1059 268.44,1059 
  "/>
<polyline clip-path="url(#clip970)" style="stroke:#000000; stroke-linecap:butt; stroke-linejoin:round; stroke-width:4; stroke-opacity:1; fill:none" points="
  249.542,732.822 268.44,732.822 
  "/>
<polyline clip-path="url(#clip970)" style="stroke:#000000; stroke-linecap:butt; stroke-linejoin:round; stroke-width:4; stroke-opacity:1; fill:none" points="
  249.542,406.648 268.44,406.648 
  "/>
<polyline clip-path="url(#clip970)" style="stroke:#000000; stroke-linecap:butt; stroke-linejoin:round; stroke-width:4; stroke-opacity:1; fill:none" points="
  249.542,80.474 268.44,80.474 
  "/>
<path clip-path="url(#clip970)" d="M126.205 1370.97 Q122.593 1370.97 120.765 1374.53 Q118.959 1378.08 118.959 1385.2 Q118.959 1392.31 120.765 1395.88 Q122.593 1399.42 126.205 1399.42 Q129.839 1399.42 131.644 1395.88 Q133.473 1392.31 133.473 1385.2 Q133.473 1378.08 131.644 1374.53 Q129.839 1370.97 126.205 1370.97 M126.205 1367.27 Q132.015 1367.27 135.07 1371.87 Q138.149 1376.45 138.149 1385.2 Q138.149 1393.93 135.07 1398.54 Q132.015 1403.12 126.205 1403.12 Q120.394 1403.12 117.316 1398.54 Q114.26 1393.93 114.26 1385.2 Q114.26 1376.45 117.316 1371.87 Q120.394 1367.27 126.205 1367.27 Z" fill="#000000" fill-rule="evenodd" fill-opacity="1" /><path clip-path="url(#clip970)" d="M146.366 1396.57 L151.251 1396.57 L151.251 1402.45 L146.366 1402.45 L146.366 1396.57 Z" fill="#000000" fill-rule="evenodd" fill-opacity="1" /><path clip-path="url(#clip970)" d="M171.436 1370.97 Q167.825 1370.97 165.996 1374.53 Q164.19 1378.08 164.19 1385.2 Q164.19 1392.31 165.996 1395.88 Q167.825 1399.42 171.436 1399.42 Q175.07 1399.42 176.876 1395.88 Q178.704 1392.31 178.704 1385.2 Q178.704 1378.08 176.876 1374.53 Q175.07 1370.97 171.436 1370.97 M171.436 1367.27 Q177.246 1367.27 180.301 1371.87 Q183.38 1376.45 183.38 1385.2 Q183.38 1393.93 180.301 1398.54 Q177.246 1403.12 171.436 1403.12 Q165.626 1403.12 162.547 1398.54 Q159.491 1393.93 159.491 1385.2 Q159.491 1376.45 162.547 1371.87 Q165.626 1367.27 171.436 1367.27 Z" fill="#000000" fill-rule="evenodd" fill-opacity="1" /><path clip-path="url(#clip970)" d="M201.598 1370.97 Q197.987 1370.97 196.158 1374.53 Q194.352 1378.08 194.352 1385.2 Q194.352 1392.31 196.158 1395.88 Q197.987 1399.42 201.598 1399.42 Q205.232 1399.42 207.037 1395.88 Q208.866 1392.31 208.866 1385.2 Q208.866 1378.08 207.037 1374.53 Q205.232 1370.97 201.598 1370.97 M201.598 1367.27 Q207.408 1367.27 210.463 1371.87 Q213.542 1376.45 213.542 1385.2 Q213.542 1393.93 210.463 1398.54 Q207.408 1403.12 201.598 1403.12 Q195.787 1403.12 192.709 1398.54 Q189.653 1393.93 189.653 1385.2 Q189.653 1376.45 192.709 1371.87 Q195.787 1367.27 201.598 1367.27 Z" fill="#000000" fill-rule="evenodd" fill-opacity="1" /><path clip-path="url(#clip970)" d="M127.2 1044.79 Q123.589 1044.79 121.76 1048.36 Q119.955 1051.9 119.955 1059.03 Q119.955 1066.14 121.76 1069.7 Q123.589 1073.24 127.2 1073.24 Q130.834 1073.24 132.64 1069.7 Q134.468 1066.14 134.468 1059.03 Q134.468 1051.9 132.64 1048.36 Q130.834 1044.79 127.2 1044.79 M127.2 1041.09 Q133.01 1041.09 136.066 1045.7 Q139.144 1050.28 139.144 1059.03 Q139.144 1067.76 136.066 1072.36 Q133.01 1076.95 127.2 1076.95 Q121.39 1076.95 118.311 1072.36 Q115.256 1067.76 115.256 1059.03 Q115.256 1050.28 118.311 1045.7 Q121.39 1041.09 127.2 1041.09 Z" fill="#000000" fill-rule="evenodd" fill-opacity="1" /><path clip-path="url(#clip970)" d="M147.362 1070.4 L152.246 1070.4 L152.246 1076.28 L147.362 1076.28 L147.362 1070.4 Z" fill="#000000" fill-rule="evenodd" fill-opacity="1" /><path clip-path="url(#clip970)" d="M166.459 1072.34 L182.778 1072.34 L182.778 1076.28 L160.834 1076.28 L160.834 1072.34 Q163.496 1069.59 168.079 1064.96 Q172.686 1060.3 173.866 1058.96 Q176.112 1056.44 176.991 1054.7 Q177.894 1052.94 177.894 1051.25 Q177.894 1048.5 175.95 1046.76 Q174.028 1045.03 170.927 1045.03 Q168.727 1045.03 166.274 1045.79 Q163.843 1046.55 161.065 1048.1 L161.065 1043.38 Q163.89 1042.25 166.343 1041.67 Q168.797 1041.09 170.834 1041.09 Q176.204 1041.09 179.399 1043.78 Q182.593 1046.46 182.593 1050.95 Q182.593 1053.08 181.783 1055 Q180.996 1056.9 178.889 1059.49 Q178.311 1060.17 175.209 1063.38 Q172.107 1066.58 166.459 1072.34 Z" fill="#000000" fill-rule="evenodd" fill-opacity="1" /><path clip-path="url(#clip970)" d="M192.639 1041.72 L210.996 1041.72 L210.996 1045.65 L196.922 1045.65 L196.922 1054.12 Q197.94 1053.78 198.959 1053.61 Q199.977 1053.43 200.996 1053.43 Q206.783 1053.43 210.162 1056.6 Q213.542 1059.77 213.542 1065.19 Q213.542 1070.77 210.07 1073.87 Q206.598 1076.95 200.278 1076.95 Q198.102 1076.95 195.834 1076.58 Q193.588 1076.21 191.181 1075.47 L191.181 1070.77 Q193.264 1071.9 195.487 1072.46 Q197.709 1073.01 200.186 1073.01 Q204.19 1073.01 206.528 1070.91 Q208.866 1068.8 208.866 1065.19 Q208.866 1061.58 206.528 1059.47 Q204.19 1057.36 200.186 1057.36 Q198.311 1057.36 196.436 1057.78 Q194.584 1058.2 192.639 1059.08 L192.639 1041.72 Z" fill="#000000" fill-rule="evenodd" fill-opacity="1" /><path clip-path="url(#clip970)" d="M126.205 718.621 Q122.593 718.621 120.765 722.186 Q118.959 725.727 118.959 732.857 Q118.959 739.963 120.765 743.528 Q122.593 747.07 126.205 747.07 Q129.839 747.07 131.644 743.528 Q133.473 739.963 133.473 732.857 Q133.473 725.727 131.644 722.186 Q129.839 718.621 126.205 718.621 M126.205 714.917 Q132.015 714.917 135.07 719.524 Q138.149 724.107 138.149 732.857 Q138.149 741.584 135.07 746.19 Q132.015 750.773 126.205 750.773 Q120.394 750.773 117.316 746.19 Q114.26 741.584 114.26 732.857 Q114.26 724.107 117.316 719.524 Q120.394 714.917 126.205 714.917 Z" fill="#000000" fill-rule="evenodd" fill-opacity="1" /><path clip-path="url(#clip970)" d="M146.366 744.222 L151.251 744.222 L151.251 750.102 L146.366 750.102 L146.366 744.222 Z" fill="#000000" fill-rule="evenodd" fill-opacity="1" /><path clip-path="url(#clip970)" d="M161.482 715.542 L179.839 715.542 L179.839 719.477 L165.765 719.477 L165.765 727.949 Q166.783 727.602 167.802 727.44 Q168.82 727.255 169.839 727.255 Q175.626 727.255 179.005 730.426 Q182.385 733.598 182.385 739.014 Q182.385 744.593 178.913 747.695 Q175.44 750.773 169.121 750.773 Q166.945 750.773 164.677 750.403 Q162.431 750.033 160.024 749.292 L160.024 744.593 Q162.107 745.727 164.329 746.283 Q166.552 746.838 169.028 746.838 Q173.033 746.838 175.371 744.732 Q177.709 742.625 177.709 739.014 Q177.709 735.403 175.371 733.297 Q173.033 731.19 169.028 731.19 Q167.153 731.19 165.278 731.607 Q163.427 732.023 161.482 732.903 L161.482 715.542 Z" fill="#000000" fill-rule="evenodd" fill-opacity="1" /><path clip-path="url(#clip970)" d="M201.598 718.621 Q197.987 718.621 196.158 722.186 Q194.352 725.727 194.352 732.857 Q194.352 739.963 196.158 743.528 Q197.987 747.07 201.598 747.07 Q205.232 747.07 207.037 743.528 Q208.866 739.963 208.866 732.857 Q208.866 725.727 207.037 722.186 Q205.232 718.621 201.598 718.621 M201.598 714.917 Q207.408 714.917 210.463 719.524 Q213.542 724.107 213.542 732.857 Q213.542 741.584 210.463 746.19 Q207.408 750.773 201.598 750.773 Q195.787 750.773 192.709 746.19 Q189.653 741.584 189.653 732.857 Q189.653 724.107 192.709 719.524 Q195.787 714.917 201.598 714.917 Z" fill="#000000" fill-rule="evenodd" fill-opacity="1" /><path clip-path="url(#clip970)" d="M127.2 392.447 Q123.589 392.447 121.76 396.012 Q119.955 399.553 119.955 406.683 Q119.955 413.789 121.76 417.354 Q123.589 420.896 127.2 420.896 Q130.834 420.896 132.64 417.354 Q134.468 413.789 134.468 406.683 Q134.468 399.553 132.64 396.012 Q130.834 392.447 127.2 392.447 M127.2 388.743 Q133.01 388.743 136.066 393.35 Q139.144 397.933 139.144 406.683 Q139.144 415.41 136.066 420.016 Q133.01 424.599 127.2 424.599 Q121.39 424.599 118.311 420.016 Q115.256 415.41 115.256 406.683 Q115.256 397.933 118.311 393.35 Q121.39 388.743 127.2 388.743 Z" fill="#000000" fill-rule="evenodd" fill-opacity="1" /><path clip-path="url(#clip970)" d="M147.362 418.048 L152.246 418.048 L152.246 423.928 L147.362 423.928 L147.362 418.048 Z" fill="#000000" fill-rule="evenodd" fill-opacity="1" /><path clip-path="url(#clip970)" d="M161.251 389.368 L183.473 389.368 L183.473 391.359 L170.927 423.928 L166.042 423.928 L177.848 393.303 L161.251 393.303 L161.251 389.368 Z" fill="#000000" fill-rule="evenodd" fill-opacity="1" /><path clip-path="url(#clip970)" d="M192.639 389.368 L210.996 389.368 L210.996 393.303 L196.922 393.303 L196.922 401.775 Q197.94 401.428 198.959 401.266 Q199.977 401.081 200.996 401.081 Q206.783 401.081 210.162 404.252 Q213.542 407.424 213.542 412.84 Q213.542 418.419 210.07 421.521 Q206.598 424.599 200.278 424.599 Q198.102 424.599 195.834 424.229 Q193.588 423.859 191.181 423.118 L191.181 418.419 Q193.264 419.553 195.487 420.109 Q197.709 420.664 200.186 420.664 Q204.19 420.664 206.528 418.558 Q208.866 416.451 208.866 412.84 Q208.866 409.229 206.528 407.123 Q204.19 405.016 200.186 405.016 Q198.311 405.016 196.436 405.433 Q194.584 405.849 192.639 406.729 L192.639 389.368 Z" fill="#000000" fill-rule="evenodd" fill-opacity="1" /><path clip-path="url(#clip970)" d="M117.015 93.8189 L124.654 93.8189 L124.654 67.4533 L116.343 69.1199 L116.343 64.8607 L124.607 63.194 L129.283 63.194 L129.283 93.8189 L136.922 93.8189 L136.922 97.754 L117.015 97.754 L117.015 93.8189 Z" fill="#000000" fill-rule="evenodd" fill-opacity="1" /><path clip-path="url(#clip970)" d="M146.366 91.8744 L151.251 91.8744 L151.251 97.754 L146.366 97.754 L146.366 91.8744 Z" fill="#000000" fill-rule="evenodd" fill-opacity="1" /><path clip-path="url(#clip970)" d="M171.436 66.2727 Q167.825 66.2727 165.996 69.8375 Q164.19 73.3791 164.19 80.5087 Q164.19 87.6152 165.996 91.18 Q167.825 94.7216 171.436 94.7216 Q175.07 94.7216 176.876 91.18 Q178.704 87.6152 178.704 80.5087 Q178.704 73.3791 176.876 69.8375 Q175.07 66.2727 171.436 66.2727 M171.436 62.569 Q177.246 62.569 180.301 67.1755 Q183.38 71.7588 183.38 80.5087 Q183.38 89.2355 180.301 93.842 Q177.246 98.4253 171.436 98.4253 Q165.626 98.4253 162.547 93.842 Q159.491 89.2355 159.491 80.5087 Q159.491 71.7588 162.547 67.1755 Q165.626 62.569 171.436 62.569 Z" fill="#000000" fill-rule="evenodd" fill-opacity="1" /><path clip-path="url(#clip970)" d="M201.598 66.2727 Q197.987 66.2727 196.158 69.8375 Q194.352 73.3791 194.352 80.5087 Q194.352 87.6152 196.158 91.18 Q197.987 94.7216 201.598 94.7216 Q205.232 94.7216 207.037 91.18 Q208.866 87.6152 208.866 80.5087 Q208.866 73.3791 207.037 69.8375 Q205.232 66.2727 201.598 66.2727 M201.598 62.569 Q207.408 62.569 210.463 67.1755 Q213.542 71.7588 213.542 80.5087 Q213.542 89.2355 210.463 93.842 Q207.408 98.4253 201.598 98.4253 Q195.787 98.4253 192.709 93.842 Q189.653 89.2355 189.653 80.5087 Q189.653 71.7588 192.709 67.1755 Q195.787 62.569 201.598 62.569 Z" fill="#000000" fill-rule="evenodd" fill-opacity="1" /><path clip-path="url(#clip970)" d="M16.4842 896.471 L16.4842 890.042 L58.5933 890.042 L58.5933 866.903 L64.0042 866.903 L64.0042 896.471 L16.4842 896.471 Z" fill="#000000" fill-rule="evenodd" fill-opacity="1" /><path clip-path="url(#clip970)" d="M32.4621 847.742 Q32.4621 852.452 36.1542 855.19 Q39.8145 857.927 46.212 857.927 Q52.6095 857.927 56.3017 855.221 Q59.9619 852.484 59.9619 847.742 Q59.9619 843.063 56.2698 840.326 Q52.5777 837.588 46.212 837.588 Q39.8781 837.588 36.186 840.326 Q32.4621 843.063 32.4621 847.742 M27.4968 847.742 Q27.4968 840.103 32.4621 835.742 Q37.4273 831.382 46.212 831.382 Q54.9649 831.382 59.9619 835.742 Q64.9272 840.103 64.9272 847.742 Q64.9272 855.412 59.9619 859.773 Q54.9649 864.102 46.212 864.102 Q37.4273 864.102 32.4621 859.773 Q27.4968 855.412 27.4968 847.742 Z" fill="#000000" fill-rule="evenodd" fill-opacity="1" /><path clip-path="url(#clip970)" d="M29.7248 796.02 L35.1993 796.02 Q33.8307 798.503 33.1623 801.017 Q32.4621 803.5 32.4621 806.046 Q32.4621 811.744 36.0905 814.895 Q39.6872 818.046 46.212 818.046 Q52.7369 818.046 56.3653 814.895 Q59.9619 811.744 59.9619 806.046 Q59.9619 803.5 59.2935 801.017 Q58.5933 798.503 57.2247 796.02 L62.6355 796.02 Q63.7814 798.471 64.3543 801.113 Q64.9272 803.723 64.9272 806.683 Q64.9272 814.736 59.8664 819.478 Q54.8057 824.22 46.212 824.22 Q37.491 824.22 32.4939 819.446 Q27.4968 814.64 27.4968 806.301 Q27.4968 803.596 28.0697 801.017 Q28.6108 798.439 29.7248 796.02 Z" fill="#000000" fill-rule="evenodd" fill-opacity="1" /><path clip-path="url(#clip970)" d="M46.0847 769.635 Q46.0847 776.732 47.7079 779.47 Q49.3312 782.207 53.2461 782.207 Q56.3653 782.207 58.2114 780.17 Q60.0256 778.101 60.0256 774.568 Q60.0256 769.698 56.5881 766.77 Q53.1188 763.81 47.3897 763.81 L46.0847 763.81 L46.0847 769.635 M43.6657 757.953 L64.0042 757.953 L64.0042 763.81 L58.5933 763.81 Q61.8398 765.815 63.3994 768.807 Q64.9272 771.799 64.9272 776.128 Q64.9272 781.602 61.8716 784.849 Q58.7843 788.063 53.6281 788.063 Q47.6125 788.063 44.5569 784.053 Q41.5014 780.011 41.5014 772.022 L41.5014 763.81 L40.9285 763.81 Q36.8862 763.81 34.6901 766.484 Q32.4621 769.125 32.4621 773.931 Q32.4621 776.987 33.1941 779.883 Q33.9262 782.78 35.3903 785.453 L29.9795 785.453 Q28.7381 782.239 28.1334 779.215 Q27.4968 776.191 27.4968 773.327 Q27.4968 765.592 31.5072 761.773 Q35.5176 757.953 43.6657 757.953 Z" fill="#000000" fill-rule="evenodd" fill-opacity="1" /><path clip-path="url(#clip970)" d="M14.479 745.89 L14.479 740.034 L64.0042 740.034 L64.0042 745.89 L14.479 745.89 Z" fill="#000000" fill-rule="evenodd" fill-opacity="1" /><path clip-path="url(#clip970)" d="M21.7677 700.376 L58.7206 700.376 L58.7206 692.609 Q58.7206 682.774 54.2646 678.223 Q49.8086 673.64 40.1964 673.64 Q30.6479 673.64 26.2237 678.223 Q21.7677 682.774 21.7677 692.609 L21.7677 700.376 M16.4842 706.805 L16.4842 693.596 Q16.4842 679.783 22.2451 673.321 Q27.9743 666.86 40.1964 666.86 Q52.4822 666.86 58.2432 673.353 Q64.0042 679.846 64.0042 693.596 L64.0042 706.805 L16.4842 706.805 Z" fill="#000000" fill-rule="evenodd" fill-opacity="1" /><path clip-path="url(#clip970)" d="M20.8447 637.323 Q20.8447 644.326 26.0645 648.463 Q31.2844 652.569 40.2919 652.569 Q49.2675 652.569 54.4874 648.463 Q59.7073 644.326 59.7073 637.323 Q59.7073 630.321 54.4874 626.247 Q49.2675 622.141 40.2919 622.141 Q31.2844 622.141 26.0645 626.247 Q20.8447 630.321 20.8447 637.323 M15.6248 637.323 Q15.6248 627.329 22.3406 621.345 Q29.0246 615.362 40.2919 615.362 Q51.5274 615.362 58.2432 621.345 Q64.9272 627.329 64.9272 637.323 Q64.9272 647.349 58.2432 653.365 Q51.5592 659.349 40.2919 659.349 Q29.0246 659.349 22.3406 653.365 Q15.6248 647.349 15.6248 637.323 Z" fill="#000000" fill-rule="evenodd" fill-opacity="1" /><path clip-path="url(#clip970)" d="M18.0438 576.817 L24.314 576.817 Q22.5634 580.478 21.704 583.724 Q20.8447 586.971 20.8447 589.994 Q20.8447 595.246 22.8817 598.111 Q24.9187 600.943 28.6745 600.943 Q31.8255 600.943 33.4488 599.065 Q35.0402 597.156 36.0269 591.872 L36.8226 587.989 Q38.1912 580.796 41.6605 577.39 Q45.098 573.953 50.8908 573.953 Q57.7976 573.953 61.3624 578.6 Q64.9272 583.215 64.9272 592.159 Q64.9272 595.532 64.1633 599.352 Q63.3994 603.139 61.9035 607.214 L55.2831 607.214 Q57.4793 603.299 58.5933 599.543 Q59.7073 595.787 59.7073 592.159 Q59.7073 586.652 57.543 583.66 Q55.3786 580.669 51.3682 580.669 Q47.8671 580.669 45.8937 582.833 Q43.9204 584.965 42.9337 589.867 L42.1698 593.782 Q40.7375 600.975 37.682 604.19 Q34.6264 607.404 29.1837 607.404 Q22.8817 607.404 19.2532 602.98 Q15.6248 598.524 15.6248 590.726 Q15.6248 587.384 16.2295 583.915 Q16.8343 580.446 18.0438 576.817 Z" fill="#000000" fill-rule="evenodd" fill-opacity="1" /><polyline clip-path="url(#clip972)" style="stroke:#009af9; stroke-linecap:butt; stroke-linejoin:round; stroke-width:4; stroke-opacity:1; fill:none" points="
  309.067,1194.47 311.053,1256.16 313.039,1276.49 315.025,1276.08 317.012,1256.77 318.998,1205.6 320.984,1092.24 322.97,884.138 324.956,595.199 326.942,667.94 
  328.928,1012.49 330.915,1167.41 332.901,1220.32 334.887,1221.46 336.873,1164.9 338.859,1007.16 340.845,952.224 342.832,1122.36 344.818,1206.6 346.804,1214.76 
  348.79,1158.73 350.776,1018.22 352.762,956.886 354.748,919.852 356.735,856.238 358.721,864.041 360.707,1063.86 362.693,1132.3 364.679,1108.28 366.665,1141.16 
  368.651,1194.12 370.638,1182.95 372.624,1074.63 374.61,857.904 376.596,835.825 378.582,1038.39 380.568,1185.81 382.555,1242.6 384.541,1248.73 386.527,1210.18 
  388.513,1191.38 390.499,1220.74 392.485,1198.93 394.471,1128.69 396.458,1005.43 398.444,1040.27 400.43,1153.08 402.416,1163.78 404.402,1072.68 406.388,815.765 
  408.374,683.267 410.361,875.621 412.347,849.797 414.333,954.097 416.319,1119.45 418.305,1170.08 420.291,1144.08 422.278,1012.69 424.264,909.319 426.25,975.279 
  428.236,839.576 430.222,661.865 432.208,929.642 434.194,1085.89 436.181,1069.18 438.167,973.328 440.153,1058.28 442.139,1132.32 444.125,1192.88 446.111,1193.42 
  448.097,1184.43 450.084,1225.85 452.07,1236.3 454.056,1192.09 456.042,1054.37 458.028,882.565 460.014,914.462 462.001,1011.81 463.987,1153.23 465.973,1221.35 
  467.959,1224.82 469.945,1176.75 471.931,1158.98 473.917,1179.54 475.904,1152.08 477.89,1079.75 479.876,887.679 481.862,788.012 483.848,819.275 485.834,946.376 
  487.82,1135.51 489.807,1207.95 491.793,1214.54 493.779,1159.42 495.765,1017.09 497.751,919.846 499.737,1072.19 501.724,1172.4 503.71,1176.69 505.696,1094.57 
  507.682,858.438 509.668,548.81 511.654,778.362 513.64,1057.68 515.627,1153.85 517.613,1208.5 519.599,1253.03 521.585,1262.92 523.571,1239.7 525.557,1158.25 
  527.543,1041.95 529.53,1131.37 531.516,1220.82 533.502,1241.13 535.488,1216.54 537.474,1147.43 539.46,1074 541.447,876.361 543.433,487.541 545.419,583.603 
  547.405,878.35 549.391,1037.64 551.377,1015.99 553.363,972.857 555.35,1104.83 557.336,1159.5 559.322,1121.16 561.308,1058.37 563.294,1055.9 565.28,1050.37 
  567.266,918.413 569.253,984.049 571.239,1124.33 573.225,1171.19 575.211,1188.08 577.197,1189.26 579.183,1116.96 581.17,1043.75 583.156,1153.09 585.142,1217.29 
  587.128,1221.17 589.114,1179.46 591.1,1061.71 593.086,769.469 595.073,397.332 597.059,430.941 599.045,816.893 601.031,1072.22 603.017,1169.56 605.003,1186.68 
  606.989,1130.59 608.976,1025.46 610.962,1073.21 612.948,1132.5 614.934,1117.61 616.92,1146.75 618.906,1203.42 620.893,1211.44 622.879,1168.97 624.865,1048.97 
  626.851,897.564 628.837,804.475 630.823,427.252 632.809,158.009 634.796,292.114 636.782,691.793 638.768,975.111 640.754,1049.93 642.74,1053.06 644.726,982.668 
  646.712,889.552 648.699,989.763 650.685,963.837 652.671,796.597 654.657,838.283 656.643,984.751 658.629,1069.85 660.616,1077.11 662.602,1043.15 664.588,1067.94 
  666.574,1079.43 668.56,962.378 670.546,605.148 672.532,118.515 674.519,421.233 676.505,799.619 678.491,961.007 680.477,929.361 682.463,694.373 684.449,486.652 
  686.435,730.931 688.422,834.249 690.408,1004.59 692.394,1125.79 694.38,1137.11 696.366,1178.63 698.352,1246.14 700.339,1275.34 702.325,1283.77 704.311,1278.38 
  706.297,1254.75 708.283,1195.05 710.269,1124.87 712.255,1109.56 714.242,1030.23 716.228,909.444 718.214,656.743 720.2,322.137 722.186,646.681 724.172,794.713 
  726.158,866.104 728.145,1080.19 730.131,1178.19 732.117,1193.09 734.103,1137.11 736.089,1108.58 738.075,1186.07 740.062,1211.28 742.048,1166.13 744.034,1079.46 
  746.02,1098.56 748.006,1133.66 749.992,1089.36 751.978,1111.66 753.965,1146.59 755.951,1097.63 757.937,926.364 759.923,509.781 761.909,202.601 763.895,394.106 
  765.881,180.236 767.868,247.853 769.854,792.277 771.84,1053.16 773.826,1154.19 775.812,1182 777.798,1148.93 779.785,1051.97 781.771,939.513 783.757,1023.34 
  785.743,1150.63 787.729,1159.9 789.715,1120.63 791.701,1192.64 793.688,1238.7 795.674,1228.54 797.66,1149.65 799.646,995.21 801.632,1057.8 803.618,1174.09 
  805.604,1232.77 807.591,1250.31 809.577,1252.87 811.563,1257.72 813.549,1224.56 815.535,1126.65 817.521,1053.09 819.508,1058.99 821.494,1059.77 823.48,1047.81 
  825.466,1008.4 827.452,771.011 829.438,413.798 831.424,610.999 833.411,899.282 835.397,922.184 837.383,911.038 839.369,1053.81 841.355,1196.57 843.341,1259.38 
  845.328,1286.5 847.314,1297.23 849.3,1297.09 851.286,1284.69 853.272,1249.15 855.258,1158.41 857.244,1038.91 859.231,1103.74 861.217,1160.84 863.203,1121.32 
  865.189,1037.13 867.175,987.106 869.161,915.934 871.147,710.996 873.134,685.278 875.12,831.766 877.106,686.459 879.092,672.909 881.078,901.967 883.064,1041.45 
  885.051,1120.78 887.037,1121.99 889.023,1148.25 891.009,1198.16 892.995,1248.37 894.981,1258.07 896.967,1228.62 898.954,1140.41 900.94,1116.41 902.926,1209.13 
  904.912,1245.99 906.898,1232.45 908.884,1159.65 910.87,1029.86 912.857,1005.39 914.843,886.507 916.829,683.381 918.815,540.666 920.801,835.807 922.787,1110.6 
  924.774,1228.29 926.76,1281.07 928.746,1308.06 930.732,1323.13 932.718,1331.78 934.704,1336.42 936.69,1338.03 938.677,1336.75 940.663,1331.89 942.649,1321.39 
  944.635,1299.94 946.621,1252.85 948.607,1138.68 950.593,944.645 952.58,973.977 954.566,1022.53 956.552,1030.85 958.538,1184.14 960.524,1270.92 962.51,1306.5 
  964.497,1321.21 966.483,1325 968.469,1319.24 970.455,1298.13 972.441,1240.29 974.427,1121.96 976.413,1145.83 978.4,1250.27 980.386,1286.81 982.372,1280.71 
  984.358,1255.87 986.344,1233.56 988.33,1183.54 990.316,1228.68 992.303,1259.67 994.289,1235.94 996.275,1138.51 998.261,953.261 1000.25,855.71 1002.23,1039.06 
  1004.22,1205.78 1006.21,1282.22 1008.19,1315.91 1010.18,1332.67 1012.16,1341.71 1014.15,1346.65 1016.14,1349.05 1018.12,1349.57 1020.11,1348.41 1022.09,1345.36 
  1024.08,1339.79 1026.07,1330.25 1028.05,1313.58 1030.04,1282.1 1032.03,1214.98 1034.01,1058.3 1036,815.302 1037.98,791.448 1039.97,874.359 1041.96,1038.75 
  1043.94,1198.49 1045.93,1264.48 1047.91,1287.6 1049.9,1284.82 1051.89,1248.87 1053.87,1196.43 1055.86,1193.55 1057.85,1172.91 1059.83,1230.45 1061.82,1251.42 
  1063.8,1229.74 1065.79,1212.89 1067.78,1201.53 1069.76,1237.45 1071.75,1227.36 1073.73,1146.58 1075.72,924.454 1077.71,715.128 1079.69,956.864 1081.68,1139.68 
  1083.67,1229.18 1085.65,1262.99 1087.64,1266.93 1089.62,1246.05 1091.61,1184.45 1093.6,1026.9 1095.58,757.377 1097.57,794.385 1099.55,985.467 1101.54,1014.74 
  1103.53,867.35 1105.51,628.247 1107.5,837.902 1109.49,991.997 1111.47,1035.43 1113.46,1144.97 1115.44,1173.28 1117.43,1145.01 1119.42,1139.31 1121.4,1126.64 
  1123.39,1201.96 1125.37,1237.52 1127.36,1207.45 1129.35,1174.41 1131.33,1193.22 1133.32,1234.62 1135.31,1242.3 1137.29,1191.01 1139.28,1072.05 1141.26,1010.93 
  1143.25,1171.63 1145.24,1260.17 1147.22,1293.24 1149.21,1304.1 1151.19,1303.21 1153.18,1292.14 1155.17,1266.29 1157.15,1210.48 1159.14,1102.59 1161.13,933.518 
  1163.11,754.942 1165.1,854.886 1167.08,763.895 1169.07,508.171 1171.06,605.423 1173.04,603.576 1175.03,423.138 1177.01,368.844 1179,683.362 1180.99,853.812 
  1182.97,979.758 1184.96,1157.5 1186.95,1244.69 1188.93,1286.14 1190.92,1308.38 1192.9,1321.08 1194.89,1328.05 1196.88,1330.69 1198.86,1329 1200.85,1321.36 
  1202.83,1302.99 1204.82,1260.3 1206.81,1153.33 1208.79,926.479 1210.78,929.742 1212.77,1153.73 1214.75,1264.15 1216.74,1310.93 1218.72,1332.28 1220.71,1341.48 
  1222.7,1341.9 1224.68,1342.29 1226.67,1352.92 1228.65,1358.6 1230.64,1358.84 1232.63,1352.38 1234.61,1335.14 1236.6,1336.9 1238.59,1356.11 1240.57,1364.67 
  1242.56,1367.06 1244.54,1364.87 1246.53,1362.8 1248.52,1369.03 1250.5,1373.03 1252.49,1374.74 1254.47,1375.28 1256.46,1375.24 1258.45,1376.22 1260.43,1377.06 
  1262.42,1377.39 1264.41,1377.36 1266.39,1376.86 1268.38,1375.36 1270.36,1371.26 1272.35,1364.82 1274.34,1369.48 1276.32,1375.1 1278.31,1377.46 1280.29,1378.52 
  1282.28,1379.07 1284.27,1379.38 1286.25,1379.51 1288.24,1379.43 1290.23,1379.2 1292.21,1379.53 1294.2,1379.85 1296.18,1379.97 1298.17,1379.98 1300.16,1379.91 
  1302.14,1379.73 1304.13,1379.36 1306.11,1378.6 1308.1,1376.81 1310.09,1372.42 1312.07,1368.36 1314.06,1373.63 1316.05,1377.26 1318.03,1378.69 1320.02,1379.28 
  1322,1379.53 1323.99,1379.59 1325.98,1379.47 1327.96,1379.08 1329.95,1378.7 1331.93,1378.94 1333.92,1378.95 1335.91,1378.66 1337.89,1378.07 1339.88,1376.92 
  1341.87,1374.42 1343.85,1368.48 1345.84,1362.61 1347.82,1369.05 1349.81,1373.3 1351.8,1374.06 1353.78,1372.38 1355.77,1368.88 1357.75,1370.26 1359.74,1371.47 
  1361.73,1369.48 1363.71,1362.68 1365.7,1347.36 1367.69,1346.41 1369.67,1361.18 1371.66,1367.58 1373.64,1369.44 1375.63,1369.16 1377.62,1367.27 1379.6,1364.9 
  1381.59,1362.87 1383.57,1358.14 1385.56,1347.04 1387.55,1320.54 1389.53,1274.41 1391.52,1269.29 1393.5,1294.04 1395.49,1327.99 1397.48,1343.78 1399.46,1348.9 
  1401.45,1349.32 1403.44,1347.04 1405.42,1342.51 1407.41,1335.47 1409.39,1324.98 1411.38,1309.08 1413.37,1283.58 1415.35,1238.7 1417.34,1148.69 1419.32,966.41 
  1421.31,784.321 1423.3,515.594 1425.28,86.1857 1427.27,151.431 1429.26,357.594 1431.24,490.597 1433.23,531.81 1435.21,779.712 1437.2,928.952 1439.19,950.388 
  1441.17,1098.32 1443.16,1209.92 1445.14,1261.28 1447.13,1294.88 1449.12,1314.99 1451.1,1325.78 1453.09,1331.18 1455.08,1332.08 1457.06,1326.94 1459.05,1309.5 
  1461.03,1277.04 1463.02,1280.86 1465.01,1286.31 1466.99,1265.91 1468.98,1197.6 1470.96,1141.48 1472.95,1122.94 1474.94,1190.28 1476.92,1246.77 1478.91,1239.19 
  1480.9,1216.81 1482.88,1237.39 1484.87,1231.59 1486.85,1169.21 1488.84,997.973 1490.83,764.288 1492.81,869.013 1494.8,850.971 1496.78,672.564 1498.77,809.621 
  1500.76,908.786 1502.74,767.115 1504.73,428.348 1506.72,482.655 1508.7,867.675 1510.69,1103.03 1512.67,1220.13 1514.66,1274.14 1516.65,1300.79 1518.63,1312.5 
  1520.62,1310.2 1522.6,1284.45 1524.59,1241.01 1526.58,1282.28 1528.56,1326.45 1530.55,1345.08 1532.54,1352.56 1534.52,1355.04 1536.51,1357.24 1538.49,1358.91 
  1540.48,1362.32 1542.47,1361.91 1544.45,1358.76 1546.44,1362.53 1548.42,1364.73 1550.41,1369.12 1552.4,1372.21 1554.38,1373.41 1556.37,1373.4 1558.36,1371.8 
  1560.34,1367.11 1562.33,1362.58 1564.31,1360.01 1566.3,1359.27 1568.29,1368.16 1570.27,1374.03 1572.26,1376.62 1574.24,1377.93 1576.23,1378.68 1578.22,1379.17 
  1580.2,1379.51 1582.19,1379.74 1584.18,1379.89 1586.16,1379.97 1588.15,1379.96 1590.13,1379.84 1592.12,1379.54 1594.11,1378.92 1596.09,1377.57 1598.08,1374.41 
  1600.06,1367.28 1602.05,1359.57 1604.04,1364.29 1606.02,1371.98 1608.01,1376.11 1610,1377.22 1611.98,1376.1 1613.97,1374.39 1615.95,1376.29 1617.94,1377.06 
  1619.93,1378.16 1621.91,1378.57 1623.9,1377.28 1625.88,1373.37 1627.87,1372.53 1629.86,1377.06 1631.84,1379.29 1633.83,1380.16 1635.82,1380.46 1637.8,1380.44 
  1639.79,1380.1 1641.77,1379.19 1643.76,1376.93 1645.75,1373.2 1647.73,1373.3 1649.72,1372.34 1651.7,1371.71 1653.69,1376.16 1655.68,1378.75 1657.66,1379.78 
  1659.65,1380.2 1661.64,1380.36 1663.62,1380.38 1665.61,1380.3 1667.59,1380.14 1669.58,1379.91 1671.57,1379.57 1673.55,1379.09 1675.54,1378.37 1677.52,1377.14 
  1679.51,1374.68 1681.5,1369.43 1683.48,1364.18 1685.47,1364.94 1687.46,1368.09 1689.44,1369.33 1691.43,1368.93 1693.41,1370.65 1695.4,1371.1 1697.39,1369.86 
  1699.37,1366.9 1701.36,1362.31 1703.34,1360.21 1705.33,1359.06 1707.32,1354.83 1709.3,1347.22 1711.29,1334.99 1713.28,1317.4 1715.26,1286.31 1717.25,1226.76 
  1719.23,1088.69 1721.22,781.35 1723.21,658.151 1725.19,831.158 1727.18,1003.95 1729.16,1038.74 1731.15,945.946 1733.14,817.758 1735.12,1020.22 1737.11,1193.81 
  1739.1,1264.9 1741.08,1285.92 1743.07,1268.7 1745.05,1252.34 1747.04,1299.87 1749.03,1334.63 1751.01,1350.06 1753,1357.64 1754.98,1361.64 1756.97,1363.49 
  1758.96,1363.44 1760.94,1360.77 1762.93,1353.04 1764.92,1341.62 1766.9,1335.45 1768.89,1309.8 1770.87,1243.76 1772.86,1223.72 1774.85,1293.93 1776.83,1331.36 
  1778.82,1341.45 1780.8,1352.74 1782.79,1359.42 1784.78,1365.28 1786.76,1370.29 1788.75,1373.07 1790.73,1374.79 1792.72,1375.44 1794.71,1374.32 1796.69,1373.47 
  1798.68,1373.79 1800.67,1371.47 1802.65,1370.94 1804.64,1375.72 1806.62,1378.14 1808.61,1378.98 1810.6,1379 1812.58,1378.43 1814.57,1377.38 1816.55,1374.19 
  1818.54,1366.45 1820.53,1364.16 1822.51,1372.11 1824.5,1376.15 1826.49,1377.28 1828.47,1376.89 1830.46,1375.03 1832.44,1370.45 1834.43,1360.81 1836.42,1352.27 
  1838.4,1335.08 1840.39,1306.8 1842.37,1323.87 1844.36,1354.74 1846.35,1368.03 1848.33,1373.28 1850.32,1374.84 1852.31,1375.47 1854.29,1377.44 1856.28,1377.56 
  1858.26,1377.54 1860.25,1379.38 1862.24,1380.06 1864.22,1379.5 1866.21,1377.79 1868.19,1378.06 1870.18,1379.75 1872.17,1379.86 1874.15,1378.43 1876.14,1375.16 
  1878.13,1374.58 1880.11,1374.73 1882.1,1371.64 1884.08,1373.88 1886.07,1375.28 1888.06,1376.83 1890.04,1379.49 1892.03,1380.57 1894.01,1381.61 1896,1382.18 
  1897.99,1382.38 1899.97,1382.35 1901.96,1382.09 1903.95,1381.45 1905.93,1380.1 1907.92,1379.13 1909.9,1378.26 1911.89,1375.27 1913.88,1368.64 1915.86,1362.02 
  1917.85,1354.58 1919.83,1361.96 1921.82,1372.41 1923.81,1375.79 1925.79,1375.38 1927.78,1371.82 1929.77,1368.02 1931.75,1374.37 1933.74,1378.64 1935.72,1379.88 
  1937.71,1379.79 1939.7,1380.02 1941.68,1380.04 1943.67,1379.54 1945.65,1377.72 1947.64,1374.21 1949.63,1374.87 1951.61,1376.88 1953.6,1376.92 1955.59,1375.04 
  1957.57,1375.94 1959.56,1379.48 1961.54,1380.74 1963.53,1380.37 1965.52,1378.4 1967.5,1376.04 1969.49,1373.74 1971.47,1377.26 1973.46,1379.81 1975.45,1380.62 
  1977.43,1381.82 1979.42,1382.44 1981.41,1382.51 1983.39,1382.13 1985.38,1381.55 1987.36,1381.24 1989.35,1381.07 1991.34,1379.48 1993.32,1377.91 1995.31,1379.78 
  1997.29,1380.75 1999.28,1380.17 2001.27,1377.75 2003.25,1371.37 2005.24,1362.34 2007.23,1362.48 2009.21,1371.06 2011.2,1377.78 2013.18,1380.51 2015.17,1381.59 
  2017.16,1381.77 2019.14,1380.94 2021.13,1379.44 2023.11,1380.15 2025.1,1381.53 2027.09,1381.67 2029.07,1381.59 2031.06,1381.47 2033.05,1380.41 2035.03,1379.82 
  2037.02,1381.04 2039,1381.14 2040.99,1380.91 2042.98,1382.13 2044.96,1382.78 2046.95,1382.48 2048.93,1381.57 2050.92,1381.79 2052.91,1381.9 2054.89,1380.55 
  2056.88,1378.7 2058.87,1378.78 2060.85,1381.1 2062.84,1381.96 2064.82,1382.44 2066.81,1383.14 2068.8,1383.35 2070.78,1383 2072.77,1381.87 2074.75,1380.75 
  2076.74,1382.14 2078.73,1383.05 2080.71,1383.26 2082.7,1383.07 2084.69,1382.43 2086.67,1381.52 2088.66,1379.68 2090.64,1374.72 2092.63,1370.82 2094.62,1376.02 
  2096.6,1380.32 2098.59,1381.97 2100.57,1382.36 2102.56,1381.67 2104.55,1380.36 2106.53,1381.59 2108.52,1382.89 2110.51,1383.34 2112.49,1383.26 2114.48,1382.59 
  2116.46,1380.94 2118.45,1379.92 2120.44,1380.32 2122.42,1381.07 2124.41,1382.29 2126.39,1382.94 2128.38,1382.99 2130.37,1382.61 2132.35,1383.03 2134.34,1383.24 
  2136.33,1383.26 2138.31,1382.94 2140.3,1381.84 2142.28,1380.33 2144.27,1378.77 2146.26,1380.93 2148.24,1382.76 2150.23,1383.44 2152.21,1383.48 2154.2,1383.13 
  2156.19,1383.06 2158.17,1383.05 2160.16,1382.43 2162.15,1381.35 2164.13,1380.34 2166.12,1381.05 2168.1,1381.1 2170.09,1379.01 2172.08,1375.35 2174.06,1377.74 
  2176.05,1379.72 2178.03,1378.99 2180.02,1380.39 2182.01,1382.3 2183.99,1382.98 2185.98,1382.93 2187.97,1382.12 2189.95,1381.7 2191.94,1382.03 2193.92,1381.23 
  2195.91,1381.91 2197.9,1383.13 2199.88,1383.51 2201.87,1383.33 2203.85,1382.49 2205.84,1382.23 2207.83,1382.97 2209.81,1383.55 2211.8,1383.56 2213.78,1383.14 
  2215.77,1383.41 2217.76,1383.77 2219.74,1383.76 2221.73,1383.46 2223.72,1382.54 2225.7,1381.08 2227.69,1380.71 2229.67,1382.37 2231.66,1383.28 2233.65,1383.4 
  2235.63,1382.98 2237.62,1382.59 2239.6,1382.84 2241.59,1382.28 2243.58,1380.49 2245.56,1380.32 2247.55,1381.11 2249.54,1381.33 2251.52,1381.86 2253.51,1382.98 
  2255.49,1383.43 2257.48,1383.35 2259.47,1382.58 2261.45,1380.95 2263.44,1381.53 2265.42,1383.07 2267.41,1383.69 2269.4,1383.83 2271.38,1383.65 2273.37,1382.93 
  2275.36,1381.3 2277.34,1381.05 2279.33,1382.39 2281.31,1383.32 2283.3,1383.9 2285.29,1384.16 2287.27,1384.24 2289.26,1384.21 2291.24,1384.05 2293.23,1383.61 
  
  "/>
<path clip-path="url(#clip970)" d="
M1996.53 196.789 L2282.65 196.789 L2282.65 93.1086 L1996.53 93.1086  Z
  " fill="#ffffff" fill-rule="evenodd" fill-opacity="1"/>
<polyline clip-path="url(#clip970)" style="stroke:#000000; stroke-linecap:butt; stroke-linejoin:round; stroke-width:4; stroke-opacity:1; fill:none" points="
  1996.53,196.789 2282.65,196.789 2282.65,93.1086 1996.53,93.1086 1996.53,196.789 
  "/>
<polyline clip-path="url(#clip970)" style="stroke:#009af9; stroke-linecap:butt; stroke-linejoin:round; stroke-width:4; stroke-opacity:1; fill:none" points="
  2019.9,144.949 2160.11,144.949 
  "/>
<path clip-path="url(#clip970)" d="M2197.32 164.636 Q2195.52 169.266 2193.8 170.678 Q2192.09 172.09 2189.22 172.09 L2185.82 172.09 L2185.82 168.525 L2188.32 168.525 Q2190.08 168.525 2191.05 167.692 Q2192.02 166.858 2193.2 163.756 L2193.97 161.812 L2183.48 136.303 L2187.99 136.303 L2196.1 156.581 L2204.2 136.303 L2208.71 136.303 L2197.32 164.636 Z" fill="#000000" fill-rule="evenodd" fill-opacity="1" /><path clip-path="url(#clip970)" d="M2216 158.293 L2223.64 158.293 L2223.64 131.928 L2215.33 133.595 L2215.33 129.335 L2223.6 127.669 L2228.27 127.669 L2228.27 158.293 L2235.91 158.293 L2235.91 162.229 L2216 162.229 L2216 158.293 Z" fill="#000000" fill-rule="evenodd" fill-opacity="1" /></svg>
