<?xml version="1.0" encoding="utf-8"?>
<svg xmlns="http://www.w3.org/2000/svg" xmlns:xlink="http://www.w3.org/1999/xlink" width="600" height="400" viewBox="0 0 2400 1600">
<defs>
  <clipPath id="clip730">
    <rect x="0" y="0" width="2400" height="1600"/>
  </clipPath>
</defs>
<path clip-path="url(#clip730)" d="
M0 1600 L2400 1600 L2400 0 L0 0  Z
  " fill="#ffffff" fill-rule="evenodd" fill-opacity="1"/>
<defs>
  <clipPath id="clip731">
    <rect x="480" y="0" width="1681" height="1600"/>
  </clipPath>
</defs>
<path clip-path="url(#clip730)" d="
M219.866 1423.18 L2352.76 1423.18 L2352.76 47.2441 L219.866 47.2441  Z
  " fill="#ffffff" fill-rule="evenodd" fill-opacity="1"/>
<defs>
  <clipPath id="clip732">
    <rect x="219" y="47" width="2134" height="1377"/>
  </clipPath>
</defs>
<polyline clip-path="url(#clip732)" style="stroke:#000000; stroke-linecap:butt; stroke-linejoin:round; stroke-width:2; stroke-opacity:0.1; fill:none" points="
  280.231,1423.18 280.231,47.2441 
  "/>
<polyline clip-path="url(#clip732)" style="stroke:#000000; stroke-linecap:butt; stroke-linejoin:round; stroke-width:2; stroke-opacity:0.1; fill:none" points="
  783.271,1423.18 783.271,47.2441 
  "/>
<polyline clip-path="url(#clip732)" style="stroke:#000000; stroke-linecap:butt; stroke-linejoin:round; stroke-width:2; stroke-opacity:0.1; fill:none" points="
  1286.31,1423.18 1286.31,47.2441 
  "/>
<polyline clip-path="url(#clip732)" style="stroke:#000000; stroke-linecap:butt; stroke-linejoin:round; stroke-width:2; stroke-opacity:0.1; fill:none" points="
  1789.35,1423.18 1789.35,47.2441 
  "/>
<polyline clip-path="url(#clip732)" style="stroke:#000000; stroke-linecap:butt; stroke-linejoin:round; stroke-width:2; stroke-opacity:0.1; fill:none" points="
  2292.39,1423.18 2292.39,47.2441 
  "/>
<polyline clip-path="url(#clip730)" style="stroke:#000000; stroke-linecap:butt; stroke-linejoin:round; stroke-width:4; stroke-opacity:1; fill:none" points="
  219.866,1423.18 2352.76,1423.18 
  "/>
<polyline clip-path="url(#clip730)" style="stroke:#000000; stroke-linecap:butt; stroke-linejoin:round; stroke-width:4; stroke-opacity:1; fill:none" points="
  280.231,1423.18 280.231,1404.28 
  "/>
<polyline clip-path="url(#clip730)" style="stroke:#000000; stroke-linecap:butt; stroke-linejoin:round; stroke-width:4; stroke-opacity:1; fill:none" points="
  783.271,1423.18 783.271,1404.28 
  "/>
<polyline clip-path="url(#clip730)" style="stroke:#000000; stroke-linecap:butt; stroke-linejoin:round; stroke-width:4; stroke-opacity:1; fill:none" points="
  1286.31,1423.18 1286.31,1404.28 
  "/>
<polyline clip-path="url(#clip730)" style="stroke:#000000; stroke-linecap:butt; stroke-linejoin:round; stroke-width:4; stroke-opacity:1; fill:none" points="
  1789.35,1423.18 1789.35,1404.28 
  "/>
<polyline clip-path="url(#clip730)" style="stroke:#000000; stroke-linecap:butt; stroke-linejoin:round; stroke-width:4; stroke-opacity:1; fill:none" points="
  2292.39,1423.18 2292.39,1404.28 
  "/>
<path clip-path="url(#clip730)" d="M249.132 1468.75 L278.807 1468.75 L278.807 1472.69 L249.132 1472.69 L249.132 1468.75 Z" fill="#000000" fill-rule="evenodd" fill-opacity="1" /><path clip-path="url(#clip730)" d="M301.747 1455.09 L289.942 1473.54 L301.747 1473.54 L301.747 1455.09 M300.52 1451.02 L306.4 1451.02 L306.4 1473.54 L311.33 1473.54 L311.33 1477.43 L306.4 1477.43 L306.4 1485.58 L301.747 1485.58 L301.747 1477.43 L286.145 1477.43 L286.145 1472.92 L300.52 1451.02 Z" fill="#000000" fill-rule="evenodd" fill-opacity="1" /><path clip-path="url(#clip730)" d="M753.213 1468.75 L782.889 1468.75 L782.889 1472.69 L753.213 1472.69 L753.213 1468.75 Z" fill="#000000" fill-rule="evenodd" fill-opacity="1" /><path clip-path="url(#clip730)" d="M797.009 1481.64 L813.329 1481.64 L813.329 1485.58 L791.384 1485.58 L791.384 1481.64 Q794.046 1478.89 798.63 1474.26 Q803.236 1469.61 804.417 1468.27 Q806.662 1465.74 807.542 1464.01 Q808.445 1462.25 808.445 1460.56 Q808.445 1457.8 806.5 1456.07 Q804.579 1454.33 801.477 1454.33 Q799.278 1454.33 796.824 1455.09 Q794.394 1455.86 791.616 1457.41 L791.616 1452.69 Q794.44 1451.55 796.894 1450.97 Q799.347 1450.39 801.384 1450.39 Q806.755 1450.39 809.949 1453.08 Q813.144 1455.77 813.144 1460.26 Q813.144 1462.39 812.333 1464.31 Q811.546 1466.2 809.44 1468.8 Q808.861 1469.47 805.759 1472.69 Q802.658 1475.88 797.009 1481.64 Z" fill="#000000" fill-rule="evenodd" fill-opacity="1" /><path clip-path="url(#clip730)" d="M1286.31 1454.1 Q1282.7 1454.1 1280.87 1457.66 Q1279.07 1461.2 1279.07 1468.33 Q1279.07 1475.44 1280.87 1479.01 Q1282.7 1482.55 1286.31 1482.55 Q1289.95 1482.55 1291.75 1479.01 Q1293.58 1475.44 1293.58 1468.33 Q1293.58 1461.2 1291.75 1457.66 Q1289.95 1454.1 1286.31 1454.1 M1286.31 1450.39 Q1292.12 1450.39 1295.18 1455 Q1298.26 1459.58 1298.26 1468.33 Q1298.26 1477.06 1295.18 1481.67 Q1292.12 1486.25 1286.31 1486.25 Q1280.5 1486.25 1277.42 1481.67 Q1274.37 1477.06 1274.37 1468.33 Q1274.37 1459.58 1277.42 1455 Q1280.5 1450.39 1286.31 1450.39 Z" fill="#000000" fill-rule="evenodd" fill-opacity="1" /><path clip-path="url(#clip730)" d="M1784 1481.64 L1800.32 1481.64 L1800.32 1485.58 L1778.38 1485.58 L1778.38 1481.64 Q1781.04 1478.89 1785.62 1474.26 Q1790.23 1469.61 1791.41 1468.27 Q1793.66 1465.74 1794.54 1464.01 Q1795.44 1462.25 1795.44 1460.56 Q1795.44 1457.8 1793.49 1456.07 Q1791.57 1454.33 1788.47 1454.33 Q1786.27 1454.33 1783.82 1455.09 Q1781.39 1455.86 1778.61 1457.41 L1778.61 1452.69 Q1781.43 1451.55 1783.89 1450.97 Q1786.34 1450.39 1788.38 1450.39 Q1793.75 1450.39 1796.94 1453.08 Q1800.14 1455.77 1800.14 1460.26 Q1800.14 1462.39 1799.33 1464.31 Q1798.54 1466.2 1796.43 1468.8 Q1795.86 1469.47 1792.75 1472.69 Q1789.65 1475.88 1784 1481.64 Z" fill="#000000" fill-rule="evenodd" fill-opacity="1" /><path clip-path="url(#clip730)" d="M2295.4 1455.09 L2283.59 1473.54 L2295.4 1473.54 L2295.4 1455.09 M2294.17 1451.02 L2300.05 1451.02 L2300.05 1473.54 L2304.98 1473.54 L2304.98 1477.43 L2300.05 1477.43 L2300.05 1485.58 L2295.4 1485.58 L2295.4 1477.43 L2279.8 1477.43 L2279.8 1472.92 L2294.17 1451.02 Z" fill="#000000" fill-rule="evenodd" fill-opacity="1" /><path clip-path="url(#clip730)" d="M1129.64 1520.52 L1159.68 1520.52 L1159.68 1525.93 L1136.06 1525.93 L1136.06 1540 L1158.69 1540 L1158.69 1545.41 L1136.06 1545.41 L1136.06 1562.63 L1160.25 1562.63 L1160.25 1568.04 L1129.64 1568.04 L1129.64 1520.52 Z" fill="#000000" fill-rule="evenodd" fill-opacity="1" /><path clip-path="url(#clip730)" d="M1200.2 1546.53 L1200.2 1568.04 L1194.34 1568.04 L1194.34 1546.72 Q1194.34 1541.66 1192.37 1539.14 Q1190.4 1536.63 1186.45 1536.63 Q1181.71 1536.63 1178.97 1539.65 Q1176.23 1542.68 1176.23 1547.9 L1176.23 1568.04 L1170.34 1568.04 L1170.34 1532.4 L1176.23 1532.4 L1176.23 1537.93 Q1178.33 1534.72 1181.17 1533.13 Q1184.03 1531.54 1187.75 1531.54 Q1193.9 1531.54 1197.05 1535.36 Q1200.2 1539.14 1200.2 1546.53 Z" fill="#000000" fill-rule="evenodd" fill-opacity="1" /><path clip-path="url(#clip730)" d="M1242.37 1548.76 L1242.37 1551.62 L1215.44 1551.62 Q1215.83 1557.67 1219.07 1560.85 Q1222.35 1564 1228.18 1564 Q1231.55 1564 1234.7 1563.17 Q1237.88 1562.35 1241 1560.69 L1241 1566.23 Q1237.85 1567.57 1234.54 1568.27 Q1231.23 1568.97 1227.83 1568.97 Q1219.3 1568.97 1214.3 1564 Q1209.33 1559.04 1209.33 1550.57 Q1209.33 1541.82 1214.04 1536.69 Q1218.79 1531.54 1226.81 1531.54 Q1234 1531.54 1238.17 1536.18 Q1242.37 1540.8 1242.37 1548.76 M1236.52 1547.04 Q1236.45 1542.23 1233.81 1539.37 Q1231.2 1536.5 1226.87 1536.5 Q1221.97 1536.5 1219.01 1539.27 Q1216.08 1542.04 1215.64 1547.07 L1236.52 1547.04 Z" fill="#000000" fill-rule="evenodd" fill-opacity="1" /><path clip-path="url(#clip730)" d="M1272.64 1537.87 Q1271.65 1537.3 1270.48 1537.04 Q1269.33 1536.76 1267.93 1536.76 Q1262.96 1536.76 1260.29 1540 Q1257.65 1543.22 1257.65 1549.27 L1257.65 1568.04 L1251.76 1568.04 L1251.76 1532.4 L1257.65 1532.4 L1257.65 1537.93 Q1259.5 1534.69 1262.46 1533.13 Q1265.42 1531.54 1269.65 1531.54 Q1270.25 1531.54 1270.99 1531.63 Q1271.72 1531.7 1272.61 1531.85 L1272.64 1537.87 Z" fill="#000000" fill-rule="evenodd" fill-opacity="1" /><path clip-path="url(#clip730)" d="M1301.1 1549.81 Q1301.1 1543.44 1298.45 1539.94 Q1295.84 1536.44 1291.1 1536.44 Q1286.39 1536.44 1283.75 1539.94 Q1281.14 1543.44 1281.14 1549.81 Q1281.14 1556.14 1283.75 1559.64 Q1286.39 1563.14 1291.1 1563.14 Q1295.84 1563.14 1298.45 1559.64 Q1301.1 1556.14 1301.1 1549.81 M1306.95 1563.62 Q1306.95 1572.72 1302.91 1577.15 Q1298.87 1581.6 1290.53 1581.6 Q1287.44 1581.6 1284.7 1581.13 Q1281.97 1580.68 1279.39 1579.72 L1279.39 1574.03 Q1281.97 1575.43 1284.48 1576.1 Q1287 1576.76 1289.61 1576.76 Q1295.37 1576.76 1298.23 1573.74 Q1301.1 1570.75 1301.1 1564.67 L1301.1 1561.77 Q1299.28 1564.92 1296.45 1566.48 Q1293.62 1568.04 1289.67 1568.04 Q1283.11 1568.04 1279.1 1563.05 Q1275.09 1558.05 1275.09 1549.81 Q1275.09 1541.53 1279.1 1536.53 Q1283.11 1531.54 1289.67 1531.54 Q1293.62 1531.54 1296.45 1533.1 Q1299.28 1534.66 1301.1 1537.81 L1301.1 1532.4 L1306.95 1532.4 L1306.95 1563.62 Z" fill="#000000" fill-rule="evenodd" fill-opacity="1" /><path clip-path="url(#clip730)" d="M1333.85 1571.35 Q1331.36 1577.72 1329.01 1579.66 Q1326.65 1581.6 1322.71 1581.6 L1318.03 1581.6 L1318.03 1576.7 L1321.47 1576.7 Q1323.88 1576.7 1325.22 1575.56 Q1326.56 1574.41 1328.18 1570.14 L1329.23 1567.47 L1314.81 1532.4 L1321.02 1532.4 L1332.16 1560.28 L1343.3 1532.4 L1349.51 1532.4 L1333.85 1571.35 Z" fill="#000000" fill-rule="evenodd" fill-opacity="1" /><path clip-path="url(#clip730)" d="M1377.77 1518.52 L1391.27 1518.52 L1391.27 1523.07 L1383.63 1523.07 L1383.63 1572.09 L1391.27 1572.09 L1391.27 1576.64 L1377.77 1576.64 L1377.77 1518.52 Z" fill="#000000" fill-rule="evenodd" fill-opacity="1" /><path clip-path="url(#clip730)" d="M1409.54 1522.27 L1409.54 1532.4 L1421.6 1532.4 L1421.6 1536.95 L1409.54 1536.95 L1409.54 1556.3 Q1409.54 1560.66 1410.71 1561.9 Q1411.92 1563.14 1415.58 1563.14 L1421.6 1563.14 L1421.6 1568.04 L1415.58 1568.04 Q1408.8 1568.04 1406.23 1565.53 Q1403.65 1562.98 1403.65 1556.3 L1403.65 1536.95 L1399.35 1536.95 L1399.35 1532.4 L1403.65 1532.4 L1403.65 1522.27 L1409.54 1522.27 Z" fill="#000000" fill-rule="evenodd" fill-opacity="1" /><path clip-path="url(#clip730)" d="M1442.99 1518.52 L1442.99 1576.64 L1429.49 1576.64 L1429.49 1572.09 L1437.1 1572.09 L1437.1 1523.07 L1429.49 1523.07 L1429.49 1518.52 L1442.99 1518.52 Z" fill="#000000" fill-rule="evenodd" fill-opacity="1" /><polyline clip-path="url(#clip732)" style="stroke:#000000; stroke-linecap:butt; stroke-linejoin:round; stroke-width:2; stroke-opacity:0.1; fill:none" points="
  219.866,1385.71 2352.76,1385.71 
  "/>
<polyline clip-path="url(#clip732)" style="stroke:#000000; stroke-linecap:butt; stroke-linejoin:round; stroke-width:2; stroke-opacity:0.1; fill:none" points="
  219.866,1081.66 2352.76,1081.66 
  "/>
<polyline clip-path="url(#clip732)" style="stroke:#000000; stroke-linecap:butt; stroke-linejoin:round; stroke-width:2; stroke-opacity:0.1; fill:none" points="
  219.866,777.601 2352.76,777.601 
  "/>
<polyline clip-path="url(#clip732)" style="stroke:#000000; stroke-linecap:butt; stroke-linejoin:round; stroke-width:2; stroke-opacity:0.1; fill:none" points="
  219.866,473.544 2352.76,473.544 
  "/>
<polyline clip-path="url(#clip732)" style="stroke:#000000; stroke-linecap:butt; stroke-linejoin:round; stroke-width:2; stroke-opacity:0.1; fill:none" points="
  219.866,169.487 2352.76,169.487 
  "/>
<polyline clip-path="url(#clip730)" style="stroke:#000000; stroke-linecap:butt; stroke-linejoin:round; stroke-width:4; stroke-opacity:1; fill:none" points="
  219.866,1423.18 219.866,47.2441 
  "/>
<polyline clip-path="url(#clip730)" style="stroke:#000000; stroke-linecap:butt; stroke-linejoin:round; stroke-width:4; stroke-opacity:1; fill:none" points="
  219.866,1385.71 238.764,1385.71 
  "/>
<polyline clip-path="url(#clip730)" style="stroke:#000000; stroke-linecap:butt; stroke-linejoin:round; stroke-width:4; stroke-opacity:1; fill:none" points="
  219.866,1081.66 238.764,1081.66 
  "/>
<polyline clip-path="url(#clip730)" style="stroke:#000000; stroke-linecap:butt; stroke-linejoin:round; stroke-width:4; stroke-opacity:1; fill:none" points="
  219.866,777.601 238.764,777.601 
  "/>
<polyline clip-path="url(#clip730)" style="stroke:#000000; stroke-linecap:butt; stroke-linejoin:round; stroke-width:4; stroke-opacity:1; fill:none" points="
  219.866,473.544 238.764,473.544 
  "/>
<polyline clip-path="url(#clip730)" style="stroke:#000000; stroke-linecap:butt; stroke-linejoin:round; stroke-width:4; stroke-opacity:1; fill:none" points="
  219.866,169.487 238.764,169.487 
  "/>
<path clip-path="url(#clip730)" d="M126.691 1371.51 Q123.08 1371.51 121.251 1375.08 Q119.445 1378.62 119.445 1385.75 Q119.445 1392.86 121.251 1396.42 Q123.08 1399.96 126.691 1399.96 Q130.325 1399.96 132.13 1396.42 Q133.959 1392.86 133.959 1385.75 Q133.959 1378.62 132.13 1375.08 Q130.325 1371.51 126.691 1371.51 M126.691 1367.81 Q132.501 1367.81 135.556 1372.42 Q138.635 1377 138.635 1385.75 Q138.635 1394.48 135.556 1399.08 Q132.501 1403.67 126.691 1403.67 Q120.88 1403.67 117.802 1399.08 Q114.746 1394.48 114.746 1385.75 Q114.746 1377 117.802 1372.42 Q120.88 1367.81 126.691 1367.81 Z" fill="#000000" fill-rule="evenodd" fill-opacity="1" /><path clip-path="url(#clip730)" d="M146.853 1397.11 L151.737 1397.11 L151.737 1402.99 L146.853 1402.99 L146.853 1397.11 Z" fill="#000000" fill-rule="evenodd" fill-opacity="1" /><path clip-path="url(#clip730)" d="M171.922 1371.51 Q168.311 1371.51 166.482 1375.08 Q164.677 1378.62 164.677 1385.75 Q164.677 1392.86 166.482 1396.42 Q168.311 1399.96 171.922 1399.96 Q175.556 1399.96 177.362 1396.42 Q179.19 1392.86 179.19 1385.75 Q179.19 1378.62 177.362 1375.08 Q175.556 1371.51 171.922 1371.51 M171.922 1367.81 Q177.732 1367.81 180.788 1372.42 Q183.866 1377 183.866 1385.75 Q183.866 1394.48 180.788 1399.08 Q177.732 1403.67 171.922 1403.67 Q166.112 1403.67 163.033 1399.08 Q159.978 1394.48 159.978 1385.75 Q159.978 1377 163.033 1372.42 Q166.112 1367.81 171.922 1367.81 Z" fill="#000000" fill-rule="evenodd" fill-opacity="1" /><path clip-path="url(#clip730)" d="M128.288 1067.46 Q124.677 1067.46 122.848 1071.02 Q121.043 1074.56 121.043 1081.69 Q121.043 1088.8 122.848 1092.36 Q124.677 1095.91 128.288 1095.91 Q131.922 1095.91 133.728 1092.36 Q135.556 1088.8 135.556 1081.69 Q135.556 1074.56 133.728 1071.02 Q131.922 1067.46 128.288 1067.46 M128.288 1063.75 Q134.098 1063.75 137.154 1068.36 Q140.232 1072.94 140.232 1081.69 Q140.232 1090.42 137.154 1095.03 Q134.098 1099.61 128.288 1099.61 Q122.478 1099.61 119.399 1095.03 Q116.343 1090.42 116.343 1081.69 Q116.343 1072.94 119.399 1068.36 Q122.478 1063.75 128.288 1063.75 Z" fill="#000000" fill-rule="evenodd" fill-opacity="1" /><path clip-path="url(#clip730)" d="M148.45 1093.06 L153.334 1093.06 L153.334 1098.94 L148.45 1098.94 L148.45 1093.06 Z" fill="#000000" fill-rule="evenodd" fill-opacity="1" /><path clip-path="url(#clip730)" d="M167.547 1095 L183.866 1095 L183.866 1098.94 L161.922 1098.94 L161.922 1095 Q164.584 1092.25 169.167 1087.62 Q173.774 1082.97 174.954 1081.62 Q177.2 1079.1 178.079 1077.36 Q178.982 1075.6 178.982 1073.91 Q178.982 1071.16 177.038 1069.42 Q175.116 1067.69 172.014 1067.69 Q169.815 1067.69 167.362 1068.45 Q164.931 1069.22 162.153 1070.77 L162.153 1066.04 Q164.977 1064.91 167.431 1064.33 Q169.885 1063.75 171.922 1063.75 Q177.292 1063.75 180.487 1066.44 Q183.681 1069.12 183.681 1073.61 Q183.681 1075.74 182.871 1077.66 Q182.084 1079.56 179.977 1082.16 Q179.399 1082.83 176.297 1086.04 Q173.195 1089.24 167.547 1095 Z" fill="#000000" fill-rule="evenodd" fill-opacity="1" /><path clip-path="url(#clip730)" d="M126.205 763.399 Q122.593 763.399 120.765 766.964 Q118.959 770.506 118.959 777.635 Q118.959 784.742 120.765 788.307 Q122.593 791.848 126.205 791.848 Q129.839 791.848 131.644 788.307 Q133.473 784.742 133.473 777.635 Q133.473 770.506 131.644 766.964 Q129.839 763.399 126.205 763.399 M126.205 759.696 Q132.015 759.696 135.07 764.302 Q138.149 768.885 138.149 777.635 Q138.149 786.362 135.07 790.969 Q132.015 795.552 126.205 795.552 Q120.394 795.552 117.316 790.969 Q114.26 786.362 114.26 777.635 Q114.26 768.885 117.316 764.302 Q120.394 759.696 126.205 759.696 Z" fill="#000000" fill-rule="evenodd" fill-opacity="1" /><path clip-path="url(#clip730)" d="M146.366 789.001 L151.251 789.001 L151.251 794.881 L146.366 794.881 L146.366 789.001 Z" fill="#000000" fill-rule="evenodd" fill-opacity="1" /><path clip-path="url(#clip730)" d="M174.283 764.395 L162.477 782.844 L174.283 782.844 L174.283 764.395 M173.056 760.321 L178.936 760.321 L178.936 782.844 L183.866 782.844 L183.866 786.733 L178.936 786.733 L178.936 794.881 L174.283 794.881 L174.283 786.733 L158.681 786.733 L158.681 782.219 L173.056 760.321 Z" fill="#000000" fill-rule="evenodd" fill-opacity="1" /><path clip-path="url(#clip730)" d="M126.529 459.343 Q122.918 459.343 121.089 462.907 Q119.283 466.449 119.283 473.579 Q119.283 480.685 121.089 484.25 Q122.918 487.791 126.529 487.791 Q130.163 487.791 131.968 484.25 Q133.797 480.685 133.797 473.579 Q133.797 466.449 131.968 462.907 Q130.163 459.343 126.529 459.343 M126.529 455.639 Q132.339 455.639 135.394 460.245 Q138.473 464.829 138.473 473.579 Q138.473 482.305 135.394 486.912 Q132.339 491.495 126.529 491.495 Q120.718 491.495 117.64 486.912 Q114.584 482.305 114.584 473.579 Q114.584 464.829 117.64 460.245 Q120.718 455.639 126.529 455.639 Z" fill="#000000" fill-rule="evenodd" fill-opacity="1" /><path clip-path="url(#clip730)" d="M146.691 484.944 L151.575 484.944 L151.575 490.824 L146.691 490.824 L146.691 484.944 Z" fill="#000000" fill-rule="evenodd" fill-opacity="1" /><path clip-path="url(#clip730)" d="M172.339 471.68 Q169.19 471.68 167.339 473.833 Q165.51 475.986 165.51 479.736 Q165.51 483.463 167.339 485.639 Q169.19 487.791 172.339 487.791 Q175.487 487.791 177.315 485.639 Q179.167 483.463 179.167 479.736 Q179.167 475.986 177.315 473.833 Q175.487 471.68 172.339 471.68 M181.621 457.028 L181.621 461.287 Q179.862 460.454 178.056 460.014 Q176.274 459.574 174.514 459.574 Q169.885 459.574 167.431 462.699 Q165.001 465.824 164.653 472.143 Q166.019 470.13 168.079 469.065 Q170.139 467.977 172.616 467.977 Q177.825 467.977 180.834 471.148 Q183.866 474.296 183.866 479.736 Q183.866 485.06 180.718 488.278 Q177.57 491.495 172.339 491.495 Q166.343 491.495 163.172 486.912 Q160.001 482.305 160.001 473.579 Q160.001 465.384 163.89 460.523 Q167.778 455.639 174.329 455.639 Q176.089 455.639 177.871 455.986 Q179.676 456.333 181.621 457.028 Z" fill="#000000" fill-rule="evenodd" fill-opacity="1" /><path clip-path="url(#clip730)" d="M126.783 155.286 Q123.172 155.286 121.343 158.85 Q119.538 162.392 119.538 169.522 Q119.538 176.628 121.343 180.193 Q123.172 183.735 126.783 183.735 Q130.417 183.735 132.223 180.193 Q134.052 176.628 134.052 169.522 Q134.052 162.392 132.223 158.85 Q130.417 155.286 126.783 155.286 M126.783 151.582 Q132.593 151.582 135.649 156.188 Q138.728 160.772 138.728 169.522 Q138.728 178.249 135.649 182.855 Q132.593 187.438 126.783 187.438 Q120.973 187.438 117.894 182.855 Q114.839 178.249 114.839 169.522 Q114.839 160.772 117.894 156.188 Q120.973 151.582 126.783 151.582 Z" fill="#000000" fill-rule="evenodd" fill-opacity="1" /><path clip-path="url(#clip730)" d="M146.945 180.887 L151.829 180.887 L151.829 186.767 L146.945 186.767 L146.945 180.887 Z" fill="#000000" fill-rule="evenodd" fill-opacity="1" /><path clip-path="url(#clip730)" d="M172.014 170.355 Q168.681 170.355 166.76 172.137 Q164.862 173.92 164.862 177.045 Q164.862 180.17 166.76 181.952 Q168.681 183.735 172.014 183.735 Q175.348 183.735 177.269 181.952 Q179.19 180.147 179.19 177.045 Q179.19 173.92 177.269 172.137 Q175.371 170.355 172.014 170.355 M167.339 168.364 Q164.329 167.624 162.64 165.563 Q160.973 163.503 160.973 160.54 Q160.973 156.397 163.913 153.989 Q166.876 151.582 172.014 151.582 Q177.176 151.582 180.116 153.989 Q183.056 156.397 183.056 160.54 Q183.056 163.503 181.366 165.563 Q179.7 167.624 176.714 168.364 Q180.093 169.151 181.968 171.443 Q183.866 173.735 183.866 177.045 Q183.866 182.068 180.788 184.753 Q177.732 187.438 172.014 187.438 Q166.297 187.438 163.218 184.753 Q160.163 182.068 160.163 177.045 Q160.163 173.735 162.061 171.443 Q163.959 169.151 167.339 168.364 M165.626 160.98 Q165.626 163.665 167.292 165.17 Q168.982 166.675 172.014 166.675 Q175.024 166.675 176.714 165.17 Q178.426 163.665 178.426 160.98 Q178.426 158.295 176.714 156.79 Q175.024 155.286 172.014 155.286 Q168.982 155.286 167.292 156.79 Q165.626 158.295 165.626 160.98 Z" fill="#000000" fill-rule="evenodd" fill-opacity="1" /><path clip-path="url(#clip730)" d="M16.4842 896.471 L16.4842 890.042 L58.5933 890.042 L58.5933 866.903 L64.0042 866.903 L64.0042 896.471 L16.4842 896.471 Z" fill="#000000" fill-rule="evenodd" fill-opacity="1" /><path clip-path="url(#clip730)" d="M32.4621 847.742 Q32.4621 852.452 36.1542 855.19 Q39.8145 857.927 46.212 857.927 Q52.6095 857.927 56.3017 855.221 Q59.9619 852.484 59.9619 847.742 Q59.9619 843.063 56.2698 840.326 Q52.5777 837.588 46.212 837.588 Q39.8781 837.588 36.186 840.326 Q32.4621 843.063 32.4621 847.742 M27.4968 847.742 Q27.4968 840.103 32.4621 835.742 Q37.4273 831.382 46.212 831.382 Q54.9649 831.382 59.9619 835.742 Q64.9272 840.103 64.9272 847.742 Q64.9272 855.412 59.9619 859.773 Q54.9649 864.102 46.212 864.102 Q37.4273 864.102 32.4621 859.773 Q27.4968 855.412 27.4968 847.742 Z" fill="#000000" fill-rule="evenodd" fill-opacity="1" /><path clip-path="url(#clip730)" d="M29.7248 796.02 L35.1993 796.02 Q33.8307 798.503 33.1623 801.017 Q32.4621 803.5 32.4621 806.046 Q32.4621 811.744 36.0905 814.895 Q39.6872 818.046 46.212 818.046 Q52.7369 818.046 56.3653 814.895 Q59.9619 811.744 59.9619 806.046 Q59.9619 803.5 59.2935 801.017 Q58.5933 798.503 57.2247 796.02 L62.6355 796.02 Q63.7814 798.471 64.3543 801.113 Q64.9272 803.723 64.9272 806.683 Q64.9272 814.736 59.8664 819.478 Q54.8057 824.22 46.212 824.22 Q37.491 824.22 32.4939 819.446 Q27.4968 814.64 27.4968 806.301 Q27.4968 803.596 28.0697 801.017 Q28.6108 798.439 29.7248 796.02 Z" fill="#000000" fill-rule="evenodd" fill-opacity="1" /><path clip-path="url(#clip730)" d="M46.0847 769.635 Q46.0847 776.732 47.7079 779.47 Q49.3312 782.207 53.2461 782.207 Q56.3653 782.207 58.2114 780.17 Q60.0256 778.101 60.0256 774.568 Q60.0256 769.698 56.5881 766.77 Q53.1188 763.81 47.3897 763.81 L46.0847 763.81 L46.0847 769.635 M43.6657 757.953 L64.0042 757.953 L64.0042 763.81 L58.5933 763.81 Q61.8398 765.815 63.3994 768.807 Q64.9272 771.799 64.9272 776.128 Q64.9272 781.602 61.8716 784.849 Q58.7843 788.063 53.6281 788.063 Q47.6125 788.063 44.5569 784.053 Q41.5014 780.011 41.5014 772.022 L41.5014 763.81 L40.9285 763.81 Q36.8862 763.81 34.6901 766.484 Q32.4621 769.125 32.4621 773.931 Q32.4621 776.987 33.1941 779.883 Q33.9262 782.78 35.3903 785.453 L29.9795 785.453 Q28.7381 782.239 28.1334 779.215 Q27.4968 776.191 27.4968 773.327 Q27.4968 765.592 31.5072 761.773 Q35.5176 757.953 43.6657 757.953 Z" fill="#000000" fill-rule="evenodd" fill-opacity="1" /><path clip-path="url(#clip730)" d="M14.479 745.89 L14.479 740.034 L64.0042 740.034 L64.0042 745.89 L14.479 745.89 Z" fill="#000000" fill-rule="evenodd" fill-opacity="1" /><path clip-path="url(#clip730)" d="M21.7677 700.376 L58.7206 700.376 L58.7206 692.609 Q58.7206 682.774 54.2646 678.223 Q49.8086 673.64 40.1964 673.64 Q30.6479 673.64 26.2237 678.223 Q21.7677 682.774 21.7677 692.609 L21.7677 700.376 M16.4842 706.805 L16.4842 693.596 Q16.4842 679.783 22.2451 673.321 Q27.9743 666.86 40.1964 666.86 Q52.4822 666.86 58.2432 673.353 Q64.0042 679.846 64.0042 693.596 L64.0042 706.805 L16.4842 706.805 Z" fill="#000000" fill-rule="evenodd" fill-opacity="1" /><path clip-path="url(#clip730)" d="M20.8447 637.323 Q20.8447 644.326 26.0645 648.463 Q31.2844 652.569 40.2919 652.569 Q49.2675 652.569 54.4874 648.463 Q59.7073 644.326 59.7073 637.323 Q59.7073 630.321 54.4874 626.247 Q49.2675 622.141 40.2919 622.141 Q31.2844 622.141 26.0645 626.247 Q20.8447 630.321 20.8447 637.323 M15.6248 637.323 Q15.6248 627.329 22.3406 621.345 Q29.0246 615.362 40.2919 615.362 Q51.5274 615.362 58.2432 621.345 Q64.9272 627.329 64.9272 637.323 Q64.9272 647.349 58.2432 653.365 Q51.5592 659.349 40.2919 659.349 Q29.0246 659.349 22.3406 653.365 Q15.6248 647.349 15.6248 637.323 Z" fill="#000000" fill-rule="evenodd" fill-opacity="1" /><path clip-path="url(#clip730)" d="M18.0438 576.817 L24.314 576.817 Q22.5634 580.478 21.704 583.724 Q20.8447 586.971 20.8447 589.994 Q20.8447 595.246 22.8817 598.111 Q24.9187 600.943 28.6745 600.943 Q31.8255 600.943 33.4488 599.065 Q35.0402 597.156 36.0269 591.872 L36.8226 587.989 Q38.1912 580.796 41.6605 577.39 Q45.098 573.953 50.8908 573.953 Q57.7976 573.953 61.3624 578.6 Q64.9272 583.215 64.9272 592.159 Q64.9272 595.532 64.1633 599.352 Q63.3994 603.139 61.9035 607.214 L55.2831 607.214 Q57.4793 603.299 58.5933 599.543 Q59.7073 595.787 59.7073 592.159 Q59.7073 586.652 57.543 583.66 Q55.3786 580.669 51.3682 580.669 Q47.8671 580.669 45.8937 582.833 Q43.9204 584.965 42.9337 589.867 L42.1698 593.782 Q40.7375 600.975 37.682 604.19 Q34.6264 607.404 29.1837 607.404 Q22.8817 607.404 19.2532 602.98 Q15.6248 598.524 15.6248 590.726 Q15.6248 587.384 16.2295 583.915 Q16.8343 580.446 18.0438 576.817 Z" fill="#000000" fill-rule="evenodd" fill-opacity="1" /><polyline clip-path="url(#clip732)" style="stroke:#009af9; stroke-linecap:butt; stroke-linejoin:round; stroke-width:4; stroke-opacity:1; fill:none" points="
  280.231,1124.23 282.245,1205.82 284.259,1232.59 286.274,1231.35 288.288,1204.11 290.302,1132.7 292.316,967.319 294.33,655.503 296.344,254.836 298.359,366.851 
  300.373,849.415 302.387,1070.54 304.401,1145.67 306.415,1145.98 308.43,1063.91 310.444,825.56 312.458,661.429 314.472,934.004 316.486,1103.2 318.5,1145.28 
  320.515,1108.59 322.529,963.817 324.543,733.196 326.557,598.415 328.571,299.212 330.585,537.957 332.6,827.57 334.614,910.664 336.628,778.927 338.642,712.879 
  340.656,911.323 342.67,1089.92 344.685,1134.6 346.699,1099.8 348.713,1063.87 350.727,1004.73 352.741,802.937 354.756,812.65 356.77,952.775 358.784,861.321 
  360.798,797.711 362.812,938.058 364.826,887.451 366.841,820.125 368.855,952.402 370.869,1106.99 372.883,1167.51 374.897,1156.82 376.911,1066.22 378.926,838.78 
  380.94,694.632 382.954,852.727 384.968,765.719 386.982,593.84 388.996,844.299 391.011,955.465 393.025,829.082 395.039,655.237 397.053,823.333 399.067,950.047 
  401.082,841.184 403.096,701.967 405.11,947.199 407.124,1094.46 409.138,1118.66 411.152,1037.07 413.167,804.417 415.181,771.736 417.195,934.394 419.209,894.145 
  421.223,845.198 423.237,977.551 425.252,939.539 427.266,794.883 429.28,873.151 431.294,1024.82 433.308,1102.2 435.322,1102.85 437.337,1065.1 439.351,900.384 
  441.365,841.431 443.379,887.875 445.393,859.867 447.408,959.838 449.422,918.643 451.436,721.86 453.45,352.552 455.464,451.87 457.478,731.244 459.493,952.589 
  461.507,1102.93 463.521,1146.01 465.535,1113.77 467.549,968.293 469.563,698.248 471.578,740.238 473.592,977.33 475.606,1090.91 477.62,1083.9 479.634,954.442 
  481.648,586.674 483.663,173.535 485.677,529.716 487.691,925.713 489.705,1071.37 491.719,1144.48 493.734,1197.32 495.748,1202.77 497.762,1156.85 499.776,1009.8 
  501.79,779.721 503.804,939.892 505.819,1118.54 507.833,1170.03 509.847,1146.71 511.861,1060.63 513.875,983.821 515.889,753.689 517.904,294.884 519.918,412.88 
  521.932,745.522 523.946,961.817 525.96,966.839 527.974,902.892 529.989,1041.09 532.003,1105.59 534.017,1045.37 536.031,927.719 538.045,994.316 540.06,989.018 
  542.074,793.148 544.088,544.838 546.102,260.07 548.116,487.244 550.13,871.48 552.145,1027.63 554.159,1061.46 556.173,1085.26 558.187,1158.56 560.201,1194.71 
  562.215,1184.1 564.23,1124.42 566.244,968.868 568.258,579.37 570.272,86.1857 572.286,208.78 574.301,700.581 576.315,1014.33 578.329,1133.43 580.343,1161.19 
  582.357,1109 584.371,1000.94 586.386,1079.65 588.4,1137.42 590.414,1121.58 592.428,1152.68 594.442,1202.69 596.456,1212.68 598.471,1172.95 600.485,1058.32 
  602.499,920.745 604.513,887.183 606.527,657.602 608.541,253.698 610.556,423.718 612.57,786.393 614.584,931.705 616.598,902.255 618.612,926.432 620.627,797.178 
  622.641,755.595 624.655,977.032 626.669,1027.33 628.683,912.356 630.697,915.829 632.712,1013.66 634.726,924.377 636.74,675.511 638.754,698.638 640.768,889.002 
  642.782,1061.61 644.797,1113.39 646.811,1066.2 648.825,943.714 650.839,904.179 652.853,880.159 654.867,995.352 656.882,981.169 658.896,816.289 660.91,602.286 
  662.924,665.37 664.938,723.334 666.953,878.625 668.967,1084.27 670.981,1152.57 672.995,1201.44 675.009,1242.39 677.023,1254.31 679.038,1246.18 681.052,1215.4 
  683.066,1141.28 685.08,964.617 687.094,703.827 689.108,571.157 691.123,564.187 693.137,687.338 695.151,694.897 697.165,600.267 699.179,442.939 701.193,796.481 
  703.208,1024.62 705.222,1131.03 707.236,1165.79 709.25,1124.08 711.264,969.124 713.279,900.445 715.293,1084.25 717.307,1167.34 719.321,1167.77 721.335,1131.58 
  723.349,1090.86 725.364,917.04 727.378,644.704 729.392,823.147 731.406,1019.02 733.42,1058.68 735.434,960.875 737.449,625.056 739.463,271.352 741.477,621.706 
  743.491,778.31 745.505,902.667 747.519,1094.11 749.534,1174.22 751.548,1187.48 753.562,1144.17 755.576,1006.83 757.59,807.302 759.605,677.681 761.619,838.176 
  763.633,1029.18 765.647,1024 767.661,898.026 769.675,1011.99 771.69,1155.1 773.704,1192.22 775.718,1154.97 777.732,1072.16 779.746,1083.26 781.76,1141.8 
  783.775,1132.41 785.789,1041.8 787.803,838.168 789.817,774.646 791.831,947.161 793.845,915.123 795.86,857.225 797.874,881.484 799.888,882.123 801.902,1013.6 
  803.916,1063.64 805.931,975.644 807.945,862.647 809.959,807.219 811.973,829.076 813.987,562.773 816.001,163.021 818.016,535.417 820.03,962.8 822.044,1141.25 
  824.058,1217.58 826.072,1253 828.086,1267.28 830.101,1265.47 832.115,1242.18 834.129,1174.89 836.143,1076.27 838.157,1078.85 840.171,999.669 842.186,824.509 
  844.2,914.196 846.214,1050.41 848.228,1000.49 850.242,806.362 852.257,849.207 854.271,925.349 856.285,892.243 858.299,1014.23 860.313,1099.13 862.327,1172.44 
  864.342,1173.53 866.356,1084.18 868.37,849 870.384,776.21 872.398,1018.63 874.412,1127.4 876.427,1100.51 878.441,943.661 880.455,900.866 882.469,1081.85 
  884.483,1197.88 886.498,1234.38 888.512,1234.51 890.526,1209.81 892.54,1130.26 894.554,953.699 896.568,673.769 898.583,359.087 900.597,537.912 902.611,957.553 
  904.625,1155.46 906.639,1239.33 908.653,1279.7 910.668,1301.05 912.682,1312.61 914.696,1318.21 916.71,1319.35 918.724,1316.24 920.738,1307.83 922.753,1291.06 
  924.767,1258.31 926.781,1188.87 928.795,1024.03 930.809,724.932 932.824,705.792 934.838,741.361 936.852,701.486 938.866,974.894 940.88,1161.33 942.894,1236 
  944.909,1264.58 946.923,1268.94 948.937,1250.72 950.951,1193.17 952.965,1039.42 954.979,760.007 956.994,885.23 959.008,1123.3 961.022,1212.05 963.036,1228.46 
  965.05,1220.61 967.064,1228.15 969.079,1209.31 971.093,1212.05 973.107,1189.14 975.121,1089.33 977.135,830.565 979.15,484.046 981.164,373.397 983.178,625.793 
  985.192,968.268 987.206,1160.11 989.22,1243.19 991.235,1283.33 993.249,1304.84 995.263,1316.92 997.277,1323.43 999.291,1326.1 1001.31,1325.54 1003.32,1321.6 
  1005.33,1313.28 1007.35,1298.18 1009.36,1270.75 1011.38,1217.25 1013.39,1099.55 1015.4,825.115 1017.42,457.645 1019.43,540.201 1021.45,719.342 1023.46,941.969 
  1025.48,1136.05 1027.49,1213.71 1029.5,1233.35 1031.52,1206.4 1033.53,1100.07 1035.55,981.724 1037.56,1116.84 1039.57,1213.1 1041.59,1233.9 1043.6,1207.17 
  1045.62,1132.75 1047.63,1002.02 1049.65,946.253 1051.66,1090.78 1053.67,1138.82 1055.69,1060.95 1057.7,794.513 1059.72,591.17 1061.73,870.685 1063.74,1064.12 
  1065.76,1191.49 1067.77,1243.77 1069.79,1255.66 1071.8,1234.22 1073.82,1156.54 1075.83,1048.09 1077.84,1050.11 1079.86,1061.77 1081.87,1121.38 1083.89,1096.6 
  1085.9,926.861 1087.91,739.715 1089.93,913.407 1091.94,1016.45 1093.96,1111.1 1095.97,1135.45 1097.99,1117.27 1100,1076.79 1102.01,882.37 1104.03,791.155 
  1106.04,998.306 1108.06,1043.05 1110.07,1067.75 1112.09,1037.59 1114.1,950.941 1116.11,1080.76 1118.13,1161.54 1120.14,1161.07 1122.16,1134.18 1124.17,1115.96 
  1126.18,1221.23 1128.2,1279.38 1130.21,1299.69 1132.23,1301.96 1134.24,1288.87 1136.26,1249.8 1138.27,1152.19 1140.28,1035.84 1142.3,1059.27 1144.31,1058.18 
  1146.33,983.343 1148.34,1052.46 1150.35,1065.8 1152.37,1027.28 1154.38,1050.73 1156.4,1029.84 1158.41,1003.92 1160.43,941.552 1162.44,924.599 1164.45,966.363 
  1166.47,1110.27 1168.48,1234.91 1170.5,1290.35 1172.51,1315.84 1174.52,1328.68 1176.54,1335.01 1178.55,1337.1 1180.57,1335.46 1182.58,1329.31 1184.6,1315.8 
  1186.61,1287.2 1188.62,1221.26 1190.64,1067.56 1192.65,937.532 1194.67,954.262 1196.68,1024.36 1198.69,1182.5 1200.71,1255.94 1202.72,1270.45 1204.74,1236.96 
  1206.75,1170.83 1208.77,1177.66 1210.78,1257.73 1212.79,1295.68 1214.81,1297.06 1216.82,1262.1 1218.84,1172.52 1220.85,1175.44 1222.86,1262.33 1224.88,1291.91 
  1226.89,1278.5 1228.91,1210.96 1230.92,1154.6 1232.94,1241.46 1234.95,1289.33 1236.96,1289.18 1238.98,1240.2 1240.99,1161.96 1243.01,1231.32 1245.02,1300.31 
  1247.03,1326.08 1249.05,1332.68 1251.06,1326.59 1253.08,1301.87 1255.09,1233.16 1257.11,1125.35 1259.12,1200.06 1261.13,1290.32 1263.15,1326.1 1265.16,1339.32 
  1267.18,1341.86 1269.19,1335.28 1271.2,1313.05 1273.22,1252.6 1275.23,1163.81 1277.25,1232.71 1279.26,1306.91 1281.28,1336.56 1283.29,1348.42 1285.3,1352.71 
  1287.32,1352.38 1289.33,1347.29 1291.35,1334.07 1293.36,1301.45 1295.37,1220.01 1297.39,1144.49 1299.4,1242.17 1301.42,1308.87 1303.43,1333.85 1305.45,1342.01 
  1307.46,1340.91 1309.47,1329.76 1311.49,1298.25 1313.5,1218.07 1315.52,1151.55 1317.53,1247.17 1319.54,1307.74 1321.56,1328.78 1323.57,1332.45 1325.59,1323.11 
  1327.6,1292.31 1329.62,1211.71 1331.63,1131.04 1333.64,1222.45 1335.66,1280.4 1337.67,1282.78 1339.69,1232.45 1341.7,1139.84 1343.72,1201.29 1345.73,1275.07 
  1347.74,1291.45 1349.76,1263.92 1351.77,1179.43 1353.79,1177.37 1355.8,1266.4 1357.81,1302.14 1359.83,1303.4 1361.84,1272.25 1363.86,1205.01 1365.87,1199.73 
  1367.89,1251.97 1369.9,1273.33 1371.91,1247.68 1373.93,1153.07 1375.94,956.07 1377.96,918.743 1379.97,983.964 1381.98,1111.38 1384,1241.96 1386.01,1298.86 
  1388.03,1324.28 1390.04,1336.72 1392.06,1342.74 1394.07,1344.8 1396.08,1343.66 1398.1,1338.99 1400.11,1329.14 1402.13,1309.73 1404.14,1268.82 1406.15,1175.68 
  1408.17,1015.81 1410.18,886.526 1412.2,935.309 1414.21,1087.13 1416.23,1171.58 1418.24,1183.6 1420.25,1136.84 1422.27,1121.37 1424.28,1174.33 1426.3,1191.44 
  1428.31,1175.68 1430.32,1136.22 1432.34,1200.95 1434.35,1274.57 1436.37,1317.43 1438.38,1335.89 1440.4,1343.79 1442.41,1346 1444.42,1343.26 1446.44,1332.91 
  1448.45,1313 1450.47,1304.24 1452.48,1280.81 1454.49,1213.67 1456.51,1091.47 1458.52,1007.92 1460.54,1125.75 1462.55,1178.3 1464.57,1229.72 1466.58,1228.89 
  1468.59,1208.98 1470.61,1258.9 1472.62,1291.45 1474.64,1303.09 1476.65,1282.26 1478.66,1240.02 1480.68,1208.5 1482.69,1221.39 1484.71,1190.67 1486.72,1238.27 
  1488.74,1284.23 1490.75,1278.41 1492.76,1245.05 1494.78,1212.41 1496.79,1202.87 1498.81,1273.92 1500.82,1319.88 1502.83,1337.61 1504.85,1341.51 1506.86,1334.28 
  1508.88,1309.57 1510.89,1257.75 1512.91,1179.8 1514.92,1231.41 1516.93,1305.4 1518.95,1332.66 1520.96,1334.9 1522.98,1321.74 1524.99,1329.89 1527,1345.36 
  1529.02,1356.26 1531.03,1360.17 1533.05,1359.04 1535.06,1353.07 1537.08,1343.74 1539.09,1355.48 1541.1,1364.59 1543.12,1366.77 1545.13,1364.31 1547.15,1355.24 
  1549.16,1332.64 1551.17,1310.23 1553.19,1305.58 1555.2,1306.36 1557.22,1334.4 1559.23,1357.69 1561.25,1368.22 1563.26,1373.06 1565.27,1375.59 1567.29,1377.02 
  1569.3,1377.85 1571.32,1378.28 1573.33,1378.41 1575.35,1378.25 1577.36,1377.75 1579.37,1376.78 1581.39,1375.03 1583.4,1371.78 1585.42,1365.25 1587.43,1350.48 
  1589.44,1318.07 1591.46,1278.42 1593.47,1296.9 1595.49,1334.87 1597.5,1358.28 1599.52,1367.72 1601.53,1370.85 1603.54,1371.43 1605.56,1373.22 1607.57,1373.15 
  1609.59,1374.04 1611.6,1373.81 1613.61,1369.38 1615.63,1357.32 1617.64,1351.84 1619.66,1365.99 1621.67,1373.61 1623.69,1376.37 1625.7,1377.08 1627.71,1376.47 
  1629.73,1374.2 1631.74,1368.45 1633.76,1354.13 1635.77,1335.79 1637.78,1345 1639.8,1349.67 1641.81,1354.2 1643.83,1367.49 1645.84,1374.49 1647.86,1377.5 
  1649.87,1378.93 1651.88,1379.64 1653.9,1379.95 1655.91,1379.98 1657.93,1379.75 1659.94,1379.25 1661.95,1378.34 1663.97,1376.78 1665.98,1373.95 1668,1368.31 
  1670.01,1355.42 1672.03,1326.65 1674.04,1304.14 1676.05,1319.27 1678.07,1344.09 1680.08,1361.06 1682.1,1369.32 1684.11,1372.23 1686.12,1373.18 1688.14,1372.6 
  1690.15,1368.51 1692.17,1361.65 1694.18,1364.96 1696.2,1368.73 1698.21,1368.56 1700.22,1363.72 1702.24,1354.59 1704.25,1351.19 1706.27,1348.97 1708.28,1338.04 
  1710.29,1305.81 1712.31,1235.69 1714.32,1195.91 1716.34,1157.62 1718.35,1184.43 1720.37,1216.89 1722.38,1198.75 1724.39,1270.4 1726.41,1319.12 1728.42,1333.39 
  1730.44,1341.54 1732.45,1348.29 1734.46,1341.25 1736.48,1338.47 1738.49,1355.32 1740.51,1366.24 1742.52,1370.68 1744.54,1372.31 1746.55,1372.27 1748.56,1370.68 
  1750.58,1366.53 1752.59,1356.59 1754.61,1332.97 1756.62,1311.36 1758.63,1320.66 1760.65,1320.92 1762.66,1288.53 1764.68,1280.73 1766.69,1324.82 1768.71,1339.91 
  1770.72,1333.7 1772.73,1340.48 1774.75,1345.67 1776.76,1354.26 1778.78,1363.83 1780.79,1368.45 1782.81,1368.08 1784.82,1368.88 1786.83,1370.06 1788.85,1368.89 
  1790.86,1372.81 1792.88,1373.78 1794.89,1373.6 1796.9,1376.75 1798.92,1378.48 1800.93,1378.39 1802.95,1376.84 1804.96,1374.81 1806.98,1374.83 1808.99,1372.08 
  1811,1363.03 1813.02,1349 1815.03,1344.38 1817.05,1357.8 1819.06,1369.32 1821.07,1373.25 1823.09,1373.51 1825.1,1370.8 1827.12,1363.51 1829.13,1350.4 
  1831.15,1322.02 1833.16,1287.88 1835.17,1322.9 1837.19,1353.59 1839.2,1366.6 1841.22,1370.86 1843.23,1369.46 1845.24,1366.95 1847.26,1372.74 1849.27,1376.86 
  1851.29,1378.76 1853.3,1379.35 1855.32,1378.95 1857.33,1376.6 1859.34,1371.33 1861.36,1372.33 1863.37,1377.08 1865.39,1378.69 1867.4,1379.19 1869.41,1378.2 
  1871.43,1374.53 1873.44,1370.84 1875.46,1370.62 1877.47,1369.51 1879.49,1361.47 1881.5,1354.5 1883.51,1356.12 1885.53,1366.98 1887.54,1374.78 1889.56,1378.61 
  1891.57,1380.25 1893.58,1380.97 1895.6,1381.14 1897.61,1380.8 1899.63,1379.74 1901.64,1377.86 1903.66,1375.28 1905.67,1369.22 1907.68,1357.69 1909.7,1350.55 
  1911.71,1341.58 1913.73,1354.09 1915.74,1368.21 1917.75,1372.37 1919.77,1371.72 1921.78,1371.8 1923.8,1370.13 1925.81,1374.53 1927.83,1377.78 1929.84,1377.89 
  1931.85,1375.06 1933.87,1372.26 1935.88,1373.65 1937.9,1376.02 1939.91,1377.35 1941.92,1375.63 1943.94,1374.67 1945.95,1376.45 1947.97,1374.3 1949.98,1366.76 
  1952,1366.47 1954.01,1371.06 1956.02,1370.28 1958.04,1373.97 1960.05,1375.48 1962.07,1373.15 1964.08,1371.54 1966.09,1376.3 1968.11,1378.69 1970.12,1379.45 
  1972.14,1381.02 1974.15,1382.01 1976.17,1382.08 1978.18,1381.21 1980.19,1378.95 1982.21,1378.58 1984.22,1380.03 1986.24,1380.02 1988.25,1379.13 1990.26,1380.03 
  1992.28,1380.05 1994.29,1378.51 1996.31,1374.42 1998.32,1364.28 2000.34,1348.61 2002.35,1344.56 2004.36,1359.61 2006.38,1372.51 2008.39,1377.79 2010.41,1379.97 
  2012.42,1380.72 2014.44,1380.3 2016.45,1378.92 2018.46,1379 2020.48,1378.99 2022.49,1377.13 2024.51,1371.73 2026.52,1368.38 2028.53,1374.17 2030.55,1377.68 
  2032.56,1379.18 2034.58,1378.11 2036.59,1375.64 2038.61,1378.49 2040.62,1380.78 2042.63,1380.93 2044.65,1379.87 2046.66,1379.98 2048.68,1378.92 2050.69,1374.59 
  2052.7,1371.65 2054.72,1374 2056.73,1378.4 2058.75,1380.35 2060.76,1380.9 2062.78,1381.89 2064.79,1382.03 2066.8,1381.02 2068.82,1377.89 2070.83,1375.02 
  2072.85,1378.84 2074.86,1381.27 2076.87,1381.94 2078.89,1381.67 2080.9,1380.45 2082.92,1378.57 2084.93,1374.59 2086.95,1363.91 2088.96,1354.91 2090.97,1366.23 
  2092.99,1375.75 2095,1379.51 2097.02,1380.72 2099.03,1380.25 2101.04,1377.96 2103.06,1377.1 2105.07,1380.13 2107.09,1381.93 2109.1,1382.37 2111.12,1381.89 
  2113.13,1380.09 2115.14,1377.7 2117.16,1376.33 2119.17,1374.87 2121.19,1378.42 2123.2,1380.27 2125.21,1380.63 2127.23,1379.92 2129.24,1378.78 2131.26,1375.63 
  2133.27,1376.23 2135.29,1380.02 2137.3,1381.24 2139.31,1381.69 2141.33,1381.62 2143.34,1380.96 2145.36,1380.3 2147.37,1380.96 2149.38,1379.73 2151.4,1376.48 
  2153.41,1377.71 2155.43,1379.06 2157.44,1377.53 2159.46,1378.32 2161.47,1380.81 2163.48,1381.52 2165.5,1380.7 2167.51,1377.56 2169.53,1372.64 2171.54,1375.64 
  2173.55,1378.03 2175.57,1375.96 2177.58,1373.45 2179.6,1377.09 2181.61,1380.05 2183.63,1380.01 2185.64,1378.6 2187.65,1380.22 2189.67,1381.29 2191.68,1380.69 
  2193.7,1381.6 2195.71,1382.97 2197.72,1383.44 2199.74,1383.33 2201.75,1382.56 2203.77,1380.95 2205.78,1379.49 2207.8,1380.49 2209.81,1381.27 2211.82,1380.17 
  2213.84,1380.32 2215.85,1380.05 2217.87,1376.9 2219.88,1376.59 2221.9,1380.1 2223.91,1381.27 2225.92,1382.19 2227.94,1382.76 2229.95,1382.5 2231.97,1381.12 
  2233.98,1378.87 2235.99,1378.38 2238.01,1379.67 2240.02,1378.65 2242.04,1374.38 2244.05,1371.7 2246.07,1376.42 2248.08,1378.58 2250.09,1381.07 2252.11,1382.44 
  2254.12,1382.73 2256.14,1382.24 2258.15,1380.25 2260.16,1376.68 2262.18,1378.68 2264.19,1381.81 2266.21,1383.07 2268.22,1383.4 2270.24,1383.12 2272.25,1381.9 
  2274.26,1379.1 2276.28,1378.66 2278.29,1381.11 2280.31,1382.81 2282.32,1383.72 2284.33,1384.1 2286.35,1384.24 2288.36,1384.19 2290.38,1383.92 2292.39,1383.22 
  
  "/>
<path clip-path="url(#clip730)" d="
M1992.24 196.789 L2281.66 196.789 L2281.66 93.1086 L1992.24 93.1086  Z
  " fill="#ffffff" fill-rule="evenodd" fill-opacity="1"/>
<polyline clip-path="url(#clip730)" style="stroke:#000000; stroke-linecap:butt; stroke-linejoin:round; stroke-width:4; stroke-opacity:1; fill:none" points="
  1992.24,196.789 2281.66,196.789 2281.66,93.1086 1992.24,93.1086 1992.24,196.789 
  "/>
<polyline clip-path="url(#clip730)" style="stroke:#009af9; stroke-linecap:butt; stroke-linejoin:round; stroke-width:4; stroke-opacity:1; fill:none" points="
  2015.94,144.949 2158.13,144.949 
  "/>
<path clip-path="url(#clip730)" d="M2195.67 164.636 Q2193.87 169.266 2192.16 170.678 Q2190.44 172.09 2187.57 172.09 L2184.17 172.09 L2184.17 168.525 L2186.67 168.525 Q2188.43 168.525 2189.4 167.692 Q2190.37 166.858 2191.55 163.756 L2192.32 161.812 L2181.83 136.303 L2186.35 136.303 L2194.45 156.581 L2202.55 136.303 L2207.06 136.303 L2195.67 164.636 Z" fill="#000000" fill-rule="evenodd" fill-opacity="1" /><path clip-path="url(#clip730)" d="M2214.35 158.293 L2221.99 158.293 L2221.99 131.928 L2213.68 133.595 L2213.68 129.335 L2221.95 127.669 L2226.62 127.669 L2226.62 158.293 L2234.26 158.293 L2234.26 162.229 L2214.35 162.229 L2214.35 158.293 Z" fill="#000000" fill-rule="evenodd" fill-opacity="1" /></svg>
