<?xml version="1.0" encoding="utf-8"?>
<svg xmlns="http://www.w3.org/2000/svg" xmlns:xlink="http://www.w3.org/1999/xlink" width="600" height="400" viewBox="0 0 2400 1600">
<defs>
  <clipPath id="clip780">
    <rect x="0" y="0" width="2400" height="1600"/>
  </clipPath>
</defs>
<path clip-path="url(#clip780)" d="
M0 1600 L2400 1600 L2400 0 L0 0  Z
  " fill="#ffffff" fill-rule="evenodd" fill-opacity="1"/>
<defs>
  <clipPath id="clip781">
    <rect x="480" y="0" width="1681" height="1600"/>
  </clipPath>
</defs>
<path clip-path="url(#clip780)" d="
M175.445 1423.18 L2112.76 1423.18 L2112.76 47.2441 L175.445 47.2441  Z
  " fill="#ffffff" fill-rule="evenodd" fill-opacity="1"/>
<defs>
  <clipPath id="clip782">
    <rect x="175" y="47" width="1938" height="1377"/>
  </clipPath>
</defs>
<polyline clip-path="url(#clip782)" style="stroke:#000000; stroke-linecap:round; stroke-linejoin:round; stroke-width:2; stroke-opacity:0.1; fill:none" points="
  175.445,1423.18 175.445,47.2441 
  "/>
<polyline clip-path="url(#clip782)" style="stroke:#000000; stroke-linecap:round; stroke-linejoin:round; stroke-width:2; stroke-opacity:0.1; fill:none" points="
  452.204,1423.18 452.204,47.2441 
  "/>
<polyline clip-path="url(#clip782)" style="stroke:#000000; stroke-linecap:round; stroke-linejoin:round; stroke-width:2; stroke-opacity:0.1; fill:none" points="
  728.963,1423.18 728.963,47.2441 
  "/>
<polyline clip-path="url(#clip782)" style="stroke:#000000; stroke-linecap:round; stroke-linejoin:round; stroke-width:2; stroke-opacity:0.1; fill:none" points="
  1005.72,1423.18 1005.72,47.2441 
  "/>
<polyline clip-path="url(#clip782)" style="stroke:#000000; stroke-linecap:round; stroke-linejoin:round; stroke-width:2; stroke-opacity:0.1; fill:none" points="
  1282.48,1423.18 1282.48,47.2441 
  "/>
<polyline clip-path="url(#clip782)" style="stroke:#000000; stroke-linecap:round; stroke-linejoin:round; stroke-width:2; stroke-opacity:0.1; fill:none" points="
  1559.24,1423.18 1559.24,47.2441 
  "/>
<polyline clip-path="url(#clip782)" style="stroke:#000000; stroke-linecap:round; stroke-linejoin:round; stroke-width:2; stroke-opacity:0.1; fill:none" points="
  1836,1423.18 1836,47.2441 
  "/>
<polyline clip-path="url(#clip782)" style="stroke:#000000; stroke-linecap:round; stroke-linejoin:round; stroke-width:2; stroke-opacity:0.1; fill:none" points="
  2112.76,1423.18 2112.76,47.2441 
  "/>
<polyline clip-path="url(#clip780)" style="stroke:#000000; stroke-linecap:round; stroke-linejoin:round; stroke-width:4; stroke-opacity:1; fill:none" points="
  175.445,1423.18 2112.76,1423.18 
  "/>
<polyline clip-path="url(#clip780)" style="stroke:#000000; stroke-linecap:round; stroke-linejoin:round; stroke-width:4; stroke-opacity:1; fill:none" points="
  175.445,1423.18 175.445,1404.28 
  "/>
<polyline clip-path="url(#clip780)" style="stroke:#000000; stroke-linecap:round; stroke-linejoin:round; stroke-width:4; stroke-opacity:1; fill:none" points="
  452.204,1423.18 452.204,1404.28 
  "/>
<polyline clip-path="url(#clip780)" style="stroke:#000000; stroke-linecap:round; stroke-linejoin:round; stroke-width:4; stroke-opacity:1; fill:none" points="
  728.963,1423.18 728.963,1404.28 
  "/>
<polyline clip-path="url(#clip780)" style="stroke:#000000; stroke-linecap:round; stroke-linejoin:round; stroke-width:4; stroke-opacity:1; fill:none" points="
  1005.72,1423.18 1005.72,1404.28 
  "/>
<polyline clip-path="url(#clip780)" style="stroke:#000000; stroke-linecap:round; stroke-linejoin:round; stroke-width:4; stroke-opacity:1; fill:none" points="
  1282.48,1423.18 1282.48,1404.28 
  "/>
<polyline clip-path="url(#clip780)" style="stroke:#000000; stroke-linecap:round; stroke-linejoin:round; stroke-width:4; stroke-opacity:1; fill:none" points="
  1559.24,1423.18 1559.24,1404.28 
  "/>
<polyline clip-path="url(#clip780)" style="stroke:#000000; stroke-linecap:round; stroke-linejoin:round; stroke-width:4; stroke-opacity:1; fill:none" points="
  1836,1423.18 1836,1404.28 
  "/>
<polyline clip-path="url(#clip780)" style="stroke:#000000; stroke-linecap:round; stroke-linejoin:round; stroke-width:4; stroke-opacity:1; fill:none" points="
  2112.76,1423.18 2112.76,1404.28 
  "/>
<path clip-path="url(#clip780)" d="M165.827 1481.64 L173.466 1481.64 L173.466 1455.28 L165.156 1456.95 L165.156 1452.69 L173.42 1451.02 L178.096 1451.02 L178.096 1481.64 L185.735 1481.64 L185.735 1485.58 L165.827 1485.58 L165.827 1481.64 Z" fill="#000000" fill-rule="evenodd" fill-opacity="1" /><path clip-path="url(#clip780)" d="M446.857 1481.64 L463.176 1481.64 L463.176 1485.58 L441.232 1485.58 L441.232 1481.64 Q443.894 1478.89 448.477 1474.26 Q453.084 1469.61 454.264 1468.27 Q456.509 1465.74 457.389 1464.01 Q458.292 1462.25 458.292 1460.56 Q458.292 1457.8 456.347 1456.07 Q454.426 1454.33 451.324 1454.33 Q449.125 1454.33 446.672 1455.09 Q444.241 1455.86 441.463 1457.41 L441.463 1452.69 Q444.287 1451.55 446.741 1450.97 Q449.195 1450.39 451.232 1450.39 Q456.602 1450.39 459.796 1453.08 Q462.991 1455.77 462.991 1460.26 Q462.991 1462.39 462.181 1464.31 Q461.394 1466.2 459.287 1468.8 Q458.708 1469.47 455.607 1472.69 Q452.505 1475.88 446.857 1481.64 Z" fill="#000000" fill-rule="evenodd" fill-opacity="1" /><path clip-path="url(#clip780)" d="M733.21 1466.95 Q736.567 1467.66 738.442 1469.93 Q740.34 1472.2 740.34 1475.53 Q740.34 1480.65 736.821 1483.45 Q733.303 1486.25 726.821 1486.25 Q724.645 1486.25 722.331 1485.81 Q720.039 1485.39 717.585 1484.54 L717.585 1480.02 Q719.53 1481.16 721.845 1481.74 Q724.159 1482.32 726.682 1482.32 Q731.081 1482.32 733.372 1480.58 Q735.687 1478.84 735.687 1475.53 Q735.687 1472.48 733.534 1470.77 Q731.405 1469.03 727.585 1469.03 L723.557 1469.03 L723.557 1465.19 L727.77 1465.19 Q731.219 1465.19 733.048 1463.82 Q734.877 1462.43 734.877 1459.84 Q734.877 1457.18 732.979 1455.77 Q731.104 1454.33 727.585 1454.33 Q725.664 1454.33 723.465 1454.75 Q721.266 1455.16 718.627 1456.04 L718.627 1451.88 Q721.289 1451.14 723.604 1450.77 Q725.942 1450.39 728.002 1450.39 Q733.326 1450.39 736.428 1452.83 Q739.53 1455.23 739.53 1459.35 Q739.53 1462.22 737.886 1464.21 Q736.243 1466.18 733.21 1466.95 Z" fill="#000000" fill-rule="evenodd" fill-opacity="1" /><path clip-path="url(#clip780)" d="M1008.73 1455.09 L996.925 1473.54 L1008.73 1473.54 L1008.73 1455.09 M1007.5 1451.02 L1013.38 1451.02 L1013.38 1473.54 L1018.31 1473.54 L1018.31 1477.43 L1013.38 1477.43 L1013.38 1485.58 L1008.73 1485.58 L1008.73 1477.43 L993.129 1477.43 L993.129 1472.92 L1007.5 1451.02 Z" fill="#000000" fill-rule="evenodd" fill-opacity="1" /><path clip-path="url(#clip780)" d="M1272.76 1451.02 L1291.11 1451.02 L1291.11 1454.96 L1277.04 1454.96 L1277.04 1463.43 Q1278.06 1463.08 1279.08 1462.92 Q1280.1 1462.73 1281.11 1462.73 Q1286.9 1462.73 1290.28 1465.9 Q1293.66 1469.08 1293.66 1474.49 Q1293.66 1480.07 1290.19 1483.17 Q1286.72 1486.25 1280.4 1486.25 Q1278.22 1486.25 1275.95 1485.88 Q1273.71 1485.51 1271.3 1484.77 L1271.3 1480.07 Q1273.38 1481.2 1275.6 1481.76 Q1277.83 1482.32 1280.3 1482.32 Q1284.31 1482.32 1286.65 1480.21 Q1288.98 1478.1 1288.98 1474.49 Q1288.98 1470.88 1286.65 1468.77 Q1284.31 1466.67 1280.3 1466.67 Q1278.43 1466.67 1276.55 1467.08 Q1274.7 1467.5 1272.76 1468.38 L1272.76 1451.02 Z" fill="#000000" fill-rule="evenodd" fill-opacity="1" /><path clip-path="url(#clip780)" d="M1559.64 1466.44 Q1556.5 1466.44 1554.64 1468.59 Q1552.81 1470.74 1552.81 1474.49 Q1552.81 1478.22 1554.64 1480.39 Q1556.5 1482.55 1559.64 1482.55 Q1562.79 1482.55 1564.62 1480.39 Q1566.47 1478.22 1566.47 1474.49 Q1566.47 1470.74 1564.62 1468.59 Q1562.79 1466.44 1559.64 1466.44 M1568.93 1451.78 L1568.93 1456.04 Q1567.17 1455.21 1565.36 1454.77 Q1563.58 1454.33 1561.82 1454.33 Q1557.19 1454.33 1554.74 1457.45 Q1552.31 1460.58 1551.96 1466.9 Q1553.32 1464.89 1555.38 1463.82 Q1557.44 1462.73 1559.92 1462.73 Q1565.13 1462.73 1568.14 1465.9 Q1571.17 1469.05 1571.17 1474.49 Q1571.17 1479.82 1568.02 1483.03 Q1564.88 1486.25 1559.64 1486.25 Q1553.65 1486.25 1550.48 1481.67 Q1547.31 1477.06 1547.31 1468.33 Q1547.31 1460.14 1551.19 1455.28 Q1555.08 1450.39 1561.63 1450.39 Q1563.39 1450.39 1565.18 1450.74 Q1566.98 1451.09 1568.93 1451.78 Z" fill="#000000" fill-rule="evenodd" fill-opacity="1" /><path clip-path="url(#clip780)" d="M1824.89 1451.02 L1847.11 1451.02 L1847.11 1453.01 L1834.56 1485.58 L1829.68 1485.58 L1841.48 1454.96 L1824.89 1454.96 L1824.89 1451.02 Z" fill="#000000" fill-rule="evenodd" fill-opacity="1" /><path clip-path="url(#clip780)" d="M2112.76 1469.17 Q2109.42 1469.17 2107.5 1470.95 Q2105.6 1472.73 2105.6 1475.86 Q2105.6 1478.98 2107.5 1480.77 Q2109.42 1482.55 2112.76 1482.55 Q2116.09 1482.55 2118.01 1480.77 Q2119.93 1478.96 2119.93 1475.86 Q2119.93 1472.73 2118.01 1470.95 Q2116.11 1469.17 2112.76 1469.17 M2108.08 1467.18 Q2105.07 1466.44 2103.38 1464.38 Q2101.71 1462.32 2101.71 1459.35 Q2101.71 1455.21 2104.65 1452.8 Q2107.62 1450.39 2112.76 1450.39 Q2117.92 1450.39 2120.86 1452.8 Q2123.8 1455.21 2123.8 1459.35 Q2123.8 1462.32 2122.11 1464.38 Q2120.44 1466.44 2117.45 1467.18 Q2120.83 1467.96 2122.71 1470.26 Q2124.61 1472.55 2124.61 1475.86 Q2124.61 1480.88 2121.53 1483.57 Q2118.47 1486.25 2112.76 1486.25 Q2107.04 1486.25 2103.96 1483.57 Q2100.9 1480.88 2100.9 1475.86 Q2100.9 1472.55 2102.8 1470.26 Q2104.7 1467.96 2108.08 1467.18 M2106.37 1459.79 Q2106.37 1462.48 2108.03 1463.98 Q2109.72 1465.49 2112.76 1465.49 Q2115.77 1465.49 2117.45 1463.98 Q2119.17 1462.48 2119.17 1459.79 Q2119.17 1457.11 2117.45 1455.6 Q2115.77 1454.1 2112.76 1454.1 Q2109.72 1454.1 2108.03 1455.6 Q2106.37 1457.11 2106.37 1459.79 Z" fill="#000000" fill-rule="evenodd" fill-opacity="1" /><path clip-path="url(#clip780)" d="M1119.89 1532.4 L1125.75 1532.4 L1125.75 1568.04 L1119.89 1568.04 L1119.89 1532.4 M1119.89 1518.52 L1125.75 1518.52 L1125.75 1525.93 L1119.89 1525.93 L1119.89 1518.52 Z" fill="#000000" fill-rule="evenodd" fill-opacity="1" /><path clip-path="url(#clip780)" d="M1167.64 1532.4 L1154.75 1549.74 L1168.31 1568.04 L1161.4 1568.04 L1151.02 1554.04 L1140.65 1568.04 L1133.74 1568.04 L1147.59 1549.39 L1134.92 1532.4 L1141.82 1532.4 L1151.28 1545.1 L1160.73 1532.4 L1167.64 1532.4 Z" fill="#000000" fill-rule="evenodd" fill-opacity="1" /><polyline clip-path="url(#clip782)" style="stroke:#000000; stroke-linecap:round; stroke-linejoin:round; stroke-width:2; stroke-opacity:0.1; fill:none" points="
  175.445,1423.18 2112.76,1423.18 
  "/>
<polyline clip-path="url(#clip782)" style="stroke:#000000; stroke-linecap:round; stroke-linejoin:round; stroke-width:2; stroke-opacity:0.1; fill:none" points="
  175.445,1226.62 2112.76,1226.62 
  "/>
<polyline clip-path="url(#clip782)" style="stroke:#000000; stroke-linecap:round; stroke-linejoin:round; stroke-width:2; stroke-opacity:0.1; fill:none" points="
  175.445,1030.06 2112.76,1030.06 
  "/>
<polyline clip-path="url(#clip782)" style="stroke:#000000; stroke-linecap:round; stroke-linejoin:round; stroke-width:2; stroke-opacity:0.1; fill:none" points="
  175.445,833.493 2112.76,833.493 
  "/>
<polyline clip-path="url(#clip782)" style="stroke:#000000; stroke-linecap:round; stroke-linejoin:round; stroke-width:2; stroke-opacity:0.1; fill:none" points="
  175.445,636.931 2112.76,636.931 
  "/>
<polyline clip-path="url(#clip782)" style="stroke:#000000; stroke-linecap:round; stroke-linejoin:round; stroke-width:2; stroke-opacity:0.1; fill:none" points="
  175.445,440.369 2112.76,440.369 
  "/>
<polyline clip-path="url(#clip782)" style="stroke:#000000; stroke-linecap:round; stroke-linejoin:round; stroke-width:2; stroke-opacity:0.1; fill:none" points="
  175.445,243.806 2112.76,243.806 
  "/>
<polyline clip-path="url(#clip782)" style="stroke:#000000; stroke-linecap:round; stroke-linejoin:round; stroke-width:2; stroke-opacity:0.1; fill:none" points="
  175.445,47.2441 2112.76,47.2441 
  "/>
<polyline clip-path="url(#clip780)" style="stroke:#000000; stroke-linecap:round; stroke-linejoin:round; stroke-width:4; stroke-opacity:1; fill:none" points="
  175.445,1423.18 175.445,47.2441 
  "/>
<polyline clip-path="url(#clip780)" style="stroke:#000000; stroke-linecap:round; stroke-linejoin:round; stroke-width:4; stroke-opacity:1; fill:none" points="
  175.445,1423.18 192.26,1423.18 
  "/>
<polyline clip-path="url(#clip780)" style="stroke:#000000; stroke-linecap:round; stroke-linejoin:round; stroke-width:4; stroke-opacity:1; fill:none" points="
  175.445,1226.62 192.26,1226.62 
  "/>
<polyline clip-path="url(#clip780)" style="stroke:#000000; stroke-linecap:round; stroke-linejoin:round; stroke-width:4; stroke-opacity:1; fill:none" points="
  175.445,1030.06 192.26,1030.06 
  "/>
<polyline clip-path="url(#clip780)" style="stroke:#000000; stroke-linecap:round; stroke-linejoin:round; stroke-width:4; stroke-opacity:1; fill:none" points="
  175.445,833.493 192.26,833.493 
  "/>
<polyline clip-path="url(#clip780)" style="stroke:#000000; stroke-linecap:round; stroke-linejoin:round; stroke-width:4; stroke-opacity:1; fill:none" points="
  175.445,636.931 192.26,636.931 
  "/>
<polyline clip-path="url(#clip780)" style="stroke:#000000; stroke-linecap:round; stroke-linejoin:round; stroke-width:4; stroke-opacity:1; fill:none" points="
  175.445,440.369 192.26,440.369 
  "/>
<polyline clip-path="url(#clip780)" style="stroke:#000000; stroke-linecap:round; stroke-linejoin:round; stroke-width:4; stroke-opacity:1; fill:none" points="
  175.445,243.806 192.26,243.806 
  "/>
<polyline clip-path="url(#clip780)" style="stroke:#000000; stroke-linecap:round; stroke-linejoin:round; stroke-width:4; stroke-opacity:1; fill:none" points="
  175.445,47.2441 192.26,47.2441 
  "/>
<path clip-path="url(#clip780)" d="M119.538 1436.52 L127.177 1436.52 L127.177 1410.16 L118.867 1411.83 L118.867 1407.57 L127.13 1405.9 L131.806 1405.9 L131.806 1436.52 L139.445 1436.52 L139.445 1440.46 L119.538 1440.46 L119.538 1436.52 Z" fill="#000000" fill-rule="evenodd" fill-opacity="1" /><path clip-path="url(#clip780)" d="M123.126 1239.96 L139.445 1239.96 L139.445 1243.9 L117.501 1243.9 L117.501 1239.96 Q120.163 1237.21 124.746 1232.58 Q129.353 1227.93 130.533 1226.58 Q132.779 1224.06 133.658 1222.32 Q134.561 1220.56 134.561 1218.87 Q134.561 1216.12 132.617 1214.38 Q130.695 1212.65 127.593 1212.65 Q125.394 1212.65 122.941 1213.41 Q120.51 1214.18 117.732 1215.73 L117.732 1211 Q120.556 1209.87 123.01 1209.29 Q125.464 1208.71 127.501 1208.71 Q132.871 1208.71 136.066 1211.4 Q139.26 1214.08 139.26 1218.57 Q139.26 1220.7 138.45 1222.62 Q137.663 1224.52 135.556 1227.12 Q134.978 1227.79 131.876 1231 Q128.774 1234.2 123.126 1239.96 Z" fill="#000000" fill-rule="evenodd" fill-opacity="1" /><path clip-path="url(#clip780)" d="M132.316 1028.7 Q135.672 1029.42 137.547 1031.69 Q139.445 1033.96 139.445 1037.29 Q139.445 1042.4 135.927 1045.21 Q132.408 1048.01 125.927 1048.01 Q123.751 1048.01 121.436 1047.57 Q119.144 1047.15 116.691 1046.29 L116.691 1041.78 Q118.635 1042.91 120.95 1043.49 Q123.265 1044.07 125.788 1044.07 Q130.186 1044.07 132.478 1042.34 Q134.792 1040.6 134.792 1037.29 Q134.792 1034.23 132.64 1032.52 Q130.51 1030.78 126.691 1030.78 L122.663 1030.78 L122.663 1026.94 L126.876 1026.94 Q130.325 1026.94 132.154 1025.58 Q133.982 1024.19 133.982 1021.59 Q133.982 1018.93 132.084 1017.52 Q130.209 1016.09 126.691 1016.09 Q124.769 1016.09 122.57 1016.5 Q120.371 1016.92 117.732 1017.8 L117.732 1013.63 Q120.394 1012.89 122.709 1012.52 Q125.047 1012.15 127.107 1012.15 Q132.431 1012.15 135.533 1014.58 Q138.635 1016.99 138.635 1021.11 Q138.635 1023.98 136.992 1025.97 Q135.348 1027.94 132.316 1028.7 Z" fill="#000000" fill-rule="evenodd" fill-opacity="1" /><path clip-path="url(#clip780)" d="M129.862 820.287 L118.056 838.736 L129.862 838.736 L129.862 820.287 M128.635 816.213 L134.515 816.213 L134.515 838.736 L139.445 838.736 L139.445 842.625 L134.515 842.625 L134.515 850.773 L129.862 850.773 L129.862 842.625 L114.26 842.625 L114.26 838.111 L128.635 816.213 Z" fill="#000000" fill-rule="evenodd" fill-opacity="1" /><path clip-path="url(#clip780)" d="M118.543 619.651 L136.899 619.651 L136.899 623.586 L122.825 623.586 L122.825 632.058 Q123.843 631.711 124.862 631.549 Q125.88 631.364 126.899 631.364 Q132.686 631.364 136.066 634.535 Q139.445 637.706 139.445 643.123 Q139.445 648.702 135.973 651.803 Q132.501 654.882 126.181 654.882 Q124.005 654.882 121.737 654.512 Q119.492 654.141 117.084 653.401 L117.084 648.702 Q119.168 649.836 121.39 650.391 Q123.612 650.947 126.089 650.947 Q130.093 650.947 132.431 648.841 Q134.769 646.734 134.769 643.123 Q134.769 639.512 132.431 637.405 Q130.093 635.299 126.089 635.299 Q124.214 635.299 122.339 635.716 Q120.487 636.132 118.543 637.012 L118.543 619.651 Z" fill="#000000" fill-rule="evenodd" fill-opacity="1" /><path clip-path="url(#clip780)" d="M127.917 438.505 Q124.769 438.505 122.918 440.658 Q121.089 442.811 121.089 446.561 Q121.089 450.288 122.918 452.463 Q124.769 454.616 127.917 454.616 Q131.066 454.616 132.894 452.463 Q134.746 450.288 134.746 446.561 Q134.746 442.811 132.894 440.658 Q131.066 438.505 127.917 438.505 M137.2 423.852 L137.2 428.112 Q135.441 427.278 133.635 426.839 Q131.853 426.399 130.093 426.399 Q125.464 426.399 123.01 429.524 Q120.58 432.649 120.232 438.968 Q121.598 436.954 123.658 435.889 Q125.718 434.801 128.195 434.801 Q133.404 434.801 136.413 437.973 Q139.445 441.121 139.445 446.561 Q139.445 451.885 136.297 455.102 Q133.149 458.32 127.917 458.32 Q121.922 458.32 118.751 453.737 Q115.58 449.13 115.58 440.403 Q115.58 432.209 119.468 427.348 Q123.357 422.464 129.908 422.464 Q131.667 422.464 133.45 422.811 Q135.255 423.158 137.2 423.852 Z" fill="#000000" fill-rule="evenodd" fill-opacity="1" /><path clip-path="url(#clip780)" d="M117.223 226.526 L139.445 226.526 L139.445 228.517 L126.899 261.086 L122.015 261.086 L133.82 230.462 L117.223 230.462 L117.223 226.526 Z" fill="#000000" fill-rule="evenodd" fill-opacity="1" /><path clip-path="url(#clip780)" d="M127.593 48.1121 Q124.26 48.1121 122.339 49.8945 Q120.441 51.6769 120.441 54.8019 Q120.441 57.9269 122.339 59.7093 Q124.26 61.4917 127.593 61.4917 Q130.927 61.4917 132.848 59.7093 Q134.769 57.9038 134.769 54.8019 Q134.769 51.6769 132.848 49.8945 Q130.95 48.1121 127.593 48.1121 M122.918 46.1214 Q119.908 45.3807 118.218 43.3205 Q116.552 41.2603 116.552 38.2974 Q116.552 34.1539 119.492 31.7465 Q122.455 29.3391 127.593 29.3391 Q132.755 29.3391 135.695 31.7465 Q138.635 34.1539 138.635 38.2974 Q138.635 41.2603 136.945 43.3205 Q135.279 45.3807 132.292 46.1214 Q135.672 46.9084 137.547 49.2001 Q139.445 51.4918 139.445 54.8019 Q139.445 59.825 136.367 62.5102 Q133.311 65.1954 127.593 65.1954 Q121.876 65.1954 118.797 62.5102 Q115.742 59.825 115.742 54.8019 Q115.742 51.4918 117.64 49.2001 Q119.538 46.9084 122.918 46.1214 M121.205 38.7372 Q121.205 41.4224 122.871 42.927 Q124.561 44.4316 127.593 44.4316 Q130.603 44.4316 132.292 42.927 Q134.005 41.4224 134.005 38.7372 Q134.005 36.052 132.292 34.5474 Q130.603 33.0428 127.593 33.0428 Q124.561 33.0428 122.871 34.5474 Q121.205 36.052 121.205 38.7372 Z" fill="#000000" fill-rule="evenodd" fill-opacity="1" /><path clip-path="url(#clip780)" d="M28.3562 759.513 L28.3562 753.657 L64.0042 753.657 L64.0042 759.513 L28.3562 759.513 M14.479 759.513 L14.479 753.657 L21.895 753.657 L21.895 759.513 L14.479 759.513 Z" fill="#000000" fill-rule="evenodd" fill-opacity="1" /><path clip-path="url(#clip780)" d="M67.3143 726.571 Q73.68 729.053 75.6216 731.408 Q77.5631 733.764 77.5631 737.711 L77.5631 742.389 L72.6615 742.389 L72.6615 738.952 Q72.6615 736.533 71.5157 735.196 Q70.3699 733.859 66.1048 732.236 L63.4312 731.186 L28.3562 745.604 L28.3562 739.397 L56.238 728.257 L28.3562 717.117 L28.3562 710.911 L67.3143 726.571 Z" fill="#000000" fill-rule="evenodd" fill-opacity="1" /><path clip-path="url(#clip782)" d="
M175.445 1423.18 L175.445 1423.18 L452.204 1423.18 L728.963 1423.18 L1005.72 1423.18 L1282.48 1423.18 L1559.24 1423.18 L1836 1423.18 L2112.76 1423.18 L2112.76 1423.18 
  L2112.76 1423.18 L2112.76 1423.18 L2112.76 1226.62 L2112.76 1030.06 L2112.76 833.493 L2112.76 636.931 L2112.76 440.369 L2112.76 243.806 L2112.76 47.2441 L2112.76 47.2441 
  L2112.76 47.2441 L2112.76 47.2441 L1836 47.2441 L1559.24 47.2441 L1282.48 47.2441 L1005.72 47.2441 L728.963 47.2441 L452.204 47.2441 L175.445 47.2441 L175.445 47.2441 
  L175.445 47.2441 L175.445 47.2441 L175.445 243.806 L175.445 440.369 L175.445 636.931 L175.445 833.493 L175.445 1030.06 L175.445 1226.62 L175.445 1423.18 L175.445 1423.18 
  L175.445 1423.18  Z
  " fill="#000003" fill-rule="evenodd" fill-opacity="1"/>
<path clip-path="url(#clip782)" d="
M175.445 1423.18 L175.445 1423.18 L452.204 1423.18 L452.204 1423.18 L703.755 1423.18 L728.963 1403.91 L1005.72 1414.58 L1282.48 1414.58 L1559.24 1403.91 L1584.45 1423.18 
  L1559.24 1423.18 L1836 1423.18 L2112.76 1423.18 L2112.76 1423.18 L2112.76 1423.18 L2112.76 1423.18 L2112.76 1226.62 L2112.76 1226.62 L2112.76 1047.96 L2085.63 1030.06 
  L2100.64 833.493 L2100.64 636.931 L2085.63 440.369 L2112.76 422.465 L2112.76 440.369 L2112.76 243.806 L2112.76 47.2441 L2112.76 47.2441 L2112.76 47.2441 L2112.76 47.2441 
  L1836 47.2441 L1559.24 47.2441 L1584.45 47.2441 L1559.24 66.5117 L1282.48 55.8465 L1005.72 55.8468 L728.963 66.5117 L703.755 47.2441 L452.204 47.2441 L452.204 47.2441 
  L175.445 47.2441 L175.445 47.2441 L175.445 47.2441 L175.445 47.2441 L175.445 243.806 L175.445 440.369 L175.445 422.465 L202.574 440.369 L187.558 636.931 L187.558 833.493 
  L202.574 1030.06 L175.445 1047.96 L175.445 1226.62 L175.445 1226.62 L175.445 1423.18 L175.445 1423.18 L175.445 1423.18 M1005.72 1122.54 L1282.48 1122.54 
  L1367.57 1030.06 L1559.24 893.923 L1689.46 833.493 L1689.46 636.931 L1559.24 576.501 L1367.57 440.369 L1282.48 347.884 L1005.72 347.884 L920.636 440.369 L728.963 576.501 
  L598.745 636.931 L598.745 833.493 L728.963 893.923 L920.636 1030.06 L1005.72 1122.54  Z
  " fill="#0b0726" fill-rule="evenodd" fill-opacity="1"/>
<path clip-path="url(#clip782)" d="
M175.445 1423.18 L175.445 1423.18 L452.204 1423.18 L452.204 1423.18 L515.116 1423.18 L728.963 1259.72 L1005.72 1247.55 L1282.48 1247.55 L1559.24 1259.72 L1773.09 1423.18 
  L1559.24 1423.18 L1836 1423.18 L2112.76 1423.18 L2112.76 1423.18 L2112.76 1423.18 L2112.76 1423.18 L2112.76 1226.62 L2112.76 1226.62 L2112.76 1181.94 L1882.61 1030.06 
  L1865.48 833.493 L1865.48 636.931 L1882.61 440.369 L2112.76 288.488 L2112.76 440.369 L2112.76 243.806 L2112.76 47.2441 L2112.76 47.2441 L2112.76 47.2441 L2112.76 47.2441 
  L1836 47.2441 L1559.24 47.2441 L1773.09 47.2441 L1559.24 210.7 L1282.48 222.87 L1005.72 222.869 L728.963 210.7 L515.116 47.2441 L452.204 47.2441 L452.204 47.2441 
  L175.445 47.2441 L175.445 47.2441 L175.445 47.2441 L175.445 47.2441 L175.445 243.806 L175.445 440.369 L175.445 288.488 L405.591 440.369 L422.725 636.931 L422.725 833.493 
  L405.591 1030.06 L175.445 1181.94 L175.445 1226.62 L175.445 1226.62 L175.445 1423.18 L175.445 1423.18 L175.445 1423.18 M1005.72 1215.02 L1282.48 1215.02 
  L1452.65 1030.06 L1559.24 954.354 L1819.67 833.493 L1819.67 636.931 L1559.24 516.07 L1452.65 440.369 L1282.48 255.399 L1005.72 255.4 L835.55 440.369 L728.963 516.07 
  L468.527 636.931 L468.527 833.493 L728.963 954.354 L835.55 1030.06 L1005.72 1215.02  Z
  " fill="#240b4e" fill-rule="evenodd" fill-opacity="1"/>
<path clip-path="url(#clip782)" d="
M175.445 1423.18 L175.445 1423.18 L175.445 1423.18 L438.707 1423.18 L452.204 1404.07 L698.322 1226.62 L728.963 1078.61 L750.464 1030.06 L728.963 1014.78 L660.603 1030.06 
  L452.204 1051.82 L202.355 1226.62 L175.445 1236.2 L175.445 1423.18 L175.445 1423.18 L175.445 1423.18 L175.445 1423.18 M2112.76 1423.18 L2112.76 1423.18 
  L2112.76 1423.18 L2112.76 1423.18 L2112.76 1423.18 L2112.76 1236.2 L2085.85 1226.62 L1836 1051.82 L1627.6 1030.06 L1559.24 1014.78 L1537.74 1030.06 L1559.24 1078.61 
  L1589.88 1226.62 L1836 1404.07 L1849.49 1423.18 L1836 1423.18 L2112.76 1423.18 M728.963 455.64 L750.464 440.369 L728.963 391.818 L698.322 243.806 
  L452.204 66.3561 L438.707 47.2441 L175.445 47.2441 L175.445 47.2441 L175.445 47.2441 L175.445 47.2441 L175.445 47.2441 L175.445 243.806 L175.445 234.22 L202.355 243.806 
  L452.204 418.607 L660.603 440.369 L728.963 455.64 M1559.24 455.64 L1627.6 440.369 L1836 418.607 L2085.85 243.806 L2112.76 234.22 L2112.76 243.806 
  L2112.76 47.2441 L2112.76 47.2441 L2112.76 47.2441 L2112.76 47.2441 L1836 47.2441 L1849.49 47.2441 L1836 66.356 L1589.88 243.806 L1559.24 391.818 L1537.74 440.369 
  L1559.24 455.64  Z
  " fill="#410967" fill-rule="evenodd" fill-opacity="1"/>
<path clip-path="url(#clip782)" d="
M175.445 1423.18 L175.445 1423.18 L175.445 1423.18 L418.456 1423.18 L452.204 1375.39 L658.551 1226.62 L452.204 1080.06 L242.729 1226.62 L175.445 1250.59 L175.445 1423.18 
  L175.445 1423.18 L175.445 1423.18 L175.445 1423.18 M2112.76 1423.18 L2112.76 1423.18 L2112.76 1423.18 L2112.76 1423.18 L2112.76 1423.18 L2112.76 1250.59 
  L2045.47 1226.62 L1836 1080.06 L1629.65 1226.62 L1836 1375.39 L1869.75 1423.18 L1836 1423.18 L2112.76 1423.18 M452.204 390.36 L658.551 243.806 
  L452.204 95.0313 L418.456 47.2441 L175.445 47.2441 L175.445 47.2441 L175.445 47.2441 L175.445 47.2441 L175.445 47.2441 L175.445 243.806 L175.445 219.837 L242.729 243.806 
  L452.204 390.36 M1836 390.36 L2045.47 243.806 L2112.76 219.837 L2112.76 243.806 L2112.76 47.2441 L2112.76 47.2441 L2112.76 47.2441 L2112.76 47.2441 
  L1836 47.2441 L1869.75 47.2441 L1836 95.0313 L1629.65 243.806 L1836 390.36  Z
  " fill="#5d126e" fill-rule="evenodd" fill-opacity="1"/>
<path clip-path="url(#clip782)" d="
M175.445 1423.18 L175.445 1423.18 L175.445 1423.18 L398.205 1423.18 L452.204 1346.72 L618.779 1226.62 L452.204 1108.31 L283.104 1226.62 L175.445 1264.97 L175.445 1423.18 
  L175.445 1423.18 L175.445 1423.18 L175.445 1423.18 M2112.76 1423.18 L2112.76 1423.18 L2112.76 1423.18 L2112.76 1423.18 L2112.76 1423.18 L2112.76 1264.97 
  L2005.1 1226.62 L1836 1108.31 L1669.42 1226.62 L1836 1346.72 L1890 1423.18 L1836 1423.18 L2112.76 1423.18 M452.204 362.113 L618.779 243.806 
  L452.204 123.707 L398.205 47.2441 L175.445 47.2441 L175.445 47.2441 L175.445 47.2441 L175.445 47.2441 L175.445 47.2441 L175.445 243.806 L175.445 205.455 L283.104 243.806 
  L452.204 362.113 M1836 362.113 L2005.1 243.806 L2112.76 205.455 L2112.76 243.806 L2112.76 47.2441 L2112.76 47.2441 L2112.76 47.2441 L2112.76 47.2441 
  L1836 47.2441 L1890 47.2441 L1836 123.707 L1669.42 243.806 L1836 362.113  Z
  " fill="#781c6d" fill-rule="evenodd" fill-opacity="1"/>
<path clip-path="url(#clip782)" d="
M175.445 1423.18 L175.445 1423.18 L175.445 1423.18 L377.954 1423.18 L452.204 1318.04 L579.007 1226.62 L452.204 1136.56 L323.479 1226.62 L175.445 1279.35 L175.445 1423.18 
  L175.445 1423.18 L175.445 1423.18 L175.445 1423.18 M2112.76 1423.18 L2112.76 1423.18 L2112.76 1423.18 L2112.76 1423.18 L2112.76 1423.18 L2112.76 1279.35 
  L1964.72 1226.62 L1836 1136.56 L1709.19 1226.62 L1836 1318.04 L1910.25 1423.18 L1836 1423.18 L2112.76 1423.18 M452.204 333.866 L579.007 243.806 
  L452.204 152.382 L377.954 47.2441 L175.445 47.2441 L175.445 47.2441 L175.445 47.2441 L175.445 47.2441 L175.445 47.2441 L175.445 243.806 L175.445 191.072 L323.479 243.806 
  L452.204 333.866 M1836 333.866 L1964.72 243.806 L2112.76 191.072 L2112.76 243.806 L2112.76 47.2441 L2112.76 47.2441 L2112.76 47.2441 L2112.76 47.2441 
  L1836 47.2441 L1910.25 47.2441 L1836 152.382 L1709.19 243.806 L1836 333.866  Z
  " fill="#932567" fill-rule="evenodd" fill-opacity="1"/>
<path clip-path="url(#clip782)" d="
M175.445 1423.18 L175.445 1423.18 L175.445 1423.18 L357.703 1423.18 L452.204 1289.37 L539.235 1226.62 L452.204 1164.81 L363.853 1226.62 L175.445 1293.73 L175.445 1423.18 
  L175.445 1423.18 L175.445 1423.18 L175.445 1423.18 M2112.76 1423.18 L2112.76 1423.18 L2112.76 1423.18 L2112.76 1423.18 L2112.76 1423.18 L2112.76 1293.73 
  L1924.35 1226.62 L1836 1164.81 L1748.97 1226.62 L1836 1289.37 L1930.5 1423.18 L1836 1423.18 L2112.76 1423.18 M452.204 305.619 L539.235 243.806 
  L452.204 181.057 L357.703 47.2441 L175.445 47.2441 L175.445 47.2441 L175.445 47.2441 L175.445 47.2441 L175.445 47.2441 L175.445 243.806 L175.445 176.689 L363.853 243.806 
  L452.204 305.619 M1836 305.619 L1924.35 243.806 L2112.76 176.689 L2112.76 243.806 L2112.76 47.2441 L2112.76 47.2441 L2112.76 47.2441 L2112.76 47.2441 
  L1836 47.2441 L1930.5 47.2441 L1836 181.057 L1748.97 243.806 L1836 305.619  Z
  " fill="#ae305b" fill-rule="evenodd" fill-opacity="1"/>
<path clip-path="url(#clip782)" d="
M175.445 1423.18 L175.445 1423.18 L175.445 1423.18 L337.452 1423.18 L175.445 1308.12 L175.445 1423.18 L175.445 1423.18 L175.445 1423.18 L175.445 1423.18 M2112.76 1423.18 L2112.76 1423.18 L2112.76 1423.18 L2112.76 1423.18 L2112.76 1423.18 L2112.76 1308.12 L1950.75 1423.18 L1836 1423.18 L2112.76 1423.18 M452.204 1260.69 L499.463 1226.62 L452.204 1193.05 L404.228 1226.62 L452.204 1260.69 M1836 1260.69 L1883.97 1226.62 L1836 1193.05 L1788.74 1226.62 
  L1836 1260.69 M452.204 277.371 L499.463 243.806 L452.204 209.732 L404.228 243.806 L452.204 277.371 M1836 277.371 L1883.97 243.806 
  L1836 209.732 L1788.74 243.806 L1836 277.371 M175.445 243.806 L175.445 162.306 L337.452 47.2441 L175.445 47.2441 L175.445 47.2441 L175.445 47.2441 
  L175.445 47.2441 L175.445 47.2441 L175.445 243.806 M2112.76 162.306 L2112.76 243.806 L2112.76 47.2441 L2112.76 47.2441 L2112.76 47.2441 L2112.76 47.2441 
  L1836 47.2441 L1950.75 47.2441 L2112.76 162.306  Z
  " fill="#c73e4c" fill-rule="evenodd" fill-opacity="1"/>
<path clip-path="url(#clip782)" d="
M175.445 1423.18 L175.445 1423.18 L175.445 1423.18 L317.201 1423.18 L175.445 1322.5 L175.445 1423.18 L175.445 1423.18 L175.445 1423.18 L175.445 1423.18 M2112.76 1423.18 L2112.76 1423.18 L2112.76 1423.18 L2112.76 1423.18 L2112.76 1423.18 L2112.76 1322.5 L1971 1423.18 L1836 1423.18 L2112.76 1423.18 M452.204 1232.02 L459.692 1226.62 L452.204 1221.3 L444.603 1226.62 L452.204 1232.02 M1836 1232.02 L1843.6 1226.62 L1836 1221.3 L1828.51 1226.62 
  L1836 1232.02 M452.204 249.124 L459.692 243.806 L452.204 238.408 L444.603 243.806 L452.204 249.124 M1836 249.124 L1843.6 243.806 
  L1836 238.408 L1828.51 243.806 L1836 249.124 M175.445 243.806 L175.445 147.924 L317.201 47.2441 L175.445 47.2441 L175.445 47.2441 L175.445 47.2441 
  L175.445 47.2441 L175.445 47.2441 L175.445 243.806 M2112.76 147.924 L2112.76 243.806 L2112.76 47.2441 L2112.76 47.2441 L2112.76 47.2441 L2112.76 47.2441 
  L1836 47.2441 L1971 47.2441 L2112.76 147.924  Z
  " fill="#dc5039" fill-rule="evenodd" fill-opacity="1"/>
<path clip-path="url(#clip782)" d="
M175.445 1423.18 L175.445 1423.18 L175.445 1423.18 L296.951 1423.18 L175.445 1336.88 L175.445 1423.18 L175.445 1423.18 L175.445 1423.18 L175.445 1423.18 M2112.76 1423.18 L2112.76 1423.18 L2112.76 1423.18 L2112.76 1423.18 L2112.76 1423.18 L2112.76 1336.88 L1991.25 1423.18 L1836 1423.18 L2112.76 1423.18 M175.445 243.806 L175.445 133.541 L296.951 47.2441 L175.445 47.2441 L175.445 47.2441 L175.445 47.2441 L175.445 47.2441 L175.445 47.2441 L175.445 243.806 M2112.76 133.541 L2112.76 243.806 L2112.76 47.2441 L2112.76 47.2441 L2112.76 47.2441 L2112.76 47.2441 L1836 47.2441 L1991.25 47.2441 L2112.76 133.541  Z
  " fill="#ed6825" fill-rule="evenodd" fill-opacity="1"/>
<path clip-path="url(#clip782)" d="
M175.445 1423.18 L175.445 1423.18 L175.445 1423.18 L276.7 1423.18 L175.445 1351.27 L175.445 1423.18 L175.445 1423.18 L175.445 1423.18 L175.445 1423.18 M2112.76 1423.18 L2112.76 1423.18 L2112.76 1423.18 L2112.76 1423.18 L2112.76 1423.18 L2112.76 1351.27 L2011.5 1423.18 L1836 1423.18 L2112.76 1423.18 M175.445 243.806 L175.445 119.158 L276.7 47.2441 L175.445 47.2441 L175.445 47.2441 L175.445 47.2441 L175.445 47.2441 L175.445 47.2441 L175.445 243.806 M2112.76 119.158 L2112.76 243.806 L2112.76 47.2441 L2112.76 47.2441 L2112.76 47.2441 L2112.76 47.2441 L1836 47.2441 L2011.5 47.2441 L2112.76 119.158  Z
  " fill="#f7850e" fill-rule="evenodd" fill-opacity="1"/>
<path clip-path="url(#clip782)" d="
M175.445 1423.18 L175.445 1423.18 L175.445 1423.18 L256.449 1423.18 L175.445 1365.65 L175.445 1423.18 L175.445 1423.18 L175.445 1423.18 L175.445 1423.18 M2112.76 1423.18 L2112.76 1423.18 L2112.76 1423.18 L2112.76 1423.18 L2112.76 1423.18 L2112.76 1365.65 L2031.75 1423.18 L1836 1423.18 L2112.76 1423.18 M175.445 243.806 L175.445 104.775 L256.449 47.2441 L175.445 47.2441 L175.445 47.2441 L175.445 47.2441 L175.445 47.2441 L175.445 47.2441 L175.445 243.806 M2112.76 104.775 L2112.76 243.806 L2112.76 47.2441 L2112.76 47.2441 L2112.76 47.2441 L2112.76 47.2441 L1836 47.2441 L2031.75 47.2441 L2112.76 104.775  Z
  " fill="#fba40a" fill-rule="evenodd" fill-opacity="1"/>
<path clip-path="url(#clip782)" d="
M175.445 1423.18 L175.445 1423.18 L175.445 1423.18 L236.198 1423.18 L175.445 1380.03 L175.445 1423.18 L175.445 1423.18 L175.445 1423.18 L175.445 1423.18 M2112.76 1423.18 L2112.76 1423.18 L2112.76 1423.18 L2112.76 1423.18 L2112.76 1423.18 L2112.76 1380.03 L2052 1423.18 L1836 1423.18 L2112.76 1423.18 M175.445 243.806 L175.445 90.3924 L236.198 47.2441 L175.445 47.2441 L175.445 47.2441 L175.445 47.2441 L175.445 47.2441 L175.445 47.2441 L175.445 243.806 M2112.76 90.3924 L2112.76 243.806 L2112.76 47.2441 L2112.76 47.2441 L2112.76 47.2441 L2112.76 47.2441 L1836 47.2441 L2052 47.2441 L2112.76 90.3924  Z
  " fill="#f9c52c" fill-rule="evenodd" fill-opacity="1"/>
<path clip-path="url(#clip782)" d="
M175.445 1423.18 L175.445 1423.18 L175.445 1423.18 L215.947 1423.18 L175.445 1394.41 L175.445 1423.18 L175.445 1423.18 L175.445 1423.18 L175.445 1423.18 M2112.76 1423.18 L2112.76 1423.18 L2112.76 1423.18 L2112.76 1423.18 L2112.76 1423.18 L2112.76 1394.41 L2072.25 1423.18 L1836 1423.18 L2112.76 1423.18 M175.445 243.806 L175.445 76.0097 L215.947 47.2441 L175.445 47.2441 L175.445 47.2441 L175.445 47.2441 L175.445 47.2441 L175.445 47.2441 L175.445 243.806 M2112.76 76.0097 L2112.76 243.806 L2112.76 47.2441 L2112.76 47.2441 L2112.76 47.2441 L2112.76 47.2441 L1836 47.2441 L2072.25 47.2441 L2112.76 76.0097  Z
  " fill="#f2e660" fill-rule="evenodd" fill-opacity="1"/>
<path clip-path="url(#clip782)" d="
M175.445 1423.18 L175.445 1423.18 L175.445 1423.18 L195.696 1423.18 L175.445 1408.8 L175.445 1423.18 L175.445 1423.18 L175.445 1423.18 L175.445 1423.18 M2112.76 1423.18 L2112.76 1423.18 L2112.76 1423.18 L2112.76 1423.18 L2112.76 1423.18 L2112.76 1408.8 L2092.51 1423.18 L1836 1423.18 L2112.76 1423.18 M175.445 243.806 L175.445 61.6269 L195.696 47.2441 L175.445 47.2441 L175.445 47.2441 L175.445 47.2441 L175.445 47.2441 L175.445 47.2441 L175.445 243.806 M2112.76 61.6269 L2112.76 243.806 L2112.76 47.2441 L2112.76 47.2441 L2112.76 47.2441 L2112.76 47.2441 L1836 47.2441 L2092.51 47.2441 L2112.76 61.6269  Z
  " fill="#fcfea4" fill-rule="evenodd" fill-opacity="1"/>
<polyline clip-path="url(#clip782)" style="stroke:#000003; stroke-linecap:round; stroke-linejoin:round; stroke-width:4; stroke-opacity:1; fill:none" points="
  175.445,1423.18 175.445,1423.18 452.204,1423.18 728.963,1423.18 1005.72,1423.18 1282.48,1423.18 1559.24,1423.18 1836,1423.18 2112.76,1423.18 
  2112.76,1226.62 2112.76,1030.06 2112.76,833.493 2112.76,636.931 2112.76,440.369 2112.76,243.806 2112.76,47.2441 
  1836,47.2441 1559.24,47.2441 1282.48,47.2441 1005.72,47.2441 728.963,47.2441 452.204,47.2441 175.445,47.2441 
  175.445,243.806 175.445,440.369 175.445,636.931 175.445,833.493 175.445,1030.06 175.445,1226.62 175.445,1423.18 
  
  "/>
<polyline clip-path="url(#clip782)" style="stroke:#000003; stroke-linecap:round; stroke-linejoin:round; stroke-width:4; stroke-opacity:1; fill:none" points="
  175.445,1423.18 175.445,1423.18 452.204,1423.18 703.755,1423.18 728.963,1403.91 1005.72,1414.58 1282.48,1414.58 1559.24,1403.91 1584.45,1423.18 
  1559.24,1423.18 1836,1423.18 2112.76,1423.18 2112.76,1226.62 2112.76,1047.96 2085.63,1030.06 
  2100.64,833.493 2100.64,636.931 2085.63,440.369 2112.76,422.465 2112.76,440.369 2112.76,243.806 2112.76,47.2441 
  1836,47.2441 1559.24,47.2441 1584.45,47.2441 1559.24,66.5117 1282.48,55.8465 1005.72,55.8468 728.963,66.5117 703.755,47.2441 452.204,47.2441 
  175.445,47.2441 175.445,243.806 175.445,440.369 175.445,422.465 202.574,440.369 187.558,636.931 187.558,833.493 
  202.574,1030.06 175.445,1047.96 175.445,1226.62 175.445,1423.18 
  "/>
<polyline clip-path="url(#clip782)" style="stroke:#000003; stroke-linecap:round; stroke-linejoin:round; stroke-width:4; stroke-opacity:1; fill:none" points="
  1005.72,1122.54 1282.48,1122.54 1367.57,1030.06 1559.24,893.923 1689.46,833.493 1689.46,636.931 1559.24,576.501 1367.57,440.369 1282.48,347.884 1005.72,347.884 
  920.636,440.369 728.963,576.501 598.745,636.931 598.745,833.493 728.963,893.923 920.636,1030.06 1005.72,1122.54 
  "/>
<polyline clip-path="url(#clip782)" style="stroke:#000003; stroke-linecap:round; stroke-linejoin:round; stroke-width:4; stroke-opacity:1; fill:none" points="
  175.445,1423.18 175.445,1423.18 452.204,1423.18 515.116,1423.18 728.963,1259.72 1005.72,1247.55 1282.48,1247.55 1559.24,1259.72 1773.09,1423.18 
  1559.24,1423.18 1836,1423.18 2112.76,1423.18 2112.76,1226.62 2112.76,1181.94 1882.61,1030.06 
  1865.48,833.493 1865.48,636.931 1882.61,440.369 2112.76,288.488 2112.76,440.369 2112.76,243.806 2112.76,47.2441 
  1836,47.2441 1559.24,47.2441 1773.09,47.2441 1559.24,210.7 1282.48,222.87 1005.72,222.869 728.963,210.7 515.116,47.2441 452.204,47.2441 
  175.445,47.2441 175.445,243.806 175.445,440.369 175.445,288.488 405.591,440.369 422.725,636.931 422.725,833.493 
  405.591,1030.06 175.445,1181.94 175.445,1226.62 175.445,1423.18 
  "/>
<polyline clip-path="url(#clip782)" style="stroke:#000003; stroke-linecap:round; stroke-linejoin:round; stroke-width:4; stroke-opacity:1; fill:none" points="
  1005.72,1215.02 1282.48,1215.02 1452.65,1030.06 1559.24,954.354 1819.67,833.493 1819.67,636.931 1559.24,516.07 1452.65,440.369 1282.48,255.399 1005.72,255.4 
  835.55,440.369 728.963,516.07 468.527,636.931 468.527,833.493 728.963,954.354 835.55,1030.06 1005.72,1215.02 
  "/>
<polyline clip-path="url(#clip782)" style="stroke:#000003; stroke-linecap:round; stroke-linejoin:round; stroke-width:4; stroke-opacity:1; fill:none" points="
  175.445,1423.18 175.445,1423.18 438.707,1423.18 452.204,1404.07 698.322,1226.62 728.963,1078.61 750.464,1030.06 728.963,1014.78 660.603,1030.06 
  452.204,1051.82 202.355,1226.62 175.445,1236.2 175.445,1423.18 
  "/>
<polyline clip-path="url(#clip782)" style="stroke:#000003; stroke-linecap:round; stroke-linejoin:round; stroke-width:4; stroke-opacity:1; fill:none" points="
  2112.76,1423.18 2112.76,1423.18 2112.76,1236.2 2085.85,1226.62 1836,1051.82 1627.6,1030.06 1559.24,1014.78 
  1537.74,1030.06 1559.24,1078.61 1589.88,1226.62 1836,1404.07 1849.49,1423.18 1836,1423.18 2112.76,1423.18 
  "/>
<polyline clip-path="url(#clip782)" style="stroke:#000003; stroke-linecap:round; stroke-linejoin:round; stroke-width:4; stroke-opacity:1; fill:none" points="
  728.963,455.64 750.464,440.369 728.963,391.818 698.322,243.806 452.204,66.3561 438.707,47.2441 175.445,47.2441 
  175.445,243.806 175.445,234.22 202.355,243.806 452.204,418.607 660.603,440.369 728.963,455.64 
  "/>
<polyline clip-path="url(#clip782)" style="stroke:#000003; stroke-linecap:round; stroke-linejoin:round; stroke-width:4; stroke-opacity:1; fill:none" points="
  1559.24,455.64 1627.6,440.369 1836,418.607 2085.85,243.806 2112.76,234.22 2112.76,243.806 2112.76,47.2441 
  1836,47.2441 1849.49,47.2441 1836,66.356 1589.88,243.806 1559.24,391.818 1537.74,440.369 1559.24,455.64 
  "/>
<polyline clip-path="url(#clip782)" style="stroke:#000003; stroke-linecap:round; stroke-linejoin:round; stroke-width:4; stroke-opacity:1; fill:none" points="
  175.445,1423.18 175.445,1423.18 418.456,1423.18 452.204,1375.39 658.551,1226.62 452.204,1080.06 242.729,1226.62 175.445,1250.59 175.445,1423.18 
  
  "/>
<polyline clip-path="url(#clip782)" style="stroke:#000003; stroke-linecap:round; stroke-linejoin:round; stroke-width:4; stroke-opacity:1; fill:none" points="
  2112.76,1423.18 2112.76,1423.18 2112.76,1250.59 2045.47,1226.62 1836,1080.06 1629.65,1226.62 1836,1375.39 
  1869.75,1423.18 1836,1423.18 2112.76,1423.18 
  "/>
<polyline clip-path="url(#clip782)" style="stroke:#000003; stroke-linecap:round; stroke-linejoin:round; stroke-width:4; stroke-opacity:1; fill:none" points="
  452.204,390.36 658.551,243.806 452.204,95.0313 418.456,47.2441 175.445,47.2441 175.445,243.806 
  175.445,219.837 242.729,243.806 452.204,390.36 
  "/>
<polyline clip-path="url(#clip782)" style="stroke:#000003; stroke-linecap:round; stroke-linejoin:round; stroke-width:4; stroke-opacity:1; fill:none" points="
  1836,390.36 2045.47,243.806 2112.76,219.837 2112.76,243.806 2112.76,47.2441 1836,47.2441 1869.75,47.2441 
  1836,95.0313 1629.65,243.806 1836,390.36 
  "/>
<polyline clip-path="url(#clip782)" style="stroke:#000003; stroke-linecap:round; stroke-linejoin:round; stroke-width:4; stroke-opacity:1; fill:none" points="
  175.445,1423.18 175.445,1423.18 398.205,1423.18 452.204,1346.72 618.779,1226.62 452.204,1108.31 283.104,1226.62 175.445,1264.97 175.445,1423.18 
  
  "/>
<polyline clip-path="url(#clip782)" style="stroke:#000003; stroke-linecap:round; stroke-linejoin:round; stroke-width:4; stroke-opacity:1; fill:none" points="
  2112.76,1423.18 2112.76,1423.18 2112.76,1264.97 2005.1,1226.62 1836,1108.31 1669.42,1226.62 1836,1346.72 
  1890,1423.18 1836,1423.18 2112.76,1423.18 
  "/>
<polyline clip-path="url(#clip782)" style="stroke:#000003; stroke-linecap:round; stroke-linejoin:round; stroke-width:4; stroke-opacity:1; fill:none" points="
  452.204,362.113 618.779,243.806 452.204,123.707 398.205,47.2441 175.445,47.2441 175.445,243.806 
  175.445,205.455 283.104,243.806 452.204,362.113 
  "/>
<polyline clip-path="url(#clip782)" style="stroke:#000003; stroke-linecap:round; stroke-linejoin:round; stroke-width:4; stroke-opacity:1; fill:none" points="
  1836,362.113 2005.1,243.806 2112.76,205.455 2112.76,243.806 2112.76,47.2441 1836,47.2441 1890,47.2441 
  1836,123.707 1669.42,243.806 1836,362.113 
  "/>
<polyline clip-path="url(#clip782)" style="stroke:#000003; stroke-linecap:round; stroke-linejoin:round; stroke-width:4; stroke-opacity:1; fill:none" points="
  175.445,1423.18 175.445,1423.18 377.954,1423.18 452.204,1318.04 579.007,1226.62 452.204,1136.56 323.479,1226.62 175.445,1279.35 175.445,1423.18 
  
  "/>
<polyline clip-path="url(#clip782)" style="stroke:#000003; stroke-linecap:round; stroke-linejoin:round; stroke-width:4; stroke-opacity:1; fill:none" points="
  2112.76,1423.18 2112.76,1423.18 2112.76,1279.35 1964.72,1226.62 1836,1136.56 1709.19,1226.62 1836,1318.04 
  1910.25,1423.18 1836,1423.18 2112.76,1423.18 
  "/>
<polyline clip-path="url(#clip782)" style="stroke:#000003; stroke-linecap:round; stroke-linejoin:round; stroke-width:4; stroke-opacity:1; fill:none" points="
  452.204,333.866 579.007,243.806 452.204,152.382 377.954,47.2441 175.445,47.2441 175.445,243.806 
  175.445,191.072 323.479,243.806 452.204,333.866 
  "/>
<polyline clip-path="url(#clip782)" style="stroke:#000003; stroke-linecap:round; stroke-linejoin:round; stroke-width:4; stroke-opacity:1; fill:none" points="
  1836,333.866 1964.72,243.806 2112.76,191.072 2112.76,243.806 2112.76,47.2441 1836,47.2441 1910.25,47.2441 
  1836,152.382 1709.19,243.806 1836,333.866 
  "/>
<polyline clip-path="url(#clip782)" style="stroke:#000003; stroke-linecap:round; stroke-linejoin:round; stroke-width:4; stroke-opacity:1; fill:none" points="
  175.445,1423.18 175.445,1423.18 357.703,1423.18 452.204,1289.37 539.235,1226.62 452.204,1164.81 363.853,1226.62 175.445,1293.73 175.445,1423.18 
  
  "/>
<polyline clip-path="url(#clip782)" style="stroke:#000003; stroke-linecap:round; stroke-linejoin:round; stroke-width:4; stroke-opacity:1; fill:none" points="
  2112.76,1423.18 2112.76,1423.18 2112.76,1293.73 1924.35,1226.62 1836,1164.81 1748.97,1226.62 1836,1289.37 
  1930.5,1423.18 1836,1423.18 2112.76,1423.18 
  "/>
<polyline clip-path="url(#clip782)" style="stroke:#000003; stroke-linecap:round; stroke-linejoin:round; stroke-width:4; stroke-opacity:1; fill:none" points="
  452.204,305.619 539.235,243.806 452.204,181.057 357.703,47.2441 175.445,47.2441 175.445,243.806 
  175.445,176.689 363.853,243.806 452.204,305.619 
  "/>
<polyline clip-path="url(#clip782)" style="stroke:#000003; stroke-linecap:round; stroke-linejoin:round; stroke-width:4; stroke-opacity:1; fill:none" points="
  1836,305.619 1924.35,243.806 2112.76,176.689 2112.76,243.806 2112.76,47.2441 1836,47.2441 1930.5,47.2441 
  1836,181.057 1748.97,243.806 1836,305.619 
  "/>
<polyline clip-path="url(#clip782)" style="stroke:#000003; stroke-linecap:round; stroke-linejoin:round; stroke-width:4; stroke-opacity:1; fill:none" points="
  175.445,1423.18 175.445,1423.18 337.452,1423.18 175.445,1308.12 175.445,1423.18 
  "/>
<polyline clip-path="url(#clip782)" style="stroke:#000003; stroke-linecap:round; stroke-linejoin:round; stroke-width:4; stroke-opacity:1; fill:none" points="
  2112.76,1423.18 2112.76,1423.18 2112.76,1308.12 1950.75,1423.18 1836,1423.18 2112.76,1423.18 
  "/>
<polyline clip-path="url(#clip782)" style="stroke:#000003; stroke-linecap:round; stroke-linejoin:round; stroke-width:4; stroke-opacity:1; fill:none" points="
  452.204,1260.69 499.463,1226.62 452.204,1193.05 404.228,1226.62 452.204,1260.69 
  "/>
<polyline clip-path="url(#clip782)" style="stroke:#000003; stroke-linecap:round; stroke-linejoin:round; stroke-width:4; stroke-opacity:1; fill:none" points="
  1836,1260.69 1883.97,1226.62 1836,1193.05 1788.74,1226.62 1836,1260.69 
  "/>
<polyline clip-path="url(#clip782)" style="stroke:#000003; stroke-linecap:round; stroke-linejoin:round; stroke-width:4; stroke-opacity:1; fill:none" points="
  452.204,277.371 499.463,243.806 452.204,209.732 404.228,243.806 452.204,277.371 
  "/>
<polyline clip-path="url(#clip782)" style="stroke:#000003; stroke-linecap:round; stroke-linejoin:round; stroke-width:4; stroke-opacity:1; fill:none" points="
  1836,277.371 1883.97,243.806 1836,209.732 1788.74,243.806 1836,277.371 
  "/>
<polyline clip-path="url(#clip782)" style="stroke:#000003; stroke-linecap:round; stroke-linejoin:round; stroke-width:4; stroke-opacity:1; fill:none" points="
  175.445,243.806 175.445,162.306 337.452,47.2441 175.445,47.2441 175.445,243.806 
  "/>
<polyline clip-path="url(#clip782)" style="stroke:#000003; stroke-linecap:round; stroke-linejoin:round; stroke-width:4; stroke-opacity:1; fill:none" points="
  2112.76,162.306 2112.76,243.806 2112.76,47.2441 1836,47.2441 1950.75,47.2441 2112.76,162.306 
  "/>
<polyline clip-path="url(#clip782)" style="stroke:#000003; stroke-linecap:round; stroke-linejoin:round; stroke-width:4; stroke-opacity:1; fill:none" points="
  175.445,1423.18 175.445,1423.18 317.201,1423.18 175.445,1322.5 175.445,1423.18 
  "/>
<polyline clip-path="url(#clip782)" style="stroke:#000003; stroke-linecap:round; stroke-linejoin:round; stroke-width:4; stroke-opacity:1; fill:none" points="
  2112.76,1423.18 2112.76,1423.18 2112.76,1322.5 1971,1423.18 1836,1423.18 2112.76,1423.18 
  "/>
<polyline clip-path="url(#clip782)" style="stroke:#000003; stroke-linecap:round; stroke-linejoin:round; stroke-width:4; stroke-opacity:1; fill:none" points="
  452.204,1232.02 459.692,1226.62 452.204,1221.3 444.603,1226.62 452.204,1232.02 
  "/>
<polyline clip-path="url(#clip782)" style="stroke:#000003; stroke-linecap:round; stroke-linejoin:round; stroke-width:4; stroke-opacity:1; fill:none" points="
  1836,1232.02 1843.6,1226.62 1836,1221.3 1828.51,1226.62 1836,1232.02 
  "/>
<polyline clip-path="url(#clip782)" style="stroke:#000003; stroke-linecap:round; stroke-linejoin:round; stroke-width:4; stroke-opacity:1; fill:none" points="
  452.204,249.124 459.692,243.806 452.204,238.408 444.603,243.806 452.204,249.124 
  "/>
<polyline clip-path="url(#clip782)" style="stroke:#000003; stroke-linecap:round; stroke-linejoin:round; stroke-width:4; stroke-opacity:1; fill:none" points="
  1836,249.124 1843.6,243.806 1836,238.408 1828.51,243.806 1836,249.124 
  "/>
<polyline clip-path="url(#clip782)" style="stroke:#000003; stroke-linecap:round; stroke-linejoin:round; stroke-width:4; stroke-opacity:1; fill:none" points="
  175.445,243.806 175.445,147.924 317.201,47.2441 175.445,47.2441 175.445,243.806 
  "/>
<polyline clip-path="url(#clip782)" style="stroke:#000003; stroke-linecap:round; stroke-linejoin:round; stroke-width:4; stroke-opacity:1; fill:none" points="
  2112.76,147.924 2112.76,243.806 2112.76,47.2441 1836,47.2441 1971,47.2441 2112.76,147.924 
  "/>
<polyline clip-path="url(#clip782)" style="stroke:#000003; stroke-linecap:round; stroke-linejoin:round; stroke-width:4; stroke-opacity:1; fill:none" points="
  175.445,1423.18 175.445,1423.18 296.951,1423.18 175.445,1336.88 175.445,1423.18 
  "/>
<polyline clip-path="url(#clip782)" style="stroke:#000003; stroke-linecap:round; stroke-linejoin:round; stroke-width:4; stroke-opacity:1; fill:none" points="
  2112.76,1423.18 2112.76,1423.18 2112.76,1336.88 1991.25,1423.18 1836,1423.18 2112.76,1423.18 
  "/>
<polyline clip-path="url(#clip782)" style="stroke:#000003; stroke-linecap:round; stroke-linejoin:round; stroke-width:4; stroke-opacity:1; fill:none" points="
  175.445,243.806 175.445,133.541 296.951,47.2441 175.445,47.2441 175.445,243.806 
  "/>
<polyline clip-path="url(#clip782)" style="stroke:#000003; stroke-linecap:round; stroke-linejoin:round; stroke-width:4; stroke-opacity:1; fill:none" points="
  2112.76,133.541 2112.76,243.806 2112.76,47.2441 1836,47.2441 1991.25,47.2441 2112.76,133.541 
  "/>
<polyline clip-path="url(#clip782)" style="stroke:#000003; stroke-linecap:round; stroke-linejoin:round; stroke-width:4; stroke-opacity:1; fill:none" points="
  175.445,1423.18 175.445,1423.18 276.7,1423.18 175.445,1351.27 175.445,1423.18 
  "/>
<polyline clip-path="url(#clip782)" style="stroke:#000003; stroke-linecap:round; stroke-linejoin:round; stroke-width:4; stroke-opacity:1; fill:none" points="
  2112.76,1423.18 2112.76,1423.18 2112.76,1351.27 2011.5,1423.18 1836,1423.18 2112.76,1423.18 
  "/>
<polyline clip-path="url(#clip782)" style="stroke:#000003; stroke-linecap:round; stroke-linejoin:round; stroke-width:4; stroke-opacity:1; fill:none" points="
  175.445,243.806 175.445,119.158 276.7,47.2441 175.445,47.2441 175.445,243.806 
  "/>
<polyline clip-path="url(#clip782)" style="stroke:#000003; stroke-linecap:round; stroke-linejoin:round; stroke-width:4; stroke-opacity:1; fill:none" points="
  2112.76,119.158 2112.76,243.806 2112.76,47.2441 1836,47.2441 2011.5,47.2441 2112.76,119.158 
  "/>
<polyline clip-path="url(#clip782)" style="stroke:#000003; stroke-linecap:round; stroke-linejoin:round; stroke-width:4; stroke-opacity:1; fill:none" points="
  175.445,1423.18 175.445,1423.18 256.449,1423.18 175.445,1365.65 175.445,1423.18 
  "/>
<polyline clip-path="url(#clip782)" style="stroke:#000003; stroke-linecap:round; stroke-linejoin:round; stroke-width:4; stroke-opacity:1; fill:none" points="
  2112.76,1423.18 2112.76,1423.18 2112.76,1365.65 2031.75,1423.18 1836,1423.18 2112.76,1423.18 
  "/>
<polyline clip-path="url(#clip782)" style="stroke:#000003; stroke-linecap:round; stroke-linejoin:round; stroke-width:4; stroke-opacity:1; fill:none" points="
  175.445,243.806 175.445,104.775 256.449,47.2441 175.445,47.2441 175.445,243.806 
  "/>
<polyline clip-path="url(#clip782)" style="stroke:#000003; stroke-linecap:round; stroke-linejoin:round; stroke-width:4; stroke-opacity:1; fill:none" points="
  2112.76,104.775 2112.76,243.806 2112.76,47.2441 1836,47.2441 2031.75,47.2441 2112.76,104.775 
  "/>
<polyline clip-path="url(#clip782)" style="stroke:#000003; stroke-linecap:round; stroke-linejoin:round; stroke-width:4; stroke-opacity:1; fill:none" points="
  175.445,1423.18 175.445,1423.18 236.198,1423.18 175.445,1380.03 175.445,1423.18 
  "/>
<polyline clip-path="url(#clip782)" style="stroke:#000003; stroke-linecap:round; stroke-linejoin:round; stroke-width:4; stroke-opacity:1; fill:none" points="
  2112.76,1423.18 2112.76,1423.18 2112.76,1380.03 2052,1423.18 1836,1423.18 2112.76,1423.18 
  "/>
<polyline clip-path="url(#clip782)" style="stroke:#000003; stroke-linecap:round; stroke-linejoin:round; stroke-width:4; stroke-opacity:1; fill:none" points="
  175.445,243.806 175.445,90.3924 236.198,47.2441 175.445,47.2441 175.445,243.806 
  "/>
<polyline clip-path="url(#clip782)" style="stroke:#000003; stroke-linecap:round; stroke-linejoin:round; stroke-width:4; stroke-opacity:1; fill:none" points="
  2112.76,90.3924 2112.76,243.806 2112.76,47.2441 1836,47.2441 2052,47.2441 2112.76,90.3924 
  "/>
<polyline clip-path="url(#clip782)" style="stroke:#000003; stroke-linecap:round; stroke-linejoin:round; stroke-width:4; stroke-opacity:1; fill:none" points="
  175.445,1423.18 175.445,1423.18 215.947,1423.18 175.445,1394.41 175.445,1423.18 
  "/>
<polyline clip-path="url(#clip782)" style="stroke:#000003; stroke-linecap:round; stroke-linejoin:round; stroke-width:4; stroke-opacity:1; fill:none" points="
  2112.76,1423.18 2112.76,1423.18 2112.76,1394.41 2072.25,1423.18 1836,1423.18 2112.76,1423.18 
  "/>
<polyline clip-path="url(#clip782)" style="stroke:#000003; stroke-linecap:round; stroke-linejoin:round; stroke-width:4; stroke-opacity:1; fill:none" points="
  175.445,243.806 175.445,76.0097 215.947,47.2441 175.445,47.2441 175.445,243.806 
  "/>
<polyline clip-path="url(#clip782)" style="stroke:#000003; stroke-linecap:round; stroke-linejoin:round; stroke-width:4; stroke-opacity:1; fill:none" points="
  2112.76,76.0097 2112.76,243.806 2112.76,47.2441 1836,47.2441 2072.25,47.2441 2112.76,76.0097 
  "/>
<polyline clip-path="url(#clip782)" style="stroke:#000003; stroke-linecap:round; stroke-linejoin:round; stroke-width:4; stroke-opacity:1; fill:none" points="
  175.445,1423.18 175.445,1423.18 195.696,1423.18 175.445,1408.8 175.445,1423.18 
  "/>
<polyline clip-path="url(#clip782)" style="stroke:#000003; stroke-linecap:round; stroke-linejoin:round; stroke-width:4; stroke-opacity:1; fill:none" points="
  2112.76,1423.18 2112.76,1423.18 2112.76,1408.8 2092.51,1423.18 1836,1423.18 2112.76,1423.18 
  "/>
<polyline clip-path="url(#clip782)" style="stroke:#000003; stroke-linecap:round; stroke-linejoin:round; stroke-width:4; stroke-opacity:1; fill:none" points="
  175.445,243.806 175.445,61.6269 195.696,47.2441 175.445,47.2441 175.445,243.806 
  "/>
<polyline clip-path="url(#clip782)" style="stroke:#000003; stroke-linecap:round; stroke-linejoin:round; stroke-width:4; stroke-opacity:1; fill:none" points="
  2112.76,61.6269 2112.76,243.806 2112.76,47.2441 1836,47.2441 2092.51,47.2441 2112.76,61.6269 
  "/>
<defs>
  <clipPath id="clip783">
    <rect x="2160" y="47" width="73" height="1377"/>
  </clipPath>
</defs>
<path clip-path="url(#clip783)" d="
M2160.76 1423.18 L2232.76 1423.18 L2232.76 1337.18 L2160.76 1337.18  Z
  " fill="#000003" fill-rule="evenodd" fill-opacity="1"/>
<path clip-path="url(#clip783)" d="
M2160.76 1337.18 L2232.76 1337.18 L2232.76 1251.19 L2160.76 1251.19  Z
  " fill="#0b0726" fill-rule="evenodd" fill-opacity="1"/>
<path clip-path="url(#clip783)" d="
M2160.76 1251.19 L2232.76 1251.19 L2232.76 1165.19 L2160.76 1165.19  Z
  " fill="#240b4e" fill-rule="evenodd" fill-opacity="1"/>
<path clip-path="url(#clip783)" d="
M2160.76 1165.19 L2232.76 1165.19 L2232.76 1079.2 L2160.76 1079.2  Z
  " fill="#410967" fill-rule="evenodd" fill-opacity="1"/>
<path clip-path="url(#clip783)" d="
M2160.76 1079.2 L2232.76 1079.2 L2232.76 993.2 L2160.76 993.2  Z
  " fill="#5d126e" fill-rule="evenodd" fill-opacity="1"/>
<path clip-path="url(#clip783)" d="
M2160.76 993.2 L2232.76 993.2 L2232.76 907.204 L2160.76 907.204  Z
  " fill="#781c6d" fill-rule="evenodd" fill-opacity="1"/>
<path clip-path="url(#clip783)" d="
M2160.76 907.204 L2232.76 907.204 L2232.76 821.208 L2160.76 821.208  Z
  " fill="#932567" fill-rule="evenodd" fill-opacity="1"/>
<path clip-path="url(#clip783)" d="
M2160.76 821.208 L2232.76 821.208 L2232.76 735.212 L2160.76 735.212  Z
  " fill="#ae305b" fill-rule="evenodd" fill-opacity="1"/>
<path clip-path="url(#clip783)" d="
M2160.76 735.212 L2232.76 735.212 L2232.76 649.216 L2160.76 649.216  Z
  " fill="#c73e4c" fill-rule="evenodd" fill-opacity="1"/>
<path clip-path="url(#clip783)" d="
M2160.76 649.216 L2232.76 649.216 L2232.76 563.22 L2160.76 563.22  Z
  " fill="#dc5039" fill-rule="evenodd" fill-opacity="1"/>
<path clip-path="url(#clip783)" d="
M2160.76 563.22 L2232.76 563.22 L2232.76 477.224 L2160.76 477.224  Z
  " fill="#ed6825" fill-rule="evenodd" fill-opacity="1"/>
<path clip-path="url(#clip783)" d="
M2160.76 477.224 L2232.76 477.224 L2232.76 391.228 L2160.76 391.228  Z
  " fill="#f7850e" fill-rule="evenodd" fill-opacity="1"/>
<path clip-path="url(#clip783)" d="
M2160.76 391.228 L2232.76 391.228 L2232.76 305.232 L2160.76 305.232  Z
  " fill="#fba40a" fill-rule="evenodd" fill-opacity="1"/>
<path clip-path="url(#clip783)" d="
M2160.76 305.232 L2232.76 305.232 L2232.76 219.236 L2160.76 219.236  Z
  " fill="#f9c52c" fill-rule="evenodd" fill-opacity="1"/>
<path clip-path="url(#clip783)" d="
M2160.76 219.236 L2232.76 219.236 L2232.76 133.24 L2160.76 133.24  Z
  " fill="#f2e660" fill-rule="evenodd" fill-opacity="1"/>
<path clip-path="url(#clip783)" d="
M2160.76 133.24 L2232.76 133.24 L2232.76 47.2441 L2160.76 47.2441  Z
  " fill="#fcfea4" fill-rule="evenodd" fill-opacity="1"/>
<path clip-path="url(#clip780)" d="M2280.7 1378.43 Q2277.09 1378.43 2275.26 1382 Q2273.45 1385.54 2273.45 1392.67 Q2273.45 1399.77 2275.26 1403.34 Q2277.09 1406.88 2280.7 1406.88 Q2284.33 1406.88 2286.14 1403.34 Q2287.97 1399.77 2287.97 1392.67 Q2287.97 1385.54 2286.14 1382 Q2284.33 1378.43 2280.7 1378.43 M2280.7 1374.73 Q2286.51 1374.73 2289.57 1379.33 Q2292.64 1383.92 2292.64 1392.67 Q2292.64 1401.39 2289.57 1406 Q2286.51 1410.58 2280.7 1410.58 Q2274.89 1410.58 2271.81 1406 Q2268.76 1401.39 2268.76 1392.67 Q2268.76 1383.92 2271.81 1379.33 Q2274.89 1374.73 2280.7 1374.73 Z" fill="#000000" fill-rule="evenodd" fill-opacity="1" /><path clip-path="url(#clip780)" d="M2300.86 1404.03 L2305.75 1404.03 L2305.75 1409.91 L2300.86 1409.91 L2300.86 1404.03 Z" fill="#000000" fill-rule="evenodd" fill-opacity="1" /><path clip-path="url(#clip780)" d="M2330.1 1391.28 Q2333.45 1392 2335.33 1394.26 Q2337.23 1396.53 2337.23 1399.87 Q2337.23 1404.98 2333.71 1407.78 Q2330.19 1410.58 2323.71 1410.58 Q2321.53 1410.58 2319.22 1410.14 Q2316.93 1409.73 2314.47 1408.87 L2314.47 1404.36 Q2316.42 1405.49 2318.73 1406.07 Q2321.05 1406.65 2323.57 1406.65 Q2327.97 1406.65 2330.26 1404.91 Q2332.58 1403.18 2332.58 1399.87 Q2332.58 1396.81 2330.42 1395.1 Q2328.29 1393.36 2324.47 1393.36 L2320.45 1393.36 L2320.45 1389.52 L2324.66 1389.52 Q2328.11 1389.52 2329.94 1388.15 Q2331.76 1386.77 2331.76 1384.17 Q2331.76 1381.51 2329.87 1380.1 Q2327.99 1378.66 2324.47 1378.66 Q2322.55 1378.66 2320.35 1379.08 Q2318.15 1379.5 2315.51 1380.38 L2315.51 1376.21 Q2318.18 1375.47 2320.49 1375.1 Q2322.83 1374.73 2324.89 1374.73 Q2330.21 1374.73 2333.32 1377.16 Q2336.42 1379.57 2336.42 1383.69 Q2336.42 1386.56 2334.77 1388.55 Q2333.13 1390.52 2330.1 1391.28 Z" fill="#000000" fill-rule="evenodd" fill-opacity="1" /><path clip-path="url(#clip780)" d="M2344.91 1375.35 L2367.14 1375.35 L2367.14 1377.34 L2354.59 1409.91 L2349.7 1409.91 L2361.51 1379.29 L2344.91 1379.29 L2344.91 1375.35 Z" fill="#000000" fill-rule="evenodd" fill-opacity="1" /><path clip-path="url(#clip780)" d="M2280.7 1237.67 Q2277.09 1237.67 2275.26 1241.23 Q2273.45 1244.78 2273.45 1251.91 Q2273.45 1259.01 2275.26 1262.58 Q2277.09 1266.12 2280.7 1266.12 Q2284.33 1266.12 2286.14 1262.58 Q2287.97 1259.01 2287.97 1251.91 Q2287.97 1244.78 2286.14 1241.23 Q2284.33 1237.67 2280.7 1237.67 M2280.7 1233.97 Q2286.51 1233.97 2289.57 1238.57 Q2292.64 1243.16 2292.64 1251.91 Q2292.64 1260.63 2289.57 1265.24 Q2286.51 1269.82 2280.7 1269.82 Q2274.89 1269.82 2271.81 1265.24 Q2268.76 1260.63 2268.76 1251.91 Q2268.76 1243.16 2271.81 1238.57 Q2274.89 1233.97 2280.7 1233.97 Z" fill="#000000" fill-rule="evenodd" fill-opacity="1" /><path clip-path="url(#clip780)" d="M2300.86 1263.27 L2305.75 1263.27 L2305.75 1269.15 L2300.86 1269.15 L2300.86 1263.27 Z" fill="#000000" fill-rule="evenodd" fill-opacity="1" /><path clip-path="url(#clip780)" d="M2330.1 1250.52 Q2333.45 1251.23 2335.33 1253.5 Q2337.23 1255.77 2337.23 1259.1 Q2337.23 1264.22 2333.71 1267.02 Q2330.19 1269.82 2323.71 1269.82 Q2321.53 1269.82 2319.22 1269.38 Q2316.93 1268.97 2314.47 1268.11 L2314.47 1263.6 Q2316.42 1264.73 2318.73 1265.31 Q2321.05 1265.89 2323.57 1265.89 Q2327.97 1265.89 2330.26 1264.15 Q2332.58 1262.42 2332.58 1259.1 Q2332.58 1256.05 2330.42 1254.34 Q2328.29 1252.6 2324.47 1252.6 L2320.45 1252.6 L2320.45 1248.76 L2324.66 1248.76 Q2328.11 1248.76 2329.94 1247.39 Q2331.76 1246 2331.76 1243.41 Q2331.76 1240.75 2329.87 1239.34 Q2327.99 1237.9 2324.47 1237.9 Q2322.55 1237.9 2320.35 1238.32 Q2318.15 1238.73 2315.51 1239.61 L2315.51 1235.45 Q2318.18 1234.71 2320.49 1234.34 Q2322.83 1233.97 2324.89 1233.97 Q2330.21 1233.97 2333.32 1236.4 Q2336.42 1238.8 2336.42 1242.92 Q2336.42 1245.79 2334.77 1247.79 Q2333.13 1249.75 2330.1 1250.52 Z" fill="#000000" fill-rule="evenodd" fill-opacity="1" /><path clip-path="url(#clip780)" d="M2356.09 1252.74 Q2352.76 1252.74 2350.84 1254.52 Q2348.94 1256.3 2348.94 1259.43 Q2348.94 1262.55 2350.84 1264.34 Q2352.76 1266.12 2356.09 1266.12 Q2359.43 1266.12 2361.35 1264.34 Q2363.27 1262.53 2363.27 1259.43 Q2363.27 1256.3 2361.35 1254.52 Q2359.45 1252.74 2356.09 1252.74 M2351.42 1250.75 Q2348.41 1250.01 2346.72 1247.95 Q2345.05 1245.89 2345.05 1242.92 Q2345.05 1238.78 2347.99 1236.37 Q2350.95 1233.97 2356.09 1233.97 Q2361.26 1233.97 2364.2 1236.37 Q2367.14 1238.78 2367.14 1242.92 Q2367.14 1245.89 2365.45 1247.95 Q2363.78 1250.01 2360.79 1250.75 Q2364.17 1251.54 2366.05 1253.83 Q2367.95 1256.12 2367.95 1259.43 Q2367.95 1264.45 2364.87 1267.14 Q2361.81 1269.82 2356.09 1269.82 Q2350.38 1269.82 2347.3 1267.14 Q2344.24 1264.45 2344.24 1259.43 Q2344.24 1256.12 2346.14 1253.83 Q2348.04 1251.54 2351.42 1250.75 M2349.7 1243.36 Q2349.7 1246.05 2351.37 1247.55 Q2353.06 1249.06 2356.09 1249.06 Q2359.1 1249.06 2360.79 1247.55 Q2362.51 1246.05 2362.51 1243.36 Q2362.51 1240.68 2360.79 1239.17 Q2359.1 1237.67 2356.09 1237.67 Q2353.06 1237.67 2351.37 1239.17 Q2349.7 1240.68 2349.7 1243.36 Z" fill="#000000" fill-rule="evenodd" fill-opacity="1" /><path clip-path="url(#clip780)" d="M2280.7 1096.91 Q2277.09 1096.91 2275.26 1100.47 Q2273.45 1104.01 2273.45 1111.14 Q2273.45 1118.25 2275.26 1121.82 Q2277.09 1125.36 2280.7 1125.36 Q2284.33 1125.36 2286.14 1121.82 Q2287.97 1118.25 2287.97 1111.14 Q2287.97 1104.01 2286.14 1100.47 Q2284.33 1096.91 2280.7 1096.91 M2280.7 1093.2 Q2286.51 1093.2 2289.57 1097.81 Q2292.64 1102.39 2292.64 1111.14 Q2292.64 1119.87 2289.57 1124.48 Q2286.51 1129.06 2280.7 1129.06 Q2274.89 1129.06 2271.81 1124.48 Q2268.76 1119.87 2268.76 1111.14 Q2268.76 1102.39 2271.81 1097.81 Q2274.89 1093.2 2280.7 1093.2 Z" fill="#000000" fill-rule="evenodd" fill-opacity="1" /><path clip-path="url(#clip780)" d="M2300.86 1122.51 L2305.75 1122.51 L2305.75 1128.39 L2300.86 1128.39 L2300.86 1122.51 Z" fill="#000000" fill-rule="evenodd" fill-opacity="1" /><path clip-path="url(#clip780)" d="M2330.1 1109.76 Q2333.45 1110.47 2335.33 1112.74 Q2337.23 1115.01 2337.23 1118.34 Q2337.23 1123.46 2333.71 1126.26 Q2330.19 1129.06 2323.71 1129.06 Q2321.53 1129.06 2319.22 1128.62 Q2316.93 1128.2 2314.47 1127.35 L2314.47 1122.83 Q2316.42 1123.97 2318.73 1124.55 Q2321.05 1125.13 2323.57 1125.13 Q2327.97 1125.13 2330.26 1123.39 Q2332.58 1121.65 2332.58 1118.34 Q2332.58 1115.29 2330.42 1113.57 Q2328.29 1111.84 2324.47 1111.84 L2320.45 1111.84 L2320.45 1108 L2324.66 1108 Q2328.11 1108 2329.94 1106.63 Q2331.76 1105.24 2331.76 1102.65 Q2331.76 1099.99 2329.87 1098.57 Q2327.99 1097.14 2324.47 1097.14 Q2322.55 1097.14 2320.35 1097.56 Q2318.15 1097.97 2315.51 1098.85 L2315.51 1094.69 Q2318.18 1093.95 2320.49 1093.57 Q2322.83 1093.2 2324.89 1093.2 Q2330.21 1093.2 2333.32 1095.63 Q2336.42 1098.04 2336.42 1102.16 Q2336.42 1105.03 2334.77 1107.02 Q2333.13 1108.99 2330.1 1109.76 Z" fill="#000000" fill-rule="evenodd" fill-opacity="1" /><path clip-path="url(#clip780)" d="M2346.23 1127.67 L2346.23 1123.41 Q2347.99 1124.25 2349.8 1124.69 Q2351.6 1125.13 2353.34 1125.13 Q2357.97 1125.13 2360.4 1122.02 Q2362.85 1118.9 2363.2 1112.56 Q2361.86 1114.55 2359.8 1115.61 Q2357.74 1116.68 2355.24 1116.68 Q2350.05 1116.68 2347.02 1113.55 Q2344.01 1110.4 2344.01 1104.96 Q2344.01 1099.64 2347.16 1096.42 Q2350.31 1093.2 2355.54 1093.2 Q2361.53 1093.2 2364.68 1097.81 Q2367.85 1102.39 2367.85 1111.14 Q2367.85 1119.32 2363.96 1124.2 Q2360.1 1129.06 2353.55 1129.06 Q2351.79 1129.06 2349.98 1128.71 Q2348.18 1128.37 2346.23 1127.67 M2355.54 1113.02 Q2358.69 1113.02 2360.51 1110.87 Q2362.37 1108.71 2362.37 1104.96 Q2362.37 1101.24 2360.51 1099.08 Q2358.69 1096.91 2355.54 1096.91 Q2352.39 1096.91 2350.54 1099.08 Q2348.71 1101.24 2348.71 1104.96 Q2348.71 1108.71 2350.54 1110.87 Q2352.39 1113.02 2355.54 1113.02 Z" fill="#000000" fill-rule="evenodd" fill-opacity="1" /><path clip-path="url(#clip780)" d="M2280.7 956.146 Q2277.09 956.146 2275.26 959.711 Q2273.45 963.253 2273.45 970.382 Q2273.45 977.489 2275.26 981.053 Q2277.09 984.595 2280.7 984.595 Q2284.33 984.595 2286.14 981.053 Q2287.97 977.489 2287.97 970.382 Q2287.97 963.253 2286.14 959.711 Q2284.33 956.146 2280.7 956.146 M2280.7 952.442 Q2286.51 952.442 2289.57 957.049 Q2292.64 961.632 2292.64 970.382 Q2292.64 979.109 2289.57 983.715 Q2286.51 988.299 2280.7 988.299 Q2274.89 988.299 2271.81 983.715 Q2268.76 979.109 2268.76 970.382 Q2268.76 961.632 2271.81 957.049 Q2274.89 952.442 2280.7 952.442 Z" fill="#000000" fill-rule="evenodd" fill-opacity="1" /><path clip-path="url(#clip780)" d="M2300.86 981.748 L2305.75 981.748 L2305.75 987.627 L2300.86 987.627 L2300.86 981.748 Z" fill="#000000" fill-rule="evenodd" fill-opacity="1" /><path clip-path="url(#clip780)" d="M2328.78 957.141 L2316.97 975.59 L2328.78 975.59 L2328.78 957.141 M2327.55 953.067 L2333.43 953.067 L2333.43 975.59 L2338.36 975.59 L2338.36 979.479 L2333.43 979.479 L2333.43 987.627 L2328.78 987.627 L2328.78 979.479 L2313.18 979.479 L2313.18 974.965 L2327.55 953.067 Z" fill="#000000" fill-rule="evenodd" fill-opacity="1" /><path clip-path="url(#clip780)" d="M2356.09 956.146 Q2352.48 956.146 2350.65 959.711 Q2348.85 963.253 2348.85 970.382 Q2348.85 977.489 2350.65 981.053 Q2352.48 984.595 2356.09 984.595 Q2359.73 984.595 2361.53 981.053 Q2363.36 977.489 2363.36 970.382 Q2363.36 963.253 2361.53 959.711 Q2359.73 956.146 2356.09 956.146 M2356.09 952.442 Q2361.9 952.442 2364.96 957.049 Q2368.04 961.632 2368.04 970.382 Q2368.04 979.109 2364.96 983.715 Q2361.9 988.299 2356.09 988.299 Q2350.28 988.299 2347.2 983.715 Q2344.15 979.109 2344.15 970.382 Q2344.15 961.632 2347.2 957.049 Q2350.28 952.442 2356.09 952.442 Z" fill="#000000" fill-rule="evenodd" fill-opacity="1" /><path clip-path="url(#clip780)" d="M2280.7 815.384 Q2277.09 815.384 2275.26 818.949 Q2273.45 822.491 2273.45 829.62 Q2273.45 836.727 2275.26 840.292 Q2277.09 843.833 2280.7 843.833 Q2284.33 843.833 2286.14 840.292 Q2287.97 836.727 2287.97 829.62 Q2287.97 822.491 2286.14 818.949 Q2284.33 815.384 2280.7 815.384 M2280.7 811.681 Q2286.51 811.681 2289.57 816.287 Q2292.64 820.87 2292.64 829.62 Q2292.64 838.347 2289.57 842.954 Q2286.51 847.537 2280.7 847.537 Q2274.89 847.537 2271.81 842.954 Q2268.76 838.347 2268.76 829.62 Q2268.76 820.87 2271.81 816.287 Q2274.89 811.681 2280.7 811.681 Z" fill="#000000" fill-rule="evenodd" fill-opacity="1" /><path clip-path="url(#clip780)" d="M2300.86 840.986 L2305.75 840.986 L2305.75 846.866 L2300.86 846.866 L2300.86 840.986 Z" fill="#000000" fill-rule="evenodd" fill-opacity="1" /><path clip-path="url(#clip780)" d="M2328.78 816.38 L2316.97 834.829 L2328.78 834.829 L2328.78 816.38 M2327.55 812.306 L2333.43 812.306 L2333.43 834.829 L2338.36 834.829 L2338.36 838.717 L2333.43 838.717 L2333.43 846.866 L2328.78 846.866 L2328.78 838.717 L2313.18 838.717 L2313.18 834.204 L2327.55 812.306 Z" fill="#000000" fill-rule="evenodd" fill-opacity="1" /><path clip-path="url(#clip780)" d="M2346.9 842.93 L2354.54 842.93 L2354.54 816.565 L2346.23 818.231 L2346.23 813.972 L2354.5 812.306 L2359.17 812.306 L2359.17 842.93 L2366.81 842.93 L2366.81 846.866 L2346.9 846.866 L2346.9 842.93 Z" fill="#000000" fill-rule="evenodd" fill-opacity="1" /><path clip-path="url(#clip780)" d="M2280.7 674.622 Q2277.09 674.622 2275.26 678.187 Q2273.45 681.729 2273.45 688.858 Q2273.45 695.965 2275.26 699.53 Q2277.09 703.071 2280.7 703.071 Q2284.33 703.071 2286.14 699.53 Q2287.97 695.965 2287.97 688.858 Q2287.97 681.729 2286.14 678.187 Q2284.33 674.622 2280.7 674.622 M2280.7 670.919 Q2286.51 670.919 2289.57 675.525 Q2292.64 680.108 2292.64 688.858 Q2292.64 697.585 2289.57 702.192 Q2286.51 706.775 2280.7 706.775 Q2274.89 706.775 2271.81 702.192 Q2268.76 697.585 2268.76 688.858 Q2268.76 680.108 2271.81 675.525 Q2274.89 670.919 2280.7 670.919 Z" fill="#000000" fill-rule="evenodd" fill-opacity="1" /><path clip-path="url(#clip780)" d="M2300.86 700.224 L2305.75 700.224 L2305.75 706.104 L2300.86 706.104 L2300.86 700.224 Z" fill="#000000" fill-rule="evenodd" fill-opacity="1" /><path clip-path="url(#clip780)" d="M2328.78 675.618 L2316.97 694.067 L2328.78 694.067 L2328.78 675.618 M2327.55 671.544 L2333.43 671.544 L2333.43 694.067 L2338.36 694.067 L2338.36 697.956 L2333.43 697.956 L2333.43 706.104 L2328.78 706.104 L2328.78 697.956 L2313.18 697.956 L2313.18 693.442 L2327.55 671.544 Z" fill="#000000" fill-rule="evenodd" fill-opacity="1" /><path clip-path="url(#clip780)" d="M2350.12 702.169 L2366.44 702.169 L2366.44 706.104 L2344.5 706.104 L2344.5 702.169 Q2347.16 699.414 2351.74 694.784 Q2356.35 690.132 2357.53 688.789 Q2359.77 686.266 2360.65 684.53 Q2361.56 682.77 2361.56 681.081 Q2361.56 678.326 2359.61 676.59 Q2357.69 674.854 2354.59 674.854 Q2352.39 674.854 2349.94 675.618 Q2347.51 676.382 2344.73 677.933 L2344.73 673.21 Q2347.55 672.076 2350.01 671.497 Q2352.46 670.919 2354.5 670.919 Q2359.87 670.919 2363.06 673.604 Q2366.26 676.289 2366.26 680.78 Q2366.26 682.909 2365.45 684.831 Q2364.66 686.729 2362.55 689.321 Q2361.97 689.993 2358.87 693.21 Q2355.77 696.405 2350.12 702.169 Z" fill="#000000" fill-rule="evenodd" fill-opacity="1" /><path clip-path="url(#clip780)" d="M2280.7 533.861 Q2277.09 533.861 2275.26 537.425 Q2273.45 540.967 2273.45 548.097 Q2273.45 555.203 2275.26 558.768 Q2277.09 562.309 2280.7 562.309 Q2284.33 562.309 2286.14 558.768 Q2287.97 555.203 2287.97 548.097 Q2287.97 540.967 2286.14 537.425 Q2284.33 533.861 2280.7 533.861 M2280.7 530.157 Q2286.51 530.157 2289.57 534.763 Q2292.64 539.347 2292.64 548.097 Q2292.64 556.823 2289.57 561.43 Q2286.51 566.013 2280.7 566.013 Q2274.89 566.013 2271.81 561.43 Q2268.76 556.823 2268.76 548.097 Q2268.76 539.347 2271.81 534.763 Q2274.89 530.157 2280.7 530.157 Z" fill="#000000" fill-rule="evenodd" fill-opacity="1" /><path clip-path="url(#clip780)" d="M2300.86 559.462 L2305.75 559.462 L2305.75 565.342 L2300.86 565.342 L2300.86 559.462 Z" fill="#000000" fill-rule="evenodd" fill-opacity="1" /><path clip-path="url(#clip780)" d="M2328.78 534.856 L2316.97 553.305 L2328.78 553.305 L2328.78 534.856 M2327.55 530.782 L2333.43 530.782 L2333.43 553.305 L2338.36 553.305 L2338.36 557.194 L2333.43 557.194 L2333.43 565.342 L2328.78 565.342 L2328.78 557.194 L2313.18 557.194 L2313.18 552.68 L2327.55 530.782 Z" fill="#000000" fill-rule="evenodd" fill-opacity="1" /><path clip-path="url(#clip780)" d="M2360.26 546.708 Q2363.62 547.425 2365.49 549.694 Q2367.39 551.962 2367.39 555.296 Q2367.39 560.411 2363.87 563.212 Q2360.35 566.013 2353.87 566.013 Q2351.7 566.013 2349.38 565.573 Q2347.09 565.157 2344.64 564.3 L2344.64 559.786 Q2346.58 560.921 2348.89 561.499 Q2351.21 562.078 2353.73 562.078 Q2358.13 562.078 2360.42 560.342 Q2362.74 558.606 2362.74 555.296 Q2362.74 552.24 2360.58 550.527 Q2358.45 548.791 2354.64 548.791 L2350.61 548.791 L2350.61 544.948 L2354.82 544.948 Q2358.27 544.948 2360.1 543.583 Q2361.93 542.194 2361.93 539.601 Q2361.93 536.939 2360.03 535.527 Q2358.15 534.092 2354.64 534.092 Q2352.71 534.092 2350.51 534.509 Q2348.32 534.925 2345.68 535.805 L2345.68 531.638 Q2348.34 530.898 2350.65 530.527 Q2352.99 530.157 2355.05 530.157 Q2360.38 530.157 2363.48 532.587 Q2366.58 534.995 2366.58 539.115 Q2366.58 541.985 2364.94 543.976 Q2363.29 545.944 2360.26 546.708 Z" fill="#000000" fill-rule="evenodd" fill-opacity="1" /><path clip-path="url(#clip780)" d="M2280.7 393.099 Q2277.09 393.099 2275.26 396.663 Q2273.45 400.205 2273.45 407.335 Q2273.45 414.441 2275.26 418.006 Q2277.09 421.548 2280.7 421.548 Q2284.33 421.548 2286.14 418.006 Q2287.97 414.441 2287.97 407.335 Q2287.97 400.205 2286.14 396.663 Q2284.33 393.099 2280.7 393.099 M2280.7 389.395 Q2286.51 389.395 2289.57 394.001 Q2292.64 398.585 2292.64 407.335 Q2292.64 416.061 2289.57 420.668 Q2286.51 425.251 2280.7 425.251 Q2274.89 425.251 2271.81 420.668 Q2268.76 416.061 2268.76 407.335 Q2268.76 398.585 2271.81 394.001 Q2274.89 389.395 2280.7 389.395 Z" fill="#000000" fill-rule="evenodd" fill-opacity="1" /><path clip-path="url(#clip780)" d="M2300.86 418.7 L2305.75 418.7 L2305.75 424.58 L2300.86 424.58 L2300.86 418.7 Z" fill="#000000" fill-rule="evenodd" fill-opacity="1" /><path clip-path="url(#clip780)" d="M2328.78 394.094 L2316.97 412.543 L2328.78 412.543 L2328.78 394.094 M2327.55 390.02 L2333.43 390.02 L2333.43 412.543 L2338.36 412.543 L2338.36 416.432 L2333.43 416.432 L2333.43 424.58 L2328.78 424.58 L2328.78 416.432 L2313.18 416.432 L2313.18 411.918 L2327.55 390.02 Z" fill="#000000" fill-rule="evenodd" fill-opacity="1" /><path clip-path="url(#clip780)" d="M2358.94 394.094 L2347.14 412.543 L2358.94 412.543 L2358.94 394.094 M2357.71 390.02 L2363.59 390.02 L2363.59 412.543 L2368.52 412.543 L2368.52 416.432 L2363.59 416.432 L2363.59 424.58 L2358.94 424.58 L2358.94 416.432 L2343.34 416.432 L2343.34 411.918 L2357.71 390.02 Z" fill="#000000" fill-rule="evenodd" fill-opacity="1" /><path clip-path="url(#clip780)" d="M2280.7 252.337 Q2277.09 252.337 2275.26 255.902 Q2273.45 259.443 2273.45 266.573 Q2273.45 273.679 2275.26 277.244 Q2277.09 280.786 2280.7 280.786 Q2284.33 280.786 2286.14 277.244 Q2287.97 273.679 2287.97 266.573 Q2287.97 259.443 2286.14 255.902 Q2284.33 252.337 2280.7 252.337 M2280.7 248.633 Q2286.51 248.633 2289.57 253.24 Q2292.64 257.823 2292.64 266.573 Q2292.64 275.3 2289.57 279.906 Q2286.51 284.489 2280.7 284.489 Q2274.89 284.489 2271.81 279.906 Q2268.76 275.3 2268.76 266.573 Q2268.76 257.823 2271.81 253.24 Q2274.89 248.633 2280.7 248.633 Z" fill="#000000" fill-rule="evenodd" fill-opacity="1" /><path clip-path="url(#clip780)" d="M2300.86 277.938 L2305.75 277.938 L2305.75 283.818 L2300.86 283.818 L2300.86 277.938 Z" fill="#000000" fill-rule="evenodd" fill-opacity="1" /><path clip-path="url(#clip780)" d="M2328.78 253.332 L2316.97 271.781 L2328.78 271.781 L2328.78 253.332 M2327.55 249.258 L2333.43 249.258 L2333.43 271.781 L2338.36 271.781 L2338.36 275.67 L2333.43 275.67 L2333.43 283.818 L2328.78 283.818 L2328.78 275.67 L2313.18 275.67 L2313.18 271.156 L2327.55 249.258 Z" fill="#000000" fill-rule="evenodd" fill-opacity="1" /><path clip-path="url(#clip780)" d="M2346.14 249.258 L2364.5 249.258 L2364.5 253.193 L2350.42 253.193 L2350.42 261.665 Q2351.44 261.318 2352.46 261.156 Q2353.48 260.971 2354.5 260.971 Q2360.28 260.971 2363.66 264.142 Q2367.04 267.314 2367.04 272.73 Q2367.04 278.309 2363.57 281.411 Q2360.1 284.489 2353.78 284.489 Q2351.6 284.489 2349.33 284.119 Q2347.09 283.749 2344.68 283.008 L2344.68 278.309 Q2346.76 279.443 2348.99 279.999 Q2351.21 280.554 2353.69 280.554 Q2357.69 280.554 2360.03 278.448 Q2362.37 276.341 2362.37 272.73 Q2362.37 269.119 2360.03 267.013 Q2357.69 264.906 2353.69 264.906 Q2351.81 264.906 2349.94 265.323 Q2348.08 265.739 2346.14 266.619 L2346.14 249.258 Z" fill="#000000" fill-rule="evenodd" fill-opacity="1" /><path clip-path="url(#clip780)" d="M2280.7 111.575 Q2277.09 111.575 2275.26 115.14 Q2273.45 118.681 2273.45 125.811 Q2273.45 132.917 2275.26 136.482 Q2277.09 140.024 2280.7 140.024 Q2284.33 140.024 2286.14 136.482 Q2287.97 132.917 2287.97 125.811 Q2287.97 118.681 2286.14 115.14 Q2284.33 111.575 2280.7 111.575 M2280.7 107.871 Q2286.51 107.871 2289.57 112.478 Q2292.64 117.061 2292.64 125.811 Q2292.64 134.538 2289.57 139.144 Q2286.51 143.727 2280.7 143.727 Q2274.89 143.727 2271.81 139.144 Q2268.76 134.538 2268.76 125.811 Q2268.76 117.061 2271.81 112.478 Q2274.89 107.871 2280.7 107.871 Z" fill="#000000" fill-rule="evenodd" fill-opacity="1" /><path clip-path="url(#clip780)" d="M2300.86 137.177 L2305.75 137.177 L2305.75 143.056 L2300.86 143.056 L2300.86 137.177 Z" fill="#000000" fill-rule="evenodd" fill-opacity="1" /><path clip-path="url(#clip780)" d="M2328.78 112.57 L2316.97 131.019 L2328.78 131.019 L2328.78 112.57 M2327.55 108.496 L2333.43 108.496 L2333.43 131.019 L2338.36 131.019 L2338.36 134.908 L2333.43 134.908 L2333.43 143.056 L2328.78 143.056 L2328.78 134.908 L2313.18 134.908 L2313.18 130.394 L2327.55 108.496 Z" fill="#000000" fill-rule="evenodd" fill-opacity="1" /><path clip-path="url(#clip780)" d="M2356.67 123.913 Q2353.52 123.913 2351.67 126.066 Q2349.84 128.218 2349.84 131.968 Q2349.84 135.695 2351.67 137.871 Q2353.52 140.024 2356.67 140.024 Q2359.82 140.024 2361.65 137.871 Q2363.5 135.695 2363.5 131.968 Q2363.5 128.218 2361.65 126.066 Q2359.82 123.913 2356.67 123.913 M2365.95 109.26 L2365.95 113.519 Q2364.2 112.686 2362.39 112.246 Q2360.61 111.806 2358.85 111.806 Q2354.22 111.806 2351.76 114.931 Q2349.33 118.056 2348.99 124.376 Q2350.35 122.362 2352.41 121.297 Q2354.47 120.209 2356.95 120.209 Q2362.16 120.209 2365.17 123.38 Q2368.2 126.529 2368.2 131.968 Q2368.2 137.292 2365.05 140.51 Q2361.9 143.727 2356.67 143.727 Q2350.68 143.727 2347.51 139.144 Q2344.33 134.538 2344.33 125.811 Q2344.33 117.617 2348.22 112.755 Q2352.11 107.871 2358.66 107.871 Q2360.42 107.871 2362.2 108.218 Q2364.01 108.566 2365.95 109.26 Z" fill="#000000" fill-rule="evenodd" fill-opacity="1" /><polyline clip-path="url(#clip780)" style="stroke:#000000; stroke-linecap:round; stroke-linejoin:round; stroke-width:4; stroke-opacity:1; fill:none" points="
  2232.76,1423.18 2232.76,1396.26 2256.76,1396.26 2232.76,1396.26 2232.76,1255.5 2256.76,1255.5 2232.76,1255.5 2232.76,1114.74 2256.76,1114.74 2232.76,1114.74 
  2232.76,973.976 2256.76,973.976 2232.76,973.976 2232.76,833.214 2256.76,833.214 2232.76,833.214 2232.76,692.452 2256.76,692.452 2232.76,692.452 2232.76,551.691 
  2256.76,551.691 2232.76,551.691 2232.76,410.929 2256.76,410.929 2232.76,410.929 2232.76,270.167 2256.76,270.167 2232.76,270.167 2232.76,129.405 2256.76,129.405 
  2232.76,129.405 2232.76,47.2441 
  "/>
</svg>
