<?xml version="1.0" encoding="utf-8"?>
<svg xmlns="http://www.w3.org/2000/svg" xmlns:xlink="http://www.w3.org/1999/xlink" width="600" height="400" viewBox="0 0 2400 1600">
<defs>
  <clipPath id="clip050">
    <rect x="0" y="0" width="2400" height="1600"/>
  </clipPath>
</defs>
<path clip-path="url(#clip050)" d="
M0 1600 L2400 1600 L2400 0 L0 0  Z
  " fill="#ffffff" fill-rule="evenodd" fill-opacity="1"/>
<defs>
  <clipPath id="clip051">
    <rect x="480" y="0" width="1681" height="1600"/>
  </clipPath>
</defs>
<path clip-path="url(#clip050)" d="
M219.866 1423.18 L2352.76 1423.18 L2352.76 47.2441 L219.866 47.2441  Z
  " fill="#ffffff" fill-rule="evenodd" fill-opacity="1"/>
<defs>
  <clipPath id="clip052">
    <rect x="219" y="47" width="2134" height="1377"/>
  </clipPath>
</defs>
<polyline clip-path="url(#clip052)" style="stroke:#000000; stroke-linecap:butt; stroke-linejoin:round; stroke-width:2; stroke-opacity:0.1; fill:none" points="
  280.231,1423.18 280.231,47.2441 
  "/>
<polyline clip-path="url(#clip052)" style="stroke:#000000; stroke-linecap:butt; stroke-linejoin:round; stroke-width:2; stroke-opacity:0.1; fill:none" points="
  783.271,1423.18 783.271,47.2441 
  "/>
<polyline clip-path="url(#clip052)" style="stroke:#000000; stroke-linecap:butt; stroke-linejoin:round; stroke-width:2; stroke-opacity:0.1; fill:none" points="
  1286.31,1423.18 1286.31,47.2441 
  "/>
<polyline clip-path="url(#clip052)" style="stroke:#000000; stroke-linecap:butt; stroke-linejoin:round; stroke-width:2; stroke-opacity:0.1; fill:none" points="
  1789.35,1423.18 1789.35,47.2441 
  "/>
<polyline clip-path="url(#clip052)" style="stroke:#000000; stroke-linecap:butt; stroke-linejoin:round; stroke-width:2; stroke-opacity:0.1; fill:none" points="
  2292.39,1423.18 2292.39,47.2441 
  "/>
<polyline clip-path="url(#clip050)" style="stroke:#000000; stroke-linecap:butt; stroke-linejoin:round; stroke-width:4; stroke-opacity:1; fill:none" points="
  219.866,1423.18 2352.76,1423.18 
  "/>
<polyline clip-path="url(#clip050)" style="stroke:#000000; stroke-linecap:butt; stroke-linejoin:round; stroke-width:4; stroke-opacity:1; fill:none" points="
  280.231,1423.18 280.231,1404.28 
  "/>
<polyline clip-path="url(#clip050)" style="stroke:#000000; stroke-linecap:butt; stroke-linejoin:round; stroke-width:4; stroke-opacity:1; fill:none" points="
  783.271,1423.18 783.271,1404.28 
  "/>
<polyline clip-path="url(#clip050)" style="stroke:#000000; stroke-linecap:butt; stroke-linejoin:round; stroke-width:4; stroke-opacity:1; fill:none" points="
  1286.31,1423.18 1286.31,1404.28 
  "/>
<polyline clip-path="url(#clip050)" style="stroke:#000000; stroke-linecap:butt; stroke-linejoin:round; stroke-width:4; stroke-opacity:1; fill:none" points="
  1789.35,1423.18 1789.35,1404.28 
  "/>
<polyline clip-path="url(#clip050)" style="stroke:#000000; stroke-linecap:butt; stroke-linejoin:round; stroke-width:4; stroke-opacity:1; fill:none" points="
  2292.39,1423.18 2292.39,1404.28 
  "/>
<path clip-path="url(#clip050)" d="M249.132 1468.75 L278.807 1468.75 L278.807 1472.69 L249.132 1472.69 L249.132 1468.75 Z" fill="#000000" fill-rule="evenodd" fill-opacity="1" /><path clip-path="url(#clip050)" d="M301.747 1455.09 L289.942 1473.54 L301.747 1473.54 L301.747 1455.09 M300.52 1451.02 L306.4 1451.02 L306.4 1473.54 L311.33 1473.54 L311.33 1477.43 L306.4 1477.43 L306.4 1485.58 L301.747 1485.58 L301.747 1477.43 L286.145 1477.43 L286.145 1472.92 L300.52 1451.02 Z" fill="#000000" fill-rule="evenodd" fill-opacity="1" /><path clip-path="url(#clip050)" d="M753.213 1468.75 L782.889 1468.75 L782.889 1472.69 L753.213 1472.69 L753.213 1468.75 Z" fill="#000000" fill-rule="evenodd" fill-opacity="1" /><path clip-path="url(#clip050)" d="M797.009 1481.64 L813.329 1481.64 L813.329 1485.58 L791.384 1485.58 L791.384 1481.64 Q794.046 1478.89 798.63 1474.26 Q803.236 1469.61 804.417 1468.27 Q806.662 1465.74 807.542 1464.01 Q808.445 1462.25 808.445 1460.56 Q808.445 1457.8 806.5 1456.07 Q804.579 1454.33 801.477 1454.33 Q799.278 1454.33 796.824 1455.09 Q794.394 1455.86 791.616 1457.41 L791.616 1452.69 Q794.44 1451.55 796.894 1450.97 Q799.347 1450.39 801.384 1450.39 Q806.755 1450.39 809.949 1453.08 Q813.144 1455.77 813.144 1460.26 Q813.144 1462.39 812.333 1464.31 Q811.546 1466.2 809.44 1468.8 Q808.861 1469.47 805.759 1472.69 Q802.658 1475.88 797.009 1481.64 Z" fill="#000000" fill-rule="evenodd" fill-opacity="1" /><path clip-path="url(#clip050)" d="M1286.31 1454.1 Q1282.7 1454.1 1280.87 1457.66 Q1279.07 1461.2 1279.07 1468.33 Q1279.07 1475.44 1280.87 1479.01 Q1282.7 1482.55 1286.31 1482.55 Q1289.95 1482.55 1291.75 1479.01 Q1293.58 1475.44 1293.58 1468.33 Q1293.58 1461.2 1291.75 1457.66 Q1289.95 1454.1 1286.31 1454.1 M1286.31 1450.39 Q1292.12 1450.39 1295.18 1455 Q1298.26 1459.58 1298.26 1468.33 Q1298.26 1477.06 1295.18 1481.67 Q1292.12 1486.25 1286.31 1486.25 Q1280.5 1486.25 1277.42 1481.67 Q1274.37 1477.06 1274.37 1468.33 Q1274.37 1459.58 1277.42 1455 Q1280.5 1450.39 1286.31 1450.39 Z" fill="#000000" fill-rule="evenodd" fill-opacity="1" /><path clip-path="url(#clip050)" d="M1784 1481.64 L1800.32 1481.64 L1800.32 1485.58 L1778.38 1485.58 L1778.38 1481.64 Q1781.04 1478.89 1785.62 1474.26 Q1790.23 1469.61 1791.41 1468.27 Q1793.66 1465.74 1794.54 1464.01 Q1795.44 1462.25 1795.44 1460.56 Q1795.44 1457.8 1793.49 1456.07 Q1791.57 1454.33 1788.47 1454.33 Q1786.27 1454.33 1783.82 1455.09 Q1781.39 1455.86 1778.61 1457.41 L1778.61 1452.69 Q1781.43 1451.55 1783.89 1450.97 Q1786.34 1450.39 1788.38 1450.39 Q1793.75 1450.39 1796.94 1453.08 Q1800.14 1455.77 1800.14 1460.26 Q1800.14 1462.39 1799.33 1464.31 Q1798.54 1466.2 1796.43 1468.8 Q1795.86 1469.47 1792.75 1472.69 Q1789.65 1475.88 1784 1481.64 Z" fill="#000000" fill-rule="evenodd" fill-opacity="1" /><path clip-path="url(#clip050)" d="M2295.4 1455.09 L2283.59 1473.54 L2295.4 1473.54 L2295.4 1455.09 M2294.17 1451.02 L2300.05 1451.02 L2300.05 1473.54 L2304.98 1473.54 L2304.98 1477.43 L2300.05 1477.43 L2300.05 1485.58 L2295.4 1485.58 L2295.4 1477.43 L2279.8 1477.43 L2279.8 1472.92 L2294.17 1451.02 Z" fill="#000000" fill-rule="evenodd" fill-opacity="1" /><path clip-path="url(#clip050)" d="M1129.64 1520.52 L1159.68 1520.52 L1159.68 1525.93 L1136.06 1525.93 L1136.06 1540 L1158.69 1540 L1158.69 1545.41 L1136.06 1545.41 L1136.06 1562.63 L1160.25 1562.63 L1160.25 1568.04 L1129.64 1568.04 L1129.64 1520.52 Z" fill="#000000" fill-rule="evenodd" fill-opacity="1" /><path clip-path="url(#clip050)" d="M1200.2 1546.53 L1200.2 1568.04 L1194.34 1568.04 L1194.34 1546.72 Q1194.34 1541.66 1192.37 1539.14 Q1190.4 1536.63 1186.45 1536.63 Q1181.71 1536.63 1178.97 1539.65 Q1176.23 1542.68 1176.23 1547.9 L1176.23 1568.04 L1170.34 1568.04 L1170.34 1532.4 L1176.23 1532.4 L1176.23 1537.93 Q1178.33 1534.72 1181.17 1533.13 Q1184.03 1531.54 1187.75 1531.54 Q1193.9 1531.54 1197.05 1535.36 Q1200.2 1539.14 1200.2 1546.53 Z" fill="#000000" fill-rule="evenodd" fill-opacity="1" /><path clip-path="url(#clip050)" d="M1242.37 1548.76 L1242.37 1551.62 L1215.44 1551.62 Q1215.83 1557.67 1219.07 1560.85 Q1222.35 1564 1228.18 1564 Q1231.55 1564 1234.7 1563.17 Q1237.88 1562.35 1241 1560.69 L1241 1566.23 Q1237.85 1567.57 1234.54 1568.27 Q1231.23 1568.97 1227.83 1568.97 Q1219.3 1568.97 1214.3 1564 Q1209.33 1559.04 1209.33 1550.57 Q1209.33 1541.82 1214.04 1536.69 Q1218.79 1531.54 1226.81 1531.54 Q1234 1531.54 1238.17 1536.18 Q1242.37 1540.8 1242.37 1548.76 M1236.52 1547.04 Q1236.45 1542.23 1233.81 1539.37 Q1231.2 1536.5 1226.87 1536.5 Q1221.97 1536.5 1219.01 1539.27 Q1216.08 1542.04 1215.64 1547.07 L1236.52 1547.04 Z" fill="#000000" fill-rule="evenodd" fill-opacity="1" /><path clip-path="url(#clip050)" d="M1272.64 1537.87 Q1271.65 1537.3 1270.48 1537.04 Q1269.33 1536.76 1267.93 1536.76 Q1262.96 1536.76 1260.29 1540 Q1257.65 1543.22 1257.65 1549.27 L1257.65 1568.04 L1251.76 1568.04 L1251.76 1532.4 L1257.65 1532.4 L1257.65 1537.93 Q1259.5 1534.69 1262.46 1533.13 Q1265.42 1531.54 1269.65 1531.54 Q1270.25 1531.54 1270.99 1531.63 Q1271.72 1531.7 1272.61 1531.85 L1272.64 1537.87 Z" fill="#000000" fill-rule="evenodd" fill-opacity="1" /><path clip-path="url(#clip050)" d="M1301.1 1549.81 Q1301.1 1543.44 1298.45 1539.94 Q1295.84 1536.44 1291.1 1536.44 Q1286.39 1536.44 1283.75 1539.94 Q1281.14 1543.44 1281.14 1549.81 Q1281.14 1556.14 1283.75 1559.64 Q1286.39 1563.14 1291.1 1563.14 Q1295.84 1563.14 1298.45 1559.64 Q1301.1 1556.14 1301.1 1549.81 M1306.95 1563.62 Q1306.95 1572.72 1302.91 1577.15 Q1298.87 1581.6 1290.53 1581.6 Q1287.44 1581.6 1284.7 1581.13 Q1281.97 1580.68 1279.39 1579.72 L1279.39 1574.03 Q1281.97 1575.43 1284.48 1576.1 Q1287 1576.76 1289.61 1576.76 Q1295.37 1576.76 1298.23 1573.74 Q1301.1 1570.75 1301.1 1564.67 L1301.1 1561.77 Q1299.28 1564.92 1296.45 1566.48 Q1293.62 1568.04 1289.67 1568.04 Q1283.11 1568.04 1279.1 1563.05 Q1275.09 1558.05 1275.09 1549.81 Q1275.09 1541.53 1279.1 1536.53 Q1283.11 1531.54 1289.67 1531.54 Q1293.62 1531.54 1296.45 1533.1 Q1299.28 1534.66 1301.1 1537.81 L1301.1 1532.4 L1306.95 1532.4 L1306.95 1563.62 Z" fill="#000000" fill-rule="evenodd" fill-opacity="1" /><path clip-path="url(#clip050)" d="M1333.85 1571.35 Q1331.36 1577.72 1329.01 1579.66 Q1326.65 1581.6 1322.71 1581.6 L1318.03 1581.6 L1318.03 1576.7 L1321.47 1576.7 Q1323.88 1576.7 1325.22 1575.56 Q1326.56 1574.41 1328.18 1570.14 L1329.23 1567.47 L1314.81 1532.4 L1321.02 1532.4 L1332.16 1560.28 L1343.3 1532.4 L1349.51 1532.4 L1333.85 1571.35 Z" fill="#000000" fill-rule="evenodd" fill-opacity="1" /><path clip-path="url(#clip050)" d="M1377.77 1518.52 L1391.27 1518.52 L1391.27 1523.07 L1383.63 1523.07 L1383.63 1572.09 L1391.27 1572.09 L1391.27 1576.64 L1377.77 1576.64 L1377.77 1518.52 Z" fill="#000000" fill-rule="evenodd" fill-opacity="1" /><path clip-path="url(#clip050)" d="M1409.54 1522.27 L1409.54 1532.4 L1421.6 1532.4 L1421.6 1536.95 L1409.54 1536.95 L1409.54 1556.3 Q1409.54 1560.66 1410.71 1561.9 Q1411.92 1563.14 1415.58 1563.14 L1421.6 1563.14 L1421.6 1568.04 L1415.58 1568.04 Q1408.8 1568.04 1406.23 1565.53 Q1403.65 1562.98 1403.65 1556.3 L1403.65 1536.95 L1399.35 1536.95 L1399.35 1532.4 L1403.65 1532.4 L1403.65 1522.27 L1409.54 1522.27 Z" fill="#000000" fill-rule="evenodd" fill-opacity="1" /><path clip-path="url(#clip050)" d="M1442.99 1518.52 L1442.99 1576.64 L1429.49 1576.64 L1429.49 1572.09 L1437.1 1572.09 L1437.1 1523.07 L1429.49 1523.07 L1429.49 1518.52 L1442.99 1518.52 Z" fill="#000000" fill-rule="evenodd" fill-opacity="1" /><polyline clip-path="url(#clip052)" style="stroke:#000000; stroke-linecap:butt; stroke-linejoin:round; stroke-width:2; stroke-opacity:0.1; fill:none" points="
  219.866,1397.42 2352.76,1397.42 
  "/>
<polyline clip-path="url(#clip052)" style="stroke:#000000; stroke-linecap:butt; stroke-linejoin:round; stroke-width:2; stroke-opacity:0.1; fill:none" points="
  219.866,1015.22 2352.76,1015.22 
  "/>
<polyline clip-path="url(#clip052)" style="stroke:#000000; stroke-linecap:butt; stroke-linejoin:round; stroke-width:2; stroke-opacity:0.1; fill:none" points="
  219.866,633.012 2352.76,633.012 
  "/>
<polyline clip-path="url(#clip052)" style="stroke:#000000; stroke-linecap:butt; stroke-linejoin:round; stroke-width:2; stroke-opacity:0.1; fill:none" points="
  219.866,250.808 2352.76,250.808 
  "/>
<polyline clip-path="url(#clip050)" style="stroke:#000000; stroke-linecap:butt; stroke-linejoin:round; stroke-width:4; stroke-opacity:1; fill:none" points="
  219.866,1423.18 219.866,47.2441 
  "/>
<polyline clip-path="url(#clip050)" style="stroke:#000000; stroke-linecap:butt; stroke-linejoin:round; stroke-width:4; stroke-opacity:1; fill:none" points="
  219.866,1397.42 238.764,1397.42 
  "/>
<polyline clip-path="url(#clip050)" style="stroke:#000000; stroke-linecap:butt; stroke-linejoin:round; stroke-width:4; stroke-opacity:1; fill:none" points="
  219.866,1015.22 238.764,1015.22 
  "/>
<polyline clip-path="url(#clip050)" style="stroke:#000000; stroke-linecap:butt; stroke-linejoin:round; stroke-width:4; stroke-opacity:1; fill:none" points="
  219.866,633.012 238.764,633.012 
  "/>
<polyline clip-path="url(#clip050)" style="stroke:#000000; stroke-linecap:butt; stroke-linejoin:round; stroke-width:4; stroke-opacity:1; fill:none" points="
  219.866,250.808 238.764,250.808 
  "/>
<path clip-path="url(#clip050)" d="M126.691 1383.22 Q123.08 1383.22 121.251 1386.78 Q119.445 1390.32 119.445 1397.45 Q119.445 1404.56 121.251 1408.13 Q123.08 1411.67 126.691 1411.67 Q130.325 1411.67 132.13 1408.13 Q133.959 1404.56 133.959 1397.45 Q133.959 1390.32 132.13 1386.78 Q130.325 1383.22 126.691 1383.22 M126.691 1379.51 Q132.501 1379.51 135.556 1384.12 Q138.635 1388.7 138.635 1397.45 Q138.635 1406.18 135.556 1410.79 Q132.501 1415.37 126.691 1415.37 Q120.88 1415.37 117.802 1410.79 Q114.746 1406.18 114.746 1397.45 Q114.746 1388.7 117.802 1384.12 Q120.88 1379.51 126.691 1379.51 Z" fill="#000000" fill-rule="evenodd" fill-opacity="1" /><path clip-path="url(#clip050)" d="M146.853 1408.82 L151.737 1408.82 L151.737 1414.7 L146.853 1414.7 L146.853 1408.82 Z" fill="#000000" fill-rule="evenodd" fill-opacity="1" /><path clip-path="url(#clip050)" d="M171.922 1383.22 Q168.311 1383.22 166.482 1386.78 Q164.677 1390.32 164.677 1397.45 Q164.677 1404.56 166.482 1408.13 Q168.311 1411.67 171.922 1411.67 Q175.556 1411.67 177.362 1408.13 Q179.19 1404.56 179.19 1397.45 Q179.19 1390.32 177.362 1386.78 Q175.556 1383.22 171.922 1383.22 M171.922 1379.51 Q177.732 1379.51 180.788 1384.12 Q183.866 1388.7 183.866 1397.45 Q183.866 1406.18 180.788 1410.79 Q177.732 1415.37 171.922 1415.37 Q166.112 1415.37 163.033 1410.79 Q159.978 1406.18 159.978 1397.45 Q159.978 1388.7 163.033 1384.12 Q166.112 1379.51 171.922 1379.51 Z" fill="#000000" fill-rule="evenodd" fill-opacity="1" /><path clip-path="url(#clip050)" d="M128.288 1001.01 Q124.677 1001.01 122.848 1004.58 Q121.043 1008.12 121.043 1015.25 Q121.043 1022.36 122.848 1025.92 Q124.677 1029.46 128.288 1029.46 Q131.922 1029.46 133.728 1025.92 Q135.556 1022.36 135.556 1015.25 Q135.556 1008.12 133.728 1004.58 Q131.922 1001.01 128.288 1001.01 M128.288 997.311 Q134.098 997.311 137.154 1001.92 Q140.232 1006.5 140.232 1015.25 Q140.232 1023.98 137.154 1028.58 Q134.098 1033.17 128.288 1033.17 Q122.478 1033.17 119.399 1028.58 Q116.343 1023.98 116.343 1015.25 Q116.343 1006.5 119.399 1001.92 Q122.478 997.311 128.288 997.311 Z" fill="#000000" fill-rule="evenodd" fill-opacity="1" /><path clip-path="url(#clip050)" d="M148.45 1026.62 L153.334 1026.62 L153.334 1032.5 L148.45 1032.5 L148.45 1026.62 Z" fill="#000000" fill-rule="evenodd" fill-opacity="1" /><path clip-path="url(#clip050)" d="M167.547 1028.56 L183.866 1028.56 L183.866 1032.5 L161.922 1032.5 L161.922 1028.56 Q164.584 1025.81 169.167 1021.18 Q173.774 1016.52 174.954 1015.18 Q177.2 1012.66 178.079 1010.92 Q178.982 1009.16 178.982 1007.47 Q178.982 1004.72 177.038 1002.98 Q175.116 1001.25 172.014 1001.25 Q169.815 1001.25 167.362 1002.01 Q164.931 1002.77 162.153 1004.32 L162.153 999.602 Q164.977 998.468 167.431 997.889 Q169.885 997.311 171.922 997.311 Q177.292 997.311 180.487 999.996 Q183.681 1002.68 183.681 1007.17 Q183.681 1009.3 182.871 1011.22 Q182.084 1013.12 179.977 1015.71 Q179.399 1016.38 176.297 1019.6 Q173.195 1022.8 167.547 1028.56 Z" fill="#000000" fill-rule="evenodd" fill-opacity="1" /><path clip-path="url(#clip050)" d="M126.205 618.81 Q122.593 618.81 120.765 622.375 Q118.959 625.917 118.959 633.046 Q118.959 640.153 120.765 643.718 Q122.593 647.259 126.205 647.259 Q129.839 647.259 131.644 643.718 Q133.473 640.153 133.473 633.046 Q133.473 625.917 131.644 622.375 Q129.839 618.81 126.205 618.81 M126.205 615.107 Q132.015 615.107 135.07 619.713 Q138.149 624.297 138.149 633.046 Q138.149 641.773 135.07 646.38 Q132.015 650.963 126.205 650.963 Q120.394 650.963 117.316 646.38 Q114.26 641.773 114.26 633.046 Q114.26 624.297 117.316 619.713 Q120.394 615.107 126.205 615.107 Z" fill="#000000" fill-rule="evenodd" fill-opacity="1" /><path clip-path="url(#clip050)" d="M146.366 644.412 L151.251 644.412 L151.251 650.292 L146.366 650.292 L146.366 644.412 Z" fill="#000000" fill-rule="evenodd" fill-opacity="1" /><path clip-path="url(#clip050)" d="M174.283 619.806 L162.477 638.255 L174.283 638.255 L174.283 619.806 M173.056 615.732 L178.936 615.732 L178.936 638.255 L183.866 638.255 L183.866 642.144 L178.936 642.144 L178.936 650.292 L174.283 650.292 L174.283 642.144 L158.681 642.144 L158.681 637.63 L173.056 615.732 Z" fill="#000000" fill-rule="evenodd" fill-opacity="1" /><path clip-path="url(#clip050)" d="M126.529 236.607 Q122.918 236.607 121.089 240.171 Q119.283 243.713 119.283 250.843 Q119.283 257.949 121.089 261.514 Q122.918 265.055 126.529 265.055 Q130.163 265.055 131.968 261.514 Q133.797 257.949 133.797 250.843 Q133.797 243.713 131.968 240.171 Q130.163 236.607 126.529 236.607 M126.529 232.903 Q132.339 232.903 135.394 237.509 Q138.473 242.093 138.473 250.843 Q138.473 259.569 135.394 264.176 Q132.339 268.759 126.529 268.759 Q120.718 268.759 117.64 264.176 Q114.584 259.569 114.584 250.843 Q114.584 242.093 117.64 237.509 Q120.718 232.903 126.529 232.903 Z" fill="#000000" fill-rule="evenodd" fill-opacity="1" /><path clip-path="url(#clip050)" d="M146.691 262.208 L151.575 262.208 L151.575 268.088 L146.691 268.088 L146.691 262.208 Z" fill="#000000" fill-rule="evenodd" fill-opacity="1" /><path clip-path="url(#clip050)" d="M172.339 248.944 Q169.19 248.944 167.339 251.097 Q165.51 253.25 165.51 257 Q165.51 260.727 167.339 262.903 Q169.19 265.055 172.339 265.055 Q175.487 265.055 177.315 262.903 Q179.167 260.727 179.167 257 Q179.167 253.25 177.315 251.097 Q175.487 248.944 172.339 248.944 M181.621 234.292 L181.621 238.551 Q179.862 237.718 178.056 237.278 Q176.274 236.838 174.514 236.838 Q169.885 236.838 167.431 239.963 Q165.001 243.088 164.653 249.407 Q166.019 247.394 168.079 246.329 Q170.139 245.241 172.616 245.241 Q177.825 245.241 180.834 248.412 Q183.866 251.56 183.866 257 Q183.866 262.324 180.718 265.542 Q177.57 268.759 172.339 268.759 Q166.343 268.759 163.172 264.176 Q160.001 259.569 160.001 250.843 Q160.001 242.648 163.89 237.787 Q167.778 232.903 174.329 232.903 Q176.089 232.903 177.871 233.25 Q179.676 233.597 181.621 234.292 Z" fill="#000000" fill-rule="evenodd" fill-opacity="1" /><path clip-path="url(#clip050)" d="M16.4842 896.471 L16.4842 890.042 L58.5933 890.042 L58.5933 866.903 L64.0042 866.903 L64.0042 896.471 L16.4842 896.471 Z" fill="#000000" fill-rule="evenodd" fill-opacity="1" /><path clip-path="url(#clip050)" d="M32.4621 847.742 Q32.4621 852.452 36.1542 855.19 Q39.8145 857.927 46.212 857.927 Q52.6095 857.927 56.3017 855.221 Q59.9619 852.484 59.9619 847.742 Q59.9619 843.063 56.2698 840.326 Q52.5777 837.588 46.212 837.588 Q39.8781 837.588 36.186 840.326 Q32.4621 843.063 32.4621 847.742 M27.4968 847.742 Q27.4968 840.103 32.4621 835.742 Q37.4273 831.382 46.212 831.382 Q54.9649 831.382 59.9619 835.742 Q64.9272 840.103 64.9272 847.742 Q64.9272 855.412 59.9619 859.773 Q54.9649 864.102 46.212 864.102 Q37.4273 864.102 32.4621 859.773 Q27.4968 855.412 27.4968 847.742 Z" fill="#000000" fill-rule="evenodd" fill-opacity="1" /><path clip-path="url(#clip050)" d="M29.7248 796.02 L35.1993 796.02 Q33.8307 798.503 33.1623 801.017 Q32.4621 803.5 32.4621 806.046 Q32.4621 811.744 36.0905 814.895 Q39.6872 818.046 46.212 818.046 Q52.7369 818.046 56.3653 814.895 Q59.9619 811.744 59.9619 806.046 Q59.9619 803.5 59.2935 801.017 Q58.5933 798.503 57.2247 796.02 L62.6355 796.02 Q63.7814 798.471 64.3543 801.113 Q64.9272 803.723 64.9272 806.683 Q64.9272 814.736 59.8664 819.478 Q54.8057 824.22 46.212 824.22 Q37.491 824.22 32.4939 819.446 Q27.4968 814.64 27.4968 806.301 Q27.4968 803.596 28.0697 801.017 Q28.6108 798.439 29.7248 796.02 Z" fill="#000000" fill-rule="evenodd" fill-opacity="1" /><path clip-path="url(#clip050)" d="M46.0847 769.635 Q46.0847 776.732 47.7079 779.47 Q49.3312 782.207 53.2461 782.207 Q56.3653 782.207 58.2114 780.17 Q60.0256 778.101 60.0256 774.568 Q60.0256 769.698 56.5881 766.77 Q53.1188 763.81 47.3897 763.81 L46.0847 763.81 L46.0847 769.635 M43.6657 757.953 L64.0042 757.953 L64.0042 763.81 L58.5933 763.81 Q61.8398 765.815 63.3994 768.807 Q64.9272 771.799 64.9272 776.128 Q64.9272 781.602 61.8716 784.849 Q58.7843 788.063 53.6281 788.063 Q47.6125 788.063 44.5569 784.053 Q41.5014 780.011 41.5014 772.022 L41.5014 763.81 L40.9285 763.81 Q36.8862 763.81 34.6901 766.484 Q32.4621 769.125 32.4621 773.931 Q32.4621 776.987 33.1941 779.883 Q33.9262 782.78 35.3903 785.453 L29.9795 785.453 Q28.7381 782.239 28.1334 779.215 Q27.4968 776.191 27.4968 773.327 Q27.4968 765.592 31.5072 761.773 Q35.5176 757.953 43.6657 757.953 Z" fill="#000000" fill-rule="evenodd" fill-opacity="1" /><path clip-path="url(#clip050)" d="M14.479 745.89 L14.479 740.034 L64.0042 740.034 L64.0042 745.89 L14.479 745.89 Z" fill="#000000" fill-rule="evenodd" fill-opacity="1" /><path clip-path="url(#clip050)" d="M21.7677 700.376 L58.7206 700.376 L58.7206 692.609 Q58.7206 682.774 54.2646 678.223 Q49.8086 673.64 40.1964 673.64 Q30.6479 673.64 26.2237 678.223 Q21.7677 682.774 21.7677 692.609 L21.7677 700.376 M16.4842 706.805 L16.4842 693.596 Q16.4842 679.783 22.2451 673.321 Q27.9743 666.86 40.1964 666.86 Q52.4822 666.86 58.2432 673.353 Q64.0042 679.846 64.0042 693.596 L64.0042 706.805 L16.4842 706.805 Z" fill="#000000" fill-rule="evenodd" fill-opacity="1" /><path clip-path="url(#clip050)" d="M20.8447 637.323 Q20.8447 644.326 26.0645 648.463 Q31.2844 652.569 40.2919 652.569 Q49.2675 652.569 54.4874 648.463 Q59.7073 644.326 59.7073 637.323 Q59.7073 630.321 54.4874 626.247 Q49.2675 622.141 40.2919 622.141 Q31.2844 622.141 26.0645 626.247 Q20.8447 630.321 20.8447 637.323 M15.6248 637.323 Q15.6248 627.329 22.3406 621.345 Q29.0246 615.362 40.2919 615.362 Q51.5274 615.362 58.2432 621.345 Q64.9272 627.329 64.9272 637.323 Q64.9272 647.349 58.2432 653.365 Q51.5592 659.349 40.2919 659.349 Q29.0246 659.349 22.3406 653.365 Q15.6248 647.349 15.6248 637.323 Z" fill="#000000" fill-rule="evenodd" fill-opacity="1" /><path clip-path="url(#clip050)" d="M18.0438 576.817 L24.314 576.817 Q22.5634 580.478 21.704 583.724 Q20.8447 586.971 20.8447 589.994 Q20.8447 595.246 22.8817 598.111 Q24.9187 600.943 28.6745 600.943 Q31.8255 600.943 33.4488 599.065 Q35.0402 597.156 36.0269 591.872 L36.8226 587.989 Q38.1912 580.796 41.6605 577.39 Q45.098 573.953 50.8908 573.953 Q57.7976 573.953 61.3624 578.6 Q64.9272 583.215 64.9272 592.159 Q64.9272 595.532 64.1633 599.352 Q63.3994 603.139 61.9035 607.214 L55.2831 607.214 Q57.4793 603.299 58.5933 599.543 Q59.7073 595.787 59.7073 592.159 Q59.7073 586.652 57.543 583.66 Q55.3786 580.669 51.3682 580.669 Q47.8671 580.669 45.8937 582.833 Q43.9204 584.965 42.9337 589.867 L42.1698 593.782 Q40.7375 600.975 37.682 604.19 Q34.6264 607.404 29.1837 607.404 Q22.8817 607.404 19.2532 602.98 Q15.6248 598.524 15.6248 590.726 Q15.6248 587.384 16.2295 583.915 Q16.8343 580.446 18.0438 576.817 Z" fill="#000000" fill-rule="evenodd" fill-opacity="1" /><polyline clip-path="url(#clip052)" style="stroke:#009af9; stroke-linecap:butt; stroke-linejoin:round; stroke-width:4; stroke-opacity:1; fill:none" points="
  280.231,1384.24 282.245,1383.85 284.259,1383.42 286.274,1382.96 288.288,1382.45 290.302,1381.9 292.316,1381.3 294.33,1380.66 296.344,1379.96 298.359,1379.19 
  300.373,1378.37 302.387,1377.47 304.401,1376.48 306.415,1375.41 308.43,1374.23 310.444,1372.94 312.458,1371.51 314.472,1369.93 316.486,1368.18 318.5,1366.23 
  320.515,1364.05 322.529,1361.62 324.543,1358.87 326.557,1355.78 328.571,1352.26 330.585,1348.24 332.6,1343.62 334.614,1338.26 336.628,1332.01 338.642,1324.67 
  340.656,1316.01 342.67,1305.72 344.685,1293.43 346.699,1278.66 348.713,1260.86 350.727,1239.4 352.741,1213.65 354.756,1183.11 356.77,1147.8 358.784,1108.81 
  360.798,1069.08 362.812,1033.84 364.826,1009.97 366.841,1003.4 368.855,1015.87 370.869,1043.85 372.883,1080.66 374.897,1119.82 376.911,1156.91 378.926,1189.73 
  380.94,1217.67 382.954,1240.94 384.968,1260.12 386.982,1275.84 388.996,1288.69 391.011,1299.17 393.025,1307.67 395.039,1314.51 397.053,1319.93 399.067,1324.12 
  401.082,1327.2 403.096,1329.26 405.11,1330.34 407.124,1330.45 409.138,1329.55 411.152,1327.62 413.167,1324.62 415.181,1320.6 417.195,1315.73 419.209,1310.43 
  421.223,1305.46 423.237,1301.88 425.252,1300.74 427.266,1302.56 429.28,1306.99 431.294,1313.08 433.308,1319.7 435.322,1326.04 437.337,1331.64 439.351,1336.34 
  441.365,1340.16 443.379,1343.16 445.393,1345.46 447.408,1347.14 449.422,1348.3 451.436,1349 453.45,1349.29 455.464,1349.21 457.478,1348.78 459.493,1348.02 
  461.507,1346.92 463.521,1345.48 465.535,1343.69 467.549,1341.52 469.563,1338.93 471.578,1335.9 473.592,1332.38 475.606,1328.31 477.62,1323.64 479.634,1318.3 
  481.648,1312.21 483.663,1305.26 485.677,1297.3 487.691,1288.08 489.705,1277.27 491.719,1264.46 493.734,1249.15 495.748,1230.76 497.762,1208.56 499.776,1181.7 
  501.79,1149.17 503.804,1109.87 505.819,1062.81 507.833,1007.49 509.847,944.701 511.861,877.641 513.875,813.172 515.889,761.864 517.904,735.277 519.918,740.558 
  521.932,776.14 523.946,832.737 525.96,898.606 527.974,964.288 529.989,1024.25 532.003,1076.24 534.017,1120.06 536.031,1156.43 538.045,1186.44 540.06,1211.17 
  542.074,1231.57 544.088,1248.4 546.102,1262.29 548.116,1273.73 550.13,1283.09 552.145,1290.68 554.159,1296.73 556.173,1301.38 558.187,1304.74 560.201,1306.88 
  562.215,1307.83 564.23,1307.6 566.244,1306.21 568.258,1303.8 570.272,1300.63 572.286,1297.24 574.301,1294.46 576.315,1293.23 578.329,1294.25 580.343,1297.53 
  582.357,1302.43 584.371,1308.01 586.386,1313.47 588.4,1318.28 590.414,1322.23 592.428,1325.27 594.442,1327.44 596.456,1328.8 598.471,1329.43 600.485,1329.36 
  602.499,1328.61 604.513,1327.15 606.527,1324.96 608.541,1321.96 610.556,1318.06 612.57,1313.13 614.584,1306.99 616.598,1299.42 618.612,1290.13 620.627,1278.78 
  622.641,1264.98 624.655,1248.35 626.669,1228.61 628.683,1205.82 630.697,1180.75 632.712,1155.3 634.726,1132.74 636.74,1117.1 638.754,1111.53 640.768,1116.39 
  642.782,1129.02 644.797,1145.15 646.811,1160.89 648.825,1173.56 650.839,1181.69 652.853,1184.6 654.867,1182.01 656.882,1173.82 658.896,1160.12 660.91,1141.45 
  662.924,1119.19 664.938,1096.15 666.953,1076.73 668.967,1066.06 670.981,1067.91 672.995,1082.54 675.009,1106.62 677.023,1135.22 679.038,1164.03 681.052,1190.35 
  683.066,1212.95 685.08,1231.62 687.094,1246.7 689.108,1258.75 691.123,1268.45 693.137,1276.51 695.151,1283.62 697.165,1290.3 699.179,1296.78 701.193,1303.01 
  703.208,1308.78 705.222,1313.89 707.236,1318.24 709.25,1321.8 711.264,1324.62 713.279,1326.75 715.293,1328.25 717.307,1329.19 719.321,1329.6 721.335,1329.5 
  723.349,1328.92 725.364,1327.87 727.378,1326.33 729.392,1324.32 731.406,1321.8 733.42,1318.74 735.434,1315.08 737.449,1310.71 739.463,1305.51 741.477,1299.31 
  743.491,1291.91 745.505,1283.08 747.519,1272.52 749.534,1259.87 751.548,1244.66 753.562,1226.33 755.576,1204.2 757.59,1177.47 759.605,1145.33 761.619,1107.08 
  763.633,1062.54 765.647,1012.66 767.661,960.402 769.675,911.343 771.69,873.059 773.704,852.347 775.718,851.47 777.732,866.649 779.746,890.51 781.76,916.25 
  783.775,940.409 785.789,963.285 787.803,987.508 789.817,1015.63 791.831,1048.16 793.845,1083.26 795.86,1118.12 797.874,1150.42 799.888,1178.84 801.902,1203.02 
  803.916,1223.14 805.931,1239.64 807.945,1253.04 809.959,1263.81 811.973,1272.39 813.987,1279.13 816.001,1284.33 818.016,1288.16 820.03,1290.78 822.044,1292.31 
  824.058,1292.97 826.072,1293.1 828.086,1293.23 830.101,1293.99 832.115,1295.89 834.129,1299.09 836.143,1303.27 838.157,1307.86 840.171,1312.31 842.186,1316.26 
  844.2,1319.54 846.214,1322.11 848.228,1324.01 850.242,1325.27 852.257,1325.97 854.271,1326.15 856.285,1325.84 858.299,1325.06 860.313,1323.82 862.327,1322.12 
  864.342,1319.95 866.356,1317.26 868.37,1314.03 870.384,1310.19 872.398,1305.68 874.412,1300.41 876.427,1294.25 878.441,1287.06 880.455,1278.64 882.469,1268.77 
  884.483,1257.14 886.498,1243.41 888.512,1227.11 890.526,1207.68 892.54,1184.46 894.554,1156.62 896.568,1123.27 898.583,1083.46 900.597,1036.43 902.611,981.836 
  904.625,920.198 906.639,853.456 908.653,785.564 910.668,722.702 912.682,672.147 914.696,639.592 916.71,627.05 918.724,633.713 920.738,658.455 922.753,700.33 
  924.767,756.644 926.781,821.853 928.795,889.106 930.809,952.697 932.824,1009.29 934.838,1057.72 936.852,1098.21 938.866,1131.69 940.88,1159.27 942.894,1182.04 
  944.909,1200.85 946.923,1216.35 948.937,1229.03 950.951,1239.21 952.965,1247.14 954.979,1253.01 956.994,1257.04 959.008,1259.53 961.022,1260.9 963.036,1261.73 
  965.05,1262.62 967.064,1264.22 969.079,1267.04 971.093,1271.3 973.107,1276.79 975.121,1282.92 977.135,1289.02 979.15,1294.56 981.164,1299.27 983.178,1303.05 
  985.192,1305.91 987.206,1307.9 989.22,1309.1 991.235,1309.54 993.249,1309.28 995.263,1308.35 997.277,1306.75 999.291,1304.5 1001.31,1301.6 1003.32,1298.06 
  1005.33,1293.83 1007.35,1288.81 1009.36,1282.85 1011.38,1275.7 1013.39,1267.09 1015.4,1256.69 1017.42,1244.15 1019.43,1229 1021.45,1210.74 1023.46,1188.79 
  1025.48,1162.6 1027.49,1131.78 1029.5,1096.36 1031.52,1057.19 1033.53,1016.14 1035.55,975.983 1037.56,939.668 1039.57,909.565 1041.59,887.134 1043.6,872.68 
  1045.62,864.776 1047.63,860.273 1049.65,855.865 1051.66,850.391 1053.67,846.234 1055.69,848.708 1057.7,863.27 1059.72,892.018 1061.73,932.27 1063.74,978.355 
  1065.76,1024.64 1067.77,1067.33 1069.79,1104.71 1071.8,1136.43 1073.82,1162.83 1075.83,1184.5 1077.84,1202.07 1079.86,1216.12 1081.87,1227.21 1083.89,1235.81 
  1085.9,1242.36 1087.91,1247.27 1089.93,1250.9 1091.94,1253.55 1093.96,1255.48 1095.97,1256.88 1097.99,1257.85 1100,1258.32 1102.01,1258.1 1104.03,1256.95 
  1106.04,1254.7 1108.06,1251.19 1110.07,1246.28 1112.09,1239.83 1114.1,1231.69 1116.11,1221.63 1118.13,1209.36 1120.14,1194.52 1122.16,1176.62 1124.17,1155.05 
  1126.18,1129.06 1128.2,1097.72 1130.21,1059.95 1132.23,1014.56 1134.24,960.458 1136.26,897.056 1138.27,824.953 1140.28,746.938 1142.3,668.806 1144.31,598.935 
  1146.33,545.76 1148.34,514.15 1150.35,503.714 1152.37,510.24 1154.38,527.955 1156.4,550.573 1158.41,571.826 1160.43,586.617 1162.44,592.379 1164.45,589.573 
  1166.47,581.048 1168.48,571.03 1170.5,564.466 1172.51,566.321 1174.52,580.215 1176.54,607.418 1178.55,647.342 1180.57,698.352 1182.58,757.603 1184.6,820.875 
  1186.61,883.635 1188.62,942.489 1190.64,995.751 1192.65,1043 1194.67,1084.37 1196.68,1120.23 1198.69,1151.03 1200.71,1177.31 1202.72,1199.67 1204.74,1218.72 
  1206.75,1234.97 1208.77,1248.91 1210.78,1260.92 1212.79,1271.32 1214.81,1280.38 1216.82,1288.31 1218.84,1295.28 1220.85,1301.44 1222.86,1306.9 1224.88,1311.76 
  1226.89,1316.11 1228.91,1320 1230.92,1323.5 1232.94,1326.65 1234.95,1329.5 1236.96,1332.07 1238.98,1334.39 1240.99,1336.5 1243.01,1338.41 1245.02,1340.14 
  1247.03,1341.71 1249.05,1343.14 1251.06,1344.42 1253.08,1345.58 1255.09,1346.63 1257.11,1347.57 1259.12,1348.4 1261.13,1349.15 1263.15,1349.8 1265.16,1350.37 
  1267.18,1350.86 1269.19,1351.27 1271.2,1351.61 1273.22,1351.88 1275.23,1352.08 1277.25,1352.21 1279.26,1352.27 1281.28,1352.27 1283.29,1352.2 1285.3,1352.06 
  1287.32,1351.86 1289.33,1351.59 1291.35,1351.24 1293.36,1350.83 1295.37,1350.35 1297.39,1349.79 1299.4,1349.15 1301.42,1348.43 1303.43,1347.62 1305.45,1346.72 
  1307.46,1345.72 1309.47,1344.61 1311.49,1343.4 1313.5,1342.07 1315.52,1340.6 1317.53,1339 1319.54,1337.25 1321.56,1335.33 1323.57,1333.23 1325.59,1330.92 
  1327.6,1328.4 1329.62,1325.63 1331.63,1322.59 1333.64,1319.24 1335.66,1315.55 1337.67,1311.48 1339.69,1306.97 1341.7,1301.96 1343.72,1296.39 1345.73,1290.18 
  1347.74,1283.21 1349.76,1275.38 1351.77,1266.55 1353.79,1256.53 1355.8,1245.12 1357.81,1232.06 1359.83,1217.05 1361.84,1199.67 1363.86,1179.46 1365.87,1155.81 
  1367.89,1127.98 1369.9,1095.08 1371.91,1056.01 1373.93,1009.51 1375.94,954.205 1377.96,888.647 1379.97,811.52 1381.98,721.892 1384,619.8 1386.01,507.388 
  1388.03,390.368 1390.04,278.609 1392.06,184.281 1394.07,117.992 1396.08,86.1857 1398.1,91.685 1400.11,134.383 1402.13,209.547 1404.14,306.808 1406.15,413.012 
  1408.17,516.673 1410.18,610.404 1412.2,690.951 1414.21,758.196 1416.23,813.996 1418.24,861.038 1420.25,901.831 1422.27,938.128 1424.28,970.981 1426.3,1001.12 
  1428.31,1029.15 1430.32,1055.57 1432.34,1080.6 1434.35,1104.19 1436.37,1125.93 1438.38,1145.32 1440.4,1161.95 1442.41,1175.64 1444.42,1186.42 1446.44,1194.41 
  1448.45,1199.79 1450.47,1202.73 1452.48,1203.44 1454.49,1202.18 1456.51,1199.36 1458.52,1195.47 1460.54,1190.97 1462.55,1186.04 1464.57,1180.34 1466.58,1173.12 
  1468.59,1163.48 1470.61,1150.59 1472.62,1133.87 1474.64,1113.03 1476.65,1088.3 1478.66,1060.65 1480.68,1031.88 1482.69,1004.19 1484.71,979.018 1486.72,955.865 
  1488.74,932.179 1490.75,904.592 1492.76,870.495 1494.78,829.049 1496.79,781.422 1498.81,730.326 1500.82,679.12 1502.83,631.111 1504.85,589.75 1506.86,559.709 
  1508.88,547.472 1510.89,559.412 1512.91,597.721 1514.92,657.972 1516.93,731.033 1518.95,807.26 1520.96,879.512 1522.98,943.923 1524.99,999.277 1527,1045.99 
  1529.02,1085.22 1531.03,1118.28 1533.05,1146.27 1535.06,1170.07 1537.08,1190.31 1539.09,1207.51 1541.1,1222.08 1543.12,1234.35 1545.13,1244.59 1547.15,1253.05 
  1549.16,1259.94 1551.17,1265.42 1553.19,1269.61 1555.2,1272.63 1557.22,1274.54 1559.23,1275.45 1561.25,1275.5 1563.26,1274.9 1565.27,1273.94 1567.29,1272.91 
  1569.3,1271.95 1571.32,1270.98 1573.33,1269.68 1575.35,1267.65 1577.36,1264.55 1579.37,1260.07 1581.39,1253.96 1583.4,1245.94 1585.42,1235.72 1587.43,1222.9 
  1589.44,1207 1591.46,1187.43 1593.47,1163.51 1595.49,1134.55 1597.5,1099.98 1599.52,1059.69 1601.53,1014.55 1603.54,967.096 1605.56,921.905 1607.57,884.998 
  1609.59,861.46 1611.6,852.449 1613.61,854.267 1615.63,860.667 1617.64,866.425 1619.66,869.629 1621.67,871.906 1623.69,876.955 1625.7,888.277 1627.71,907.59 
  1629.73,934.811 1631.74,968.715 1633.76,1007.16 1635.77,1047.25 1637.78,1086.04 1639.8,1121.37 1641.81,1152.14 1643.83,1178.19 1645.84,1199.93 1647.86,1218.04 
  1649.87,1233.25 1651.88,1246.21 1653.9,1257.39 1655.91,1267.07 1657.93,1275.49 1659.94,1282.82 1661.95,1289.21 1663.97,1294.77 1665.98,1299.56 1668,1303.65 
  1670.01,1307.08 1672.03,1309.86 1674.04,1312 1676.05,1313.51 1678.07,1314.38 1680.08,1314.62 1682.1,1314.2 1684.11,1313.09 1686.12,1311.27 1688.14,1308.69 
  1690.15,1305.36 1692.17,1301.38 1694.18,1296.98 1696.2,1292.61 1698.21,1288.84 1700.22,1286.16 1702.24,1284.7 1704.25,1284.1 1706.27,1283.73 1708.28,1282.96 
  1710.29,1281.29 1712.31,1278.43 1714.32,1274.17 1716.34,1268.36 1718.35,1260.82 1720.37,1251.36 1722.38,1239.67 1724.39,1225.38 1726.41,1208 1728.42,1186.9 
  1730.44,1161.32 1732.45,1130.33 1734.46,1092.91 1736.48,1048.09 1738.49,995.226 1740.51,934.594 1742.52,868.155 1744.54,800.205 1746.55,737.088 1748.56,685.334 
  1750.58,649.252 1752.59,630.448 1754.61,629.77 1756.62,648.641 1758.63,687.396 1760.65,742.789 1762.66,808.204 1764.68,876.377 1766.69,941.751 1768.71,1001.08 
  1770.72,1052.97 1772.73,1097.27 1774.75,1134.51 1776.76,1165.58 1778.78,1191.42 1780.79,1212.93 1782.81,1230.89 1784.82,1245.96 1786.83,1258.65 1788.85,1269.37 
  1790.86,1278.42 1792.88,1286.09 1794.89,1292.63 1796.9,1298.28 1798.92,1303.27 1800.93,1307.73 1802.95,1311.74 1804.96,1315.29 1806.98,1318.35 1808.99,1320.91 
  1811,1322.96 1813.02,1324.49 1815.03,1325.53 1817.05,1326.06 1819.06,1326.08 1821.07,1325.55 1823.09,1324.43 1825.1,1322.68 1827.12,1320.25 1829.13,1317.11 
  1831.15,1313.31 1833.16,1309.02 1835.17,1304.62 1837.19,1300.67 1839.2,1297.78 1841.22,1296.29 1843.23,1296.07 1845.24,1296.53 1847.26,1296.98 1849.27,1296.82 
  1851.29,1295.65 1853.3,1293.26 1855.32,1289.46 1857.33,1284.13 1859.34,1277.08 1861.36,1268.1 1863.37,1256.88 1865.39,1243.05 1867.4,1226.17 1869.41,1205.78 
  1871.43,1181.46 1873.44,1153.06 1875.46,1120.9 1877.47,1086.17 1879.49,1051.07 1881.5,1018.38 1883.51,990.173 1885.53,966.359 1887.54,944.531 1889.56,921.714 
  1891.57,896.792 1893.58,872.227 1895.6,854.146 1897.61,850.192 1899.63,865.512 1901.64,899.529 1903.66,946.378 1905.67,998.384 1907.68,1049.3 1909.7,1095.48 
  1911.71,1135.5 1913.73,1169.31 1915.74,1197.49 1917.75,1220.86 1919.77,1240.21 1921.78,1256.28 1923.8,1269.65 1925.81,1280.81 1927.83,1290.17 1929.84,1298.03 
  1931.85,1304.66 1933.87,1310.25 1935.88,1314.98 1937.9,1318.96 1939.91,1322.29 1941.92,1325.02 1943.94,1327.22 1945.95,1328.91 1947.97,1330.13 1949.98,1330.9 
  1952,1331.21 1954.01,1331.05 1956.02,1330.42 1958.04,1329.27 1960.05,1327.57 1962.07,1325.26 1964.08,1322.27 1966.09,1318.58 1968.11,1314.15 1970.12,1309.06 
  1972.14,1303.43 1974.15,1297.46 1976.17,1291.25 1978.18,1284.66 1980.19,1277.24 1982.21,1268.35 1984.22,1257.29 1986.24,1243.39 1988.25,1226.07 1990.26,1204.93 
  1992.28,1179.92 1994.29,1151.74 1996.31,1122.37 1998.32,1095.42 2000.34,1075.77 2002.35,1067.77 2004.36,1072.9 2006.38,1088.78 2008.39,1110.58 2010.41,1133.4 
  2012.42,1153.7 2014.44,1169.53 2016.45,1180.05 2018.46,1185 2020.48,1184.4 2022.49,1178.42 2024.51,1167.51 2026.52,1152.69 2028.53,1135.99 2030.55,1120.78 
  2032.56,1111.35 2034.58,1111.43 2036.59,1122.23 2038.61,1141.79 2040.62,1166.24 2042.63,1191.74 2044.65,1215.69 2046.66,1236.82 2048.68,1254.8 2050.69,1269.81 
  2052.7,1282.24 2054.72,1292.54 2056.73,1301.09 2058.75,1308.16 2060.76,1313.97 2062.78,1318.68 2064.79,1322.41 2066.8,1325.27 2068.82,1327.33 2070.83,1328.63 
  2072.85,1329.2 2074.86,1329.03 2076.87,1328.11 2078.89,1326.38 2080.9,1323.77 2082.92,1320.26 2084.93,1315.83 2086.95,1310.63 2088.96,1305.02 2090.97,1299.65 
  2092.99,1295.44 2095,1293.26 2097.02,1293.48 2099.03,1295.71 2101.04,1299.07 2103.06,1302.6 2105.07,1305.59 2107.09,1307.62 2109.1,1308.54 2111.12,1308.28 
  2113.13,1306.85 2115.14,1304.22 2117.16,1300.38 2119.17,1295.23 2121.19,1288.65 2123.2,1280.47 2125.21,1270.43 2127.23,1258.19 2129.24,1243.32 2131.26,1225.26 
  2133.27,1203.31 2135.29,1176.62 2137.3,1144.17 2139.31,1104.88 2141.33,1057.78 2143.34,1002.4 2145.36,939.632 2147.37,872.841 2149.38,809.103 2151.4,759.144 
  2153.41,734.452 2155.43,741.814 2157.44,779.198 2159.46,837.045 2161.47,903.632 2163.48,969.676 2165.5,1029.83 2167.51,1081.99 2169.53,1125.99 2171.54,1162.57 
  2173.55,1192.82 2175.57,1217.8 2177.58,1238.47 2179.6,1255.62 2181.61,1269.94 2183.63,1281.96 2185.64,1292.14 2187.65,1300.86 2189.67,1308.39 2191.68,1314.95 
  2193.7,1320.66 2195.71,1325.62 2197.72,1329.91 2199.74,1333.6 2201.75,1336.76 2203.77,1339.48 2205.78,1341.82 2207.8,1343.82 2209.81,1345.51 2211.82,1346.9 
  2213.84,1347.98 2215.85,1348.72 2217.87,1349.13 2219.88,1349.17 2221.9,1348.82 2223.91,1348.04 2225.92,1346.78 2227.94,1344.97 2229.95,1342.51 2231.97,1339.31 
  2233.98,1335.28 2235.99,1330.36 2238.01,1324.57 2240.02,1318.18 2242.04,1311.74 2244.05,1306.22 2246.07,1302.72 2248.08,1302.05 2250.09,1304.26 2252.11,1308.57 
  2254.12,1313.83 2256.14,1319.05 2258.15,1323.59 2260.16,1327.16 2262.18,1329.67 2264.19,1331.12 2266.21,1331.57 2268.22,1331.05 2270.24,1329.59 2272.25,1327.16 
  2274.26,1323.72 2276.28,1319.16 2278.29,1313.33 2280.31,1306.03 2282.32,1297 2284.33,1285.87 2286.35,1272.2 2288.36,1255.46 2290.38,1235.04 2292.39,1210.29 
  
  "/>
<path clip-path="url(#clip050)" d="
M1992.24 196.789 L2281.66 196.789 L2281.66 93.1086 L1992.24 93.1086  Z
  " fill="#ffffff" fill-rule="evenodd" fill-opacity="1"/>
<polyline clip-path="url(#clip050)" style="stroke:#000000; stroke-linecap:butt; stroke-linejoin:round; stroke-width:4; stroke-opacity:1; fill:none" points="
  1992.24,196.789 2281.66,196.789 2281.66,93.1086 1992.24,93.1086 1992.24,196.789 
  "/>
<polyline clip-path="url(#clip050)" style="stroke:#009af9; stroke-linecap:butt; stroke-linejoin:round; stroke-width:4; stroke-opacity:1; fill:none" points="
  2015.94,144.949 2158.13,144.949 
  "/>
<path clip-path="url(#clip050)" d="M2195.67 164.636 Q2193.87 169.266 2192.16 170.678 Q2190.44 172.09 2187.57 172.09 L2184.17 172.09 L2184.17 168.525 L2186.67 168.525 Q2188.43 168.525 2189.4 167.692 Q2190.37 166.858 2191.55 163.756 L2192.32 161.812 L2181.83 136.303 L2186.35 136.303 L2194.45 156.581 L2202.55 136.303 L2207.06 136.303 L2195.67 164.636 Z" fill="#000000" fill-rule="evenodd" fill-opacity="1" /><path clip-path="url(#clip050)" d="M2214.35 158.293 L2221.99 158.293 L2221.99 131.928 L2213.68 133.595 L2213.68 129.335 L2221.95 127.669 L2226.62 127.669 L2226.62 158.293 L2234.26 158.293 L2234.26 162.229 L2214.35 162.229 L2214.35 158.293 Z" fill="#000000" fill-rule="evenodd" fill-opacity="1" /></svg>
