<?xml version="1.0" encoding="utf-8"?>
<svg xmlns="http://www.w3.org/2000/svg" xmlns:xlink="http://www.w3.org/1999/xlink" width="600" height="400" viewBox="0 0 2400 1600">
<defs>
  <clipPath id="clip440">
    <rect x="0" y="0" width="2400" height="1600"/>
  </clipPath>
</defs>
<path clip-path="url(#clip440)" d="
M0 1600 L2400 1600 L2400 0 L0 0  Z
  " fill="#ffffff" fill-rule="evenodd" fill-opacity="1"/>
<defs>
  <clipPath id="clip441">
    <rect x="480" y="0" width="1681" height="1600"/>
  </clipPath>
</defs>
<path clip-path="url(#clip440)" d="
M249.542 1423.18 L2352.76 1423.18 L2352.76 47.2441 L249.542 47.2441  Z
  " fill="#ffffff" fill-rule="evenodd" fill-opacity="1"/>
<defs>
  <clipPath id="clip442">
    <rect x="249" y="47" width="2104" height="1377"/>
  </clipPath>
</defs>
<polyline clip-path="url(#clip442)" style="stroke:#000000; stroke-linecap:butt; stroke-linejoin:round; stroke-width:2; stroke-opacity:0.1; fill:none" points="
  309.067,1423.18 309.067,47.2441 
  "/>
<polyline clip-path="url(#clip442)" style="stroke:#000000; stroke-linecap:butt; stroke-linejoin:round; stroke-width:2; stroke-opacity:0.1; fill:none" points="
  805.108,1423.18 805.108,47.2441 
  "/>
<polyline clip-path="url(#clip442)" style="stroke:#000000; stroke-linecap:butt; stroke-linejoin:round; stroke-width:2; stroke-opacity:0.1; fill:none" points="
  1301.15,1423.18 1301.15,47.2441 
  "/>
<polyline clip-path="url(#clip442)" style="stroke:#000000; stroke-linecap:butt; stroke-linejoin:round; stroke-width:2; stroke-opacity:0.1; fill:none" points="
  1797.19,1423.18 1797.19,47.2441 
  "/>
<polyline clip-path="url(#clip442)" style="stroke:#000000; stroke-linecap:butt; stroke-linejoin:round; stroke-width:2; stroke-opacity:0.1; fill:none" points="
  2293.23,1423.18 2293.23,47.2441 
  "/>
<polyline clip-path="url(#clip440)" style="stroke:#000000; stroke-linecap:butt; stroke-linejoin:round; stroke-width:4; stroke-opacity:1; fill:none" points="
  249.542,1423.18 2352.76,1423.18 
  "/>
<polyline clip-path="url(#clip440)" style="stroke:#000000; stroke-linecap:butt; stroke-linejoin:round; stroke-width:4; stroke-opacity:1; fill:none" points="
  309.067,1423.18 309.067,1404.28 
  "/>
<polyline clip-path="url(#clip440)" style="stroke:#000000; stroke-linecap:butt; stroke-linejoin:round; stroke-width:4; stroke-opacity:1; fill:none" points="
  805.108,1423.18 805.108,1404.28 
  "/>
<polyline clip-path="url(#clip440)" style="stroke:#000000; stroke-linecap:butt; stroke-linejoin:round; stroke-width:4; stroke-opacity:1; fill:none" points="
  1301.15,1423.18 1301.15,1404.28 
  "/>
<polyline clip-path="url(#clip440)" style="stroke:#000000; stroke-linecap:butt; stroke-linejoin:round; stroke-width:4; stroke-opacity:1; fill:none" points="
  1797.19,1423.18 1797.19,1404.28 
  "/>
<polyline clip-path="url(#clip440)" style="stroke:#000000; stroke-linecap:butt; stroke-linejoin:round; stroke-width:4; stroke-opacity:1; fill:none" points="
  2293.23,1423.18 2293.23,1404.28 
  "/>
<path clip-path="url(#clip440)" d="M277.968 1468.75 L307.643 1468.75 L307.643 1472.69 L277.968 1472.69 L277.968 1468.75 Z" fill="#000000" fill-rule="evenodd" fill-opacity="1" /><path clip-path="url(#clip440)" d="M330.583 1455.09 L318.778 1473.54 L330.583 1473.54 L330.583 1455.09 M329.356 1451.02 L335.236 1451.02 L335.236 1473.54 L340.166 1473.54 L340.166 1477.43 L335.236 1477.43 L335.236 1485.58 L330.583 1485.58 L330.583 1477.43 L314.981 1477.43 L314.981 1472.92 L329.356 1451.02 Z" fill="#000000" fill-rule="evenodd" fill-opacity="1" /><path clip-path="url(#clip440)" d="M775.05 1468.75 L804.726 1468.75 L804.726 1472.69 L775.05 1472.69 L775.05 1468.75 Z" fill="#000000" fill-rule="evenodd" fill-opacity="1" /><path clip-path="url(#clip440)" d="M818.846 1481.64 L835.166 1481.64 L835.166 1485.58 L813.221 1485.58 L813.221 1481.64 Q815.883 1478.89 820.467 1474.26 Q825.073 1469.61 826.254 1468.27 Q828.499 1465.74 829.379 1464.01 Q830.281 1462.25 830.281 1460.56 Q830.281 1457.8 828.337 1456.07 Q826.416 1454.33 823.314 1454.33 Q821.115 1454.33 818.661 1455.09 Q816.231 1455.86 813.453 1457.41 L813.453 1452.69 Q816.277 1451.55 818.731 1450.97 Q821.184 1450.39 823.221 1450.39 Q828.592 1450.39 831.786 1453.08 Q834.98 1455.77 834.98 1460.26 Q834.98 1462.39 834.17 1464.31 Q833.383 1466.2 831.277 1468.8 Q830.698 1469.47 827.596 1472.69 Q824.494 1475.88 818.846 1481.64 Z" fill="#000000" fill-rule="evenodd" fill-opacity="1" /><path clip-path="url(#clip440)" d="M1301.15 1454.1 Q1297.54 1454.1 1295.71 1457.66 Q1293.9 1461.2 1293.9 1468.33 Q1293.9 1475.44 1295.71 1479.01 Q1297.54 1482.55 1301.15 1482.55 Q1304.78 1482.55 1306.59 1479.01 Q1308.42 1475.44 1308.42 1468.33 Q1308.42 1461.2 1306.59 1457.66 Q1304.78 1454.1 1301.15 1454.1 M1301.15 1450.39 Q1306.96 1450.39 1310.01 1455 Q1313.09 1459.58 1313.09 1468.33 Q1313.09 1477.06 1310.01 1481.67 Q1306.96 1486.25 1301.15 1486.25 Q1295.34 1486.25 1292.26 1481.67 Q1289.2 1477.06 1289.2 1468.33 Q1289.2 1459.58 1292.26 1455 Q1295.34 1450.39 1301.15 1450.39 Z" fill="#000000" fill-rule="evenodd" fill-opacity="1" /><path clip-path="url(#clip440)" d="M1791.84 1481.64 L1808.16 1481.64 L1808.16 1485.58 L1786.22 1485.58 L1786.22 1481.64 Q1788.88 1478.89 1793.46 1474.26 Q1798.07 1469.61 1799.25 1468.27 Q1801.5 1465.74 1802.38 1464.01 Q1803.28 1462.25 1803.28 1460.56 Q1803.28 1457.8 1801.33 1456.07 Q1799.41 1454.33 1796.31 1454.33 Q1794.11 1454.33 1791.66 1455.09 Q1789.23 1455.86 1786.45 1457.41 L1786.45 1452.69 Q1789.27 1451.55 1791.73 1450.97 Q1794.18 1450.39 1796.22 1450.39 Q1801.59 1450.39 1804.78 1453.08 Q1807.98 1455.77 1807.98 1460.26 Q1807.98 1462.39 1807.17 1464.31 Q1806.38 1466.2 1804.27 1468.8 Q1803.69 1469.47 1800.59 1472.69 Q1797.49 1475.88 1791.84 1481.64 Z" fill="#000000" fill-rule="evenodd" fill-opacity="1" /><path clip-path="url(#clip440)" d="M2296.24 1455.09 L2284.43 1473.54 L2296.24 1473.54 L2296.24 1455.09 M2295.01 1451.02 L2300.89 1451.02 L2300.89 1473.54 L2305.82 1473.54 L2305.82 1477.43 L2300.89 1477.43 L2300.89 1485.58 L2296.24 1485.58 L2296.24 1477.43 L2280.64 1477.43 L2280.64 1472.92 L2295.01 1451.02 Z" fill="#000000" fill-rule="evenodd" fill-opacity="1" /><path clip-path="url(#clip440)" d="M1144.47 1520.52 L1174.52 1520.52 L1174.52 1525.93 L1150.9 1525.93 L1150.9 1540 L1173.53 1540 L1173.53 1545.41 L1150.9 1545.41 L1150.9 1562.63 L1175.09 1562.63 L1175.09 1568.04 L1144.47 1568.04 L1144.47 1520.52 Z" fill="#000000" fill-rule="evenodd" fill-opacity="1" /><path clip-path="url(#clip440)" d="M1215.04 1546.53 L1215.04 1568.04 L1209.18 1568.04 L1209.18 1546.72 Q1209.18 1541.66 1207.21 1539.14 Q1205.23 1536.63 1201.29 1536.63 Q1196.54 1536.63 1193.81 1539.65 Q1191.07 1542.68 1191.07 1547.9 L1191.07 1568.04 L1185.18 1568.04 L1185.18 1532.4 L1191.07 1532.4 L1191.07 1537.93 Q1193.17 1534.72 1196 1533.13 Q1198.87 1531.54 1202.59 1531.54 Q1208.73 1531.54 1211.89 1535.36 Q1215.04 1539.14 1215.04 1546.53 Z" fill="#000000" fill-rule="evenodd" fill-opacity="1" /><path clip-path="url(#clip440)" d="M1257.21 1548.76 L1257.21 1551.62 L1230.28 1551.62 Q1230.66 1557.67 1233.91 1560.85 Q1237.19 1564 1243.01 1564 Q1246.39 1564 1249.54 1563.17 Q1252.72 1562.35 1255.84 1560.69 L1255.84 1566.23 Q1252.69 1567.57 1249.38 1568.27 Q1246.07 1568.97 1242.66 1568.97 Q1234.13 1568.97 1229.14 1564 Q1224.17 1559.04 1224.17 1550.57 Q1224.17 1541.82 1228.88 1536.69 Q1233.62 1531.54 1241.65 1531.54 Q1248.84 1531.54 1253.01 1536.18 Q1257.21 1540.8 1257.21 1548.76 M1251.35 1547.04 Q1251.29 1542.23 1248.65 1539.37 Q1246.04 1536.5 1241.71 1536.5 Q1236.81 1536.5 1233.85 1539.27 Q1230.92 1542.04 1230.47 1547.07 L1251.35 1547.04 Z" fill="#000000" fill-rule="evenodd" fill-opacity="1" /><path clip-path="url(#clip440)" d="M1287.48 1537.87 Q1286.49 1537.3 1285.31 1537.04 Q1284.17 1536.76 1282.77 1536.76 Q1277.8 1536.76 1275.13 1540 Q1272.49 1543.22 1272.49 1549.27 L1272.49 1568.04 L1266.6 1568.04 L1266.6 1532.4 L1272.49 1532.4 L1272.49 1537.93 Q1274.33 1534.69 1277.29 1533.13 Q1280.25 1531.54 1284.49 1531.54 Q1285.09 1531.54 1285.82 1531.63 Q1286.56 1531.7 1287.45 1531.85 L1287.48 1537.87 Z" fill="#000000" fill-rule="evenodd" fill-opacity="1" /><path clip-path="url(#clip440)" d="M1315.93 1549.81 Q1315.93 1543.44 1313.29 1539.94 Q1310.68 1536.44 1305.94 1536.44 Q1301.23 1536.44 1298.59 1539.94 Q1295.98 1543.44 1295.98 1549.81 Q1295.98 1556.14 1298.59 1559.64 Q1301.23 1563.14 1305.94 1563.14 Q1310.68 1563.14 1313.29 1559.64 Q1315.93 1556.14 1315.93 1549.81 M1321.79 1563.62 Q1321.79 1572.72 1317.75 1577.15 Q1313.71 1581.6 1305.37 1581.6 Q1302.28 1581.6 1299.54 1581.13 Q1296.8 1580.68 1294.23 1579.72 L1294.23 1574.03 Q1296.8 1575.43 1299.32 1576.1 Q1301.83 1576.76 1304.44 1576.76 Q1310.2 1576.76 1313.07 1573.74 Q1315.93 1570.75 1315.93 1564.67 L1315.93 1561.77 Q1314.12 1564.92 1311.29 1566.48 Q1308.45 1568.04 1304.51 1568.04 Q1297.95 1568.04 1293.94 1563.05 Q1289.93 1558.05 1289.93 1549.81 Q1289.93 1541.53 1293.94 1536.53 Q1297.95 1531.54 1304.51 1531.54 Q1308.45 1531.54 1311.29 1533.1 Q1314.12 1534.66 1315.93 1537.81 L1315.93 1532.4 L1321.79 1532.4 L1321.79 1563.62 Z" fill="#000000" fill-rule="evenodd" fill-opacity="1" /><path clip-path="url(#clip440)" d="M1348.68 1571.35 Q1346.2 1577.72 1343.85 1579.66 Q1341.49 1581.6 1337.54 1581.6 L1332.87 1581.6 L1332.87 1576.7 L1336.3 1576.7 Q1338.72 1576.7 1340.06 1575.56 Q1341.4 1574.41 1343.02 1570.14 L1344.07 1567.47 L1329.65 1532.4 L1335.86 1532.4 L1347 1560.28 L1358.14 1532.4 L1364.34 1532.4 L1348.68 1571.35 Z" fill="#000000" fill-rule="evenodd" fill-opacity="1" /><path clip-path="url(#clip440)" d="M1392.61 1518.52 L1406.1 1518.52 L1406.1 1523.07 L1398.46 1523.07 L1398.46 1572.09 L1406.1 1572.09 L1406.1 1576.64 L1392.61 1576.64 L1392.61 1518.52 Z" fill="#000000" fill-rule="evenodd" fill-opacity="1" /><path clip-path="url(#clip440)" d="M1424.37 1522.27 L1424.37 1532.4 L1436.44 1532.4 L1436.44 1536.95 L1424.37 1536.95 L1424.37 1556.3 Q1424.37 1560.66 1425.55 1561.9 Q1426.76 1563.14 1430.42 1563.14 L1436.44 1563.14 L1436.44 1568.04 L1430.42 1568.04 Q1423.64 1568.04 1421.06 1565.53 Q1418.48 1562.98 1418.48 1556.3 L1418.48 1536.95 L1414.19 1536.95 L1414.19 1532.4 L1418.48 1532.4 L1418.48 1522.27 L1424.37 1522.27 Z" fill="#000000" fill-rule="evenodd" fill-opacity="1" /><path clip-path="url(#clip440)" d="M1457.82 1518.52 L1457.82 1576.64 L1444.33 1576.64 L1444.33 1572.09 L1451.94 1572.09 L1451.94 1523.07 L1444.33 1523.07 L1444.33 1518.52 L1457.82 1518.52 Z" fill="#000000" fill-rule="evenodd" fill-opacity="1" /><polyline clip-path="url(#clip442)" style="stroke:#000000; stroke-linecap:butt; stroke-linejoin:round; stroke-width:2; stroke-opacity:0.1; fill:none" points="
  249.542,1385.16 2352.76,1385.16 
  "/>
<polyline clip-path="url(#clip442)" style="stroke:#000000; stroke-linecap:butt; stroke-linejoin:round; stroke-width:2; stroke-opacity:0.1; fill:none" points="
  249.542,1061.64 2352.76,1061.64 
  "/>
<polyline clip-path="url(#clip442)" style="stroke:#000000; stroke-linecap:butt; stroke-linejoin:round; stroke-width:2; stroke-opacity:0.1; fill:none" points="
  249.542,738.126 2352.76,738.126 
  "/>
<polyline clip-path="url(#clip442)" style="stroke:#000000; stroke-linecap:butt; stroke-linejoin:round; stroke-width:2; stroke-opacity:0.1; fill:none" points="
  249.542,414.608 2352.76,414.608 
  "/>
<polyline clip-path="url(#clip442)" style="stroke:#000000; stroke-linecap:butt; stroke-linejoin:round; stroke-width:2; stroke-opacity:0.1; fill:none" points="
  249.542,91.0902 2352.76,91.0902 
  "/>
<polyline clip-path="url(#clip440)" style="stroke:#000000; stroke-linecap:butt; stroke-linejoin:round; stroke-width:4; stroke-opacity:1; fill:none" points="
  249.542,1423.18 249.542,47.2441 
  "/>
<polyline clip-path="url(#clip440)" style="stroke:#000000; stroke-linecap:butt; stroke-linejoin:round; stroke-width:4; stroke-opacity:1; fill:none" points="
  249.542,1385.16 268.44,1385.16 
  "/>
<polyline clip-path="url(#clip440)" style="stroke:#000000; stroke-linecap:butt; stroke-linejoin:round; stroke-width:4; stroke-opacity:1; fill:none" points="
  249.542,1061.64 268.44,1061.64 
  "/>
<polyline clip-path="url(#clip440)" style="stroke:#000000; stroke-linecap:butt; stroke-linejoin:round; stroke-width:4; stroke-opacity:1; fill:none" points="
  249.542,738.126 268.44,738.126 
  "/>
<polyline clip-path="url(#clip440)" style="stroke:#000000; stroke-linecap:butt; stroke-linejoin:round; stroke-width:4; stroke-opacity:1; fill:none" points="
  249.542,414.608 268.44,414.608 
  "/>
<polyline clip-path="url(#clip440)" style="stroke:#000000; stroke-linecap:butt; stroke-linejoin:round; stroke-width:4; stroke-opacity:1; fill:none" points="
  249.542,91.0902 268.44,91.0902 
  "/>
<path clip-path="url(#clip440)" d="M126.205 1370.96 Q122.593 1370.96 120.765 1374.53 Q118.959 1378.07 118.959 1385.2 Q118.959 1392.3 120.765 1395.87 Q122.593 1399.41 126.205 1399.41 Q129.839 1399.41 131.644 1395.87 Q133.473 1392.3 133.473 1385.2 Q133.473 1378.07 131.644 1374.53 Q129.839 1370.96 126.205 1370.96 M126.205 1367.26 Q132.015 1367.26 135.07 1371.86 Q138.149 1376.45 138.149 1385.2 Q138.149 1393.92 135.07 1398.53 Q132.015 1403.11 126.205 1403.11 Q120.394 1403.11 117.316 1398.53 Q114.26 1393.92 114.26 1385.2 Q114.26 1376.45 117.316 1371.86 Q120.394 1367.26 126.205 1367.26 Z" fill="#000000" fill-rule="evenodd" fill-opacity="1" /><path clip-path="url(#clip440)" d="M146.366 1396.56 L151.251 1396.56 L151.251 1402.44 L146.366 1402.44 L146.366 1396.56 Z" fill="#000000" fill-rule="evenodd" fill-opacity="1" /><path clip-path="url(#clip440)" d="M171.436 1370.96 Q167.825 1370.96 165.996 1374.53 Q164.19 1378.07 164.19 1385.2 Q164.19 1392.3 165.996 1395.87 Q167.825 1399.41 171.436 1399.41 Q175.07 1399.41 176.876 1395.87 Q178.704 1392.3 178.704 1385.2 Q178.704 1378.07 176.876 1374.53 Q175.07 1370.96 171.436 1370.96 M171.436 1367.26 Q177.246 1367.26 180.301 1371.86 Q183.38 1376.45 183.38 1385.2 Q183.38 1393.92 180.301 1398.53 Q177.246 1403.11 171.436 1403.11 Q165.626 1403.11 162.547 1398.53 Q159.491 1393.92 159.491 1385.2 Q159.491 1376.45 162.547 1371.86 Q165.626 1367.26 171.436 1367.26 Z" fill="#000000" fill-rule="evenodd" fill-opacity="1" /><path clip-path="url(#clip440)" d="M201.598 1370.96 Q197.987 1370.96 196.158 1374.53 Q194.352 1378.07 194.352 1385.2 Q194.352 1392.3 196.158 1395.87 Q197.987 1399.41 201.598 1399.41 Q205.232 1399.41 207.037 1395.87 Q208.866 1392.3 208.866 1385.2 Q208.866 1378.07 207.037 1374.53 Q205.232 1370.96 201.598 1370.96 M201.598 1367.26 Q207.408 1367.26 210.463 1371.86 Q213.542 1376.45 213.542 1385.2 Q213.542 1393.92 210.463 1398.53 Q207.408 1403.11 201.598 1403.11 Q195.787 1403.11 192.709 1398.53 Q189.653 1393.92 189.653 1385.2 Q189.653 1376.45 192.709 1371.86 Q195.787 1367.26 201.598 1367.26 Z" fill="#000000" fill-rule="evenodd" fill-opacity="1" /><path clip-path="url(#clip440)" d="M127.2 1047.44 Q123.589 1047.44 121.76 1051.01 Q119.955 1054.55 119.955 1061.68 Q119.955 1068.79 121.76 1072.35 Q123.589 1075.89 127.2 1075.89 Q130.834 1075.89 132.64 1072.35 Q134.468 1068.79 134.468 1061.68 Q134.468 1054.55 132.64 1051.01 Q130.834 1047.44 127.2 1047.44 M127.2 1043.74 Q133.01 1043.74 136.066 1048.35 Q139.144 1052.93 139.144 1061.68 Q139.144 1070.41 136.066 1075.01 Q133.01 1079.6 127.2 1079.6 Q121.39 1079.6 118.311 1075.01 Q115.256 1070.41 115.256 1061.68 Q115.256 1052.93 118.311 1048.35 Q121.39 1043.74 127.2 1043.74 Z" fill="#000000" fill-rule="evenodd" fill-opacity="1" /><path clip-path="url(#clip440)" d="M147.362 1073.04 L152.246 1073.04 L152.246 1078.92 L147.362 1078.92 L147.362 1073.04 Z" fill="#000000" fill-rule="evenodd" fill-opacity="1" /><path clip-path="url(#clip440)" d="M166.459 1074.99 L182.778 1074.99 L182.778 1078.92 L160.834 1078.92 L160.834 1074.99 Q163.496 1072.23 168.079 1067.6 Q172.686 1062.95 173.866 1061.61 Q176.112 1059.09 176.991 1057.35 Q177.894 1055.59 177.894 1053.9 Q177.894 1051.15 175.95 1049.41 Q174.028 1047.67 170.927 1047.67 Q168.727 1047.67 166.274 1048.44 Q163.843 1049.2 161.065 1050.75 L161.065 1046.03 Q163.89 1044.9 166.343 1044.32 Q168.797 1043.74 170.834 1043.74 Q176.204 1043.74 179.399 1046.42 Q182.593 1049.11 182.593 1053.6 Q182.593 1055.73 181.783 1057.65 Q180.996 1059.55 178.889 1062.14 Q178.311 1062.81 175.209 1066.03 Q172.107 1069.23 166.459 1074.99 Z" fill="#000000" fill-rule="evenodd" fill-opacity="1" /><path clip-path="url(#clip440)" d="M192.639 1044.36 L210.996 1044.36 L210.996 1048.3 L196.922 1048.3 L196.922 1056.77 Q197.94 1056.42 198.959 1056.26 Q199.977 1056.08 200.996 1056.08 Q206.783 1056.08 210.162 1059.25 Q213.542 1062.42 213.542 1067.84 Q213.542 1073.41 210.07 1076.52 Q206.598 1079.6 200.278 1079.6 Q198.102 1079.6 195.834 1079.22 Q193.588 1078.85 191.181 1078.11 L191.181 1073.41 Q193.264 1074.55 195.487 1075.1 Q197.709 1075.66 200.186 1075.66 Q204.19 1075.66 206.528 1073.55 Q208.866 1071.45 208.866 1067.84 Q208.866 1064.23 206.528 1062.12 Q204.19 1060.01 200.186 1060.01 Q198.311 1060.01 196.436 1060.43 Q194.584 1060.85 192.639 1061.73 L192.639 1044.36 Z" fill="#000000" fill-rule="evenodd" fill-opacity="1" /><path clip-path="url(#clip440)" d="M126.205 723.925 Q122.593 723.925 120.765 727.49 Q118.959 731.031 118.959 738.161 Q118.959 745.267 120.765 748.832 Q122.593 752.374 126.205 752.374 Q129.839 752.374 131.644 748.832 Q133.473 745.267 133.473 738.161 Q133.473 731.031 131.644 727.49 Q129.839 723.925 126.205 723.925 M126.205 720.221 Q132.015 720.221 135.07 724.828 Q138.149 729.411 138.149 738.161 Q138.149 746.888 135.07 751.494 Q132.015 756.077 126.205 756.077 Q120.394 756.077 117.316 751.494 Q114.26 746.888 114.26 738.161 Q114.26 729.411 117.316 724.828 Q120.394 720.221 126.205 720.221 Z" fill="#000000" fill-rule="evenodd" fill-opacity="1" /><path clip-path="url(#clip440)" d="M146.366 749.526 L151.251 749.526 L151.251 755.406 L146.366 755.406 L146.366 749.526 Z" fill="#000000" fill-rule="evenodd" fill-opacity="1" /><path clip-path="url(#clip440)" d="M161.482 720.846 L179.839 720.846 L179.839 724.781 L165.765 724.781 L165.765 733.253 Q166.783 732.906 167.802 732.744 Q168.82 732.559 169.839 732.559 Q175.626 732.559 179.005 735.73 Q182.385 738.902 182.385 744.318 Q182.385 749.897 178.913 752.999 Q175.44 756.077 169.121 756.077 Q166.945 756.077 164.677 755.707 Q162.431 755.337 160.024 754.596 L160.024 749.897 Q162.107 751.031 164.329 751.587 Q166.552 752.142 169.028 752.142 Q173.033 752.142 175.371 750.036 Q177.709 747.929 177.709 744.318 Q177.709 740.707 175.371 738.601 Q173.033 736.494 169.028 736.494 Q167.153 736.494 165.278 736.911 Q163.427 737.327 161.482 738.207 L161.482 720.846 Z" fill="#000000" fill-rule="evenodd" fill-opacity="1" /><path clip-path="url(#clip440)" d="M201.598 723.925 Q197.987 723.925 196.158 727.49 Q194.352 731.031 194.352 738.161 Q194.352 745.267 196.158 748.832 Q197.987 752.374 201.598 752.374 Q205.232 752.374 207.037 748.832 Q208.866 745.267 208.866 738.161 Q208.866 731.031 207.037 727.49 Q205.232 723.925 201.598 723.925 M201.598 720.221 Q207.408 720.221 210.463 724.828 Q213.542 729.411 213.542 738.161 Q213.542 746.888 210.463 751.494 Q207.408 756.077 201.598 756.077 Q195.787 756.077 192.709 751.494 Q189.653 746.888 189.653 738.161 Q189.653 729.411 192.709 724.828 Q195.787 720.221 201.598 720.221 Z" fill="#000000" fill-rule="evenodd" fill-opacity="1" /><path clip-path="url(#clip440)" d="M127.2 400.407 Q123.589 400.407 121.76 403.972 Q119.955 407.513 119.955 414.643 Q119.955 421.749 121.76 425.314 Q123.589 428.856 127.2 428.856 Q130.834 428.856 132.64 425.314 Q134.468 421.749 134.468 414.643 Q134.468 407.513 132.64 403.972 Q130.834 400.407 127.2 400.407 M127.2 396.703 Q133.01 396.703 136.066 401.31 Q139.144 405.893 139.144 414.643 Q139.144 423.37 136.066 427.976 Q133.01 432.559 127.2 432.559 Q121.39 432.559 118.311 427.976 Q115.256 423.37 115.256 414.643 Q115.256 405.893 118.311 401.31 Q121.39 396.703 127.2 396.703 Z" fill="#000000" fill-rule="evenodd" fill-opacity="1" /><path clip-path="url(#clip440)" d="M147.362 426.009 L152.246 426.009 L152.246 431.888 L147.362 431.888 L147.362 426.009 Z" fill="#000000" fill-rule="evenodd" fill-opacity="1" /><path clip-path="url(#clip440)" d="M161.251 397.328 L183.473 397.328 L183.473 399.319 L170.927 431.888 L166.042 431.888 L177.848 401.263 L161.251 401.263 L161.251 397.328 Z" fill="#000000" fill-rule="evenodd" fill-opacity="1" /><path clip-path="url(#clip440)" d="M192.639 397.328 L210.996 397.328 L210.996 401.263 L196.922 401.263 L196.922 409.735 Q197.94 409.388 198.959 409.226 Q199.977 409.041 200.996 409.041 Q206.783 409.041 210.162 412.212 Q213.542 415.384 213.542 420.8 Q213.542 426.379 210.07 429.481 Q206.598 432.559 200.278 432.559 Q198.102 432.559 195.834 432.189 Q193.588 431.819 191.181 431.078 L191.181 426.379 Q193.264 427.513 195.487 428.069 Q197.709 428.624 200.186 428.624 Q204.19 428.624 206.528 426.518 Q208.866 424.411 208.866 420.8 Q208.866 417.189 206.528 415.083 Q204.19 412.976 200.186 412.976 Q198.311 412.976 196.436 413.393 Q194.584 413.81 192.639 414.689 L192.639 397.328 Z" fill="#000000" fill-rule="evenodd" fill-opacity="1" /><path clip-path="url(#clip440)" d="M117.015 104.435 L124.654 104.435 L124.654 78.0694 L116.343 79.7361 L116.343 75.4768 L124.607 73.8102 L129.283 73.8102 L129.283 104.435 L136.922 104.435 L136.922 108.37 L117.015 108.37 L117.015 104.435 Z" fill="#000000" fill-rule="evenodd" fill-opacity="1" /><path clip-path="url(#clip440)" d="M146.366 102.491 L151.251 102.491 L151.251 108.37 L146.366 108.37 L146.366 102.491 Z" fill="#000000" fill-rule="evenodd" fill-opacity="1" /><path clip-path="url(#clip440)" d="M171.436 76.8889 Q167.825 76.8889 165.996 80.4537 Q164.19 83.9953 164.19 91.1249 Q164.19 98.2313 165.996 101.796 Q167.825 105.338 171.436 105.338 Q175.07 105.338 176.876 101.796 Q178.704 98.2313 178.704 91.1249 Q178.704 83.9953 176.876 80.4537 Q175.07 76.8889 171.436 76.8889 M171.436 73.1852 Q177.246 73.1852 180.301 77.7916 Q183.38 82.375 183.38 91.1249 Q183.38 99.8517 180.301 104.458 Q177.246 109.041 171.436 109.041 Q165.626 109.041 162.547 104.458 Q159.491 99.8517 159.491 91.1249 Q159.491 82.375 162.547 77.7916 Q165.626 73.1852 171.436 73.1852 Z" fill="#000000" fill-rule="evenodd" fill-opacity="1" /><path clip-path="url(#clip440)" d="M201.598 76.8889 Q197.987 76.8889 196.158 80.4537 Q194.352 83.9953 194.352 91.1249 Q194.352 98.2313 196.158 101.796 Q197.987 105.338 201.598 105.338 Q205.232 105.338 207.037 101.796 Q208.866 98.2313 208.866 91.1249 Q208.866 83.9953 207.037 80.4537 Q205.232 76.8889 201.598 76.8889 M201.598 73.1852 Q207.408 73.1852 210.463 77.7916 Q213.542 82.375 213.542 91.1249 Q213.542 99.8517 210.463 104.458 Q207.408 109.041 201.598 109.041 Q195.787 109.041 192.709 104.458 Q189.653 99.8517 189.653 91.1249 Q189.653 82.375 192.709 77.7916 Q195.787 73.1852 201.598 73.1852 Z" fill="#000000" fill-rule="evenodd" fill-opacity="1" /><path clip-path="url(#clip440)" d="M16.4842 896.471 L16.4842 890.042 L58.5933 890.042 L58.5933 866.903 L64.0042 866.903 L64.0042 896.471 L16.4842 896.471 Z" fill="#000000" fill-rule="evenodd" fill-opacity="1" /><path clip-path="url(#clip440)" d="M32.4621 847.742 Q32.4621 852.452 36.1542 855.19 Q39.8145 857.927 46.212 857.927 Q52.6095 857.927 56.3017 855.221 Q59.9619 852.484 59.9619 847.742 Q59.9619 843.063 56.2698 840.326 Q52.5777 837.588 46.212 837.588 Q39.8781 837.588 36.186 840.326 Q32.4621 843.063 32.4621 847.742 M27.4968 847.742 Q27.4968 840.103 32.4621 835.742 Q37.4273 831.382 46.212 831.382 Q54.9649 831.382 59.9619 835.742 Q64.9272 840.103 64.9272 847.742 Q64.9272 855.412 59.9619 859.773 Q54.9649 864.102 46.212 864.102 Q37.4273 864.102 32.4621 859.773 Q27.4968 855.412 27.4968 847.742 Z" fill="#000000" fill-rule="evenodd" fill-opacity="1" /><path clip-path="url(#clip440)" d="M29.7248 796.02 L35.1993 796.02 Q33.8307 798.503 33.1623 801.017 Q32.4621 803.5 32.4621 806.046 Q32.4621 811.744 36.0905 814.895 Q39.6872 818.046 46.212 818.046 Q52.7369 818.046 56.3653 814.895 Q59.9619 811.744 59.9619 806.046 Q59.9619 803.5 59.2935 801.017 Q58.5933 798.503 57.2247 796.02 L62.6355 796.02 Q63.7814 798.471 64.3543 801.113 Q64.9272 803.723 64.9272 806.683 Q64.9272 814.736 59.8664 819.478 Q54.8057 824.22 46.212 824.22 Q37.491 824.22 32.4939 819.446 Q27.4968 814.64 27.4968 806.301 Q27.4968 803.596 28.0697 801.017 Q28.6108 798.439 29.7248 796.02 Z" fill="#000000" fill-rule="evenodd" fill-opacity="1" /><path clip-path="url(#clip440)" d="M46.0847 769.635 Q46.0847 776.732 47.7079 779.47 Q49.3312 782.207 53.2461 782.207 Q56.3653 782.207 58.2114 780.17 Q60.0256 778.101 60.0256 774.568 Q60.0256 769.698 56.5881 766.77 Q53.1188 763.81 47.3897 763.81 L46.0847 763.81 L46.0847 769.635 M43.6657 757.953 L64.0042 757.953 L64.0042 763.81 L58.5933 763.81 Q61.8398 765.815 63.3994 768.807 Q64.9272 771.799 64.9272 776.128 Q64.9272 781.602 61.8716 784.849 Q58.7843 788.063 53.6281 788.063 Q47.6125 788.063 44.5569 784.053 Q41.5014 780.011 41.5014 772.022 L41.5014 763.81 L40.9285 763.81 Q36.8862 763.81 34.6901 766.484 Q32.4621 769.125 32.4621 773.931 Q32.4621 776.987 33.1941 779.883 Q33.9262 782.78 35.3903 785.453 L29.9795 785.453 Q28.7381 782.239 28.1334 779.215 Q27.4968 776.191 27.4968 773.327 Q27.4968 765.592 31.5072 761.773 Q35.5176 757.953 43.6657 757.953 Z" fill="#000000" fill-rule="evenodd" fill-opacity="1" /><path clip-path="url(#clip440)" d="M14.479 745.89 L14.479 740.034 L64.0042 740.034 L64.0042 745.89 L14.479 745.89 Z" fill="#000000" fill-rule="evenodd" fill-opacity="1" /><path clip-path="url(#clip440)" d="M21.7677 700.376 L58.7206 700.376 L58.7206 692.609 Q58.7206 682.774 54.2646 678.223 Q49.8086 673.64 40.1964 673.64 Q30.6479 673.64 26.2237 678.223 Q21.7677 682.774 21.7677 692.609 L21.7677 700.376 M16.4842 706.805 L16.4842 693.596 Q16.4842 679.783 22.2451 673.321 Q27.9743 666.86 40.1964 666.86 Q52.4822 666.86 58.2432 673.353 Q64.0042 679.846 64.0042 693.596 L64.0042 706.805 L16.4842 706.805 Z" fill="#000000" fill-rule="evenodd" fill-opacity="1" /><path clip-path="url(#clip440)" d="M20.8447 637.323 Q20.8447 644.326 26.0645 648.463 Q31.2844 652.569 40.2919 652.569 Q49.2675 652.569 54.4874 648.463 Q59.7073 644.326 59.7073 637.323 Q59.7073 630.321 54.4874 626.247 Q49.2675 622.141 40.2919 622.141 Q31.2844 622.141 26.0645 626.247 Q20.8447 630.321 20.8447 637.323 M15.6248 637.323 Q15.6248 627.329 22.3406 621.345 Q29.0246 615.362 40.2919 615.362 Q51.5274 615.362 58.2432 621.345 Q64.9272 627.329 64.9272 637.323 Q64.9272 647.349 58.2432 653.365 Q51.5592 659.349 40.2919 659.349 Q29.0246 659.349 22.3406 653.365 Q15.6248 647.349 15.6248 637.323 Z" fill="#000000" fill-rule="evenodd" fill-opacity="1" /><path clip-path="url(#clip440)" d="M18.0438 576.817 L24.314 576.817 Q22.5634 580.478 21.704 583.724 Q20.8447 586.971 20.8447 589.994 Q20.8447 595.246 22.8817 598.111 Q24.9187 600.943 28.6745 600.943 Q31.8255 600.943 33.4488 599.065 Q35.0402 597.156 36.0269 591.872 L36.8226 587.989 Q38.1912 580.796 41.6605 577.39 Q45.098 573.953 50.8908 573.953 Q57.7976 573.953 61.3624 578.6 Q64.9272 583.215 64.9272 592.159 Q64.9272 595.532 64.1633 599.352 Q63.3994 603.139 61.9035 607.214 L55.2831 607.214 Q57.4793 603.299 58.5933 599.543 Q59.7073 595.787 59.7073 592.159 Q59.7073 586.652 57.543 583.66 Q55.3786 580.669 51.3682 580.669 Q47.8671 580.669 45.8937 582.833 Q43.9204 584.965 42.9337 589.867 L42.1698 593.782 Q40.7375 600.975 37.682 604.19 Q34.6264 607.404 29.1837 607.404 Q22.8817 607.404 19.2532 602.98 Q15.6248 598.524 15.6248 590.726 Q15.6248 587.384 16.2295 583.915 Q16.8343 580.446 18.0438 576.817 Z" fill="#000000" fill-rule="evenodd" fill-opacity="1" /><polyline clip-path="url(#clip442)" style="stroke:#009af9; stroke-linecap:butt; stroke-linejoin:round; stroke-width:4; stroke-opacity:1; fill:none" points="
  309.067,1195.74 311.053,1257.12 313.039,1277.38 315.025,1277.03 317.012,1258.03 318.998,1208.24 320.984,1093.33 322.97,890.828 324.956,595.695 326.942,676.26 
  328.928,1015.82 330.915,1169.24 332.901,1221.59 334.887,1222.55 336.873,1166.07 338.859,1009.35 340.845,955.786 342.832,1126.63 344.818,1208.62 346.804,1215.39 
  348.79,1157.4 350.776,1026.69 352.762,944.091 354.748,945.469 356.735,853.512 358.721,863.641 360.707,1071.59 362.693,1130.95 364.679,1107.14 366.665,1151.89 
  368.651,1193.97 370.638,1180.65 372.624,1080.23 374.61,858.752 376.596,838.497 378.582,1048.87 380.568,1185.79 382.555,1242.58 384.541,1249.72 386.527,1211.8 
  388.513,1188.52 390.499,1224.49 392.485,1206.58 394.471,1125.86 396.458,1009.39 398.444,1041.38 400.43,1154.59 402.416,1165.9 404.402,1076.15 406.388,822.352 
  408.374,688.65 410.361,877.997 412.347,854.608 414.333,954.056 416.319,1123.73 418.305,1176.31 420.291,1146.03 422.278,1011.72 424.264,913.711 426.25,976.886 
  428.236,844.625 430.222,670.993 432.208,934.176 434.194,1087.44 436.181,1069.1 438.167,976.291 440.153,1060.97 442.139,1135.49 444.125,1197.13 446.111,1196.38 
  448.097,1179.97 450.084,1228.18 452.07,1238.24 454.056,1193.32 456.042,1055.57 458.028,895.934 460.014,911.186 462.001,1010.53 463.987,1163.63 465.973,1216.14 
  467.959,1224.93 469.945,1189.67 471.931,1152.53 473.917,1180.7 475.904,1157.08 477.89,1078.14 479.876,891.714 481.862,797.549 483.848,821.215 485.834,949.709 
  487.82,1137.59 489.807,1209.31 491.793,1215.7 493.779,1160.81 495.765,1021.14 497.751,923.833 499.737,1074.83 501.724,1173.7 503.71,1178.21 505.696,1097.08 
  507.682,858.547 509.668,565.548 511.654,779.452 513.64,1059.99 515.627,1155.73 517.613,1208.52 519.599,1253.77 521.585,1264.3 523.571,1242.17 525.557,1162.33 
  527.543,1042.18 529.53,1132.5 531.516,1222.01 533.502,1242.23 535.488,1217.7 537.474,1150.88 539.46,1079.27 541.447,877.299 543.433,492.127 545.419,596.246 
  547.405,874.762 549.391,1043.02 551.377,1027.68 553.363,970.969 555.35,1103.69 557.336,1165.33 559.322,1122.52 561.308,1044.11 563.294,1089.82 565.28,1037.7 
  567.266,920.385 569.253,991.549 571.239,1122.86 573.225,1167.15 575.211,1202.56 577.197,1189.33 579.183,1112.42 581.17,1050.24 583.156,1152.92 585.142,1218 
  587.128,1222.68 589.114,1182.11 591.1,1066.96 593.086,776.66 595.073,397.698 597.059,434.712 599.045,823.539 601.031,1078.77 603.017,1172.24 605.003,1187.34 
  606.989,1130 608.976,1033.34 610.962,1066.71 612.948,1139.58 614.934,1122.16 616.92,1146.18 618.906,1206.97 620.893,1212.93 622.879,1168.93 624.865,1048.27 
  626.851,910.165 628.837,805.178 630.823,420.883 632.809,202.176 634.796,270.078 636.782,708.537 638.768,981.176 640.754,1046.64 642.74,1054.59 644.726,987.974 
  646.712,906.345 648.699,979.007 650.685,959.18 652.671,834.6 654.657,797.823 656.643,1010.58 658.629,1091.84 660.616,1047.1 662.602,1057.08 664.588,1086 
  666.574,1059.87 668.56,963.508 670.546,637.665 672.532,107.35 674.519,435.288 676.505,814.477 678.491,951.725 680.477,928.465 682.463,716.208 684.449,486.145 
  686.435,735.32 688.422,841.848 690.408,1004.52 692.394,1127.7 694.38,1140.47 696.366,1180.59 698.352,1247.28 700.339,1276.23 702.325,1284.58 704.311,1279.24 
  706.297,1255.86 708.283,1196.24 710.269,1124.48 712.255,1114.93 714.242,1029.63 716.228,921.496 718.214,656.741 720.2,329.03 722.186,654.837 724.172,796.05 
  726.158,874.555 728.145,1085.13 730.131,1177.96 732.117,1192.48 734.103,1140.79 736.089,1107.52 738.075,1187.32 740.062,1214.21 742.048,1176.78 744.034,1074.06 
  746.02,1098.69 748.006,1138.07 749.992,1086.95 751.978,1119.31 753.965,1151.11 755.951,1099.69 757.937,926.321 759.923,512.601 761.909,216.978 763.895,399.559 
  765.881,197.001 767.868,254.839 769.854,796.305 771.84,1054.45 773.826,1155.91 775.812,1184.76 777.798,1152.57 779.785,1047.72 781.771,951.42 783.757,1023.18 
  785.743,1151.48 787.729,1162.9 789.715,1122.54 791.701,1192.77 793.688,1239.79 795.674,1230.94 797.66,1154.73 799.646,996.771 801.632,1056.37 803.618,1184.09 
  805.604,1221.41 807.591,1254.9 809.577,1266.92 811.563,1249.83 813.549,1218.18 815.535,1147.46 817.521,1030.96 819.508,1072.2 821.494,1071.25 823.48,1042.93 
  825.466,1011.44 827.452,778.886 829.438,411.345 831.424,624.402 833.411,904.548 835.397,924.774 837.383,914.254 839.369,1056.44 841.355,1198.03 843.341,1260.39 
  845.328,1287.31 847.314,1297.97 849.3,1297.85 851.286,1285.58 853.272,1250.41 855.258,1160.74 857.244,1040.91 859.231,1107.29 861.217,1159.55 863.203,1127.44 
  865.189,1029.78 867.175,1011.41 869.161,903.569 871.147,715.462 873.134,710.526 875.12,798.872 877.106,729.612 879.092,666.282 881.078,891.364 883.064,1070.07 
  885.051,1095.87 887.037,1138.78 889.023,1151.47 891.009,1197.08 892.995,1250.29 894.981,1258.24 896.967,1229.17 898.954,1141.57 900.94,1121.37 902.926,1209.91 
  904.912,1247.17 906.898,1233.58 908.884,1161.06 910.87,1031.5 912.857,1010.54 914.843,888.91 916.829,691.422 918.815,546.817 920.801,840.306 922.787,1112.86 
  924.774,1229.57 926.76,1281.92 928.746,1308.68 930.732,1323.63 932.718,1332.21 934.704,1336.81 936.69,1338.41 938.677,1337.14 940.663,1332.32 942.649,1321.9 
  944.635,1300.62 946.621,1253.9 948.607,1140.66 950.593,948.151 952.58,978.007 954.566,1024.85 956.552,1033.73 958.538,1185.81 960.524,1271.87 962.51,1307.14 
  964.497,1321.73 966.483,1325.48 968.469,1319.77 970.455,1298.82 972.441,1241.46 974.427,1124.09 976.413,1147.73 978.4,1251.39 980.386,1287.61 982.372,1281.6 
  984.358,1257.09 986.344,1234.57 988.33,1185 990.316,1229.92 992.303,1261.1 994.289,1237.2 996.275,1139.95 998.261,957.847 1000.25,859.761 1002.23,1041.81 
  1004.22,1207.24 1006.21,1283.05 1008.19,1316.46 1010.18,1333.08 1012.16,1342.05 1014.15,1346.95 1016.14,1349.34 1018.12,1349.85 1020.11,1348.7 1022.09,1345.67 
  1024.08,1340.15 1026.07,1330.69 1028.05,1314.16 1030.04,1282.94 1032.03,1216.37 1034.01,1060.96 1036,818.323 1037.98,800.789 1039.97,877.422 1041.96,1041.86 
  1043.94,1199.83 1045.93,1265.39 1047.91,1288.37 1049.9,1285.67 1051.89,1250.08 1053.87,1197.43 1055.86,1195.84 1057.85,1174.6 1059.83,1230.76 1061.82,1253.55 
  1063.8,1230.37 1065.79,1214.18 1067.78,1203.91 1069.76,1238.04 1071.75,1228.36 1073.73,1148.72 1075.72,929.134 1077.71,718.288 1079.69,962.323 1081.68,1140.87 
  1083.67,1230.64 1085.65,1264.07 1087.64,1267.91 1089.62,1247.16 1091.61,1186 1093.6,1029.47 1095.58,763.104 1097.57,797.805 1099.55,989.881 1101.54,1018.27 
  1103.53,871.934 1105.51,630.771 1107.5,846.415 1109.49,990.157 1111.47,1043.07 1113.46,1146.06 1115.44,1172.76 1117.43,1146.62 1119.42,1143.31 1121.4,1126.78 
  1123.39,1206.87 1125.37,1236.74 1127.36,1205.41 1129.35,1180.17 1131.33,1193.2 1133.32,1237.64 1135.31,1243.05 1137.29,1191.86 1139.28,1074.7 1141.26,1014.03 
  1143.25,1173.44 1145.24,1261.21 1147.22,1293.99 1149.21,1304.76 1151.19,1303.88 1153.18,1292.91 1155.17,1267.24 1157.15,1211.56 1159.14,1106.03 1161.13,933.114 
  1163.11,769.927 1165.1,848.94 1167.08,777.9 1169.07,505.945 1171.06,619.887 1173.04,604.875 1175.03,435.87 1177.01,370.334 1179,690.891 1180.99,858.1 
  1182.97,983.033 1184.96,1159.33 1186.95,1245.82 1188.93,1286.94 1190.92,1309 1192.9,1321.6 1194.89,1328.51 1196.88,1331.13 1198.86,1329.45 1200.85,1321.88 
  1202.83,1303.65 1204.82,1261.31 1206.81,1155.2 1208.79,930.195 1210.78,933.456 1212.77,1155.61 1214.75,1265.13 1216.74,1311.53 1218.72,1332.7 1220.71,1341.83 
  1222.7,1342.24 1224.68,1342.63 1226.67,1353.17 1228.65,1358.81 1230.64,1359.05 1232.63,1352.64 1234.61,1335.53 1236.6,1337.28 1238.59,1356.34 1240.57,1364.83 
  1242.56,1367.2 1244.54,1365.03 1246.53,1362.97 1248.52,1369.16 1250.5,1373.12 1252.49,1374.82 1254.47,1375.36 1256.46,1375.31 1258.45,1376.29 1260.43,1377.12 
  1262.42,1377.44 1264.41,1377.41 1266.39,1376.92 1268.38,1375.43 1270.36,1371.37 1272.35,1364.98 1274.34,1369.59 1276.32,1375.17 1278.31,1377.51 1280.29,1378.56 
  1282.28,1379.11 1284.27,1379.41 1286.25,1379.55 1288.24,1379.47 1290.23,1379.24 1292.21,1379.57 1294.2,1379.88 1296.18,1380 1298.17,1380.01 1300.16,1379.94 
  1302.14,1379.76 1304.13,1379.4 1306.11,1378.64 1308.1,1376.87 1310.09,1372.52 1312.07,1368.49 1314.06,1373.72 1316.05,1377.32 1318.03,1378.73 1320.02,1379.32 
  1322,1379.57 1323.99,1379.62 1325.98,1379.51 1327.96,1379.12 1329.95,1378.74 1331.93,1378.98 1333.92,1378.99 1335.91,1378.71 1337.89,1378.12 1339.88,1376.98 
  1341.87,1374.5 1343.85,1368.61 1345.84,1362.79 1347.82,1369.17 1349.81,1373.39 1351.8,1374.15 1353.78,1372.47 1355.77,1369 1357.75,1370.37 1359.74,1371.58 
  1361.73,1369.6 1363.71,1362.86 1365.7,1347.66 1367.69,1346.71 1369.67,1361.37 1371.66,1367.72 1373.64,1369.56 1375.63,1369.29 1377.62,1367.41 1379.6,1365.06 
  1381.59,1363.04 1383.57,1358.35 1385.56,1347.34 1387.55,1321.05 1389.53,1275.31 1391.52,1270.24 1393.5,1294.75 1395.49,1328.46 1397.48,1344.11 1399.46,1349.19 
  1401.45,1349.61 1403.44,1347.34 1405.42,1342.85 1407.41,1335.87 1409.39,1325.47 1411.38,1309.69 1413.37,1284.4 1415.35,1239.88 1417.34,1150.59 1419.32,969.808 
  1421.31,789.082 1423.3,526.535 1425.28,86.1857 1427.27,165.504 1429.26,366.402 1431.24,501.512 1433.23,534.363 1435.21,787.402 1437.2,928.317 1439.19,958.998 
  1441.17,1098.09 1443.16,1211.82 1445.14,1262.23 1447.13,1295.44 1449.12,1315.64 1451.1,1326.41 1453.09,1331.69 1455.08,1332.5 1457.06,1327.35 1459.05,1309.99 
  1461.03,1277.97 1463.02,1281.43 1465.01,1287.28 1466.99,1267.15 1468.98,1199.89 1470.96,1141.34 1472.95,1126.73 1474.94,1191.06 1476.92,1246.88 1478.91,1243.13 
  1480.9,1216.15 1482.88,1238.71 1484.87,1233.4 1486.85,1170.52 1488.84,998.49 1490.83,776.3 1492.81,866.123 1494.8,858.902 1496.78,677.57 1498.77,811.735 
  1500.76,919.34 1502.74,762.862 1504.73,446.855 1506.72,484.225 1508.7,873.559 1510.69,1105.13 1512.67,1221.28 1514.66,1275.06 1516.65,1301.64 1518.63,1313.23 
  1520.62,1310.82 1522.6,1284.91 1524.59,1242.42 1526.58,1282.89 1528.56,1326.88 1530.55,1345.51 1532.54,1353.15 1534.52,1355.13 1536.51,1357.37 1538.49,1359.01 
  1540.48,1362.27 1542.47,1362.38 1544.45,1359.19 1546.44,1362.59 1548.42,1364.83 1550.41,1369.16 1552.4,1372.29 1554.38,1373.51 1556.37,1373.53 1558.36,1372 
  1560.34,1367.38 1562.33,1362.52 1564.31,1359.97 1566.3,1359.75 1568.29,1368.26 1570.27,1374.09 1572.26,1376.68 1574.24,1377.97 1576.23,1378.73 1578.22,1379.21 
  1580.2,1379.54 1582.19,1379.77 1584.18,1379.92 1586.16,1380 1588.15,1379.99 1590.13,1379.88 1592.12,1379.58 1594.11,1378.96 1596.09,1377.63 1598.08,1374.5 
  1600.06,1367.41 1602.05,1359.77 1604.04,1364.45 1606.02,1372.11 1608.01,1376.18 1610,1377.27 1611.98,1376.15 1613.97,1374.44 1615.95,1376.36 1617.94,1377.15 
  1619.93,1378.22 1621.91,1378.62 1623.9,1377.33 1625.88,1373.44 1627.87,1372.62 1629.86,1377.12 1631.84,1379.34 1633.83,1380.19 1635.82,1380.49 1637.8,1380.47 
  1639.79,1380.13 1641.77,1379.23 1643.76,1376.99 1645.75,1373.24 1647.73,1373.41 1649.72,1372.48 1651.7,1371.8 1653.69,1376.22 1655.68,1378.79 1657.66,1379.82 
  1659.65,1380.24 1661.64,1380.39 1663.62,1380.41 1665.61,1380.33 1667.59,1380.18 1669.58,1379.94 1671.57,1379.61 1673.55,1379.13 1675.54,1378.41 1677.52,1377.19 
  1679.51,1374.75 1681.5,1369.5 1683.48,1364.43 1685.47,1365.2 1687.46,1368.15 1689.44,1369.11 1691.43,1369.3 1693.41,1370.79 1695.4,1371.23 1697.39,1370.02 
  1699.37,1367.1 1701.36,1362.18 1703.34,1360.54 1705.33,1359.3 1707.32,1354.92 1709.3,1347.48 1711.29,1336.23 1713.28,1317.14 1715.26,1286.97 1717.25,1228.63 
  1719.23,1090.43 1721.22,785.424 1723.21,667.887 1725.19,831.072 1727.18,1008.48 1729.16,1045.4 1731.15,941.297 1733.14,829.452 1735.12,1020.45 1737.11,1196.11 
  1739.1,1265.94 1741.08,1286.48 1743.07,1269.62 1745.05,1253.48 1747.04,1300.55 1749.03,1335.04 1751.01,1350.34 1753,1357.86 1754.98,1361.82 1756.97,1363.64 
  1758.96,1363.59 1760.94,1360.91 1762.93,1353.17 1764.92,1342.61 1766.9,1335.43 1768.89,1310.09 1770.87,1246.43 1772.86,1222.95 1774.85,1296.62 1776.83,1330.62 
  1778.82,1342.42 1780.8,1353.42 1782.79,1358.34 1784.78,1365.85 1786.76,1370.74 1788.75,1373.02 1790.73,1374.93 1792.72,1375.55 1794.71,1374.34 1796.69,1373.3 
  1798.68,1374.09 1800.67,1371.52 1802.65,1371.1 1804.64,1375.84 1806.62,1378.18 1808.61,1378.98 1810.6,1378.96 1812.58,1378.52 1814.57,1377.47 1816.55,1374.19 
  1818.54,1366.78 1820.53,1364.2 1822.51,1372.17 1824.5,1376.23 1826.49,1377.33 1828.47,1376.94 1830.46,1375.11 1832.44,1370.58 1834.43,1361.05 1836.42,1352.55 
  1838.4,1335.4 1840.39,1307.48 1842.37,1324.24 1844.36,1355 1846.35,1368.29 1848.33,1373.46 1850.32,1374.8 1852.31,1375.5 1854.29,1377.47 1856.28,1377.63 
  1858.26,1377.63 1860.25,1379.42 1862.24,1380.15 1864.22,1379.54 1866.21,1377.67 1868.19,1378.33 1870.18,1379.64 1872.17,1379.82 1874.15,1378.63 1876.14,1375.24 
  1878.13,1374.65 1880.11,1374.84 1882.1,1371.7 1884.08,1373.72 1886.07,1375.6 1888.06,1376.89 1890.04,1379.52 1892.03,1380.58 1894.01,1381.6 1896,1382.18 
  1897.99,1382.39 1899.97,1382.36 1901.96,1382.12 1903.95,1381.49 1905.93,1380.16 1907.92,1379.16 1909.9,1378.4 1911.89,1375.18 1913.88,1368.51 1915.86,1362.62 
  1917.85,1354.5 1919.83,1362.55 1921.82,1372.39 1923.81,1375.55 1925.79,1375.61 1927.78,1371.62 1929.77,1368.56 1931.75,1374.5 1933.74,1378.66 1935.72,1379.89 
  1937.71,1379.7 1939.7,1379.92 1941.68,1380.18 1943.67,1379.51 1945.65,1378.1 1947.64,1374.69 1949.63,1374.1 1951.61,1376.98 1953.6,1377.17 1955.59,1374.84 
  1957.57,1376.65 1959.56,1379.41 1961.54,1380.56 1963.53,1380.26 1965.52,1378.34 1967.5,1376.03 1969.49,1374.28 1971.47,1377.57 1973.46,1379.45 1975.45,1380.49 
  1977.43,1381.85 1979.42,1382.45 1981.41,1382.6 1983.39,1382.4 1985.38,1381.57 1987.36,1380.95 1989.35,1381.07 1991.34,1379.63 1993.32,1377.96 1995.31,1379.88 
  1997.29,1380.8 1999.28,1380.2 2001.27,1377.77 2003.25,1371.41 2005.24,1362.57 2007.23,1362.62 2009.21,1371.23 2011.2,1377.85 2013.18,1380.54 2015.17,1381.58 
  2017.16,1381.74 2019.14,1381.02 2021.13,1379.38 2023.11,1380.22 2025.1,1381.64 2027.09,1381.69 2029.07,1381.56 2031.06,1381.59 2033.05,1380.26 2035.03,1379.76 
  2037.02,1381.24 2039,1381.22 2040.99,1381.04 2042.98,1382.04 2044.96,1382.6 2046.95,1382.48 2048.93,1381.74 2050.92,1381.9 2052.91,1381.9 2054.89,1380.58 
  2056.88,1378.63 2058.87,1378.77 2060.85,1381.13 2062.84,1382.11 2064.82,1382.5 2066.81,1383.09 2068.8,1383.29 2070.78,1382.99 2072.77,1381.9 2074.75,1380.81 
  2076.74,1382.16 2078.73,1383.06 2080.71,1383.27 2082.7,1383.08 2084.69,1382.43 2086.67,1381.51 2088.66,1379.71 2090.64,1374.8 2092.63,1370.98 2094.62,1376.12 
  2096.6,1380.32 2098.59,1381.95 2100.57,1382.32 2102.56,1381.65 2104.55,1380.52 2106.53,1381.7 2108.52,1382.84 2110.51,1383.27 2112.49,1383.21 2114.48,1382.6 
  2116.46,1381.02 2118.45,1380.15 2120.44,1380.2 2122.42,1381.08 2124.41,1382.24 2126.39,1382.97 2128.38,1383.01 2130.37,1382.68 2132.35,1383.04 2134.34,1383.28 
  2136.33,1383.21 2138.31,1382.93 2140.3,1381.83 2142.28,1380.3 2144.27,1379.05 2146.26,1380.94 2148.24,1382.71 2150.23,1383.35 2152.21,1383.44 2154.2,1383.18 
  2156.19,1383.22 2158.17,1383.1 2160.16,1382.34 2162.15,1381.33 2164.13,1380.3 2166.12,1381.16 2168.1,1381.21 2170.09,1379.05 2172.08,1375.36 2174.06,1377.76 
  2176.05,1379.75 2178.03,1379.05 2180.02,1380.44 2182.01,1382.32 2183.99,1382.99 2185.98,1382.93 2187.97,1382.11 2189.95,1381.72 2191.94,1382.06 2193.92,1381.26 
  2195.91,1381.95 2197.9,1383.14 2199.88,1383.5 2201.87,1383.32 2203.85,1382.55 2205.84,1382.14 2207.83,1383.09 2209.81,1383.56 2211.8,1383.5 2213.78,1383.23 
  2215.77,1383.34 2217.76,1383.76 2219.74,1383.8 2221.73,1383.46 2223.72,1382.55 2225.7,1381.15 2227.69,1380.69 2229.67,1382.37 2231.66,1383.29 2233.65,1383.42 
  2235.63,1383.01 2237.62,1382.62 2239.6,1382.85 2241.59,1382.2 2243.58,1380.49 2245.56,1380.48 2247.55,1381.12 2249.54,1381.36 2251.52,1381.8 2253.51,1383.01 
  2255.49,1383.47 2257.48,1383.36 2259.47,1382.58 2261.45,1380.99 2263.44,1381.53 2265.42,1383.08 2267.41,1383.69 2269.4,1383.84 2271.38,1383.66 2273.37,1382.95 
  2275.36,1381.36 2277.34,1381.01 2279.33,1382.41 2281.31,1383.33 2283.3,1383.91 2285.29,1384.16 2287.27,1384.24 2289.26,1384.21 2291.24,1384.05 2293.23,1383.61 
  
  "/>
<path clip-path="url(#clip440)" d="
M1996.53 196.789 L2282.65 196.789 L2282.65 93.1086 L1996.53 93.1086  Z
  " fill="#ffffff" fill-rule="evenodd" fill-opacity="1"/>
<polyline clip-path="url(#clip440)" style="stroke:#000000; stroke-linecap:butt; stroke-linejoin:round; stroke-width:4; stroke-opacity:1; fill:none" points="
  1996.53,196.789 2282.65,196.789 2282.65,93.1086 1996.53,93.1086 1996.53,196.789 
  "/>
<polyline clip-path="url(#clip440)" style="stroke:#009af9; stroke-linecap:butt; stroke-linejoin:round; stroke-width:4; stroke-opacity:1; fill:none" points="
  2019.9,144.949 2160.11,144.949 
  "/>
<path clip-path="url(#clip440)" d="M2197.32 164.636 Q2195.52 169.266 2193.8 170.678 Q2192.09 172.09 2189.22 172.09 L2185.82 172.09 L2185.82 168.525 L2188.32 168.525 Q2190.08 168.525 2191.05 167.692 Q2192.02 166.858 2193.2 163.756 L2193.97 161.812 L2183.48 136.303 L2187.99 136.303 L2196.1 156.581 L2204.2 136.303 L2208.71 136.303 L2197.32 164.636 Z" fill="#000000" fill-rule="evenodd" fill-opacity="1" /><path clip-path="url(#clip440)" d="M2216 158.293 L2223.64 158.293 L2223.64 131.928 L2215.33 133.595 L2215.33 129.335 L2223.6 127.669 L2228.27 127.669 L2228.27 158.293 L2235.91 158.293 L2235.91 162.229 L2216 162.229 L2216 158.293 Z" fill="#000000" fill-rule="evenodd" fill-opacity="1" /></svg>
