<?xml version="1.0" encoding="utf-8"?>
<svg xmlns="http://www.w3.org/2000/svg" xmlns:xlink="http://www.w3.org/1999/xlink" width="600" height="400" viewBox="0 0 2400 1600">
<defs>
  <clipPath id="clip480">
    <rect x="0" y="0" width="2400" height="1600"/>
  </clipPath>
</defs>
<path clip-path="url(#clip480)" d="
M0 1600 L2400 1600 L2400 0 L0 0  Z
  " fill="#ffffff" fill-rule="evenodd" fill-opacity="1"/>
<defs>
  <clipPath id="clip481">
    <rect x="480" y="0" width="1681" height="1600"/>
  </clipPath>
</defs>
<path clip-path="url(#clip480)" d="
M219.866 1423.18 L2352.76 1423.18 L2352.76 47.2441 L219.866 47.2441  Z
  " fill="#ffffff" fill-rule="evenodd" fill-opacity="1"/>
<defs>
  <clipPath id="clip482">
    <rect x="219" y="47" width="2134" height="1377"/>
  </clipPath>
</defs>
<polyline clip-path="url(#clip482)" style="stroke:#000000; stroke-linecap:butt; stroke-linejoin:round; stroke-width:2; stroke-opacity:0.1; fill:none" points="
  280.231,1423.18 280.231,47.2441 
  "/>
<polyline clip-path="url(#clip482)" style="stroke:#000000; stroke-linecap:butt; stroke-linejoin:round; stroke-width:2; stroke-opacity:0.1; fill:none" points="
  783.271,1423.18 783.271,47.2441 
  "/>
<polyline clip-path="url(#clip482)" style="stroke:#000000; stroke-linecap:butt; stroke-linejoin:round; stroke-width:2; stroke-opacity:0.1; fill:none" points="
  1286.31,1423.18 1286.31,47.2441 
  "/>
<polyline clip-path="url(#clip482)" style="stroke:#000000; stroke-linecap:butt; stroke-linejoin:round; stroke-width:2; stroke-opacity:0.1; fill:none" points="
  1789.35,1423.18 1789.35,47.2441 
  "/>
<polyline clip-path="url(#clip482)" style="stroke:#000000; stroke-linecap:butt; stroke-linejoin:round; stroke-width:2; stroke-opacity:0.1; fill:none" points="
  2292.39,1423.18 2292.39,47.2441 
  "/>
<polyline clip-path="url(#clip480)" style="stroke:#000000; stroke-linecap:butt; stroke-linejoin:round; stroke-width:4; stroke-opacity:1; fill:none" points="
  219.866,1423.18 2352.76,1423.18 
  "/>
<polyline clip-path="url(#clip480)" style="stroke:#000000; stroke-linecap:butt; stroke-linejoin:round; stroke-width:4; stroke-opacity:1; fill:none" points="
  280.231,1423.18 280.231,1404.28 
  "/>
<polyline clip-path="url(#clip480)" style="stroke:#000000; stroke-linecap:butt; stroke-linejoin:round; stroke-width:4; stroke-opacity:1; fill:none" points="
  783.271,1423.18 783.271,1404.28 
  "/>
<polyline clip-path="url(#clip480)" style="stroke:#000000; stroke-linecap:butt; stroke-linejoin:round; stroke-width:4; stroke-opacity:1; fill:none" points="
  1286.31,1423.18 1286.31,1404.28 
  "/>
<polyline clip-path="url(#clip480)" style="stroke:#000000; stroke-linecap:butt; stroke-linejoin:round; stroke-width:4; stroke-opacity:1; fill:none" points="
  1789.35,1423.18 1789.35,1404.28 
  "/>
<polyline clip-path="url(#clip480)" style="stroke:#000000; stroke-linecap:butt; stroke-linejoin:round; stroke-width:4; stroke-opacity:1; fill:none" points="
  2292.39,1423.18 2292.39,1404.28 
  "/>
<path clip-path="url(#clip480)" d="M249.132 1468.75 L278.807 1468.75 L278.807 1472.69 L249.132 1472.69 L249.132 1468.75 Z" fill="#000000" fill-rule="evenodd" fill-opacity="1" /><path clip-path="url(#clip480)" d="M301.747 1455.09 L289.942 1473.54 L301.747 1473.54 L301.747 1455.09 M300.52 1451.02 L306.4 1451.02 L306.4 1473.54 L311.33 1473.54 L311.33 1477.43 L306.4 1477.43 L306.4 1485.58 L301.747 1485.58 L301.747 1477.43 L286.145 1477.43 L286.145 1472.92 L300.52 1451.02 Z" fill="#000000" fill-rule="evenodd" fill-opacity="1" /><path clip-path="url(#clip480)" d="M753.213 1468.75 L782.889 1468.75 L782.889 1472.69 L753.213 1472.69 L753.213 1468.75 Z" fill="#000000" fill-rule="evenodd" fill-opacity="1" /><path clip-path="url(#clip480)" d="M797.009 1481.64 L813.329 1481.64 L813.329 1485.58 L791.384 1485.58 L791.384 1481.64 Q794.046 1478.89 798.63 1474.26 Q803.236 1469.61 804.417 1468.27 Q806.662 1465.74 807.542 1464.01 Q808.445 1462.25 808.445 1460.56 Q808.445 1457.8 806.5 1456.07 Q804.579 1454.33 801.477 1454.33 Q799.278 1454.33 796.824 1455.09 Q794.394 1455.86 791.616 1457.41 L791.616 1452.69 Q794.44 1451.55 796.894 1450.97 Q799.347 1450.39 801.384 1450.39 Q806.755 1450.39 809.949 1453.08 Q813.144 1455.77 813.144 1460.26 Q813.144 1462.39 812.333 1464.31 Q811.546 1466.2 809.44 1468.8 Q808.861 1469.47 805.759 1472.69 Q802.658 1475.88 797.009 1481.64 Z" fill="#000000" fill-rule="evenodd" fill-opacity="1" /><path clip-path="url(#clip480)" d="M1286.31 1454.1 Q1282.7 1454.1 1280.87 1457.66 Q1279.07 1461.2 1279.07 1468.33 Q1279.07 1475.44 1280.87 1479.01 Q1282.7 1482.55 1286.31 1482.55 Q1289.95 1482.55 1291.75 1479.01 Q1293.58 1475.44 1293.58 1468.33 Q1293.58 1461.2 1291.75 1457.66 Q1289.95 1454.1 1286.31 1454.1 M1286.31 1450.39 Q1292.12 1450.39 1295.18 1455 Q1298.26 1459.58 1298.26 1468.33 Q1298.26 1477.06 1295.18 1481.67 Q1292.12 1486.25 1286.31 1486.25 Q1280.5 1486.25 1277.42 1481.67 Q1274.37 1477.06 1274.37 1468.33 Q1274.37 1459.58 1277.42 1455 Q1280.5 1450.39 1286.31 1450.39 Z" fill="#000000" fill-rule="evenodd" fill-opacity="1" /><path clip-path="url(#clip480)" d="M1784 1481.64 L1800.32 1481.64 L1800.32 1485.58 L1778.38 1485.58 L1778.38 1481.64 Q1781.04 1478.89 1785.62 1474.26 Q1790.23 1469.61 1791.41 1468.27 Q1793.66 1465.74 1794.54 1464.01 Q1795.44 1462.25 1795.44 1460.56 Q1795.44 1457.8 1793.49 1456.07 Q1791.57 1454.33 1788.47 1454.33 Q1786.27 1454.33 1783.82 1455.09 Q1781.39 1455.86 1778.61 1457.41 L1778.61 1452.69 Q1781.43 1451.55 1783.89 1450.97 Q1786.34 1450.39 1788.38 1450.39 Q1793.75 1450.39 1796.94 1453.08 Q1800.14 1455.77 1800.14 1460.26 Q1800.14 1462.39 1799.33 1464.31 Q1798.54 1466.2 1796.43 1468.8 Q1795.86 1469.47 1792.75 1472.69 Q1789.65 1475.88 1784 1481.64 Z" fill="#000000" fill-rule="evenodd" fill-opacity="1" /><path clip-path="url(#clip480)" d="M2295.4 1455.09 L2283.59 1473.54 L2295.4 1473.54 L2295.4 1455.09 M2294.17 1451.02 L2300.05 1451.02 L2300.05 1473.54 L2304.98 1473.54 L2304.98 1477.43 L2300.05 1477.43 L2300.05 1485.58 L2295.4 1485.58 L2295.4 1477.43 L2279.8 1477.43 L2279.8 1472.92 L2294.17 1451.02 Z" fill="#000000" fill-rule="evenodd" fill-opacity="1" /><path clip-path="url(#clip480)" d="M1129.64 1520.52 L1159.68 1520.52 L1159.68 1525.93 L1136.06 1525.93 L1136.06 1540 L1158.69 1540 L1158.69 1545.41 L1136.06 1545.41 L1136.06 1562.63 L1160.25 1562.63 L1160.25 1568.04 L1129.64 1568.04 L1129.64 1520.52 Z" fill="#000000" fill-rule="evenodd" fill-opacity="1" /><path clip-path="url(#clip480)" d="M1200.2 1546.53 L1200.2 1568.04 L1194.34 1568.04 L1194.34 1546.72 Q1194.34 1541.66 1192.37 1539.14 Q1190.4 1536.63 1186.45 1536.63 Q1181.71 1536.63 1178.97 1539.65 Q1176.23 1542.68 1176.23 1547.9 L1176.23 1568.04 L1170.34 1568.04 L1170.34 1532.4 L1176.23 1532.4 L1176.23 1537.93 Q1178.33 1534.72 1181.17 1533.13 Q1184.03 1531.54 1187.75 1531.54 Q1193.9 1531.54 1197.05 1535.36 Q1200.2 1539.14 1200.2 1546.53 Z" fill="#000000" fill-rule="evenodd" fill-opacity="1" /><path clip-path="url(#clip480)" d="M1242.37 1548.76 L1242.37 1551.62 L1215.44 1551.62 Q1215.83 1557.67 1219.07 1560.85 Q1222.35 1564 1228.18 1564 Q1231.55 1564 1234.7 1563.17 Q1237.88 1562.35 1241 1560.69 L1241 1566.23 Q1237.85 1567.57 1234.54 1568.27 Q1231.23 1568.97 1227.83 1568.97 Q1219.3 1568.97 1214.3 1564 Q1209.33 1559.04 1209.33 1550.57 Q1209.33 1541.82 1214.04 1536.69 Q1218.79 1531.54 1226.81 1531.54 Q1234 1531.54 1238.17 1536.18 Q1242.37 1540.8 1242.37 1548.76 M1236.52 1547.04 Q1236.45 1542.23 1233.81 1539.37 Q1231.2 1536.5 1226.87 1536.5 Q1221.97 1536.5 1219.01 1539.27 Q1216.08 1542.04 1215.64 1547.07 L1236.52 1547.04 Z" fill="#000000" fill-rule="evenodd" fill-opacity="1" /><path clip-path="url(#clip480)" d="M1272.64 1537.87 Q1271.65 1537.3 1270.48 1537.04 Q1269.33 1536.76 1267.93 1536.76 Q1262.96 1536.76 1260.29 1540 Q1257.65 1543.22 1257.65 1549.27 L1257.65 1568.04 L1251.76 1568.04 L1251.76 1532.4 L1257.65 1532.4 L1257.65 1537.93 Q1259.5 1534.69 1262.46 1533.13 Q1265.42 1531.54 1269.65 1531.54 Q1270.25 1531.54 1270.99 1531.63 Q1271.72 1531.7 1272.61 1531.85 L1272.64 1537.87 Z" fill="#000000" fill-rule="evenodd" fill-opacity="1" /><path clip-path="url(#clip480)" d="M1301.1 1549.81 Q1301.1 1543.44 1298.45 1539.94 Q1295.84 1536.44 1291.1 1536.44 Q1286.39 1536.44 1283.75 1539.94 Q1281.14 1543.44 1281.14 1549.81 Q1281.14 1556.14 1283.75 1559.64 Q1286.39 1563.14 1291.1 1563.14 Q1295.84 1563.14 1298.45 1559.64 Q1301.1 1556.14 1301.1 1549.81 M1306.95 1563.62 Q1306.95 1572.72 1302.91 1577.15 Q1298.87 1581.6 1290.53 1581.6 Q1287.44 1581.6 1284.7 1581.13 Q1281.97 1580.68 1279.39 1579.72 L1279.39 1574.03 Q1281.97 1575.43 1284.48 1576.1 Q1287 1576.76 1289.61 1576.76 Q1295.37 1576.76 1298.23 1573.74 Q1301.1 1570.75 1301.1 1564.67 L1301.1 1561.77 Q1299.28 1564.92 1296.45 1566.48 Q1293.62 1568.04 1289.67 1568.04 Q1283.11 1568.04 1279.1 1563.05 Q1275.09 1558.05 1275.09 1549.81 Q1275.09 1541.53 1279.1 1536.53 Q1283.11 1531.54 1289.67 1531.54 Q1293.62 1531.54 1296.45 1533.1 Q1299.28 1534.66 1301.1 1537.81 L1301.1 1532.4 L1306.95 1532.4 L1306.95 1563.62 Z" fill="#000000" fill-rule="evenodd" fill-opacity="1" /><path clip-path="url(#clip480)" d="M1333.85 1571.35 Q1331.36 1577.72 1329.01 1579.66 Q1326.65 1581.6 1322.71 1581.6 L1318.03 1581.6 L1318.03 1576.7 L1321.47 1576.7 Q1323.88 1576.7 1325.22 1575.56 Q1326.56 1574.41 1328.18 1570.14 L1329.23 1567.47 L1314.81 1532.4 L1321.02 1532.4 L1332.16 1560.28 L1343.3 1532.4 L1349.51 1532.4 L1333.85 1571.35 Z" fill="#000000" fill-rule="evenodd" fill-opacity="1" /><path clip-path="url(#clip480)" d="M1377.77 1518.52 L1391.27 1518.52 L1391.27 1523.07 L1383.63 1523.07 L1383.63 1572.09 L1391.27 1572.09 L1391.27 1576.64 L1377.77 1576.64 L1377.77 1518.52 Z" fill="#000000" fill-rule="evenodd" fill-opacity="1" /><path clip-path="url(#clip480)" d="M1409.54 1522.27 L1409.54 1532.4 L1421.6 1532.4 L1421.6 1536.95 L1409.54 1536.95 L1409.54 1556.3 Q1409.54 1560.66 1410.71 1561.9 Q1411.92 1563.14 1415.58 1563.14 L1421.6 1563.14 L1421.6 1568.04 L1415.58 1568.04 Q1408.8 1568.04 1406.23 1565.53 Q1403.65 1562.98 1403.65 1556.3 L1403.65 1536.95 L1399.35 1536.95 L1399.35 1532.4 L1403.65 1532.4 L1403.65 1522.27 L1409.54 1522.27 Z" fill="#000000" fill-rule="evenodd" fill-opacity="1" /><path clip-path="url(#clip480)" d="M1442.99 1518.52 L1442.99 1576.64 L1429.49 1576.64 L1429.49 1572.09 L1437.1 1572.09 L1437.1 1523.07 L1429.49 1523.07 L1429.49 1518.52 L1442.99 1518.52 Z" fill="#000000" fill-rule="evenodd" fill-opacity="1" /><polyline clip-path="url(#clip482)" style="stroke:#000000; stroke-linecap:butt; stroke-linejoin:round; stroke-width:2; stroke-opacity:0.1; fill:none" points="
  219.866,1385.72 2352.76,1385.72 
  "/>
<polyline clip-path="url(#clip482)" style="stroke:#000000; stroke-linecap:butt; stroke-linejoin:round; stroke-width:2; stroke-opacity:0.1; fill:none" points="
  219.866,1080.47 2352.76,1080.47 
  "/>
<polyline clip-path="url(#clip482)" style="stroke:#000000; stroke-linecap:butt; stroke-linejoin:round; stroke-width:2; stroke-opacity:0.1; fill:none" points="
  219.866,775.223 2352.76,775.223 
  "/>
<polyline clip-path="url(#clip482)" style="stroke:#000000; stroke-linecap:butt; stroke-linejoin:round; stroke-width:2; stroke-opacity:0.1; fill:none" points="
  219.866,469.977 2352.76,469.977 
  "/>
<polyline clip-path="url(#clip482)" style="stroke:#000000; stroke-linecap:butt; stroke-linejoin:round; stroke-width:2; stroke-opacity:0.1; fill:none" points="
  219.866,164.732 2352.76,164.732 
  "/>
<polyline clip-path="url(#clip480)" style="stroke:#000000; stroke-linecap:butt; stroke-linejoin:round; stroke-width:4; stroke-opacity:1; fill:none" points="
  219.866,1423.18 219.866,47.2441 
  "/>
<polyline clip-path="url(#clip480)" style="stroke:#000000; stroke-linecap:butt; stroke-linejoin:round; stroke-width:4; stroke-opacity:1; fill:none" points="
  219.866,1385.72 238.764,1385.72 
  "/>
<polyline clip-path="url(#clip480)" style="stroke:#000000; stroke-linecap:butt; stroke-linejoin:round; stroke-width:4; stroke-opacity:1; fill:none" points="
  219.866,1080.47 238.764,1080.47 
  "/>
<polyline clip-path="url(#clip480)" style="stroke:#000000; stroke-linecap:butt; stroke-linejoin:round; stroke-width:4; stroke-opacity:1; fill:none" points="
  219.866,775.223 238.764,775.223 
  "/>
<polyline clip-path="url(#clip480)" style="stroke:#000000; stroke-linecap:butt; stroke-linejoin:round; stroke-width:4; stroke-opacity:1; fill:none" points="
  219.866,469.977 238.764,469.977 
  "/>
<polyline clip-path="url(#clip480)" style="stroke:#000000; stroke-linecap:butt; stroke-linejoin:round; stroke-width:4; stroke-opacity:1; fill:none" points="
  219.866,164.732 238.764,164.732 
  "/>
<path clip-path="url(#clip480)" d="M126.691 1371.51 Q123.08 1371.51 121.251 1375.08 Q119.445 1378.62 119.445 1385.75 Q119.445 1392.86 121.251 1396.42 Q123.08 1399.96 126.691 1399.96 Q130.325 1399.96 132.13 1396.42 Q133.959 1392.86 133.959 1385.75 Q133.959 1378.62 132.13 1375.08 Q130.325 1371.51 126.691 1371.51 M126.691 1367.81 Q132.501 1367.81 135.556 1372.42 Q138.635 1377 138.635 1385.75 Q138.635 1394.48 135.556 1399.08 Q132.501 1403.67 126.691 1403.67 Q120.88 1403.67 117.802 1399.08 Q114.746 1394.48 114.746 1385.75 Q114.746 1377 117.802 1372.42 Q120.88 1367.81 126.691 1367.81 Z" fill="#000000" fill-rule="evenodd" fill-opacity="1" /><path clip-path="url(#clip480)" d="M146.853 1397.12 L151.737 1397.12 L151.737 1403 L146.853 1403 L146.853 1397.12 Z" fill="#000000" fill-rule="evenodd" fill-opacity="1" /><path clip-path="url(#clip480)" d="M171.922 1371.51 Q168.311 1371.51 166.482 1375.08 Q164.677 1378.62 164.677 1385.75 Q164.677 1392.86 166.482 1396.42 Q168.311 1399.96 171.922 1399.96 Q175.556 1399.96 177.362 1396.42 Q179.19 1392.86 179.19 1385.75 Q179.19 1378.62 177.362 1375.08 Q175.556 1371.51 171.922 1371.51 M171.922 1367.81 Q177.732 1367.81 180.788 1372.42 Q183.866 1377 183.866 1385.75 Q183.866 1394.48 180.788 1399.08 Q177.732 1403.67 171.922 1403.67 Q166.112 1403.67 163.033 1399.08 Q159.978 1394.48 159.978 1385.75 Q159.978 1377 163.033 1372.42 Q166.112 1367.81 171.922 1367.81 Z" fill="#000000" fill-rule="evenodd" fill-opacity="1" /><path clip-path="url(#clip480)" d="M128.288 1066.27 Q124.677 1066.27 122.848 1069.83 Q121.043 1073.37 121.043 1080.5 Q121.043 1087.61 122.848 1091.18 Q124.677 1094.72 128.288 1094.72 Q131.922 1094.72 133.728 1091.18 Q135.556 1087.61 135.556 1080.5 Q135.556 1073.37 133.728 1069.83 Q131.922 1066.27 128.288 1066.27 M128.288 1062.56 Q134.098 1062.56 137.154 1067.17 Q140.232 1071.75 140.232 1080.5 Q140.232 1089.23 137.154 1093.84 Q134.098 1098.42 128.288 1098.42 Q122.478 1098.42 119.399 1093.84 Q116.343 1089.23 116.343 1080.5 Q116.343 1071.75 119.399 1067.17 Q122.478 1062.56 128.288 1062.56 Z" fill="#000000" fill-rule="evenodd" fill-opacity="1" /><path clip-path="url(#clip480)" d="M148.45 1091.87 L153.334 1091.87 L153.334 1097.75 L148.45 1097.75 L148.45 1091.87 Z" fill="#000000" fill-rule="evenodd" fill-opacity="1" /><path clip-path="url(#clip480)" d="M167.547 1093.81 L183.866 1093.81 L183.866 1097.75 L161.922 1097.75 L161.922 1093.81 Q164.584 1091.06 169.167 1086.43 Q173.774 1081.78 174.954 1080.43 Q177.2 1077.91 178.079 1076.18 Q178.982 1074.42 178.982 1072.73 Q178.982 1069.97 177.038 1068.24 Q175.116 1066.5 172.014 1066.5 Q169.815 1066.5 167.362 1067.26 Q164.931 1068.03 162.153 1069.58 L162.153 1064.86 Q164.977 1063.72 167.431 1063.14 Q169.885 1062.56 171.922 1062.56 Q177.292 1062.56 180.487 1065.25 Q183.681 1067.93 183.681 1072.43 Q183.681 1074.56 182.871 1076.48 Q182.084 1078.37 179.977 1080.97 Q179.399 1081.64 176.297 1084.86 Q173.195 1088.05 167.547 1093.81 Z" fill="#000000" fill-rule="evenodd" fill-opacity="1" /><path clip-path="url(#clip480)" d="M126.205 761.022 Q122.593 761.022 120.765 764.587 Q118.959 768.129 118.959 775.258 Q118.959 782.365 120.765 785.929 Q122.593 789.471 126.205 789.471 Q129.839 789.471 131.644 785.929 Q133.473 782.365 133.473 775.258 Q133.473 768.129 131.644 764.587 Q129.839 761.022 126.205 761.022 M126.205 757.318 Q132.015 757.318 135.07 761.925 Q138.149 766.508 138.149 775.258 Q138.149 783.985 135.07 788.591 Q132.015 793.175 126.205 793.175 Q120.394 793.175 117.316 788.591 Q114.26 783.985 114.26 775.258 Q114.26 766.508 117.316 761.925 Q120.394 757.318 126.205 757.318 Z" fill="#000000" fill-rule="evenodd" fill-opacity="1" /><path clip-path="url(#clip480)" d="M146.366 786.624 L151.251 786.624 L151.251 792.503 L146.366 792.503 L146.366 786.624 Z" fill="#000000" fill-rule="evenodd" fill-opacity="1" /><path clip-path="url(#clip480)" d="M174.283 762.018 L162.477 780.466 L174.283 780.466 L174.283 762.018 M173.056 757.943 L178.936 757.943 L178.936 780.466 L183.866 780.466 L183.866 784.355 L178.936 784.355 L178.936 792.503 L174.283 792.503 L174.283 784.355 L158.681 784.355 L158.681 779.841 L173.056 757.943 Z" fill="#000000" fill-rule="evenodd" fill-opacity="1" /><path clip-path="url(#clip480)" d="M126.529 455.776 Q122.918 455.776 121.089 459.341 Q119.283 462.883 119.283 470.012 Q119.283 477.119 121.089 480.683 Q122.918 484.225 126.529 484.225 Q130.163 484.225 131.968 480.683 Q133.797 477.119 133.797 470.012 Q133.797 462.883 131.968 459.341 Q130.163 455.776 126.529 455.776 M126.529 452.072 Q132.339 452.072 135.394 456.679 Q138.473 461.262 138.473 470.012 Q138.473 478.739 135.394 483.345 Q132.339 487.929 126.529 487.929 Q120.718 487.929 117.64 483.345 Q114.584 478.739 114.584 470.012 Q114.584 461.262 117.64 456.679 Q120.718 452.072 126.529 452.072 Z" fill="#000000" fill-rule="evenodd" fill-opacity="1" /><path clip-path="url(#clip480)" d="M146.691 481.378 L151.575 481.378 L151.575 487.257 L146.691 487.257 L146.691 481.378 Z" fill="#000000" fill-rule="evenodd" fill-opacity="1" /><path clip-path="url(#clip480)" d="M172.339 468.114 Q169.19 468.114 167.339 470.267 Q165.51 472.42 165.51 476.17 Q165.51 479.896 167.339 482.072 Q169.19 484.225 172.339 484.225 Q175.487 484.225 177.315 482.072 Q179.167 479.896 179.167 476.17 Q179.167 472.42 177.315 470.267 Q175.487 468.114 172.339 468.114 M181.621 453.461 L181.621 457.721 Q179.862 456.887 178.056 456.447 Q176.274 456.008 174.514 456.008 Q169.885 456.008 167.431 459.133 Q165.001 462.258 164.653 468.577 Q166.019 466.563 168.079 465.498 Q170.139 464.41 172.616 464.41 Q177.825 464.41 180.834 467.582 Q183.866 470.73 183.866 476.17 Q183.866 481.494 180.718 484.711 Q177.57 487.929 172.339 487.929 Q166.343 487.929 163.172 483.345 Q160.001 478.739 160.001 470.012 Q160.001 461.818 163.89 456.957 Q167.778 452.072 174.329 452.072 Q176.089 452.072 177.871 452.42 Q179.676 452.767 181.621 453.461 Z" fill="#000000" fill-rule="evenodd" fill-opacity="1" /><path clip-path="url(#clip480)" d="M126.783 150.53 Q123.172 150.53 121.343 154.095 Q119.538 157.637 119.538 164.766 Q119.538 171.873 121.343 175.437 Q123.172 178.979 126.783 178.979 Q130.417 178.979 132.223 175.437 Q134.052 171.873 134.052 164.766 Q134.052 157.637 132.223 154.095 Q130.417 150.53 126.783 150.53 M126.783 146.827 Q132.593 146.827 135.649 151.433 Q138.728 156.016 138.728 164.766 Q138.728 173.493 135.649 178.1 Q132.593 182.683 126.783 182.683 Q120.973 182.683 117.894 178.1 Q114.839 173.493 114.839 164.766 Q114.839 156.016 117.894 151.433 Q120.973 146.827 126.783 146.827 Z" fill="#000000" fill-rule="evenodd" fill-opacity="1" /><path clip-path="url(#clip480)" d="M146.945 176.132 L151.829 176.132 L151.829 182.012 L146.945 182.012 L146.945 176.132 Z" fill="#000000" fill-rule="evenodd" fill-opacity="1" /><path clip-path="url(#clip480)" d="M172.014 165.6 Q168.681 165.6 166.76 167.382 Q164.862 169.164 164.862 172.289 Q164.862 175.414 166.76 177.197 Q168.681 178.979 172.014 178.979 Q175.348 178.979 177.269 177.197 Q179.19 175.391 179.19 172.289 Q179.19 169.164 177.269 167.382 Q175.371 165.6 172.014 165.6 M167.339 163.609 Q164.329 162.868 162.64 160.808 Q160.973 158.748 160.973 155.785 Q160.973 151.641 163.913 149.234 Q166.876 146.827 172.014 146.827 Q177.176 146.827 180.116 149.234 Q183.056 151.641 183.056 155.785 Q183.056 158.748 181.366 160.808 Q179.7 162.868 176.714 163.609 Q180.093 164.396 181.968 166.688 Q183.866 168.979 183.866 172.289 Q183.866 177.312 180.788 179.998 Q177.732 182.683 172.014 182.683 Q166.297 182.683 163.218 179.998 Q160.163 177.312 160.163 172.289 Q160.163 168.979 162.061 166.688 Q163.959 164.396 167.339 163.609 M165.626 156.225 Q165.626 158.91 167.292 160.414 Q168.982 161.919 172.014 161.919 Q175.024 161.919 176.714 160.414 Q178.426 158.91 178.426 156.225 Q178.426 153.539 176.714 152.035 Q175.024 150.53 172.014 150.53 Q168.982 150.53 167.292 152.035 Q165.626 153.539 165.626 156.225 Z" fill="#000000" fill-rule="evenodd" fill-opacity="1" /><path clip-path="url(#clip480)" d="M16.4842 896.471 L16.4842 890.042 L58.5933 890.042 L58.5933 866.903 L64.0042 866.903 L64.0042 896.471 L16.4842 896.471 Z" fill="#000000" fill-rule="evenodd" fill-opacity="1" /><path clip-path="url(#clip480)" d="M32.4621 847.742 Q32.4621 852.452 36.1542 855.19 Q39.8145 857.927 46.212 857.927 Q52.6095 857.927 56.3017 855.221 Q59.9619 852.484 59.9619 847.742 Q59.9619 843.063 56.2698 840.326 Q52.5777 837.588 46.212 837.588 Q39.8781 837.588 36.186 840.326 Q32.4621 843.063 32.4621 847.742 M27.4968 847.742 Q27.4968 840.103 32.4621 835.742 Q37.4273 831.382 46.212 831.382 Q54.9649 831.382 59.9619 835.742 Q64.9272 840.103 64.9272 847.742 Q64.9272 855.412 59.9619 859.773 Q54.9649 864.102 46.212 864.102 Q37.4273 864.102 32.4621 859.773 Q27.4968 855.412 27.4968 847.742 Z" fill="#000000" fill-rule="evenodd" fill-opacity="1" /><path clip-path="url(#clip480)" d="M29.7248 796.02 L35.1993 796.02 Q33.8307 798.503 33.1623 801.017 Q32.4621 803.5 32.4621 806.046 Q32.4621 811.744 36.0905 814.895 Q39.6872 818.046 46.212 818.046 Q52.7369 818.046 56.3653 814.895 Q59.9619 811.744 59.9619 806.046 Q59.9619 803.5 59.2935 801.017 Q58.5933 798.503 57.2247 796.02 L62.6355 796.02 Q63.7814 798.471 64.3543 801.113 Q64.9272 803.723 64.9272 806.683 Q64.9272 814.736 59.8664 819.478 Q54.8057 824.22 46.212 824.22 Q37.491 824.22 32.4939 819.446 Q27.4968 814.64 27.4968 806.301 Q27.4968 803.596 28.0697 801.017 Q28.6108 798.439 29.7248 796.02 Z" fill="#000000" fill-rule="evenodd" fill-opacity="1" /><path clip-path="url(#clip480)" d="M46.0847 769.635 Q46.0847 776.732 47.7079 779.47 Q49.3312 782.207 53.2461 782.207 Q56.3653 782.207 58.2114 780.17 Q60.0256 778.101 60.0256 774.568 Q60.0256 769.698 56.5881 766.77 Q53.1188 763.81 47.3897 763.81 L46.0847 763.81 L46.0847 769.635 M43.6657 757.953 L64.0042 757.953 L64.0042 763.81 L58.5933 763.81 Q61.8398 765.815 63.3994 768.807 Q64.9272 771.799 64.9272 776.128 Q64.9272 781.602 61.8716 784.849 Q58.7843 788.063 53.6281 788.063 Q47.6125 788.063 44.5569 784.053 Q41.5014 780.011 41.5014 772.022 L41.5014 763.81 L40.9285 763.81 Q36.8862 763.81 34.6901 766.484 Q32.4621 769.125 32.4621 773.931 Q32.4621 776.987 33.1941 779.883 Q33.9262 782.78 35.3903 785.453 L29.9795 785.453 Q28.7381 782.239 28.1334 779.215 Q27.4968 776.191 27.4968 773.327 Q27.4968 765.592 31.5072 761.773 Q35.5176 757.953 43.6657 757.953 Z" fill="#000000" fill-rule="evenodd" fill-opacity="1" /><path clip-path="url(#clip480)" d="M14.479 745.89 L14.479 740.034 L64.0042 740.034 L64.0042 745.89 L14.479 745.89 Z" fill="#000000" fill-rule="evenodd" fill-opacity="1" /><path clip-path="url(#clip480)" d="M21.7677 700.376 L58.7206 700.376 L58.7206 692.609 Q58.7206 682.774 54.2646 678.223 Q49.8086 673.64 40.1964 673.64 Q30.6479 673.64 26.2237 678.223 Q21.7677 682.774 21.7677 692.609 L21.7677 700.376 M16.4842 706.805 L16.4842 693.596 Q16.4842 679.783 22.2451 673.321 Q27.9743 666.86 40.1964 666.86 Q52.4822 666.86 58.2432 673.353 Q64.0042 679.846 64.0042 693.596 L64.0042 706.805 L16.4842 706.805 Z" fill="#000000" fill-rule="evenodd" fill-opacity="1" /><path clip-path="url(#clip480)" d="M20.8447 637.323 Q20.8447 644.326 26.0645 648.463 Q31.2844 652.569 40.2919 652.569 Q49.2675 652.569 54.4874 648.463 Q59.7073 644.326 59.7073 637.323 Q59.7073 630.321 54.4874 626.247 Q49.2675 622.141 40.2919 622.141 Q31.2844 622.141 26.0645 626.247 Q20.8447 630.321 20.8447 637.323 M15.6248 637.323 Q15.6248 627.329 22.3406 621.345 Q29.0246 615.362 40.2919 615.362 Q51.5274 615.362 58.2432 621.345 Q64.9272 627.329 64.9272 637.323 Q64.9272 647.349 58.2432 653.365 Q51.5592 659.349 40.2919 659.349 Q29.0246 659.349 22.3406 653.365 Q15.6248 647.349 15.6248 637.323 Z" fill="#000000" fill-rule="evenodd" fill-opacity="1" /><path clip-path="url(#clip480)" d="M18.0438 576.817 L24.314 576.817 Q22.5634 580.478 21.704 583.724 Q20.8447 586.971 20.8447 589.994 Q20.8447 595.246 22.8817 598.111 Q24.9187 600.943 28.6745 600.943 Q31.8255 600.943 33.4488 599.065 Q35.0402 597.156 36.0269 591.872 L36.8226 587.989 Q38.1912 580.796 41.6605 577.39 Q45.098 573.953 50.8908 573.953 Q57.7976 573.953 61.3624 578.6 Q64.9272 583.215 64.9272 592.159 Q64.9272 595.532 64.1633 599.352 Q63.3994 603.139 61.9035 607.214 L55.2831 607.214 Q57.4793 603.299 58.5933 599.543 Q59.7073 595.787 59.7073 592.159 Q59.7073 586.652 57.543 583.66 Q55.3786 580.669 51.3682 580.669 Q47.8671 580.669 45.8937 582.833 Q43.9204 584.965 42.9337 589.867 L42.1698 593.782 Q40.7375 600.975 37.682 604.19 Q34.6264 607.404 29.1837 607.404 Q22.8817 607.404 19.2532 602.98 Q15.6248 598.524 15.6248 590.726 Q15.6248 587.384 16.2295 583.915 Q16.8343 580.446 18.0438 576.817 Z" fill="#000000" fill-rule="evenodd" fill-opacity="1" /><polyline clip-path="url(#clip482)" style="stroke:#009af9; stroke-linecap:butt; stroke-linejoin:round; stroke-width:4; stroke-opacity:1; fill:none" points="
  280.231,1122.77 282.245,1204.55 284.259,1231.81 286.274,1230.86 288.288,1203.62 290.302,1132.03 292.316,966.536 294.33,652.31 296.344,248.72 298.359,362.316 
  300.373,848.799 302.387,1070.04 304.401,1144.63 306.415,1144.56 308.43,1061.6 310.444,822.881 312.458,659.182 314.472,933.24 316.486,1102.27 318.5,1143.96 
  320.515,1106.65 322.529,960.867 324.543,733.194 326.557,593.04 328.571,302.403 330.585,523.889 332.6,827.299 334.614,909.669 336.628,776.04 338.642,711.644 
  340.656,908.901 342.67,1088.74 344.685,1134.25 346.699,1096.4 348.713,1063.18 350.727,1005.64 352.741,798.241 354.756,812.74 356.77,950.48 358.784,856.558 
  360.798,797.078 362.812,937.917 364.826,881.728 366.841,824.275 368.855,947.414 370.869,1105.31 372.883,1166.74 374.897,1156.23 376.911,1065.7 378.926,831.907 
  380.94,700.416 382.954,850.629 384.968,752.46 386.982,605.554 388.996,829.683 391.011,953.596 393.025,846.786 395.039,628.399 397.053,829.225 399.067,948.491 
  401.082,831.11 403.096,708.687 405.11,943.735 407.124,1095.69 409.138,1116.66 411.152,1026.46 413.167,809.861 415.181,766.476 417.195,931.493 419.209,903.908 
  421.223,830.312 423.237,966.763 425.252,957.955 427.266,777.341 429.28,879.685 431.294,1036.58 433.308,1078.01 435.322,1108.76 437.337,1069.04 439.351,894.51 
  441.365,841.911 443.379,884.9 445.393,865.622 447.408,939.88 449.422,928.047 451.436,727.466 453.45,326.906 455.464,473.207 457.478,710.116 459.493,954.804 
  461.507,1104.02 463.521,1144.22 465.535,1111.48 467.549,967.296 469.563,700.745 471.578,731.439 473.592,975.845 475.606,1090.65 477.62,1083.16 479.634,952.389 
  481.648,584.922 483.663,167.805 485.677,523.34 487.691,927.051 489.705,1069.64 491.719,1143.77 493.734,1196.73 495.748,1201.97 497.762,1155.76 499.776,1008.01 
  501.79,777.299 503.804,938.519 505.819,1117.68 507.833,1169.09 509.847,1145.16 511.861,1060.78 513.875,981.447 515.889,748.649 517.904,297.318 519.918,398.922 
  521.932,749.041 523.946,962.653 525.96,960.18 527.974,901.722 529.989,1042.72 532.003,1103.72 534.017,1039.02 536.031,933.024 538.045,990.933 540.06,985.048 
  542.074,794.414 544.088,542.418 546.102,240.721 548.116,500.045 550.13,867.621 552.145,1018.41 554.159,1066.83 556.173,1079.39 558.187,1159.21 560.201,1194.93 
  562.215,1183.35 564.23,1123.02 566.244,966.372 568.258,575.753 570.272,86.1857 572.286,198.147 574.301,700.053 576.315,1013.38 578.329,1132.29 580.343,1160.56 
  582.357,1108.89 584.371,997.548 586.386,1075.84 588.4,1141.85 590.414,1117.29 592.428,1152.49 594.442,1205.87 596.456,1206.27 598.471,1170.64 600.485,1064.24 
  602.499,910.065 604.513,889.773 606.527,667.606 608.541,217.093 610.556,449.578 612.57,782.739 614.584,903.696 616.598,932.561 618.612,919.484 620.627,767.598 
  622.641,792.577 624.655,946.745 626.669,1023.38 628.683,931.726 630.697,903.821 632.712,1006.63 634.726,935.499 636.74,663.145 638.754,692.943 640.768,894.488 
  642.782,1057.12 644.797,1115.24 646.811,1062.58 648.825,946.682 650.839,890.072 652.853,887.321 654.867,985.861 656.882,996.951 658.896,800.38 660.91,610.16 
  662.924,652.511 664.938,719.129 666.953,886.954 668.967,1077.24 670.981,1151.29 672.995,1202.93 675.009,1241.08 677.023,1252.42 679.038,1245.26 681.052,1215.1 
  683.066,1141.73 685.08,965.168 687.094,688.977 689.108,590.077 691.123,544.131 693.137,669.903 695.151,744.666 697.165,520.023 699.179,512.802 701.193,762.6 
  703.208,1026.07 705.222,1131.58 707.236,1163.93 709.25,1123.2 711.264,967.764 713.279,901.212 715.293,1084.69 717.307,1162.25 719.321,1160.81 721.335,1144.94 
  723.349,1074.65 725.364,922.303 727.378,651.348 729.392,807.041 731.406,1023.42 733.42,1057.86 735.434,953.684 737.449,626.189 739.463,270.68 741.477,615.73 
  743.491,776.711 745.505,898.93 747.519,1092.73 749.534,1173.61 751.548,1187.33 753.562,1144.58 755.576,1006.61 757.59,804.832 759.605,667.943 761.619,836.479 
  763.633,1030.44 765.647,1023.81 767.661,894.648 769.675,1014.47 771.69,1152.76 773.704,1184.67 775.718,1156.56 777.732,1072.73 779.746,1083.57 781.76,1144.6 
  783.775,1126.25 785.789,1045.73 787.803,817.46 789.817,793.579 791.831,935.262 793.845,909.809 795.86,883.204 797.874,835.074 799.888,916.883 801.902,986.05 
  803.916,1064.63 805.931,1006.91 807.945,817.717 809.959,831.811 811.973,821.283 813.987,545.957 816.001,171.39 818.016,528.936 820.03,960.914 822.044,1140.27 
  824.058,1216.82 826.072,1252.11 828.086,1266.71 830.101,1265.1 832.115,1241.92 834.129,1174.53 836.143,1073.86 838.157,1077.06 840.171,1005.89 842.186,810.662 
  844.2,916.429 846.214,1049.88 848.228,996.314 850.242,805.895 852.257,855.631 854.271,905.475 856.285,904.107 858.299,999.359 860.313,1110.85 862.327,1168.38 
  864.342,1171.32 866.356,1084.56 868.37,844.666 870.384,771.241 872.398,1024.53 874.412,1122.98 876.427,1095.53 878.441,955.223 880.455,884.083 882.469,1087.23 
  884.483,1194.81 886.498,1234.05 888.512,1236.31 890.526,1207.71 892.54,1129.77 894.554,948.444 896.568,675.524 898.583,354.43 900.597,534.396 902.611,955.724 
  904.625,1154.51 906.639,1238.74 908.653,1279.28 910.668,1300.71 912.682,1312.33 914.696,1317.95 916.71,1319.1 918.724,1315.98 920.738,1307.54 922.753,1290.73 
  924.767,1257.84 926.781,1188.02 928.795,1022.56 930.809,722.32 932.824,703.828 934.838,737.988 936.852,699.519 938.866,972.99 940.88,1160.3 942.894,1235.36 
  944.909,1264.11 946.923,1268.53 948.937,1250.32 950.951,1192.65 952.965,1037.78 954.979,758.677 956.994,881.604 959.008,1121.86 961.022,1212.91 963.036,1228.14 
  965.05,1219.94 967.064,1227.09 969.079,1206.56 971.093,1213.37 973.107,1189.12 975.121,1087.4 977.135,827.116 979.15,483.109 981.164,368.36 983.178,622.814 
  985.192,966.548 987.206,1159.24 989.22,1242.64 991.235,1282.94 993.249,1304.53 995.263,1316.65 997.277,1323.19 999.291,1325.86 1001.31,1325.3 1003.32,1321.34 
  1005.33,1313 1007.35,1297.84 1009.36,1270.31 1011.38,1216.62 1013.39,1098.48 1015.4,822.53 1017.42,456.216 1019.43,541.665 1021.45,711.108 1023.46,942.351 
  1025.48,1135.73 1027.49,1212.29 1029.5,1232.41 1031.52,1205.67 1033.53,1099.23 1035.55,979.648 1037.56,1116.42 1039.57,1212.82 1041.59,1234.71 1043.6,1203.25 
  1045.62,1130.4 1047.63,1005.84 1049.65,940.255 1051.66,1093.08 1053.67,1138.38 1055.69,1057.72 1057.7,788.177 1059.72,596.404 1061.73,862.08 1063.74,1065.07 
  1065.76,1192.87 1067.77,1243.27 1069.79,1253.31 1071.8,1229.18 1073.82,1162.96 1075.83,1043.64 1077.84,1041.71 1079.86,1087.62 1081.87,1096.2 1083.89,1088.12 
  1085.9,947.261 1087.91,728.346 1089.93,894.952 1091.94,1056.85 1093.96,1079.73 1095.97,1123.35 1097.99,1147.38 1100,1062.43 1102.01,852.455 1104.03,848.408 
  1106.04,946.739 1108.06,1054.04 1110.07,1077.5 1112.09,1021.6 1114.1,957.361 1116.11,1088.2 1118.13,1144.4 1120.14,1166.55 1122.16,1132.98 1124.17,1114.94 
  1126.18,1221.39 1128.2,1279.13 1130.21,1299.22 1132.23,1301.25 1134.24,1287.78 1136.26,1248.31 1138.27,1155.38 1140.28,1026.31 1142.3,1070.16 1144.31,1050.54 
  1146.33,977.329 1148.34,1062.11 1150.35,1047.69 1152.37,1048.11 1154.38,1030.32 1156.4,1039.66 1158.41,996.054 1160.43,945.241 1162.44,920.448 1164.45,964.757 
  1166.47,1109.25 1168.48,1234.35 1170.5,1289.99 1172.51,1315.57 1174.52,1328.45 1176.54,1334.81 1178.55,1336.91 1180.57,1335.27 1182.58,1329.09 1184.6,1315.52 
  1186.61,1286.82 1188.62,1220.62 1190.64,1066.32 1192.65,935.815 1194.67,952.534 1196.68,1022.94 1198.69,1181.71 1200.71,1255.43 1202.72,1270 1204.74,1236.39 
  1206.75,1169.99 1208.77,1176.84 1210.78,1257.23 1212.79,1295.33 1214.81,1296.71 1216.82,1261.63 1218.84,1171.69 1220.85,1174.62 1222.86,1261.84 1224.88,1291.54 
  1226.89,1278.08 1228.91,1210.28 1230.92,1153.69 1232.94,1240.89 1234.95,1288.96 1236.96,1288.81 1238.98,1239.64 1240.99,1161.09 1243.01,1230.71 1245.02,1299.97 
  1247.03,1325.85 1249.05,1332.47 1251.06,1326.36 1253.08,1301.54 1255.09,1232.57 1257.11,1124.34 1259.12,1199.33 1261.13,1289.95 1263.15,1325.86 1265.16,1339.14 
  1267.18,1341.69 1269.19,1335.09 1271.2,1312.76 1273.22,1252.08 1275.23,1162.95 1277.25,1232.11 1279.26,1306.6 1281.28,1336.36 1283.29,1348.28 1285.3,1352.58 
  1287.32,1352.25 1289.33,1347.14 1291.35,1333.87 1293.36,1301.12 1295.37,1219.37 1297.39,1143.55 1299.4,1241.61 1301.42,1308.57 1303.43,1333.65 1305.45,1341.84 
  1307.46,1340.73 1309.47,1329.54 1311.49,1297.9 1313.5,1217.41 1315.52,1150.64 1317.53,1246.63 1319.54,1307.43 1321.56,1328.56 1323.57,1332.24 1325.59,1322.87 
  1327.6,1291.94 1329.62,1211.02 1331.63,1130.05 1333.64,1221.81 1335.66,1279.99 1337.67,1282.38 1339.69,1231.85 1341.7,1138.88 1343.72,1200.58 1345.73,1274.64 
  1347.74,1291.08 1349.76,1263.44 1351.77,1178.62 1353.79,1176.56 1355.8,1265.94 1357.81,1301.81 1359.83,1303.08 1361.84,1271.8 1363.86,1204.3 1365.87,1199.01 
  1367.89,1251.45 1369.9,1272.89 1371.91,1247.14 1373.93,1152.16 1375.94,954.361 1377.96,916.926 1379.97,982.413 1381.98,1110.31 1384,1241.4 1386.01,1298.53 
  1388.03,1324.04 1390.04,1336.53 1392.06,1342.58 1394.07,1344.65 1396.08,1343.5 1398.1,1338.8 1400.11,1328.92 1402.13,1309.43 1404.14,1268.37 1406.15,1174.85 
  1408.17,1014.28 1410.18,883.7 1412.2,935.393 1414.21,1084.79 1416.23,1172.15 1418.24,1178 1420.25,1143.33 1422.27,1114.06 1424.28,1176.46 1426.3,1190.15 
  1428.31,1171.11 1430.32,1140.76 1432.34,1197.6 1434.35,1274.91 1436.37,1316.82 1438.38,1335.57 1440.4,1343.61 1442.41,1345.9 1444.42,1343.23 1446.44,1333 
  1448.45,1312.61 1450.47,1303.3 1452.48,1282.53 1454.49,1210.58 1456.51,1085.76 1458.52,1018.8 1460.54,1107.37 1462.55,1200.58 1464.57,1212.19 1466.58,1227.29 
  1468.59,1218.89 1470.61,1250.46 1472.62,1295.02 1474.64,1303.66 1476.65,1281.8 1478.66,1229.49 1480.68,1220.48 1482.69,1214.91 1484.71,1192.8 1486.72,1238.81 
  1488.74,1280.94 1490.75,1276.3 1492.76,1244.69 1494.78,1215.27 1496.79,1201.12 1498.81,1274.05 1500.82,1318.25 1502.83,1336.8 1504.85,1341.47 1506.86,1334.85 
  1508.88,1310.48 1510.89,1255.66 1512.91,1180.26 1514.92,1229.64 1516.93,1304.71 1518.95,1332.74 1520.96,1335.72 1522.98,1321.36 1524.99,1329.35 1527,1345.86 
  1529.02,1354.38 1531.03,1360.62 1533.05,1359.93 1535.06,1352.23 1537.08,1344.33 1539.09,1354.76 1541.1,1364.38 1543.12,1366.72 1545.13,1364.32 1547.15,1355.3 
  1549.16,1332.39 1551.17,1310.4 1553.19,1304.38 1555.2,1306.35 1557.22,1334.31 1559.23,1357.59 1561.25,1368.15 1563.26,1373.01 1565.27,1375.55 1567.29,1376.99 
  1569.3,1377.82 1571.32,1378.25 1573.33,1378.38 1575.35,1378.22 1577.36,1377.73 1579.37,1376.75 1581.39,1374.99 1583.4,1371.74 1585.42,1365.18 1587.43,1350.36 
  1589.44,1317.69 1591.46,1278.35 1593.47,1295.98 1595.49,1335.01 1597.5,1358.11 1599.52,1367.58 1601.53,1370.88 1603.54,1371.26 1605.56,1373.06 1607.57,1373.41 
  1609.59,1373.96 1611.6,1373.71 1613.61,1369.31 1615.63,1357.13 1617.64,1351.73 1619.66,1365.99 1621.67,1373.58 1623.69,1376.33 1625.7,1377.04 1627.71,1376.43 
  1629.73,1374.15 1631.74,1368.37 1633.76,1353.92 1635.77,1335.88 1637.78,1344.74 1639.8,1349.46 1641.81,1354.09 1643.83,1367.46 1645.84,1374.45 1647.86,1377.47 
  1649.87,1378.9 1651.88,1379.62 1653.9,1379.93 1655.91,1379.95 1657.93,1379.73 1659.94,1379.22 1661.95,1378.32 1663.97,1376.75 1665.98,1373.91 1668,1368.24 
  1670.01,1355.29 1672.03,1326.39 1674.04,1303.76 1676.05,1319.23 1678.07,1343.9 1680.08,1360.8 1682.1,1369.17 1684.11,1372.32 1686.12,1373.32 1688.14,1372.54 
  1690.15,1368.21 1692.17,1361.74 1694.18,1364.61 1696.2,1368.88 1698.21,1368.57 1700.22,1363.66 1702.24,1353.71 1704.25,1351.98 1706.27,1349.73 1708.28,1335.15 
  1710.29,1305.87 1712.31,1240.99 1714.32,1183.4 1716.34,1171.4 1718.35,1173.2 1720.37,1216.46 1722.38,1202.46 1724.39,1267.23 1726.41,1319.07 1728.42,1335.08 
  1730.44,1339.78 1732.45,1347.25 1734.46,1342.78 1736.48,1337.52 1738.49,1355.34 1740.51,1366.21 1742.52,1370.59 1744.54,1372.2 1746.55,1372.18 1748.56,1370.53 
  1750.58,1366.35 1752.59,1356.74 1754.61,1333.36 1756.62,1308.75 1758.63,1324.07 1760.65,1319.31 1762.66,1282.62 1764.68,1289.25 1766.69,1318.47 1768.71,1340.44 
  1770.72,1339.28 1772.73,1332.83 1774.75,1347.91 1776.76,1355.23 1778.78,1362.91 1780.79,1368.68 1782.81,1368.31 1784.82,1368.85 1786.83,1368.7 1788.85,1369.53 
  1790.86,1373.34 1792.88,1373.27 1794.89,1373.81 1796.9,1376.92 1798.92,1378.09 1800.93,1378 1802.95,1376.91 1804.96,1375.31 1806.98,1374.83 1808.99,1371.36 
  1811,1363.52 1813.02,1349.44 1815.03,1342.61 1817.05,1358.87 1819.06,1369.04 1821.07,1373.11 1823.09,1373.48 1825.1,1370.88 1827.12,1363.72 1829.13,1349.27 
  1831.15,1322.1 1833.16,1288.08 1835.17,1321.97 1837.19,1354.2 1839.2,1366.6 1841.22,1370.29 1843.23,1369.02 1845.24,1367.55 1847.26,1372.45 1849.27,1377.04 
  1851.29,1378.82 1853.3,1379.3 1855.32,1378.73 1857.33,1376.09 1859.34,1372.03 1861.36,1372.02 1863.37,1376.85 1865.39,1379.11 1867.4,1379.25 1869.41,1377.57 
  1871.43,1374.2 1873.44,1371.65 1875.46,1370.14 1877.47,1369.43 1879.49,1362.69 1881.5,1352.17 1883.51,1356.9 1885.53,1366.89 1887.54,1374.76 1889.56,1378.62 
  1891.57,1380.27 1893.58,1380.96 1895.6,1381.09 1897.61,1380.7 1899.63,1379.57 1901.64,1377.91 1903.66,1375.42 1905.67,1368.96 1907.68,1358.07 1909.7,1350.44 
  1911.71,1339.93 1913.73,1355.07 1915.74,1368.09 1917.75,1371.67 1919.77,1373.15 1921.78,1371.01 1923.8,1369.28 1925.81,1374.96 1927.83,1377.89 1929.84,1377.68 
  1931.85,1375.35 1933.87,1372.87 1935.88,1372.2 1937.9,1376.32 1939.91,1377.59 1941.92,1375.44 1943.94,1374.92 1945.95,1376.54 1947.97,1374.07 1949.98,1366.33 
  1952,1366.52 1954.01,1371.07 1956.02,1370.24 1958.04,1374.07 1960.05,1375.8 1962.07,1372.44 1964.08,1371.49 1966.09,1376.45 1968.11,1378.57 1970.12,1379.82 
  1972.14,1380.89 1974.15,1381.88 1976.17,1382 1978.18,1381.15 1980.19,1378.91 1982.21,1378.68 1984.22,1380.19 1986.24,1379.84 1988.25,1379.06 1990.26,1379.97 
  1992.28,1380.02 1994.29,1378.49 1996.31,1374.41 1998.32,1364.27 2000.34,1348.51 2002.35,1344.29 2004.36,1359.47 2006.38,1372.46 2008.39,1377.77 2010.41,1379.97 
  2012.42,1380.75 2014.44,1380.39 2016.45,1378.82 2018.46,1378.9 2020.48,1378.84 2022.49,1377.06 2024.51,1371.8 2026.52,1368.86 2028.53,1373.54 2030.55,1377.65 
  2032.56,1379.1 2034.58,1378.08 2036.59,1375.85 2038.61,1378.51 2040.62,1380.7 2042.63,1380.77 2044.65,1379.81 2046.66,1379.93 2048.68,1378.94 2050.69,1374.82 
  2052.7,1371.49 2054.72,1373.81 2056.73,1378.38 2058.75,1380.29 2060.76,1380.98 2062.78,1381.9 2064.79,1382.02 2066.8,1380.99 2068.82,1377.83 2070.83,1374.96 
  2072.85,1378.81 2074.86,1381.27 2076.87,1381.95 2078.89,1381.69 2080.9,1380.46 2082.92,1378.49 2084.93,1374.51 2086.95,1363.82 2088.96,1354.77 2090.97,1366.26 
  2092.99,1375.74 2095,1379.47 2097.02,1380.64 2099.03,1380.13 2101.04,1378.02 2103.06,1377.08 2105.07,1380.22 2107.09,1381.92 2109.1,1382.28 2111.12,1381.73 
  2113.13,1380.17 2115.14,1377.67 2117.16,1376.24 2119.17,1375.27 2121.19,1377.88 2123.2,1380.42 2125.21,1380.61 2127.23,1379.76 2129.24,1378.92 2131.26,1375.79 
  2133.27,1375.99 2135.29,1379.91 2137.3,1381.33 2139.31,1381.54 2141.33,1381.7 2143.34,1381.09 2145.36,1380.23 2147.37,1380.81 2149.38,1379.71 2151.4,1376.47 
  2153.41,1377.63 2155.43,1379.22 2157.44,1377.55 2159.46,1378.1 2161.47,1380.79 2163.48,1381.53 2165.5,1380.71 2167.51,1377.54 2169.53,1372.68 2171.54,1375.58 
  2173.55,1377.76 2175.57,1376.21 2177.58,1373.17 2179.6,1377.14 2181.61,1380.09 2183.63,1380.01 2185.64,1378.46 2187.65,1380.19 2189.67,1381.3 2191.68,1380.69 
  2193.7,1381.66 2195.71,1382.94 2197.72,1383.37 2199.74,1383.28 2201.75,1382.56 2203.77,1381.07 2205.78,1379.35 2207.8,1380.61 2209.81,1381.09 2211.82,1380.09 
  2213.84,1380.46 2215.85,1380.03 2217.87,1376.73 2219.88,1376.7 2221.9,1379.98 2223.91,1381.26 2225.92,1382.25 2227.94,1382.68 2229.95,1382.48 2231.97,1381.16 
  2233.98,1378.91 2235.99,1378.19 2238.01,1379.7 2240.02,1378.72 2242.04,1374.05 2244.05,1372.16 2246.07,1375.92 2248.08,1378.78 2250.09,1381 2252.11,1382.42 
  2254.12,1382.76 2256.14,1382.23 2258.15,1380.16 2260.16,1376.68 2262.18,1378.66 2264.19,1381.8 2266.21,1383.05 2268.22,1383.38 2270.24,1383.11 2272.25,1381.88 
  2274.26,1379.08 2276.28,1378.69 2278.29,1381.04 2280.31,1382.78 2282.32,1383.72 2284.33,1384.11 2286.35,1384.24 2288.36,1384.18 2290.38,1383.91 2292.39,1383.19 
  
  "/>
<path clip-path="url(#clip480)" d="
M1992.24 196.789 L2281.66 196.789 L2281.66 93.1086 L1992.24 93.1086  Z
  " fill="#ffffff" fill-rule="evenodd" fill-opacity="1"/>
<polyline clip-path="url(#clip480)" style="stroke:#000000; stroke-linecap:butt; stroke-linejoin:round; stroke-width:4; stroke-opacity:1; fill:none" points="
  1992.24,196.789 2281.66,196.789 2281.66,93.1086 1992.24,93.1086 1992.24,196.789 
  "/>
<polyline clip-path="url(#clip480)" style="stroke:#009af9; stroke-linecap:butt; stroke-linejoin:round; stroke-width:4; stroke-opacity:1; fill:none" points="
  2015.94,144.949 2158.13,144.949 
  "/>
<path clip-path="url(#clip480)" d="M2195.67 164.636 Q2193.87 169.266 2192.16 170.678 Q2190.44 172.09 2187.57 172.09 L2184.17 172.09 L2184.17 168.525 L2186.67 168.525 Q2188.43 168.525 2189.4 167.692 Q2190.37 166.858 2191.55 163.756 L2192.32 161.812 L2181.83 136.303 L2186.35 136.303 L2194.45 156.581 L2202.55 136.303 L2207.06 136.303 L2195.67 164.636 Z" fill="#000000" fill-rule="evenodd" fill-opacity="1" /><path clip-path="url(#clip480)" d="M2214.35 158.293 L2221.99 158.293 L2221.99 131.928 L2213.68 133.595 L2213.68 129.335 L2221.95 127.669 L2226.62 127.669 L2226.62 158.293 L2234.26 158.293 L2234.26 162.229 L2214.35 162.229 L2214.35 158.293 Z" fill="#000000" fill-rule="evenodd" fill-opacity="1" /></svg>
