<?xml version="1.0" encoding="utf-8"?>
<svg xmlns="http://www.w3.org/2000/svg" xmlns:xlink="http://www.w3.org/1999/xlink" width="600" height="400" viewBox="0 0 2400 1600">
<defs>
  <clipPath id="clip820">
    <rect x="0" y="0" width="2400" height="1600"/>
  </clipPath>
</defs>
<path clip-path="url(#clip820)" d="
M0 1600 L2400 1600 L2400 0 L0 0  Z
  " fill="#ffffff" fill-rule="evenodd" fill-opacity="1"/>
<defs>
  <clipPath id="clip821">
    <rect x="480" y="0" width="1681" height="1600"/>
  </clipPath>
</defs>
<path clip-path="url(#clip820)" d="
M219.866 1423.18 L2352.76 1423.18 L2352.76 47.2441 L219.866 47.2441  Z
  " fill="#ffffff" fill-rule="evenodd" fill-opacity="1"/>
<defs>
  <clipPath id="clip822">
    <rect x="219" y="47" width="2134" height="1377"/>
  </clipPath>
</defs>
<polyline clip-path="url(#clip822)" style="stroke:#000000; stroke-linecap:round; stroke-linejoin:round; stroke-width:2; stroke-opacity:0.1; fill:none" points="
  280.231,1423.18 280.231,47.2441 
  "/>
<polyline clip-path="url(#clip822)" style="stroke:#000000; stroke-linecap:round; stroke-linejoin:round; stroke-width:2; stroke-opacity:0.1; fill:none" points="
  783.271,1423.18 783.271,47.2441 
  "/>
<polyline clip-path="url(#clip822)" style="stroke:#000000; stroke-linecap:round; stroke-linejoin:round; stroke-width:2; stroke-opacity:0.1; fill:none" points="
  1286.31,1423.18 1286.31,47.2441 
  "/>
<polyline clip-path="url(#clip822)" style="stroke:#000000; stroke-linecap:round; stroke-linejoin:round; stroke-width:2; stroke-opacity:0.1; fill:none" points="
  1789.35,1423.18 1789.35,47.2441 
  "/>
<polyline clip-path="url(#clip822)" style="stroke:#000000; stroke-linecap:round; stroke-linejoin:round; stroke-width:2; stroke-opacity:0.1; fill:none" points="
  2292.39,1423.18 2292.39,47.2441 
  "/>
<polyline clip-path="url(#clip820)" style="stroke:#000000; stroke-linecap:round; stroke-linejoin:round; stroke-width:4; stroke-opacity:1; fill:none" points="
  219.866,1423.18 2352.76,1423.18 
  "/>
<polyline clip-path="url(#clip820)" style="stroke:#000000; stroke-linecap:round; stroke-linejoin:round; stroke-width:4; stroke-opacity:1; fill:none" points="
  280.231,1423.18 280.231,1404.28 
  "/>
<polyline clip-path="url(#clip820)" style="stroke:#000000; stroke-linecap:round; stroke-linejoin:round; stroke-width:4; stroke-opacity:1; fill:none" points="
  783.271,1423.18 783.271,1404.28 
  "/>
<polyline clip-path="url(#clip820)" style="stroke:#000000; stroke-linecap:round; stroke-linejoin:round; stroke-width:4; stroke-opacity:1; fill:none" points="
  1286.31,1423.18 1286.31,1404.28 
  "/>
<polyline clip-path="url(#clip820)" style="stroke:#000000; stroke-linecap:round; stroke-linejoin:round; stroke-width:4; stroke-opacity:1; fill:none" points="
  1789.35,1423.18 1789.35,1404.28 
  "/>
<polyline clip-path="url(#clip820)" style="stroke:#000000; stroke-linecap:round; stroke-linejoin:round; stroke-width:4; stroke-opacity:1; fill:none" points="
  2292.39,1423.18 2292.39,1404.28 
  "/>
<path clip-path="url(#clip820)" d="M249.132 1468.75 L278.807 1468.75 L278.807 1472.69 L249.132 1472.69 L249.132 1468.75 Z" fill="#000000" fill-rule="evenodd" fill-opacity="1" /><path clip-path="url(#clip820)" d="M301.747 1455.09 L289.942 1473.54 L301.747 1473.54 L301.747 1455.09 M300.52 1451.02 L306.4 1451.02 L306.4 1473.54 L311.33 1473.54 L311.33 1477.43 L306.4 1477.43 L306.4 1485.58 L301.747 1485.58 L301.747 1477.43 L286.145 1477.43 L286.145 1472.92 L300.52 1451.02 Z" fill="#000000" fill-rule="evenodd" fill-opacity="1" /><path clip-path="url(#clip820)" d="M753.213 1468.75 L782.889 1468.75 L782.889 1472.69 L753.213 1472.69 L753.213 1468.75 Z" fill="#000000" fill-rule="evenodd" fill-opacity="1" /><path clip-path="url(#clip820)" d="M797.009 1481.64 L813.329 1481.64 L813.329 1485.58 L791.384 1485.58 L791.384 1481.64 Q794.046 1478.89 798.63 1474.26 Q803.236 1469.61 804.417 1468.27 Q806.662 1465.74 807.542 1464.01 Q808.445 1462.25 808.445 1460.56 Q808.445 1457.8 806.5 1456.07 Q804.579 1454.33 801.477 1454.33 Q799.278 1454.33 796.824 1455.09 Q794.394 1455.86 791.616 1457.41 L791.616 1452.69 Q794.44 1451.55 796.894 1450.97 Q799.347 1450.39 801.384 1450.39 Q806.755 1450.39 809.949 1453.08 Q813.144 1455.77 813.144 1460.26 Q813.144 1462.39 812.333 1464.31 Q811.546 1466.2 809.44 1468.8 Q808.861 1469.47 805.759 1472.69 Q802.658 1475.88 797.009 1481.64 Z" fill="#000000" fill-rule="evenodd" fill-opacity="1" /><path clip-path="url(#clip820)" d="M1286.31 1454.1 Q1282.7 1454.1 1280.87 1457.66 Q1279.07 1461.2 1279.07 1468.33 Q1279.07 1475.44 1280.87 1479.01 Q1282.7 1482.55 1286.31 1482.55 Q1289.95 1482.55 1291.75 1479.01 Q1293.58 1475.44 1293.58 1468.33 Q1293.58 1461.2 1291.75 1457.66 Q1289.95 1454.1 1286.31 1454.1 M1286.31 1450.39 Q1292.12 1450.39 1295.18 1455 Q1298.26 1459.58 1298.26 1468.33 Q1298.26 1477.06 1295.18 1481.67 Q1292.12 1486.25 1286.31 1486.25 Q1280.5 1486.25 1277.42 1481.67 Q1274.37 1477.06 1274.37 1468.33 Q1274.37 1459.58 1277.42 1455 Q1280.5 1450.39 1286.31 1450.39 Z" fill="#000000" fill-rule="evenodd" fill-opacity="1" /><path clip-path="url(#clip820)" d="M1784 1481.64 L1800.32 1481.64 L1800.32 1485.58 L1778.38 1485.58 L1778.38 1481.64 Q1781.04 1478.89 1785.62 1474.26 Q1790.23 1469.61 1791.41 1468.27 Q1793.66 1465.74 1794.54 1464.01 Q1795.44 1462.25 1795.44 1460.56 Q1795.44 1457.8 1793.49 1456.07 Q1791.57 1454.33 1788.47 1454.33 Q1786.27 1454.33 1783.82 1455.09 Q1781.39 1455.86 1778.61 1457.41 L1778.61 1452.69 Q1781.43 1451.55 1783.89 1450.97 Q1786.34 1450.39 1788.38 1450.39 Q1793.75 1450.39 1796.94 1453.08 Q1800.14 1455.77 1800.14 1460.26 Q1800.14 1462.39 1799.33 1464.31 Q1798.54 1466.2 1796.43 1468.8 Q1795.86 1469.47 1792.75 1472.69 Q1789.65 1475.88 1784 1481.64 Z" fill="#000000" fill-rule="evenodd" fill-opacity="1" /><path clip-path="url(#clip820)" d="M2295.4 1455.09 L2283.59 1473.54 L2295.4 1473.54 L2295.4 1455.09 M2294.17 1451.02 L2300.05 1451.02 L2300.05 1473.54 L2304.98 1473.54 L2304.98 1477.43 L2300.05 1477.43 L2300.05 1485.58 L2295.4 1485.58 L2295.4 1477.43 L2279.8 1477.43 L2279.8 1472.92 L2294.17 1451.02 Z" fill="#000000" fill-rule="evenodd" fill-opacity="1" /><path clip-path="url(#clip820)" d="M1129.64 1520.52 L1159.68 1520.52 L1159.68 1525.93 L1136.06 1525.93 L1136.06 1540 L1158.69 1540 L1158.69 1545.41 L1136.06 1545.41 L1136.06 1562.63 L1160.25 1562.63 L1160.25 1568.04 L1129.64 1568.04 L1129.64 1520.52 Z" fill="#000000" fill-rule="evenodd" fill-opacity="1" /><path clip-path="url(#clip820)" d="M1200.2 1546.53 L1200.2 1568.04 L1194.34 1568.04 L1194.34 1546.72 Q1194.34 1541.66 1192.37 1539.14 Q1190.4 1536.63 1186.45 1536.63 Q1181.71 1536.63 1178.97 1539.65 Q1176.23 1542.68 1176.23 1547.9 L1176.23 1568.04 L1170.34 1568.04 L1170.34 1532.4 L1176.23 1532.4 L1176.23 1537.93 Q1178.33 1534.72 1181.17 1533.13 Q1184.03 1531.54 1187.75 1531.54 Q1193.9 1531.54 1197.05 1535.36 Q1200.2 1539.14 1200.2 1546.53 Z" fill="#000000" fill-rule="evenodd" fill-opacity="1" /><path clip-path="url(#clip820)" d="M1242.37 1548.76 L1242.37 1551.62 L1215.44 1551.62 Q1215.83 1557.67 1219.07 1560.85 Q1222.35 1564 1228.18 1564 Q1231.55 1564 1234.7 1563.17 Q1237.88 1562.35 1241 1560.69 L1241 1566.23 Q1237.85 1567.57 1234.54 1568.27 Q1231.23 1568.97 1227.83 1568.97 Q1219.3 1568.97 1214.3 1564 Q1209.33 1559.04 1209.33 1550.57 Q1209.33 1541.82 1214.04 1536.69 Q1218.79 1531.54 1226.81 1531.54 Q1234 1531.54 1238.17 1536.18 Q1242.37 1540.8 1242.37 1548.76 M1236.52 1547.04 Q1236.45 1542.23 1233.81 1539.37 Q1231.2 1536.5 1226.87 1536.5 Q1221.97 1536.5 1219.01 1539.27 Q1216.08 1542.04 1215.64 1547.07 L1236.52 1547.04 Z" fill="#000000" fill-rule="evenodd" fill-opacity="1" /><path clip-path="url(#clip820)" d="M1272.64 1537.87 Q1271.65 1537.3 1270.48 1537.04 Q1269.33 1536.76 1267.93 1536.76 Q1262.96 1536.76 1260.29 1540 Q1257.65 1543.22 1257.65 1549.27 L1257.65 1568.04 L1251.76 1568.04 L1251.76 1532.4 L1257.65 1532.4 L1257.65 1537.93 Q1259.5 1534.69 1262.46 1533.13 Q1265.42 1531.54 1269.65 1531.54 Q1270.25 1531.54 1270.99 1531.63 Q1271.72 1531.7 1272.61 1531.85 L1272.64 1537.87 Z" fill="#000000" fill-rule="evenodd" fill-opacity="1" /><path clip-path="url(#clip820)" d="M1301.1 1549.81 Q1301.1 1543.44 1298.45 1539.94 Q1295.84 1536.44 1291.1 1536.44 Q1286.39 1536.44 1283.75 1539.94 Q1281.14 1543.44 1281.14 1549.81 Q1281.14 1556.14 1283.75 1559.64 Q1286.39 1563.14 1291.1 1563.14 Q1295.84 1563.14 1298.45 1559.64 Q1301.1 1556.14 1301.1 1549.81 M1306.95 1563.62 Q1306.95 1572.72 1302.91 1577.15 Q1298.87 1581.6 1290.53 1581.6 Q1287.44 1581.6 1284.7 1581.13 Q1281.97 1580.68 1279.39 1579.72 L1279.39 1574.03 Q1281.97 1575.43 1284.48 1576.1 Q1287 1576.76 1289.61 1576.76 Q1295.37 1576.76 1298.23 1573.74 Q1301.1 1570.75 1301.1 1564.67 L1301.1 1561.77 Q1299.28 1564.92 1296.45 1566.48 Q1293.62 1568.04 1289.67 1568.04 Q1283.11 1568.04 1279.1 1563.05 Q1275.09 1558.05 1275.09 1549.81 Q1275.09 1541.53 1279.1 1536.53 Q1283.11 1531.54 1289.67 1531.54 Q1293.62 1531.54 1296.45 1533.1 Q1299.28 1534.66 1301.1 1537.81 L1301.1 1532.4 L1306.95 1532.4 L1306.95 1563.62 Z" fill="#000000" fill-rule="evenodd" fill-opacity="1" /><path clip-path="url(#clip820)" d="M1333.85 1571.35 Q1331.36 1577.72 1329.01 1579.66 Q1326.65 1581.6 1322.71 1581.6 L1318.03 1581.6 L1318.03 1576.7 L1321.47 1576.7 Q1323.88 1576.7 1325.22 1575.56 Q1326.56 1574.41 1328.18 1570.14 L1329.23 1567.47 L1314.81 1532.4 L1321.02 1532.4 L1332.16 1560.28 L1343.3 1532.4 L1349.51 1532.4 L1333.85 1571.35 Z" fill="#000000" fill-rule="evenodd" fill-opacity="1" /><path clip-path="url(#clip820)" d="M1377.77 1518.52 L1391.27 1518.52 L1391.27 1523.07 L1383.63 1523.07 L1383.63 1572.09 L1391.27 1572.09 L1391.27 1576.64 L1377.77 1576.64 L1377.77 1518.52 Z" fill="#000000" fill-rule="evenodd" fill-opacity="1" /><path clip-path="url(#clip820)" d="M1409.54 1522.27 L1409.54 1532.4 L1421.6 1532.4 L1421.6 1536.95 L1409.54 1536.95 L1409.54 1556.3 Q1409.54 1560.66 1410.71 1561.9 Q1411.92 1563.14 1415.58 1563.14 L1421.6 1563.14 L1421.6 1568.04 L1415.58 1568.04 Q1408.8 1568.04 1406.23 1565.53 Q1403.65 1562.98 1403.65 1556.3 L1403.65 1536.95 L1399.35 1536.95 L1399.35 1532.4 L1403.65 1532.4 L1403.65 1522.27 L1409.54 1522.27 Z" fill="#000000" fill-rule="evenodd" fill-opacity="1" /><path clip-path="url(#clip820)" d="M1442.99 1518.52 L1442.99 1576.64 L1429.49 1576.64 L1429.49 1572.09 L1437.1 1572.09 L1437.1 1523.07 L1429.49 1523.07 L1429.49 1518.52 L1442.99 1518.52 Z" fill="#000000" fill-rule="evenodd" fill-opacity="1" /><polyline clip-path="url(#clip822)" style="stroke:#000000; stroke-linecap:round; stroke-linejoin:round; stroke-width:2; stroke-opacity:0.1; fill:none" points="
  219.866,1395.86 2352.76,1395.86 
  "/>
<polyline clip-path="url(#clip822)" style="stroke:#000000; stroke-linecap:round; stroke-linejoin:round; stroke-width:2; stroke-opacity:0.1; fill:none" points="
  219.866,1046.08 2352.76,1046.08 
  "/>
<polyline clip-path="url(#clip822)" style="stroke:#000000; stroke-linecap:round; stroke-linejoin:round; stroke-width:2; stroke-opacity:0.1; fill:none" points="
  219.866,696.307 2352.76,696.307 
  "/>
<polyline clip-path="url(#clip822)" style="stroke:#000000; stroke-linecap:round; stroke-linejoin:round; stroke-width:2; stroke-opacity:0.1; fill:none" points="
  219.866,346.531 2352.76,346.531 
  "/>
<polyline clip-path="url(#clip820)" style="stroke:#000000; stroke-linecap:round; stroke-linejoin:round; stroke-width:4; stroke-opacity:1; fill:none" points="
  219.866,1423.18 219.866,47.2441 
  "/>
<polyline clip-path="url(#clip820)" style="stroke:#000000; stroke-linecap:round; stroke-linejoin:round; stroke-width:4; stroke-opacity:1; fill:none" points="
  219.866,1395.86 238.764,1395.86 
  "/>
<polyline clip-path="url(#clip820)" style="stroke:#000000; stroke-linecap:round; stroke-linejoin:round; stroke-width:4; stroke-opacity:1; fill:none" points="
  219.866,1046.08 238.764,1046.08 
  "/>
<polyline clip-path="url(#clip820)" style="stroke:#000000; stroke-linecap:round; stroke-linejoin:round; stroke-width:4; stroke-opacity:1; fill:none" points="
  219.866,696.307 238.764,696.307 
  "/>
<polyline clip-path="url(#clip820)" style="stroke:#000000; stroke-linecap:round; stroke-linejoin:round; stroke-width:4; stroke-opacity:1; fill:none" points="
  219.866,346.531 238.764,346.531 
  "/>
<path clip-path="url(#clip820)" d="M126.691 1381.66 Q123.08 1381.66 121.251 1385.22 Q119.445 1388.77 119.445 1395.89 Q119.445 1403 121.251 1406.57 Q123.08 1410.11 126.691 1410.11 Q130.325 1410.11 132.13 1406.57 Q133.959 1403 133.959 1395.89 Q133.959 1388.77 132.13 1385.22 Q130.325 1381.66 126.691 1381.66 M126.691 1377.96 Q132.501 1377.96 135.556 1382.56 Q138.635 1387.14 138.635 1395.89 Q138.635 1404.62 135.556 1409.23 Q132.501 1413.81 126.691 1413.81 Q120.88 1413.81 117.802 1409.23 Q114.746 1404.62 114.746 1395.89 Q114.746 1387.14 117.802 1382.56 Q120.88 1377.96 126.691 1377.96 Z" fill="#000000" fill-rule="evenodd" fill-opacity="1" /><path clip-path="url(#clip820)" d="M146.853 1407.26 L151.737 1407.26 L151.737 1413.14 L146.853 1413.14 L146.853 1407.26 Z" fill="#000000" fill-rule="evenodd" fill-opacity="1" /><path clip-path="url(#clip820)" d="M171.922 1381.66 Q168.311 1381.66 166.482 1385.22 Q164.677 1388.77 164.677 1395.89 Q164.677 1403 166.482 1406.57 Q168.311 1410.11 171.922 1410.11 Q175.556 1410.11 177.362 1406.57 Q179.19 1403 179.19 1395.89 Q179.19 1388.77 177.362 1385.22 Q175.556 1381.66 171.922 1381.66 M171.922 1377.96 Q177.732 1377.96 180.788 1382.56 Q183.866 1387.14 183.866 1395.89 Q183.866 1404.62 180.788 1409.23 Q177.732 1413.81 171.922 1413.81 Q166.112 1413.81 163.033 1409.23 Q159.978 1404.62 159.978 1395.89 Q159.978 1387.14 163.033 1382.56 Q166.112 1377.96 171.922 1377.96 Z" fill="#000000" fill-rule="evenodd" fill-opacity="1" /><path clip-path="url(#clip820)" d="M128.288 1031.88 Q124.677 1031.88 122.848 1035.45 Q121.043 1038.99 121.043 1046.12 Q121.043 1053.22 122.848 1056.79 Q124.677 1060.33 128.288 1060.33 Q131.922 1060.33 133.728 1056.79 Q135.556 1053.22 135.556 1046.12 Q135.556 1038.99 133.728 1035.45 Q131.922 1031.88 128.288 1031.88 M128.288 1028.18 Q134.098 1028.18 137.154 1032.79 Q140.232 1037.37 140.232 1046.12 Q140.232 1054.85 137.154 1059.45 Q134.098 1064.03 128.288 1064.03 Q122.478 1064.03 119.399 1059.45 Q116.343 1054.85 116.343 1046.12 Q116.343 1037.37 119.399 1032.79 Q122.478 1028.18 128.288 1028.18 Z" fill="#000000" fill-rule="evenodd" fill-opacity="1" /><path clip-path="url(#clip820)" d="M148.45 1057.48 L153.334 1057.48 L153.334 1063.36 L148.45 1063.36 L148.45 1057.48 Z" fill="#000000" fill-rule="evenodd" fill-opacity="1" /><path clip-path="url(#clip820)" d="M167.547 1059.43 L183.866 1059.43 L183.866 1063.36 L161.922 1063.36 L161.922 1059.43 Q164.584 1056.67 169.167 1052.04 Q173.774 1047.39 174.954 1046.05 Q177.2 1043.53 178.079 1041.79 Q178.982 1040.03 178.982 1038.34 Q178.982 1035.59 177.038 1033.85 Q175.116 1032.11 172.014 1032.11 Q169.815 1032.11 167.362 1032.88 Q164.931 1033.64 162.153 1035.19 L162.153 1030.47 Q164.977 1029.34 167.431 1028.76 Q169.885 1028.18 171.922 1028.18 Q177.292 1028.18 180.487 1030.86 Q183.681 1033.55 183.681 1038.04 Q183.681 1040.17 182.871 1042.09 Q182.084 1043.99 179.977 1046.58 Q179.399 1047.25 176.297 1050.47 Q173.195 1053.66 167.547 1059.43 Z" fill="#000000" fill-rule="evenodd" fill-opacity="1" /><path clip-path="url(#clip820)" d="M126.205 682.106 Q122.593 682.106 120.765 685.671 Q118.959 689.212 118.959 696.342 Q118.959 703.448 120.765 707.013 Q122.593 710.555 126.205 710.555 Q129.839 710.555 131.644 707.013 Q133.473 703.448 133.473 696.342 Q133.473 689.212 131.644 685.671 Q129.839 682.106 126.205 682.106 M126.205 678.402 Q132.015 678.402 135.07 683.009 Q138.149 687.592 138.149 696.342 Q138.149 705.069 135.07 709.675 Q132.015 714.258 126.205 714.258 Q120.394 714.258 117.316 709.675 Q114.26 705.069 114.26 696.342 Q114.26 687.592 117.316 683.009 Q120.394 678.402 126.205 678.402 Z" fill="#000000" fill-rule="evenodd" fill-opacity="1" /><path clip-path="url(#clip820)" d="M146.366 707.708 L151.251 707.708 L151.251 713.587 L146.366 713.587 L146.366 707.708 Z" fill="#000000" fill-rule="evenodd" fill-opacity="1" /><path clip-path="url(#clip820)" d="M174.283 683.101 L162.477 701.55 L174.283 701.55 L174.283 683.101 M173.056 679.027 L178.936 679.027 L178.936 701.55 L183.866 701.55 L183.866 705.439 L178.936 705.439 L178.936 713.587 L174.283 713.587 L174.283 705.439 L158.681 705.439 L158.681 700.925 L173.056 679.027 Z" fill="#000000" fill-rule="evenodd" fill-opacity="1" /><path clip-path="url(#clip820)" d="M126.529 332.329 Q122.918 332.329 121.089 335.894 Q119.283 339.436 119.283 346.565 Q119.283 353.672 121.089 357.237 Q122.918 360.778 126.529 360.778 Q130.163 360.778 131.968 357.237 Q133.797 353.672 133.797 346.565 Q133.797 339.436 131.968 335.894 Q130.163 332.329 126.529 332.329 M126.529 328.626 Q132.339 328.626 135.394 333.232 Q138.473 337.815 138.473 346.565 Q138.473 355.292 135.394 359.899 Q132.339 364.482 126.529 364.482 Q120.718 364.482 117.64 359.899 Q114.584 355.292 114.584 346.565 Q114.584 337.815 117.64 333.232 Q120.718 328.626 126.529 328.626 Z" fill="#000000" fill-rule="evenodd" fill-opacity="1" /><path clip-path="url(#clip820)" d="M146.691 357.931 L151.575 357.931 L151.575 363.811 L146.691 363.811 L146.691 357.931 Z" fill="#000000" fill-rule="evenodd" fill-opacity="1" /><path clip-path="url(#clip820)" d="M172.339 344.667 Q169.19 344.667 167.339 346.82 Q165.51 348.973 165.51 352.723 Q165.51 356.45 167.339 358.626 Q169.19 360.778 172.339 360.778 Q175.487 360.778 177.315 358.626 Q179.167 356.45 179.167 352.723 Q179.167 348.973 177.315 346.82 Q175.487 344.667 172.339 344.667 M181.621 330.015 L181.621 334.274 Q179.862 333.44 178.056 333.001 Q176.274 332.561 174.514 332.561 Q169.885 332.561 167.431 335.686 Q165.001 338.811 164.653 345.13 Q166.019 343.116 168.079 342.052 Q170.139 340.964 172.616 340.964 Q177.825 340.964 180.834 344.135 Q183.866 347.283 183.866 352.723 Q183.866 358.047 180.718 361.264 Q177.57 364.482 172.339 364.482 Q166.343 364.482 163.172 359.899 Q160.001 355.292 160.001 346.565 Q160.001 338.371 163.89 333.51 Q167.778 328.626 174.329 328.626 Q176.089 328.626 177.871 328.973 Q179.676 329.32 181.621 330.015 Z" fill="#000000" fill-rule="evenodd" fill-opacity="1" /><path clip-path="url(#clip820)" d="M16.4842 896.471 L16.4842 890.042 L58.5933 890.042 L58.5933 866.903 L64.0042 866.903 L64.0042 896.471 L16.4842 896.471 Z" fill="#000000" fill-rule="evenodd" fill-opacity="1" /><path clip-path="url(#clip820)" d="M32.4621 847.742 Q32.4621 852.452 36.1542 855.19 Q39.8145 857.927 46.212 857.927 Q52.6095 857.927 56.3017 855.221 Q59.9619 852.484 59.9619 847.742 Q59.9619 843.063 56.2698 840.326 Q52.5777 837.588 46.212 837.588 Q39.8781 837.588 36.186 840.326 Q32.4621 843.063 32.4621 847.742 M27.4968 847.742 Q27.4968 840.103 32.4621 835.742 Q37.4273 831.382 46.212 831.382 Q54.9649 831.382 59.9619 835.742 Q64.9272 840.103 64.9272 847.742 Q64.9272 855.412 59.9619 859.773 Q54.9649 864.102 46.212 864.102 Q37.4273 864.102 32.4621 859.773 Q27.4968 855.412 27.4968 847.742 Z" fill="#000000" fill-rule="evenodd" fill-opacity="1" /><path clip-path="url(#clip820)" d="M29.7248 796.02 L35.1993 796.02 Q33.8307 798.503 33.1623 801.017 Q32.4621 803.5 32.4621 806.046 Q32.4621 811.744 36.0905 814.895 Q39.6872 818.046 46.212 818.046 Q52.7369 818.046 56.3653 814.895 Q59.9619 811.744 59.9619 806.046 Q59.9619 803.5 59.2935 801.017 Q58.5933 798.503 57.2247 796.02 L62.6355 796.02 Q63.7814 798.471 64.3543 801.113 Q64.9272 803.723 64.9272 806.683 Q64.9272 814.736 59.8664 819.478 Q54.8057 824.22 46.212 824.22 Q37.491 824.22 32.4939 819.446 Q27.4968 814.64 27.4968 806.301 Q27.4968 803.596 28.0697 801.017 Q28.6108 798.439 29.7248 796.02 Z" fill="#000000" fill-rule="evenodd" fill-opacity="1" /><path clip-path="url(#clip820)" d="M46.0847 769.635 Q46.0847 776.732 47.7079 779.47 Q49.3312 782.207 53.2461 782.207 Q56.3653 782.207 58.2114 780.17 Q60.0256 778.101 60.0256 774.568 Q60.0256 769.698 56.5881 766.77 Q53.1188 763.81 47.3897 763.81 L46.0847 763.81 L46.0847 769.635 M43.6657 757.953 L64.0042 757.953 L64.0042 763.81 L58.5933 763.81 Q61.8398 765.815 63.3994 768.807 Q64.9272 771.799 64.9272 776.128 Q64.9272 781.602 61.8716 784.849 Q58.7843 788.063 53.6281 788.063 Q47.6125 788.063 44.5569 784.053 Q41.5014 780.011 41.5014 772.022 L41.5014 763.81 L40.9285 763.81 Q36.8862 763.81 34.6901 766.484 Q32.4621 769.125 32.4621 773.931 Q32.4621 776.987 33.1941 779.883 Q33.9262 782.78 35.3903 785.453 L29.9795 785.453 Q28.7381 782.239 28.1334 779.215 Q27.4968 776.191 27.4968 773.327 Q27.4968 765.592 31.5072 761.773 Q35.5176 757.953 43.6657 757.953 Z" fill="#000000" fill-rule="evenodd" fill-opacity="1" /><path clip-path="url(#clip820)" d="M14.479 745.89 L14.479 740.034 L64.0042 740.034 L64.0042 745.89 L14.479 745.89 Z" fill="#000000" fill-rule="evenodd" fill-opacity="1" /><path clip-path="url(#clip820)" d="M21.7677 700.376 L58.7206 700.376 L58.7206 692.609 Q58.7206 682.774 54.2646 678.223 Q49.8086 673.64 40.1964 673.64 Q30.6479 673.64 26.2237 678.223 Q21.7677 682.774 21.7677 692.609 L21.7677 700.376 M16.4842 706.805 L16.4842 693.596 Q16.4842 679.783 22.2451 673.321 Q27.9743 666.86 40.1964 666.86 Q52.4822 666.86 58.2432 673.353 Q64.0042 679.846 64.0042 693.596 L64.0042 706.805 L16.4842 706.805 Z" fill="#000000" fill-rule="evenodd" fill-opacity="1" /><path clip-path="url(#clip820)" d="M20.8447 637.323 Q20.8447 644.326 26.0645 648.463 Q31.2844 652.569 40.2919 652.569 Q49.2675 652.569 54.4874 648.463 Q59.7073 644.326 59.7073 637.323 Q59.7073 630.321 54.4874 626.247 Q49.2675 622.141 40.2919 622.141 Q31.2844 622.141 26.0645 626.247 Q20.8447 630.321 20.8447 637.323 M15.6248 637.323 Q15.6248 627.329 22.3406 621.345 Q29.0246 615.362 40.2919 615.362 Q51.5274 615.362 58.2432 621.345 Q64.9272 627.329 64.9272 637.323 Q64.9272 647.349 58.2432 653.365 Q51.5592 659.349 40.2919 659.349 Q29.0246 659.349 22.3406 653.365 Q15.6248 647.349 15.6248 637.323 Z" fill="#000000" fill-rule="evenodd" fill-opacity="1" /><path clip-path="url(#clip820)" d="M18.0438 576.817 L24.314 576.817 Q22.5634 580.478 21.704 583.724 Q20.8447 586.971 20.8447 589.994 Q20.8447 595.246 22.8817 598.111 Q24.9187 600.943 28.6745 600.943 Q31.8255 600.943 33.4488 599.065 Q35.0402 597.156 36.0269 591.872 L36.8226 587.989 Q38.1912 580.796 41.6605 577.39 Q45.098 573.953 50.8908 573.953 Q57.7976 573.953 61.3624 578.6 Q64.9272 583.215 64.9272 592.159 Q64.9272 595.532 64.1633 599.352 Q63.3994 603.139 61.9035 607.214 L55.2831 607.214 Q57.4793 603.299 58.5933 599.543 Q59.7073 595.787 59.7073 592.159 Q59.7073 586.652 57.543 583.66 Q55.3786 580.669 51.3682 580.669 Q47.8671 580.669 45.8937 582.833 Q43.9204 584.965 42.9337 589.867 L42.1698 593.782 Q40.7375 600.975 37.682 604.19 Q34.6264 607.404 29.1837 607.404 Q22.8817 607.404 19.2532 602.98 Q15.6248 598.524 15.6248 590.726 Q15.6248 587.384 16.2295 583.915 Q16.8343 580.446 18.0438 576.817 Z" fill="#000000" fill-rule="evenodd" fill-opacity="1" /><polyline clip-path="url(#clip822)" style="stroke:#009af9; stroke-linecap:round; stroke-linejoin:round; stroke-width:4; stroke-opacity:1; fill:none" points="
  280.231,1384.24 282.245,1383.82 284.259,1383.42 286.274,1383.05 288.288,1382.71 290.302,1382.41 292.316,1382.1 294.33,1381.79 296.344,1381.44 298.359,1381.04 
  300.373,1380.6 302.387,1380.12 304.401,1379.58 306.415,1378.99 308.43,1378.34 310.444,1377.64 312.458,1376.87 314.472,1376.04 316.486,1375.13 318.5,1374.15 
  320.515,1373.07 322.529,1371.9 324.543,1370.61 326.557,1369.21 328.571,1367.66 330.585,1365.96 332.6,1364.08 334.614,1361.99 336.628,1359.67 338.642,1357.08 
  340.656,1354.17 342.67,1350.9 344.685,1347.2 346.699,1343 348.713,1338.2 350.727,1332.69 352.741,1326.33 354.756,1318.94 356.77,1310.31 358.784,1300.15 
  360.798,1288.14 362.812,1273.83 364.826,1256.71 366.841,1236.11 368.855,1211.28 370.869,1181.36 372.883,1145.53 374.897,1103.23 376.911,1054.75 378.926,1002.01 
  380.94,949.617 382.954,905.285 384.968,878.328 386.982,875.768 388.996,898.289 391.011,939.8 393.025,991.059 395.039,1043.86 397.053,1093.01 399.067,1136.15 
  401.082,1172.75 403.096,1203.27 405.11,1228.52 407.124,1249.34 409.138,1266.54 411.152,1280.8 413.167,1292.64 415.181,1302.53 417.195,1310.81 419.209,1317.76 
  421.223,1323.61 423.237,1328.51 425.252,1332.63 427.266,1336.05 429.28,1338.86 431.294,1341.14 433.308,1342.91 435.322,1344.22 437.337,1345.08 439.351,1345.49 
  441.365,1345.45 443.379,1344.92 445.393,1343.87 447.408,1342.22 449.422,1339.9 451.436,1336.78 453.45,1332.74 455.464,1327.6 457.478,1321.16 459.493,1313.24 
  461.507,1303.71 463.521,1292.64 465.535,1280.47 467.549,1268.28 469.563,1257.91 471.578,1251.59 473.592,1251.04 475.606,1256.49 477.62,1266.51 479.634,1278.89 
  481.648,1291.64 483.663,1303.5 485.677,1313.88 487.691,1322.63 489.705,1329.87 491.719,1335.77 493.734,1340.54 495.748,1344.37 497.762,1347.44 499.776,1349.89 
  501.79,1351.86 503.804,1353.48 505.819,1354.87 507.833,1356.09 509.847,1357.17 511.861,1358.08 513.875,1358.82 515.889,1359.36 517.904,1359.71 519.918,1359.88 
  521.932,1359.87 523.946,1359.69 525.96,1359.34 527.974,1358.83 529.989,1358.16 532.003,1357.32 534.017,1356.3 536.031,1355.1 538.045,1353.7 540.06,1352.08 
  542.074,1350.22 544.088,1348.08 546.102,1345.63 548.116,1342.85 550.13,1339.72 552.145,1336.22 554.159,1332.41 556.173,1328.34 558.187,1324.11 560.201,1319.76 
  562.215,1315.2 564.23,1310.24 566.244,1304.61 568.258,1298.06 570.272,1290.31 572.286,1281.11 574.301,1270.19 576.315,1257.2 578.329,1241.72 580.343,1223.22 
  582.357,1201.04 584.371,1174.34 586.386,1142.11 588.4,1103.17 590.414,1056.21 592.428,999.98 594.442,933.742 596.456,858.121 598.471,776.486 600.485,696.496 
  602.499,630.524 604.513,592.923 606.527,593.697 608.541,632.624 610.556,699.396 612.57,779.631 614.584,861.102 616.598,936.321 618.612,1002.04 620.627,1057.7 
  622.641,1104.08 624.655,1142.46 626.669,1174.17 628.683,1200.41 630.697,1222.2 632.712,1240.38 634.726,1255.61 636.74,1268.42 638.754,1279.24 640.768,1288.39 
  642.782,1296.15 644.797,1302.72 646.811,1308.27 648.825,1312.93 650.839,1316.79 652.853,1319.93 654.867,1322.4 656.882,1324.24 658.896,1325.48 660.91,1326.15 
  662.924,1326.28 664.938,1325.93 666.953,1325.14 668.967,1323.93 670.981,1322.23 672.995,1319.89 675.009,1316.69 677.023,1312.39 679.038,1306.81 681.052,1299.87 
  683.066,1291.68 685.08,1282.76 687.094,1274.12 689.108,1267.32 691.123,1264.04 693.137,1265.24 695.151,1270.64 697.165,1278.84 699.179,1288.17 701.193,1297.29 
  703.208,1305.43 705.222,1312.28 707.236,1317.8 709.25,1322.1 711.264,1325.31 713.279,1327.57 715.293,1329.01 717.307,1329.72 719.321,1329.79 721.335,1329.29 
  723.349,1328.26 725.364,1326.73 727.378,1324.67 729.392,1322.02 731.406,1318.69 733.42,1314.57 735.434,1309.52 737.449,1303.38 739.463,1295.96 741.477,1287.01 
  743.491,1276.2 745.505,1263.14 747.519,1247.35 749.534,1228.23 751.548,1205.1 753.562,1177.25 755.576,1144.08 757.59,1105.42 759.605,1062.15 761.619,1017 
  763.633,975.302 765.647,944.533 767.661,931.943 769.675,940.792 771.69,968.318 773.704,1007.46 775.718,1050.58 777.732,1092.08 779.746,1128.95 781.76,1160.13 
  783.775,1185.67 785.789,1206.08 787.803,1222.03 789.817,1234.12 791.831,1242.87 793.845,1248.65 795.86,1251.71 797.874,1252.16 799.888,1250 801.902,1245.12 
  803.916,1237.28 805.931,1226.15 807.945,1211.31 809.959,1192.34 811.973,1169.02 813.987,1141.63 816.001,1111.47 818.016,1081.52 820.03,1056.56 822.044,1042.17 
  824.058,1042.3 826.072,1056.96 828.086,1082.16 830.101,1112.31 832.115,1142.58 834.129,1169.94 836.143,1193.06 838.157,1211.62 840.171,1225.85 842.186,1236.23 
  844.2,1243.35 846.214,1247.98 848.228,1251.15 850.242,1254.13 852.257,1258.15 854.271,1263.98 856.285,1271.52 858.299,1280.04 860.313,1288.61 862.327,1296.52 
  864.342,1303.4 866.356,1309.11 868.37,1313.68 870.384,1317.18 872.398,1319.73 874.412,1321.43 876.427,1322.4 878.441,1322.76 880.455,1322.69 882.469,1322.41 
  884.483,1322.12 886.498,1321.93 888.512,1321.79 890.526,1321.53 892.54,1320.97 894.554,1319.93 896.568,1318.29 898.583,1315.97 900.597,1312.89 902.611,1308.98 
  904.625,1304.12 906.639,1298.19 908.653,1291.01 910.668,1282.34 912.682,1271.89 914.696,1259.3 916.71,1244.12 918.724,1225.8 920.738,1203.73 922.753,1177.23 
  924.767,1145.67 926.781,1108.69 928.795,1066.71 930.809,1021.66 932.824,977.83 934.838,942.021 936.852,921.852 938.866,922.26 940.88,942.523 942.894,976.688 
  944.909,1016.95 946.923,1056.86 948.937,1092.54 950.951,1122.27 952.965,1145.7 954.979,1163.09 956.994,1174.89 959.008,1181.5 961.022,1183.18 963.036,1180.02 
  965.05,1171.89 967.064,1158.59 969.079,1139.89 971.093,1115.8 973.107,1087.02 975.121,1055.58 977.135,1025.44 979.15,1002.35 981.164,992.244 983.178,998.336 
  985.192,1019.17 987.206,1049.56 989.22,1083.48 991.235,1116.35 993.249,1145.71 995.263,1170.82 997.277,1191.92 999.291,1209.63 1001.31,1224.47 1003.32,1236.75 
  1005.33,1246.58 1007.35,1254.05 1009.36,1259.31 1011.38,1262.58 1013.39,1264.27 1015.4,1264.96 1017.42,1265.5 1019.43,1266.75 1021.45,1269.31 1023.46,1273.19 
  1025.48,1277.88 1027.49,1282.67 1029.5,1286.94 1031.52,1290.34 1033.53,1292.71 1035.55,1294.02 1037.56,1294.31 1039.57,1293.64 1041.59,1292.09 1043.6,1289.77 
  1045.62,1286.79 1047.63,1283.27 1049.65,1279.25 1051.66,1274.64 1053.67,1269.22 1055.69,1262.69 1057.7,1254.75 1059.72,1245.07 1061.73,1233.32 1063.74,1219.09 
  1065.76,1201.88 1067.77,1181.07 1069.79,1155.88 1071.8,1125.37 1073.82,1088.44 1075.83,1043.88 1077.84,990.644 1079.86,928.275 1081.87,857.812 1083.89,783.081 
  1085.9,711.95 1087.91,656.154 1089.93,627.954 1091.94,634.158 1093.96,671.923 1095.97,730.508 1097.99,797.165 1100,861.953 1102.01,919.158 1104.03,966.446 
  1106.04,1003.47 1108.06,1030.75 1110.07,1049.07 1112.09,1059.12 1114.1,1061.35 1116.11,1056.05 1118.13,1043.34 1120.14,1023.44 1122.16,997.004 1124.17,965.458 
  1126.18,931.369 1128.2,898.395 1130.21,870.971 1132.23,853.758 1134.24,850.543 1136.26,862.38 1138.27,886.36 1140.28,916.629 1142.3,946.945 1144.31,972.639 
  1146.33,991.113 1148.34,1001.45 1150.35,1003.86 1152.37,999.31 1154.38,989.107 1156.4,974.315 1158.41,955.174 1160.43,931.047 1162.44,901.26 1164.45,866.409 
  1166.47,829.34 1168.48,795.029 1170.5,768.903 1172.51,754.449 1174.52,752.323 1176.54,761.922 1178.55,783.294 1180.57,816.852 1182.58,861.469 1184.6,913.532 
  1186.61,968.049 1188.62,1020.53 1190.64,1068.12 1192.65,1109.62 1194.67,1144.98 1196.68,1174.75 1198.69,1199.7 1200.71,1220.64 1202.72,1238.26 1204.74,1253.16 
  1206.75,1265.83 1208.77,1276.67 1210.78,1286 1212.79,1294.07 1214.81,1301.1 1216.82,1307.26 1218.84,1312.66 1220.85,1317.44 1222.86,1321.67 1224.88,1325.44 
  1226.89,1328.8 1228.91,1331.81 1230.92,1334.51 1232.94,1336.94 1234.95,1339.13 1236.96,1341.1 1238.98,1342.88 1240.99,1344.49 1243.01,1345.95 1245.02,1347.26 
  1247.03,1348.45 1249.05,1349.51 1251.06,1350.47 1253.08,1351.33 1255.09,1352.1 1257.11,1352.78 1259.12,1353.38 1261.13,1353.91 1263.15,1354.36 1265.16,1354.74 
  1267.18,1355.06 1269.19,1355.31 1271.2,1355.5 1273.22,1355.63 1275.23,1355.7 1277.25,1355.71 1279.26,1355.67 1281.28,1355.57 1283.29,1355.41 1285.3,1355.19 
  1287.32,1354.91 1289.33,1354.57 1291.35,1354.17 1293.36,1353.71 1295.37,1353.18 1297.39,1352.58 1299.4,1351.91 1301.42,1351.17 1303.43,1350.34 1305.45,1349.43 
  1307.46,1348.43 1309.47,1347.34 1311.49,1346.14 1313.5,1344.83 1315.52,1343.39 1317.53,1341.83 1319.54,1340.13 1321.56,1338.27 1323.57,1336.23 1325.59,1334.02 
  1327.6,1331.59 1329.62,1328.94 1331.63,1326.03 1333.64,1322.83 1335.66,1319.32 1337.67,1315.44 1339.69,1311.16 1341.7,1306.42 1343.72,1301.16 1345.73,1295.3 
  1347.74,1288.75 1349.76,1281.4 1351.77,1273.12 1353.79,1263.77 1355.8,1253.15 1357.81,1241.04 1359.83,1227.14 1361.84,1211.12 1363.86,1192.55 1365.87,1170.89 
  1367.89,1145.47 1369.9,1115.45 1371.91,1079.82 1373.93,1037.29 1375.94,986.342 1377.96,925.242 1379.97,852.185 1381.98,765.68 1384,665.298 1386.01,552.881 
  1388.03,433.935 1390.04,318.196 1392.06,217.856 1394.07,143.245 1396.08,99.2172 1398.1,86.1857 1400.11,104.339 1402.13,154.835 1404.14,235.94 1406.15,339.535 
  1408.17,452.99 1410.18,564.318 1412.2,665.736 1414.21,754.041 1416.23,829.135 1418.24,892.276 1420.25,944.885 1422.27,988.109 1424.28,1022.86 1426.3,1049.94 
  1428.31,1070.19 1430.32,1084.52 1432.34,1094.05 1434.35,1100.2 1436.37,1104.63 1438.38,1108.89 1440.4,1114 1442.41,1120.19 1444.42,1127.18 1446.44,1134.38 
  1448.45,1141.24 1450.47,1147.55 1452.48,1153.74 1454.49,1160.81 1456.51,1169.74 1458.52,1180.69 1460.54,1192.89 1462.55,1205.08 1464.57,1216.09 1466.58,1225.18 
  1468.59,1232.03 1470.61,1236.57 1472.62,1238.87 1474.64,1239.14 1476.65,1237.7 1478.66,1234.99 1480.68,1231.55 1482.69,1227.78 1484.71,1223.75 1486.72,1219.17 
  1488.74,1213.65 1490.75,1207.1 1492.76,1199.98 1494.78,1193.17 1496.79,1187.57 1498.81,1183.4 1500.82,1179.95 1502.83,1175.77 1504.85,1169.29 1506.86,1159.19 
  1508.88,1144.44 1510.89,1124.31 1512.91,1098.39 1514.92,1066.79 1516.93,1030.7 1518.95,992.942 1520.96,958.308 1522.98,932.709 1524.99,920.889 1527,924.064 
  1529.02,939.733 1531.03,963.702 1533.05,992.049 1535.06,1021.63 1537.08,1049.84 1539.09,1074.6 1541.1,1094.53 1543.12,1108.94 1545.13,1117.61 1547.15,1120.55 
  1549.16,1117.75 1551.17,1109.07 1553.19,1094.16 1555.2,1072.41 1557.22,1042.96 1559.23,1004.75 1561.25,956.76 1563.26,898.457 1565.27,830.612 1567.29,756.628 
  1569.3,683.987 1571.32,624.584 1573.33,592.022 1575.35,595.564 1577.36,634.684 1579.37,699.424 1581.39,776.188 1583.4,853.578 1585.42,924.739 1587.43,986.844 
  1589.44,1039.6 1591.46,1083.94 1593.47,1121.1 1595.49,1152.28 1597.5,1178.44 1599.52,1200.38 1601.53,1218.77 1603.54,1234.2 1605.56,1247.14 1607.57,1258 
  1609.59,1267.08 1611.6,1274.66 1613.61,1280.92 1615.63,1286.02 1617.64,1290.07 1619.66,1293.15 1621.67,1295.31 1623.69,1296.57 1625.7,1296.95 1627.71,1296.49 
  1629.73,1295.23 1631.74,1293.26 1633.76,1290.69 1635.77,1287.58 1637.78,1283.93 1639.8,1279.73 1641.81,1275.08 1643.83,1270.43 1645.84,1266.49 1647.86,1264.05 
  1649.87,1263.46 1651.88,1264.41 1653.9,1266.03 1655.91,1267.33 1657.93,1267.53 1659.94,1266.11 1661.95,1262.72 1663.97,1257.1 1665.98,1248.98 1668,1238.03 
  1670.01,1223.83 1672.03,1205.87 1674.04,1183.64 1676.05,1156.74 1678.07,1125.18 1680.08,1089.95 1682.1,1053.66 1684.11,1021 1686.12,998.126 1688.14,990.407 
  1690.15,999.452 1692.17,1022.08 1694.18,1052.25 1696.2,1083.99 1698.21,1113.18 1700.22,1137.67 1702.24,1156.7 1704.25,1170.23 1706.27,1178.5 1708.28,1181.76 
  1710.29,1180.2 1712.31,1173.9 1714.32,1162.86 1716.34,1147.03 1718.35,1126.38 1720.37,1100.82 1722.38,1070.35 1724.39,1035.54 1726.41,998.4 1728.42,963.311 
  1730.44,937.011 1732.45,926.609 1734.46,936.039 1736.48,963.616 1738.49,1003.11 1740.51,1047.19 1742.52,1090.23 1744.54,1129.14 1746.55,1162.8 1748.56,1191.32 
  1750.58,1215.27 1752.59,1235.38 1754.61,1252.26 1756.62,1266.44 1758.63,1278.36 1760.65,1288.37 1762.66,1296.8 1764.68,1303.89 1766.69,1309.88 1768.71,1314.92 
  1770.72,1319.17 1772.73,1322.73 1774.75,1325.69 1776.76,1328.12 1778.78,1330.08 1780.79,1331.6 1782.81,1332.71 1784.82,1333.43 1786.83,1333.77 1788.85,1333.71 
  1790.86,1333.24 1792.88,1332.34 1794.89,1330.97 1796.9,1329.09 1798.92,1326.64 1800.93,1323.55 1802.95,1319.77 1804.96,1315.2 1806.98,1309.77 1808.99,1303.4 
  1811,1296.13 1813.02,1288.23 1815.03,1280.22 1817.05,1272.88 1819.06,1266.9 1821.07,1262.44 1823.09,1258.91 1825.1,1255.23 1827.12,1250.2 1829.13,1242.82 
  1831.15,1232.31 1833.16,1218.03 1835.17,1199.51 1837.19,1176.47 1839.2,1149.13 1841.22,1118.69 1843.23,1087.91 1845.24,1061.43 1847.26,1044.88 1849.27,1042.58 
  1851.29,1055.11 1853.3,1078.92 1855.32,1108.47 1857.33,1138.76 1859.34,1166.58 1861.36,1190.43 1863.37,1209.92 1865.39,1225.25 1867.4,1236.82 1869.41,1245.06 
  1871.43,1250.31 1873.44,1252.83 1875.46,1252.77 1877.47,1250.14 1879.49,1244.88 1881.5,1236.76 1883.51,1225.45 1885.53,1210.45 1887.54,1191.17 1889.56,1166.93 
  1891.57,1137.12 1893.58,1101.52 1895.6,1060.8 1897.61,1017.34 1899.63,976.033 1901.64,944.176 1903.66,929.429 1905.67,936.132 1907.68,962.661 1909.7,1002.47 
  1911.71,1047.73 1913.73,1092.34 1915.74,1132.83 1917.75,1167.88 1919.77,1197.41 1921.78,1221.95 1923.8,1242.24 1925.81,1258.97 1927.83,1272.8 1929.84,1284.24 
  1931.85,1293.74 1933.87,1301.62 1935.88,1308.17 1937.9,1313.59 1939.91,1318.04 1941.92,1321.66 1943.94,1324.52 1945.95,1326.7 1947.97,1328.24 1949.98,1329.16 
  1952,1329.46 1954.01,1329.11 1956.02,1328.07 1958.04,1326.29 1960.05,1323.7 1962.07,1320.23 1964.08,1315.79 1966.09,1310.33 1968.11,1303.77 1970.12,1296.05 
  1972.14,1287.29 1974.15,1277.98 1976.17,1269.17 1978.18,1262.49 1980.19,1259.58 1982.21,1261.36 1984.22,1267.38 1986.24,1276.13 1988.25,1285.88 1990.26,1295.29 
  1992.28,1303.63 1994.29,1310.61 1996.31,1316.22 1998.32,1320.58 2000.34,1323.83 2002.35,1326.13 2004.36,1327.6 2006.38,1328.34 2008.39,1328.46 2010.41,1328.03 
  2012.42,1327.12 2014.44,1325.76 2016.45,1323.95 2018.46,1321.66 2020.48,1318.8 2022.49,1315.31 2024.51,1311.09 2026.52,1306.04 2028.53,1300.06 2030.55,1292.98 
  2032.56,1284.63 2034.58,1274.77 2036.59,1263.11 2038.61,1249.27 2040.62,1232.8 2042.63,1213.09 2044.65,1189.42 2046.66,1160.87 2048.68,1126.32 2050.69,1084.52 
  2052.7,1034.13 2054.72,974.002 2056.73,903.846 2058.75,825.238 2060.76,743.175 2062.78,667.364 2064.79,611.572 2066.8,589.236 2068.82,606.594 2070.83,658.805 
  2072.85,732.995 2074.86,815.098 2076.87,894.756 2078.89,966.396 2080.9,1028.07 2082.92,1079.91 2084.93,1122.98 2086.95,1158.59 2088.96,1188.05 2090.97,1212.48 
  2092.99,1232.8 2095,1249.78 2097.02,1264.03 2099.03,1276.01 2101.04,1286.11 2103.06,1294.64 2105.07,1301.86 2107.09,1308.02 2109.1,1313.36 2111.12,1318.15 
  2113.13,1322.6 2115.14,1326.87 2117.16,1330.99 2119.17,1334.9 2121.19,1338.52 2123.2,1341.8 2125.21,1344.73 2127.23,1347.32 2129.24,1349.6 2131.26,1351.6 
  2133.27,1353.35 2135.29,1354.88 2137.3,1356.2 2139.31,1357.34 2141.33,1358.31 2143.34,1359.13 2145.36,1359.79 2147.37,1360.31 2149.38,1360.69 2151.4,1360.93 
  2153.41,1361.02 2155.43,1360.97 2157.44,1360.75 2159.46,1360.35 2161.47,1359.77 2163.48,1358.98 2165.5,1357.94 2167.51,1356.62 2169.53,1354.97 2171.54,1352.93 
  2173.55,1350.43 2175.57,1347.36 2177.58,1343.63 2179.6,1339.09 2181.61,1333.57 2183.63,1326.92 2185.64,1318.94 2187.65,1309.47 2189.67,1298.49 2191.68,1286.22 
  2193.7,1273.44 2195.71,1261.69 2197.72,1253.11 2199.74,1249.76 2201.75,1252.55 2203.77,1260.67 2205.78,1272.06 2207.8,1284.55 2209.81,1296.55 2211.82,1307.21 
  2213.84,1316.24 2215.85,1323.66 2217.87,1329.65 2219.88,1334.39 2221.9,1338.09 2223.91,1340.91 2225.92,1342.98 2227.94,1344.41 2229.95,1345.27 2231.97,1345.63 
  2233.98,1345.51 2235.99,1344.95 2238.01,1343.94 2240.02,1342.47 2242.04,1340.54 2244.05,1338.1 2246.07,1335.09 2248.08,1331.46 2250.09,1327.11 2252.11,1321.92 
  2254.12,1315.74 2256.14,1308.4 2258.15,1299.64 2260.16,1289.17 2262.18,1276.62 2264.19,1261.5 2266.21,1243.23 2268.22,1221.11 2270.24,1194.29 2272.25,1161.93 
  2274.26,1123.28 2276.28,1078.11 2278.29,1027.41 2280.31,974.337 2282.32,925.079 2284.33,888.513 2286.35,873.417 2288.36,884.029 2290.38,917.42 2292.39,965.339 
  
  "/>
<path clip-path="url(#clip820)" d="
M1992.24 196.789 L2281.66 196.789 L2281.66 93.1086 L1992.24 93.1086  Z
  " fill="#ffffff" fill-rule="evenodd" fill-opacity="1"/>
<polyline clip-path="url(#clip820)" style="stroke:#000000; stroke-linecap:round; stroke-linejoin:round; stroke-width:4; stroke-opacity:1; fill:none" points="
  1992.24,196.789 2281.66,196.789 2281.66,93.1086 1992.24,93.1086 1992.24,196.789 
  "/>
<polyline clip-path="url(#clip820)" style="stroke:#009af9; stroke-linecap:round; stroke-linejoin:round; stroke-width:4; stroke-opacity:1; fill:none" points="
  2015.94,144.949 2158.13,144.949 
  "/>
<path clip-path="url(#clip820)" d="M2195.67 164.636 Q2193.87 169.266 2192.16 170.678 Q2190.44 172.09 2187.57 172.09 L2184.17 172.09 L2184.17 168.525 L2186.67 168.525 Q2188.43 168.525 2189.4 167.692 Q2190.37 166.858 2191.55 163.756 L2192.32 161.812 L2181.83 136.303 L2186.35 136.303 L2194.45 156.581 L2202.55 136.303 L2207.06 136.303 L2195.67 164.636 Z" fill="#000000" fill-rule="evenodd" fill-opacity="1" /><path clip-path="url(#clip820)" d="M2214.35 158.293 L2221.99 158.293 L2221.99 131.928 L2213.68 133.595 L2213.68 129.335 L2221.95 127.669 L2226.62 127.669 L2226.62 158.293 L2234.26 158.293 L2234.26 162.229 L2214.35 162.229 L2214.35 158.293 Z" fill="#000000" fill-rule="evenodd" fill-opacity="1" /></svg>
