<?xml version="1.0" encoding="utf-8"?>
<svg xmlns="http://www.w3.org/2000/svg" xmlns:xlink="http://www.w3.org/1999/xlink" width="600" height="400" viewBox="0 0 2400 1600">
<defs>
  <clipPath id="clip130">
    <rect x="0" y="0" width="2400" height="1600"/>
  </clipPath>
</defs>
<path clip-path="url(#clip130)" d="
M0 1600 L2400 1600 L2400 0 L0 0  Z
  " fill="#ffffff" fill-rule="evenodd" fill-opacity="1"/>
<defs>
  <clipPath id="clip131">
    <rect x="480" y="0" width="1681" height="1600"/>
  </clipPath>
</defs>
<path clip-path="url(#clip130)" d="
M249.542 1423.18 L2352.76 1423.18 L2352.76 47.2441 L249.542 47.2441  Z
  " fill="#ffffff" fill-rule="evenodd" fill-opacity="1"/>
<defs>
  <clipPath id="clip132">
    <rect x="249" y="47" width="2104" height="1377"/>
  </clipPath>
</defs>
<polyline clip-path="url(#clip132)" style="stroke:#000000; stroke-linecap:butt; stroke-linejoin:round; stroke-width:2; stroke-opacity:0.1; fill:none" points="
  309.067,1423.18 309.067,47.2441 
  "/>
<polyline clip-path="url(#clip132)" style="stroke:#000000; stroke-linecap:butt; stroke-linejoin:round; stroke-width:2; stroke-opacity:0.1; fill:none" points="
  805.108,1423.18 805.108,47.2441 
  "/>
<polyline clip-path="url(#clip132)" style="stroke:#000000; stroke-linecap:butt; stroke-linejoin:round; stroke-width:2; stroke-opacity:0.1; fill:none" points="
  1301.15,1423.18 1301.15,47.2441 
  "/>
<polyline clip-path="url(#clip132)" style="stroke:#000000; stroke-linecap:butt; stroke-linejoin:round; stroke-width:2; stroke-opacity:0.1; fill:none" points="
  1797.19,1423.18 1797.19,47.2441 
  "/>
<polyline clip-path="url(#clip132)" style="stroke:#000000; stroke-linecap:butt; stroke-linejoin:round; stroke-width:2; stroke-opacity:0.1; fill:none" points="
  2293.23,1423.18 2293.23,47.2441 
  "/>
<polyline clip-path="url(#clip130)" style="stroke:#000000; stroke-linecap:butt; stroke-linejoin:round; stroke-width:4; stroke-opacity:1; fill:none" points="
  249.542,1423.18 2352.76,1423.18 
  "/>
<polyline clip-path="url(#clip130)" style="stroke:#000000; stroke-linecap:butt; stroke-linejoin:round; stroke-width:4; stroke-opacity:1; fill:none" points="
  309.067,1423.18 309.067,1404.28 
  "/>
<polyline clip-path="url(#clip130)" style="stroke:#000000; stroke-linecap:butt; stroke-linejoin:round; stroke-width:4; stroke-opacity:1; fill:none" points="
  805.108,1423.18 805.108,1404.28 
  "/>
<polyline clip-path="url(#clip130)" style="stroke:#000000; stroke-linecap:butt; stroke-linejoin:round; stroke-width:4; stroke-opacity:1; fill:none" points="
  1301.15,1423.18 1301.15,1404.28 
  "/>
<polyline clip-path="url(#clip130)" style="stroke:#000000; stroke-linecap:butt; stroke-linejoin:round; stroke-width:4; stroke-opacity:1; fill:none" points="
  1797.19,1423.18 1797.19,1404.28 
  "/>
<polyline clip-path="url(#clip130)" style="stroke:#000000; stroke-linecap:butt; stroke-linejoin:round; stroke-width:4; stroke-opacity:1; fill:none" points="
  2293.23,1423.18 2293.23,1404.28 
  "/>
<path clip-path="url(#clip130)" d="M277.968 1468.75 L307.643 1468.75 L307.643 1472.69 L277.968 1472.69 L277.968 1468.75 Z" fill="#000000" fill-rule="evenodd" fill-opacity="1" /><path clip-path="url(#clip130)" d="M330.583 1455.09 L318.778 1473.54 L330.583 1473.54 L330.583 1455.09 M329.356 1451.02 L335.236 1451.02 L335.236 1473.54 L340.166 1473.54 L340.166 1477.43 L335.236 1477.43 L335.236 1485.58 L330.583 1485.58 L330.583 1477.43 L314.981 1477.43 L314.981 1472.92 L329.356 1451.02 Z" fill="#000000" fill-rule="evenodd" fill-opacity="1" /><path clip-path="url(#clip130)" d="M775.05 1468.75 L804.726 1468.75 L804.726 1472.69 L775.05 1472.69 L775.05 1468.75 Z" fill="#000000" fill-rule="evenodd" fill-opacity="1" /><path clip-path="url(#clip130)" d="M818.846 1481.64 L835.166 1481.64 L835.166 1485.58 L813.221 1485.58 L813.221 1481.64 Q815.883 1478.89 820.467 1474.26 Q825.073 1469.61 826.254 1468.27 Q828.499 1465.74 829.379 1464.01 Q830.281 1462.25 830.281 1460.56 Q830.281 1457.8 828.337 1456.07 Q826.416 1454.33 823.314 1454.33 Q821.115 1454.33 818.661 1455.09 Q816.231 1455.86 813.453 1457.41 L813.453 1452.69 Q816.277 1451.55 818.731 1450.97 Q821.184 1450.39 823.221 1450.39 Q828.592 1450.39 831.786 1453.08 Q834.98 1455.77 834.98 1460.26 Q834.98 1462.39 834.17 1464.31 Q833.383 1466.2 831.277 1468.8 Q830.698 1469.47 827.596 1472.69 Q824.494 1475.88 818.846 1481.64 Z" fill="#000000" fill-rule="evenodd" fill-opacity="1" /><path clip-path="url(#clip130)" d="M1301.15 1454.1 Q1297.54 1454.1 1295.71 1457.66 Q1293.9 1461.2 1293.9 1468.33 Q1293.9 1475.44 1295.71 1479.01 Q1297.54 1482.55 1301.15 1482.55 Q1304.78 1482.55 1306.59 1479.01 Q1308.42 1475.44 1308.42 1468.33 Q1308.42 1461.2 1306.59 1457.66 Q1304.78 1454.1 1301.15 1454.1 M1301.15 1450.39 Q1306.96 1450.39 1310.01 1455 Q1313.09 1459.58 1313.09 1468.33 Q1313.09 1477.06 1310.01 1481.67 Q1306.96 1486.25 1301.15 1486.25 Q1295.34 1486.25 1292.26 1481.67 Q1289.2 1477.06 1289.2 1468.33 Q1289.2 1459.58 1292.26 1455 Q1295.34 1450.39 1301.15 1450.39 Z" fill="#000000" fill-rule="evenodd" fill-opacity="1" /><path clip-path="url(#clip130)" d="M1791.84 1481.64 L1808.16 1481.64 L1808.16 1485.58 L1786.22 1485.58 L1786.22 1481.64 Q1788.88 1478.89 1793.46 1474.26 Q1798.07 1469.61 1799.25 1468.27 Q1801.5 1465.74 1802.38 1464.01 Q1803.28 1462.25 1803.28 1460.56 Q1803.28 1457.8 1801.33 1456.07 Q1799.41 1454.33 1796.31 1454.33 Q1794.11 1454.33 1791.66 1455.09 Q1789.23 1455.86 1786.45 1457.41 L1786.45 1452.69 Q1789.27 1451.55 1791.73 1450.97 Q1794.18 1450.39 1796.22 1450.39 Q1801.59 1450.39 1804.78 1453.08 Q1807.98 1455.77 1807.98 1460.26 Q1807.98 1462.39 1807.17 1464.31 Q1806.38 1466.2 1804.27 1468.8 Q1803.69 1469.47 1800.59 1472.69 Q1797.49 1475.88 1791.84 1481.64 Z" fill="#000000" fill-rule="evenodd" fill-opacity="1" /><path clip-path="url(#clip130)" d="M2296.24 1455.09 L2284.43 1473.54 L2296.24 1473.54 L2296.24 1455.09 M2295.01 1451.02 L2300.89 1451.02 L2300.89 1473.54 L2305.82 1473.54 L2305.82 1477.43 L2300.89 1477.43 L2300.89 1485.58 L2296.24 1485.58 L2296.24 1477.43 L2280.64 1477.43 L2280.64 1472.92 L2295.01 1451.02 Z" fill="#000000" fill-rule="evenodd" fill-opacity="1" /><path clip-path="url(#clip130)" d="M1144.47 1520.52 L1174.52 1520.52 L1174.52 1525.93 L1150.9 1525.93 L1150.9 1540 L1173.53 1540 L1173.53 1545.41 L1150.9 1545.41 L1150.9 1562.63 L1175.09 1562.63 L1175.09 1568.04 L1144.47 1568.04 L1144.47 1520.52 Z" fill="#000000" fill-rule="evenodd" fill-opacity="1" /><path clip-path="url(#clip130)" d="M1215.04 1546.53 L1215.04 1568.04 L1209.18 1568.04 L1209.18 1546.72 Q1209.18 1541.66 1207.21 1539.14 Q1205.23 1536.63 1201.29 1536.63 Q1196.54 1536.63 1193.81 1539.65 Q1191.07 1542.68 1191.07 1547.9 L1191.07 1568.04 L1185.18 1568.04 L1185.18 1532.4 L1191.07 1532.4 L1191.07 1537.93 Q1193.17 1534.72 1196 1533.13 Q1198.87 1531.54 1202.59 1531.54 Q1208.73 1531.54 1211.89 1535.36 Q1215.04 1539.14 1215.04 1546.53 Z" fill="#000000" fill-rule="evenodd" fill-opacity="1" /><path clip-path="url(#clip130)" d="M1257.21 1548.76 L1257.21 1551.62 L1230.28 1551.62 Q1230.66 1557.67 1233.91 1560.85 Q1237.19 1564 1243.01 1564 Q1246.39 1564 1249.54 1563.17 Q1252.72 1562.35 1255.84 1560.69 L1255.84 1566.23 Q1252.69 1567.57 1249.38 1568.27 Q1246.07 1568.97 1242.66 1568.97 Q1234.13 1568.97 1229.14 1564 Q1224.17 1559.04 1224.17 1550.57 Q1224.17 1541.82 1228.88 1536.69 Q1233.62 1531.54 1241.65 1531.54 Q1248.84 1531.54 1253.01 1536.18 Q1257.21 1540.8 1257.21 1548.76 M1251.35 1547.04 Q1251.29 1542.23 1248.65 1539.37 Q1246.04 1536.5 1241.71 1536.5 Q1236.81 1536.5 1233.85 1539.27 Q1230.92 1542.04 1230.47 1547.07 L1251.35 1547.04 Z" fill="#000000" fill-rule="evenodd" fill-opacity="1" /><path clip-path="url(#clip130)" d="M1287.48 1537.87 Q1286.49 1537.3 1285.31 1537.04 Q1284.17 1536.76 1282.77 1536.76 Q1277.8 1536.76 1275.13 1540 Q1272.49 1543.22 1272.49 1549.27 L1272.49 1568.04 L1266.6 1568.04 L1266.6 1532.4 L1272.49 1532.4 L1272.49 1537.93 Q1274.33 1534.69 1277.29 1533.13 Q1280.25 1531.54 1284.49 1531.54 Q1285.09 1531.54 1285.82 1531.63 Q1286.56 1531.7 1287.45 1531.85 L1287.48 1537.87 Z" fill="#000000" fill-rule="evenodd" fill-opacity="1" /><path clip-path="url(#clip130)" d="M1315.93 1549.81 Q1315.93 1543.44 1313.29 1539.94 Q1310.68 1536.44 1305.94 1536.44 Q1301.23 1536.44 1298.59 1539.94 Q1295.98 1543.44 1295.98 1549.81 Q1295.98 1556.14 1298.59 1559.64 Q1301.23 1563.14 1305.94 1563.14 Q1310.68 1563.14 1313.29 1559.64 Q1315.93 1556.14 1315.93 1549.81 M1321.79 1563.62 Q1321.79 1572.72 1317.75 1577.15 Q1313.71 1581.6 1305.37 1581.6 Q1302.28 1581.6 1299.54 1581.13 Q1296.8 1580.68 1294.23 1579.72 L1294.23 1574.03 Q1296.8 1575.43 1299.32 1576.1 Q1301.83 1576.76 1304.44 1576.76 Q1310.2 1576.76 1313.07 1573.74 Q1315.93 1570.75 1315.93 1564.67 L1315.93 1561.77 Q1314.12 1564.92 1311.29 1566.48 Q1308.45 1568.04 1304.51 1568.04 Q1297.95 1568.04 1293.94 1563.05 Q1289.93 1558.05 1289.93 1549.81 Q1289.93 1541.53 1293.94 1536.53 Q1297.95 1531.54 1304.51 1531.54 Q1308.45 1531.54 1311.29 1533.1 Q1314.12 1534.66 1315.93 1537.81 L1315.93 1532.4 L1321.79 1532.4 L1321.79 1563.62 Z" fill="#000000" fill-rule="evenodd" fill-opacity="1" /><path clip-path="url(#clip130)" d="M1348.68 1571.35 Q1346.2 1577.72 1343.85 1579.66 Q1341.49 1581.6 1337.54 1581.6 L1332.87 1581.6 L1332.87 1576.7 L1336.3 1576.7 Q1338.72 1576.7 1340.06 1575.56 Q1341.4 1574.41 1343.02 1570.14 L1344.07 1567.47 L1329.65 1532.4 L1335.86 1532.4 L1347 1560.28 L1358.14 1532.4 L1364.34 1532.4 L1348.68 1571.35 Z" fill="#000000" fill-rule="evenodd" fill-opacity="1" /><path clip-path="url(#clip130)" d="M1392.61 1518.52 L1406.1 1518.52 L1406.1 1523.07 L1398.46 1523.07 L1398.46 1572.09 L1406.1 1572.09 L1406.1 1576.64 L1392.61 1576.64 L1392.61 1518.52 Z" fill="#000000" fill-rule="evenodd" fill-opacity="1" /><path clip-path="url(#clip130)" d="M1424.37 1522.27 L1424.37 1532.4 L1436.44 1532.4 L1436.44 1536.95 L1424.37 1536.95 L1424.37 1556.3 Q1424.37 1560.66 1425.55 1561.9 Q1426.76 1563.14 1430.42 1563.14 L1436.44 1563.14 L1436.44 1568.04 L1430.42 1568.04 Q1423.64 1568.04 1421.06 1565.53 Q1418.48 1562.98 1418.48 1556.3 L1418.48 1536.95 L1414.19 1536.95 L1414.19 1532.4 L1418.48 1532.4 L1418.48 1522.27 L1424.37 1522.27 Z" fill="#000000" fill-rule="evenodd" fill-opacity="1" /><path clip-path="url(#clip130)" d="M1457.82 1518.52 L1457.82 1576.64 L1444.33 1576.64 L1444.33 1572.09 L1451.94 1572.09 L1451.94 1523.07 L1444.33 1523.07 L1444.33 1518.52 L1457.82 1518.52 Z" fill="#000000" fill-rule="evenodd" fill-opacity="1" /><polyline clip-path="url(#clip132)" style="stroke:#000000; stroke-linecap:butt; stroke-linejoin:round; stroke-width:2; stroke-opacity:0.1; fill:none" points="
  249.542,1385.14 2352.76,1385.14 
  "/>
<polyline clip-path="url(#clip132)" style="stroke:#000000; stroke-linecap:butt; stroke-linejoin:round; stroke-width:2; stroke-opacity:0.1; fill:none" points="
  249.542,1068.57 2352.76,1068.57 
  "/>
<polyline clip-path="url(#clip132)" style="stroke:#000000; stroke-linecap:butt; stroke-linejoin:round; stroke-width:2; stroke-opacity:0.1; fill:none" points="
  249.542,751.998 2352.76,751.998 
  "/>
<polyline clip-path="url(#clip132)" style="stroke:#000000; stroke-linecap:butt; stroke-linejoin:round; stroke-width:2; stroke-opacity:0.1; fill:none" points="
  249.542,435.425 2352.76,435.425 
  "/>
<polyline clip-path="url(#clip132)" style="stroke:#000000; stroke-linecap:butt; stroke-linejoin:round; stroke-width:2; stroke-opacity:0.1; fill:none" points="
  249.542,118.853 2352.76,118.853 
  "/>
<polyline clip-path="url(#clip130)" style="stroke:#000000; stroke-linecap:butt; stroke-linejoin:round; stroke-width:4; stroke-opacity:1; fill:none" points="
  249.542,1423.18 249.542,47.2441 
  "/>
<polyline clip-path="url(#clip130)" style="stroke:#000000; stroke-linecap:butt; stroke-linejoin:round; stroke-width:4; stroke-opacity:1; fill:none" points="
  249.542,1385.14 268.44,1385.14 
  "/>
<polyline clip-path="url(#clip130)" style="stroke:#000000; stroke-linecap:butt; stroke-linejoin:round; stroke-width:4; stroke-opacity:1; fill:none" points="
  249.542,1068.57 268.44,1068.57 
  "/>
<polyline clip-path="url(#clip130)" style="stroke:#000000; stroke-linecap:butt; stroke-linejoin:round; stroke-width:4; stroke-opacity:1; fill:none" points="
  249.542,751.998 268.44,751.998 
  "/>
<polyline clip-path="url(#clip130)" style="stroke:#000000; stroke-linecap:butt; stroke-linejoin:round; stroke-width:4; stroke-opacity:1; fill:none" points="
  249.542,435.425 268.44,435.425 
  "/>
<polyline clip-path="url(#clip130)" style="stroke:#000000; stroke-linecap:butt; stroke-linejoin:round; stroke-width:4; stroke-opacity:1; fill:none" points="
  249.542,118.853 268.44,118.853 
  "/>
<path clip-path="url(#clip130)" d="M126.205 1370.94 Q122.593 1370.94 120.765 1374.51 Q118.959 1378.05 118.959 1385.18 Q118.959 1392.28 120.765 1395.85 Q122.593 1399.39 126.205 1399.39 Q129.839 1399.39 131.644 1395.85 Q133.473 1392.28 133.473 1385.18 Q133.473 1378.05 131.644 1374.51 Q129.839 1370.94 126.205 1370.94 M126.205 1367.24 Q132.015 1367.24 135.07 1371.84 Q138.149 1376.43 138.149 1385.18 Q138.149 1393.9 135.07 1398.51 Q132.015 1403.09 126.205 1403.09 Q120.394 1403.09 117.316 1398.51 Q114.26 1393.9 114.26 1385.18 Q114.26 1376.43 117.316 1371.84 Q120.394 1367.24 126.205 1367.24 Z" fill="#000000" fill-rule="evenodd" fill-opacity="1" /><path clip-path="url(#clip130)" d="M146.366 1396.54 L151.251 1396.54 L151.251 1402.42 L146.366 1402.42 L146.366 1396.54 Z" fill="#000000" fill-rule="evenodd" fill-opacity="1" /><path clip-path="url(#clip130)" d="M171.436 1370.94 Q167.825 1370.94 165.996 1374.51 Q164.19 1378.05 164.19 1385.18 Q164.19 1392.28 165.996 1395.85 Q167.825 1399.39 171.436 1399.39 Q175.07 1399.39 176.876 1395.85 Q178.704 1392.28 178.704 1385.18 Q178.704 1378.05 176.876 1374.51 Q175.07 1370.94 171.436 1370.94 M171.436 1367.24 Q177.246 1367.24 180.301 1371.84 Q183.38 1376.43 183.38 1385.18 Q183.38 1393.9 180.301 1398.51 Q177.246 1403.09 171.436 1403.09 Q165.626 1403.09 162.547 1398.51 Q159.491 1393.9 159.491 1385.18 Q159.491 1376.43 162.547 1371.84 Q165.626 1367.24 171.436 1367.24 Z" fill="#000000" fill-rule="evenodd" fill-opacity="1" /><path clip-path="url(#clip130)" d="M201.598 1370.94 Q197.987 1370.94 196.158 1374.51 Q194.352 1378.05 194.352 1385.18 Q194.352 1392.28 196.158 1395.85 Q197.987 1399.39 201.598 1399.39 Q205.232 1399.39 207.037 1395.85 Q208.866 1392.28 208.866 1385.18 Q208.866 1378.05 207.037 1374.51 Q205.232 1370.94 201.598 1370.94 M201.598 1367.24 Q207.408 1367.24 210.463 1371.84 Q213.542 1376.43 213.542 1385.18 Q213.542 1393.9 210.463 1398.51 Q207.408 1403.09 201.598 1403.09 Q195.787 1403.09 192.709 1398.51 Q189.653 1393.9 189.653 1385.18 Q189.653 1376.43 192.709 1371.84 Q195.787 1367.24 201.598 1367.24 Z" fill="#000000" fill-rule="evenodd" fill-opacity="1" /><path clip-path="url(#clip130)" d="M127.2 1054.37 Q123.589 1054.37 121.76 1057.93 Q119.955 1061.48 119.955 1068.6 Q119.955 1075.71 121.76 1079.28 Q123.589 1082.82 127.2 1082.82 Q130.834 1082.82 132.64 1079.28 Q134.468 1075.71 134.468 1068.6 Q134.468 1061.48 132.64 1057.93 Q130.834 1054.37 127.2 1054.37 M127.2 1050.67 Q133.01 1050.67 136.066 1055.27 Q139.144 1059.86 139.144 1068.6 Q139.144 1077.33 136.066 1081.94 Q133.01 1086.52 127.2 1086.52 Q121.39 1086.52 118.311 1081.94 Q115.256 1077.33 115.256 1068.6 Q115.256 1059.86 118.311 1055.27 Q121.39 1050.67 127.2 1050.67 Z" fill="#000000" fill-rule="evenodd" fill-opacity="1" /><path clip-path="url(#clip130)" d="M147.362 1079.97 L152.246 1079.97 L152.246 1085.85 L147.362 1085.85 L147.362 1079.97 Z" fill="#000000" fill-rule="evenodd" fill-opacity="1" /><path clip-path="url(#clip130)" d="M166.459 1081.92 L182.778 1081.92 L182.778 1085.85 L160.834 1085.85 L160.834 1081.92 Q163.496 1079.16 168.079 1074.53 Q172.686 1069.88 173.866 1068.54 Q176.112 1066.01 176.991 1064.28 Q177.894 1062.52 177.894 1060.83 Q177.894 1058.07 175.95 1056.34 Q174.028 1054.6 170.927 1054.6 Q168.727 1054.6 166.274 1055.36 Q163.843 1056.13 161.065 1057.68 L161.065 1052.96 Q163.89 1051.82 166.343 1051.24 Q168.797 1050.67 170.834 1050.67 Q176.204 1050.67 179.399 1053.35 Q182.593 1056.04 182.593 1060.53 Q182.593 1062.66 181.783 1064.58 Q180.996 1066.48 178.889 1069.07 Q178.311 1069.74 175.209 1072.96 Q172.107 1076.15 166.459 1081.92 Z" fill="#000000" fill-rule="evenodd" fill-opacity="1" /><path clip-path="url(#clip130)" d="M192.639 1051.29 L210.996 1051.29 L210.996 1055.23 L196.922 1055.23 L196.922 1063.7 Q197.94 1063.35 198.959 1063.19 Q199.977 1063 200.996 1063 Q206.783 1063 210.162 1066.17 Q213.542 1069.35 213.542 1074.76 Q213.542 1080.34 210.07 1083.44 Q206.598 1086.52 200.278 1086.52 Q198.102 1086.52 195.834 1086.15 Q193.588 1085.78 191.181 1085.04 L191.181 1080.34 Q193.264 1081.48 195.487 1082.03 Q197.709 1082.59 200.186 1082.59 Q204.19 1082.59 206.528 1080.48 Q208.866 1078.37 208.866 1074.76 Q208.866 1071.15 206.528 1069.04 Q204.19 1066.94 200.186 1066.94 Q198.311 1066.94 196.436 1067.35 Q194.584 1067.77 192.639 1068.65 L192.639 1051.29 Z" fill="#000000" fill-rule="evenodd" fill-opacity="1" /><path clip-path="url(#clip130)" d="M126.205 737.797 Q122.593 737.797 120.765 741.361 Q118.959 744.903 118.959 752.033 Q118.959 759.139 120.765 762.704 Q122.593 766.245 126.205 766.245 Q129.839 766.245 131.644 762.704 Q133.473 759.139 133.473 752.033 Q133.473 744.903 131.644 741.361 Q129.839 737.797 126.205 737.797 M126.205 734.093 Q132.015 734.093 135.07 738.699 Q138.149 743.283 138.149 752.033 Q138.149 760.759 135.07 765.366 Q132.015 769.949 126.205 769.949 Q120.394 769.949 117.316 765.366 Q114.26 760.759 114.26 752.033 Q114.26 743.283 117.316 738.699 Q120.394 734.093 126.205 734.093 Z" fill="#000000" fill-rule="evenodd" fill-opacity="1" /><path clip-path="url(#clip130)" d="M146.366 763.398 L151.251 763.398 L151.251 769.278 L146.366 769.278 L146.366 763.398 Z" fill="#000000" fill-rule="evenodd" fill-opacity="1" /><path clip-path="url(#clip130)" d="M161.482 734.718 L179.839 734.718 L179.839 738.653 L165.765 738.653 L165.765 747.125 Q166.783 746.778 167.802 746.616 Q168.82 746.431 169.839 746.431 Q175.626 746.431 179.005 749.602 Q182.385 752.773 182.385 758.19 Q182.385 763.769 178.913 766.87 Q175.44 769.949 169.121 769.949 Q166.945 769.949 164.677 769.579 Q162.431 769.208 160.024 768.468 L160.024 763.769 Q162.107 764.903 164.329 765.458 Q166.552 766.014 169.028 766.014 Q173.033 766.014 175.371 763.908 Q177.709 761.801 177.709 758.19 Q177.709 754.579 175.371 752.472 Q173.033 750.366 169.028 750.366 Q167.153 750.366 165.278 750.783 Q163.427 751.199 161.482 752.079 L161.482 734.718 Z" fill="#000000" fill-rule="evenodd" fill-opacity="1" /><path clip-path="url(#clip130)" d="M201.598 737.797 Q197.987 737.797 196.158 741.361 Q194.352 744.903 194.352 752.033 Q194.352 759.139 196.158 762.704 Q197.987 766.245 201.598 766.245 Q205.232 766.245 207.037 762.704 Q208.866 759.139 208.866 752.033 Q208.866 744.903 207.037 741.361 Q205.232 737.797 201.598 737.797 M201.598 734.093 Q207.408 734.093 210.463 738.699 Q213.542 743.283 213.542 752.033 Q213.542 760.759 210.463 765.366 Q207.408 769.949 201.598 769.949 Q195.787 769.949 192.709 765.366 Q189.653 760.759 189.653 752.033 Q189.653 743.283 192.709 738.699 Q195.787 734.093 201.598 734.093 Z" fill="#000000" fill-rule="evenodd" fill-opacity="1" /><path clip-path="url(#clip130)" d="M127.2 421.224 Q123.589 421.224 121.76 424.789 Q119.955 428.331 119.955 435.46 Q119.955 442.567 121.76 446.131 Q123.589 449.673 127.2 449.673 Q130.834 449.673 132.64 446.131 Q134.468 442.567 134.468 435.46 Q134.468 428.331 132.64 424.789 Q130.834 421.224 127.2 421.224 M127.2 417.52 Q133.01 417.52 136.066 422.127 Q139.144 426.71 139.144 435.46 Q139.144 444.187 136.066 448.793 Q133.01 453.377 127.2 453.377 Q121.39 453.377 118.311 448.793 Q115.256 444.187 115.256 435.46 Q115.256 426.71 118.311 422.127 Q121.39 417.52 127.2 417.52 Z" fill="#000000" fill-rule="evenodd" fill-opacity="1" /><path clip-path="url(#clip130)" d="M147.362 446.826 L152.246 446.826 L152.246 452.705 L147.362 452.705 L147.362 446.826 Z" fill="#000000" fill-rule="evenodd" fill-opacity="1" /><path clip-path="url(#clip130)" d="M161.251 418.145 L183.473 418.145 L183.473 420.136 L170.927 452.705 L166.042 452.705 L177.848 422.081 L161.251 422.081 L161.251 418.145 Z" fill="#000000" fill-rule="evenodd" fill-opacity="1" /><path clip-path="url(#clip130)" d="M192.639 418.145 L210.996 418.145 L210.996 422.081 L196.922 422.081 L196.922 430.553 Q197.94 430.206 198.959 430.044 Q199.977 429.858 200.996 429.858 Q206.783 429.858 210.162 433.03 Q213.542 436.201 213.542 441.618 Q213.542 447.196 210.07 450.298 Q206.598 453.377 200.278 453.377 Q198.102 453.377 195.834 453.006 Q193.588 452.636 191.181 451.895 L191.181 447.196 Q193.264 448.33 195.487 448.886 Q197.709 449.442 200.186 449.442 Q204.19 449.442 206.528 447.335 Q208.866 445.229 208.866 441.618 Q208.866 438.006 206.528 435.9 Q204.19 433.794 200.186 433.794 Q198.311 433.794 196.436 434.21 Q194.584 434.627 192.639 435.506 L192.639 418.145 Z" fill="#000000" fill-rule="evenodd" fill-opacity="1" /><path clip-path="url(#clip130)" d="M117.015 132.198 L124.654 132.198 L124.654 105.832 L116.343 107.499 L116.343 103.24 L124.607 101.573 L129.283 101.573 L129.283 132.198 L136.922 132.198 L136.922 136.133 L117.015 136.133 L117.015 132.198 Z" fill="#000000" fill-rule="evenodd" fill-opacity="1" /><path clip-path="url(#clip130)" d="M146.366 130.253 L151.251 130.253 L151.251 136.133 L146.366 136.133 L146.366 130.253 Z" fill="#000000" fill-rule="evenodd" fill-opacity="1" /><path clip-path="url(#clip130)" d="M171.436 104.652 Q167.825 104.652 165.996 108.217 Q164.19 111.758 164.19 118.888 Q164.19 125.994 165.996 129.559 Q167.825 133.101 171.436 133.101 Q175.07 133.101 176.876 129.559 Q178.704 125.994 178.704 118.888 Q178.704 111.758 176.876 108.217 Q175.07 104.652 171.436 104.652 M171.436 100.948 Q177.246 100.948 180.301 105.555 Q183.38 110.138 183.38 118.888 Q183.38 127.615 180.301 132.221 Q177.246 136.804 171.436 136.804 Q165.626 136.804 162.547 132.221 Q159.491 127.615 159.491 118.888 Q159.491 110.138 162.547 105.555 Q165.626 100.948 171.436 100.948 Z" fill="#000000" fill-rule="evenodd" fill-opacity="1" /><path clip-path="url(#clip130)" d="M201.598 104.652 Q197.987 104.652 196.158 108.217 Q194.352 111.758 194.352 118.888 Q194.352 125.994 196.158 129.559 Q197.987 133.101 201.598 133.101 Q205.232 133.101 207.037 129.559 Q208.866 125.994 208.866 118.888 Q208.866 111.758 207.037 108.217 Q205.232 104.652 201.598 104.652 M201.598 100.948 Q207.408 100.948 210.463 105.555 Q213.542 110.138 213.542 118.888 Q213.542 127.615 210.463 132.221 Q207.408 136.804 201.598 136.804 Q195.787 136.804 192.709 132.221 Q189.653 127.615 189.653 118.888 Q189.653 110.138 192.709 105.555 Q195.787 100.948 201.598 100.948 Z" fill="#000000" fill-rule="evenodd" fill-opacity="1" /><path clip-path="url(#clip130)" d="M16.4842 896.471 L16.4842 890.042 L58.5933 890.042 L58.5933 866.903 L64.0042 866.903 L64.0042 896.471 L16.4842 896.471 Z" fill="#000000" fill-rule="evenodd" fill-opacity="1" /><path clip-path="url(#clip130)" d="M32.4621 847.742 Q32.4621 852.452 36.1542 855.19 Q39.8145 857.927 46.212 857.927 Q52.6095 857.927 56.3017 855.221 Q59.9619 852.484 59.9619 847.742 Q59.9619 843.063 56.2698 840.326 Q52.5777 837.588 46.212 837.588 Q39.8781 837.588 36.186 840.326 Q32.4621 843.063 32.4621 847.742 M27.4968 847.742 Q27.4968 840.103 32.4621 835.742 Q37.4273 831.382 46.212 831.382 Q54.9649 831.382 59.9619 835.742 Q64.9272 840.103 64.9272 847.742 Q64.9272 855.412 59.9619 859.773 Q54.9649 864.102 46.212 864.102 Q37.4273 864.102 32.4621 859.773 Q27.4968 855.412 27.4968 847.742 Z" fill="#000000" fill-rule="evenodd" fill-opacity="1" /><path clip-path="url(#clip130)" d="M29.7248 796.02 L35.1993 796.02 Q33.8307 798.503 33.1623 801.017 Q32.4621 803.5 32.4621 806.046 Q32.4621 811.744 36.0905 814.895 Q39.6872 818.046 46.212 818.046 Q52.7369 818.046 56.3653 814.895 Q59.9619 811.744 59.9619 806.046 Q59.9619 803.5 59.2935 801.017 Q58.5933 798.503 57.2247 796.02 L62.6355 796.02 Q63.7814 798.471 64.3543 801.113 Q64.9272 803.723 64.9272 806.683 Q64.9272 814.736 59.8664 819.478 Q54.8057 824.22 46.212 824.22 Q37.491 824.22 32.4939 819.446 Q27.4968 814.64 27.4968 806.301 Q27.4968 803.596 28.0697 801.017 Q28.6108 798.439 29.7248 796.02 Z" fill="#000000" fill-rule="evenodd" fill-opacity="1" /><path clip-path="url(#clip130)" d="M46.0847 769.635 Q46.0847 776.732 47.7079 779.47 Q49.3312 782.207 53.2461 782.207 Q56.3653 782.207 58.2114 780.17 Q60.0256 778.101 60.0256 774.568 Q60.0256 769.698 56.5881 766.77 Q53.1188 763.81 47.3897 763.81 L46.0847 763.81 L46.0847 769.635 M43.6657 757.953 L64.0042 757.953 L64.0042 763.81 L58.5933 763.81 Q61.8398 765.815 63.3994 768.807 Q64.9272 771.799 64.9272 776.128 Q64.9272 781.602 61.8716 784.849 Q58.7843 788.063 53.6281 788.063 Q47.6125 788.063 44.5569 784.053 Q41.5014 780.011 41.5014 772.022 L41.5014 763.81 L40.9285 763.81 Q36.8862 763.81 34.6901 766.484 Q32.4621 769.125 32.4621 773.931 Q32.4621 776.987 33.1941 779.883 Q33.9262 782.78 35.3903 785.453 L29.9795 785.453 Q28.7381 782.239 28.1334 779.215 Q27.4968 776.191 27.4968 773.327 Q27.4968 765.592 31.5072 761.773 Q35.5176 757.953 43.6657 757.953 Z" fill="#000000" fill-rule="evenodd" fill-opacity="1" /><path clip-path="url(#clip130)" d="M14.479 745.89 L14.479 740.034 L64.0042 740.034 L64.0042 745.89 L14.479 745.89 Z" fill="#000000" fill-rule="evenodd" fill-opacity="1" /><path clip-path="url(#clip130)" d="M21.7677 700.376 L58.7206 700.376 L58.7206 692.609 Q58.7206 682.774 54.2646 678.223 Q49.8086 673.64 40.1964 673.64 Q30.6479 673.64 26.2237 678.223 Q21.7677 682.774 21.7677 692.609 L21.7677 700.376 M16.4842 706.805 L16.4842 693.596 Q16.4842 679.783 22.2451 673.321 Q27.9743 666.86 40.1964 666.86 Q52.4822 666.86 58.2432 673.353 Q64.0042 679.846 64.0042 693.596 L64.0042 706.805 L16.4842 706.805 Z" fill="#000000" fill-rule="evenodd" fill-opacity="1" /><path clip-path="url(#clip130)" d="M20.8447 637.323 Q20.8447 644.326 26.0645 648.463 Q31.2844 652.569 40.2919 652.569 Q49.2675 652.569 54.4874 648.463 Q59.7073 644.326 59.7073 637.323 Q59.7073 630.321 54.4874 626.247 Q49.2675 622.141 40.2919 622.141 Q31.2844 622.141 26.0645 626.247 Q20.8447 630.321 20.8447 637.323 M15.6248 637.323 Q15.6248 627.329 22.3406 621.345 Q29.0246 615.362 40.2919 615.362 Q51.5274 615.362 58.2432 621.345 Q64.9272 627.329 64.9272 637.323 Q64.9272 647.349 58.2432 653.365 Q51.5592 659.349 40.2919 659.349 Q29.0246 659.349 22.3406 653.365 Q15.6248 647.349 15.6248 637.323 Z" fill="#000000" fill-rule="evenodd" fill-opacity="1" /><path clip-path="url(#clip130)" d="M18.0438 576.817 L24.314 576.817 Q22.5634 580.478 21.704 583.724 Q20.8447 586.971 20.8447 589.994 Q20.8447 595.246 22.8817 598.111 Q24.9187 600.943 28.6745 600.943 Q31.8255 600.943 33.4488 599.065 Q35.0402 597.156 36.0269 591.872 L36.8226 587.989 Q38.1912 580.796 41.6605 577.39 Q45.098 573.953 50.8908 573.953 Q57.7976 573.953 61.3624 578.6 Q64.9272 583.215 64.9272 592.159 Q64.9272 595.532 64.1633 599.352 Q63.3994 603.139 61.9035 607.214 L55.2831 607.214 Q57.4793 603.299 58.5933 599.543 Q59.7073 595.787 59.7073 592.159 Q59.7073 586.652 57.543 583.66 Q55.3786 580.669 51.3682 580.669 Q47.8671 580.669 45.8937 582.833 Q43.9204 584.965 42.9337 589.867 L42.1698 593.782 Q40.7375 600.975 37.682 604.19 Q34.6264 607.404 29.1837 607.404 Q22.8817 607.404 19.2532 602.98 Q15.6248 598.524 15.6248 590.726 Q15.6248 587.384 16.2295 583.915 Q16.8343 580.446 18.0438 576.817 Z" fill="#000000" fill-rule="evenodd" fill-opacity="1" /><polyline clip-path="url(#clip132)" style="stroke:#009af9; stroke-linecap:butt; stroke-linejoin:round; stroke-width:4; stroke-opacity:1; fill:none" points="
  309.067,1199.67 311.053,1259.79 313.039,1279.67 315.025,1279.4 317.012,1260.91 318.998,1211.75 320.984,1100.24 322.97,899.04 324.956,616.263 326.942,690.16 
  328.928,1023.93 330.915,1173.95 332.901,1225.07 334.887,1225.9 336.873,1170.49 338.859,1018.71 340.845,963.045 342.832,1133.48 344.818,1212.55 346.804,1217.8 
  348.79,1161.22 350.776,1042.15 352.762,939.597 354.748,971.23 356.735,847.126 358.721,885.967 360.707,1078.73 362.693,1124.92 364.679,1130.71 366.665,1146.13 
  368.651,1198.44 370.638,1188.6 372.624,1084.22 374.61,870.423 376.596,851.871 378.582,1053.05 380.568,1190.96 382.555,1246.18 384.541,1252.41 386.527,1214.76 
  388.513,1194.09 390.499,1227.79 392.485,1208.4 394.471,1133.9 396.458,1015.72 398.444,1049.31 400.43,1160.01 402.416,1170.4 404.402,1081.88 406.388,835.564 
  408.374,702.513 410.361,889.732 412.347,865.4 414.333,963.321 416.319,1129.4 418.305,1180.73 420.291,1150.96 422.278,1020.55 424.264,922.201 426.25,986.697 
  428.236,856.184 430.222,685.709 432.208,944.144 434.194,1093.96 436.181,1075.83 438.167,984.877 440.153,1068.27 442.139,1140.26 444.125,1201.2 446.111,1200.81 
  448.097,1184.31 450.084,1231.35 452.07,1241.32 454.056,1197.53 456.042,1062.83 458.028,904.594 460.014,925.359 462.001,1015.2 463.987,1168.19 465.973,1223.21 
  467.959,1223.53 469.945,1197.02 471.931,1157.92 473.917,1181.58 475.904,1164.38 477.89,1087.11 479.876,894.852 481.862,818.874 483.848,827.388 485.834,961.339 
  487.82,1142.33 489.807,1212.9 491.793,1219.42 493.779,1165.95 495.765,1028.26 497.751,934.171 499.737,1081.2 501.724,1178.51 503.71,1182.73 505.696,1103.02 
  507.682,870.578 509.668,579.951 511.654,794.219 513.64,1067.29 515.627,1160.13 517.613,1212.43 519.599,1256.48 521.585,1266.72 523.571,1245.28 525.557,1167.3 
  527.543,1049.6 529.53,1137.73 531.516,1225.43 533.502,1245.32 535.488,1221.49 537.474,1155.51 539.46,1085.34 541.447,890.584 543.433,508.641 545.419,614.911 
  547.405,885.562 549.391,1046.14 551.377,1039.27 553.363,980.248 555.35,1106.77 557.336,1170.5 559.322,1132.08 561.308,1046.4 563.294,1093.68 565.28,1059.68 
  567.266,909.081 569.253,1012.38 571.239,1129.29 573.225,1164.98 575.211,1209.96 577.197,1197.15 579.183,1110.75 581.17,1062.91 583.156,1157.31 585.142,1220.94 
  587.128,1226.01 589.114,1186.58 591.1,1074.33 593.086,790.539 595.073,414.14 597.059,460.694 599.045,833.597 601.031,1084.43 603.017,1176.97 605.003,1193.08 
  606.989,1138.1 608.976,1027.44 610.962,1091.52 612.948,1138.31 614.934,1115.17 616.92,1170.93 618.906,1202.47 620.893,1209.62 622.879,1177.98 624.865,1071.62 
  626.851,891.432 628.837,814.046 630.823,519.997 632.809,86.1857 634.796,412.611 636.782,686.307 638.768,961.004 640.754,1082.86 642.74,1076.35 644.726,956.613 
  646.712,932.011 648.699,1013.82 650.685,935.706 652.671,839.334 654.657,856.803 656.643,977.006 658.629,1095.08 660.616,1094.07 662.602,1030.89 664.588,1085.55 
  666.574,1092.05 668.56,972.82 670.546,620.375 672.532,175.308 674.519,439.629 676.505,806.855 678.491,980.512 680.477,950.811 682.463,695.885 684.449,534.436 
  686.435,749.153 688.422,833.946 690.408,1027.94 692.394,1133.1 694.38,1139.19 696.366,1187.76 698.352,1250.48 700.339,1278.43 702.325,1286.31 704.311,1280.73 
  706.297,1259.32 708.283,1203.62 710.269,1124.87 712.255,1117.63 714.242,1054.63 716.228,908.049 718.214,682.076 720.2,361.314 722.186,652.769 724.172,820.845 
  726.158,883.933 728.145,1086.82 730.131,1183.64 732.117,1199.36 734.103,1145.44 736.089,1111.23 738.075,1192.73 740.062,1219.75 742.048,1178.39 744.034,1078.77 
  746.02,1110.85 748.006,1140.68 749.992,1090.14 751.978,1129.05 753.965,1155.92 755.951,1101.29 757.937,937.276 759.923,543.853 761.909,223.411 763.895,431.67 
  765.881,217.327 767.868,278.966 769.854,809.481 771.84,1062.34 773.826,1160.91 775.812,1188.43 777.798,1156.07 779.785,1059.85 781.771,953.407 783.757,1034.24 
  785.743,1158.35 787.729,1165.77 789.715,1127.69 791.701,1198.08 793.688,1242.76 795.674,1232.84 797.66,1159.57 799.646,1008.86 801.632,1060.35 803.618,1186.73 
  805.604,1230.3 807.591,1253.54 809.577,1267.04 811.563,1257.24 813.549,1225.51 815.535,1138.55 817.521,1055.16 819.508,1073.37 821.494,1062.54 823.48,1079.12 
  825.466,995.682 827.452,798.553 829.438,438.504 831.424,634.336 833.411,919.622 835.397,934.345 837.383,923.057 839.369,1063.98 841.355,1202.06 843.341,1262.91 
  845.328,1289.35 847.314,1299.82 849.3,1299.73 851.286,1287.77 853.272,1253.49 855.258,1165.49 857.244,1046.5 859.231,1117.36 861.217,1158.78 863.203,1132.62 
  865.189,1048.76 867.175,1003.45 869.161,921.178 871.147,743.444 873.134,689.056 875.12,850.497 877.106,726.543 879.092,672.986 881.078,926.823 883.064,1051.17 
  885.051,1112.09 887.037,1149 889.023,1147.72 891.009,1204.85 892.995,1254.72 894.981,1258.9 896.967,1230.78 898.954,1151.48 900.94,1123.16 902.926,1214.66 
  904.912,1250.56 906.898,1236.52 908.884,1164.89 910.87,1040.93 912.857,1016.69 914.843,901.462 916.829,704.614 918.815,565.131 920.801,851.995 922.787,1118.69 
  924.774,1232.89 926.76,1284.12 928.746,1310.31 930.732,1324.93 932.718,1333.33 934.704,1337.83 936.69,1339.39 938.677,1338.15 940.663,1333.43 942.649,1323.24 
  944.635,1302.41 946.621,1256.7 948.607,1145.91 950.593,957.474 952.58,986.509 954.566,1032.77 956.552,1041.13 958.538,1190.09 960.524,1274.29 962.51,1308.8 
  964.497,1323.07 966.483,1326.75 968.469,1321.16 970.455,1300.66 972.441,1244.51 974.427,1129.63 976.413,1152.86 978.4,1254.21 980.386,1289.71 982.372,1283.84 
  984.358,1259.63 986.344,1237.91 988.33,1189.29 990.316,1233.25 992.303,1263.67 994.289,1240.43 996.275,1145.25 998.261,966.638 1000.25,871.034 1002.23,1049.24 
  1004.22,1211.01 1006.21,1285.22 1008.19,1317.92 1010.18,1334.18 1012.16,1342.96 1014.15,1347.76 1016.14,1350.09 1018.12,1350.59 1020.11,1349.46 1022.09,1346.5 
  1024.08,1341.09 1026.07,1331.84 1028.05,1315.66 1030.04,1285.11 1032.03,1219.99 1034.01,1067.79 1036,833.044 1037.98,808.485 1039.97,889.373 1041.96,1048.92 
  1043.94,1204 1045.93,1268.01 1047.91,1290.4 1049.9,1287.71 1051.89,1252.82 1053.87,1201.92 1055.86,1199.38 1057.85,1179.15 1059.83,1234.81 1061.82,1255.49 
  1063.8,1233.78 1065.79,1218.24 1067.78,1207.16 1069.76,1241.56 1071.75,1231.94 1073.73,1153.73 1075.72,938.208 1077.71,733.366 1079.69,971.067 1081.68,1146.11 
  1083.67,1234.03 1085.65,1266.67 1087.64,1270.38 1089.62,1250.02 1091.61,1190.05 1093.6,1037.42 1095.58,776.238 1097.57,810.926 1099.55,999.53 1101.54,1025.7 
  1103.53,879.608 1105.51,653.491 1107.5,853.353 1109.49,998.246 1111.47,1055.9 1113.46,1147.09 1115.44,1171.07 1117.43,1168.44 1119.42,1128.93 1121.4,1145.98 
  1123.39,1210.35 1125.37,1230.41 1127.36,1221.13 1129.35,1175.88 1131.33,1199.42 1133.32,1242.3 1135.31,1244.32 1137.29,1196.46 1139.28,1081.72 1141.26,1021.75 
  1143.25,1178.01 1145.24,1263.86 1147.22,1295.93 1149.21,1306.45 1151.19,1305.59 1153.18,1294.84 1155.17,1269.69 1157.15,1215.6 1159.14,1111.33 1161.13,945.719 
  1163.11,775.545 1165.1,866.756 1167.08,789.485 1169.07,523.48 1171.06,638.998 1173.04,616.733 1175.03,458.691 1177.01,393.625 1179,704.869 1180.99,869.523 
  1182.97,991.651 1184.96,1164.16 1186.95,1248.79 1188.93,1289.03 1190.92,1310.61 1192.9,1322.94 1194.89,1329.7 1196.88,1332.27 1198.86,1330.63 1200.85,1323.22 
  1202.83,1305.38 1204.82,1263.95 1206.81,1160.13 1208.79,939.931 1210.78,943.144 1212.77,1160.51 1214.75,1267.68 1216.74,1313.09 1218.72,1333.81 1220.71,1342.74 
  1222.7,1343.15 1224.68,1343.52 1226.67,1353.84 1228.65,1359.35 1230.64,1359.59 1232.63,1353.32 1234.61,1336.58 1236.6,1338.29 1238.59,1356.94 1240.57,1365.25 
  1242.56,1367.56 1244.54,1365.44 1246.53,1363.43 1248.52,1369.48 1250.5,1373.36 1252.49,1375.02 1254.47,1375.55 1256.46,1375.51 1258.45,1376.46 1260.43,1377.27 
  1262.42,1377.59 1264.41,1377.56 1266.39,1377.08 1268.38,1375.62 1270.36,1371.64 1272.35,1365.4 1274.34,1369.91 1276.32,1375.37 1278.31,1377.66 1280.29,1378.69 
  1282.28,1379.22 1284.27,1379.52 1286.25,1379.65 1288.24,1379.57 1290.23,1379.34 1292.21,1379.67 1294.2,1379.98 1296.18,1380.09 1298.17,1380.1 1300.16,1380.03 
  1302.14,1379.86 1304.13,1379.51 1306.11,1378.76 1308.1,1377.03 1310.09,1372.77 1312.07,1368.83 1314.06,1373.94 1316.05,1377.47 1318.03,1378.85 1320.02,1379.43 
  1322,1379.67 1323.99,1379.72 1325.98,1379.61 1327.96,1379.23 1329.95,1378.86 1331.93,1379.09 1333.92,1379.1 1335.91,1378.83 1337.89,1378.25 1339.88,1377.14 
  1341.87,1374.71 1343.85,1368.94 1345.84,1363.25 1347.82,1369.5 1349.81,1373.62 1351.8,1374.36 1353.78,1372.73 1355.77,1369.33 1357.75,1370.67 1359.74,1371.85 
  1361.73,1369.91 1363.71,1363.32 1365.7,1348.44 1367.69,1347.52 1369.67,1361.86 1371.66,1368.07 1373.64,1369.88 1375.63,1369.61 1377.62,1367.77 1379.6,1365.47 
  1381.59,1363.5 1383.57,1358.91 1385.56,1348.13 1387.55,1322.41 1389.53,1277.65 1391.52,1272.69 1393.5,1296.67 1395.49,1329.65 1397.48,1344.97 1399.46,1349.94 
  1401.45,1350.35 1403.44,1348.13 1405.42,1343.74 1407.41,1336.91 1409.39,1326.73 1411.38,1311.29 1413.37,1286.54 1415.35,1242.98 1417.34,1155.61 1419.32,978.691 
  1421.31,801.974 1423.3,544.634 1425.28,113.368 1427.27,196.135 1429.26,380.234 1431.24,529.593 1433.23,541.537 1435.21,809.792 1437.2,930.854 1439.19,972.122 
  1441.17,1103.22 1443.16,1215.39 1445.14,1265.03 1447.13,1297.32 1449.12,1317.1 1451.1,1327.65 1453.09,1332.83 1455.08,1333.62 1457.06,1328.58 1459.05,1311.57 
  1461.03,1280.02 1463.02,1284.28 1465.01,1288.5 1466.99,1269.78 1468.98,1205.68 1470.96,1143.11 1472.95,1135.61 1474.94,1193.39 1476.92,1250.43 1478.91,1245.93 
  1480.9,1220.23 1482.88,1241.5 1484.87,1236.21 1486.85,1175.73 1488.84,1008.39 1490.83,782.783 1492.81,886.825 1494.8,864.733 1496.78,689.383 1498.77,837.325 
  1500.76,906.734 1502.74,801.7 1504.73,441.927 1506.72,517.898 1508.7,880.136 1510.69,1111.2 1512.67,1225.11 1514.66,1277.5 1516.65,1303.39 1518.63,1314.59 
  1520.62,1312.37 1522.6,1287.34 1524.59,1245.15 1526.58,1285.2 1528.56,1328.16 1530.55,1346.32 1532.54,1353.71 1534.52,1355.81 1536.51,1358.03 1538.49,1359.38 
  1540.48,1362.92 1542.47,1362.78 1544.45,1359.67 1546.44,1363.12 1548.42,1365.23 1550.41,1369.49 1552.4,1372.55 1554.38,1373.74 1556.37,1373.76 1558.36,1372.26 
  1560.34,1367.74 1562.33,1363.01 1564.31,1360.45 1566.3,1360.32 1568.29,1368.6 1570.27,1374.31 1572.26,1376.84 1574.24,1378.11 1576.23,1378.85 1578.22,1379.32 
  1580.2,1379.65 1582.19,1379.87 1584.18,1380.02 1586.16,1380.09 1588.15,1380.09 1590.13,1379.97 1592.12,1379.68 1594.11,1379.07 1596.09,1377.77 1598.08,1374.71 
  1600.06,1367.78 1602.05,1360.23 1604.04,1364.9 1606.02,1372.36 1608.01,1376.36 1610,1377.42 1611.98,1376.32 1613.97,1374.66 1615.95,1376.53 1617.94,1377.29 
  1619.93,1378.35 1621.91,1378.74 1623.9,1377.48 1625.88,1373.68 1627.87,1372.87 1629.86,1377.27 1631.84,1379.45 1633.83,1380.28 1635.82,1380.57 1637.8,1380.55 
  1639.79,1380.22 1641.77,1379.34 1643.76,1377.14 1645.75,1373.53 1647.73,1373.61 1649.72,1372.74 1651.7,1372.06 1653.69,1376.39 1655.68,1378.91 1657.66,1379.91 
  1659.65,1380.32 1661.64,1380.48 1663.62,1380.49 1665.61,1380.41 1667.59,1380.26 1669.58,1380.03 1671.57,1379.71 1673.55,1379.24 1675.54,1378.54 1677.52,1377.34 
  1679.51,1374.94 1681.5,1369.85 1683.48,1364.77 1685.47,1365.77 1687.46,1368.26 1689.44,1369.68 1691.43,1369.53 1693.41,1371.09 1695.4,1371.5 1697.39,1370.31 
  1699.37,1367.44 1701.36,1362.66 1703.34,1361.12 1705.33,1359.78 1707.32,1355.55 1709.3,1348.37 1711.29,1337.09 1713.28,1318.46 1715.26,1289.47 1717.25,1231.65 
  1719.23,1096.9 1721.22,798.543 1723.21,682.413 1725.19,843.487 1727.18,1016.72 1729.16,1052.26 1731.15,950.919 1733.14,840.895 1735.12,1028.79 1737.11,1199.99 
  1739.1,1268.5 1741.08,1288.64 1743.07,1272 1745.05,1256.3 1747.04,1302.36 1749.03,1336.1 1751.01,1351.07 1753,1358.43 1754.98,1362.3 1756.97,1364.09 
  1758.96,1364.03 1760.94,1361.41 1762.93,1353.87 1764.92,1343.23 1766.9,1336.95 1768.89,1311.09 1770.87,1250.12 1772.86,1226.12 1774.85,1297.84 1776.83,1332.5 
  1778.82,1343.14 1780.8,1353.49 1782.79,1359.9 1784.78,1365.67 1786.76,1370.79 1788.75,1373.73 1790.73,1374.96 1792.72,1375.65 1794.71,1374.72 1796.69,1373.52 
  1798.68,1374.18 1800.67,1371.79 1802.65,1371.48 1804.64,1375.98 1806.62,1378.3 1808.61,1379.13 1810.6,1379.15 1812.58,1378.52 1814.57,1377.52 1816.55,1374.56 
  1818.54,1367.15 1820.53,1364.61 1822.51,1372.52 1824.5,1376.33 1826.49,1377.43 1828.47,1377.1 1830.46,1375.32 1832.44,1370.93 1834.43,1361.53 1836.42,1353.04 
  1838.4,1337.22 1840.39,1307.58 1842.37,1326.32 1844.36,1355.48 1846.35,1368.58 1848.33,1373.71 1850.32,1375.13 1852.31,1375.53 1854.29,1377.51 1856.28,1377.94 
  1858.26,1377.76 1860.25,1379.48 1862.24,1380.24 1864.22,1379.7 1866.21,1377.82 1868.19,1378.24 1870.18,1379.93 1872.17,1380.05 1874.15,1378.48 1876.14,1375.38 
  1878.13,1375.45 1880.11,1374.13 1882.1,1372.45 1884.08,1374.32 1886.07,1374.9 1888.06,1377.77 1890.04,1379.38 1892.03,1380.58 1894.01,1381.73 1896,1382.24 
  1897.99,1382.41 1899.97,1382.4 1901.96,1382.17 1903.95,1381.57 1905.93,1380.29 1907.92,1379.16 1909.9,1378.45 1911.89,1375.62 1913.88,1368.74 1915.86,1362.92 
  1917.85,1355.71 1919.83,1362.4 1921.82,1372.71 1923.81,1376.2 1925.79,1375.52 1927.78,1371.65 1929.77,1369.4 1931.75,1374.36 1933.74,1378.71 1935.72,1380.16 
  1937.71,1379.97 1939.7,1379.69 1941.68,1380.33 1943.67,1380.02 1945.65,1377.66 1947.64,1374.9 1949.63,1374.91 1951.61,1376.54 1953.6,1377.5 1955.59,1375.35 
  1957.57,1376.37 1959.56,1379.64 1961.54,1380.79 1963.53,1380.34 1965.52,1378.3 1967.5,1376.37 1969.49,1374.49 1971.47,1377.49 1973.46,1379.81 1975.45,1380.52 
  1977.43,1381.84 1979.42,1382.49 1981.41,1382.68 1983.39,1382.44 1985.38,1381.54 1987.36,1381.12 1989.35,1381.15 1991.34,1379.61 1993.32,1378.23 1995.31,1379.94 
  1997.29,1380.84 1999.28,1380.28 2001.27,1377.93 2003.25,1371.73 2005.24,1362.93 2007.23,1363.2 2009.21,1371.47 2011.2,1377.97 2013.18,1380.62 2015.17,1381.66 
  2017.16,1381.84 2019.14,1381.03 2021.13,1379.48 2023.11,1380.45 2025.1,1381.41 2027.09,1381.94 2029.07,1381.75 2031.06,1381.31 2033.05,1380.68 2035.03,1379.72 
  2037.02,1381.13 2039,1381.55 2040.99,1381.02 2042.98,1382.03 2044.96,1382.71 2046.95,1382.49 2048.93,1381.72 2050.92,1382.04 2052.91,1381.98 2054.89,1380.56 
  2056.88,1378.81 2058.87,1378.86 2060.85,1381.17 2062.84,1382.22 2064.82,1382.52 2066.81,1383.11 2068.8,1383.3 2070.78,1383.01 2072.77,1381.95 2074.75,1380.89 
  2076.74,1382.22 2078.73,1383.09 2080.71,1383.29 2082.7,1383.09 2084.69,1382.46 2086.67,1381.59 2088.66,1379.8 2090.64,1375.02 2092.63,1371.25 2094.62,1376.27 
  2096.6,1380.42 2098.59,1382.01 2100.57,1382.36 2102.56,1381.7 2104.55,1380.62 2106.53,1381.71 2108.52,1382.89 2110.51,1383.3 2112.49,1383.24 2114.48,1382.63 
  2116.46,1381.09 2118.45,1380.22 2120.44,1380.3 2122.42,1381.19 2124.41,1382.25 2126.39,1383 2128.38,1383.06 2130.37,1382.67 2132.35,1383.07 2134.34,1383.33 
  2136.33,1383.21 2138.31,1382.94 2140.3,1381.94 2142.28,1380.31 2144.27,1379.22 2146.26,1381 2148.24,1382.73 2150.23,1383.37 2152.21,1383.47 2154.2,1383.21 
  2156.19,1383.22 2158.17,1383.13 2160.16,1382.39 2162.15,1381.36 2164.13,1380.42 2166.12,1381.22 2168.1,1381.27 2170.09,1379.16 2172.08,1375.55 2174.06,1377.89 
  2176.05,1379.86 2178.03,1379.16 2180.02,1380.51 2182.01,1382.36 2183.99,1383.02 2185.98,1382.96 2187.97,1382.15 2189.95,1381.78 2191.94,1382.1 2193.92,1381.33 
  2195.91,1381.99 2197.9,1383.16 2199.88,1383.53 2201.87,1383.34 2203.85,1382.56 2205.84,1382.24 2207.83,1383.06 2209.81,1383.59 2211.8,1383.55 2213.78,1383.16 
  2215.77,1383.46 2217.76,1383.74 2219.74,1383.78 2221.73,1383.5 2223.72,1382.6 2225.7,1381.18 2227.69,1380.81 2229.67,1382.37 2231.66,1383.3 2233.65,1383.46 
  2235.63,1383.04 2237.62,1382.66 2239.6,1382.86 2241.59,1382.28 2243.58,1380.56 2245.56,1380.56 2247.55,1381.23 2249.54,1381.36 2251.52,1381.9 2253.51,1383.01 
  2255.49,1383.48 2257.48,1383.39 2259.47,1382.62 2261.45,1381.05 2263.44,1381.6 2265.42,1383.1 2267.41,1383.71 2269.4,1383.85 2271.38,1383.67 2273.37,1382.98 
  2275.36,1381.4 2277.34,1381.13 2279.33,1382.42 2281.31,1383.36 2283.3,1383.92 2285.29,1384.16 2287.27,1384.24 2289.26,1384.21 2291.24,1384.05 2293.23,1383.63 
  
  "/>
<path clip-path="url(#clip130)" d="
M1996.53 196.789 L2282.65 196.789 L2282.65 93.1086 L1996.53 93.1086  Z
  " fill="#ffffff" fill-rule="evenodd" fill-opacity="1"/>
<polyline clip-path="url(#clip130)" style="stroke:#000000; stroke-linecap:butt; stroke-linejoin:round; stroke-width:4; stroke-opacity:1; fill:none" points="
  1996.53,196.789 2282.65,196.789 2282.65,93.1086 1996.53,93.1086 1996.53,196.789 
  "/>
<polyline clip-path="url(#clip130)" style="stroke:#009af9; stroke-linecap:butt; stroke-linejoin:round; stroke-width:4; stroke-opacity:1; fill:none" points="
  2019.9,144.949 2160.11,144.949 
  "/>
<path clip-path="url(#clip130)" d="M2197.32 164.636 Q2195.52 169.266 2193.8 170.678 Q2192.09 172.09 2189.22 172.09 L2185.82 172.09 L2185.82 168.525 L2188.32 168.525 Q2190.08 168.525 2191.05 167.692 Q2192.02 166.858 2193.2 163.756 L2193.97 161.812 L2183.48 136.303 L2187.99 136.303 L2196.1 156.581 L2204.2 136.303 L2208.71 136.303 L2197.32 164.636 Z" fill="#000000" fill-rule="evenodd" fill-opacity="1" /><path clip-path="url(#clip130)" d="M2216 158.293 L2223.64 158.293 L2223.64 131.928 L2215.33 133.595 L2215.33 129.335 L2223.6 127.669 L2228.27 127.669 L2228.27 158.293 L2235.91 158.293 L2235.91 162.229 L2216 162.229 L2216 158.293 Z" fill="#000000" fill-rule="evenodd" fill-opacity="1" /></svg>
