<?xml version="1.0" encoding="utf-8"?>
<svg xmlns="http://www.w3.org/2000/svg" xmlns:xlink="http://www.w3.org/1999/xlink" width="600" height="400" viewBox="0 0 2400 1600">
<defs>
  <clipPath id="clip690">
    <rect x="0" y="0" width="2400" height="1600"/>
  </clipPath>
</defs>
<path clip-path="url(#clip690)" d="
M0 1600 L2400 1600 L2400 0 L0 0  Z
  " fill="#ffffff" fill-rule="evenodd" fill-opacity="1"/>
<defs>
  <clipPath id="clip691">
    <rect x="480" y="0" width="1681" height="1600"/>
  </clipPath>
</defs>
<path clip-path="url(#clip690)" d="
M249.542 1423.18 L2352.76 1423.18 L2352.76 47.2441 L249.542 47.2441  Z
  " fill="#ffffff" fill-rule="evenodd" fill-opacity="1"/>
<defs>
  <clipPath id="clip692">
    <rect x="249" y="47" width="2104" height="1377"/>
  </clipPath>
</defs>
<polyline clip-path="url(#clip692)" style="stroke:#000000; stroke-linecap:butt; stroke-linejoin:round; stroke-width:2; stroke-opacity:0.1; fill:none" points="
  309.067,1423.18 309.067,47.2441 
  "/>
<polyline clip-path="url(#clip692)" style="stroke:#000000; stroke-linecap:butt; stroke-linejoin:round; stroke-width:2; stroke-opacity:0.1; fill:none" points="
  805.108,1423.18 805.108,47.2441 
  "/>
<polyline clip-path="url(#clip692)" style="stroke:#000000; stroke-linecap:butt; stroke-linejoin:round; stroke-width:2; stroke-opacity:0.1; fill:none" points="
  1301.15,1423.18 1301.15,47.2441 
  "/>
<polyline clip-path="url(#clip692)" style="stroke:#000000; stroke-linecap:butt; stroke-linejoin:round; stroke-width:2; stroke-opacity:0.1; fill:none" points="
  1797.19,1423.18 1797.19,47.2441 
  "/>
<polyline clip-path="url(#clip692)" style="stroke:#000000; stroke-linecap:butt; stroke-linejoin:round; stroke-width:2; stroke-opacity:0.1; fill:none" points="
  2293.23,1423.18 2293.23,47.2441 
  "/>
<polyline clip-path="url(#clip690)" style="stroke:#000000; stroke-linecap:butt; stroke-linejoin:round; stroke-width:4; stroke-opacity:1; fill:none" points="
  249.542,1423.18 2352.76,1423.18 
  "/>
<polyline clip-path="url(#clip690)" style="stroke:#000000; stroke-linecap:butt; stroke-linejoin:round; stroke-width:4; stroke-opacity:1; fill:none" points="
  309.067,1423.18 309.067,1404.28 
  "/>
<polyline clip-path="url(#clip690)" style="stroke:#000000; stroke-linecap:butt; stroke-linejoin:round; stroke-width:4; stroke-opacity:1; fill:none" points="
  805.108,1423.18 805.108,1404.28 
  "/>
<polyline clip-path="url(#clip690)" style="stroke:#000000; stroke-linecap:butt; stroke-linejoin:round; stroke-width:4; stroke-opacity:1; fill:none" points="
  1301.15,1423.18 1301.15,1404.28 
  "/>
<polyline clip-path="url(#clip690)" style="stroke:#000000; stroke-linecap:butt; stroke-linejoin:round; stroke-width:4; stroke-opacity:1; fill:none" points="
  1797.19,1423.18 1797.19,1404.28 
  "/>
<polyline clip-path="url(#clip690)" style="stroke:#000000; stroke-linecap:butt; stroke-linejoin:round; stroke-width:4; stroke-opacity:1; fill:none" points="
  2293.23,1423.18 2293.23,1404.28 
  "/>
<path clip-path="url(#clip690)" d="M277.968 1468.75 L307.643 1468.75 L307.643 1472.69 L277.968 1472.69 L277.968 1468.75 Z" fill="#000000" fill-rule="evenodd" fill-opacity="1" /><path clip-path="url(#clip690)" d="M330.583 1455.09 L318.778 1473.54 L330.583 1473.54 L330.583 1455.09 M329.356 1451.02 L335.236 1451.02 L335.236 1473.54 L340.166 1473.54 L340.166 1477.43 L335.236 1477.43 L335.236 1485.58 L330.583 1485.58 L330.583 1477.43 L314.981 1477.43 L314.981 1472.92 L329.356 1451.02 Z" fill="#000000" fill-rule="evenodd" fill-opacity="1" /><path clip-path="url(#clip690)" d="M775.05 1468.75 L804.726 1468.75 L804.726 1472.69 L775.05 1472.69 L775.05 1468.75 Z" fill="#000000" fill-rule="evenodd" fill-opacity="1" /><path clip-path="url(#clip690)" d="M818.846 1481.64 L835.166 1481.64 L835.166 1485.58 L813.221 1485.58 L813.221 1481.64 Q815.883 1478.89 820.467 1474.26 Q825.073 1469.61 826.254 1468.27 Q828.499 1465.74 829.379 1464.01 Q830.281 1462.25 830.281 1460.56 Q830.281 1457.8 828.337 1456.07 Q826.416 1454.33 823.314 1454.33 Q821.115 1454.33 818.661 1455.09 Q816.231 1455.86 813.453 1457.41 L813.453 1452.69 Q816.277 1451.55 818.731 1450.97 Q821.184 1450.39 823.221 1450.39 Q828.592 1450.39 831.786 1453.08 Q834.98 1455.77 834.98 1460.26 Q834.98 1462.39 834.17 1464.31 Q833.383 1466.2 831.277 1468.8 Q830.698 1469.47 827.596 1472.69 Q824.494 1475.88 818.846 1481.64 Z" fill="#000000" fill-rule="evenodd" fill-opacity="1" /><path clip-path="url(#clip690)" d="M1301.15 1454.1 Q1297.54 1454.1 1295.71 1457.66 Q1293.9 1461.2 1293.9 1468.33 Q1293.9 1475.44 1295.71 1479.01 Q1297.54 1482.55 1301.15 1482.55 Q1304.78 1482.55 1306.59 1479.01 Q1308.42 1475.44 1308.42 1468.33 Q1308.42 1461.2 1306.59 1457.66 Q1304.78 1454.1 1301.15 1454.1 M1301.15 1450.39 Q1306.96 1450.39 1310.01 1455 Q1313.09 1459.58 1313.09 1468.33 Q1313.09 1477.06 1310.01 1481.67 Q1306.96 1486.25 1301.15 1486.25 Q1295.34 1486.25 1292.26 1481.67 Q1289.2 1477.06 1289.2 1468.33 Q1289.2 1459.58 1292.26 1455 Q1295.34 1450.39 1301.15 1450.39 Z" fill="#000000" fill-rule="evenodd" fill-opacity="1" /><path clip-path="url(#clip690)" d="M1791.84 1481.64 L1808.16 1481.64 L1808.16 1485.58 L1786.22 1485.58 L1786.22 1481.64 Q1788.88 1478.89 1793.46 1474.26 Q1798.07 1469.61 1799.25 1468.27 Q1801.5 1465.74 1802.38 1464.01 Q1803.28 1462.25 1803.28 1460.56 Q1803.28 1457.8 1801.33 1456.07 Q1799.41 1454.33 1796.31 1454.33 Q1794.11 1454.33 1791.66 1455.09 Q1789.23 1455.86 1786.45 1457.41 L1786.45 1452.69 Q1789.27 1451.55 1791.73 1450.97 Q1794.18 1450.39 1796.22 1450.39 Q1801.59 1450.39 1804.78 1453.08 Q1807.98 1455.77 1807.98 1460.26 Q1807.98 1462.39 1807.17 1464.31 Q1806.38 1466.2 1804.27 1468.8 Q1803.69 1469.47 1800.59 1472.69 Q1797.49 1475.88 1791.84 1481.64 Z" fill="#000000" fill-rule="evenodd" fill-opacity="1" /><path clip-path="url(#clip690)" d="M2296.24 1455.09 L2284.43 1473.54 L2296.24 1473.54 L2296.24 1455.09 M2295.01 1451.02 L2300.89 1451.02 L2300.89 1473.54 L2305.82 1473.54 L2305.82 1477.43 L2300.89 1477.43 L2300.89 1485.58 L2296.24 1485.58 L2296.24 1477.43 L2280.64 1477.43 L2280.64 1472.92 L2295.01 1451.02 Z" fill="#000000" fill-rule="evenodd" fill-opacity="1" /><path clip-path="url(#clip690)" d="M1144.47 1520.52 L1174.52 1520.52 L1174.52 1525.93 L1150.9 1525.93 L1150.9 1540 L1173.53 1540 L1173.53 1545.41 L1150.9 1545.41 L1150.9 1562.63 L1175.09 1562.63 L1175.09 1568.04 L1144.47 1568.04 L1144.47 1520.52 Z" fill="#000000" fill-rule="evenodd" fill-opacity="1" /><path clip-path="url(#clip690)" d="M1215.04 1546.53 L1215.04 1568.04 L1209.18 1568.04 L1209.18 1546.72 Q1209.18 1541.66 1207.21 1539.14 Q1205.23 1536.63 1201.29 1536.63 Q1196.54 1536.63 1193.81 1539.65 Q1191.07 1542.68 1191.07 1547.9 L1191.07 1568.04 L1185.18 1568.04 L1185.18 1532.4 L1191.07 1532.4 L1191.07 1537.93 Q1193.17 1534.72 1196 1533.13 Q1198.87 1531.54 1202.59 1531.54 Q1208.73 1531.54 1211.89 1535.36 Q1215.04 1539.14 1215.04 1546.53 Z" fill="#000000" fill-rule="evenodd" fill-opacity="1" /><path clip-path="url(#clip690)" d="M1257.21 1548.76 L1257.21 1551.62 L1230.28 1551.62 Q1230.66 1557.67 1233.91 1560.85 Q1237.19 1564 1243.01 1564 Q1246.39 1564 1249.54 1563.17 Q1252.72 1562.35 1255.84 1560.69 L1255.84 1566.23 Q1252.69 1567.57 1249.38 1568.27 Q1246.07 1568.97 1242.66 1568.97 Q1234.13 1568.97 1229.14 1564 Q1224.17 1559.04 1224.17 1550.57 Q1224.17 1541.82 1228.88 1536.69 Q1233.62 1531.54 1241.65 1531.54 Q1248.84 1531.54 1253.01 1536.18 Q1257.21 1540.8 1257.21 1548.76 M1251.35 1547.04 Q1251.29 1542.23 1248.65 1539.37 Q1246.04 1536.5 1241.71 1536.5 Q1236.81 1536.5 1233.85 1539.27 Q1230.92 1542.04 1230.47 1547.07 L1251.35 1547.04 Z" fill="#000000" fill-rule="evenodd" fill-opacity="1" /><path clip-path="url(#clip690)" d="M1287.48 1537.87 Q1286.49 1537.3 1285.31 1537.04 Q1284.17 1536.76 1282.77 1536.76 Q1277.8 1536.76 1275.13 1540 Q1272.49 1543.22 1272.49 1549.27 L1272.49 1568.04 L1266.6 1568.04 L1266.6 1532.4 L1272.49 1532.4 L1272.49 1537.93 Q1274.33 1534.69 1277.29 1533.13 Q1280.25 1531.54 1284.49 1531.54 Q1285.09 1531.54 1285.82 1531.63 Q1286.56 1531.7 1287.45 1531.85 L1287.48 1537.87 Z" fill="#000000" fill-rule="evenodd" fill-opacity="1" /><path clip-path="url(#clip690)" d="M1315.93 1549.81 Q1315.93 1543.44 1313.29 1539.94 Q1310.68 1536.44 1305.94 1536.44 Q1301.23 1536.44 1298.59 1539.94 Q1295.98 1543.44 1295.98 1549.81 Q1295.98 1556.14 1298.59 1559.64 Q1301.23 1563.14 1305.94 1563.14 Q1310.68 1563.14 1313.29 1559.64 Q1315.93 1556.14 1315.93 1549.81 M1321.79 1563.62 Q1321.79 1572.72 1317.75 1577.15 Q1313.71 1581.6 1305.37 1581.6 Q1302.28 1581.6 1299.54 1581.13 Q1296.8 1580.68 1294.23 1579.72 L1294.23 1574.03 Q1296.8 1575.43 1299.32 1576.1 Q1301.83 1576.76 1304.44 1576.76 Q1310.2 1576.76 1313.07 1573.74 Q1315.93 1570.75 1315.93 1564.67 L1315.93 1561.77 Q1314.12 1564.92 1311.29 1566.48 Q1308.45 1568.04 1304.51 1568.04 Q1297.95 1568.04 1293.94 1563.05 Q1289.93 1558.05 1289.93 1549.81 Q1289.93 1541.53 1293.94 1536.53 Q1297.95 1531.54 1304.51 1531.54 Q1308.45 1531.54 1311.29 1533.1 Q1314.12 1534.66 1315.93 1537.81 L1315.93 1532.4 L1321.79 1532.4 L1321.79 1563.62 Z" fill="#000000" fill-rule="evenodd" fill-opacity="1" /><path clip-path="url(#clip690)" d="M1348.68 1571.35 Q1346.2 1577.72 1343.85 1579.66 Q1341.49 1581.6 1337.54 1581.6 L1332.87 1581.6 L1332.87 1576.7 L1336.3 1576.7 Q1338.72 1576.7 1340.06 1575.56 Q1341.4 1574.41 1343.02 1570.14 L1344.07 1567.47 L1329.65 1532.4 L1335.86 1532.4 L1347 1560.28 L1358.14 1532.4 L1364.34 1532.4 L1348.68 1571.35 Z" fill="#000000" fill-rule="evenodd" fill-opacity="1" /><path clip-path="url(#clip690)" d="M1392.61 1518.52 L1406.1 1518.52 L1406.1 1523.07 L1398.46 1523.07 L1398.46 1572.09 L1406.1 1572.09 L1406.1 1576.64 L1392.61 1576.64 L1392.61 1518.52 Z" fill="#000000" fill-rule="evenodd" fill-opacity="1" /><path clip-path="url(#clip690)" d="M1424.37 1522.27 L1424.37 1532.4 L1436.44 1532.4 L1436.44 1536.95 L1424.37 1536.95 L1424.37 1556.3 Q1424.37 1560.66 1425.55 1561.9 Q1426.76 1563.14 1430.42 1563.14 L1436.44 1563.14 L1436.44 1568.04 L1430.42 1568.04 Q1423.64 1568.04 1421.06 1565.53 Q1418.48 1562.98 1418.48 1556.3 L1418.48 1536.95 L1414.19 1536.95 L1414.19 1532.4 L1418.48 1532.4 L1418.48 1522.27 L1424.37 1522.27 Z" fill="#000000" fill-rule="evenodd" fill-opacity="1" /><path clip-path="url(#clip690)" d="M1457.82 1518.52 L1457.82 1576.64 L1444.33 1576.64 L1444.33 1572.09 L1451.94 1572.09 L1451.94 1523.07 L1444.33 1523.07 L1444.33 1518.52 L1457.82 1518.52 Z" fill="#000000" fill-rule="evenodd" fill-opacity="1" /><polyline clip-path="url(#clip692)" style="stroke:#000000; stroke-linecap:butt; stroke-linejoin:round; stroke-width:2; stroke-opacity:0.1; fill:none" points="
  249.542,1385.18 2352.76,1385.18 
  "/>
<polyline clip-path="url(#clip692)" style="stroke:#000000; stroke-linecap:butt; stroke-linejoin:round; stroke-width:2; stroke-opacity:0.1; fill:none" points="
  249.542,1057.33 2352.76,1057.33 
  "/>
<polyline clip-path="url(#clip692)" style="stroke:#000000; stroke-linecap:butt; stroke-linejoin:round; stroke-width:2; stroke-opacity:0.1; fill:none" points="
  249.542,729.49 2352.76,729.49 
  "/>
<polyline clip-path="url(#clip692)" style="stroke:#000000; stroke-linecap:butt; stroke-linejoin:round; stroke-width:2; stroke-opacity:0.1; fill:none" points="
  249.542,401.645 2352.76,401.645 
  "/>
<polyline clip-path="url(#clip692)" style="stroke:#000000; stroke-linecap:butt; stroke-linejoin:round; stroke-width:2; stroke-opacity:0.1; fill:none" points="
  249.542,73.8005 2352.76,73.8005 
  "/>
<polyline clip-path="url(#clip690)" style="stroke:#000000; stroke-linecap:butt; stroke-linejoin:round; stroke-width:4; stroke-opacity:1; fill:none" points="
  249.542,1423.18 249.542,47.2441 
  "/>
<polyline clip-path="url(#clip690)" style="stroke:#000000; stroke-linecap:butt; stroke-linejoin:round; stroke-width:4; stroke-opacity:1; fill:none" points="
  249.542,1385.18 268.44,1385.18 
  "/>
<polyline clip-path="url(#clip690)" style="stroke:#000000; stroke-linecap:butt; stroke-linejoin:round; stroke-width:4; stroke-opacity:1; fill:none" points="
  249.542,1057.33 268.44,1057.33 
  "/>
<polyline clip-path="url(#clip690)" style="stroke:#000000; stroke-linecap:butt; stroke-linejoin:round; stroke-width:4; stroke-opacity:1; fill:none" points="
  249.542,729.49 268.44,729.49 
  "/>
<polyline clip-path="url(#clip690)" style="stroke:#000000; stroke-linecap:butt; stroke-linejoin:round; stroke-width:4; stroke-opacity:1; fill:none" points="
  249.542,401.645 268.44,401.645 
  "/>
<polyline clip-path="url(#clip690)" style="stroke:#000000; stroke-linecap:butt; stroke-linejoin:round; stroke-width:4; stroke-opacity:1; fill:none" points="
  249.542,73.8005 268.44,73.8005 
  "/>
<path clip-path="url(#clip690)" d="M126.205 1370.98 Q122.593 1370.98 120.765 1374.54 Q118.959 1378.08 118.959 1385.21 Q118.959 1392.32 120.765 1395.89 Q122.593 1399.43 126.205 1399.43 Q129.839 1399.43 131.644 1395.89 Q133.473 1392.32 133.473 1385.21 Q133.473 1378.08 131.644 1374.54 Q129.839 1370.98 126.205 1370.98 M126.205 1367.27 Q132.015 1367.27 135.07 1371.88 Q138.149 1376.46 138.149 1385.21 Q138.149 1393.94 135.07 1398.55 Q132.015 1403.13 126.205 1403.13 Q120.394 1403.13 117.316 1398.55 Q114.26 1393.94 114.26 1385.21 Q114.26 1376.46 117.316 1371.88 Q120.394 1367.27 126.205 1367.27 Z" fill="#000000" fill-rule="evenodd" fill-opacity="1" /><path clip-path="url(#clip690)" d="M146.366 1396.58 L151.251 1396.58 L151.251 1402.46 L146.366 1402.46 L146.366 1396.58 Z" fill="#000000" fill-rule="evenodd" fill-opacity="1" /><path clip-path="url(#clip690)" d="M171.436 1370.98 Q167.825 1370.98 165.996 1374.54 Q164.19 1378.08 164.19 1385.21 Q164.19 1392.32 165.996 1395.89 Q167.825 1399.43 171.436 1399.43 Q175.07 1399.43 176.876 1395.89 Q178.704 1392.32 178.704 1385.21 Q178.704 1378.08 176.876 1374.54 Q175.07 1370.98 171.436 1370.98 M171.436 1367.27 Q177.246 1367.27 180.301 1371.88 Q183.38 1376.46 183.38 1385.21 Q183.38 1393.94 180.301 1398.55 Q177.246 1403.13 171.436 1403.13 Q165.626 1403.13 162.547 1398.55 Q159.491 1393.94 159.491 1385.21 Q159.491 1376.46 162.547 1371.88 Q165.626 1367.27 171.436 1367.27 Z" fill="#000000" fill-rule="evenodd" fill-opacity="1" /><path clip-path="url(#clip690)" d="M201.598 1370.98 Q197.987 1370.98 196.158 1374.54 Q194.352 1378.08 194.352 1385.21 Q194.352 1392.32 196.158 1395.89 Q197.987 1399.43 201.598 1399.43 Q205.232 1399.43 207.037 1395.89 Q208.866 1392.32 208.866 1385.21 Q208.866 1378.08 207.037 1374.54 Q205.232 1370.98 201.598 1370.98 M201.598 1367.27 Q207.408 1367.27 210.463 1371.88 Q213.542 1376.46 213.542 1385.21 Q213.542 1393.94 210.463 1398.55 Q207.408 1403.13 201.598 1403.13 Q195.787 1403.13 192.709 1398.55 Q189.653 1393.94 189.653 1385.21 Q189.653 1376.46 192.709 1371.88 Q195.787 1367.27 201.598 1367.27 Z" fill="#000000" fill-rule="evenodd" fill-opacity="1" /><path clip-path="url(#clip690)" d="M127.2 1043.13 Q123.589 1043.13 121.76 1046.7 Q119.955 1050.24 119.955 1057.37 Q119.955 1064.48 121.76 1068.04 Q123.589 1071.58 127.2 1071.58 Q130.834 1071.58 132.64 1068.04 Q134.468 1064.48 134.468 1057.37 Q134.468 1050.24 132.64 1046.7 Q130.834 1043.13 127.2 1043.13 M127.2 1039.43 Q133.01 1039.43 136.066 1044.04 Q139.144 1048.62 139.144 1057.37 Q139.144 1066.1 136.066 1070.7 Q133.01 1075.29 127.2 1075.29 Q121.39 1075.29 118.311 1070.7 Q115.256 1066.1 115.256 1057.37 Q115.256 1048.62 118.311 1044.04 Q121.39 1039.43 127.2 1039.43 Z" fill="#000000" fill-rule="evenodd" fill-opacity="1" /><path clip-path="url(#clip690)" d="M147.362 1068.73 L152.246 1068.73 L152.246 1074.61 L147.362 1074.61 L147.362 1068.73 Z" fill="#000000" fill-rule="evenodd" fill-opacity="1" /><path clip-path="url(#clip690)" d="M166.459 1070.68 L182.778 1070.68 L182.778 1074.61 L160.834 1074.61 L160.834 1070.68 Q163.496 1067.92 168.079 1063.3 Q172.686 1058.64 173.866 1057.3 Q176.112 1054.78 176.991 1053.04 Q177.894 1051.28 177.894 1049.59 Q177.894 1046.84 175.95 1045.1 Q174.028 1043.36 170.927 1043.36 Q168.727 1043.36 166.274 1044.13 Q163.843 1044.89 161.065 1046.44 L161.065 1041.72 Q163.89 1040.59 166.343 1040.01 Q168.797 1039.43 170.834 1039.43 Q176.204 1039.43 179.399 1042.11 Q182.593 1044.8 182.593 1049.29 Q182.593 1051.42 181.783 1053.34 Q180.996 1055.24 178.889 1057.83 Q178.311 1058.5 175.209 1061.72 Q172.107 1064.92 166.459 1070.68 Z" fill="#000000" fill-rule="evenodd" fill-opacity="1" /><path clip-path="url(#clip690)" d="M192.639 1040.05 L210.996 1040.05 L210.996 1043.99 L196.922 1043.99 L196.922 1052.46 Q197.94 1052.11 198.959 1051.95 Q199.977 1051.77 200.996 1051.77 Q206.783 1051.77 210.162 1054.94 Q213.542 1058.11 213.542 1063.53 Q213.542 1069.11 210.07 1072.21 Q206.598 1075.29 200.278 1075.29 Q198.102 1075.29 195.834 1074.92 Q193.588 1074.55 191.181 1073.8 L191.181 1069.11 Q193.264 1070.24 195.487 1070.8 Q197.709 1071.35 200.186 1071.35 Q204.19 1071.35 206.528 1069.24 Q208.866 1067.14 208.866 1063.53 Q208.866 1059.92 206.528 1057.81 Q204.19 1055.7 200.186 1055.7 Q198.311 1055.7 196.436 1056.12 Q194.584 1056.54 192.639 1057.42 L192.639 1040.05 Z" fill="#000000" fill-rule="evenodd" fill-opacity="1" /><path clip-path="url(#clip690)" d="M126.205 715.288 Q122.593 715.288 120.765 718.853 Q118.959 722.395 118.959 729.525 Q118.959 736.631 120.765 740.196 Q122.593 743.737 126.205 743.737 Q129.839 743.737 131.644 740.196 Q133.473 736.631 133.473 729.525 Q133.473 722.395 131.644 718.853 Q129.839 715.288 126.205 715.288 M126.205 711.585 Q132.015 711.585 135.07 716.191 Q138.149 720.775 138.149 729.525 Q138.149 738.251 135.07 742.858 Q132.015 747.441 126.205 747.441 Q120.394 747.441 117.316 742.858 Q114.26 738.251 114.26 729.525 Q114.26 720.775 117.316 716.191 Q120.394 711.585 126.205 711.585 Z" fill="#000000" fill-rule="evenodd" fill-opacity="1" /><path clip-path="url(#clip690)" d="M146.366 740.89 L151.251 740.89 L151.251 746.77 L146.366 746.77 L146.366 740.89 Z" fill="#000000" fill-rule="evenodd" fill-opacity="1" /><path clip-path="url(#clip690)" d="M161.482 712.21 L179.839 712.21 L179.839 716.145 L165.765 716.145 L165.765 724.617 Q166.783 724.27 167.802 724.108 Q168.82 723.923 169.839 723.923 Q175.626 723.923 179.005 727.094 Q182.385 730.265 182.385 735.682 Q182.385 741.261 178.913 744.362 Q175.44 747.441 169.121 747.441 Q166.945 747.441 164.677 747.071 Q162.431 746.7 160.024 745.96 L160.024 741.261 Q162.107 742.395 164.329 742.95 Q166.552 743.506 169.028 743.506 Q173.033 743.506 175.371 741.399 Q177.709 739.293 177.709 735.682 Q177.709 732.071 175.371 729.964 Q173.033 727.858 169.028 727.858 Q167.153 727.858 165.278 728.275 Q163.427 728.691 161.482 729.571 L161.482 712.21 Z" fill="#000000" fill-rule="evenodd" fill-opacity="1" /><path clip-path="url(#clip690)" d="M201.598 715.288 Q197.987 715.288 196.158 718.853 Q194.352 722.395 194.352 729.525 Q194.352 736.631 196.158 740.196 Q197.987 743.737 201.598 743.737 Q205.232 743.737 207.037 740.196 Q208.866 736.631 208.866 729.525 Q208.866 722.395 207.037 718.853 Q205.232 715.288 201.598 715.288 M201.598 711.585 Q207.408 711.585 210.463 716.191 Q213.542 720.775 213.542 729.525 Q213.542 738.251 210.463 742.858 Q207.408 747.441 201.598 747.441 Q195.787 747.441 192.709 742.858 Q189.653 738.251 189.653 729.525 Q189.653 720.775 192.709 716.191 Q195.787 711.585 201.598 711.585 Z" fill="#000000" fill-rule="evenodd" fill-opacity="1" /><path clip-path="url(#clip690)" d="M127.2 387.444 Q123.589 387.444 121.76 391.009 Q119.955 394.55 119.955 401.68 Q119.955 408.786 121.76 412.351 Q123.589 415.893 127.2 415.893 Q130.834 415.893 132.64 412.351 Q134.468 408.786 134.468 401.68 Q134.468 394.55 132.64 391.009 Q130.834 387.444 127.2 387.444 M127.2 383.74 Q133.01 383.74 136.066 388.347 Q139.144 392.93 139.144 401.68 Q139.144 410.407 136.066 415.013 Q133.01 419.596 127.2 419.596 Q121.39 419.596 118.311 415.013 Q115.256 410.407 115.256 401.68 Q115.256 392.93 118.311 388.347 Q121.39 383.74 127.2 383.74 Z" fill="#000000" fill-rule="evenodd" fill-opacity="1" /><path clip-path="url(#clip690)" d="M147.362 413.046 L152.246 413.046 L152.246 418.925 L147.362 418.925 L147.362 413.046 Z" fill="#000000" fill-rule="evenodd" fill-opacity="1" /><path clip-path="url(#clip690)" d="M161.251 384.365 L183.473 384.365 L183.473 386.356 L170.927 418.925 L166.042 418.925 L177.848 388.3 L161.251 388.3 L161.251 384.365 Z" fill="#000000" fill-rule="evenodd" fill-opacity="1" /><path clip-path="url(#clip690)" d="M192.639 384.365 L210.996 384.365 L210.996 388.3 L196.922 388.3 L196.922 396.772 Q197.94 396.425 198.959 396.263 Q199.977 396.078 200.996 396.078 Q206.783 396.078 210.162 399.249 Q213.542 402.421 213.542 407.837 Q213.542 413.416 210.07 416.518 Q206.598 419.596 200.278 419.596 Q198.102 419.596 195.834 419.226 Q193.588 418.856 191.181 418.115 L191.181 413.416 Q193.264 414.55 195.487 415.106 Q197.709 415.661 200.186 415.661 Q204.19 415.661 206.528 413.555 Q208.866 411.448 208.866 407.837 Q208.866 404.226 206.528 402.12 Q204.19 400.013 200.186 400.013 Q198.311 400.013 196.436 400.43 Q194.584 400.847 192.639 401.726 L192.639 384.365 Z" fill="#000000" fill-rule="evenodd" fill-opacity="1" /><path clip-path="url(#clip690)" d="M117.015 87.1453 L124.654 87.1453 L124.654 60.7797 L116.343 62.4464 L116.343 58.1872 L124.607 56.5205 L129.283 56.5205 L129.283 87.1453 L136.922 87.1453 L136.922 91.0805 L117.015 91.0805 L117.015 87.1453 Z" fill="#000000" fill-rule="evenodd" fill-opacity="1" /><path clip-path="url(#clip690)" d="M146.366 85.2009 L151.251 85.2009 L151.251 91.0805 L146.366 91.0805 L146.366 85.2009 Z" fill="#000000" fill-rule="evenodd" fill-opacity="1" /><path clip-path="url(#clip690)" d="M171.436 59.5992 Q167.825 59.5992 165.996 63.164 Q164.19 66.7056 164.19 73.8352 Q164.19 80.9417 165.996 84.5065 Q167.825 88.0481 171.436 88.0481 Q175.07 88.0481 176.876 84.5065 Q178.704 80.9417 178.704 73.8352 Q178.704 66.7056 176.876 63.164 Q175.07 59.5992 171.436 59.5992 M171.436 55.8955 Q177.246 55.8955 180.301 60.502 Q183.38 65.0853 183.38 73.8352 Q183.38 82.562 180.301 87.1685 Q177.246 91.7518 171.436 91.7518 Q165.626 91.7518 162.547 87.1685 Q159.491 82.562 159.491 73.8352 Q159.491 65.0853 162.547 60.502 Q165.626 55.8955 171.436 55.8955 Z" fill="#000000" fill-rule="evenodd" fill-opacity="1" /><path clip-path="url(#clip690)" d="M201.598 59.5992 Q197.987 59.5992 196.158 63.164 Q194.352 66.7056 194.352 73.8352 Q194.352 80.9417 196.158 84.5065 Q197.987 88.0481 201.598 88.0481 Q205.232 88.0481 207.037 84.5065 Q208.866 80.9417 208.866 73.8352 Q208.866 66.7056 207.037 63.164 Q205.232 59.5992 201.598 59.5992 M201.598 55.8955 Q207.408 55.8955 210.463 60.502 Q213.542 65.0853 213.542 73.8352 Q213.542 82.562 210.463 87.1685 Q207.408 91.7518 201.598 91.7518 Q195.787 91.7518 192.709 87.1685 Q189.653 82.562 189.653 73.8352 Q189.653 65.0853 192.709 60.502 Q195.787 55.8955 201.598 55.8955 Z" fill="#000000" fill-rule="evenodd" fill-opacity="1" /><path clip-path="url(#clip690)" d="M16.4842 896.471 L16.4842 890.042 L58.5933 890.042 L58.5933 866.903 L64.0042 866.903 L64.0042 896.471 L16.4842 896.471 Z" fill="#000000" fill-rule="evenodd" fill-opacity="1" /><path clip-path="url(#clip690)" d="M32.4621 847.742 Q32.4621 852.452 36.1542 855.19 Q39.8145 857.927 46.212 857.927 Q52.6095 857.927 56.3017 855.221 Q59.9619 852.484 59.9619 847.742 Q59.9619 843.063 56.2698 840.326 Q52.5777 837.588 46.212 837.588 Q39.8781 837.588 36.186 840.326 Q32.4621 843.063 32.4621 847.742 M27.4968 847.742 Q27.4968 840.103 32.4621 835.742 Q37.4273 831.382 46.212 831.382 Q54.9649 831.382 59.9619 835.742 Q64.9272 840.103 64.9272 847.742 Q64.9272 855.412 59.9619 859.773 Q54.9649 864.102 46.212 864.102 Q37.4273 864.102 32.4621 859.773 Q27.4968 855.412 27.4968 847.742 Z" fill="#000000" fill-rule="evenodd" fill-opacity="1" /><path clip-path="url(#clip690)" d="M29.7248 796.02 L35.1993 796.02 Q33.8307 798.503 33.1623 801.017 Q32.4621 803.5 32.4621 806.046 Q32.4621 811.744 36.0905 814.895 Q39.6872 818.046 46.212 818.046 Q52.7369 818.046 56.3653 814.895 Q59.9619 811.744 59.9619 806.046 Q59.9619 803.5 59.2935 801.017 Q58.5933 798.503 57.2247 796.02 L62.6355 796.02 Q63.7814 798.471 64.3543 801.113 Q64.9272 803.723 64.9272 806.683 Q64.9272 814.736 59.8664 819.478 Q54.8057 824.22 46.212 824.22 Q37.491 824.22 32.4939 819.446 Q27.4968 814.64 27.4968 806.301 Q27.4968 803.596 28.0697 801.017 Q28.6108 798.439 29.7248 796.02 Z" fill="#000000" fill-rule="evenodd" fill-opacity="1" /><path clip-path="url(#clip690)" d="M46.0847 769.635 Q46.0847 776.732 47.7079 779.47 Q49.3312 782.207 53.2461 782.207 Q56.3653 782.207 58.2114 780.17 Q60.0256 778.101 60.0256 774.568 Q60.0256 769.698 56.5881 766.77 Q53.1188 763.81 47.3897 763.81 L46.0847 763.81 L46.0847 769.635 M43.6657 757.953 L64.0042 757.953 L64.0042 763.81 L58.5933 763.81 Q61.8398 765.815 63.3994 768.807 Q64.9272 771.799 64.9272 776.128 Q64.9272 781.602 61.8716 784.849 Q58.7843 788.063 53.6281 788.063 Q47.6125 788.063 44.5569 784.053 Q41.5014 780.011 41.5014 772.022 L41.5014 763.81 L40.9285 763.81 Q36.8862 763.81 34.6901 766.484 Q32.4621 769.125 32.4621 773.931 Q32.4621 776.987 33.1941 779.883 Q33.9262 782.78 35.3903 785.453 L29.9795 785.453 Q28.7381 782.239 28.1334 779.215 Q27.4968 776.191 27.4968 773.327 Q27.4968 765.592 31.5072 761.773 Q35.5176 757.953 43.6657 757.953 Z" fill="#000000" fill-rule="evenodd" fill-opacity="1" /><path clip-path="url(#clip690)" d="M14.479 745.89 L14.479 740.034 L64.0042 740.034 L64.0042 745.89 L14.479 745.89 Z" fill="#000000" fill-rule="evenodd" fill-opacity="1" /><path clip-path="url(#clip690)" d="M21.7677 700.376 L58.7206 700.376 L58.7206 692.609 Q58.7206 682.774 54.2646 678.223 Q49.8086 673.64 40.1964 673.64 Q30.6479 673.64 26.2237 678.223 Q21.7677 682.774 21.7677 692.609 L21.7677 700.376 M16.4842 706.805 L16.4842 693.596 Q16.4842 679.783 22.2451 673.321 Q27.9743 666.86 40.1964 666.86 Q52.4822 666.86 58.2432 673.353 Q64.0042 679.846 64.0042 693.596 L64.0042 706.805 L16.4842 706.805 Z" fill="#000000" fill-rule="evenodd" fill-opacity="1" /><path clip-path="url(#clip690)" d="M20.8447 637.323 Q20.8447 644.326 26.0645 648.463 Q31.2844 652.569 40.2919 652.569 Q49.2675 652.569 54.4874 648.463 Q59.7073 644.326 59.7073 637.323 Q59.7073 630.321 54.4874 626.247 Q49.2675 622.141 40.2919 622.141 Q31.2844 622.141 26.0645 626.247 Q20.8447 630.321 20.8447 637.323 M15.6248 637.323 Q15.6248 627.329 22.3406 621.345 Q29.0246 615.362 40.2919 615.362 Q51.5274 615.362 58.2432 621.345 Q64.9272 627.329 64.9272 637.323 Q64.9272 647.349 58.2432 653.365 Q51.5592 659.349 40.2919 659.349 Q29.0246 659.349 22.3406 653.365 Q15.6248 647.349 15.6248 637.323 Z" fill="#000000" fill-rule="evenodd" fill-opacity="1" /><path clip-path="url(#clip690)" d="M18.0438 576.817 L24.314 576.817 Q22.5634 580.478 21.704 583.724 Q20.8447 586.971 20.8447 589.994 Q20.8447 595.246 22.8817 598.111 Q24.9187 600.943 28.6745 600.943 Q31.8255 600.943 33.4488 599.065 Q35.0402 597.156 36.0269 591.872 L36.8226 587.989 Q38.1912 580.796 41.6605 577.39 Q45.098 573.953 50.8908 573.953 Q57.7976 573.953 61.3624 578.6 Q64.9272 583.215 64.9272 592.159 Q64.9272 595.532 64.1633 599.352 Q63.3994 603.139 61.9035 607.214 L55.2831 607.214 Q57.4793 603.299 58.5933 599.543 Q59.7073 595.787 59.7073 592.159 Q59.7073 586.652 57.543 583.66 Q55.3786 580.669 51.3682 580.669 Q47.8671 580.669 45.8937 582.833 Q43.9204 584.965 42.9337 589.867 L42.1698 593.782 Q40.7375 600.975 37.682 604.19 Q34.6264 607.404 29.1837 607.404 Q22.8817 607.404 19.2532 602.98 Q15.6248 598.524 15.6248 590.726 Q15.6248 587.384 16.2295 583.915 Q16.8343 580.446 18.0438 576.817 Z" fill="#000000" fill-rule="evenodd" fill-opacity="1" /><polyline clip-path="url(#clip692)" style="stroke:#009af9; stroke-linecap:butt; stroke-linejoin:round; stroke-width:4; stroke-opacity:1; fill:none" points="
  309.067,1193.16 311.053,1255.43 313.039,1276 315.025,1275.72 317.012,1256.58 318.998,1205.75 320.984,1090.53 322.97,879.593 324.956,591.086 326.942,665.281 
  328.928,1011.38 330.915,1166.42 332.901,1219.07 334.887,1219.5 336.873,1163.31 338.859,1005.82 340.845,949.429 342.832,1125.41 344.818,1203.53 346.804,1210.64 
  348.79,1158.38 350.776,1021.71 352.762,937.94 354.748,948.234 356.735,822.892 358.721,875.012 360.707,1058.57 362.693,1133.63 364.679,1102.69 366.665,1146.18 
  368.651,1194.19 370.638,1174.27 372.624,1076.94 374.61,858.798 376.596,825.344 378.582,1043.59 380.568,1183.82 382.555,1240.33 384.541,1247.14 386.527,1211.06 
  388.513,1189.99 390.499,1213.1 392.485,1209.75 394.471,1125.48 396.458,996.66 398.444,1042.44 400.43,1148.47 402.416,1162.04 404.402,1072.7 406.388,816.511 
  408.374,677.19 410.361,872.378 412.347,847.419 414.333,947.891 416.319,1120.2 418.305,1173.67 420.291,1143.21 422.278,1006.99 424.264,905.599 426.25,973.674 
  428.236,836.625 430.222,660.513 432.208,929.013 434.194,1083.61 436.181,1064.48 438.167,972.375 440.153,1053.38 442.139,1135.73 444.125,1192.17 446.111,1194.42 
  448.097,1179.22 450.084,1225.36 452.07,1234.9 454.056,1188.58 456.042,1058.8 458.028,877.49 460.014,915.379 462.001,1007.03 463.987,1148.58 465.973,1220.41 
  467.959,1226.48 469.945,1181.33 471.931,1153.71 473.917,1172.75 475.904,1162.99 477.89,1062.85 479.876,884.775 481.862,812.535 483.848,778.954 485.834,968.843 
  487.82,1126.54 489.807,1203.04 491.793,1214.55 493.779,1164.67 495.765,1011.42 497.751,916.962 499.737,1076.68 501.724,1166.53 503.71,1174.3 505.696,1094.78 
  507.682,855.885 509.668,545.387 511.654,776.137 513.64,1057.27 515.627,1149.8 517.613,1206.79 519.599,1252.53 521.585,1262.81 523.571,1240.13 525.557,1158.85 
  527.543,1037.8 529.53,1130.04 531.516,1219.75 533.502,1238.97 535.488,1213.1 537.474,1157.66 539.46,1067.08 541.447,858.743 543.433,520.05 545.419,543.597 
  547.405,888.042 549.391,1043.72 551.377,1009.87 553.363,968.645 555.35,1108.03 557.336,1160 559.322,1107.52 561.308,1050.25 563.294,1092 565.28,1017.43 
  567.266,922.162 569.253,993.693 571.239,1102.77 573.225,1172.42 575.211,1205.76 577.197,1178.51 579.183,1111.06 581.17,1047.77 583.156,1148.75 585.142,1215.32 
  587.128,1220.42 589.114,1179.56 591.1,1063.35 593.086,769.616 595.073,378.117 597.059,430.439 599.045,813.361 601.031,1073.17 603.017,1169.3 605.003,1186.03 
  606.989,1130.69 608.976,1015.25 610.962,1075.65 612.948,1138.86 614.934,1104.4 616.92,1149.94 618.906,1208.3 620.893,1209.88 622.879,1159.76 624.865,1038.91 
  626.851,937.961 628.837,754.378 630.823,414.321 632.809,224.897 634.796,204.066 636.782,729.626 638.768,978.72 640.754,1027.96 642.74,1048.4 644.726,990.532 
  646.712,909.304 648.699,949.825 650.685,971.35 652.671,831.8 654.657,776.655 656.643,1007.29 658.629,1090.35 660.616,1056.1 662.602,1031.71 664.588,1083.03 
  666.574,1073.47 668.56,951.749 670.546,592.876 672.532,162.411 674.519,372.99 676.505,809.152 678.491,959.384 680.477,925.794 682.463,685.458 684.449,492.045 
  686.435,731.828 688.422,817.172 690.408,1008.19 692.394,1126.36 694.38,1133.43 696.366,1178.32 698.352,1246.06 700.339,1274.97 702.325,1283.25 704.311,1277.64 
  706.297,1253.51 708.283,1193.02 710.269,1127.44 712.255,1102.12 714.242,1027.89 716.228,923.966 718.214,634.05 720.2,319.708 722.186,651.833 724.172,779.191 
  726.158,872.111 728.145,1080.76 730.131,1174.08 732.117,1191.03 734.103,1135.55 736.089,1107.41 738.075,1185.33 740.062,1207 742.048,1174.72 744.034,1074.58 
  746.02,1091.34 748.006,1134.68 749.992,1085.43 751.978,1114.64 753.965,1147.28 755.951,1095.63 757.937,920.265 759.923,503.483 761.909,196.54 763.895,388.282 
  765.881,183.927 767.868,235.378 769.854,788.84 771.84,1051.69 773.826,1153.22 775.812,1181.32 777.798,1147.36 779.785,1049.67 781.771,938.351 783.757,1019.9 
  785.743,1150.11 787.729,1159.51 789.715,1118.47 791.701,1190.63 793.688,1237.97 795.674,1228.81 797.66,1151.42 799.646,991.083 801.632,1052.1 803.618,1182.51 
  805.604,1219.56 807.591,1251.85 809.577,1263.95 811.563,1252.92 813.549,1214.25 815.535,1130.1 817.521,1058.93 819.508,1039.32 821.494,1072.59 823.48,1049.36 
  825.466,1002.95 827.452,751.231 829.438,431.262 831.424,602.309 833.411,881.558 835.397,948.876 837.383,884.405 839.369,1057.57 841.355,1197.26 843.341,1258.19 
  845.328,1285.77 847.314,1296.72 849.3,1296.66 851.286,1284.27 853.272,1248.75 855.258,1158.58 857.244,1033.04 859.231,1104.97 861.217,1163.82 863.203,1112.34 
  865.189,1026.19 867.175,1022.59 869.161,879.364 871.147,698.042 873.134,739.207 875.12,749.265 877.106,737.522 879.092,670.301 881.078,865.684 883.064,1064.56 
  885.051,1111.72 887.037,1114.4 889.023,1155.83 891.009,1199.97 892.995,1242.33 894.981,1257.7 896.967,1227.98 898.954,1137.61 900.94,1117.57 902.926,1208.14 
  904.912,1245.56 906.898,1231.46 908.884,1157.63 910.87,1026.45 912.857,1006.1 914.843,882.688 916.829,681.758 918.815,534.763 920.801,833.308 922.787,1109.28 
  924.774,1227.51 926.76,1280.56 928.746,1307.68 930.732,1322.82 932.718,1331.52 934.704,1336.18 936.69,1337.8 938.677,1336.51 940.663,1331.63 942.649,1321.07 
  944.635,1299.5 946.621,1252.16 948.607,1137.36 950.593,942.475 952.58,971.893 954.566,1020.7 956.552,1028.73 958.538,1183.22 960.524,1270.41 962.51,1306.13 
  964.497,1320.9 966.483,1324.7 968.469,1318.91 970.455,1297.7 972.441,1239.58 974.427,1120.44 976.413,1144.7 978.4,1249.7 980.386,1286.31 982.372,1280.13 
  984.358,1255.49 986.344,1232.54 988.33,1182.14 990.316,1228.15 992.303,1259.5 994.289,1235.02 996.275,1136.5 998.261,952.609 1000.25,852.924 1002.23,1037.17 
  1004.22,1204.83 1006.21,1281.7 1008.19,1315.57 1010.18,1332.41 1012.16,1341.49 1014.15,1346.46 1016.14,1348.87 1018.12,1349.4 1020.11,1348.22 1022.09,1345.16 
  1024.08,1339.56 1026.07,1329.98 1028.05,1313.23 1030.04,1281.6 1032.03,1214.13 1034.01,1056.21 1036,814.129 1037.98,789.618 1039.97,870.834 1041.96,1036.95 
  1043.94,1197.76 1045.93,1263.93 1047.91,1287.07 1049.9,1284.17 1051.89,1247.91 1053.87,1196.43 1055.86,1191.53 1057.85,1172.13 1059.83,1230.66 1061.82,1250.39 
  1063.8,1227.61 1065.79,1212.6 1067.78,1201.22 1069.76,1236.4 1071.75,1226.52 1073.73,1145.67 1075.72,922.591 1077.71,708.843 1079.69,957.344 1081.68,1137.72 
  1083.67,1228.5 1085.65,1262.43 1087.64,1266.35 1089.62,1245.38 1091.61,1183.55 1093.6,1024.42 1095.58,752.029 1097.57,793.228 1099.55,980.914 1101.54,1014.36 
  1103.53,869.363 1105.51,614.038 1107.5,838.055 1109.49,996.298 1111.47,1029.55 1113.46,1141.48 1115.44,1178.3 1117.43,1138.83 1119.42,1131.04 1121.4,1143.64 
  1123.39,1190.69 1125.37,1234.47 1127.36,1213.92 1129.35,1164.53 1131.33,1195.49 1133.32,1237.84 1135.31,1238.11 1137.29,1190.23 1139.28,1070.89 1141.26,1008.77 
  1143.25,1170.72 1145.24,1259.6 1147.22,1292.8 1149.21,1303.7 1151.19,1302.8 1153.18,1291.66 1155.17,1265.61 1157.15,1209.13 1159.14,1102.71 1161.13,928.67 
  1163.11,754.494 1165.1,853.521 1167.08,748.896 1169.07,532.821 1171.06,571.293 1173.04,627.276 1175.03,385.88 1177.01,383.395 1179,675.103 1180.99,852.327 
  1182.97,977.544 1184.96,1156.35 1186.95,1243.98 1188.93,1285.64 1190.92,1307.99 1192.9,1320.76 1194.89,1327.77 1196.88,1330.42 1198.86,1328.72 1200.85,1321.05 
  1202.83,1302.58 1204.82,1259.67 1206.81,1152.15 1208.79,924.12 1210.78,927.436 1212.77,1152.55 1214.75,1263.54 1216.74,1310.56 1218.72,1332.02 1220.71,1341.26 
  1222.7,1341.69 1224.68,1342.08 1226.67,1352.76 1228.65,1358.47 1230.64,1358.71 1232.63,1352.22 1234.61,1334.89 1236.6,1336.66 1238.59,1355.97 1240.57,1364.58 
  1242.56,1366.97 1244.54,1364.78 1246.53,1362.69 1248.52,1368.96 1250.5,1372.98 1252.49,1374.69 1254.47,1375.24 1256.46,1375.2 1258.45,1376.19 1260.43,1377.03 
  1262.42,1377.36 1264.41,1377.33 1266.39,1376.83 1268.38,1375.32 1270.36,1371.2 1272.35,1364.73 1274.34,1369.4 1276.32,1375.05 1278.31,1377.43 1280.29,1378.49 
  1282.28,1379.05 1284.27,1379.35 1286.25,1379.49 1288.24,1379.41 1290.23,1379.17 1292.21,1379.51 1294.2,1379.83 1296.18,1379.95 1298.17,1379.96 1300.16,1379.89 
  1302.14,1379.71 1304.13,1379.34 1306.11,1378.57 1308.1,1376.78 1310.09,1372.36 1312.07,1368.28 1314.06,1373.58 1316.05,1377.23 1318.03,1378.67 1320.02,1379.26 
  1322,1379.51 1323.99,1379.57 1325.98,1379.45 1327.96,1379.06 1329.95,1378.68 1331.93,1378.92 1333.92,1378.93 1335.91,1378.64 1337.89,1378.04 1339.88,1376.89 
  1341.87,1374.37 1343.85,1368.4 1345.84,1362.5 1347.82,1368.98 1349.81,1373.25 1351.8,1374.02 1353.78,1372.32 1355.77,1368.8 1357.75,1370.19 1359.74,1371.41 
  1361.73,1369.41 1363.71,1362.58 1365.7,1347.17 1367.69,1346.22 1369.67,1361.07 1371.66,1367.5 1373.64,1369.37 1375.63,1369.09 1377.62,1367.19 1379.6,1364.81 
  1381.59,1362.76 1383.57,1358.01 1385.56,1346.85 1387.55,1320.21 1389.53,1273.86 1391.52,1268.63 1393.5,1293.58 1395.49,1327.72 1397.48,1343.58 1399.46,1348.73 
  1401.45,1349.15 1403.44,1346.85 1405.42,1342.3 1407.41,1335.22 1409.39,1324.69 1411.38,1308.7 1413.37,1283.07 1415.35,1237.96 1417.34,1147.47 1419.32,964.109 
  1421.31,782.955 1423.3,506.046 1425.28,86.1857 1427.27,136.488 1429.26,361.355 1431.24,481.036 1433.23,532.906 1435.21,769.658 1437.2,931.574 1439.19,947.266 
  1441.17,1095.96 1443.16,1209.79 1445.14,1260.19 1447.13,1294.32 1449.12,1314.76 1451.1,1325.65 1453.09,1330.99 1455.08,1331.81 1457.06,1326.56 1459.05,1308.9 
  1461.03,1276.65 1463.02,1280.32 1465.01,1285.28 1466.99,1266.08 1468.98,1199.01 1470.96,1133.04 1472.95,1128.8 1474.94,1186.35 1476.92,1244.25 1478.91,1242.46 
  1480.9,1214.14 1482.88,1235.59 1484.87,1231.28 1486.85,1168.64 1488.84,995.481 1490.83,759.913 1492.81,869.112 1494.8,850.398 1496.78,657.755 1498.77,817.818 
  1500.76,904.217 1502.74,755.196 1504.73,436.788 1506.72,468.623 1508.7,868.923 1510.69,1101.31 1512.67,1218.97 1514.66,1273.56 1516.65,1300.54 1518.63,1312.33 
  1520.62,1309.98 1522.6,1283.24 1524.59,1240.56 1526.58,1281.9 1528.56,1325.8 1530.55,1344.94 1532.54,1352.9 1534.52,1355.04 1536.51,1355.96 1538.49,1359.62 
  1540.48,1362.11 1542.47,1361.16 1544.45,1359.99 1546.44,1361.5 1548.42,1364.84 1550.41,1368.99 1552.4,1372.12 1554.38,1373.37 1556.37,1373.39 1558.36,1371.84 
  1560.34,1367.16 1562.33,1362.21 1564.31,1359.71 1566.3,1359.4 1568.29,1368.05 1570.27,1373.96 1572.26,1376.58 1574.24,1377.9 1576.23,1378.66 1578.22,1379.15 
  1580.2,1379.49 1582.19,1379.72 1584.18,1379.87 1586.16,1379.95 1588.15,1379.94 1590.13,1379.82 1592.12,1379.52 1594.11,1378.89 1596.09,1377.54 1598.08,1374.37 
  1600.06,1367.2 1602.05,1359.37 1604.04,1364.23 1606.02,1371.94 1608.01,1376.08 1610,1377.18 1611.98,1376.05 1613.97,1374.32 1615.95,1376.26 1617.94,1377.05 
  1619.93,1378.15 1621.91,1378.55 1623.9,1377.24 1625.88,1373.3 1627.87,1372.46 1629.86,1377.03 1631.84,1379.28 1633.83,1380.14 1635.82,1380.44 1637.8,1380.42 
  1639.79,1380.08 1641.77,1379.17 1643.76,1376.89 1645.75,1373.11 1647.73,1373.27 1649.72,1372.32 1651.7,1371.64 1653.69,1376.11 1655.68,1378.73 1657.66,1379.76 
  1659.65,1380.19 1661.64,1380.35 1663.62,1380.36 1665.61,1380.28 1667.59,1380.13 1669.58,1379.89 1671.57,1379.55 1673.55,1379.07 1675.54,1378.34 1677.52,1377.1 
  1679.51,1374.62 1681.5,1369.32 1683.48,1364.13 1685.47,1364.91 1687.46,1368.08 1689.44,1368.77 1691.43,1369.19 1693.41,1370.64 1695.4,1370.99 1697.39,1369.83 
  1699.37,1366.92 1701.36,1361.92 1703.34,1360.11 1705.33,1358.99 1707.32,1354.72 1709.3,1347.08 1711.29,1334.82 1713.28,1316.96 1715.26,1286.3 1717.25,1225.05 
  1719.23,1083.91 1721.22,795.531 1723.21,620.027 1725.19,864.389 1727.18,976.958 1729.16,1044.33 1731.15,950.688 1733.14,803.677 1735.12,1023.97 1737.11,1193.67 
  1739.1,1261.9 1741.08,1285.66 1743.07,1270.21 1745.05,1249.46 1747.04,1299.98 1749.03,1334.57 1751.01,1349.84 1753,1357.48 1754.98,1361.52 1756.97,1363.38 
  1758.96,1363.33 1760.94,1360.65 1762.93,1352.83 1764.92,1341.4 1766.9,1335.37 1768.89,1309.97 1770.87,1241.66 1772.86,1224.55 1774.85,1294.05 1776.83,1327.96 
  1778.82,1345.1 1780.8,1350.82 1782.79,1358.61 1784.78,1366.04 1786.76,1370.18 1788.75,1372.76 1790.73,1374.92 1792.72,1375.5 1794.71,1374.23 1796.69,1373.13 
  1798.68,1373.94 1800.67,1371.38 1802.65,1370.89 1804.64,1375.71 1806.62,1378.12 1808.61,1378.95 1810.6,1378.95 1812.58,1378.36 1814.57,1377.33 1816.55,1374.18 
  1818.54,1366.48 1820.53,1363.96 1822.51,1372.04 1824.5,1376.13 1826.49,1377.24 1828.47,1376.83 1830.46,1374.9 1832.44,1370.54 1834.43,1361.15 1836.42,1350.69 
  1838.4,1336.63 1840.39,1304.73 1842.37,1323.87 1844.36,1355.18 1846.35,1367.94 1848.33,1372.7 1850.32,1375.04 1852.31,1375.88 1854.29,1376.66 1856.28,1377.73 
  1858.26,1377.91 1860.25,1379.07 1862.24,1380.01 1864.22,1379.62 1866.21,1377.8 1868.19,1377.88 1870.18,1379.69 1872.17,1379.95 1874.15,1378.5 1876.14,1374.92 
  1878.13,1374.65 1880.11,1374.77 1882.1,1371.47 1884.08,1373.56 1886.07,1375.69 1888.06,1376.62 1890.04,1379.41 1892.03,1380.63 1894.01,1381.56 1896,1382.16 
  1897.99,1382.37 1899.97,1382.35 1901.96,1382.1 1903.95,1381.47 1905.93,1380.12 1907.92,1379.01 1909.9,1378.34 1911.89,1375.2 1913.88,1368.25 1915.86,1362.19 
  1917.85,1354.62 1919.83,1361.71 1921.82,1372.27 1923.81,1375.81 1925.79,1375.45 1927.78,1370.91 1929.77,1369.24 1931.75,1374.03 1933.74,1378.18 1935.72,1380.03 
  1937.71,1380.12 1939.7,1379.43 1941.68,1379.99 1943.67,1379.99 1945.65,1377.87 1947.64,1373.62 1949.63,1375.08 1951.61,1376.8 1953.6,1376.36 1955.59,1375.59 
  1957.57,1376.12 1959.56,1379.22 1961.54,1380.63 1963.53,1380.38 1965.52,1378.29 1967.5,1375.64 1969.49,1374.47 1971.47,1377.22 1973.46,1379.49 1975.45,1380.52 
  1977.43,1381.74 1979.42,1382.47 1981.41,1382.59 1983.39,1382.3 1985.38,1381.6 1987.36,1380.92 1989.35,1381.01 1991.34,1379.6 1993.32,1377.88 1995.31,1379.81 
  1997.29,1380.75 1999.28,1380.15 2001.27,1377.7 2003.25,1371.27 2005.24,1362.2 2007.23,1362.44 2009.21,1371.02 2011.2,1377.75 2013.18,1380.5 2015.17,1381.58 
  2017.16,1381.76 2019.14,1380.92 2021.13,1379.26 2023.11,1380.35 2025.1,1381.4 2027.09,1381.66 2029.07,1381.88 2031.06,1381.29 2033.05,1380.02 2035.03,1380.14 
  2037.02,1380.81 2039,1381.31 2040.99,1381.22 2042.98,1381.79 2044.96,1382.59 2046.95,1382.48 2048.93,1381.73 2050.92,1381.86 2052.91,1381.91 2054.89,1380.56 
  2056.88,1378.49 2058.87,1378.66 2060.85,1381.13 2062.84,1382.14 2064.82,1382.46 2066.81,1383.09 2068.8,1383.28 2070.78,1382.97 2072.77,1381.86 2074.75,1380.77 
  2076.74,1382.16 2078.73,1383.05 2080.71,1383.26 2082.7,1383.05 2084.69,1382.43 2086.67,1381.53 2088.66,1379.45 2090.64,1374.97 2092.63,1370.51 2094.62,1376.13 
  2096.6,1380.27 2098.59,1381.9 2100.57,1382.29 2102.56,1381.62 2104.55,1380.5 2106.53,1381.64 2108.52,1382.85 2110.51,1383.27 2112.49,1383.2 2114.48,1382.57 
  2116.46,1380.94 2118.45,1380.08 2120.44,1380.35 2122.42,1380.83 2124.41,1382.32 2126.39,1382.98 2128.38,1382.83 2130.37,1382.81 2132.35,1383.08 2134.34,1383.15 
  2136.33,1383.26 2138.31,1382.89 2140.3,1381.77 2142.28,1380.31 2144.27,1379.01 2146.26,1380.87 2148.24,1382.68 2150.23,1383.34 2152.21,1383.45 2154.2,1383.19 
  2156.19,1383.17 2158.17,1383.11 2160.16,1382.35 2162.15,1381.17 2164.13,1380.38 2166.12,1381.08 2168.1,1381.15 2170.09,1379 2172.08,1375.26 2174.06,1377.66 
  2176.05,1379.71 2178.03,1379 2180.02,1380.38 2182.01,1382.3 2183.99,1382.98 2185.98,1382.92 2187.97,1382.08 2189.95,1381.7 2191.94,1382.04 2193.92,1381.23 
  2195.91,1381.9 2197.9,1383.12 2199.88,1383.51 2201.87,1383.33 2203.85,1382.47 2205.84,1382.21 2207.83,1383.04 2209.81,1383.5 2211.8,1383.57 2213.78,1383.17 
  2215.77,1383.35 2217.76,1383.78 2219.74,1383.8 2221.73,1383.43 2223.72,1382.53 2225.7,1381.12 2227.69,1380.65 2229.67,1382.34 2231.66,1383.28 2233.65,1383.42 
  2235.63,1382.98 2237.62,1382.62 2239.6,1382.83 2241.59,1382.21 2243.58,1380.41 2245.56,1380.47 2247.55,1381.08 2249.54,1381.27 2251.52,1381.83 2253.51,1382.97 
  2255.49,1383.46 2257.48,1383.37 2259.47,1382.57 2261.45,1380.9 2263.44,1381.54 2265.42,1383.06 2267.41,1383.69 2269.4,1383.84 2271.38,1383.65 2273.37,1382.94 
  2275.36,1381.29 2277.34,1381.02 2279.33,1382.38 2281.31,1383.32 2283.3,1383.92 2285.29,1384.16 2287.27,1384.24 2289.26,1384.21 2291.24,1384.05 2293.23,1383.61 
  
  "/>
<path clip-path="url(#clip690)" d="
M1996.53 196.789 L2282.65 196.789 L2282.65 93.1086 L1996.53 93.1086  Z
  " fill="#ffffff" fill-rule="evenodd" fill-opacity="1"/>
<polyline clip-path="url(#clip690)" style="stroke:#000000; stroke-linecap:butt; stroke-linejoin:round; stroke-width:4; stroke-opacity:1; fill:none" points="
  1996.53,196.789 2282.65,196.789 2282.65,93.1086 1996.53,93.1086 1996.53,196.789 
  "/>
<polyline clip-path="url(#clip690)" style="stroke:#009af9; stroke-linecap:butt; stroke-linejoin:round; stroke-width:4; stroke-opacity:1; fill:none" points="
  2019.9,144.949 2160.11,144.949 
  "/>
<path clip-path="url(#clip690)" d="M2197.32 164.636 Q2195.52 169.266 2193.8 170.678 Q2192.09 172.09 2189.22 172.09 L2185.82 172.09 L2185.82 168.525 L2188.32 168.525 Q2190.08 168.525 2191.05 167.692 Q2192.02 166.858 2193.2 163.756 L2193.97 161.812 L2183.48 136.303 L2187.99 136.303 L2196.1 156.581 L2204.2 136.303 L2208.71 136.303 L2197.32 164.636 Z" fill="#000000" fill-rule="evenodd" fill-opacity="1" /><path clip-path="url(#clip690)" d="M2216 158.293 L2223.64 158.293 L2223.64 131.928 L2215.33 133.595 L2215.33 129.335 L2223.6 127.669 L2228.27 127.669 L2228.27 158.293 L2235.91 158.293 L2235.91 162.229 L2216 162.229 L2216 158.293 Z" fill="#000000" fill-rule="evenodd" fill-opacity="1" /></svg>
