<?xml version="1.0" encoding="utf-8"?>
<svg xmlns="http://www.w3.org/2000/svg" xmlns:xlink="http://www.w3.org/1999/xlink" width="600" height="400" viewBox="0 0 2400 1600">
<defs>
  <clipPath id="clip600">
    <rect x="0" y="0" width="2400" height="1600"/>
  </clipPath>
</defs>
<path clip-path="url(#clip600)" d="
M0 1600 L2400 1600 L2400 0 L0 0  Z
  " fill="#ffffff" fill-rule="evenodd" fill-opacity="1"/>
<defs>
  <clipPath id="clip601">
    <rect x="480" y="0" width="1681" height="1600"/>
  </clipPath>
</defs>
<path clip-path="url(#clip600)" d="
M249.542 1423.18 L2352.76 1423.18 L2352.76 47.2441 L249.542 47.2441  Z
  " fill="#ffffff" fill-rule="evenodd" fill-opacity="1"/>
<defs>
  <clipPath id="clip602">
    <rect x="249" y="47" width="2104" height="1377"/>
  </clipPath>
</defs>
<polyline clip-path="url(#clip602)" style="stroke:#000000; stroke-linecap:butt; stroke-linejoin:round; stroke-width:2; stroke-opacity:0.1; fill:none" points="
  309.067,1423.18 309.067,47.2441 
  "/>
<polyline clip-path="url(#clip602)" style="stroke:#000000; stroke-linecap:butt; stroke-linejoin:round; stroke-width:2; stroke-opacity:0.1; fill:none" points="
  805.108,1423.18 805.108,47.2441 
  "/>
<polyline clip-path="url(#clip602)" style="stroke:#000000; stroke-linecap:butt; stroke-linejoin:round; stroke-width:2; stroke-opacity:0.1; fill:none" points="
  1301.15,1423.18 1301.15,47.2441 
  "/>
<polyline clip-path="url(#clip602)" style="stroke:#000000; stroke-linecap:butt; stroke-linejoin:round; stroke-width:2; stroke-opacity:0.1; fill:none" points="
  1797.19,1423.18 1797.19,47.2441 
  "/>
<polyline clip-path="url(#clip602)" style="stroke:#000000; stroke-linecap:butt; stroke-linejoin:round; stroke-width:2; stroke-opacity:0.1; fill:none" points="
  2293.23,1423.18 2293.23,47.2441 
  "/>
<polyline clip-path="url(#clip600)" style="stroke:#000000; stroke-linecap:butt; stroke-linejoin:round; stroke-width:4; stroke-opacity:1; fill:none" points="
  249.542,1423.18 2352.76,1423.18 
  "/>
<polyline clip-path="url(#clip600)" style="stroke:#000000; stroke-linecap:butt; stroke-linejoin:round; stroke-width:4; stroke-opacity:1; fill:none" points="
  309.067,1423.18 309.067,1404.28 
  "/>
<polyline clip-path="url(#clip600)" style="stroke:#000000; stroke-linecap:butt; stroke-linejoin:round; stroke-width:4; stroke-opacity:1; fill:none" points="
  805.108,1423.18 805.108,1404.28 
  "/>
<polyline clip-path="url(#clip600)" style="stroke:#000000; stroke-linecap:butt; stroke-linejoin:round; stroke-width:4; stroke-opacity:1; fill:none" points="
  1301.15,1423.18 1301.15,1404.28 
  "/>
<polyline clip-path="url(#clip600)" style="stroke:#000000; stroke-linecap:butt; stroke-linejoin:round; stroke-width:4; stroke-opacity:1; fill:none" points="
  1797.19,1423.18 1797.19,1404.28 
  "/>
<polyline clip-path="url(#clip600)" style="stroke:#000000; stroke-linecap:butt; stroke-linejoin:round; stroke-width:4; stroke-opacity:1; fill:none" points="
  2293.23,1423.18 2293.23,1404.28 
  "/>
<path clip-path="url(#clip600)" d="M277.968 1468.75 L307.643 1468.75 L307.643 1472.69 L277.968 1472.69 L277.968 1468.75 Z" fill="#000000" fill-rule="evenodd" fill-opacity="1" /><path clip-path="url(#clip600)" d="M330.583 1455.09 L318.778 1473.54 L330.583 1473.54 L330.583 1455.09 M329.356 1451.02 L335.236 1451.02 L335.236 1473.54 L340.166 1473.54 L340.166 1477.43 L335.236 1477.43 L335.236 1485.58 L330.583 1485.58 L330.583 1477.43 L314.981 1477.43 L314.981 1472.92 L329.356 1451.02 Z" fill="#000000" fill-rule="evenodd" fill-opacity="1" /><path clip-path="url(#clip600)" d="M775.05 1468.75 L804.726 1468.75 L804.726 1472.69 L775.05 1472.69 L775.05 1468.75 Z" fill="#000000" fill-rule="evenodd" fill-opacity="1" /><path clip-path="url(#clip600)" d="M818.846 1481.64 L835.166 1481.64 L835.166 1485.58 L813.221 1485.58 L813.221 1481.64 Q815.883 1478.89 820.467 1474.26 Q825.073 1469.61 826.254 1468.27 Q828.499 1465.74 829.379 1464.01 Q830.281 1462.25 830.281 1460.56 Q830.281 1457.8 828.337 1456.07 Q826.416 1454.33 823.314 1454.33 Q821.115 1454.33 818.661 1455.09 Q816.231 1455.86 813.453 1457.41 L813.453 1452.69 Q816.277 1451.55 818.731 1450.97 Q821.184 1450.39 823.221 1450.39 Q828.592 1450.39 831.786 1453.08 Q834.98 1455.77 834.98 1460.26 Q834.98 1462.39 834.17 1464.31 Q833.383 1466.2 831.277 1468.8 Q830.698 1469.47 827.596 1472.69 Q824.494 1475.88 818.846 1481.64 Z" fill="#000000" fill-rule="evenodd" fill-opacity="1" /><path clip-path="url(#clip600)" d="M1301.15 1454.1 Q1297.54 1454.1 1295.71 1457.66 Q1293.9 1461.2 1293.9 1468.33 Q1293.9 1475.44 1295.71 1479.01 Q1297.54 1482.55 1301.15 1482.55 Q1304.78 1482.55 1306.59 1479.01 Q1308.42 1475.44 1308.42 1468.33 Q1308.42 1461.2 1306.59 1457.66 Q1304.78 1454.1 1301.15 1454.1 M1301.15 1450.39 Q1306.96 1450.39 1310.01 1455 Q1313.09 1459.58 1313.09 1468.33 Q1313.09 1477.06 1310.01 1481.67 Q1306.96 1486.25 1301.15 1486.25 Q1295.34 1486.25 1292.26 1481.67 Q1289.2 1477.06 1289.2 1468.33 Q1289.2 1459.58 1292.26 1455 Q1295.34 1450.39 1301.15 1450.39 Z" fill="#000000" fill-rule="evenodd" fill-opacity="1" /><path clip-path="url(#clip600)" d="M1791.84 1481.64 L1808.16 1481.64 L1808.16 1485.58 L1786.22 1485.58 L1786.22 1481.64 Q1788.88 1478.89 1793.46 1474.26 Q1798.07 1469.61 1799.25 1468.27 Q1801.5 1465.74 1802.38 1464.01 Q1803.28 1462.25 1803.28 1460.56 Q1803.28 1457.8 1801.33 1456.07 Q1799.41 1454.33 1796.31 1454.33 Q1794.11 1454.33 1791.66 1455.09 Q1789.23 1455.86 1786.45 1457.41 L1786.45 1452.69 Q1789.27 1451.55 1791.73 1450.97 Q1794.18 1450.39 1796.22 1450.39 Q1801.59 1450.39 1804.78 1453.08 Q1807.98 1455.77 1807.98 1460.26 Q1807.98 1462.39 1807.17 1464.31 Q1806.38 1466.2 1804.27 1468.8 Q1803.69 1469.47 1800.59 1472.69 Q1797.49 1475.88 1791.84 1481.64 Z" fill="#000000" fill-rule="evenodd" fill-opacity="1" /><path clip-path="url(#clip600)" d="M2296.24 1455.09 L2284.43 1473.54 L2296.24 1473.54 L2296.24 1455.09 M2295.01 1451.02 L2300.89 1451.02 L2300.89 1473.54 L2305.82 1473.54 L2305.82 1477.43 L2300.89 1477.43 L2300.89 1485.58 L2296.24 1485.58 L2296.24 1477.43 L2280.64 1477.43 L2280.64 1472.92 L2295.01 1451.02 Z" fill="#000000" fill-rule="evenodd" fill-opacity="1" /><path clip-path="url(#clip600)" d="M1144.47 1520.52 L1174.52 1520.52 L1174.52 1525.93 L1150.9 1525.93 L1150.9 1540 L1173.53 1540 L1173.53 1545.41 L1150.9 1545.41 L1150.9 1562.63 L1175.09 1562.63 L1175.09 1568.04 L1144.47 1568.04 L1144.47 1520.52 Z" fill="#000000" fill-rule="evenodd" fill-opacity="1" /><path clip-path="url(#clip600)" d="M1215.04 1546.53 L1215.04 1568.04 L1209.18 1568.04 L1209.18 1546.72 Q1209.18 1541.66 1207.21 1539.14 Q1205.23 1536.63 1201.29 1536.63 Q1196.54 1536.63 1193.81 1539.65 Q1191.07 1542.68 1191.07 1547.9 L1191.07 1568.04 L1185.18 1568.04 L1185.18 1532.4 L1191.07 1532.4 L1191.07 1537.93 Q1193.17 1534.72 1196 1533.13 Q1198.87 1531.54 1202.59 1531.54 Q1208.73 1531.54 1211.89 1535.36 Q1215.04 1539.14 1215.04 1546.53 Z" fill="#000000" fill-rule="evenodd" fill-opacity="1" /><path clip-path="url(#clip600)" d="M1257.21 1548.76 L1257.21 1551.62 L1230.28 1551.62 Q1230.66 1557.67 1233.91 1560.85 Q1237.19 1564 1243.01 1564 Q1246.39 1564 1249.54 1563.17 Q1252.72 1562.35 1255.84 1560.69 L1255.84 1566.23 Q1252.69 1567.57 1249.38 1568.27 Q1246.07 1568.97 1242.66 1568.97 Q1234.13 1568.97 1229.14 1564 Q1224.17 1559.04 1224.17 1550.57 Q1224.17 1541.82 1228.88 1536.69 Q1233.62 1531.54 1241.65 1531.54 Q1248.84 1531.54 1253.01 1536.18 Q1257.21 1540.8 1257.21 1548.76 M1251.35 1547.04 Q1251.29 1542.23 1248.65 1539.37 Q1246.04 1536.5 1241.71 1536.5 Q1236.81 1536.5 1233.85 1539.27 Q1230.92 1542.04 1230.47 1547.07 L1251.35 1547.04 Z" fill="#000000" fill-rule="evenodd" fill-opacity="1" /><path clip-path="url(#clip600)" d="M1287.48 1537.87 Q1286.49 1537.3 1285.31 1537.04 Q1284.17 1536.76 1282.77 1536.76 Q1277.8 1536.76 1275.13 1540 Q1272.49 1543.22 1272.49 1549.27 L1272.49 1568.04 L1266.6 1568.04 L1266.6 1532.4 L1272.49 1532.4 L1272.49 1537.93 Q1274.33 1534.69 1277.29 1533.13 Q1280.25 1531.54 1284.49 1531.54 Q1285.09 1531.54 1285.82 1531.63 Q1286.56 1531.7 1287.45 1531.85 L1287.48 1537.87 Z" fill="#000000" fill-rule="evenodd" fill-opacity="1" /><path clip-path="url(#clip600)" d="M1315.93 1549.81 Q1315.93 1543.44 1313.29 1539.94 Q1310.68 1536.44 1305.94 1536.44 Q1301.23 1536.44 1298.59 1539.94 Q1295.98 1543.44 1295.98 1549.81 Q1295.98 1556.14 1298.59 1559.64 Q1301.23 1563.14 1305.94 1563.14 Q1310.68 1563.14 1313.29 1559.64 Q1315.93 1556.14 1315.93 1549.81 M1321.79 1563.62 Q1321.79 1572.72 1317.75 1577.15 Q1313.71 1581.6 1305.37 1581.6 Q1302.28 1581.6 1299.54 1581.13 Q1296.8 1580.68 1294.23 1579.72 L1294.23 1574.03 Q1296.8 1575.43 1299.32 1576.1 Q1301.83 1576.76 1304.44 1576.76 Q1310.2 1576.76 1313.07 1573.74 Q1315.93 1570.75 1315.93 1564.67 L1315.93 1561.77 Q1314.12 1564.92 1311.29 1566.48 Q1308.45 1568.04 1304.51 1568.04 Q1297.95 1568.04 1293.94 1563.05 Q1289.93 1558.05 1289.93 1549.81 Q1289.93 1541.53 1293.94 1536.53 Q1297.95 1531.54 1304.51 1531.54 Q1308.45 1531.54 1311.29 1533.1 Q1314.12 1534.66 1315.93 1537.81 L1315.93 1532.4 L1321.79 1532.4 L1321.79 1563.62 Z" fill="#000000" fill-rule="evenodd" fill-opacity="1" /><path clip-path="url(#clip600)" d="M1348.68 1571.35 Q1346.2 1577.72 1343.85 1579.66 Q1341.49 1581.6 1337.54 1581.6 L1332.87 1581.6 L1332.87 1576.7 L1336.3 1576.7 Q1338.72 1576.7 1340.06 1575.56 Q1341.4 1574.41 1343.02 1570.14 L1344.07 1567.47 L1329.65 1532.4 L1335.86 1532.4 L1347 1560.28 L1358.14 1532.4 L1364.34 1532.4 L1348.68 1571.35 Z" fill="#000000" fill-rule="evenodd" fill-opacity="1" /><path clip-path="url(#clip600)" d="M1392.61 1518.52 L1406.1 1518.52 L1406.1 1523.07 L1398.46 1523.07 L1398.46 1572.09 L1406.1 1572.09 L1406.1 1576.64 L1392.61 1576.64 L1392.61 1518.52 Z" fill="#000000" fill-rule="evenodd" fill-opacity="1" /><path clip-path="url(#clip600)" d="M1424.37 1522.27 L1424.37 1532.4 L1436.44 1532.4 L1436.44 1536.95 L1424.37 1536.95 L1424.37 1556.3 Q1424.37 1560.66 1425.55 1561.9 Q1426.76 1563.14 1430.42 1563.14 L1436.44 1563.14 L1436.44 1568.04 L1430.42 1568.04 Q1423.64 1568.04 1421.06 1565.53 Q1418.48 1562.98 1418.48 1556.3 L1418.48 1536.95 L1414.19 1536.95 L1414.19 1532.4 L1418.48 1532.4 L1418.48 1522.27 L1424.37 1522.27 Z" fill="#000000" fill-rule="evenodd" fill-opacity="1" /><path clip-path="url(#clip600)" d="M1457.82 1518.52 L1457.82 1576.64 L1444.33 1576.64 L1444.33 1572.09 L1451.94 1572.09 L1451.94 1523.07 L1444.33 1523.07 L1444.33 1518.52 L1457.82 1518.52 Z" fill="#000000" fill-rule="evenodd" fill-opacity="1" /><polyline clip-path="url(#clip602)" style="stroke:#000000; stroke-linecap:butt; stroke-linejoin:round; stroke-width:2; stroke-opacity:0.1; fill:none" points="
  249.542,1385.16 2352.76,1385.16 
  "/>
<polyline clip-path="url(#clip602)" style="stroke:#000000; stroke-linecap:butt; stroke-linejoin:round; stroke-width:2; stroke-opacity:0.1; fill:none" points="
  249.542,1061.47 2352.76,1061.47 
  "/>
<polyline clip-path="url(#clip602)" style="stroke:#000000; stroke-linecap:butt; stroke-linejoin:round; stroke-width:2; stroke-opacity:0.1; fill:none" points="
  249.542,737.787 2352.76,737.787 
  "/>
<polyline clip-path="url(#clip602)" style="stroke:#000000; stroke-linecap:butt; stroke-linejoin:round; stroke-width:2; stroke-opacity:0.1; fill:none" points="
  249.542,414.099 2352.76,414.099 
  "/>
<polyline clip-path="url(#clip602)" style="stroke:#000000; stroke-linecap:butt; stroke-linejoin:round; stroke-width:2; stroke-opacity:0.1; fill:none" points="
  249.542,90.4112 2352.76,90.4112 
  "/>
<polyline clip-path="url(#clip600)" style="stroke:#000000; stroke-linecap:butt; stroke-linejoin:round; stroke-width:4; stroke-opacity:1; fill:none" points="
  249.542,1423.18 249.542,47.2441 
  "/>
<polyline clip-path="url(#clip600)" style="stroke:#000000; stroke-linecap:butt; stroke-linejoin:round; stroke-width:4; stroke-opacity:1; fill:none" points="
  249.542,1385.16 268.44,1385.16 
  "/>
<polyline clip-path="url(#clip600)" style="stroke:#000000; stroke-linecap:butt; stroke-linejoin:round; stroke-width:4; stroke-opacity:1; fill:none" points="
  249.542,1061.47 268.44,1061.47 
  "/>
<polyline clip-path="url(#clip600)" style="stroke:#000000; stroke-linecap:butt; stroke-linejoin:round; stroke-width:4; stroke-opacity:1; fill:none" points="
  249.542,737.787 268.44,737.787 
  "/>
<polyline clip-path="url(#clip600)" style="stroke:#000000; stroke-linecap:butt; stroke-linejoin:round; stroke-width:4; stroke-opacity:1; fill:none" points="
  249.542,414.099 268.44,414.099 
  "/>
<polyline clip-path="url(#clip600)" style="stroke:#000000; stroke-linecap:butt; stroke-linejoin:round; stroke-width:4; stroke-opacity:1; fill:none" points="
  249.542,90.4112 268.44,90.4112 
  "/>
<path clip-path="url(#clip600)" d="M126.205 1370.96 Q122.593 1370.96 120.765 1374.53 Q118.959 1378.07 118.959 1385.2 Q118.959 1392.3 120.765 1395.87 Q122.593 1399.41 126.205 1399.41 Q129.839 1399.41 131.644 1395.87 Q133.473 1392.3 133.473 1385.2 Q133.473 1378.07 131.644 1374.53 Q129.839 1370.96 126.205 1370.96 M126.205 1367.26 Q132.015 1367.26 135.07 1371.86 Q138.149 1376.45 138.149 1385.2 Q138.149 1393.92 135.07 1398.53 Q132.015 1403.11 126.205 1403.11 Q120.394 1403.11 117.316 1398.53 Q114.26 1393.92 114.26 1385.2 Q114.26 1376.45 117.316 1371.86 Q120.394 1367.26 126.205 1367.26 Z" fill="#000000" fill-rule="evenodd" fill-opacity="1" /><path clip-path="url(#clip600)" d="M146.366 1396.56 L151.251 1396.56 L151.251 1402.44 L146.366 1402.44 L146.366 1396.56 Z" fill="#000000" fill-rule="evenodd" fill-opacity="1" /><path clip-path="url(#clip600)" d="M171.436 1370.96 Q167.825 1370.96 165.996 1374.53 Q164.19 1378.07 164.19 1385.2 Q164.19 1392.3 165.996 1395.87 Q167.825 1399.41 171.436 1399.41 Q175.07 1399.41 176.876 1395.87 Q178.704 1392.3 178.704 1385.2 Q178.704 1378.07 176.876 1374.53 Q175.07 1370.96 171.436 1370.96 M171.436 1367.26 Q177.246 1367.26 180.301 1371.86 Q183.38 1376.45 183.38 1385.2 Q183.38 1393.92 180.301 1398.53 Q177.246 1403.11 171.436 1403.11 Q165.626 1403.11 162.547 1398.53 Q159.491 1393.92 159.491 1385.2 Q159.491 1376.45 162.547 1371.86 Q165.626 1367.26 171.436 1367.26 Z" fill="#000000" fill-rule="evenodd" fill-opacity="1" /><path clip-path="url(#clip600)" d="M201.598 1370.96 Q197.987 1370.96 196.158 1374.53 Q194.352 1378.07 194.352 1385.2 Q194.352 1392.3 196.158 1395.87 Q197.987 1399.41 201.598 1399.41 Q205.232 1399.41 207.037 1395.87 Q208.866 1392.3 208.866 1385.2 Q208.866 1378.07 207.037 1374.53 Q205.232 1370.96 201.598 1370.96 M201.598 1367.26 Q207.408 1367.26 210.463 1371.86 Q213.542 1376.45 213.542 1385.2 Q213.542 1393.92 210.463 1398.53 Q207.408 1403.11 201.598 1403.11 Q195.787 1403.11 192.709 1398.53 Q189.653 1393.92 189.653 1385.2 Q189.653 1376.45 192.709 1371.86 Q195.787 1367.26 201.598 1367.26 Z" fill="#000000" fill-rule="evenodd" fill-opacity="1" /><path clip-path="url(#clip600)" d="M127.2 1047.27 Q123.589 1047.27 121.76 1050.84 Q119.955 1054.38 119.955 1061.51 Q119.955 1068.62 121.76 1072.18 Q123.589 1075.72 127.2 1075.72 Q130.834 1075.72 132.64 1072.18 Q134.468 1068.62 134.468 1061.51 Q134.468 1054.38 132.64 1050.84 Q130.834 1047.27 127.2 1047.27 M127.2 1043.57 Q133.01 1043.57 136.066 1048.18 Q139.144 1052.76 139.144 1061.51 Q139.144 1070.24 136.066 1074.84 Q133.01 1079.43 127.2 1079.43 Q121.39 1079.43 118.311 1074.84 Q115.256 1070.24 115.256 1061.51 Q115.256 1052.76 118.311 1048.18 Q121.39 1043.57 127.2 1043.57 Z" fill="#000000" fill-rule="evenodd" fill-opacity="1" /><path clip-path="url(#clip600)" d="M147.362 1072.87 L152.246 1072.87 L152.246 1078.75 L147.362 1078.75 L147.362 1072.87 Z" fill="#000000" fill-rule="evenodd" fill-opacity="1" /><path clip-path="url(#clip600)" d="M166.459 1074.82 L182.778 1074.82 L182.778 1078.75 L160.834 1078.75 L160.834 1074.82 Q163.496 1072.06 168.079 1067.43 Q172.686 1062.78 173.866 1061.44 Q176.112 1058.92 176.991 1057.18 Q177.894 1055.42 177.894 1053.73 Q177.894 1050.98 175.95 1049.24 Q174.028 1047.5 170.927 1047.5 Q168.727 1047.5 166.274 1048.27 Q163.843 1049.03 161.065 1050.58 L161.065 1045.86 Q163.89 1044.73 166.343 1044.15 Q168.797 1043.57 170.834 1043.57 Q176.204 1043.57 179.399 1046.25 Q182.593 1048.94 182.593 1053.43 Q182.593 1055.56 181.783 1057.48 Q180.996 1059.38 178.889 1061.97 Q178.311 1062.64 175.209 1065.86 Q172.107 1069.06 166.459 1074.82 Z" fill="#000000" fill-rule="evenodd" fill-opacity="1" /><path clip-path="url(#clip600)" d="M192.639 1044.19 L210.996 1044.19 L210.996 1048.13 L196.922 1048.13 L196.922 1056.6 Q197.94 1056.25 198.959 1056.09 Q199.977 1055.91 200.996 1055.91 Q206.783 1055.91 210.162 1059.08 Q213.542 1062.25 213.542 1067.67 Q213.542 1073.25 210.07 1076.35 Q206.598 1079.43 200.278 1079.43 Q198.102 1079.43 195.834 1079.06 Q193.588 1078.68 191.181 1077.94 L191.181 1073.25 Q193.264 1074.38 195.487 1074.93 Q197.709 1075.49 200.186 1075.49 Q204.19 1075.49 206.528 1073.38 Q208.866 1071.28 208.866 1067.67 Q208.866 1064.06 206.528 1061.95 Q204.19 1059.84 200.186 1059.84 Q198.311 1059.84 196.436 1060.26 Q194.584 1060.68 192.639 1061.56 L192.639 1044.19 Z" fill="#000000" fill-rule="evenodd" fill-opacity="1" /><path clip-path="url(#clip600)" d="M126.205 723.585 Q122.593 723.585 120.765 727.15 Q118.959 730.692 118.959 737.821 Q118.959 744.928 120.765 748.493 Q122.593 752.034 126.205 752.034 Q129.839 752.034 131.644 748.493 Q133.473 744.928 133.473 737.821 Q133.473 730.692 131.644 727.15 Q129.839 723.585 126.205 723.585 M126.205 719.882 Q132.015 719.882 135.07 724.488 Q138.149 729.071 138.149 737.821 Q138.149 746.548 135.07 751.155 Q132.015 755.738 126.205 755.738 Q120.394 755.738 117.316 751.155 Q114.26 746.548 114.26 737.821 Q114.26 729.071 117.316 724.488 Q120.394 719.882 126.205 719.882 Z" fill="#000000" fill-rule="evenodd" fill-opacity="1" /><path clip-path="url(#clip600)" d="M146.366 749.187 L151.251 749.187 L151.251 755.067 L146.366 755.067 L146.366 749.187 Z" fill="#000000" fill-rule="evenodd" fill-opacity="1" /><path clip-path="url(#clip600)" d="M161.482 720.507 L179.839 720.507 L179.839 724.442 L165.765 724.442 L165.765 732.914 Q166.783 732.567 167.802 732.405 Q168.82 732.219 169.839 732.219 Q175.626 732.219 179.005 735.391 Q182.385 738.562 182.385 743.979 Q182.385 749.557 178.913 752.659 Q175.44 755.738 169.121 755.738 Q166.945 755.738 164.677 755.368 Q162.431 754.997 160.024 754.256 L160.024 749.557 Q162.107 750.692 164.329 751.247 Q166.552 751.803 169.028 751.803 Q173.033 751.803 175.371 749.696 Q177.709 747.59 177.709 743.979 Q177.709 740.368 175.371 738.261 Q173.033 736.155 169.028 736.155 Q167.153 736.155 165.278 736.571 Q163.427 736.988 161.482 737.868 L161.482 720.507 Z" fill="#000000" fill-rule="evenodd" fill-opacity="1" /><path clip-path="url(#clip600)" d="M201.598 723.585 Q197.987 723.585 196.158 727.15 Q194.352 730.692 194.352 737.821 Q194.352 744.928 196.158 748.493 Q197.987 752.034 201.598 752.034 Q205.232 752.034 207.037 748.493 Q208.866 744.928 208.866 737.821 Q208.866 730.692 207.037 727.15 Q205.232 723.585 201.598 723.585 M201.598 719.882 Q207.408 719.882 210.463 724.488 Q213.542 729.071 213.542 737.821 Q213.542 746.548 210.463 751.155 Q207.408 755.738 201.598 755.738 Q195.787 755.738 192.709 751.155 Q189.653 746.548 189.653 737.821 Q189.653 729.071 192.709 724.488 Q195.787 719.882 201.598 719.882 Z" fill="#000000" fill-rule="evenodd" fill-opacity="1" /><path clip-path="url(#clip600)" d="M127.2 399.898 Q123.589 399.898 121.76 403.462 Q119.955 407.004 119.955 414.134 Q119.955 421.24 121.76 424.805 Q123.589 428.346 127.2 428.346 Q130.834 428.346 132.64 424.805 Q134.468 421.24 134.468 414.134 Q134.468 407.004 132.64 403.462 Q130.834 399.898 127.2 399.898 M127.2 396.194 Q133.01 396.194 136.066 400.8 Q139.144 405.384 139.144 414.134 Q139.144 422.86 136.066 427.467 Q133.01 432.05 127.2 432.05 Q121.39 432.05 118.311 427.467 Q115.256 422.86 115.256 414.134 Q115.256 405.384 118.311 400.8 Q121.39 396.194 127.2 396.194 Z" fill="#000000" fill-rule="evenodd" fill-opacity="1" /><path clip-path="url(#clip600)" d="M147.362 425.499 L152.246 425.499 L152.246 431.379 L147.362 431.379 L147.362 425.499 Z" fill="#000000" fill-rule="evenodd" fill-opacity="1" /><path clip-path="url(#clip600)" d="M161.251 396.819 L183.473 396.819 L183.473 398.81 L170.927 431.379 L166.042 431.379 L177.848 400.754 L161.251 400.754 L161.251 396.819 Z" fill="#000000" fill-rule="evenodd" fill-opacity="1" /><path clip-path="url(#clip600)" d="M192.639 396.819 L210.996 396.819 L210.996 400.754 L196.922 400.754 L196.922 409.226 Q197.94 408.879 198.959 408.717 Q199.977 408.532 200.996 408.532 Q206.783 408.532 210.162 411.703 Q213.542 414.874 213.542 420.291 Q213.542 425.87 210.07 428.971 Q206.598 432.05 200.278 432.05 Q198.102 432.05 195.834 431.68 Q193.588 431.309 191.181 430.569 L191.181 425.87 Q193.264 427.004 195.487 427.559 Q197.709 428.115 200.186 428.115 Q204.19 428.115 206.528 426.009 Q208.866 423.902 208.866 420.291 Q208.866 416.68 206.528 414.573 Q204.19 412.467 200.186 412.467 Q198.311 412.467 196.436 412.884 Q194.584 413.3 192.639 414.18 L192.639 396.819 Z" fill="#000000" fill-rule="evenodd" fill-opacity="1" /><path clip-path="url(#clip600)" d="M117.015 103.756 L124.654 103.756 L124.654 77.3904 L116.343 79.0571 L116.343 74.7978 L124.607 73.1312 L129.283 73.1312 L129.283 103.756 L136.922 103.756 L136.922 107.691 L117.015 107.691 L117.015 103.756 Z" fill="#000000" fill-rule="evenodd" fill-opacity="1" /><path clip-path="url(#clip600)" d="M146.366 101.812 L151.251 101.812 L151.251 107.691 L146.366 107.691 L146.366 101.812 Z" fill="#000000" fill-rule="evenodd" fill-opacity="1" /><path clip-path="url(#clip600)" d="M171.436 76.2099 Q167.825 76.2099 165.996 79.7747 Q164.19 83.3163 164.19 90.4459 Q164.19 97.5524 165.996 101.117 Q167.825 104.659 171.436 104.659 Q175.07 104.659 176.876 101.117 Q178.704 97.5524 178.704 90.4459 Q178.704 83.3163 176.876 79.7747 Q175.07 76.2099 171.436 76.2099 M171.436 72.5062 Q177.246 72.5062 180.301 77.1126 Q183.38 81.696 183.38 90.4459 Q183.38 99.1727 180.301 103.779 Q177.246 108.362 171.436 108.362 Q165.626 108.362 162.547 103.779 Q159.491 99.1727 159.491 90.4459 Q159.491 81.696 162.547 77.1126 Q165.626 72.5062 171.436 72.5062 Z" fill="#000000" fill-rule="evenodd" fill-opacity="1" /><path clip-path="url(#clip600)" d="M201.598 76.2099 Q197.987 76.2099 196.158 79.7747 Q194.352 83.3163 194.352 90.4459 Q194.352 97.5524 196.158 101.117 Q197.987 104.659 201.598 104.659 Q205.232 104.659 207.037 101.117 Q208.866 97.5524 208.866 90.4459 Q208.866 83.3163 207.037 79.7747 Q205.232 76.2099 201.598 76.2099 M201.598 72.5062 Q207.408 72.5062 210.463 77.1126 Q213.542 81.696 213.542 90.4459 Q213.542 99.1727 210.463 103.779 Q207.408 108.362 201.598 108.362 Q195.787 108.362 192.709 103.779 Q189.653 99.1727 189.653 90.4459 Q189.653 81.696 192.709 77.1126 Q195.787 72.5062 201.598 72.5062 Z" fill="#000000" fill-rule="evenodd" fill-opacity="1" /><path clip-path="url(#clip600)" d="M16.4842 896.471 L16.4842 890.042 L58.5933 890.042 L58.5933 866.903 L64.0042 866.903 L64.0042 896.471 L16.4842 896.471 Z" fill="#000000" fill-rule="evenodd" fill-opacity="1" /><path clip-path="url(#clip600)" d="M32.4621 847.742 Q32.4621 852.452 36.1542 855.19 Q39.8145 857.927 46.212 857.927 Q52.6095 857.927 56.3017 855.221 Q59.9619 852.484 59.9619 847.742 Q59.9619 843.063 56.2698 840.326 Q52.5777 837.588 46.212 837.588 Q39.8781 837.588 36.186 840.326 Q32.4621 843.063 32.4621 847.742 M27.4968 847.742 Q27.4968 840.103 32.4621 835.742 Q37.4273 831.382 46.212 831.382 Q54.9649 831.382 59.9619 835.742 Q64.9272 840.103 64.9272 847.742 Q64.9272 855.412 59.9619 859.773 Q54.9649 864.102 46.212 864.102 Q37.4273 864.102 32.4621 859.773 Q27.4968 855.412 27.4968 847.742 Z" fill="#000000" fill-rule="evenodd" fill-opacity="1" /><path clip-path="url(#clip600)" d="M29.7248 796.02 L35.1993 796.02 Q33.8307 798.503 33.1623 801.017 Q32.4621 803.5 32.4621 806.046 Q32.4621 811.744 36.0905 814.895 Q39.6872 818.046 46.212 818.046 Q52.7369 818.046 56.3653 814.895 Q59.9619 811.744 59.9619 806.046 Q59.9619 803.5 59.2935 801.017 Q58.5933 798.503 57.2247 796.02 L62.6355 796.02 Q63.7814 798.471 64.3543 801.113 Q64.9272 803.723 64.9272 806.683 Q64.9272 814.736 59.8664 819.478 Q54.8057 824.22 46.212 824.22 Q37.491 824.22 32.4939 819.446 Q27.4968 814.64 27.4968 806.301 Q27.4968 803.596 28.0697 801.017 Q28.6108 798.439 29.7248 796.02 Z" fill="#000000" fill-rule="evenodd" fill-opacity="1" /><path clip-path="url(#clip600)" d="M46.0847 769.635 Q46.0847 776.732 47.7079 779.47 Q49.3312 782.207 53.2461 782.207 Q56.3653 782.207 58.2114 780.17 Q60.0256 778.101 60.0256 774.568 Q60.0256 769.698 56.5881 766.77 Q53.1188 763.81 47.3897 763.81 L46.0847 763.81 L46.0847 769.635 M43.6657 757.953 L64.0042 757.953 L64.0042 763.81 L58.5933 763.81 Q61.8398 765.815 63.3994 768.807 Q64.9272 771.799 64.9272 776.128 Q64.9272 781.602 61.8716 784.849 Q58.7843 788.063 53.6281 788.063 Q47.6125 788.063 44.5569 784.053 Q41.5014 780.011 41.5014 772.022 L41.5014 763.81 L40.9285 763.81 Q36.8862 763.81 34.6901 766.484 Q32.4621 769.125 32.4621 773.931 Q32.4621 776.987 33.1941 779.883 Q33.9262 782.78 35.3903 785.453 L29.9795 785.453 Q28.7381 782.239 28.1334 779.215 Q27.4968 776.191 27.4968 773.327 Q27.4968 765.592 31.5072 761.773 Q35.5176 757.953 43.6657 757.953 Z" fill="#000000" fill-rule="evenodd" fill-opacity="1" /><path clip-path="url(#clip600)" d="M14.479 745.89 L14.479 740.034 L64.0042 740.034 L64.0042 745.89 L14.479 745.89 Z" fill="#000000" fill-rule="evenodd" fill-opacity="1" /><path clip-path="url(#clip600)" d="M21.7677 700.376 L58.7206 700.376 L58.7206 692.609 Q58.7206 682.774 54.2646 678.223 Q49.8086 673.64 40.1964 673.64 Q30.6479 673.64 26.2237 678.223 Q21.7677 682.774 21.7677 692.609 L21.7677 700.376 M16.4842 706.805 L16.4842 693.596 Q16.4842 679.783 22.2451 673.321 Q27.9743 666.86 40.1964 666.86 Q52.4822 666.86 58.2432 673.353 Q64.0042 679.846 64.0042 693.596 L64.0042 706.805 L16.4842 706.805 Z" fill="#000000" fill-rule="evenodd" fill-opacity="1" /><path clip-path="url(#clip600)" d="M20.8447 637.323 Q20.8447 644.326 26.0645 648.463 Q31.2844 652.569 40.2919 652.569 Q49.2675 652.569 54.4874 648.463 Q59.7073 644.326 59.7073 637.323 Q59.7073 630.321 54.4874 626.247 Q49.2675 622.141 40.2919 622.141 Q31.2844 622.141 26.0645 626.247 Q20.8447 630.321 20.8447 637.323 M15.6248 637.323 Q15.6248 627.329 22.3406 621.345 Q29.0246 615.362 40.2919 615.362 Q51.5274 615.362 58.2432 621.345 Q64.9272 627.329 64.9272 637.323 Q64.9272 647.349 58.2432 653.365 Q51.5592 659.349 40.2919 659.349 Q29.0246 659.349 22.3406 653.365 Q15.6248 647.349 15.6248 637.323 Z" fill="#000000" fill-rule="evenodd" fill-opacity="1" /><path clip-path="url(#clip600)" d="M18.0438 576.817 L24.314 576.817 Q22.5634 580.478 21.704 583.724 Q20.8447 586.971 20.8447 589.994 Q20.8447 595.246 22.8817 598.111 Q24.9187 600.943 28.6745 600.943 Q31.8255 600.943 33.4488 599.065 Q35.0402 597.156 36.0269 591.872 L36.8226 587.989 Q38.1912 580.796 41.6605 577.39 Q45.098 573.953 50.8908 573.953 Q57.7976 573.953 61.3624 578.6 Q64.9272 583.215 64.9272 592.159 Q64.9272 595.532 64.1633 599.352 Q63.3994 603.139 61.9035 607.214 L55.2831 607.214 Q57.4793 603.299 58.5933 599.543 Q59.7073 595.787 59.7073 592.159 Q59.7073 586.652 57.543 583.66 Q55.3786 580.669 51.3682 580.669 Q47.8671 580.669 45.8937 582.833 Q43.9204 584.965 42.9337 589.867 L42.1698 593.782 Q40.7375 600.975 37.682 604.19 Q34.6264 607.404 29.1837 607.404 Q22.8817 607.404 19.2532 602.98 Q15.6248 598.524 15.6248 590.726 Q15.6248 587.384 16.2295 583.915 Q16.8343 580.446 18.0438 576.817 Z" fill="#000000" fill-rule="evenodd" fill-opacity="1" /><polyline clip-path="url(#clip602)" style="stroke:#009af9; stroke-linecap:butt; stroke-linejoin:round; stroke-width:4; stroke-opacity:1; fill:none" points="
  309.067,1195.69 311.053,1257.03 313.039,1277.36 315.025,1277.09 317.012,1258.2 318.998,1207.91 320.984,1093.4 322.97,888.175 324.956,599.237 326.942,674.839 
  328.928,1015.66 330.915,1169.08 332.901,1221.38 334.887,1222.26 336.873,1165.66 338.859,1010.01 340.845,955.231 342.832,1126.69 344.818,1208.25 346.804,1214.61 
  348.79,1156.31 350.776,1029.49 352.762,941.902 354.748,948.005 356.735,847.243 358.721,866.282 360.707,1071.61 362.693,1129.49 364.679,1113.15 366.665,1144.66 
  368.651,1196.45 370.638,1180.86 372.624,1075.28 374.61,869.635 376.596,829.763 378.582,1050.62 380.568,1185.33 382.555,1241.65 384.541,1250.43 386.527,1213.58 
  388.513,1186.99 390.499,1223.43 392.485,1207.81 394.471,1123.04 396.458,1012.01 398.444,1041.22 400.43,1153.75 402.416,1165.44 404.402,1076.04 406.388,822.172 
  408.374,687.837 410.361,879.268 412.347,852.786 414.333,954.362 416.319,1123.55 418.305,1175.8 420.291,1146.2 422.278,1012.1 424.264,911.86 426.25,978.736 
  428.236,843.14 430.222,670.358 432.208,935.232 434.194,1086.18 436.181,1065.97 438.167,985.767 440.153,1050.06 442.139,1141.07 444.125,1197.1 446.111,1190.1 
  448.097,1185.7 450.084,1228.9 452.07,1235.24 454.056,1193.17 456.042,1059.15 458.028,886.223 460.014,919.512 462.001,1012.11 463.987,1154.89 465.973,1222.73 
  467.959,1225.51 469.945,1178.35 471.931,1167.58 473.917,1173.31 475.904,1154.52 477.89,1087.43 479.876,879.083 481.862,806.271 483.848,818.183 485.834,949.496 
  487.82,1138.05 489.807,1209.24 491.793,1215.22 493.779,1159.89 495.765,1022.41 497.751,923.082 499.737,1074.82 501.724,1173.79 503.71,1177.94 505.696,1096.35 
  507.682,858.065 509.668,565.805 511.654,779.413 513.64,1060.12 515.627,1155.04 517.613,1208.37 519.599,1253.76 521.585,1264.3 523.571,1242.15 525.557,1162.26 
  527.543,1042.07 529.53,1132.39 531.516,1221.84 533.502,1241.95 535.488,1217.25 537.474,1151.48 539.46,1079.53 541.447,873.586 543.433,505.544 545.419,573.129 
  547.405,886.529 549.391,1044.33 551.377,1016.9 553.363,984.934 555.35,1097.12 557.336,1158.59 559.322,1132.65 561.308,1043.25 563.294,1077.82 565.28,1056.36 
  567.266,903.54 569.253,995.409 571.239,1129.11 573.225,1160.61 575.211,1202.4 577.197,1193.92 579.183,1107.57 581.17,1052.41 583.156,1152.74 585.142,1217.73 
  587.128,1222.59 589.114,1182.05 591.1,1066.84 593.086,776.696 595.073,398.346 597.059,431.182 599.045,826.052 601.031,1078.75 603.017,1169.78 605.003,1187.61 
  606.989,1136.16 608.976,1019.76 610.962,1076.68 612.948,1143.1 614.934,1110.19 616.92,1152.58 618.906,1209.89 620.893,1210.59 622.879,1162.21 624.865,1049.06 
  626.851,939.182 628.837,738.296 630.823,506.353 632.809,134.03 634.796,281.686 636.782,756.776 638.768,932.004 640.754,1052.12 642.74,1077.46 644.726,977.869 
  646.712,885.554 648.699,1001.05 650.685,974.711 652.671,775.69 654.657,852.532 656.643,1006.13 658.629,1050.73 660.616,1090.46 662.602,1046.75 664.588,1063.99 
  666.574,1079.87 668.56,968.295 670.546,619.117 672.532,112.989 674.519,447.835 676.505,795.534 678.491,954.361 680.477,942.908 682.463,699.751 684.449,492.108 
  686.435,740.943 688.422,831.709 690.408,1008.46 692.394,1128.66 694.38,1138.84 696.366,1180.62 698.352,1247.42 700.339,1276.22 702.325,1284.51 704.311,1279.09 
  706.297,1255.53 708.283,1195.83 710.269,1126.93 712.255,1111.51 714.242,1029 716.228,928.883 718.214,643.54 720.2,336.842 722.186,658.238 724.172,782.442 
  726.158,886.784 728.145,1082.16 730.131,1173.75 732.117,1194.51 734.103,1143.44 736.089,1104.39 738.075,1186.98 740.062,1216.21 742.048,1175.58 744.034,1072 
  746.02,1100.99 748.006,1137.97 749.992,1085.28 751.978,1119.79 753.965,1151.29 755.951,1099.46 757.937,925.532 759.923,510.365 761.909,225.103 763.895,389.678 
  765.881,203.42 767.868,250.874 769.854,795.39 771.84,1055.53 773.826,1156.09 775.812,1184.17 777.798,1151.08 779.785,1051.33 781.771,945.862 783.757,1026.04 
  785.743,1150.82 787.729,1162.37 789.715,1122.9 791.701,1192.61 793.688,1239.59 795.674,1230.79 797.66,1154.6 799.646,996.908 801.632,1055.82 803.618,1183.41 
  805.604,1223.87 807.591,1252.15 809.577,1266.98 811.563,1252.34 813.549,1215.92 815.535,1143.4 817.521,1044.62 819.508,1056.27 821.494,1077.25 823.48,1049.08 
  825.466,996.868 827.452,791.448 829.438,406.143 831.424,623.922 833.411,909.687 835.397,919.463 837.383,916.362 839.369,1056.24 841.355,1197.8 843.341,1260.27 
  845.328,1287.23 847.314,1297.91 849.3,1297.8 851.286,1285.56 853.272,1250.46 855.258,1160.42 857.244,1039.74 859.231,1110.41 861.217,1153.69 863.203,1129.2 
  865.189,1038.14 867.175,993.097 869.161,918.608 871.147,719.019 873.134,680.734 875.12,839.406 877.106,703.301 879.092,665.48 881.078,914.773 883.064,1041.2 
  885.051,1108.31 887.037,1144.8 889.023,1137.86 891.009,1204.66 892.995,1250.58 894.981,1255.04 896.967,1229.03 898.954,1145.42 900.94,1117.11 902.926,1211.05 
  904.912,1247.65 906.898,1233.22 908.884,1159.83 910.87,1033.15 912.857,1008.86 914.843,889.574 916.829,690.41 918.815,546.842 920.801,839.986 922.787,1112.72 
  924.774,1229.49 926.76,1281.86 928.746,1308.64 930.732,1323.59 932.718,1332.18 934.704,1336.79 936.69,1338.38 938.677,1337.11 940.663,1332.29 942.649,1321.87 
  944.635,1300.57 946.621,1253.83 948.607,1140.59 950.593,947.665 952.58,977.808 954.566,1024.98 956.552,1033.54 958.538,1185.7 960.524,1271.81 962.51,1307.1 
  964.497,1321.68 966.483,1325.44 968.469,1319.72 970.455,1298.76 972.441,1241.47 974.427,1123.93 976.413,1147.66 978.4,1251.27 980.386,1287.48 982.372,1281.47 
  984.358,1257.21 986.344,1234.62 988.33,1184.8 990.316,1229.78 992.303,1260.69 994.289,1237.44 996.275,1140.32 998.261,956.593 1000.25,859.491 1002.23,1041.79 
  1004.22,1207.14 1006.21,1282.99 1008.19,1316.43 1010.18,1333.06 1012.16,1342.03 1014.15,1346.93 1016.14,1349.32 1018.12,1349.84 1020.11,1348.68 1022.09,1345.65 
  1024.08,1340.12 1026.07,1330.66 1028.05,1314.12 1030.04,1282.88 1032.03,1216.28 1034.01,1060.88 1036,818.237 1037.98,797.859 1039.97,878.207 1041.96,1041.59 
  1043.94,1199.81 1045.93,1265.34 1047.91,1288.3 1049.9,1285.57 1051.89,1249.91 1053.87,1197.43 1055.86,1195.75 1057.85,1174.55 1059.83,1230.84 1061.82,1253.32 
  1063.8,1229.91 1065.79,1214.36 1067.78,1203.82 1069.76,1238.04 1071.75,1228.4 1073.73,1148.6 1075.72,928.396 1077.71,718.151 1079.69,962.249 1081.68,1140.77 
  1083.67,1230.57 1085.65,1263.99 1087.64,1267.81 1089.62,1247.04 1091.61,1185.81 1093.6,1029.21 1095.58,762.988 1097.57,798 1099.55,988.822 1101.54,1019.7 
  1103.53,869.184 1105.51,630.926 1107.5,848.82 1109.49,985.678 1111.47,1047.97 1113.46,1144.61 1115.44,1166.04 1117.43,1156.61 1119.42,1135.79 1121.4,1130.53 
  1123.39,1208.23 1125.37,1231.8 1127.36,1207.88 1129.35,1180.63 1131.33,1191.56 1133.32,1239.19 1135.31,1241.9 1137.29,1191.38 1139.28,1075.17 1141.26,1013.74 
  1143.25,1173.37 1145.24,1261.14 1147.22,1293.93 1149.21,1304.69 1151.19,1303.79 1153.18,1292.8 1155.17,1267.2 1157.15,1211.64 1159.14,1105.62 1161.13,933.837 
  1163.11,767.661 1165.1,849.936 1167.08,777.76 1169.07,505.306 1171.06,619.691 1173.04,603.395 1175.03,435.78 1177.01,370.257 1179,690.129 1180.99,857.873 
  1182.97,982.842 1184.96,1159.22 1186.95,1245.75 1188.93,1286.89 1190.92,1308.96 1192.9,1321.56 1194.89,1328.48 1196.88,1331.1 1198.86,1329.42 1200.85,1321.84 
  1202.83,1303.61 1204.82,1261.25 1206.81,1155.09 1208.79,929.947 1210.78,933.225 1212.77,1155.49 1214.75,1265.06 1216.74,1311.49 1218.72,1332.67 1220.71,1341.8 
  1222.7,1342.22 1224.68,1342.6 1226.67,1353.16 1228.65,1358.79 1230.64,1359.03 1232.63,1352.62 1234.61,1335.51 1236.6,1337.26 1238.59,1356.33 1240.57,1364.82 
  1242.56,1367.19 1244.54,1365.02 1246.53,1362.96 1248.52,1369.15 1250.5,1373.12 1252.49,1374.81 1254.47,1375.35 1256.46,1375.31 1258.45,1376.28 1260.43,1377.11 
  1262.42,1377.44 1264.41,1377.41 1266.39,1376.92 1268.38,1375.43 1270.36,1371.36 1272.35,1364.97 1274.34,1369.59 1276.32,1375.17 1278.31,1377.51 1280.29,1378.56 
  1282.28,1379.11 1284.27,1379.41 1286.25,1379.54 1288.24,1379.46 1290.23,1379.23 1292.21,1379.56 1294.2,1379.88 1296.18,1380 1298.17,1380.01 1300.16,1379.94 
  1302.14,1379.76 1304.13,1379.4 1306.11,1378.64 1308.1,1376.87 1310.09,1372.51 1312.07,1368.48 1314.06,1373.71 1316.05,1377.32 1318.03,1378.73 1320.02,1379.32 
  1322,1379.57 1323.99,1379.62 1325.98,1379.5 1327.96,1379.12 1329.95,1378.74 1331.93,1378.98 1333.92,1378.99 1335.91,1378.7 1337.89,1378.12 1339.88,1376.98 
  1341.87,1374.49 1343.85,1368.6 1345.84,1362.77 1347.82,1369.16 1349.81,1373.38 1351.8,1374.14 1353.78,1372.47 1355.77,1368.99 1357.75,1370.36 1359.74,1371.57 
  1361.73,1369.59 1363.71,1362.85 1365.7,1347.64 1367.69,1346.69 1369.67,1361.35 1371.66,1367.71 1373.64,1369.56 1375.63,1369.28 1377.62,1367.4 1379.6,1365.05 
  1381.59,1363.03 1383.57,1358.34 1385.56,1347.32 1387.55,1321.02 1389.53,1275.25 1391.52,1270.18 1393.5,1294.7 1395.49,1328.42 1397.48,1344.09 1399.46,1349.17 
  1401.45,1349.59 1403.44,1347.32 1405.42,1342.83 1407.41,1335.84 1409.39,1325.43 1411.38,1309.65 1413.37,1284.35 1415.35,1239.81 1417.34,1150.47 1419.32,969.575 
  1421.31,788.769 1423.3,525.789 1425.28,86.1857 1427.27,167.089 1429.26,361.066 1431.24,506.373 1433.23,527.576 1435.21,793.171 1437.2,922.936 1439.19,962.102 
  1441.17,1096.88 1443.16,1211.83 1445.14,1262.15 1447.13,1295.37 1449.12,1315.6 1451.1,1326.39 1453.09,1331.67 1455.08,1332.49 1457.06,1327.33 1459.05,1309.93 
  1461.03,1277.9 1463.02,1281.46 1465.01,1286.92 1466.99,1267 1468.98,1201.49 1470.96,1138.62 1472.95,1128.62 1474.94,1189.32 1476.92,1247.38 1478.91,1243.51 
  1480.9,1215.75 1482.88,1238.64 1484.87,1233.33 1486.85,1170.47 1488.84,998.256 1490.83,773.117 1492.81,874.573 1494.8,843.98 1496.78,696.258 1498.77,798.016 
  1500.76,922.285 1502.74,771.778 1504.73,433.195 1506.72,485.158 1508.7,873.219 1510.69,1105.57 1512.67,1221.1 1514.66,1274.95 1516.65,1301.57 1518.63,1313.18 
  1520.62,1310.79 1522.6,1284.75 1524.59,1242.5 1526.58,1282.83 1528.56,1326.83 1530.55,1345.48 1532.54,1353.13 1534.52,1355.11 1536.51,1357.32 1538.49,1359.07 
  1540.48,1362.23 1542.47,1362.37 1544.45,1359.18 1546.44,1362.57 1548.42,1364.83 1550.41,1369.15 1552.4,1372.28 1554.38,1373.51 1556.37,1373.53 1558.36,1372 
  1560.34,1367.37 1562.33,1362.5 1564.31,1359.93 1566.3,1359.78 1568.29,1368.24 1570.27,1374.08 1572.26,1376.68 1574.24,1377.97 1576.23,1378.72 1578.22,1379.21 
  1580.2,1379.54 1582.19,1379.77 1584.18,1379.92 1586.16,1380 1588.15,1379.99 1590.13,1379.87 1592.12,1379.58 1594.11,1378.96 1596.09,1377.62 1598.08,1374.49 
  1600.06,1367.39 1602.05,1359.75 1604.04,1364.41 1606.02,1372.1 1608.01,1376.17 1610,1377.27 1611.98,1376.15 1613.97,1374.44 1615.95,1376.35 1617.94,1377.14 
  1619.93,1378.22 1621.91,1378.62 1623.9,1377.32 1625.88,1373.43 1627.87,1372.62 1629.86,1377.12 1631.84,1379.34 1633.83,1380.19 1635.82,1380.49 1637.8,1380.47 
  1639.79,1380.13 1641.77,1379.22 1643.76,1376.98 1645.75,1373.27 1647.73,1373.39 1649.72,1372.45 1651.7,1371.8 1653.69,1376.22 1655.68,1378.79 1657.66,1379.81 
  1659.65,1380.23 1661.64,1380.39 1663.62,1380.41 1665.61,1380.33 1667.59,1380.17 1669.58,1379.94 1671.57,1379.61 1673.55,1379.13 1675.54,1378.41 1677.52,1377.18 
  1679.51,1374.73 1681.5,1369.51 1683.48,1364.35 1685.47,1365.28 1687.46,1368.05 1689.44,1369.25 1691.43,1369.25 1693.41,1370.77 1695.4,1371.19 1697.39,1370.01 
  1699.37,1367.11 1701.36,1362.18 1703.34,1360.52 1705.33,1359.3 1707.32,1354.93 1709.3,1347.41 1711.29,1336.07 1713.28,1317.34 1715.26,1286.87 1717.25,1228.44 
  1719.23,1090.5 1721.22,785.246 1723.21,666.231 1725.19,832.578 1727.18,1006.7 1729.16,1046.77 1731.15,939.316 1733.14,830.128 1735.12,1020.35 1737.11,1195.96 
  1739.1,1265.84 1741.08,1286.47 1743.07,1269.48 1745.05,1253.48 1747.04,1300.53 1749.03,1335.01 1751.01,1350.32 1753,1357.84 1754.98,1361.81 1756.97,1363.63 
  1758.96,1363.58 1760.94,1360.9 1762.93,1353.13 1764.92,1342.46 1766.9,1335.79 1768.89,1309.49 1770.87,1247.06 1772.86,1222.38 1774.85,1296.11 1776.83,1331.62 
  1778.82,1341.67 1780.8,1353.29 1782.79,1359.01 1784.78,1365.18 1786.76,1370.83 1788.75,1373.32 1790.73,1374.72 1792.72,1375.51 1794.71,1374.48 1796.69,1373.21 
  1798.68,1374 1800.67,1371.6 1802.65,1371.09 1804.64,1375.81 1806.62,1378.18 1808.61,1379 1810.6,1378.99 1812.58,1378.42 1814.57,1377.43 1816.55,1374.32 
  1818.54,1366.68 1820.53,1364.32 1822.51,1372.12 1824.5,1376.17 1826.49,1377.32 1828.47,1376.96 1830.46,1375.12 1832.44,1370.59 1834.43,1361.01 1836.42,1352.49 
  1838.4,1335.58 1840.39,1306.99 1842.37,1324.48 1844.36,1354.89 1846.35,1368.25 1848.33,1373.48 1850.32,1374.86 1852.31,1375.36 1854.29,1377.47 1856.28,1377.73 
  1858.26,1377.6 1860.25,1379.4 1862.24,1380.14 1864.22,1379.56 1866.21,1377.64 1868.19,1378.22 1870.18,1379.87 1872.17,1379.85 1874.15,1378.29 1876.14,1375.62 
  1878.13,1374.31 1880.11,1374.74 1882.1,1372.28 1884.08,1373.25 1886.07,1375.59 1888.06,1376.97 1890.04,1379.45 1892.03,1380.66 1894.01,1381.6 1896,1382.15 
  1897.99,1382.37 1899.97,1382.36 1901.96,1382.12 1903.95,1381.51 1905.93,1380.17 1907.92,1379.09 1909.9,1378.42 1911.89,1375.25 1913.88,1368.42 1915.86,1362.72 
  1917.85,1354.43 1919.83,1362.37 1921.82,1372.55 1923.81,1375.7 1925.79,1375.36 1927.78,1371.76 1929.77,1368.45 1931.75,1374.44 1933.74,1378.69 1935.72,1379.98 
  1937.71,1379.71 1939.7,1379.79 1941.68,1380.23 1943.67,1379.61 1945.65,1377.76 1947.64,1375.05 1949.63,1374.07 1951.61,1376.74 1953.6,1377.27 1955.59,1374.88 
  1957.57,1376.46 1959.56,1379.61 1961.54,1380.59 1963.53,1380.18 1965.52,1378.28 1967.5,1376.08 1969.49,1374.27 1971.47,1377.54 1973.46,1379.58 1975.45,1380.4 
  1977.43,1381.78 1979.42,1382.51 1981.41,1382.63 1983.39,1382.32 1985.38,1381.63 1987.36,1380.96 1989.35,1381.03 1991.34,1379.64 1993.32,1377.96 1995.31,1379.87 
  1997.29,1380.79 1999.28,1380.2 2001.27,1377.78 2003.25,1371.41 2005.24,1362.51 2007.23,1362.65 2009.21,1371.2 2011.2,1377.84 2013.18,1380.55 2015.17,1381.61 
  2017.16,1381.77 2019.14,1380.93 2021.13,1379.48 2023.11,1380.12 2025.1,1381.59 2027.09,1381.89 2029.07,1381.47 2031.06,1381.46 2033.05,1380.46 2035.03,1379.6 
  2037.02,1381.19 2039,1381.45 2040.99,1380.9 2042.98,1382.01 2044.96,1382.66 2046.95,1382.41 2048.93,1381.69 2050.92,1382.05 2052.91,1381.89 2054.89,1380.45 
  2056.88,1378.69 2058.87,1378.71 2060.85,1381.15 2062.84,1382.18 2064.82,1382.47 2066.81,1383.08 2068.8,1383.28 2070.78,1382.98 2072.77,1381.9 2074.75,1380.82 
  2076.74,1382.18 2078.73,1383.06 2080.71,1383.27 2082.7,1383.07 2084.69,1382.41 2086.67,1381.5 2088.66,1379.68 2090.64,1374.94 2092.63,1370.85 2094.62,1376.08 
  2096.6,1380.32 2098.59,1381.96 2100.57,1382.33 2102.56,1381.66 2104.55,1380.52 2106.53,1381.67 2108.52,1382.84 2110.51,1383.27 2112.49,1383.21 2114.48,1382.6 
  2116.46,1381.01 2118.45,1380.16 2120.44,1380.22 2122.42,1380.99 2124.41,1382.36 2126.39,1382.85 2128.38,1383.07 2130.37,1382.78 2132.35,1382.9 2134.34,1383.32 
  2136.33,1383.23 2138.31,1382.83 2140.3,1381.95 2142.28,1380.34 2144.27,1378.95 2146.26,1380.95 2148.24,1382.68 2150.23,1383.36 2152.21,1383.47 2154.2,1383.21 
  2156.19,1383.17 2158.17,1383.08 2160.16,1382.35 2162.15,1381.29 2164.13,1380.37 2166.12,1381.14 2168.1,1381.19 2170.09,1379.03 2172.08,1375.35 2174.06,1377.76 
  2176.05,1379.77 2178.03,1379.05 2180.02,1380.43 2182.01,1382.31 2183.99,1382.99 2185.98,1382.93 2187.97,1382.12 2189.95,1381.72 2191.94,1382.05 2193.92,1381.26 
  2195.91,1381.94 2197.9,1383.13 2199.88,1383.51 2201.87,1383.31 2203.85,1382.53 2205.84,1382.19 2207.83,1383.04 2209.81,1383.57 2211.8,1383.52 2213.78,1383.15 
  2215.77,1383.44 2217.76,1383.73 2219.74,1383.78 2221.73,1383.46 2223.72,1382.54 2225.7,1381.15 2227.69,1380.73 2229.67,1382.34 2231.66,1383.28 2233.65,1383.43 
  2235.63,1383 2237.62,1382.64 2239.6,1382.84 2241.59,1382.22 2243.58,1380.49 2245.56,1380.47 2247.55,1381.12 2249.54,1381.35 2251.52,1381.81 2253.51,1382.99 
  2255.49,1383.47 2257.48,1383.37 2259.47,1382.57 2261.45,1381 2263.44,1381.54 2265.42,1383.08 2267.41,1383.69 2269.4,1383.84 2271.38,1383.65 2273.37,1382.95 
  2275.36,1381.35 2277.34,1381.04 2279.33,1382.4 2281.31,1383.33 2283.3,1383.91 2285.29,1384.16 2287.27,1384.24 2289.26,1384.21 2291.24,1384.05 2293.23,1383.61 
  
  "/>
<path clip-path="url(#clip600)" d="
M1996.53 196.789 L2282.65 196.789 L2282.65 93.1086 L1996.53 93.1086  Z
  " fill="#ffffff" fill-rule="evenodd" fill-opacity="1"/>
<polyline clip-path="url(#clip600)" style="stroke:#000000; stroke-linecap:butt; stroke-linejoin:round; stroke-width:4; stroke-opacity:1; fill:none" points="
  1996.53,196.789 2282.65,196.789 2282.65,93.1086 1996.53,93.1086 1996.53,196.789 
  "/>
<polyline clip-path="url(#clip600)" style="stroke:#009af9; stroke-linecap:butt; stroke-linejoin:round; stroke-width:4; stroke-opacity:1; fill:none" points="
  2019.9,144.949 2160.11,144.949 
  "/>
<path clip-path="url(#clip600)" d="M2197.32 164.636 Q2195.52 169.266 2193.8 170.678 Q2192.09 172.09 2189.22 172.09 L2185.82 172.09 L2185.82 168.525 L2188.32 168.525 Q2190.08 168.525 2191.05 167.692 Q2192.02 166.858 2193.2 163.756 L2193.97 161.812 L2183.48 136.303 L2187.99 136.303 L2196.1 156.581 L2204.2 136.303 L2208.71 136.303 L2197.32 164.636 Z" fill="#000000" fill-rule="evenodd" fill-opacity="1" /><path clip-path="url(#clip600)" d="M2216 158.293 L2223.64 158.293 L2223.64 131.928 L2215.33 133.595 L2215.33 129.335 L2223.6 127.669 L2228.27 127.669 L2228.27 158.293 L2235.91 158.293 L2235.91 162.229 L2216 162.229 L2216 158.293 Z" fill="#000000" fill-rule="evenodd" fill-opacity="1" /></svg>
