<?xml version="1.0" encoding="utf-8"?>
<svg xmlns="http://www.w3.org/2000/svg" xmlns:xlink="http://www.w3.org/1999/xlink" width="600" height="400" viewBox="0 0 2400 1600">
<defs>
  <clipPath id="clip440">
    <rect x="0" y="0" width="2400" height="1600"/>
  </clipPath>
</defs>
<path clip-path="url(#clip440)" d="
M0 1600 L2400 1600 L2400 0 L0 0  Z
  " fill="#ffffff" fill-rule="evenodd" fill-opacity="1"/>
<defs>
  <clipPath id="clip441">
    <rect x="480" y="0" width="1681" height="1600"/>
  </clipPath>
</defs>
<path clip-path="url(#clip440)" d="
M249.542 1423.18 L2352.76 1423.18 L2352.76 47.2441 L249.542 47.2441  Z
  " fill="#ffffff" fill-rule="evenodd" fill-opacity="1"/>
<defs>
  <clipPath id="clip442">
    <rect x="249" y="47" width="2104" height="1377"/>
  </clipPath>
</defs>
<polyline clip-path="url(#clip442)" style="stroke:#000000; stroke-linecap:butt; stroke-linejoin:round; stroke-width:2; stroke-opacity:0.1; fill:none" points="
  309.067,1423.18 309.067,47.2441 
  "/>
<polyline clip-path="url(#clip442)" style="stroke:#000000; stroke-linecap:butt; stroke-linejoin:round; stroke-width:2; stroke-opacity:0.1; fill:none" points="
  805.108,1423.18 805.108,47.2441 
  "/>
<polyline clip-path="url(#clip442)" style="stroke:#000000; stroke-linecap:butt; stroke-linejoin:round; stroke-width:2; stroke-opacity:0.1; fill:none" points="
  1301.15,1423.18 1301.15,47.2441 
  "/>
<polyline clip-path="url(#clip442)" style="stroke:#000000; stroke-linecap:butt; stroke-linejoin:round; stroke-width:2; stroke-opacity:0.1; fill:none" points="
  1797.19,1423.18 1797.19,47.2441 
  "/>
<polyline clip-path="url(#clip442)" style="stroke:#000000; stroke-linecap:butt; stroke-linejoin:round; stroke-width:2; stroke-opacity:0.1; fill:none" points="
  2293.23,1423.18 2293.23,47.2441 
  "/>
<polyline clip-path="url(#clip440)" style="stroke:#000000; stroke-linecap:butt; stroke-linejoin:round; stroke-width:4; stroke-opacity:1; fill:none" points="
  249.542,1423.18 2352.76,1423.18 
  "/>
<polyline clip-path="url(#clip440)" style="stroke:#000000; stroke-linecap:butt; stroke-linejoin:round; stroke-width:4; stroke-opacity:1; fill:none" points="
  309.067,1423.18 309.067,1404.28 
  "/>
<polyline clip-path="url(#clip440)" style="stroke:#000000; stroke-linecap:butt; stroke-linejoin:round; stroke-width:4; stroke-opacity:1; fill:none" points="
  805.108,1423.18 805.108,1404.28 
  "/>
<polyline clip-path="url(#clip440)" style="stroke:#000000; stroke-linecap:butt; stroke-linejoin:round; stroke-width:4; stroke-opacity:1; fill:none" points="
  1301.15,1423.18 1301.15,1404.28 
  "/>
<polyline clip-path="url(#clip440)" style="stroke:#000000; stroke-linecap:butt; stroke-linejoin:round; stroke-width:4; stroke-opacity:1; fill:none" points="
  1797.19,1423.18 1797.19,1404.28 
  "/>
<polyline clip-path="url(#clip440)" style="stroke:#000000; stroke-linecap:butt; stroke-linejoin:round; stroke-width:4; stroke-opacity:1; fill:none" points="
  2293.23,1423.18 2293.23,1404.28 
  "/>
<path clip-path="url(#clip440)" d="M277.968 1468.75 L307.643 1468.75 L307.643 1472.69 L277.968 1472.69 L277.968 1468.75 Z" fill="#000000" fill-rule="evenodd" fill-opacity="1" /><path clip-path="url(#clip440)" d="M330.583 1455.09 L318.778 1473.54 L330.583 1473.54 L330.583 1455.09 M329.356 1451.02 L335.236 1451.02 L335.236 1473.54 L340.166 1473.54 L340.166 1477.43 L335.236 1477.43 L335.236 1485.58 L330.583 1485.58 L330.583 1477.43 L314.981 1477.43 L314.981 1472.92 L329.356 1451.02 Z" fill="#000000" fill-rule="evenodd" fill-opacity="1" /><path clip-path="url(#clip440)" d="M775.05 1468.75 L804.726 1468.75 L804.726 1472.69 L775.05 1472.69 L775.05 1468.75 Z" fill="#000000" fill-rule="evenodd" fill-opacity="1" /><path clip-path="url(#clip440)" d="M818.846 1481.64 L835.166 1481.64 L835.166 1485.58 L813.221 1485.58 L813.221 1481.64 Q815.883 1478.89 820.467 1474.26 Q825.073 1469.61 826.254 1468.27 Q828.499 1465.74 829.379 1464.01 Q830.281 1462.25 830.281 1460.56 Q830.281 1457.8 828.337 1456.07 Q826.416 1454.33 823.314 1454.33 Q821.115 1454.33 818.661 1455.09 Q816.231 1455.86 813.453 1457.41 L813.453 1452.69 Q816.277 1451.55 818.731 1450.97 Q821.184 1450.39 823.221 1450.39 Q828.592 1450.39 831.786 1453.08 Q834.98 1455.77 834.98 1460.26 Q834.98 1462.39 834.17 1464.31 Q833.383 1466.2 831.277 1468.8 Q830.698 1469.47 827.596 1472.69 Q824.494 1475.88 818.846 1481.64 Z" fill="#000000" fill-rule="evenodd" fill-opacity="1" /><path clip-path="url(#clip440)" d="M1301.15 1454.1 Q1297.54 1454.1 1295.71 1457.66 Q1293.9 1461.2 1293.9 1468.33 Q1293.9 1475.44 1295.71 1479.01 Q1297.54 1482.55 1301.15 1482.55 Q1304.78 1482.55 1306.59 1479.01 Q1308.42 1475.44 1308.42 1468.33 Q1308.42 1461.2 1306.59 1457.66 Q1304.78 1454.1 1301.15 1454.1 M1301.15 1450.39 Q1306.96 1450.39 1310.01 1455 Q1313.09 1459.58 1313.09 1468.33 Q1313.09 1477.06 1310.01 1481.67 Q1306.96 1486.25 1301.15 1486.25 Q1295.34 1486.25 1292.26 1481.67 Q1289.2 1477.06 1289.2 1468.33 Q1289.2 1459.58 1292.26 1455 Q1295.34 1450.39 1301.15 1450.39 Z" fill="#000000" fill-rule="evenodd" fill-opacity="1" /><path clip-path="url(#clip440)" d="M1791.84 1481.64 L1808.16 1481.64 L1808.16 1485.58 L1786.22 1485.58 L1786.22 1481.64 Q1788.88 1478.89 1793.46 1474.26 Q1798.07 1469.61 1799.25 1468.27 Q1801.5 1465.74 1802.38 1464.01 Q1803.28 1462.25 1803.28 1460.56 Q1803.28 1457.8 1801.33 1456.07 Q1799.41 1454.33 1796.31 1454.33 Q1794.11 1454.33 1791.66 1455.09 Q1789.23 1455.86 1786.45 1457.41 L1786.45 1452.69 Q1789.27 1451.55 1791.73 1450.97 Q1794.18 1450.39 1796.22 1450.39 Q1801.59 1450.39 1804.78 1453.08 Q1807.98 1455.77 1807.98 1460.26 Q1807.98 1462.39 1807.17 1464.31 Q1806.38 1466.2 1804.27 1468.8 Q1803.69 1469.47 1800.59 1472.69 Q1797.49 1475.88 1791.84 1481.64 Z" fill="#000000" fill-rule="evenodd" fill-opacity="1" /><path clip-path="url(#clip440)" d="M2296.24 1455.09 L2284.43 1473.54 L2296.24 1473.54 L2296.24 1455.09 M2295.01 1451.02 L2300.89 1451.02 L2300.89 1473.54 L2305.82 1473.54 L2305.82 1477.43 L2300.89 1477.43 L2300.89 1485.58 L2296.24 1485.58 L2296.24 1477.43 L2280.64 1477.43 L2280.64 1472.92 L2295.01 1451.02 Z" fill="#000000" fill-rule="evenodd" fill-opacity="1" /><path clip-path="url(#clip440)" d="M1144.47 1520.52 L1174.52 1520.52 L1174.52 1525.93 L1150.9 1525.93 L1150.9 1540 L1173.53 1540 L1173.53 1545.41 L1150.9 1545.41 L1150.9 1562.63 L1175.09 1562.63 L1175.09 1568.04 L1144.47 1568.04 L1144.47 1520.52 Z" fill="#000000" fill-rule="evenodd" fill-opacity="1" /><path clip-path="url(#clip440)" d="M1215.04 1546.53 L1215.04 1568.04 L1209.18 1568.04 L1209.18 1546.72 Q1209.18 1541.66 1207.21 1539.14 Q1205.23 1536.63 1201.29 1536.63 Q1196.54 1536.63 1193.81 1539.65 Q1191.07 1542.68 1191.07 1547.9 L1191.07 1568.04 L1185.18 1568.04 L1185.18 1532.4 L1191.07 1532.4 L1191.07 1537.93 Q1193.17 1534.72 1196 1533.13 Q1198.87 1531.54 1202.59 1531.54 Q1208.73 1531.54 1211.89 1535.36 Q1215.04 1539.14 1215.04 1546.53 Z" fill="#000000" fill-rule="evenodd" fill-opacity="1" /><path clip-path="url(#clip440)" d="M1257.21 1548.76 L1257.21 1551.62 L1230.28 1551.62 Q1230.66 1557.67 1233.91 1560.85 Q1237.19 1564 1243.01 1564 Q1246.39 1564 1249.54 1563.17 Q1252.72 1562.35 1255.84 1560.69 L1255.84 1566.23 Q1252.69 1567.57 1249.38 1568.27 Q1246.07 1568.97 1242.66 1568.97 Q1234.13 1568.97 1229.14 1564 Q1224.17 1559.04 1224.17 1550.57 Q1224.17 1541.82 1228.88 1536.69 Q1233.62 1531.54 1241.65 1531.54 Q1248.84 1531.54 1253.01 1536.18 Q1257.21 1540.8 1257.21 1548.76 M1251.35 1547.04 Q1251.29 1542.23 1248.65 1539.37 Q1246.04 1536.5 1241.71 1536.5 Q1236.81 1536.5 1233.85 1539.27 Q1230.92 1542.04 1230.47 1547.07 L1251.35 1547.04 Z" fill="#000000" fill-rule="evenodd" fill-opacity="1" /><path clip-path="url(#clip440)" d="M1287.48 1537.87 Q1286.49 1537.3 1285.31 1537.04 Q1284.17 1536.76 1282.77 1536.76 Q1277.8 1536.76 1275.13 1540 Q1272.49 1543.22 1272.49 1549.27 L1272.49 1568.04 L1266.6 1568.04 L1266.6 1532.4 L1272.49 1532.4 L1272.49 1537.93 Q1274.33 1534.69 1277.29 1533.13 Q1280.25 1531.54 1284.49 1531.54 Q1285.09 1531.54 1285.82 1531.63 Q1286.56 1531.7 1287.45 1531.85 L1287.48 1537.87 Z" fill="#000000" fill-rule="evenodd" fill-opacity="1" /><path clip-path="url(#clip440)" d="M1315.93 1549.81 Q1315.93 1543.44 1313.29 1539.94 Q1310.68 1536.44 1305.94 1536.44 Q1301.23 1536.44 1298.59 1539.94 Q1295.98 1543.44 1295.98 1549.81 Q1295.98 1556.14 1298.59 1559.64 Q1301.23 1563.14 1305.94 1563.14 Q1310.68 1563.14 1313.29 1559.64 Q1315.93 1556.14 1315.93 1549.81 M1321.79 1563.62 Q1321.79 1572.72 1317.75 1577.15 Q1313.71 1581.6 1305.37 1581.6 Q1302.28 1581.6 1299.54 1581.13 Q1296.8 1580.68 1294.23 1579.72 L1294.23 1574.03 Q1296.8 1575.43 1299.32 1576.1 Q1301.83 1576.76 1304.44 1576.76 Q1310.2 1576.76 1313.07 1573.74 Q1315.93 1570.75 1315.93 1564.67 L1315.93 1561.77 Q1314.12 1564.92 1311.29 1566.48 Q1308.45 1568.04 1304.51 1568.04 Q1297.95 1568.04 1293.94 1563.05 Q1289.93 1558.05 1289.93 1549.81 Q1289.93 1541.53 1293.94 1536.53 Q1297.95 1531.54 1304.51 1531.54 Q1308.45 1531.54 1311.29 1533.1 Q1314.12 1534.66 1315.93 1537.81 L1315.93 1532.4 L1321.79 1532.4 L1321.79 1563.62 Z" fill="#000000" fill-rule="evenodd" fill-opacity="1" /><path clip-path="url(#clip440)" d="M1348.68 1571.35 Q1346.2 1577.72 1343.85 1579.66 Q1341.49 1581.6 1337.54 1581.6 L1332.87 1581.6 L1332.87 1576.7 L1336.3 1576.7 Q1338.72 1576.7 1340.06 1575.56 Q1341.4 1574.41 1343.02 1570.14 L1344.07 1567.47 L1329.65 1532.4 L1335.86 1532.4 L1347 1560.28 L1358.14 1532.4 L1364.34 1532.4 L1348.68 1571.35 Z" fill="#000000" fill-rule="evenodd" fill-opacity="1" /><path clip-path="url(#clip440)" d="M1392.61 1518.52 L1406.1 1518.52 L1406.1 1523.07 L1398.46 1523.07 L1398.46 1572.09 L1406.1 1572.09 L1406.1 1576.64 L1392.61 1576.64 L1392.61 1518.52 Z" fill="#000000" fill-rule="evenodd" fill-opacity="1" /><path clip-path="url(#clip440)" d="M1424.37 1522.27 L1424.37 1532.4 L1436.44 1532.4 L1436.44 1536.95 L1424.37 1536.95 L1424.37 1556.3 Q1424.37 1560.66 1425.55 1561.9 Q1426.76 1563.14 1430.42 1563.14 L1436.44 1563.14 L1436.44 1568.04 L1430.42 1568.04 Q1423.64 1568.04 1421.06 1565.53 Q1418.48 1562.98 1418.48 1556.3 L1418.48 1536.95 L1414.19 1536.95 L1414.19 1532.4 L1418.48 1532.4 L1418.48 1522.27 L1424.37 1522.27 Z" fill="#000000" fill-rule="evenodd" fill-opacity="1" /><path clip-path="url(#clip440)" d="M1457.82 1518.52 L1457.82 1576.64 L1444.33 1576.64 L1444.33 1572.09 L1451.94 1572.09 L1451.94 1523.07 L1444.33 1523.07 L1444.33 1518.52 L1457.82 1518.52 Z" fill="#000000" fill-rule="evenodd" fill-opacity="1" /><polyline clip-path="url(#clip442)" style="stroke:#000000; stroke-linecap:butt; stroke-linejoin:round; stroke-width:2; stroke-opacity:0.1; fill:none" points="
  249.542,1385.16 2352.76,1385.16 
  "/>
<polyline clip-path="url(#clip442)" style="stroke:#000000; stroke-linecap:butt; stroke-linejoin:round; stroke-width:2; stroke-opacity:0.1; fill:none" points="
  249.542,1061.53 2352.76,1061.53 
  "/>
<polyline clip-path="url(#clip442)" style="stroke:#000000; stroke-linecap:butt; stroke-linejoin:round; stroke-width:2; stroke-opacity:0.1; fill:none" points="
  249.542,737.901 2352.76,737.901 
  "/>
<polyline clip-path="url(#clip442)" style="stroke:#000000; stroke-linecap:butt; stroke-linejoin:round; stroke-width:2; stroke-opacity:0.1; fill:none" points="
  249.542,414.269 2352.76,414.269 
  "/>
<polyline clip-path="url(#clip442)" style="stroke:#000000; stroke-linecap:butt; stroke-linejoin:round; stroke-width:2; stroke-opacity:0.1; fill:none" points="
  249.542,90.6372 2352.76,90.6372 
  "/>
<polyline clip-path="url(#clip440)" style="stroke:#000000; stroke-linecap:butt; stroke-linejoin:round; stroke-width:4; stroke-opacity:1; fill:none" points="
  249.542,1423.18 249.542,47.2441 
  "/>
<polyline clip-path="url(#clip440)" style="stroke:#000000; stroke-linecap:butt; stroke-linejoin:round; stroke-width:4; stroke-opacity:1; fill:none" points="
  249.542,1385.16 268.44,1385.16 
  "/>
<polyline clip-path="url(#clip440)" style="stroke:#000000; stroke-linecap:butt; stroke-linejoin:round; stroke-width:4; stroke-opacity:1; fill:none" points="
  249.542,1061.53 268.44,1061.53 
  "/>
<polyline clip-path="url(#clip440)" style="stroke:#000000; stroke-linecap:butt; stroke-linejoin:round; stroke-width:4; stroke-opacity:1; fill:none" points="
  249.542,737.901 268.44,737.901 
  "/>
<polyline clip-path="url(#clip440)" style="stroke:#000000; stroke-linecap:butt; stroke-linejoin:round; stroke-width:4; stroke-opacity:1; fill:none" points="
  249.542,414.269 268.44,414.269 
  "/>
<polyline clip-path="url(#clip440)" style="stroke:#000000; stroke-linecap:butt; stroke-linejoin:round; stroke-width:4; stroke-opacity:1; fill:none" points="
  249.542,90.6372 268.44,90.6372 
  "/>
<path clip-path="url(#clip440)" d="M126.205 1370.96 Q122.593 1370.96 120.765 1374.53 Q118.959 1378.07 118.959 1385.2 Q118.959 1392.31 120.765 1395.87 Q122.593 1399.41 126.205 1399.41 Q129.839 1399.41 131.644 1395.87 Q133.473 1392.31 133.473 1385.2 Q133.473 1378.07 131.644 1374.53 Q129.839 1370.96 126.205 1370.96 M126.205 1367.26 Q132.015 1367.26 135.07 1371.87 Q138.149 1376.45 138.149 1385.2 Q138.149 1393.93 135.07 1398.53 Q132.015 1403.12 126.205 1403.12 Q120.394 1403.12 117.316 1398.53 Q114.26 1393.93 114.26 1385.2 Q114.26 1376.45 117.316 1371.87 Q120.394 1367.26 126.205 1367.26 Z" fill="#000000" fill-rule="evenodd" fill-opacity="1" /><path clip-path="url(#clip440)" d="M146.366 1396.56 L151.251 1396.56 L151.251 1402.44 L146.366 1402.44 L146.366 1396.56 Z" fill="#000000" fill-rule="evenodd" fill-opacity="1" /><path clip-path="url(#clip440)" d="M171.436 1370.96 Q167.825 1370.96 165.996 1374.53 Q164.19 1378.07 164.19 1385.2 Q164.19 1392.31 165.996 1395.87 Q167.825 1399.41 171.436 1399.41 Q175.07 1399.41 176.876 1395.87 Q178.704 1392.31 178.704 1385.2 Q178.704 1378.07 176.876 1374.53 Q175.07 1370.96 171.436 1370.96 M171.436 1367.26 Q177.246 1367.26 180.301 1371.87 Q183.38 1376.45 183.38 1385.2 Q183.38 1393.93 180.301 1398.53 Q177.246 1403.12 171.436 1403.12 Q165.626 1403.12 162.547 1398.53 Q159.491 1393.93 159.491 1385.2 Q159.491 1376.45 162.547 1371.87 Q165.626 1367.26 171.436 1367.26 Z" fill="#000000" fill-rule="evenodd" fill-opacity="1" /><path clip-path="url(#clip440)" d="M201.598 1370.96 Q197.987 1370.96 196.158 1374.53 Q194.352 1378.07 194.352 1385.2 Q194.352 1392.31 196.158 1395.87 Q197.987 1399.41 201.598 1399.41 Q205.232 1399.41 207.037 1395.87 Q208.866 1392.31 208.866 1385.2 Q208.866 1378.07 207.037 1374.53 Q205.232 1370.96 201.598 1370.96 M201.598 1367.26 Q207.408 1367.26 210.463 1371.87 Q213.542 1376.45 213.542 1385.2 Q213.542 1393.93 210.463 1398.53 Q207.408 1403.12 201.598 1403.12 Q195.787 1403.12 192.709 1398.53 Q189.653 1393.93 189.653 1385.2 Q189.653 1376.45 192.709 1371.87 Q195.787 1367.26 201.598 1367.26 Z" fill="#000000" fill-rule="evenodd" fill-opacity="1" /><path clip-path="url(#clip440)" d="M127.2 1047.33 Q123.589 1047.33 121.76 1050.9 Q119.955 1054.44 119.955 1061.57 Q119.955 1068.67 121.76 1072.24 Q123.589 1075.78 127.2 1075.78 Q130.834 1075.78 132.64 1072.24 Q134.468 1068.67 134.468 1061.57 Q134.468 1054.44 132.64 1050.9 Q130.834 1047.33 127.2 1047.33 M127.2 1043.63 Q133.01 1043.63 136.066 1048.23 Q139.144 1052.82 139.144 1061.57 Q139.144 1070.29 136.066 1074.9 Q133.01 1079.48 127.2 1079.48 Q121.39 1079.48 118.311 1074.9 Q115.256 1070.29 115.256 1061.57 Q115.256 1052.82 118.311 1048.23 Q121.39 1043.63 127.2 1043.63 Z" fill="#000000" fill-rule="evenodd" fill-opacity="1" /><path clip-path="url(#clip440)" d="M147.362 1072.93 L152.246 1072.93 L152.246 1078.81 L147.362 1078.81 L147.362 1072.93 Z" fill="#000000" fill-rule="evenodd" fill-opacity="1" /><path clip-path="url(#clip440)" d="M166.459 1074.88 L182.778 1074.88 L182.778 1078.81 L160.834 1078.81 L160.834 1074.88 Q163.496 1072.12 168.079 1067.49 Q172.686 1062.84 173.866 1061.5 Q176.112 1058.97 176.991 1057.24 Q177.894 1055.48 177.894 1053.79 Q177.894 1051.03 175.95 1049.3 Q174.028 1047.56 170.927 1047.56 Q168.727 1047.56 166.274 1048.33 Q163.843 1049.09 161.065 1050.64 L161.065 1045.92 Q163.89 1044.78 166.343 1044.21 Q168.797 1043.63 170.834 1043.63 Q176.204 1043.63 179.399 1046.31 Q182.593 1049 182.593 1053.49 Q182.593 1055.62 181.783 1057.54 Q180.996 1059.44 178.889 1062.03 Q178.311 1062.7 175.209 1065.92 Q172.107 1069.11 166.459 1074.88 Z" fill="#000000" fill-rule="evenodd" fill-opacity="1" /><path clip-path="url(#clip440)" d="M192.639 1044.25 L210.996 1044.25 L210.996 1048.19 L196.922 1048.19 L196.922 1056.66 Q197.94 1056.31 198.959 1056.15 Q199.977 1055.97 200.996 1055.97 Q206.783 1055.97 210.162 1059.14 Q213.542 1062.31 213.542 1067.72 Q213.542 1073.3 210.07 1076.41 Q206.598 1079.48 200.278 1079.48 Q198.102 1079.48 195.834 1079.11 Q193.588 1078.74 191.181 1078 L191.181 1073.3 Q193.264 1074.44 195.487 1074.99 Q197.709 1075.55 200.186 1075.55 Q204.19 1075.55 206.528 1073.44 Q208.866 1071.34 208.866 1067.72 Q208.866 1064.11 206.528 1062.01 Q204.19 1059.9 200.186 1059.9 Q198.311 1059.9 196.436 1060.32 Q194.584 1060.73 192.639 1061.61 L192.639 1044.25 Z" fill="#000000" fill-rule="evenodd" fill-opacity="1" /><path clip-path="url(#clip440)" d="M126.205 723.699 Q122.593 723.699 120.765 727.264 Q118.959 730.806 118.959 737.935 Q118.959 745.042 120.765 748.607 Q122.593 752.148 126.205 752.148 Q129.839 752.148 131.644 748.607 Q133.473 745.042 133.473 737.935 Q133.473 730.806 131.644 727.264 Q129.839 723.699 126.205 723.699 M126.205 719.996 Q132.015 719.996 135.07 724.602 Q138.149 729.185 138.149 737.935 Q138.149 746.662 135.07 751.269 Q132.015 755.852 126.205 755.852 Q120.394 755.852 117.316 751.269 Q114.26 746.662 114.26 737.935 Q114.26 729.185 117.316 724.602 Q120.394 719.996 126.205 719.996 Z" fill="#000000" fill-rule="evenodd" fill-opacity="1" /><path clip-path="url(#clip440)" d="M146.366 749.301 L151.251 749.301 L151.251 755.181 L146.366 755.181 L146.366 749.301 Z" fill="#000000" fill-rule="evenodd" fill-opacity="1" /><path clip-path="url(#clip440)" d="M161.482 720.621 L179.839 720.621 L179.839 724.556 L165.765 724.556 L165.765 733.028 Q166.783 732.681 167.802 732.519 Q168.82 732.334 169.839 732.334 Q175.626 732.334 179.005 735.505 Q182.385 738.676 182.385 744.093 Q182.385 749.671 178.913 752.773 Q175.44 755.852 169.121 755.852 Q166.945 755.852 164.677 755.482 Q162.431 755.111 160.024 754.37 L160.024 749.671 Q162.107 750.806 164.329 751.361 Q166.552 751.917 169.028 751.917 Q173.033 751.917 175.371 749.81 Q177.709 747.704 177.709 744.093 Q177.709 740.482 175.371 738.375 Q173.033 736.269 169.028 736.269 Q167.153 736.269 165.278 736.685 Q163.427 737.102 161.482 737.982 L161.482 720.621 Z" fill="#000000" fill-rule="evenodd" fill-opacity="1" /><path clip-path="url(#clip440)" d="M201.598 723.699 Q197.987 723.699 196.158 727.264 Q194.352 730.806 194.352 737.935 Q194.352 745.042 196.158 748.607 Q197.987 752.148 201.598 752.148 Q205.232 752.148 207.037 748.607 Q208.866 745.042 208.866 737.935 Q208.866 730.806 207.037 727.264 Q205.232 723.699 201.598 723.699 M201.598 719.996 Q207.408 719.996 210.463 724.602 Q213.542 729.185 213.542 737.935 Q213.542 746.662 210.463 751.269 Q207.408 755.852 201.598 755.852 Q195.787 755.852 192.709 751.269 Q189.653 746.662 189.653 737.935 Q189.653 729.185 192.709 724.602 Q195.787 719.996 201.598 719.996 Z" fill="#000000" fill-rule="evenodd" fill-opacity="1" /><path clip-path="url(#clip440)" d="M127.2 400.068 Q123.589 400.068 121.76 403.632 Q119.955 407.174 119.955 414.304 Q119.955 421.41 121.76 424.975 Q123.589 428.517 127.2 428.517 Q130.834 428.517 132.64 424.975 Q134.468 421.41 134.468 414.304 Q134.468 407.174 132.64 403.632 Q130.834 400.068 127.2 400.068 M127.2 396.364 Q133.01 396.364 136.066 400.97 Q139.144 405.554 139.144 414.304 Q139.144 423.03 136.066 427.637 Q133.01 432.22 127.2 432.22 Q121.39 432.22 118.311 427.637 Q115.256 423.03 115.256 414.304 Q115.256 405.554 118.311 400.97 Q121.39 396.364 127.2 396.364 Z" fill="#000000" fill-rule="evenodd" fill-opacity="1" /><path clip-path="url(#clip440)" d="M147.362 425.669 L152.246 425.669 L152.246 431.549 L147.362 431.549 L147.362 425.669 Z" fill="#000000" fill-rule="evenodd" fill-opacity="1" /><path clip-path="url(#clip440)" d="M161.251 396.989 L183.473 396.989 L183.473 398.98 L170.927 431.549 L166.042 431.549 L177.848 400.924 L161.251 400.924 L161.251 396.989 Z" fill="#000000" fill-rule="evenodd" fill-opacity="1" /><path clip-path="url(#clip440)" d="M192.639 396.989 L210.996 396.989 L210.996 400.924 L196.922 400.924 L196.922 409.396 Q197.94 409.049 198.959 408.887 Q199.977 408.702 200.996 408.702 Q206.783 408.702 210.162 411.873 Q213.542 415.044 213.542 420.461 Q213.542 426.04 210.07 429.142 Q206.598 432.22 200.278 432.22 Q198.102 432.22 195.834 431.85 Q193.588 431.48 191.181 430.739 L191.181 426.04 Q193.264 427.174 195.487 427.73 Q197.709 428.285 200.186 428.285 Q204.19 428.285 206.528 426.179 Q208.866 424.072 208.866 420.461 Q208.866 416.85 206.528 414.743 Q204.19 412.637 200.186 412.637 Q198.311 412.637 196.436 413.054 Q194.584 413.47 192.639 414.35 L192.639 396.989 Z" fill="#000000" fill-rule="evenodd" fill-opacity="1" /><path clip-path="url(#clip440)" d="M117.015 103.982 L124.654 103.982 L124.654 77.6165 L116.343 79.2831 L116.343 75.0239 L124.607 73.3572 L129.283 73.3572 L129.283 103.982 L136.922 103.982 L136.922 107.917 L117.015 107.917 L117.015 103.982 Z" fill="#000000" fill-rule="evenodd" fill-opacity="1" /><path clip-path="url(#clip440)" d="M146.366 102.038 L151.251 102.038 L151.251 107.917 L146.366 107.917 L146.366 102.038 Z" fill="#000000" fill-rule="evenodd" fill-opacity="1" /><path clip-path="url(#clip440)" d="M171.436 76.4359 Q167.825 76.4359 165.996 80.0007 Q164.19 83.5424 164.19 90.672 Q164.19 97.7784 165.996 101.343 Q167.825 104.885 171.436 104.885 Q175.07 104.885 176.876 101.343 Q178.704 97.7784 178.704 90.672 Q178.704 83.5424 176.876 80.0007 Q175.07 76.4359 171.436 76.4359 M171.436 72.7322 Q177.246 72.7322 180.301 77.3387 Q183.38 81.922 183.38 90.672 Q183.38 99.3988 180.301 104.005 Q177.246 108.589 171.436 108.589 Q165.626 108.589 162.547 104.005 Q159.491 99.3988 159.491 90.672 Q159.491 81.922 162.547 77.3387 Q165.626 72.7322 171.436 72.7322 Z" fill="#000000" fill-rule="evenodd" fill-opacity="1" /><path clip-path="url(#clip440)" d="M201.598 76.4359 Q197.987 76.4359 196.158 80.0007 Q194.352 83.5424 194.352 90.672 Q194.352 97.7784 196.158 101.343 Q197.987 104.885 201.598 104.885 Q205.232 104.885 207.037 101.343 Q208.866 97.7784 208.866 90.672 Q208.866 83.5424 207.037 80.0007 Q205.232 76.4359 201.598 76.4359 M201.598 72.7322 Q207.408 72.7322 210.463 77.3387 Q213.542 81.922 213.542 90.672 Q213.542 99.3988 210.463 104.005 Q207.408 108.589 201.598 108.589 Q195.787 108.589 192.709 104.005 Q189.653 99.3988 189.653 90.672 Q189.653 81.922 192.709 77.3387 Q195.787 72.7322 201.598 72.7322 Z" fill="#000000" fill-rule="evenodd" fill-opacity="1" /><path clip-path="url(#clip440)" d="M16.4842 896.471 L16.4842 890.042 L58.5933 890.042 L58.5933 866.903 L64.0042 866.903 L64.0042 896.471 L16.4842 896.471 Z" fill="#000000" fill-rule="evenodd" fill-opacity="1" /><path clip-path="url(#clip440)" d="M32.4621 847.742 Q32.4621 852.452 36.1542 855.19 Q39.8145 857.927 46.212 857.927 Q52.6095 857.927 56.3017 855.221 Q59.9619 852.484 59.9619 847.742 Q59.9619 843.063 56.2698 840.326 Q52.5777 837.588 46.212 837.588 Q39.8781 837.588 36.186 840.326 Q32.4621 843.063 32.4621 847.742 M27.4968 847.742 Q27.4968 840.103 32.4621 835.742 Q37.4273 831.382 46.212 831.382 Q54.9649 831.382 59.9619 835.742 Q64.9272 840.103 64.9272 847.742 Q64.9272 855.412 59.9619 859.773 Q54.9649 864.102 46.212 864.102 Q37.4273 864.102 32.4621 859.773 Q27.4968 855.412 27.4968 847.742 Z" fill="#000000" fill-rule="evenodd" fill-opacity="1" /><path clip-path="url(#clip440)" d="M29.7248 796.02 L35.1993 796.02 Q33.8307 798.503 33.1623 801.017 Q32.4621 803.5 32.4621 806.046 Q32.4621 811.744 36.0905 814.895 Q39.6872 818.046 46.212 818.046 Q52.7369 818.046 56.3653 814.895 Q59.9619 811.744 59.9619 806.046 Q59.9619 803.5 59.2935 801.017 Q58.5933 798.503 57.2247 796.02 L62.6355 796.02 Q63.7814 798.471 64.3543 801.113 Q64.9272 803.723 64.9272 806.683 Q64.9272 814.736 59.8664 819.478 Q54.8057 824.22 46.212 824.22 Q37.491 824.22 32.4939 819.446 Q27.4968 814.64 27.4968 806.301 Q27.4968 803.596 28.0697 801.017 Q28.6108 798.439 29.7248 796.02 Z" fill="#000000" fill-rule="evenodd" fill-opacity="1" /><path clip-path="url(#clip440)" d="M46.0847 769.635 Q46.0847 776.732 47.7079 779.47 Q49.3312 782.207 53.2461 782.207 Q56.3653 782.207 58.2114 780.17 Q60.0256 778.101 60.0256 774.568 Q60.0256 769.698 56.5881 766.77 Q53.1188 763.81 47.3897 763.81 L46.0847 763.81 L46.0847 769.635 M43.6657 757.953 L64.0042 757.953 L64.0042 763.81 L58.5933 763.81 Q61.8398 765.815 63.3994 768.807 Q64.9272 771.799 64.9272 776.128 Q64.9272 781.602 61.8716 784.849 Q58.7843 788.063 53.6281 788.063 Q47.6125 788.063 44.5569 784.053 Q41.5014 780.011 41.5014 772.022 L41.5014 763.81 L40.9285 763.81 Q36.8862 763.81 34.6901 766.484 Q32.4621 769.125 32.4621 773.931 Q32.4621 776.987 33.1941 779.883 Q33.9262 782.78 35.3903 785.453 L29.9795 785.453 Q28.7381 782.239 28.1334 779.215 Q27.4968 776.191 27.4968 773.327 Q27.4968 765.592 31.5072 761.773 Q35.5176 757.953 43.6657 757.953 Z" fill="#000000" fill-rule="evenodd" fill-opacity="1" /><path clip-path="url(#clip440)" d="M14.479 745.89 L14.479 740.034 L64.0042 740.034 L64.0042 745.89 L14.479 745.89 Z" fill="#000000" fill-rule="evenodd" fill-opacity="1" /><path clip-path="url(#clip440)" d="M21.7677 700.376 L58.7206 700.376 L58.7206 692.609 Q58.7206 682.774 54.2646 678.223 Q49.8086 673.64 40.1964 673.64 Q30.6479 673.64 26.2237 678.223 Q21.7677 682.774 21.7677 692.609 L21.7677 700.376 M16.4842 706.805 L16.4842 693.596 Q16.4842 679.783 22.2451 673.321 Q27.9743 666.86 40.1964 666.86 Q52.4822 666.86 58.2432 673.353 Q64.0042 679.846 64.0042 693.596 L64.0042 706.805 L16.4842 706.805 Z" fill="#000000" fill-rule="evenodd" fill-opacity="1" /><path clip-path="url(#clip440)" d="M20.8447 637.323 Q20.8447 644.326 26.0645 648.463 Q31.2844 652.569 40.2919 652.569 Q49.2675 652.569 54.4874 648.463 Q59.7073 644.326 59.7073 637.323 Q59.7073 630.321 54.4874 626.247 Q49.2675 622.141 40.2919 622.141 Q31.2844 622.141 26.0645 626.247 Q20.8447 630.321 20.8447 637.323 M15.6248 637.323 Q15.6248 627.329 22.3406 621.345 Q29.0246 615.362 40.2919 615.362 Q51.5274 615.362 58.2432 621.345 Q64.9272 627.329 64.9272 637.323 Q64.9272 647.349 58.2432 653.365 Q51.5592 659.349 40.2919 659.349 Q29.0246 659.349 22.3406 653.365 Q15.6248 647.349 15.6248 637.323 Z" fill="#000000" fill-rule="evenodd" fill-opacity="1" /><path clip-path="url(#clip440)" d="M18.0438 576.817 L24.314 576.817 Q22.5634 580.478 21.704 583.724 Q20.8447 586.971 20.8447 589.994 Q20.8447 595.246 22.8817 598.111 Q24.9187 600.943 28.6745 600.943 Q31.8255 600.943 33.4488 599.065 Q35.0402 597.156 36.0269 591.872 L36.8226 587.989 Q38.1912 580.796 41.6605 577.39 Q45.098 573.953 50.8908 573.953 Q57.7976 573.953 61.3624 578.6 Q64.9272 583.215 64.9272 592.159 Q64.9272 595.532 64.1633 599.352 Q63.3994 603.139 61.9035 607.214 L55.2831 607.214 Q57.4793 603.299 58.5933 599.543 Q59.7073 595.787 59.7073 592.159 Q59.7073 586.652 57.543 583.66 Q55.3786 580.669 51.3682 580.669 Q47.8671 580.669 45.8937 582.833 Q43.9204 584.965 42.9337 589.867 L42.1698 593.782 Q40.7375 600.975 37.682 604.19 Q34.6264 607.404 29.1837 607.404 Q22.8817 607.404 19.2532 602.98 Q15.6248 598.524 15.6248 590.726 Q15.6248 587.384 16.2295 583.915 Q16.8343 580.446 18.0438 576.817 Z" fill="#000000" fill-rule="evenodd" fill-opacity="1" /><polyline clip-path="url(#clip442)" style="stroke:#009af9; stroke-linecap:butt; stroke-linejoin:round; stroke-width:4; stroke-opacity:1; fill:none" points="
  309.067,1195.37 311.053,1256.86 313.039,1277.19 315.025,1276.92 317.012,1258.01 318.998,1207.96 320.984,1095.62 322.97,886.778 324.956,599.617 326.942,674.078 
  328.928,1016.37 330.915,1169.63 332.901,1221.83 334.887,1222.66 336.873,1165.8 338.859,1008.27 340.845,954.724 342.832,1127.48 344.818,1209.49 346.804,1216.33 
  348.79,1158.04 350.776,1018.71 352.762,954.811 354.748,932.876 356.735,868.097 358.721,858.125 360.707,1063.61 362.693,1136.98 364.679,1107.17 366.665,1147.15 
  368.651,1201.57 370.638,1181.86 372.624,1068.44 374.61,874.662 376.596,821.838 378.582,1055.26 380.568,1191.84 382.555,1237.66 384.541,1246.09 386.527,1214.9 
  388.513,1187.55 390.499,1222.9 392.485,1212.14 394.471,1123.22 396.458,1006.77 398.444,1043.19 400.43,1153.46 402.416,1165.78 404.402,1076.83 406.388,823.181 
  408.374,686.494 410.361,878.673 412.347,853.573 414.333,953.98 416.319,1123.98 418.305,1176.55 420.291,1146.3 422.278,1011.56 424.264,911.889 426.25,978.674 
  428.236,842.727 430.222,670.585 432.208,936.271 434.194,1087.4 436.181,1066.47 438.167,979.727 440.153,1056.31 442.139,1135.41 444.125,1202.15 446.111,1194.35 
  448.097,1179.17 450.084,1228.56 452.07,1237.49 454.056,1191.5 456.042,1054.19 458.028,906.526 460.014,902.987 462.001,1011.39 463.987,1161.43 465.973,1214.38 
  467.959,1228.12 469.945,1192.85 471.931,1155.58 473.917,1166.28 475.904,1166.63 477.89,1075.47 479.876,888.37 481.862,810.177 483.848,808.045 485.834,951.563 
  487.82,1139.08 489.807,1209.62 491.793,1214.77 493.779,1159.7 495.765,1028.5 497.751,915.687 499.737,1076.93 501.724,1174.66 503.71,1177.25 505.696,1094.6 
  507.682,864.409 509.668,558.635 511.654,781.3 513.64,1061.16 515.627,1153.51 517.613,1209.06 519.599,1254.37 521.585,1264.56 523.571,1242.19 525.557,1161.95 
  527.543,1041.81 529.53,1132.4 531.516,1221.36 533.502,1240.97 535.488,1218.5 537.474,1161.92 539.46,1060.78 541.447,885.157 543.433,501.909 545.419,568.576 
  547.405,908.201 549.391,1029.47 551.377,1016.91 553.363,988.476 555.35,1092.92 557.336,1157.31 559.322,1134.8 561.308,1057.63 563.294,1062.44 565.28,1055.19 
  567.266,911.676 569.253,985.728 571.239,1136.83 573.225,1169.11 575.211,1190.34 577.197,1193.59 579.183,1113.86 581.17,1045.06 583.156,1158.58 585.142,1219.56 
  587.128,1220.63 589.114,1180.24 591.1,1066.24 593.086,777.423 595.073,396.403 597.059,437.102 599.045,823.316 601.031,1078.01 603.017,1171.18 605.003,1185.55 
  606.989,1133.51 608.976,1029.2 610.962,1069.32 612.948,1143.91 614.934,1116.24 616.92,1147.22 618.906,1207.87 620.893,1212.66 622.879,1167.57 624.865,1046.61 
  626.851,917.971 628.837,800.936 630.823,416.644 632.809,204.727 634.796,270.554 636.782,703.562 638.768,984.763 640.754,1055.56 642.74,1040.35 644.726,989.017 
  646.712,920.487 648.699,955.89 650.685,972.928 652.671,845.449 654.657,785.009 656.643,1007.62 658.629,1095.3 660.616,1053.53 662.602,1038.61 664.588,1102.61 
  666.574,1070.5 668.56,933.417 670.546,648.091 672.532,127.237 674.519,401.403 676.505,839.348 678.491,958.103 680.477,908.707 682.463,717.32 684.449,499.81 
  686.435,714.389 688.422,863.284 690.408,997.563 692.394,1124.18 694.38,1142.28 696.366,1180.59 698.352,1247.08 700.339,1276.21 702.325,1284.63 704.311,1279.35 
  706.297,1256.1 708.283,1196.68 710.269,1122.92 712.255,1113.46 714.242,1036.37 716.228,908.803 718.214,666.552 720.2,330.504 722.186,643.819 724.172,804.777 
  726.158,871.929 728.145,1081.68 730.131,1179.77 732.117,1195.26 734.103,1139.47 736.089,1105.3 738.075,1188.6 740.062,1215.66 742.048,1172.77 744.034,1072.63 
  746.02,1107.49 748.006,1133.09 749.992,1082.78 751.978,1125.43 753.965,1147.23 755.951,1094.72 757.937,932.004 759.923,525.139 761.909,194.215 763.895,411.286 
  765.881,190.499 767.868,254.068 769.854,798.638 771.84,1055.42 773.826,1155.29 775.812,1183.38 777.798,1150.27 779.785,1055.08 781.771,940.667 783.757,1027.89 
  785.743,1154.3 787.729,1160.76 789.715,1121.01 791.701,1193.94 793.688,1239.76 795.674,1229.88 797.66,1152.22 799.646,1000.69 801.632,1061.83 803.618,1169.39 
  805.604,1232.78 807.591,1253.47 809.577,1255.99 811.563,1259.74 813.549,1227.16 815.535,1128.28 817.521,1044.87 819.508,1071.52 821.494,1056.34 823.48,1057.33 
  825.466,1015.81 827.452,764.628 829.438,424.718 831.424,618.7 833.411,905.062 835.397,925.482 837.383,914.867 839.369,1055.58 841.355,1197.9 843.341,1260.27 
  845.328,1287.2 847.314,1297.86 849.3,1297.74 851.286,1285.45 853.272,1250.29 855.258,1161.04 857.244,1044.18 859.231,1102.61 861.217,1160.44 863.203,1127.69 
  865.189,1026.75 867.175,1011.86 869.161,919.268 871.147,693.392 873.134,711.961 875.12,820.137 877.106,683.983 879.092,718.843 881.078,871.689 883.064,1055.21 
  885.051,1113.26 887.037,1131.19 889.023,1145.96 891.009,1211.24 892.995,1242.88 894.981,1255.73 896.967,1231.07 898.954,1142.5 900.94,1117.91 902.926,1213.26 
  904.912,1247.99 906.898,1231.54 908.884,1160.19 910.87,1032.64 912.857,1008.86 914.843,891.395 916.829,689.841 918.815,546.856 920.801,839.93 922.787,1112.8 
  924.774,1229.54 926.76,1281.9 928.746,1308.67 930.732,1323.62 932.718,1332.2 934.704,1336.8 936.69,1338.39 938.677,1337.11 940.663,1332.29 942.649,1321.87 
  944.635,1300.58 946.621,1253.84 948.607,1140.59 950.593,948.22 952.58,977.913 954.566,1024.28 956.552,1033.63 958.538,1185.93 960.524,1271.82 962.51,1307.1 
  964.497,1321.69 966.483,1325.45 968.469,1319.74 970.455,1298.78 972.441,1241.38 974.427,1124.02 976.413,1147.71 978.4,1251.37 980.386,1287.62 982.372,1281.56 
  984.358,1256.78 986.344,1234.59 988.33,1184.97 990.316,1230.06 992.303,1261.14 994.289,1237 996.275,1139.63 998.261,957.358 1000.25,859.959 1002.23,1041.59 
  1004.22,1207.14 1006.21,1283.01 1008.19,1316.44 1010.18,1333.07 1012.16,1342.04 1014.15,1346.94 1016.14,1349.33 1018.12,1349.84 1020.11,1348.69 1022.09,1345.66 
  1024.08,1340.14 1026.07,1330.68 1028.05,1314.13 1030.04,1282.91 1032.03,1216.36 1034.01,1060.4 1036,821.68 1037.98,795.895 1039.97,878.147 1041.96,1041.33 
  1043.94,1199.99 1045.93,1265.42 1047.91,1288.33 1049.9,1285.53 1051.89,1249.83 1053.87,1198.45 1055.86,1194.58 1057.85,1174.67 1059.83,1232.1 1061.82,1251.3 
  1063.8,1231.79 1065.79,1214.49 1067.78,1202.56 1069.76,1238.69 1071.75,1228.58 1073.73,1148.41 1075.72,927.926 1077.71,719.979 1079.69,961.181 1081.68,1140.76 
  1083.67,1230.74 1085.65,1264.03 1087.64,1267.77 1089.62,1246.89 1091.61,1185.43 1093.6,1031.15 1095.58,759.94 1097.57,800.091 1099.55,992.462 1101.54,1014.53 
  1103.53,859.274 1105.51,670.132 1107.5,805.766 1109.49,1009.05 1111.47,1047.83 1113.46,1126.91 1115.44,1187.06 1117.43,1158.08 1119.42,1108.78 1121.4,1161 
  1123.39,1189.71 1125.37,1233.4 1127.36,1220.98 1129.35,1166.95 1131.33,1195.31 1133.32,1241.25 1135.31,1237.72 1137.29,1194.9 1139.28,1075.45 1141.26,1012.78 
  1143.25,1173.3 1145.24,1261.19 1147.22,1294.02 1149.21,1304.77 1151.19,1303.88 1153.18,1292.88 1155.17,1267.27 1157.15,1212.25 1159.14,1102.6 1161.13,939.972 
  1163.11,757.778 1165.1,858.939 1167.08,773.681 1169.07,505.274 1171.06,621.718 1173.04,600.607 1175.03,436.484 1177.01,373.035 1179,689.138 1180.99,858.146 
  1182.97,982.883 1184.96,1159.25 1186.95,1245.77 1188.93,1286.91 1190.92,1308.97 1192.9,1321.57 1194.89,1328.49 1196.88,1331.11 1198.86,1329.43 1200.85,1321.85 
  1202.83,1303.62 1204.82,1261.26 1206.81,1155.12 1208.79,929.999 1210.78,933.326 1212.77,1155.55 1214.75,1265.09 1216.74,1311.51 1218.72,1332.69 1220.71,1341.81 
  1222.7,1342.23 1224.68,1342.61 1226.67,1353.16 1228.65,1358.8 1230.64,1359.04 1232.63,1352.63 1234.61,1335.52 1236.6,1337.27 1238.59,1356.33 1240.57,1364.83 
  1242.56,1367.19 1244.54,1365.02 1246.53,1362.97 1248.52,1369.15 1250.5,1373.12 1252.49,1374.81 1254.47,1375.36 1256.46,1375.31 1258.45,1376.29 1260.43,1377.12 
  1262.42,1377.44 1264.41,1377.41 1266.39,1376.92 1268.38,1375.43 1270.36,1371.36 1272.35,1364.98 1274.34,1369.59 1276.32,1375.17 1278.31,1377.51 1280.29,1378.56 
  1282.28,1379.11 1284.27,1379.41 1286.25,1379.55 1288.24,1379.47 1290.23,1379.24 1292.21,1379.57 1294.2,1379.88 1296.18,1380 1298.17,1380.01 1300.16,1379.94 
  1302.14,1379.76 1304.13,1379.4 1306.11,1378.64 1308.1,1376.87 1310.09,1372.51 1312.07,1368.49 1314.06,1373.72 1316.05,1377.32 1318.03,1378.73 1320.02,1379.32 
  1322,1379.57 1323.99,1379.62 1325.98,1379.51 1327.96,1379.12 1329.95,1378.74 1331.93,1378.98 1333.92,1378.99 1335.91,1378.71 1337.89,1378.12 1339.88,1376.98 
  1341.87,1374.5 1343.85,1368.6 1345.84,1362.78 1347.82,1369.17 1349.81,1373.38 1351.8,1374.14 1353.78,1372.47 1355.77,1369 1357.75,1370.37 1359.74,1371.57 
  1361.73,1369.59 1363.71,1362.85 1365.7,1347.64 1367.69,1346.7 1369.67,1361.36 1371.66,1367.71 1373.64,1369.56 1375.63,1369.28 1377.62,1367.4 1379.6,1365.06 
  1381.59,1363.03 1383.57,1358.34 1385.56,1347.33 1387.55,1321.03 1389.53,1275.27 1391.52,1270.22 1393.5,1294.71 1395.49,1328.44 1397.48,1344.1 1399.46,1349.18 
  1401.45,1349.6 1403.44,1347.33 1405.42,1342.84 1407.41,1335.85 1409.39,1325.45 1411.38,1309.66 1413.37,1284.36 1415.35,1239.83 1417.34,1150.5 1419.32,969.613 
  1421.31,789.061 1423.3,525.404 1425.28,86.1857 1427.27,170.973 1429.26,353.139 1431.24,516.065 1433.23,517.015 1435.21,800.826 1437.2,917.006 1439.19,966.738 
  1441.17,1095.8 1443.16,1211.36 1445.14,1262.51 1447.13,1295.4 1449.12,1315.62 1451.1,1326.4 1453.09,1331.69 1455.08,1332.51 1457.06,1327.35 1459.05,1309.97 
  1461.03,1277.52 1463.02,1282.2 1465.01,1286.53 1466.99,1266.13 1468.98,1204.43 1470.96,1133.96 1472.95,1132.3 1474.94,1188.76 1476.92,1246.2 1478.91,1244.59 
  1480.9,1216.15 1482.88,1237.79 1484.87,1233.18 1486.85,1171.02 1488.84,999.677 1490.83,769.362 1492.81,876.716 1494.8,853.145 1496.78,672.586 1498.77,825.389 
  1500.76,895.963 1502.74,789.129 1504.73,422.083 1506.72,497.071 1508.7,869.451 1510.69,1105.11 1512.67,1221.56 1514.66,1275.14 1516.65,1301.63 1518.63,1313.11 
  1520.62,1310.73 1522.6,1285.09 1524.59,1241.97 1526.58,1283 1528.56,1326.98 1530.55,1345.57 1532.54,1353.15 1534.52,1355.03 1536.51,1357.25 1538.49,1358.94 
  1540.48,1362.42 1542.47,1362.51 1544.45,1359.14 1546.44,1362.45 1548.42,1364.82 1550.41,1369.18 1552.4,1372.31 1554.38,1373.53 1556.37,1373.54 1558.36,1372.01 
  1560.34,1367.36 1562.33,1362.43 1564.31,1359.96 1566.3,1359.9 1568.29,1368.23 1570.27,1374.07 1572.26,1376.68 1574.24,1377.98 1576.23,1378.73 1578.22,1379.21 
  1580.2,1379.55 1582.19,1379.78 1584.18,1379.93 1586.16,1380 1588.15,1380 1590.13,1379.88 1592.12,1379.58 1594.11,1378.96 1596.09,1377.63 1598.08,1374.49 
  1600.06,1367.4 1602.05,1359.71 1604.04,1364.51 1606.02,1372.09 1608.01,1376.17 1610,1377.26 1611.98,1376.15 1613.97,1374.45 1615.95,1376.37 1617.94,1377.15 
  1619.93,1378.21 1621.91,1378.61 1623.9,1377.32 1625.88,1373.44 1627.87,1372.63 1629.86,1377.13 1631.84,1379.34 1633.83,1380.19 1635.82,1380.49 1637.8,1380.47 
  1639.79,1380.13 1641.77,1379.23 1643.76,1376.99 1645.75,1373.27 1647.73,1373.42 1649.72,1372.43 1651.7,1371.78 1653.69,1376.23 1655.68,1378.8 1657.66,1379.82 
  1659.65,1380.23 1661.64,1380.39 1663.62,1380.41 1665.61,1380.33 1667.59,1380.17 1669.58,1379.94 1671.57,1379.61 1673.55,1379.13 1675.54,1378.41 1677.52,1377.18 
  1679.51,1374.74 1681.5,1369.54 1683.48,1364.42 1685.47,1365.18 1687.46,1368.03 1689.44,1369.34 1691.43,1369.25 1693.41,1370.86 1695.4,1371.08 1697.39,1369.96 
  1699.37,1367.14 1701.36,1362.24 1703.34,1360.49 1705.33,1359.34 1707.32,1355.08 1709.3,1347.44 1711.29,1335.43 1713.28,1317.9 1715.26,1287.16 1717.25,1226.99 
  1719.23,1092.51 1721.22,787.123 1723.21,657.293 1725.19,845.801 1727.18,995.298 1729.16,1054.84 1731.15,936.64 1733.14,832.07 1735.12,1021.17 1737.11,1194.88 
  1739.1,1266.14 1741.08,1286.92 1743.07,1269.44 1745.05,1253.31 1747.04,1300.64 1749.03,1335.02 1751.01,1350.33 1753,1357.86 1754.98,1361.82 1756.97,1363.65 
  1758.96,1363.6 1760.94,1360.92 1762.93,1353.13 1764.92,1342.17 1766.9,1336.14 1768.89,1309.83 1770.87,1244.91 1772.86,1225.59 1774.85,1293.18 1776.83,1332.79 
  1778.82,1342.89 1780.8,1351.06 1782.79,1361.09 1784.78,1364.73 1786.76,1370.03 1788.75,1373.66 1790.73,1375.13 1792.72,1375.05 1794.71,1374.35 1796.69,1374.21 
  1798.68,1373.07 1800.67,1371.73 1802.65,1371.24 1804.64,1375.76 1806.62,1378.19 1808.61,1379.04 1810.6,1379.06 1812.58,1378.4 1814.57,1377.29 1816.55,1374.33 
  1818.54,1366.83 1820.53,1364.17 1822.51,1372.24 1824.5,1376.18 1826.49,1377.31 1828.47,1376.93 1830.46,1375.06 1832.44,1370.53 1834.43,1361.59 1836.42,1351.36 
  1838.4,1336.89 1840.39,1305.92 1842.37,1324.64 1844.36,1355.47 1846.35,1368.01 1848.33,1373.24 1850.32,1375.19 1852.31,1375.49 1854.29,1377.06 1856.28,1377.87 
  1858.26,1377.71 1860.25,1379.31 1862.24,1380.14 1864.22,1379.64 1866.21,1377.74 1868.19,1378.03 1870.18,1379.8 1872.17,1379.98 1874.15,1378.46 1876.14,1375.06 
  1878.13,1375.12 1880.11,1374.51 1882.1,1371.5 1884.08,1374.28 1886.07,1375.03 1888.06,1377.15 1890.04,1379.55 1892.03,1380.51 1894.01,1381.61 1896,1382.19 
  1897.99,1382.39 1899.97,1382.36 1901.96,1382.12 1903.95,1381.49 1905.93,1380.16 1907.92,1379.21 1909.9,1378.39 1911.89,1374.99 1913.88,1368.93 1915.86,1362.27 
  1917.85,1354.47 1919.83,1362.84 1921.82,1371.9 1923.81,1375.89 1925.79,1375.65 1927.78,1371.54 1929.77,1368.25 1931.75,1374.85 1933.74,1378.69 1935.72,1379.62 
  1937.71,1379.93 1939.7,1380.04 1941.68,1379.65 1943.67,1379.77 1945.65,1378.45 1947.64,1374.25 1949.63,1374.2 1951.61,1377.32 1953.6,1376.63 1955.59,1375.09 
  1957.57,1376.68 1959.56,1379.53 1961.54,1380.42 1963.53,1380.22 1965.52,1378.69 1967.5,1375.06 1969.49,1375.42 1971.47,1377.15 1973.46,1379.32 1975.45,1380.69 
  1977.43,1381.71 1979.42,1382.45 1981.41,1382.65 1983.39,1382.44 1985.38,1381.55 1987.36,1380.95 1989.35,1381.07 1991.34,1379.61 1993.32,1377.96 1995.31,1379.89 
  1997.29,1380.81 1999.28,1380.2 2001.27,1377.77 2003.25,1371.4 2005.24,1362.56 2007.23,1362.6 2009.21,1371.23 2011.2,1377.86 2013.18,1380.55 2015.17,1381.6 
  2017.16,1381.74 2019.14,1380.97 2021.13,1379.41 2023.11,1380.18 2025.1,1381.7 2027.09,1381.78 2029.07,1381.46 2031.06,1381.56 2033.05,1380.34 2035.03,1379.65 
  2037.02,1381.27 2039,1381.41 2040.99,1380.88 2042.98,1382.03 2044.96,1382.66 2046.95,1382.37 2048.93,1381.74 2050.92,1382.1 2052.91,1381.81 2054.89,1380.52 
  2056.88,1378.65 2058.87,1378.7 2060.85,1381.19 2062.84,1382.18 2064.82,1382.47 2066.81,1383.08 2068.8,1383.28 2070.78,1382.98 2072.77,1381.9 2074.75,1380.82 
  2076.74,1382.18 2078.73,1383.07 2080.71,1383.27 2082.7,1383.07 2084.69,1382.41 2086.67,1381.52 2088.66,1379.7 2090.64,1374.86 2092.63,1370.97 2094.62,1376.06 
  2096.6,1380.34 2098.59,1381.95 2100.57,1382.31 2102.56,1381.66 2104.55,1380.58 2106.53,1381.66 2108.52,1382.84 2110.51,1383.26 2112.49,1383.21 2114.48,1382.6 
  2116.46,1381.03 2118.45,1380.23 2120.44,1380.22 2122.42,1380.89 2124.41,1382.39 2126.39,1382.94 2128.38,1382.96 2130.37,1382.89 2132.35,1382.85 2134.34,1383.26 
  2136.33,1383.33 2138.31,1382.83 2140.3,1381.82 2142.28,1380.49 2144.27,1378.9 2146.26,1380.95 2148.24,1382.71 2150.23,1383.33 2152.21,1383.41 2154.2,1383.25 
  2156.19,1383.31 2158.17,1382.98 2160.16,1382.31 2162.15,1381.35 2164.13,1380.26 2166.12,1381.28 2168.1,1381.23 2170.09,1378.95 2172.08,1375.32 2174.06,1377.8 
  2176.05,1379.76 2178.03,1379.1 2180.02,1380.41 2182.01,1382.29 2183.99,1382.99 2185.98,1382.94 2187.97,1382.12 2189.95,1381.71 2191.94,1382.07 2193.92,1381.27 
  2195.91,1381.93 2197.9,1383.13 2199.88,1383.51 2201.87,1383.33 2203.85,1382.49 2205.84,1382.25 2207.83,1383.04 2209.81,1383.52 2211.8,1383.57 2213.78,1383.16 
  2215.77,1383.37 2217.76,1383.79 2219.74,1383.8 2221.73,1383.43 2223.72,1382.57 2225.7,1381.12 2227.69,1380.68 2229.67,1382.4 2231.66,1383.31 2233.65,1383.41 
  2235.63,1382.95 2237.62,1382.66 2239.6,1382.85 2241.59,1382.15 2243.58,1380.77 2245.56,1380.11 2247.55,1381.34 2249.54,1381.25 2251.52,1381.84 2253.51,1383.04 
  2255.49,1383.46 2257.48,1383.34 2259.47,1382.61 2261.45,1380.97 2263.44,1381.54 2265.42,1383.09 2267.41,1383.7 2269.4,1383.84 2271.38,1383.65 2273.37,1382.96 
  2275.36,1381.34 2277.34,1381.02 2279.33,1382.42 2281.31,1383.32 2283.3,1383.91 2285.29,1384.16 2287.27,1384.24 2289.26,1384.21 2291.24,1384.05 2293.23,1383.62 
  
  "/>
<path clip-path="url(#clip440)" d="
M1996.53 196.789 L2282.65 196.789 L2282.65 93.1086 L1996.53 93.1086  Z
  " fill="#ffffff" fill-rule="evenodd" fill-opacity="1"/>
<polyline clip-path="url(#clip440)" style="stroke:#000000; stroke-linecap:butt; stroke-linejoin:round; stroke-width:4; stroke-opacity:1; fill:none" points="
  1996.53,196.789 2282.65,196.789 2282.65,93.1086 1996.53,93.1086 1996.53,196.789 
  "/>
<polyline clip-path="url(#clip440)" style="stroke:#009af9; stroke-linecap:butt; stroke-linejoin:round; stroke-width:4; stroke-opacity:1; fill:none" points="
  2019.9,144.949 2160.11,144.949 
  "/>
<path clip-path="url(#clip440)" d="M2197.32 164.636 Q2195.52 169.266 2193.8 170.678 Q2192.09 172.09 2189.22 172.09 L2185.82 172.09 L2185.82 168.525 L2188.32 168.525 Q2190.08 168.525 2191.05 167.692 Q2192.02 166.858 2193.2 163.756 L2193.97 161.812 L2183.48 136.303 L2187.99 136.303 L2196.1 156.581 L2204.2 136.303 L2208.71 136.303 L2197.32 164.636 Z" fill="#000000" fill-rule="evenodd" fill-opacity="1" /><path clip-path="url(#clip440)" d="M2216 158.293 L2223.64 158.293 L2223.64 131.928 L2215.33 133.595 L2215.33 129.335 L2223.6 127.669 L2228.27 127.669 L2228.27 158.293 L2235.91 158.293 L2235.91 162.229 L2216 162.229 L2216 158.293 Z" fill="#000000" fill-rule="evenodd" fill-opacity="1" /></svg>
