<?xml version="1.0" encoding="utf-8"?>
<svg xmlns="http://www.w3.org/2000/svg" xmlns:xlink="http://www.w3.org/1999/xlink" width="600" height="400" viewBox="0 0 2400 1600">
<defs>
  <clipPath id="clip940">
    <rect x="0" y="0" width="2400" height="1600"/>
  </clipPath>
</defs>
<path clip-path="url(#clip940)" d="
M0 1600 L2400 1600 L2400 0 L0 0  Z
  " fill="#ffffff" fill-rule="evenodd" fill-opacity="1"/>
<defs>
  <clipPath id="clip941">
    <rect x="480" y="0" width="1681" height="1600"/>
  </clipPath>
</defs>
<path clip-path="url(#clip940)" d="
M219.866 1423.18 L2352.76 1423.18 L2352.76 47.2441 L219.866 47.2441  Z
  " fill="#ffffff" fill-rule="evenodd" fill-opacity="1"/>
<defs>
  <clipPath id="clip942">
    <rect x="219" y="47" width="2134" height="1377"/>
  </clipPath>
</defs>
<polyline clip-path="url(#clip942)" style="stroke:#000000; stroke-linecap:round; stroke-linejoin:round; stroke-width:2; stroke-opacity:0.1; fill:none" points="
  280.231,1423.18 280.231,47.2441 
  "/>
<polyline clip-path="url(#clip942)" style="stroke:#000000; stroke-linecap:round; stroke-linejoin:round; stroke-width:2; stroke-opacity:0.1; fill:none" points="
  783.271,1423.18 783.271,47.2441 
  "/>
<polyline clip-path="url(#clip942)" style="stroke:#000000; stroke-linecap:round; stroke-linejoin:round; stroke-width:2; stroke-opacity:0.1; fill:none" points="
  1286.31,1423.18 1286.31,47.2441 
  "/>
<polyline clip-path="url(#clip942)" style="stroke:#000000; stroke-linecap:round; stroke-linejoin:round; stroke-width:2; stroke-opacity:0.1; fill:none" points="
  1789.35,1423.18 1789.35,47.2441 
  "/>
<polyline clip-path="url(#clip942)" style="stroke:#000000; stroke-linecap:round; stroke-linejoin:round; stroke-width:2; stroke-opacity:0.1; fill:none" points="
  2292.39,1423.18 2292.39,47.2441 
  "/>
<polyline clip-path="url(#clip940)" style="stroke:#000000; stroke-linecap:round; stroke-linejoin:round; stroke-width:4; stroke-opacity:1; fill:none" points="
  219.866,1423.18 2352.76,1423.18 
  "/>
<polyline clip-path="url(#clip940)" style="stroke:#000000; stroke-linecap:round; stroke-linejoin:round; stroke-width:4; stroke-opacity:1; fill:none" points="
  280.231,1423.18 280.231,1404.28 
  "/>
<polyline clip-path="url(#clip940)" style="stroke:#000000; stroke-linecap:round; stroke-linejoin:round; stroke-width:4; stroke-opacity:1; fill:none" points="
  783.271,1423.18 783.271,1404.28 
  "/>
<polyline clip-path="url(#clip940)" style="stroke:#000000; stroke-linecap:round; stroke-linejoin:round; stroke-width:4; stroke-opacity:1; fill:none" points="
  1286.31,1423.18 1286.31,1404.28 
  "/>
<polyline clip-path="url(#clip940)" style="stroke:#000000; stroke-linecap:round; stroke-linejoin:round; stroke-width:4; stroke-opacity:1; fill:none" points="
  1789.35,1423.18 1789.35,1404.28 
  "/>
<polyline clip-path="url(#clip940)" style="stroke:#000000; stroke-linecap:round; stroke-linejoin:round; stroke-width:4; stroke-opacity:1; fill:none" points="
  2292.39,1423.18 2292.39,1404.28 
  "/>
<path clip-path="url(#clip940)" d="M249.132 1468.75 L278.807 1468.75 L278.807 1472.69 L249.132 1472.69 L249.132 1468.75 Z" fill="#000000" fill-rule="evenodd" fill-opacity="1" /><path clip-path="url(#clip940)" d="M301.747 1455.09 L289.942 1473.54 L301.747 1473.54 L301.747 1455.09 M300.52 1451.02 L306.4 1451.02 L306.4 1473.54 L311.33 1473.54 L311.33 1477.43 L306.4 1477.43 L306.4 1485.58 L301.747 1485.58 L301.747 1477.43 L286.145 1477.43 L286.145 1472.92 L300.52 1451.02 Z" fill="#000000" fill-rule="evenodd" fill-opacity="1" /><path clip-path="url(#clip940)" d="M753.213 1468.75 L782.889 1468.75 L782.889 1472.69 L753.213 1472.69 L753.213 1468.75 Z" fill="#000000" fill-rule="evenodd" fill-opacity="1" /><path clip-path="url(#clip940)" d="M797.009 1481.64 L813.329 1481.64 L813.329 1485.58 L791.384 1485.58 L791.384 1481.64 Q794.046 1478.89 798.63 1474.26 Q803.236 1469.61 804.417 1468.27 Q806.662 1465.74 807.542 1464.01 Q808.445 1462.25 808.445 1460.56 Q808.445 1457.8 806.5 1456.07 Q804.579 1454.33 801.477 1454.33 Q799.278 1454.33 796.824 1455.09 Q794.394 1455.86 791.616 1457.41 L791.616 1452.69 Q794.44 1451.55 796.894 1450.97 Q799.347 1450.39 801.384 1450.39 Q806.755 1450.39 809.949 1453.08 Q813.144 1455.77 813.144 1460.26 Q813.144 1462.39 812.333 1464.31 Q811.546 1466.2 809.44 1468.8 Q808.861 1469.47 805.759 1472.69 Q802.658 1475.88 797.009 1481.64 Z" fill="#000000" fill-rule="evenodd" fill-opacity="1" /><path clip-path="url(#clip940)" d="M1286.31 1454.1 Q1282.7 1454.1 1280.87 1457.66 Q1279.07 1461.2 1279.07 1468.33 Q1279.07 1475.44 1280.87 1479.01 Q1282.7 1482.55 1286.31 1482.55 Q1289.95 1482.55 1291.75 1479.01 Q1293.58 1475.44 1293.58 1468.33 Q1293.58 1461.2 1291.75 1457.66 Q1289.95 1454.1 1286.31 1454.1 M1286.31 1450.39 Q1292.12 1450.39 1295.18 1455 Q1298.26 1459.58 1298.26 1468.33 Q1298.26 1477.06 1295.18 1481.67 Q1292.12 1486.25 1286.31 1486.25 Q1280.5 1486.25 1277.42 1481.67 Q1274.37 1477.06 1274.37 1468.33 Q1274.37 1459.58 1277.42 1455 Q1280.5 1450.39 1286.31 1450.39 Z" fill="#000000" fill-rule="evenodd" fill-opacity="1" /><path clip-path="url(#clip940)" d="M1784 1481.64 L1800.32 1481.64 L1800.32 1485.58 L1778.38 1485.58 L1778.38 1481.64 Q1781.04 1478.89 1785.62 1474.26 Q1790.23 1469.61 1791.41 1468.27 Q1793.66 1465.74 1794.54 1464.01 Q1795.44 1462.25 1795.44 1460.56 Q1795.44 1457.8 1793.49 1456.07 Q1791.57 1454.33 1788.47 1454.33 Q1786.27 1454.33 1783.82 1455.09 Q1781.39 1455.86 1778.61 1457.41 L1778.61 1452.69 Q1781.43 1451.55 1783.89 1450.97 Q1786.34 1450.39 1788.38 1450.39 Q1793.75 1450.39 1796.94 1453.08 Q1800.14 1455.77 1800.14 1460.26 Q1800.14 1462.39 1799.33 1464.31 Q1798.54 1466.2 1796.43 1468.8 Q1795.86 1469.47 1792.75 1472.69 Q1789.65 1475.88 1784 1481.64 Z" fill="#000000" fill-rule="evenodd" fill-opacity="1" /><path clip-path="url(#clip940)" d="M2295.4 1455.09 L2283.59 1473.54 L2295.4 1473.54 L2295.4 1455.09 M2294.17 1451.02 L2300.05 1451.02 L2300.05 1473.54 L2304.98 1473.54 L2304.98 1477.43 L2300.05 1477.43 L2300.05 1485.58 L2295.4 1485.58 L2295.4 1477.43 L2279.8 1477.43 L2279.8 1472.92 L2294.17 1451.02 Z" fill="#000000" fill-rule="evenodd" fill-opacity="1" /><path clip-path="url(#clip940)" d="M1129.64 1520.52 L1159.68 1520.52 L1159.68 1525.93 L1136.06 1525.93 L1136.06 1540 L1158.69 1540 L1158.69 1545.41 L1136.06 1545.41 L1136.06 1562.63 L1160.25 1562.63 L1160.25 1568.04 L1129.64 1568.04 L1129.64 1520.52 Z" fill="#000000" fill-rule="evenodd" fill-opacity="1" /><path clip-path="url(#clip940)" d="M1200.2 1546.53 L1200.2 1568.04 L1194.34 1568.04 L1194.34 1546.72 Q1194.34 1541.66 1192.37 1539.14 Q1190.4 1536.63 1186.45 1536.63 Q1181.71 1536.63 1178.97 1539.65 Q1176.23 1542.68 1176.23 1547.9 L1176.23 1568.04 L1170.34 1568.04 L1170.34 1532.4 L1176.23 1532.4 L1176.23 1537.93 Q1178.33 1534.72 1181.17 1533.13 Q1184.03 1531.54 1187.75 1531.54 Q1193.9 1531.54 1197.05 1535.36 Q1200.2 1539.14 1200.2 1546.53 Z" fill="#000000" fill-rule="evenodd" fill-opacity="1" /><path clip-path="url(#clip940)" d="M1242.37 1548.76 L1242.37 1551.62 L1215.44 1551.62 Q1215.83 1557.67 1219.07 1560.85 Q1222.35 1564 1228.18 1564 Q1231.55 1564 1234.7 1563.17 Q1237.88 1562.35 1241 1560.69 L1241 1566.23 Q1237.85 1567.57 1234.54 1568.27 Q1231.23 1568.97 1227.83 1568.97 Q1219.3 1568.97 1214.3 1564 Q1209.33 1559.04 1209.33 1550.57 Q1209.33 1541.82 1214.04 1536.69 Q1218.79 1531.54 1226.81 1531.54 Q1234 1531.54 1238.17 1536.18 Q1242.37 1540.8 1242.37 1548.76 M1236.52 1547.04 Q1236.45 1542.23 1233.81 1539.37 Q1231.2 1536.5 1226.87 1536.5 Q1221.97 1536.5 1219.01 1539.27 Q1216.08 1542.04 1215.64 1547.07 L1236.52 1547.04 Z" fill="#000000" fill-rule="evenodd" fill-opacity="1" /><path clip-path="url(#clip940)" d="M1272.64 1537.87 Q1271.65 1537.3 1270.48 1537.04 Q1269.33 1536.76 1267.93 1536.76 Q1262.96 1536.76 1260.29 1540 Q1257.65 1543.22 1257.65 1549.27 L1257.65 1568.04 L1251.76 1568.04 L1251.76 1532.4 L1257.65 1532.4 L1257.65 1537.93 Q1259.5 1534.69 1262.46 1533.13 Q1265.42 1531.54 1269.65 1531.54 Q1270.25 1531.54 1270.99 1531.63 Q1271.72 1531.7 1272.61 1531.85 L1272.64 1537.87 Z" fill="#000000" fill-rule="evenodd" fill-opacity="1" /><path clip-path="url(#clip940)" d="M1301.1 1549.81 Q1301.1 1543.44 1298.45 1539.94 Q1295.84 1536.44 1291.1 1536.44 Q1286.39 1536.44 1283.75 1539.94 Q1281.14 1543.44 1281.14 1549.81 Q1281.14 1556.14 1283.75 1559.64 Q1286.39 1563.14 1291.1 1563.14 Q1295.84 1563.14 1298.45 1559.64 Q1301.1 1556.14 1301.1 1549.81 M1306.95 1563.62 Q1306.95 1572.72 1302.91 1577.15 Q1298.87 1581.6 1290.53 1581.6 Q1287.44 1581.6 1284.7 1581.13 Q1281.97 1580.68 1279.39 1579.72 L1279.39 1574.03 Q1281.97 1575.43 1284.48 1576.1 Q1287 1576.76 1289.61 1576.76 Q1295.37 1576.76 1298.23 1573.74 Q1301.1 1570.75 1301.1 1564.67 L1301.1 1561.77 Q1299.28 1564.92 1296.45 1566.48 Q1293.62 1568.04 1289.67 1568.04 Q1283.11 1568.04 1279.1 1563.05 Q1275.09 1558.05 1275.09 1549.81 Q1275.09 1541.53 1279.1 1536.53 Q1283.11 1531.54 1289.67 1531.54 Q1293.62 1531.54 1296.45 1533.1 Q1299.28 1534.66 1301.1 1537.81 L1301.1 1532.4 L1306.95 1532.4 L1306.95 1563.62 Z" fill="#000000" fill-rule="evenodd" fill-opacity="1" /><path clip-path="url(#clip940)" d="M1333.85 1571.35 Q1331.36 1577.72 1329.01 1579.66 Q1326.65 1581.6 1322.71 1581.6 L1318.03 1581.6 L1318.03 1576.7 L1321.47 1576.7 Q1323.88 1576.7 1325.22 1575.56 Q1326.56 1574.41 1328.18 1570.14 L1329.23 1567.47 L1314.81 1532.4 L1321.02 1532.4 L1332.16 1560.28 L1343.3 1532.4 L1349.51 1532.4 L1333.85 1571.35 Z" fill="#000000" fill-rule="evenodd" fill-opacity="1" /><path clip-path="url(#clip940)" d="M1377.77 1518.52 L1391.27 1518.52 L1391.27 1523.07 L1383.63 1523.07 L1383.63 1572.09 L1391.27 1572.09 L1391.27 1576.64 L1377.77 1576.64 L1377.77 1518.52 Z" fill="#000000" fill-rule="evenodd" fill-opacity="1" /><path clip-path="url(#clip940)" d="M1409.54 1522.27 L1409.54 1532.4 L1421.6 1532.4 L1421.6 1536.95 L1409.54 1536.95 L1409.54 1556.3 Q1409.54 1560.66 1410.71 1561.9 Q1411.92 1563.14 1415.58 1563.14 L1421.6 1563.14 L1421.6 1568.04 L1415.58 1568.04 Q1408.8 1568.04 1406.23 1565.53 Q1403.65 1562.98 1403.65 1556.3 L1403.65 1536.95 L1399.35 1536.95 L1399.35 1532.4 L1403.65 1532.4 L1403.65 1522.27 L1409.54 1522.27 Z" fill="#000000" fill-rule="evenodd" fill-opacity="1" /><path clip-path="url(#clip940)" d="M1442.99 1518.52 L1442.99 1576.64 L1429.49 1576.64 L1429.49 1572.09 L1437.1 1572.09 L1437.1 1523.07 L1429.49 1523.07 L1429.49 1518.52 L1442.99 1518.52 Z" fill="#000000" fill-rule="evenodd" fill-opacity="1" /><polyline clip-path="url(#clip942)" style="stroke:#000000; stroke-linecap:round; stroke-linejoin:round; stroke-width:2; stroke-opacity:0.1; fill:none" points="
  219.866,1385.87 2352.76,1385.87 
  "/>
<polyline clip-path="url(#clip942)" style="stroke:#000000; stroke-linecap:round; stroke-linejoin:round; stroke-width:2; stroke-opacity:0.1; fill:none" points="
  219.866,1087.12 2352.76,1087.12 
  "/>
<polyline clip-path="url(#clip942)" style="stroke:#000000; stroke-linecap:round; stroke-linejoin:round; stroke-width:2; stroke-opacity:0.1; fill:none" points="
  219.866,788.374 2352.76,788.374 
  "/>
<polyline clip-path="url(#clip942)" style="stroke:#000000; stroke-linecap:round; stroke-linejoin:round; stroke-width:2; stroke-opacity:0.1; fill:none" points="
  219.866,489.628 2352.76,489.628 
  "/>
<polyline clip-path="url(#clip942)" style="stroke:#000000; stroke-linecap:round; stroke-linejoin:round; stroke-width:2; stroke-opacity:0.1; fill:none" points="
  219.866,190.883 2352.76,190.883 
  "/>
<polyline clip-path="url(#clip940)" style="stroke:#000000; stroke-linecap:round; stroke-linejoin:round; stroke-width:4; stroke-opacity:1; fill:none" points="
  219.866,1423.18 219.866,47.2441 
  "/>
<polyline clip-path="url(#clip940)" style="stroke:#000000; stroke-linecap:round; stroke-linejoin:round; stroke-width:4; stroke-opacity:1; fill:none" points="
  219.866,1385.87 238.764,1385.87 
  "/>
<polyline clip-path="url(#clip940)" style="stroke:#000000; stroke-linecap:round; stroke-linejoin:round; stroke-width:4; stroke-opacity:1; fill:none" points="
  219.866,1087.12 238.764,1087.12 
  "/>
<polyline clip-path="url(#clip940)" style="stroke:#000000; stroke-linecap:round; stroke-linejoin:round; stroke-width:4; stroke-opacity:1; fill:none" points="
  219.866,788.374 238.764,788.374 
  "/>
<polyline clip-path="url(#clip940)" style="stroke:#000000; stroke-linecap:round; stroke-linejoin:round; stroke-width:4; stroke-opacity:1; fill:none" points="
  219.866,489.628 238.764,489.628 
  "/>
<polyline clip-path="url(#clip940)" style="stroke:#000000; stroke-linecap:round; stroke-linejoin:round; stroke-width:4; stroke-opacity:1; fill:none" points="
  219.866,190.883 238.764,190.883 
  "/>
<path clip-path="url(#clip940)" d="M126.691 1371.66 Q123.08 1371.66 121.251 1375.23 Q119.445 1378.77 119.445 1385.9 Q119.445 1393.01 121.251 1396.57 Q123.08 1400.11 126.691 1400.11 Q130.325 1400.11 132.13 1396.57 Q133.959 1393.01 133.959 1385.9 Q133.959 1378.77 132.13 1375.23 Q130.325 1371.66 126.691 1371.66 M126.691 1367.96 Q132.501 1367.96 135.556 1372.57 Q138.635 1377.15 138.635 1385.9 Q138.635 1394.63 135.556 1399.23 Q132.501 1403.82 126.691 1403.82 Q120.88 1403.82 117.802 1399.23 Q114.746 1394.63 114.746 1385.9 Q114.746 1377.15 117.802 1372.57 Q120.88 1367.96 126.691 1367.96 Z" fill="#000000" fill-rule="evenodd" fill-opacity="1" /><path clip-path="url(#clip940)" d="M146.853 1397.27 L151.737 1397.27 L151.737 1403.15 L146.853 1403.15 L146.853 1397.27 Z" fill="#000000" fill-rule="evenodd" fill-opacity="1" /><path clip-path="url(#clip940)" d="M171.922 1371.66 Q168.311 1371.66 166.482 1375.23 Q164.677 1378.77 164.677 1385.9 Q164.677 1393.01 166.482 1396.57 Q168.311 1400.11 171.922 1400.11 Q175.556 1400.11 177.362 1396.57 Q179.19 1393.01 179.19 1385.9 Q179.19 1378.77 177.362 1375.23 Q175.556 1371.66 171.922 1371.66 M171.922 1367.96 Q177.732 1367.96 180.788 1372.57 Q183.866 1377.15 183.866 1385.9 Q183.866 1394.63 180.788 1399.23 Q177.732 1403.82 171.922 1403.82 Q166.112 1403.82 163.033 1399.23 Q159.978 1394.63 159.978 1385.9 Q159.978 1377.15 163.033 1372.57 Q166.112 1367.96 171.922 1367.96 Z" fill="#000000" fill-rule="evenodd" fill-opacity="1" /><path clip-path="url(#clip940)" d="M128.288 1072.92 Q124.677 1072.92 122.848 1076.48 Q121.043 1080.02 121.043 1087.15 Q121.043 1094.26 122.848 1097.83 Q124.677 1101.37 128.288 1101.37 Q131.922 1101.37 133.728 1097.83 Q135.556 1094.26 135.556 1087.15 Q135.556 1080.02 133.728 1076.48 Q131.922 1072.92 128.288 1072.92 M128.288 1069.21 Q134.098 1069.21 137.154 1073.82 Q140.232 1078.4 140.232 1087.15 Q140.232 1095.88 137.154 1100.49 Q134.098 1105.07 128.288 1105.07 Q122.478 1105.07 119.399 1100.49 Q116.343 1095.88 116.343 1087.15 Q116.343 1078.4 119.399 1073.82 Q122.478 1069.21 128.288 1069.21 Z" fill="#000000" fill-rule="evenodd" fill-opacity="1" /><path clip-path="url(#clip940)" d="M148.45 1098.52 L153.334 1098.52 L153.334 1104.4 L148.45 1104.4 L148.45 1098.52 Z" fill="#000000" fill-rule="evenodd" fill-opacity="1" /><path clip-path="url(#clip940)" d="M167.547 1100.46 L183.866 1100.46 L183.866 1104.4 L161.922 1104.4 L161.922 1100.46 Q164.584 1097.71 169.167 1093.08 Q173.774 1088.43 174.954 1087.08 Q177.2 1084.56 178.079 1082.83 Q178.982 1081.07 178.982 1079.38 Q178.982 1076.62 177.038 1074.89 Q175.116 1073.15 172.014 1073.15 Q169.815 1073.15 167.362 1073.91 Q164.931 1074.68 162.153 1076.23 L162.153 1071.51 Q164.977 1070.37 167.431 1069.79 Q169.885 1069.21 171.922 1069.21 Q177.292 1069.21 180.487 1071.9 Q183.681 1074.58 183.681 1079.08 Q183.681 1081.21 182.871 1083.13 Q182.084 1085.02 179.977 1087.62 Q179.399 1088.29 176.297 1091.51 Q173.195 1094.7 167.547 1100.46 Z" fill="#000000" fill-rule="evenodd" fill-opacity="1" /><path clip-path="url(#clip940)" d="M126.205 774.173 Q122.593 774.173 120.765 777.737 Q118.959 781.279 118.959 788.409 Q118.959 795.515 120.765 799.08 Q122.593 802.622 126.205 802.622 Q129.839 802.622 131.644 799.08 Q133.473 795.515 133.473 788.409 Q133.473 781.279 131.644 777.737 Q129.839 774.173 126.205 774.173 M126.205 770.469 Q132.015 770.469 135.07 775.075 Q138.149 779.659 138.149 788.409 Q138.149 797.136 135.07 801.742 Q132.015 806.325 126.205 806.325 Q120.394 806.325 117.316 801.742 Q114.26 797.136 114.26 788.409 Q114.26 779.659 117.316 775.075 Q120.394 770.469 126.205 770.469 Z" fill="#000000" fill-rule="evenodd" fill-opacity="1" /><path clip-path="url(#clip940)" d="M146.366 799.774 L151.251 799.774 L151.251 805.654 L146.366 805.654 L146.366 799.774 Z" fill="#000000" fill-rule="evenodd" fill-opacity="1" /><path clip-path="url(#clip940)" d="M174.283 775.168 L162.477 793.617 L174.283 793.617 L174.283 775.168 M173.056 771.094 L178.936 771.094 L178.936 793.617 L183.866 793.617 L183.866 797.506 L178.936 797.506 L178.936 805.654 L174.283 805.654 L174.283 797.506 L158.681 797.506 L158.681 792.992 L173.056 771.094 Z" fill="#000000" fill-rule="evenodd" fill-opacity="1" /><path clip-path="url(#clip940)" d="M126.529 475.427 Q122.918 475.427 121.089 478.992 Q119.283 482.534 119.283 489.663 Q119.283 496.77 121.089 500.334 Q122.918 503.876 126.529 503.876 Q130.163 503.876 131.968 500.334 Q133.797 496.77 133.797 489.663 Q133.797 482.534 131.968 478.992 Q130.163 475.427 126.529 475.427 M126.529 471.723 Q132.339 471.723 135.394 476.33 Q138.473 480.913 138.473 489.663 Q138.473 498.39 135.394 502.996 Q132.339 507.58 126.529 507.58 Q120.718 507.58 117.64 502.996 Q114.584 498.39 114.584 489.663 Q114.584 480.913 117.64 476.33 Q120.718 471.723 126.529 471.723 Z" fill="#000000" fill-rule="evenodd" fill-opacity="1" /><path clip-path="url(#clip940)" d="M146.691 501.029 L151.575 501.029 L151.575 506.908 L146.691 506.908 L146.691 501.029 Z" fill="#000000" fill-rule="evenodd" fill-opacity="1" /><path clip-path="url(#clip940)" d="M172.339 487.765 Q169.19 487.765 167.339 489.918 Q165.51 492.071 165.51 495.821 Q165.51 499.547 167.339 501.723 Q169.19 503.876 172.339 503.876 Q175.487 503.876 177.315 501.723 Q179.167 499.547 179.167 495.821 Q179.167 492.071 177.315 489.918 Q175.487 487.765 172.339 487.765 M181.621 473.112 L181.621 477.372 Q179.862 476.538 178.056 476.098 Q176.274 475.659 174.514 475.659 Q169.885 475.659 167.431 478.784 Q165.001 481.909 164.653 488.228 Q166.019 486.214 168.079 485.149 Q170.139 484.061 172.616 484.061 Q177.825 484.061 180.834 487.233 Q183.866 490.381 183.866 495.821 Q183.866 501.145 180.718 504.362 Q177.57 507.58 172.339 507.58 Q166.343 507.58 163.172 502.996 Q160.001 498.39 160.001 489.663 Q160.001 481.469 163.89 476.608 Q167.778 471.723 174.329 471.723 Q176.089 471.723 177.871 472.071 Q179.676 472.418 181.621 473.112 Z" fill="#000000" fill-rule="evenodd" fill-opacity="1" /><path clip-path="url(#clip940)" d="M126.783 176.682 Q123.172 176.682 121.343 180.246 Q119.538 183.788 119.538 190.918 Q119.538 198.024 121.343 201.589 Q123.172 205.131 126.783 205.131 Q130.417 205.131 132.223 201.589 Q134.052 198.024 134.052 190.918 Q134.052 183.788 132.223 180.246 Q130.417 176.682 126.783 176.682 M126.783 172.978 Q132.593 172.978 135.649 177.584 Q138.728 182.168 138.728 190.918 Q138.728 199.644 135.649 204.251 Q132.593 208.834 126.783 208.834 Q120.973 208.834 117.894 204.251 Q114.839 199.644 114.839 190.918 Q114.839 182.168 117.894 177.584 Q120.973 172.978 126.783 172.978 Z" fill="#000000" fill-rule="evenodd" fill-opacity="1" /><path clip-path="url(#clip940)" d="M146.945 202.283 L151.829 202.283 L151.829 208.163 L146.945 208.163 L146.945 202.283 Z" fill="#000000" fill-rule="evenodd" fill-opacity="1" /><path clip-path="url(#clip940)" d="M172.014 191.751 Q168.681 191.751 166.76 193.533 Q164.862 195.316 164.862 198.441 Q164.862 201.566 166.76 203.348 Q168.681 205.131 172.014 205.131 Q175.348 205.131 177.269 203.348 Q179.19 201.543 179.19 198.441 Q179.19 195.316 177.269 193.533 Q175.371 191.751 172.014 191.751 M167.339 189.76 Q164.329 189.019 162.64 186.959 Q160.973 184.899 160.973 181.936 Q160.973 177.793 163.913 175.385 Q166.876 172.978 172.014 172.978 Q177.176 172.978 180.116 175.385 Q183.056 177.793 183.056 181.936 Q183.056 184.899 181.366 186.959 Q179.7 189.019 176.714 189.76 Q180.093 190.547 181.968 192.839 Q183.866 195.131 183.866 198.441 Q183.866 203.464 180.788 206.149 Q177.732 208.834 172.014 208.834 Q166.297 208.834 163.218 206.149 Q160.163 203.464 160.163 198.441 Q160.163 195.131 162.061 192.839 Q163.959 190.547 167.339 189.76 M165.626 182.376 Q165.626 185.061 167.292 186.566 Q168.982 188.07 172.014 188.07 Q175.024 188.07 176.714 186.566 Q178.426 185.061 178.426 182.376 Q178.426 179.691 176.714 178.186 Q175.024 176.682 172.014 176.682 Q168.982 176.682 167.292 178.186 Q165.626 179.691 165.626 182.376 Z" fill="#000000" fill-rule="evenodd" fill-opacity="1" /><path clip-path="url(#clip940)" d="M16.4842 896.471 L16.4842 890.042 L58.5933 890.042 L58.5933 866.903 L64.0042 866.903 L64.0042 896.471 L16.4842 896.471 Z" fill="#000000" fill-rule="evenodd" fill-opacity="1" /><path clip-path="url(#clip940)" d="M32.4621 847.742 Q32.4621 852.452 36.1542 855.19 Q39.8145 857.927 46.212 857.927 Q52.6095 857.927 56.3017 855.221 Q59.9619 852.484 59.9619 847.742 Q59.9619 843.063 56.2698 840.326 Q52.5777 837.588 46.212 837.588 Q39.8781 837.588 36.186 840.326 Q32.4621 843.063 32.4621 847.742 M27.4968 847.742 Q27.4968 840.103 32.4621 835.742 Q37.4273 831.382 46.212 831.382 Q54.9649 831.382 59.9619 835.742 Q64.9272 840.103 64.9272 847.742 Q64.9272 855.412 59.9619 859.773 Q54.9649 864.102 46.212 864.102 Q37.4273 864.102 32.4621 859.773 Q27.4968 855.412 27.4968 847.742 Z" fill="#000000" fill-rule="evenodd" fill-opacity="1" /><path clip-path="url(#clip940)" d="M29.7248 796.02 L35.1993 796.02 Q33.8307 798.503 33.1623 801.017 Q32.4621 803.5 32.4621 806.046 Q32.4621 811.744 36.0905 814.895 Q39.6872 818.046 46.212 818.046 Q52.7369 818.046 56.3653 814.895 Q59.9619 811.744 59.9619 806.046 Q59.9619 803.5 59.2935 801.017 Q58.5933 798.503 57.2247 796.02 L62.6355 796.02 Q63.7814 798.471 64.3543 801.113 Q64.9272 803.723 64.9272 806.683 Q64.9272 814.736 59.8664 819.478 Q54.8057 824.22 46.212 824.22 Q37.491 824.22 32.4939 819.446 Q27.4968 814.64 27.4968 806.301 Q27.4968 803.596 28.0697 801.017 Q28.6108 798.439 29.7248 796.02 Z" fill="#000000" fill-rule="evenodd" fill-opacity="1" /><path clip-path="url(#clip940)" d="M46.0847 769.635 Q46.0847 776.732 47.7079 779.47 Q49.3312 782.207 53.2461 782.207 Q56.3653 782.207 58.2114 780.17 Q60.0256 778.101 60.0256 774.568 Q60.0256 769.698 56.5881 766.77 Q53.1188 763.81 47.3897 763.81 L46.0847 763.81 L46.0847 769.635 M43.6657 757.953 L64.0042 757.953 L64.0042 763.81 L58.5933 763.81 Q61.8398 765.815 63.3994 768.807 Q64.9272 771.799 64.9272 776.128 Q64.9272 781.602 61.8716 784.849 Q58.7843 788.063 53.6281 788.063 Q47.6125 788.063 44.5569 784.053 Q41.5014 780.011 41.5014 772.022 L41.5014 763.81 L40.9285 763.81 Q36.8862 763.81 34.6901 766.484 Q32.4621 769.125 32.4621 773.931 Q32.4621 776.987 33.1941 779.883 Q33.9262 782.78 35.3903 785.453 L29.9795 785.453 Q28.7381 782.239 28.1334 779.215 Q27.4968 776.191 27.4968 773.327 Q27.4968 765.592 31.5072 761.773 Q35.5176 757.953 43.6657 757.953 Z" fill="#000000" fill-rule="evenodd" fill-opacity="1" /><path clip-path="url(#clip940)" d="M14.479 745.89 L14.479 740.034 L64.0042 740.034 L64.0042 745.89 L14.479 745.89 Z" fill="#000000" fill-rule="evenodd" fill-opacity="1" /><path clip-path="url(#clip940)" d="M21.7677 700.376 L58.7206 700.376 L58.7206 692.609 Q58.7206 682.774 54.2646 678.223 Q49.8086 673.64 40.1964 673.64 Q30.6479 673.64 26.2237 678.223 Q21.7677 682.774 21.7677 692.609 L21.7677 700.376 M16.4842 706.805 L16.4842 693.596 Q16.4842 679.783 22.2451 673.321 Q27.9743 666.86 40.1964 666.86 Q52.4822 666.86 58.2432 673.353 Q64.0042 679.846 64.0042 693.596 L64.0042 706.805 L16.4842 706.805 Z" fill="#000000" fill-rule="evenodd" fill-opacity="1" /><path clip-path="url(#clip940)" d="M20.8447 637.323 Q20.8447 644.326 26.0645 648.463 Q31.2844 652.569 40.2919 652.569 Q49.2675 652.569 54.4874 648.463 Q59.7073 644.326 59.7073 637.323 Q59.7073 630.321 54.4874 626.247 Q49.2675 622.141 40.2919 622.141 Q31.2844 622.141 26.0645 626.247 Q20.8447 630.321 20.8447 637.323 M15.6248 637.323 Q15.6248 627.329 22.3406 621.345 Q29.0246 615.362 40.2919 615.362 Q51.5274 615.362 58.2432 621.345 Q64.9272 627.329 64.9272 637.323 Q64.9272 647.349 58.2432 653.365 Q51.5592 659.349 40.2919 659.349 Q29.0246 659.349 22.3406 653.365 Q15.6248 647.349 15.6248 637.323 Z" fill="#000000" fill-rule="evenodd" fill-opacity="1" /><path clip-path="url(#clip940)" d="M18.0438 576.817 L24.314 576.817 Q22.5634 580.478 21.704 583.724 Q20.8447 586.971 20.8447 589.994 Q20.8447 595.246 22.8817 598.111 Q24.9187 600.943 28.6745 600.943 Q31.8255 600.943 33.4488 599.065 Q35.0402 597.156 36.0269 591.872 L36.8226 587.989 Q38.1912 580.796 41.6605 577.39 Q45.098 573.953 50.8908 573.953 Q57.7976 573.953 61.3624 578.6 Q64.9272 583.215 64.9272 592.159 Q64.9272 595.532 64.1633 599.352 Q63.3994 603.139 61.9035 607.214 L55.2831 607.214 Q57.4793 603.299 58.5933 599.543 Q59.7073 595.787 59.7073 592.159 Q59.7073 586.652 57.543 583.66 Q55.3786 580.669 51.3682 580.669 Q47.8671 580.669 45.8937 582.833 Q43.9204 584.965 42.9337 589.867 L42.1698 593.782 Q40.7375 600.975 37.682 604.19 Q34.6264 607.404 29.1837 607.404 Q22.8817 607.404 19.2532 602.98 Q15.6248 598.524 15.6248 590.726 Q15.6248 587.384 16.2295 583.915 Q16.8343 580.446 18.0438 576.817 Z" fill="#000000" fill-rule="evenodd" fill-opacity="1" /><polyline clip-path="url(#clip942)" style="stroke:#009af9; stroke-linecap:round; stroke-linejoin:round; stroke-width:4; stroke-opacity:1; fill:none" points="
  280.231,1206.65 282.245,1235.86 284.259,1236.72 286.274,1212.32 288.288,1146.87 290.302,1002.75 292.316,741.207 294.33,348.572 296.344,307.186 298.359,794.726 
  300.373,1047.63 302.387,1131.27 304.401,1128.41 306.415,1028.91 308.43,767.732 310.444,702.254 312.458,989.323 314.472,1118.82 316.486,1142.83 318.5,1088.89 
  320.515,912.769 322.529,706.146 324.543,572.034 326.557,362.282 328.571,632.847 330.585,878.94 332.6,909.567 334.614,782.713 336.628,741.475 338.642,927.637 
  340.656,1079.69 342.67,1137.47 344.685,1109.64 346.699,1051.01 348.713,958.235 350.727,771.98 352.741,914.224 354.756,1008.17 356.77,897.541 358.784,810.692 
  360.798,924.08 362.812,906.951 364.826,805.832 366.841,975.124 368.855,1125.44 370.869,1180.33 372.883,1172.38 374.897,1095.84 376.911,886.816 378.926,706.853 
  380.94,821.121 382.954,779.157 384.968,599.485 386.982,805.727 388.996,902.529 391.011,740.636 393.025,671.582 395.039,888.539 397.053,947.376 399.067,775.019 
  401.082,773.622 403.096,1021.89 405.11,1119.23 407.124,1104.93 409.138,965.163 411.152,761.264 413.167,868.399 415.181,927.982 417.195,877.512 419.209,924.862 
  421.223,1010.07 423.237,977.494 425.252,813.022 427.266,859.728 429.28,1052.56 431.294,1106.32 433.308,1079.2 435.322,1000.2 437.337,858.449 439.351,950.837 
  441.365,943.703 443.379,869.01 445.393,955.856 447.408,935.602 449.422,718.085 451.436,437.241 453.45,448.315 455.464,732.778 457.478,983.625 459.493,1111.77 
  461.507,1142.96 463.521,1115.05 465.535,976.792 467.549,693.296 469.563,760.061 471.578,980.368 473.592,1063.09 475.606,1022.48 477.62,799.31 479.634,313.062 
  481.648,302.971 483.663,799.917 485.677,1044.42 487.691,1116.75 489.705,1164.02 491.719,1197.26 493.734,1177.82 495.748,1077.26 497.762,845.757 499.776,869.936 
  501.79,1091.3 503.804,1178.21 505.819,1186.97 507.833,1136.57 509.847,1076.68 511.861,1001.34 513.875,723.702 515.889,261.076 517.904,401.388 519.918,828.535 
  521.932,995.711 523.946,955.012 525.96,916.374 527.974,1060.31 529.989,1098.15 532.003,1009.52 534.017,961.12 536.031,1044.24 538.045,997.696 540.06,754.125 
  542.074,462.002 544.088,288.163 546.102,589.41 548.116,939.838 550.13,1058.28 552.145,1071.57 554.159,1097.32 556.173,1167.99 558.187,1181.19 560.201,1141.08 
  562.215,1027.14 564.23,739.261 566.244,233.384 568.258,86.1857 570.272,565.955 572.286,952.067 574.301,1108.2 576.315,1159.81 578.329,1132.07 580.343,1030.29 
  582.357,1080.63 584.371,1165.35 586.386,1157.65 588.4,1128.47 590.414,1191.02 592.428,1227.38 594.442,1218.65 596.456,1163.33 598.471,1027.71 600.485,917.953 
  602.499,853.892 604.513,528.973 606.527,283.972 608.541,514.605 610.556,820.359 612.57,872.157 614.584,938.316 616.598,873.677 618.612,743.911 620.627,951.295 
  622.641,1064 624.655,1013.45 626.669,884.351 628.683,974.939 630.697,997.081 632.712,860.437 634.726,684.94 636.74,739.503 638.754,931.037 640.768,1075.91 
  642.782,1077.91 644.797,944.131 646.811,825.542 648.825,861.244 650.839,921.982 652.853,1009.03 654.867,913.631 656.882,657.813 658.896,700.96 660.91,772.489 
  662.924,914.983 664.938,1050.7 666.953,1161.23 668.967,1197.39 670.981,1230.98 672.995,1254.1 675.009,1253.6 677.023,1231.91 679.038,1177.01 681.052,1045.71 
  683.066,755.489 685.08,552.415 687.094,660.96 689.108,649.607 691.123,814.274 693.137,772.725 695.151,468.188 697.165,621.123 699.179,907.216 701.193,1076.13 
  703.208,1141.22 705.222,1148.09 707.236,1089.89 709.25,924.607 711.264,979.421 713.279,1130.54 715.293,1166.54 717.307,1138.39 719.321,1125.3 721.335,1035.63 
  723.349,768.292 725.364,650.665 727.378,893.801 729.392,927.211 731.406,686.948 733.42,323.012 735.434,622.752 737.449,945.948 739.463,1010.1 741.477,940.596 
  743.491,1038.59 745.505,1139.6 747.519,1164.56 749.534,1108.01 751.548,1015.66 753.562,927.805 755.576,745.722 757.59,828.719 759.605,1026.31 761.619,1072.46 
  763.633,959.48 765.647,958.756 767.661,1127.61 769.675,1193.25 771.69,1180.86 773.704,1083.13 775.718,1010.37 777.732,1113.47 779.746,1165.35 781.76,1133.72 
  783.775,982.477 785.789,743.753 787.803,846.793 789.817,887.069 791.831,742.538 793.845,776.657 795.86,856.065 797.874,870.09 799.888,847.813 801.902,907.119 
  803.916,1061.96 805.931,1086.99 807.945,978.958 809.959,655.458 811.973,316.731 813.987,555.548 816.001,959.431 818.016,1140.86 820.03,1213.29 822.044,1237.89 
  824.058,1225.93 826.072,1165.01 828.086,1150.31 830.101,1211.31 832.115,1219.42 834.129,1171.17 836.143,1029.7 838.157,777.343 840.171,674.749 842.186,913.752 
  844.2,1001.01 846.214,917.743 848.228,912.741 850.242,894.357 852.257,972.381 854.271,1144.84 856.285,1216.9 858.299,1231.03 860.313,1206.35 862.327,1123.7 
  864.342,905.695 866.356,775.693 868.37,1005.3 870.384,1129.19 872.398,1125 874.412,987.166 876.427,876.066 878.441,1068.07 880.455,1187.14 882.469,1234.39 
  884.483,1238.98 886.498,1212.42 888.512,1137.55 890.526,965.219 892.54,693.954 894.554,362.358 896.568,563.347 898.583,979.462 900.597,1165.49 902.611,1244.65 
  904.625,1283 906.639,1303.31 908.653,1314.26 910.668,1319.43 912.682,1320.2 914.696,1316.7 916.71,1307.73 918.724,1289.99 920.738,1255.13 922.753,1180.21 
  924.767,1001.37 926.781,704.797 928.795,727.512 930.809,749.887 932.824,721.99 934.838,1008.65 936.852,1175.35 938.866,1242.13 940.88,1266.99 942.894,1268.43 
  944.909,1245.83 946.923,1177.74 948.937,997.143 950.951,754.049 952.965,956.855 954.979,1152.61 956.994,1225.09 959.008,1232.55 961.022,1218.09 963.036,1222.48 
  965.05,1207.19 967.064,1208.63 969.079,1161.49 971.093,1008.6 973.107,716.547 975.121,557.23 977.135,445.58 979.15,726.888 981.164,1046.48 983.178,1194.9 
  985.192,1260.15 987.206,1292.64 989.22,1310.27 991.235,1320.02 993.249,1324.88 995.263,1326.11 997.277,1323.99 999.291,1317.99 1001.31,1306.44 1003.32,1285.49 
  1005.33,1245.87 1007.35,1162.73 1009.36,967.109 1011.38,613.938 1013.39,495.229 1015.4,652.523 1017.42,822.735 1019.43,1077.19 1021.45,1190.78 1023.46,1228.44 
  1025.48,1220.05 1027.49,1145.79 1029.5,999.258 1031.52,1072.79 1033.53,1197.36 1035.55,1234.05 1037.56,1214.47 1039.57,1126.13 1041.59,971.491 1043.6,998.072 
  1045.62,1148.64 1047.63,1196.09 1049.65,1165.76 1051.66,1029.98 1053.67,715.79 1055.69,670.877 1057.7,904.185 1059.72,1115.07 1061.73,1222.3 1063.74,1265.87 
  1065.76,1281.59 1067.77,1280.18 1069.79,1259.69 1071.8,1202.96 1073.82,1083.93 1075.83,938.383 1077.84,938.451 1079.86,946.654 1081.87,858.914 1083.89,963.46 
  1085.9,987.837 1087.91,991.471 1089.93,1046.19 1091.94,1008.19 1093.96,954.004 1095.97,917.172 1097.99,806.364 1100,960.59 1102.01,1129.1 1104.03,1196 
  1106.04,1185 1108.06,1099.31 1110.07,987.611 1112.09,979.512 1114.1,1086.84 1116.11,1200.62 1118.13,1256.08 1120.14,1271.75 1122.16,1265.47 1124.17,1234.6 
  1126.18,1143.19 1128.2,1063.34 1130.21,1080.2 1132.23,1093.18 1134.24,1144 1136.26,1208.54 1138.27,1203.89 1140.28,1124.93 1142.3,1021.45 1144.31,1002.63 
  1146.33,949.664 1148.34,1031.51 1150.35,1022.47 1152.37,974.694 1154.38,963.592 1156.4,971.491 1158.41,1152.06 1160.43,1244.8 1162.44,1273.65 1164.45,1263.41 
  1166.47,1222.92 1168.48,1252.19 1170.5,1298.97 1172.51,1315.54 1174.52,1315.31 1176.54,1300.39 1178.55,1258.82 1180.57,1153.76 1182.58,1032.33 1184.6,1099.54 
  1186.61,1079.44 1188.62,1076.58 1190.64,1190.83 1192.65,1254.01 1194.67,1254.99 1196.68,1195.07 1198.69,1123.63 1200.71,1157.05 1202.72,1172.54 1204.74,1245.29 
  1206.75,1292.67 1208.77,1301.16 1210.78,1276.47 1212.79,1200.66 1214.81,1182.18 1216.82,1267.37 1218.84,1304.55 1220.85,1306.56 1222.86,1274.91 1224.88,1195.98 
  1226.89,1207.15 1228.91,1282.21 1230.92,1308.02 1232.94,1299.99 1234.95,1249.32 1236.96,1166.15 1238.98,1229.76 1240.99,1301.59 1243.01,1329.13 1245.02,1337.48 
  1247.03,1334.68 1249.05,1318.14 1251.06,1271 1253.08,1164.88 1255.09,1163.06 1257.11,1271.36 1259.12,1321.25 1261.13,1340.69 1263.15,1347.93 1265.16,1348.33 
  1267.18,1341.8 1269.19,1322.55 1271.2,1271.31 1273.22,1174.87 1275.23,1213.54 1277.25,1299.52 1279.26,1335.8 1281.28,1350.73 1283.29,1357.33 1285.3,1359.9 
  1287.32,1359.77 1289.33,1356.91 1291.35,1349.84 1293.36,1333.98 1295.37,1295.52 1297.39,1204.39 1299.4,1163.48 1301.42,1265.9 1303.43,1320.46 1305.45,1341.18 
  1307.46,1348.6 1309.47,1348.98 1311.49,1342.78 1313.5,1325.24 1315.52,1279.73 1317.53,1180.75 1319.54,1182.3 1321.56,1279.03 1323.57,1321.68 1325.59,1336.03 
  1327.6,1337.2 1329.62,1326.77 1331.63,1295.21 1333.64,1214.04 1335.66,1142.32 1337.67,1236.07 1339.69,1293.41 1341.7,1303.02 1343.72,1275.22 1345.73,1193.33 
  1347.74,1181.63 1349.76,1269.01 1351.77,1305 1353.79,1305.19 1355.8,1269.79 1357.81,1186.75 1359.83,1205.89 1361.84,1281.79 1363.86,1307.95 1365.87,1303.01 
  1367.89,1263.84 1369.9,1204.26 1371.91,1201.45 1373.93,1189.55 1375.94,1239.67 1377.96,1267.94 1379.97,1243.77 1381.98,1145.75 1384,984.493 1386.01,1009.54 
  1388.03,1095 1390.04,1073.1 1392.06,1184.15 1394.07,1275.38 1396.08,1313.17 1398.1,1328.97 1400.11,1334.13 1402.13,1330.63 1404.14,1314.83 1406.15,1299.69 
  1408.17,1304.09 1410.18,1289.87 1412.2,1239.68 1414.21,1110.29 1416.23,883.857 1418.24,937.171 1420.25,1089.47 1422.27,1185.2 1424.28,1208.34 1426.3,1180.22 
  1428.31,1133.57 1430.32,1162.71 1432.34,1167.58 1434.35,1197.42 1436.37,1227.65 1438.38,1255.41 1440.4,1267.83 1442.41,1277.37 1444.42,1287.79 1446.44,1307.86 
  1448.45,1329.46 1450.47,1335.26 1452.48,1331.35 1454.49,1317.52 1456.51,1282.73 1458.52,1194.25 1460.54,1029.78 1462.55,1056.11 1464.57,1144.28 1466.58,1238.24 
  1468.59,1287.88 1470.61,1294.39 1472.62,1268.8 1474.64,1225.36 1476.65,1206.26 1478.66,1216.83 1480.68,1253.07 1482.69,1266.75 1484.71,1274.14 1486.72,1246.04 
  1488.74,1235.81 1490.75,1238.9 1492.76,1210.36 1494.78,1221.04 1496.79,1202.79 1498.81,1257.1 1500.82,1315.9 1502.83,1340.55 1504.85,1351.11 1506.86,1355.03 
  1508.88,1354.18 1510.89,1347.48 1512.91,1328.97 1514.92,1284.13 1516.93,1216.19 1518.95,1220.26 1520.96,1298.52 1522.98,1334.94 1524.99,1347.47 1527,1345.71 
  1529.02,1327.62 1531.03,1323.03 1533.05,1346.01 1535.06,1356.78 1537.08,1361.6 1539.09,1358.87 1541.1,1346.37 1543.12,1342.83 1545.13,1357.13 1547.15,1364.85 
  1549.16,1365.66 1551.17,1361.13 1553.19,1347.21 1555.2,1316.87 1557.22,1305.25 1559.23,1301.59 1561.25,1315.59 1563.26,1344.49 1565.27,1362.57 1567.29,1370.44 
  1569.3,1374.24 1571.32,1376.28 1573.33,1377.44 1575.35,1378.07 1577.36,1378.34 1579.37,1378.29 1581.39,1377.89 1583.4,1377.04 1585.42,1375.47 1587.43,1372.58 
  1589.44,1366.89 1591.46,1354.27 1593.47,1324.81 1595.49,1282.58 1597.5,1294.02 1599.52,1321.92 1601.53,1350 1603.54,1364.31 1605.56,1369.48 1607.57,1370.21 
  1609.59,1371.89 1611.6,1372.44 1613.61,1373.06 1615.63,1373.36 1617.64,1369.55 1619.66,1357.84 1621.67,1347.23 1623.69,1361.77 1625.7,1371.78 1627.71,1375.53 
  1629.73,1376.66 1631.74,1376.27 1633.76,1374.18 1635.77,1368.77 1637.78,1355.08 1639.8,1334.48 1641.81,1341.45 1643.83,1347.19 1645.84,1349.84 1647.86,1364.88 
  1649.87,1373.37 1651.88,1377 1653.9,1378.72 1655.91,1379.58 1657.93,1379.97 1659.94,1380.06 1661.95,1379.87 1663.97,1379.39 1665.98,1378.5 1668,1376.94 
  1670.01,1374.08 1672.03,1368.35 1674.04,1355.2 1676.05,1324.96 1678.07,1303.14 1680.08,1319.49 1682.1,1346.06 1684.11,1361.44 1686.12,1369.56 1688.14,1373.17 
  1690.15,1374.12 1692.17,1372.54 1694.18,1367.6 1696.2,1362.02 1698.21,1366.16 1700.22,1371.03 1702.24,1371.18 1704.25,1366.61 1706.27,1357.34 1708.28,1360.06 
  1710.29,1365.28 1712.31,1364.46 1714.32,1359.95 1716.34,1350.48 1718.35,1328.41 1720.37,1276.52 1722.38,1210.46 1724.39,1222.45 1726.41,1205.91 1728.42,1238.12 
  1730.44,1225.76 1732.45,1171.9 1734.46,1247.52 1736.48,1312.47 1738.49,1338.8 1740.51,1348.78 1742.52,1345.63 1744.54,1329.5 1746.55,1338.25 1748.56,1357.59 
  1750.58,1365.64 1752.59,1368.03 1754.61,1366.91 1756.62,1360.98 1758.63,1345.47 1760.65,1330.04 1762.66,1332.09 1764.68,1346.48 1766.69,1348.53 1768.71,1332.42 
  1770.72,1286.09 1772.73,1260.62 1774.75,1303.45 1776.76,1309.43 1778.78,1314.53 1780.79,1329.73 1782.81,1343.64 1784.82,1357.45 1786.83,1362.43 1788.85,1368.85 
  1790.86,1371.76 1792.88,1371.93 1794.89,1368.24 1796.9,1362.93 1798.92,1369.87 1800.93,1375.39 1802.95,1377.25 1804.96,1377.25 1806.98,1375.83 1808.99,1375.19 
  1811,1375.19 1813.02,1371.92 1815.03,1362.51 1817.05,1352.83 1819.06,1356.33 1821.07,1353.65 1823.09,1362.15 1825.1,1370.32 1827.12,1372.19 1829.13,1369.99 
  1831.15,1366.56 1833.16,1361.54 1835.17,1345.32 1837.19,1303.75 1839.2,1272.52 1841.22,1317.43 1843.23,1350.28 1845.24,1361.26 1847.26,1361.4 1849.27,1365.24 
  1851.29,1372.68 1853.3,1376.45 1855.32,1377.94 1857.33,1377.84 1859.34,1376.21 1861.36,1373.34 1863.37,1370.52 1865.39,1373.84 1867.4,1377.05 1869.41,1377.17 
  1871.43,1377.19 1873.44,1375.54 1875.46,1371.69 1877.47,1369.27 1879.49,1371.68 1881.5,1369.87 1883.51,1360.9 1885.53,1356.27 1887.54,1352.01 1889.56,1362.16 
  1891.57,1373.14 1893.58,1377.78 1895.6,1379.72 1897.61,1380.5 1899.63,1380.6 1901.64,1380.02 1903.66,1378.76 1905.67,1377.42 1907.68,1374.31 1909.7,1366.99 
  1911.71,1355.04 1913.73,1344.37 1915.74,1337.22 1917.75,1357.14 1919.77,1368.19 1921.78,1369.73 1923.8,1365.58 1925.81,1363.95 1927.83,1366.32 1929.84,1373.17 
  1931.85,1375.88 1933.87,1374.71 1935.88,1370.46 1937.9,1369.65 1939.91,1375 1941.92,1376.65 1943.94,1374.26 1945.95,1373.6 1947.97,1376.42 1949.98,1375.7 
  1952,1370.05 1954.01,1365.28 1956.02,1367.96 1958.04,1367.23 1960.05,1371.08 1962.07,1371.32 1964.08,1370.99 1966.09,1369.97 1968.11,1373.5 1970.12,1376.7 
  1972.14,1378.93 1974.15,1380.19 1976.17,1381.44 1978.18,1381.86 1980.19,1381.43 1982.21,1379.59 1984.22,1376.98 1986.24,1378.89 1988.25,1380.2 1990.26,1379.28 
  1992.28,1378.46 1994.29,1379.57 1996.31,1379.23 1998.32,1376.98 2000.34,1371.27 2002.35,1357.43 2004.36,1340.22 2006.38,1340.73 2008.39,1360.29 2010.41,1372.53 
  2012.42,1377.45 2014.44,1379.36 2016.45,1379.56 2018.46,1378.25 2020.48,1378.4 2022.49,1378.58 2024.51,1376.79 2026.52,1371.98 2028.53,1366.52 2030.55,1370.36 
  2032.56,1376.45 2034.58,1378.84 2036.59,1378.15 2038.61,1375.91 2040.62,1376.65 2042.63,1379.63 2044.65,1380.42 2046.66,1379.66 2048.68,1379.38 2050.69,1379.14 
  2052.7,1375.77 2054.72,1368.68 2056.73,1369.73 2058.75,1376.71 2060.76,1379.83 2062.78,1380.43 2064.79,1381.3 2066.8,1381.93 2068.82,1381.56 2070.83,1379.66 
  2072.85,1375.08 2074.86,1374.74 2076.87,1379.28 2078.89,1381.14 2080.9,1381.35 2082.92,1380.46 2084.93,1379.17 2086.95,1376.43 2088.96,1368.79 2090.97,1354.34 
  2092.99,1354.82 2095,1369.92 2097.02,1376.76 2099.03,1379.28 2101.04,1379.35 2103.06,1377 2105.07,1376.08 2107.09,1379.39 2109.1,1381.5 2111.12,1382.07 
  2113.13,1381.62 2115.14,1379.72 2117.16,1376.83 2119.17,1375.51 2121.19,1373.95 2123.2,1377.59 2125.21,1379.82 2127.23,1379.94 2129.24,1379.57 2131.26,1379.49 
  2133.27,1377.16 2135.29,1373.44 2137.3,1377.27 2139.31,1380.23 2141.33,1380.9 2143.34,1381.34 2145.36,1380.55 2147.37,1379.68 2149.38,1380.77 2151.4,1380.14 
  2153.41,1376.76 2155.43,1375.51 2157.44,1378.3 2159.46,1377.55 2161.47,1376.38 2163.48,1379.4 2165.5,1381.01 2167.51,1380.73 2169.53,1378.27 2171.54,1372.52 
  2173.55,1372.67 2175.57,1376.7 2177.58,1375.9 2179.6,1372.28 2181.61,1373.89 2183.63,1378.35 2185.64,1378.86 2187.65,1377.56 2189.67,1379.53 2191.68,1380.7 
  2193.7,1380.11 2195.71,1381.48 2197.72,1382.91 2199.74,1383.38 2201.75,1383.28 2203.77,1382.5 2205.78,1380.5 2207.8,1379.03 2209.81,1379.71 2211.82,1380.7 
  2213.84,1379.87 2215.85,1380.03 2217.87,1380.35 2219.88,1377.78 2221.9,1374.45 2223.91,1378.22 2225.92,1380.67 2227.94,1381.73 2229.95,1382.44 2231.97,1382.26 
  2233.98,1380.81 2235.99,1378.51 2238.01,1377.18 2240.02,1378.9 2242.04,1378.48 2244.05,1374.19 2246.07,1370.8 2248.08,1373.86 2250.09,1377.39 2252.11,1379.9 
  2254.12,1381.85 2256.14,1382.5 2258.15,1382.13 2260.16,1380.24 2262.18,1376.08 2264.19,1376.97 2266.21,1380.9 2268.22,1382.61 2270.24,1383.07 2272.25,1382.71 
  2274.26,1381.08 2276.28,1377.85 2278.29,1378.47 2280.31,1381.08 2282.32,1382.7 2284.33,1383.68 2286.35,1384.11 2288.36,1384.24 2290.38,1384.17 2292.39,1383.84 
  
  "/>
<path clip-path="url(#clip940)" d="
M1992.24 196.789 L2281.66 196.789 L2281.66 93.1086 L1992.24 93.1086  Z
  " fill="#ffffff" fill-rule="evenodd" fill-opacity="1"/>
<polyline clip-path="url(#clip940)" style="stroke:#000000; stroke-linecap:round; stroke-linejoin:round; stroke-width:4; stroke-opacity:1; fill:none" points="
  1992.24,196.789 2281.66,196.789 2281.66,93.1086 1992.24,93.1086 1992.24,196.789 
  "/>
<polyline clip-path="url(#clip940)" style="stroke:#009af9; stroke-linecap:round; stroke-linejoin:round; stroke-width:4; stroke-opacity:1; fill:none" points="
  2015.94,144.949 2158.13,144.949 
  "/>
<path clip-path="url(#clip940)" d="M2195.67 164.636 Q2193.87 169.266 2192.16 170.678 Q2190.44 172.09 2187.57 172.09 L2184.17 172.09 L2184.17 168.525 L2186.67 168.525 Q2188.43 168.525 2189.4 167.692 Q2190.37 166.858 2191.55 163.756 L2192.32 161.812 L2181.83 136.303 L2186.35 136.303 L2194.45 156.581 L2202.55 136.303 L2207.06 136.303 L2195.67 164.636 Z" fill="#000000" fill-rule="evenodd" fill-opacity="1" /><path clip-path="url(#clip940)" d="M2214.35 158.293 L2221.99 158.293 L2221.99 131.928 L2213.68 133.595 L2213.68 129.335 L2221.95 127.669 L2226.62 127.669 L2226.62 158.293 L2234.26 158.293 L2234.26 162.229 L2214.35 162.229 L2214.35 158.293 Z" fill="#000000" fill-rule="evenodd" fill-opacity="1" /></svg>
