<?xml version="1.0" encoding="utf-8"?>
<svg xmlns="http://www.w3.org/2000/svg" xmlns:xlink="http://www.w3.org/1999/xlink" width="600" height="400" viewBox="0 0 2400 1600">
<defs>
  <clipPath id="clip680">
    <rect x="0" y="0" width="2400" height="1600"/>
  </clipPath>
</defs>
<path clip-path="url(#clip680)" d="
M0 1600 L2400 1600 L2400 0 L0 0  Z
  " fill="#ffffff" fill-rule="evenodd" fill-opacity="1"/>
<defs>
  <clipPath id="clip681">
    <rect x="480" y="0" width="1681" height="1600"/>
  </clipPath>
</defs>
<path clip-path="url(#clip680)" d="
M219.866 1423.18 L2352.76 1423.18 L2352.76 47.2441 L219.866 47.2441  Z
  " fill="#ffffff" fill-rule="evenodd" fill-opacity="1"/>
<defs>
  <clipPath id="clip682">
    <rect x="219" y="47" width="2134" height="1377"/>
  </clipPath>
</defs>
<polyline clip-path="url(#clip682)" style="stroke:#000000; stroke-linecap:butt; stroke-linejoin:round; stroke-width:2; stroke-opacity:0.1; fill:none" points="
  280.231,1423.18 280.231,47.2441 
  "/>
<polyline clip-path="url(#clip682)" style="stroke:#000000; stroke-linecap:butt; stroke-linejoin:round; stroke-width:2; stroke-opacity:0.1; fill:none" points="
  783.271,1423.18 783.271,47.2441 
  "/>
<polyline clip-path="url(#clip682)" style="stroke:#000000; stroke-linecap:butt; stroke-linejoin:round; stroke-width:2; stroke-opacity:0.1; fill:none" points="
  1286.31,1423.18 1286.31,47.2441 
  "/>
<polyline clip-path="url(#clip682)" style="stroke:#000000; stroke-linecap:butt; stroke-linejoin:round; stroke-width:2; stroke-opacity:0.1; fill:none" points="
  1789.35,1423.18 1789.35,47.2441 
  "/>
<polyline clip-path="url(#clip682)" style="stroke:#000000; stroke-linecap:butt; stroke-linejoin:round; stroke-width:2; stroke-opacity:0.1; fill:none" points="
  2292.39,1423.18 2292.39,47.2441 
  "/>
<polyline clip-path="url(#clip680)" style="stroke:#000000; stroke-linecap:butt; stroke-linejoin:round; stroke-width:4; stroke-opacity:1; fill:none" points="
  219.866,1423.18 2352.76,1423.18 
  "/>
<polyline clip-path="url(#clip680)" style="stroke:#000000; stroke-linecap:butt; stroke-linejoin:round; stroke-width:4; stroke-opacity:1; fill:none" points="
  280.231,1423.18 280.231,1404.28 
  "/>
<polyline clip-path="url(#clip680)" style="stroke:#000000; stroke-linecap:butt; stroke-linejoin:round; stroke-width:4; stroke-opacity:1; fill:none" points="
  783.271,1423.18 783.271,1404.28 
  "/>
<polyline clip-path="url(#clip680)" style="stroke:#000000; stroke-linecap:butt; stroke-linejoin:round; stroke-width:4; stroke-opacity:1; fill:none" points="
  1286.31,1423.18 1286.31,1404.28 
  "/>
<polyline clip-path="url(#clip680)" style="stroke:#000000; stroke-linecap:butt; stroke-linejoin:round; stroke-width:4; stroke-opacity:1; fill:none" points="
  1789.35,1423.18 1789.35,1404.28 
  "/>
<polyline clip-path="url(#clip680)" style="stroke:#000000; stroke-linecap:butt; stroke-linejoin:round; stroke-width:4; stroke-opacity:1; fill:none" points="
  2292.39,1423.18 2292.39,1404.28 
  "/>
<path clip-path="url(#clip680)" d="M249.132 1468.75 L278.807 1468.75 L278.807 1472.69 L249.132 1472.69 L249.132 1468.75 Z" fill="#000000" fill-rule="evenodd" fill-opacity="1" /><path clip-path="url(#clip680)" d="M301.747 1455.09 L289.942 1473.54 L301.747 1473.54 L301.747 1455.09 M300.52 1451.02 L306.4 1451.02 L306.4 1473.54 L311.33 1473.54 L311.33 1477.43 L306.4 1477.43 L306.4 1485.58 L301.747 1485.58 L301.747 1477.43 L286.145 1477.43 L286.145 1472.92 L300.52 1451.02 Z" fill="#000000" fill-rule="evenodd" fill-opacity="1" /><path clip-path="url(#clip680)" d="M753.213 1468.75 L782.889 1468.75 L782.889 1472.69 L753.213 1472.69 L753.213 1468.75 Z" fill="#000000" fill-rule="evenodd" fill-opacity="1" /><path clip-path="url(#clip680)" d="M797.009 1481.64 L813.329 1481.64 L813.329 1485.58 L791.384 1485.58 L791.384 1481.64 Q794.046 1478.89 798.63 1474.26 Q803.236 1469.61 804.417 1468.27 Q806.662 1465.74 807.542 1464.01 Q808.445 1462.25 808.445 1460.56 Q808.445 1457.8 806.5 1456.07 Q804.579 1454.33 801.477 1454.33 Q799.278 1454.33 796.824 1455.09 Q794.394 1455.86 791.616 1457.41 L791.616 1452.69 Q794.44 1451.55 796.894 1450.97 Q799.347 1450.39 801.384 1450.39 Q806.755 1450.39 809.949 1453.08 Q813.144 1455.77 813.144 1460.26 Q813.144 1462.39 812.333 1464.31 Q811.546 1466.2 809.44 1468.8 Q808.861 1469.47 805.759 1472.69 Q802.658 1475.88 797.009 1481.64 Z" fill="#000000" fill-rule="evenodd" fill-opacity="1" /><path clip-path="url(#clip680)" d="M1286.31 1454.1 Q1282.7 1454.1 1280.87 1457.66 Q1279.07 1461.2 1279.07 1468.33 Q1279.07 1475.44 1280.87 1479.01 Q1282.7 1482.55 1286.31 1482.55 Q1289.95 1482.55 1291.75 1479.01 Q1293.58 1475.44 1293.58 1468.33 Q1293.58 1461.2 1291.75 1457.66 Q1289.95 1454.1 1286.31 1454.1 M1286.31 1450.39 Q1292.12 1450.39 1295.18 1455 Q1298.26 1459.58 1298.26 1468.33 Q1298.26 1477.06 1295.18 1481.67 Q1292.12 1486.25 1286.31 1486.25 Q1280.5 1486.25 1277.42 1481.67 Q1274.37 1477.06 1274.37 1468.33 Q1274.37 1459.58 1277.42 1455 Q1280.5 1450.39 1286.31 1450.39 Z" fill="#000000" fill-rule="evenodd" fill-opacity="1" /><path clip-path="url(#clip680)" d="M1784 1481.64 L1800.32 1481.64 L1800.32 1485.58 L1778.38 1485.58 L1778.38 1481.64 Q1781.04 1478.89 1785.62 1474.26 Q1790.23 1469.61 1791.41 1468.27 Q1793.66 1465.74 1794.54 1464.01 Q1795.44 1462.25 1795.44 1460.56 Q1795.44 1457.8 1793.49 1456.07 Q1791.57 1454.33 1788.47 1454.33 Q1786.27 1454.33 1783.82 1455.09 Q1781.39 1455.86 1778.61 1457.41 L1778.61 1452.69 Q1781.43 1451.55 1783.89 1450.97 Q1786.34 1450.39 1788.38 1450.39 Q1793.75 1450.39 1796.94 1453.08 Q1800.14 1455.77 1800.14 1460.26 Q1800.14 1462.39 1799.33 1464.31 Q1798.54 1466.2 1796.43 1468.8 Q1795.86 1469.47 1792.75 1472.69 Q1789.65 1475.88 1784 1481.64 Z" fill="#000000" fill-rule="evenodd" fill-opacity="1" /><path clip-path="url(#clip680)" d="M2295.4 1455.09 L2283.59 1473.54 L2295.4 1473.54 L2295.4 1455.09 M2294.17 1451.02 L2300.05 1451.02 L2300.05 1473.54 L2304.98 1473.54 L2304.98 1477.43 L2300.05 1477.43 L2300.05 1485.58 L2295.4 1485.58 L2295.4 1477.43 L2279.8 1477.43 L2279.8 1472.92 L2294.17 1451.02 Z" fill="#000000" fill-rule="evenodd" fill-opacity="1" /><path clip-path="url(#clip680)" d="M1129.64 1520.52 L1159.68 1520.52 L1159.68 1525.93 L1136.06 1525.93 L1136.06 1540 L1158.69 1540 L1158.69 1545.41 L1136.06 1545.41 L1136.06 1562.63 L1160.25 1562.63 L1160.25 1568.04 L1129.64 1568.04 L1129.64 1520.52 Z" fill="#000000" fill-rule="evenodd" fill-opacity="1" /><path clip-path="url(#clip680)" d="M1200.2 1546.53 L1200.2 1568.04 L1194.34 1568.04 L1194.34 1546.72 Q1194.34 1541.66 1192.37 1539.14 Q1190.4 1536.63 1186.45 1536.63 Q1181.71 1536.63 1178.97 1539.65 Q1176.23 1542.68 1176.23 1547.9 L1176.23 1568.04 L1170.34 1568.04 L1170.34 1532.4 L1176.23 1532.4 L1176.23 1537.93 Q1178.33 1534.72 1181.17 1533.13 Q1184.03 1531.54 1187.75 1531.54 Q1193.9 1531.54 1197.05 1535.36 Q1200.2 1539.14 1200.2 1546.53 Z" fill="#000000" fill-rule="evenodd" fill-opacity="1" /><path clip-path="url(#clip680)" d="M1242.37 1548.76 L1242.37 1551.62 L1215.44 1551.62 Q1215.83 1557.67 1219.07 1560.85 Q1222.35 1564 1228.18 1564 Q1231.55 1564 1234.7 1563.17 Q1237.88 1562.35 1241 1560.69 L1241 1566.23 Q1237.85 1567.57 1234.54 1568.27 Q1231.23 1568.97 1227.83 1568.97 Q1219.3 1568.97 1214.3 1564 Q1209.33 1559.04 1209.33 1550.57 Q1209.33 1541.82 1214.04 1536.69 Q1218.79 1531.54 1226.81 1531.54 Q1234 1531.54 1238.17 1536.18 Q1242.37 1540.8 1242.37 1548.76 M1236.52 1547.04 Q1236.45 1542.23 1233.81 1539.37 Q1231.2 1536.5 1226.87 1536.5 Q1221.97 1536.5 1219.01 1539.27 Q1216.08 1542.04 1215.64 1547.07 L1236.52 1547.04 Z" fill="#000000" fill-rule="evenodd" fill-opacity="1" /><path clip-path="url(#clip680)" d="M1272.64 1537.87 Q1271.65 1537.3 1270.48 1537.04 Q1269.33 1536.76 1267.93 1536.76 Q1262.96 1536.76 1260.29 1540 Q1257.65 1543.22 1257.65 1549.27 L1257.65 1568.04 L1251.76 1568.04 L1251.76 1532.4 L1257.65 1532.4 L1257.65 1537.93 Q1259.5 1534.69 1262.46 1533.13 Q1265.42 1531.54 1269.65 1531.54 Q1270.25 1531.54 1270.99 1531.63 Q1271.72 1531.7 1272.61 1531.85 L1272.64 1537.87 Z" fill="#000000" fill-rule="evenodd" fill-opacity="1" /><path clip-path="url(#clip680)" d="M1301.1 1549.81 Q1301.1 1543.44 1298.45 1539.94 Q1295.84 1536.44 1291.1 1536.44 Q1286.39 1536.44 1283.75 1539.94 Q1281.14 1543.44 1281.14 1549.81 Q1281.14 1556.14 1283.75 1559.64 Q1286.39 1563.14 1291.1 1563.14 Q1295.84 1563.14 1298.45 1559.64 Q1301.1 1556.14 1301.1 1549.81 M1306.95 1563.62 Q1306.95 1572.72 1302.91 1577.15 Q1298.87 1581.6 1290.53 1581.6 Q1287.44 1581.6 1284.7 1581.13 Q1281.97 1580.68 1279.39 1579.72 L1279.39 1574.03 Q1281.97 1575.43 1284.48 1576.1 Q1287 1576.76 1289.61 1576.76 Q1295.37 1576.76 1298.23 1573.74 Q1301.1 1570.75 1301.1 1564.67 L1301.1 1561.77 Q1299.28 1564.92 1296.45 1566.48 Q1293.62 1568.04 1289.67 1568.04 Q1283.11 1568.04 1279.1 1563.05 Q1275.09 1558.05 1275.09 1549.81 Q1275.09 1541.53 1279.1 1536.53 Q1283.11 1531.54 1289.67 1531.54 Q1293.62 1531.54 1296.45 1533.1 Q1299.28 1534.66 1301.1 1537.81 L1301.1 1532.4 L1306.95 1532.4 L1306.95 1563.62 Z" fill="#000000" fill-rule="evenodd" fill-opacity="1" /><path clip-path="url(#clip680)" d="M1333.85 1571.35 Q1331.36 1577.72 1329.01 1579.66 Q1326.65 1581.6 1322.71 1581.6 L1318.03 1581.6 L1318.03 1576.7 L1321.47 1576.7 Q1323.88 1576.7 1325.22 1575.56 Q1326.56 1574.41 1328.18 1570.14 L1329.23 1567.47 L1314.81 1532.4 L1321.02 1532.4 L1332.16 1560.28 L1343.3 1532.4 L1349.51 1532.4 L1333.85 1571.35 Z" fill="#000000" fill-rule="evenodd" fill-opacity="1" /><path clip-path="url(#clip680)" d="M1377.77 1518.52 L1391.27 1518.52 L1391.27 1523.07 L1383.63 1523.07 L1383.63 1572.09 L1391.27 1572.09 L1391.27 1576.64 L1377.77 1576.64 L1377.77 1518.52 Z" fill="#000000" fill-rule="evenodd" fill-opacity="1" /><path clip-path="url(#clip680)" d="M1409.54 1522.27 L1409.54 1532.4 L1421.6 1532.4 L1421.6 1536.95 L1409.54 1536.95 L1409.54 1556.3 Q1409.54 1560.66 1410.71 1561.9 Q1411.92 1563.14 1415.58 1563.14 L1421.6 1563.14 L1421.6 1568.04 L1415.58 1568.04 Q1408.8 1568.04 1406.23 1565.53 Q1403.65 1562.98 1403.65 1556.3 L1403.65 1536.95 L1399.35 1536.95 L1399.35 1532.4 L1403.65 1532.4 L1403.65 1522.27 L1409.54 1522.27 Z" fill="#000000" fill-rule="evenodd" fill-opacity="1" /><path clip-path="url(#clip680)" d="M1442.99 1518.52 L1442.99 1576.64 L1429.49 1576.64 L1429.49 1572.09 L1437.1 1572.09 L1437.1 1523.07 L1429.49 1523.07 L1429.49 1518.52 L1442.99 1518.52 Z" fill="#000000" fill-rule="evenodd" fill-opacity="1" /><polyline clip-path="url(#clip682)" style="stroke:#000000; stroke-linecap:butt; stroke-linejoin:round; stroke-width:2; stroke-opacity:0.1; fill:none" points="
  219.866,1385.72 2352.76,1385.72 
  "/>
<polyline clip-path="url(#clip682)" style="stroke:#000000; stroke-linecap:butt; stroke-linejoin:round; stroke-width:2; stroke-opacity:0.1; fill:none" points="
  219.866,1079.53 2352.76,1079.53 
  "/>
<polyline clip-path="url(#clip682)" style="stroke:#000000; stroke-linecap:butt; stroke-linejoin:round; stroke-width:2; stroke-opacity:0.1; fill:none" points="
  219.866,773.34 2352.76,773.34 
  "/>
<polyline clip-path="url(#clip682)" style="stroke:#000000; stroke-linecap:butt; stroke-linejoin:round; stroke-width:2; stroke-opacity:0.1; fill:none" points="
  219.866,467.149 2352.76,467.149 
  "/>
<polyline clip-path="url(#clip682)" style="stroke:#000000; stroke-linecap:butt; stroke-linejoin:round; stroke-width:2; stroke-opacity:0.1; fill:none" points="
  219.866,160.959 2352.76,160.959 
  "/>
<polyline clip-path="url(#clip680)" style="stroke:#000000; stroke-linecap:butt; stroke-linejoin:round; stroke-width:4; stroke-opacity:1; fill:none" points="
  219.866,1423.18 219.866,47.2441 
  "/>
<polyline clip-path="url(#clip680)" style="stroke:#000000; stroke-linecap:butt; stroke-linejoin:round; stroke-width:4; stroke-opacity:1; fill:none" points="
  219.866,1385.72 238.764,1385.72 
  "/>
<polyline clip-path="url(#clip680)" style="stroke:#000000; stroke-linecap:butt; stroke-linejoin:round; stroke-width:4; stroke-opacity:1; fill:none" points="
  219.866,1079.53 238.764,1079.53 
  "/>
<polyline clip-path="url(#clip680)" style="stroke:#000000; stroke-linecap:butt; stroke-linejoin:round; stroke-width:4; stroke-opacity:1; fill:none" points="
  219.866,773.34 238.764,773.34 
  "/>
<polyline clip-path="url(#clip680)" style="stroke:#000000; stroke-linecap:butt; stroke-linejoin:round; stroke-width:4; stroke-opacity:1; fill:none" points="
  219.866,467.149 238.764,467.149 
  "/>
<polyline clip-path="url(#clip680)" style="stroke:#000000; stroke-linecap:butt; stroke-linejoin:round; stroke-width:4; stroke-opacity:1; fill:none" points="
  219.866,160.959 238.764,160.959 
  "/>
<path clip-path="url(#clip680)" d="M126.691 1371.52 Q123.08 1371.52 121.251 1375.08 Q119.445 1378.63 119.445 1385.76 Q119.445 1392.86 121.251 1396.43 Q123.08 1399.97 126.691 1399.97 Q130.325 1399.97 132.13 1396.43 Q133.959 1392.86 133.959 1385.76 Q133.959 1378.63 132.13 1375.08 Q130.325 1371.52 126.691 1371.52 M126.691 1367.82 Q132.501 1367.82 135.556 1372.42 Q138.635 1377.01 138.635 1385.76 Q138.635 1394.48 135.556 1399.09 Q132.501 1403.67 126.691 1403.67 Q120.88 1403.67 117.802 1399.09 Q114.746 1394.48 114.746 1385.76 Q114.746 1377.01 117.802 1372.42 Q120.88 1367.82 126.691 1367.82 Z" fill="#000000" fill-rule="evenodd" fill-opacity="1" /><path clip-path="url(#clip680)" d="M146.853 1397.12 L151.737 1397.12 L151.737 1403 L146.853 1403 L146.853 1397.12 Z" fill="#000000" fill-rule="evenodd" fill-opacity="1" /><path clip-path="url(#clip680)" d="M171.922 1371.52 Q168.311 1371.52 166.482 1375.08 Q164.677 1378.63 164.677 1385.76 Q164.677 1392.86 166.482 1396.43 Q168.311 1399.97 171.922 1399.97 Q175.556 1399.97 177.362 1396.43 Q179.19 1392.86 179.19 1385.76 Q179.19 1378.63 177.362 1375.08 Q175.556 1371.52 171.922 1371.52 M171.922 1367.82 Q177.732 1367.82 180.788 1372.42 Q183.866 1377.01 183.866 1385.76 Q183.866 1394.48 180.788 1399.09 Q177.732 1403.67 171.922 1403.67 Q166.112 1403.67 163.033 1399.09 Q159.978 1394.48 159.978 1385.76 Q159.978 1377.01 163.033 1372.42 Q166.112 1367.82 171.922 1367.82 Z" fill="#000000" fill-rule="evenodd" fill-opacity="1" /><path clip-path="url(#clip680)" d="M128.288 1065.33 Q124.677 1065.33 122.848 1068.89 Q121.043 1072.44 121.043 1079.57 Q121.043 1086.67 122.848 1090.24 Q124.677 1093.78 128.288 1093.78 Q131.922 1093.78 133.728 1090.24 Q135.556 1086.67 135.556 1079.57 Q135.556 1072.44 133.728 1068.89 Q131.922 1065.33 128.288 1065.33 M128.288 1061.63 Q134.098 1061.63 137.154 1066.23 Q140.232 1070.82 140.232 1079.57 Q140.232 1088.29 137.154 1092.9 Q134.098 1097.48 128.288 1097.48 Q122.478 1097.48 119.399 1092.9 Q116.343 1088.29 116.343 1079.57 Q116.343 1070.82 119.399 1066.23 Q122.478 1061.63 128.288 1061.63 Z" fill="#000000" fill-rule="evenodd" fill-opacity="1" /><path clip-path="url(#clip680)" d="M148.45 1090.93 L153.334 1090.93 L153.334 1096.81 L148.45 1096.81 L148.45 1090.93 Z" fill="#000000" fill-rule="evenodd" fill-opacity="1" /><path clip-path="url(#clip680)" d="M167.547 1092.88 L183.866 1092.88 L183.866 1096.81 L161.922 1096.81 L161.922 1092.88 Q164.584 1090.12 169.167 1085.49 Q173.774 1080.84 174.954 1079.5 Q177.2 1076.97 178.079 1075.24 Q178.982 1073.48 178.982 1071.79 Q178.982 1069.03 177.038 1067.3 Q175.116 1065.56 172.014 1065.56 Q169.815 1065.56 167.362 1066.32 Q164.931 1067.09 162.153 1068.64 L162.153 1063.92 Q164.977 1062.78 167.431 1062.2 Q169.885 1061.63 171.922 1061.63 Q177.292 1061.63 180.487 1064.31 Q183.681 1067 183.681 1071.49 Q183.681 1073.62 182.871 1075.54 Q182.084 1077.44 179.977 1080.03 Q179.399 1080.7 176.297 1083.92 Q173.195 1087.11 167.547 1092.88 Z" fill="#000000" fill-rule="evenodd" fill-opacity="1" /><path clip-path="url(#clip680)" d="M126.205 759.139 Q122.593 759.139 120.765 762.703 Q118.959 766.245 118.959 773.375 Q118.959 780.481 120.765 784.046 Q122.593 787.588 126.205 787.588 Q129.839 787.588 131.644 784.046 Q133.473 780.481 133.473 773.375 Q133.473 766.245 131.644 762.703 Q129.839 759.139 126.205 759.139 M126.205 755.435 Q132.015 755.435 135.07 760.041 Q138.149 764.625 138.149 773.375 Q138.149 782.101 135.07 786.708 Q132.015 791.291 126.205 791.291 Q120.394 791.291 117.316 786.708 Q114.26 782.101 114.26 773.375 Q114.26 764.625 117.316 760.041 Q120.394 755.435 126.205 755.435 Z" fill="#000000" fill-rule="evenodd" fill-opacity="1" /><path clip-path="url(#clip680)" d="M146.366 784.74 L151.251 784.74 L151.251 790.62 L146.366 790.62 L146.366 784.74 Z" fill="#000000" fill-rule="evenodd" fill-opacity="1" /><path clip-path="url(#clip680)" d="M174.283 760.134 L162.477 778.583 L174.283 778.583 L174.283 760.134 M173.056 756.06 L178.936 756.06 L178.936 778.583 L183.866 778.583 L183.866 782.472 L178.936 782.472 L178.936 790.62 L174.283 790.62 L174.283 782.472 L158.681 782.472 L158.681 777.958 L173.056 756.06 Z" fill="#000000" fill-rule="evenodd" fill-opacity="1" /><path clip-path="url(#clip680)" d="M126.529 452.948 Q122.918 452.948 121.089 456.513 Q119.283 460.055 119.283 467.184 Q119.283 474.291 121.089 477.855 Q122.918 481.397 126.529 481.397 Q130.163 481.397 131.968 477.855 Q133.797 474.291 133.797 467.184 Q133.797 460.055 131.968 456.513 Q130.163 452.948 126.529 452.948 M126.529 449.244 Q132.339 449.244 135.394 453.851 Q138.473 458.434 138.473 467.184 Q138.473 475.911 135.394 480.517 Q132.339 485.101 126.529 485.101 Q120.718 485.101 117.64 480.517 Q114.584 475.911 114.584 467.184 Q114.584 458.434 117.64 453.851 Q120.718 449.244 126.529 449.244 Z" fill="#000000" fill-rule="evenodd" fill-opacity="1" /><path clip-path="url(#clip680)" d="M146.691 478.55 L151.575 478.55 L151.575 484.429 L146.691 484.429 L146.691 478.55 Z" fill="#000000" fill-rule="evenodd" fill-opacity="1" /><path clip-path="url(#clip680)" d="M172.339 465.286 Q169.19 465.286 167.339 467.439 Q165.51 469.592 165.51 473.341 Q165.51 477.068 167.339 479.244 Q169.19 481.397 172.339 481.397 Q175.487 481.397 177.315 479.244 Q179.167 477.068 179.167 473.341 Q179.167 469.592 177.315 467.439 Q175.487 465.286 172.339 465.286 M181.621 450.633 L181.621 454.893 Q179.862 454.059 178.056 453.619 Q176.274 453.18 174.514 453.18 Q169.885 453.18 167.431 456.305 Q165.001 459.43 164.653 465.749 Q166.019 463.735 168.079 462.67 Q170.139 461.582 172.616 461.582 Q177.825 461.582 180.834 464.754 Q183.866 467.902 183.866 473.341 Q183.866 478.666 180.718 481.883 Q177.57 485.101 172.339 485.101 Q166.343 485.101 163.172 480.517 Q160.001 475.911 160.001 467.184 Q160.001 458.99 163.89 454.129 Q167.778 449.244 174.329 449.244 Q176.089 449.244 177.871 449.592 Q179.676 449.939 181.621 450.633 Z" fill="#000000" fill-rule="evenodd" fill-opacity="1" /><path clip-path="url(#clip680)" d="M126.783 146.757 Q123.172 146.757 121.343 150.322 Q119.538 153.864 119.538 160.994 Q119.538 168.1 121.343 171.665 Q123.172 175.206 126.783 175.206 Q130.417 175.206 132.223 171.665 Q134.052 168.1 134.052 160.994 Q134.052 153.864 132.223 150.322 Q130.417 146.757 126.783 146.757 M126.783 143.054 Q132.593 143.054 135.649 147.66 Q138.728 152.244 138.728 160.994 Q138.728 169.72 135.649 174.327 Q132.593 178.91 126.783 178.91 Q120.973 178.91 117.894 174.327 Q114.839 169.72 114.839 160.994 Q114.839 152.244 117.894 147.66 Q120.973 143.054 126.783 143.054 Z" fill="#000000" fill-rule="evenodd" fill-opacity="1" /><path clip-path="url(#clip680)" d="M146.945 172.359 L151.829 172.359 L151.829 178.239 L146.945 178.239 L146.945 172.359 Z" fill="#000000" fill-rule="evenodd" fill-opacity="1" /><path clip-path="url(#clip680)" d="M172.014 161.827 Q168.681 161.827 166.76 163.609 Q164.862 165.392 164.862 168.517 Q164.862 171.642 166.76 173.424 Q168.681 175.206 172.014 175.206 Q175.348 175.206 177.269 173.424 Q179.19 171.618 179.19 168.517 Q179.19 165.392 177.269 163.609 Q175.371 161.827 172.014 161.827 M167.339 159.836 Q164.329 159.095 162.64 157.035 Q160.973 154.975 160.973 152.012 Q160.973 147.869 163.913 145.461 Q166.876 143.054 172.014 143.054 Q177.176 143.054 180.116 145.461 Q183.056 147.869 183.056 152.012 Q183.056 154.975 181.366 157.035 Q179.7 159.095 176.714 159.836 Q180.093 160.623 181.968 162.915 Q183.866 165.206 183.866 168.517 Q183.866 173.54 180.788 176.225 Q177.732 178.91 172.014 178.91 Q166.297 178.91 163.218 176.225 Q160.163 173.54 160.163 168.517 Q160.163 165.206 162.061 162.915 Q163.959 160.623 167.339 159.836 M165.626 152.452 Q165.626 155.137 167.292 156.642 Q168.982 158.146 172.014 158.146 Q175.024 158.146 176.714 156.642 Q178.426 155.137 178.426 152.452 Q178.426 149.767 176.714 148.262 Q175.024 146.757 172.014 146.757 Q168.982 146.757 167.292 148.262 Q165.626 149.767 165.626 152.452 Z" fill="#000000" fill-rule="evenodd" fill-opacity="1" /><path clip-path="url(#clip680)" d="M16.4842 896.471 L16.4842 890.042 L58.5933 890.042 L58.5933 866.903 L64.0042 866.903 L64.0042 896.471 L16.4842 896.471 Z" fill="#000000" fill-rule="evenodd" fill-opacity="1" /><path clip-path="url(#clip680)" d="M32.4621 847.742 Q32.4621 852.452 36.1542 855.19 Q39.8145 857.927 46.212 857.927 Q52.6095 857.927 56.3017 855.221 Q59.9619 852.484 59.9619 847.742 Q59.9619 843.063 56.2698 840.326 Q52.5777 837.588 46.212 837.588 Q39.8781 837.588 36.186 840.326 Q32.4621 843.063 32.4621 847.742 M27.4968 847.742 Q27.4968 840.103 32.4621 835.742 Q37.4273 831.382 46.212 831.382 Q54.9649 831.382 59.9619 835.742 Q64.9272 840.103 64.9272 847.742 Q64.9272 855.412 59.9619 859.773 Q54.9649 864.102 46.212 864.102 Q37.4273 864.102 32.4621 859.773 Q27.4968 855.412 27.4968 847.742 Z" fill="#000000" fill-rule="evenodd" fill-opacity="1" /><path clip-path="url(#clip680)" d="M29.7248 796.02 L35.1993 796.02 Q33.8307 798.503 33.1623 801.017 Q32.4621 803.5 32.4621 806.046 Q32.4621 811.744 36.0905 814.895 Q39.6872 818.046 46.212 818.046 Q52.7369 818.046 56.3653 814.895 Q59.9619 811.744 59.9619 806.046 Q59.9619 803.5 59.2935 801.017 Q58.5933 798.503 57.2247 796.02 L62.6355 796.02 Q63.7814 798.471 64.3543 801.113 Q64.9272 803.723 64.9272 806.683 Q64.9272 814.736 59.8664 819.478 Q54.8057 824.22 46.212 824.22 Q37.491 824.22 32.4939 819.446 Q27.4968 814.64 27.4968 806.301 Q27.4968 803.596 28.0697 801.017 Q28.6108 798.439 29.7248 796.02 Z" fill="#000000" fill-rule="evenodd" fill-opacity="1" /><path clip-path="url(#clip680)" d="M46.0847 769.635 Q46.0847 776.732 47.7079 779.47 Q49.3312 782.207 53.2461 782.207 Q56.3653 782.207 58.2114 780.17 Q60.0256 778.101 60.0256 774.568 Q60.0256 769.698 56.5881 766.77 Q53.1188 763.81 47.3897 763.81 L46.0847 763.81 L46.0847 769.635 M43.6657 757.953 L64.0042 757.953 L64.0042 763.81 L58.5933 763.81 Q61.8398 765.815 63.3994 768.807 Q64.9272 771.799 64.9272 776.128 Q64.9272 781.602 61.8716 784.849 Q58.7843 788.063 53.6281 788.063 Q47.6125 788.063 44.5569 784.053 Q41.5014 780.011 41.5014 772.022 L41.5014 763.81 L40.9285 763.81 Q36.8862 763.81 34.6901 766.484 Q32.4621 769.125 32.4621 773.931 Q32.4621 776.987 33.1941 779.883 Q33.9262 782.78 35.3903 785.453 L29.9795 785.453 Q28.7381 782.239 28.1334 779.215 Q27.4968 776.191 27.4968 773.327 Q27.4968 765.592 31.5072 761.773 Q35.5176 757.953 43.6657 757.953 Z" fill="#000000" fill-rule="evenodd" fill-opacity="1" /><path clip-path="url(#clip680)" d="M14.479 745.89 L14.479 740.034 L64.0042 740.034 L64.0042 745.89 L14.479 745.89 Z" fill="#000000" fill-rule="evenodd" fill-opacity="1" /><path clip-path="url(#clip680)" d="M21.7677 700.376 L58.7206 700.376 L58.7206 692.609 Q58.7206 682.774 54.2646 678.223 Q49.8086 673.64 40.1964 673.64 Q30.6479 673.64 26.2237 678.223 Q21.7677 682.774 21.7677 692.609 L21.7677 700.376 M16.4842 706.805 L16.4842 693.596 Q16.4842 679.783 22.2451 673.321 Q27.9743 666.86 40.1964 666.86 Q52.4822 666.86 58.2432 673.353 Q64.0042 679.846 64.0042 693.596 L64.0042 706.805 L16.4842 706.805 Z" fill="#000000" fill-rule="evenodd" fill-opacity="1" /><path clip-path="url(#clip680)" d="M20.8447 637.323 Q20.8447 644.326 26.0645 648.463 Q31.2844 652.569 40.2919 652.569 Q49.2675 652.569 54.4874 648.463 Q59.7073 644.326 59.7073 637.323 Q59.7073 630.321 54.4874 626.247 Q49.2675 622.141 40.2919 622.141 Q31.2844 622.141 26.0645 626.247 Q20.8447 630.321 20.8447 637.323 M15.6248 637.323 Q15.6248 627.329 22.3406 621.345 Q29.0246 615.362 40.2919 615.362 Q51.5274 615.362 58.2432 621.345 Q64.9272 627.329 64.9272 637.323 Q64.9272 647.349 58.2432 653.365 Q51.5592 659.349 40.2919 659.349 Q29.0246 659.349 22.3406 653.365 Q15.6248 647.349 15.6248 637.323 Z" fill="#000000" fill-rule="evenodd" fill-opacity="1" /><path clip-path="url(#clip680)" d="M18.0438 576.817 L24.314 576.817 Q22.5634 580.478 21.704 583.724 Q20.8447 586.971 20.8447 589.994 Q20.8447 595.246 22.8817 598.111 Q24.9187 600.943 28.6745 600.943 Q31.8255 600.943 33.4488 599.065 Q35.0402 597.156 36.0269 591.872 L36.8226 587.989 Q38.1912 580.796 41.6605 577.39 Q45.098 573.953 50.8908 573.953 Q57.7976 573.953 61.3624 578.6 Q64.9272 583.215 64.9272 592.159 Q64.9272 595.532 64.1633 599.352 Q63.3994 603.139 61.9035 607.214 L55.2831 607.214 Q57.4793 603.299 58.5933 599.543 Q59.7073 595.787 59.7073 592.159 Q59.7073 586.652 57.543 583.66 Q55.3786 580.669 51.3682 580.669 Q47.8671 580.669 45.8937 582.833 Q43.9204 584.965 42.9337 589.867 L42.1698 593.782 Q40.7375 600.975 37.682 604.19 Q34.6264 607.404 29.1837 607.404 Q22.8817 607.404 19.2532 602.98 Q15.6248 598.524 15.6248 590.726 Q15.6248 587.384 16.2295 583.915 Q16.8343 580.446 18.0438 576.817 Z" fill="#000000" fill-rule="evenodd" fill-opacity="1" /><polyline clip-path="url(#clip682)" style="stroke:#009af9; stroke-linecap:butt; stroke-linejoin:round; stroke-width:4; stroke-opacity:1; fill:none" points="
  280.231,1121.97 282.245,1204 284.259,1231.34 286.274,1230.38 288.288,1203.05 290.302,1131.27 292.316,966.303 294.33,648.523 296.344,242.427 298.359,360.014 
  300.373,847.531 302.387,1069.2 304.401,1143.91 306.415,1143.73 308.43,1060.32 310.444,821.13 312.458,656.175 314.472,932.611 316.486,1101.76 318.5,1143.19 
  320.515,1105.32 322.529,958.565 324.543,733.889 326.557,583.606 328.571,315.628 330.585,506.858 332.6,828.939 334.614,909.919 336.628,770.556 338.642,714.607 
  340.656,905.567 342.67,1086.77 344.685,1134.16 346.699,1096.07 348.713,1061.09 350.727,1004.81 352.741,796.667 354.756,811.494 356.77,949.153 358.784,854.886 
  360.798,794.345 362.812,933.657 364.826,888.302 366.841,816.007 368.855,949.413 370.869,1101.81 372.883,1165.13 374.897,1156.03 376.911,1066.95 378.926,830.474 
  380.94,697.326 382.954,849.835 384.968,746.02 386.982,602.313 388.996,838.531 391.011,949.476 393.025,834.676 395.039,640.971 397.053,814.354 399.067,951.188 
  401.082,839.519 403.096,697.665 405.11,944.629 407.124,1093.17 409.138,1115.03 411.152,1026.81 413.167,809.576 415.181,767.398 417.195,926.823 419.209,901.116 
  421.223,829.42 423.237,969.758 425.252,950.358 427.266,775.351 429.28,889.663 431.294,1014.5 433.308,1093.15 435.322,1106.93 437.337,1056.37 439.351,904.905 
  441.365,837.357 443.379,883.938 445.393,853.626 447.408,956.966 449.422,911.833 451.436,718.585 453.45,353.253 455.464,440.493 457.478,725.91 459.493,948.788 
  461.507,1100.97 463.521,1144.74 465.535,1112.51 467.549,966.42 469.563,695.566 471.578,730.945 473.592,974.618 475.606,1089.56 477.62,1081.82 479.634,950.783 
  481.648,590.024 483.663,146.462 485.677,531.062 487.691,924.744 489.705,1064.75 491.719,1146.88 493.734,1195.13 495.748,1200.75 497.762,1155.01 499.776,1007.28 
  501.79,775.536 503.804,936.528 505.819,1116.76 507.833,1168.87 509.847,1145.79 511.861,1058.49 513.875,979.195 515.889,748.695 517.904,292.082 519.918,393.085 
  521.932,756.717 523.946,953.36 525.96,957.223 527.974,905.883 529.989,1039.61 532.003,1098.34 534.017,1044.2 536.031,931.43 538.045,987.529 540.06,982.366 
  542.074,791.795 544.088,545.241 546.102,223.15 548.116,521.534 550.13,841.418 552.145,1026.31 554.159,1066.92 556.173,1076.17 558.187,1160.1 560.201,1194.97 
  562.215,1182.79 564.23,1121.76 566.244,963.594 568.258,571.924 570.272,86.1857 572.286,192.019 574.301,701.101 576.315,1010.95 578.329,1129.76 580.343,1159 
  582.357,1107.59 584.371,1001.19 586.386,1073.71 588.4,1134.85 590.414,1127.67 592.428,1143 594.442,1203.59 596.456,1212.43 598.471,1171.18 600.485,1052.2 
  602.499,920.638 604.513,892.801 606.527,637.399 608.541,262.035 610.556,403.364 612.57,790.346 614.584,919.483 616.598,909.593 618.612,927.844 620.627,774.136 
  622.641,760.325 624.655,976.92 626.669,1019.95 628.683,907.02 630.697,926.467 632.712,1002.88 634.726,910.06 636.74,684.731 638.754,687.039 640.768,883.745 
  642.782,1066.37 644.797,1115.58 646.811,1051.77 648.825,941.359 650.839,897.404 652.853,896.878 654.867,971.54 656.882,992.376 658.896,818.687 660.91,569.092 
  662.924,681.798 664.938,710.967 666.953,878.343 668.967,1080.76 670.981,1149.8 672.995,1199.89 675.009,1241.52 677.023,1253.59 679.038,1245.42 681.052,1214.46 
  683.066,1139.85 685.08,961.706 687.094,695.483 689.108,572.666 691.123,557.777 693.137,654.97 695.151,742.488 697.165,528.385 699.179,502.967 701.193,766.589 
  703.208,1014.81 705.222,1136.13 707.236,1165.92 709.25,1119.51 711.264,965.571 713.279,904.722 715.293,1075.64 717.307,1161.88 719.321,1169.72 721.335,1131.21 
  723.349,1087.93 725.364,915.182 727.378,641.878 729.392,813.977 731.406,1015.45 733.42,1059.17 735.434,958.826 737.449,618.817 739.463,265.07 741.477,616 
  743.491,771.085 745.505,901.081 747.519,1092.74 749.534,1171.46 751.548,1185.94 753.562,1144.15 755.576,1006.5 757.59,798.482 759.605,675.248 761.619,830.613 
  763.633,1026.48 765.647,1025.53 767.661,895.963 769.675,1007.45 771.69,1152.49 773.704,1191.15 775.718,1151.89 777.732,1061.37 779.746,1100.88 781.76,1133.06 
  783.775,1126.62 785.789,1042.03 787.803,828.083 789.817,767.206 791.831,940.62 793.845,946.872 795.86,815.797 797.874,877.978 799.888,906.424 801.902,979.639 
  803.916,1065.91 805.931,1012.45 807.945,813.638 809.959,816.032 811.973,835.185 813.987,539.882 816.001,169.429 818.016,527.803 820.03,957.323 822.044,1138.76 
  824.058,1216.39 826.072,1252.21 828.086,1266.73 830.101,1265.03 832.115,1241.5 834.129,1173.44 836.143,1072.48 838.157,1079.56 840.171,994.536 842.186,819.06 
  844.2,920.645 846.214,1028.15 848.228,1002.54 850.242,832.284 852.257,804.603 854.271,944.666 856.285,892.67 858.299,986.198 860.313,1122.5 862.327,1169.69 
  864.342,1162.6 866.356,1082.08 868.37,852.736 870.384,763.84 872.398,1019.85 874.412,1127.49 876.427,1099.34 878.441,934.636 880.455,903.308 882.469,1079.72 
  884.483,1192.29 886.498,1235.46 888.512,1237.51 890.526,1204.28 892.54,1126.21 894.554,957.869 896.568,661.242 898.583,355.315 900.597,531.216 902.611,954.601 
  904.625,1153.85 906.639,1238.29 908.653,1278.95 910.668,1300.46 912.682,1312.11 914.696,1317.75 916.71,1318.9 918.724,1315.77 920.738,1307.31 922.753,1290.44 
  924.767,1257.44 926.781,1187.36 928.795,1021.18 930.809,721.531 932.824,698.053 934.838,739.987 936.852,695.401 938.866,972.173 940.88,1159.61 942.894,1234.88 
  944.909,1263.7 946.923,1268.15 948.937,1249.93 950.951,1192.12 952.965,1036.69 954.979,756.255 956.994,880.566 959.008,1120.85 961.022,1211.9 963.036,1228.45 
  965.05,1219.12 967.064,1226.03 969.079,1206.77 971.093,1212.32 973.107,1188.45 975.121,1087.21 977.135,826.757 979.15,475.353 981.164,368.076 983.178,620.704 
  985.192,965.032 987.206,1158.43 989.22,1242.2 991.235,1282.63 993.249,1304.29 995.263,1316.44 997.277,1323.01 999.291,1325.69 1001.31,1325.13 1003.32,1321.16 
  1005.33,1312.78 1007.35,1297.57 1009.36,1269.94 1011.38,1216.07 1013.39,1097.55 1015.4,821.16 1017.42,453.558 1019.43,530.977 1021.45,715.246 1023.46,938.852 
  1025.48,1134.44 1027.49,1212.51 1029.5,1232.22 1031.52,1204.98 1033.53,1097.74 1035.55,979.165 1037.56,1115.68 1039.57,1210.94 1041.59,1234.59 1043.6,1205.24 
  1045.62,1125.84 1047.63,1006.31 1049.65,939.73 1051.66,1090.82 1053.67,1137.36 1055.69,1057.31 1057.7,787.582 1059.72,590.147 1061.73,864.242 1063.74,1064.66 
  1065.76,1188.84 1067.77,1241.99 1069.79,1254.25 1071.8,1232.82 1073.82,1154.87 1075.83,1047.7 1077.84,1050.8 1079.86,1055.53 1081.87,1121.02 1083.89,1083.73 
  1085.9,938.634 1087.91,734.919 1089.93,892.487 1091.94,1047.95 1093.96,1074.59 1095.97,1142.85 1097.99,1141.24 1100,1032.18 1102.01,907.077 1104.03,790.686 
  1106.04,962.016 1108.06,1080.71 1110.07,1043.4 1112.09,1025.25 1114.1,978.223 1116.11,1057.76 1118.13,1163.35 1120.14,1165.09 1122.16,1123.08 1124.17,1119.81 
  1126.18,1220.05 1128.2,1278.42 1130.21,1298.89 1132.23,1301.08 1134.24,1287.78 1136.26,1248.06 1138.27,1150.24 1140.28,1034.39 1142.3,1068.02 1144.31,1032.45 
  1146.33,995.379 1148.34,1049.44 1150.35,1065.32 1152.37,1022.95 1154.38,1040.17 1156.4,1041.54 1158.41,990.395 1160.43,943.201 1162.44,922.499 1164.45,962.593 
  1166.47,1108.38 1168.48,1233.89 1170.5,1289.7 1172.51,1315.36 1174.52,1328.28 1176.54,1334.66 1178.55,1336.76 1180.57,1335.12 1182.58,1328.92 1184.6,1315.31 
  1186.61,1286.52 1188.62,1220.11 1190.64,1065.33 1192.65,934.424 1194.67,951.187 1196.68,1021.84 1198.69,1181.08 1200.71,1255.04 1202.72,1269.65 1204.74,1235.93 
  1206.75,1169.33 1208.77,1176.2 1210.78,1256.84 1212.79,1295.06 1214.81,1296.44 1216.82,1261.24 1218.84,1171.03 1220.85,1173.98 1222.86,1261.47 1224.88,1291.25 
  1226.89,1277.76 1228.91,1209.74 1230.92,1152.98 1232.94,1240.46 1234.95,1288.66 1236.96,1288.51 1238.98,1239.19 1240.99,1160.4 1243.01,1230.24 1245.02,1299.72 
  1247.03,1325.67 1249.05,1332.31 1251.06,1326.19 1253.08,1301.28 1255.09,1232.1 1257.11,1123.53 1259.12,1198.76 1261.13,1289.66 1263.15,1325.68 1265.16,1339 
  1267.18,1341.56 1269.19,1334.94 1271.2,1312.54 1273.22,1251.67 1275.23,1162.26 1277.25,1231.64 1279.26,1306.36 1281.28,1336.22 1283.29,1348.17 1285.3,1352.49 
  1287.32,1352.15 1289.33,1347.03 1291.35,1333.71 1293.36,1300.86 1295.37,1218.86 1297.39,1142.81 1299.4,1241.17 1301.42,1308.34 1303.43,1333.49 1305.45,1341.71 
  1307.46,1340.6 1309.47,1329.37 1311.49,1297.64 1313.5,1216.9 1315.52,1149.91 1317.53,1246.2 1319.54,1307.2 1321.56,1328.39 1323.57,1332.08 1325.59,1322.68 
  1327.6,1291.66 1329.62,1210.49 1331.63,1129.26 1333.64,1221.31 1335.66,1279.66 1337.67,1282.07 1339.69,1231.38 1341.7,1138.13 1343.72,1200.01 1345.73,1274.3 
  1347.74,1290.8 1349.76,1263.07 1351.77,1177.99 1353.79,1175.91 1355.8,1265.57 1357.81,1301.56 1359.83,1302.83 1361.84,1271.46 1363.86,1203.74 1365.87,1198.43 
  1367.89,1251.04 1369.9,1272.55 1371.91,1246.72 1373.93,1151.45 1375.94,953.043 1377.96,915.491 1379.97,981.151 1381.98,1109.45 1384,1240.95 1386.01,1298.26 
  1388.03,1323.85 1390.04,1336.38 1392.06,1342.45 1394.07,1344.52 1396.08,1343.37 1398.1,1338.66 1400.11,1328.75 1402.13,1309.2 1404.14,1267.99 1406.15,1174.16 
  1408.17,1013.83 1410.18,879.209 1412.2,938.111 1414.21,1082.76 1416.23,1173.08 1418.24,1172.46 1420.25,1143.75 1422.27,1122.83 1424.28,1163.66 1426.3,1193.01 
  1428.31,1169.26 1430.32,1148.57 1432.34,1190.08 1434.35,1274.45 1436.37,1317.74 1438.38,1335.76 1440.4,1343.62 1442.41,1345.84 1444.42,1343.05 1446.44,1332.51 
  1448.45,1312.02 1450.47,1302.85 1452.48,1280.46 1454.49,1217.95 1456.51,1078.93 1458.52,1017.01 1460.54,1113.1 1462.55,1185.38 1464.57,1232.65 1466.58,1214.86 
  1468.59,1213.33 1470.61,1258.95 1472.62,1292.16 1474.64,1301.56 1476.65,1284.46 1478.66,1228.89 1480.68,1216.31 1482.69,1213.37 1484.71,1201.19 1486.72,1231.17 
  1488.74,1279.79 1490.75,1280.64 1492.76,1241.11 1494.78,1215.08 1496.79,1203.38 1498.81,1269.4 1500.82,1318.91 1502.83,1337.56 1504.85,1341.97 1506.86,1334.61 
  1508.88,1309.21 1510.89,1256.59 1512.91,1177.39 1514.92,1230.38 1516.93,1305.16 1518.95,1332.61 1520.96,1334.86 1522.98,1320.7 1524.99,1330.01 1527,1344.29 
  1529.02,1356.08 1531.03,1360.69 1533.05,1358.41 1535.06,1352.84 1537.08,1343.84 1539.09,1354.89 1541.1,1364.46 1543.12,1366.72 1545.13,1364.24 1547.15,1355.05 
  1549.16,1331.78 1551.17,1310.81 1553.19,1304.41 1555.2,1305.49 1557.22,1334.37 1559.23,1357.51 1561.25,1368.09 1563.26,1372.98 1565.27,1375.52 1567.29,1376.97 
  1569.3,1377.8 1571.32,1378.23 1573.33,1378.36 1575.35,1378.2 1577.36,1377.71 1579.37,1376.73 1581.39,1374.96 1583.4,1371.7 1585.42,1365.13 1587.43,1350.27 
  1589.44,1317.54 1591.46,1277.49 1593.47,1296.57 1595.49,1334.57 1597.5,1357.99 1599.52,1367.53 1601.53,1370.72 1603.54,1371.3 1605.56,1373.23 1607.57,1373.21 
  1609.59,1373.89 1611.6,1373.67 1613.61,1369.26 1615.63,1357.08 1617.64,1351.67 1619.66,1365.92 1621.67,1373.53 1623.69,1376.3 1625.7,1377.02 1627.71,1376.4 
  1629.73,1374.11 1631.74,1368.32 1633.76,1353.89 1635.77,1335.75 1637.78,1344.52 1639.8,1349.43 1641.81,1353.99 1643.83,1367.41 1645.84,1374.41 1647.86,1377.44 
  1649.87,1378.89 1651.88,1379.6 1653.9,1379.91 1655.91,1379.94 1657.93,1379.72 1659.94,1379.21 1661.95,1378.3 1663.97,1376.73 1665.98,1373.88 1668,1368.19 
  1670.01,1355.2 1672.03,1326.3 1674.04,1303.03 1676.05,1319.04 1678.07,1343.78 1680.08,1361.19 1682.1,1368.7 1684.11,1372.43 1686.12,1373.47 1688.14,1372.21 
  1690.15,1367.96 1692.17,1362.09 1694.18,1364.49 1696.2,1368.93 1698.21,1368.54 1700.22,1363.51 1702.24,1353.55 1704.25,1351.44 1706.27,1349.37 1708.28,1337.34 
  1710.29,1304.94 1712.31,1235.18 1714.32,1193.63 1716.34,1154.36 1718.35,1189.03 1720.37,1209.12 1722.38,1200.3 1724.39,1269.83 1726.41,1317.02 1728.42,1336.17 
  1730.44,1339.66 1732.45,1346.44 1734.46,1342.32 1736.48,1338.11 1738.49,1355.28 1740.51,1365.98 1742.52,1370.47 1744.54,1372.14 1746.55,1372.16 1748.56,1370.57 
  1750.58,1366.4 1752.59,1356.41 1754.61,1333 1756.62,1310.78 1758.63,1319.93 1760.65,1321.09 1762.66,1285.94 1764.68,1281.91 1766.69,1325.22 1768.71,1337.46 
  1770.72,1335.32 1772.73,1338 1774.75,1346.61 1776.76,1354.06 1778.78,1363.54 1780.79,1368.58 1782.81,1367.59 1784.82,1368.79 1786.83,1370.02 1788.85,1368.7 
  1790.86,1372.66 1792.88,1374.06 1794.89,1373.49 1796.9,1376.5 1798.92,1378.31 1800.93,1378.36 1802.95,1376.8 1804.96,1374.91 1806.98,1374.87 1808.99,1371.88 
  1811,1362.61 1813.02,1349.16 1815.03,1343.78 1817.05,1357.69 1819.06,1369.26 1821.07,1373.17 1823.09,1373.41 1825.1,1370.66 1827.12,1363.51 1829.13,1350.57 
  1831.15,1319.82 1833.16,1289.2 1835.17,1321.96 1837.19,1353.91 1839.2,1366.24 1841.22,1370.4 1843.23,1369.13 1845.24,1367.08 1847.26,1373.01 1849.27,1376.85 
  1851.29,1378.54 1853.3,1379.22 1855.32,1378.77 1857.33,1376.39 1859.34,1371.55 1861.36,1372.65 1863.37,1376.42 1865.39,1378.86 1867.4,1379.23 1869.41,1377.81 
  1871.43,1374.39 1873.44,1371.57 1875.46,1369.93 1877.47,1369.14 1879.49,1362.21 1881.5,1353.34 1883.51,1356.32 1885.53,1366.78 1887.54,1374.66 1889.56,1378.57 
  1891.57,1380.26 1893.58,1381 1895.6,1381.13 1897.61,1380.73 1899.63,1379.57 1901.64,1377.73 1903.66,1375.33 1905.67,1368.96 1907.68,1358.37 1909.7,1350.12 
  1911.71,1339.66 1913.73,1354.99 1915.74,1367.6 1917.75,1372.96 1919.77,1372.48 1921.78,1369.78 1923.8,1370.57 1925.81,1374.58 1927.83,1377.87 1929.84,1378.08 
  1931.85,1375.18 1933.87,1371.74 1935.88,1373.19 1937.9,1376.21 1939.91,1377.56 1941.92,1375.48 1943.94,1374.73 1945.95,1376.39 1947.97,1373.97 1949.98,1366.42 
  1952,1366.88 1954.01,1370.75 1956.02,1370.02 1958.04,1374.22 1960.05,1375.32 1962.07,1372.65 1964.08,1372.08 1966.09,1375.63 1968.11,1378.84 1970.12,1379.64 
  1972.14,1380.95 1974.15,1381.94 1976.17,1382.01 1978.18,1381.14 1980.19,1378.86 1982.21,1378.62 1984.22,1380.2 1986.24,1379.89 1988.25,1378.99 1990.26,1379.99 
  1992.28,1380.02 1994.29,1378.46 1996.31,1374.34 1998.32,1364.24 2000.34,1348.45 2002.35,1344.12 2004.36,1359.43 2006.38,1372.4 2008.39,1377.74 2010.41,1379.98 
  2012.42,1380.78 2014.44,1380.37 2016.45,1378.71 2018.46,1378.81 2020.48,1379.05 2022.49,1377.13 2024.51,1371.54 2026.52,1368.88 2028.53,1373.32 2030.55,1377.79 
  2032.56,1379.3 2034.58,1377.96 2036.59,1375.69 2038.61,1378.49 2040.62,1380.67 2042.63,1380.74 2044.65,1380.03 2046.66,1379.93 2048.68,1378.77 2050.69,1374.61 
  2052.7,1371.6 2054.72,1373.84 2056.73,1378.37 2058.75,1380.26 2060.76,1380.92 2062.78,1381.9 2064.79,1382.02 2066.8,1380.98 2068.82,1377.82 2070.83,1374.94 
  2072.85,1378.8 2074.86,1381.25 2076.87,1381.92 2078.89,1381.65 2080.9,1380.47 2082.92,1378.55 2084.93,1374.43 2086.95,1363.69 2088.96,1354.69 2090.97,1366.22 
  2092.99,1375.67 2095,1379.44 2097.02,1380.65 2099.03,1380.17 2101.04,1378 2103.06,1377.07 2105.07,1380.12 2107.09,1381.9 2109.1,1382.33 2111.12,1381.84 
  2113.13,1380.02 2115.14,1377.79 2117.16,1376.17 2119.17,1374.92 2121.19,1378.36 2123.2,1380.09 2125.21,1380.71 2127.23,1379.9 2129.24,1378.63 2131.26,1375.79 
  2133.27,1376.05 2135.29,1379.97 2137.3,1381.31 2139.31,1381.48 2141.33,1381.74 2143.34,1380.92 2145.36,1380.32 2147.37,1380.94 2149.38,1379.61 2151.4,1376.4 
  2153.41,1377.68 2155.43,1379.09 2157.44,1377.53 2159.46,1378.23 2161.47,1380.72 2163.48,1381.49 2165.5,1380.69 2167.51,1377.53 2169.53,1372.61 2171.54,1375.59 
  2173.55,1377.9 2175.57,1375.9 2177.58,1373.28 2179.6,1377.14 2181.61,1380.06 2183.63,1379.94 2185.64,1378.53 2187.65,1380.12 2189.67,1381.3 2191.68,1380.73 
  2193.7,1381.58 2195.71,1382.95 2197.72,1383.41 2199.74,1383.3 2201.75,1382.53 2203.77,1380.95 2205.78,1379.49 2207.8,1380.47 2209.81,1381.19 2211.82,1380.1 
  2213.84,1380.34 2215.85,1380.03 2217.87,1376.82 2219.88,1376.57 2221.9,1380.04 2223.91,1381.24 2225.92,1382.21 2227.94,1382.69 2229.95,1382.48 2231.97,1381.14 
  2233.98,1378.89 2235.99,1378.24 2238.01,1379.68 2240.02,1378.54 2242.04,1374.25 2244.05,1371.93 2246.07,1376.06 2248.08,1378.62 2250.09,1381.02 2252.11,1382.44 
  2254.12,1382.77 2256.14,1382.22 2258.15,1380.14 2260.16,1376.66 2262.18,1378.64 2264.19,1381.8 2266.21,1383.05 2268.22,1383.38 2270.24,1383.1 2272.25,1381.87 
  2274.26,1379.06 2276.28,1378.67 2278.29,1381.06 2280.31,1382.77 2282.32,1383.71 2284.33,1384.11 2286.35,1384.24 2288.36,1384.18 2290.38,1383.91 2292.39,1383.2 
  
  "/>
<path clip-path="url(#clip680)" d="
M1992.24 196.789 L2281.66 196.789 L2281.66 93.1086 L1992.24 93.1086  Z
  " fill="#ffffff" fill-rule="evenodd" fill-opacity="1"/>
<polyline clip-path="url(#clip680)" style="stroke:#000000; stroke-linecap:butt; stroke-linejoin:round; stroke-width:4; stroke-opacity:1; fill:none" points="
  1992.24,196.789 2281.66,196.789 2281.66,93.1086 1992.24,93.1086 1992.24,196.789 
  "/>
<polyline clip-path="url(#clip680)" style="stroke:#009af9; stroke-linecap:butt; stroke-linejoin:round; stroke-width:4; stroke-opacity:1; fill:none" points="
  2015.94,144.949 2158.13,144.949 
  "/>
<path clip-path="url(#clip680)" d="M2195.67 164.636 Q2193.87 169.266 2192.16 170.678 Q2190.44 172.09 2187.57 172.09 L2184.17 172.09 L2184.17 168.525 L2186.67 168.525 Q2188.43 168.525 2189.4 167.692 Q2190.37 166.858 2191.55 163.756 L2192.32 161.812 L2181.83 136.303 L2186.35 136.303 L2194.45 156.581 L2202.55 136.303 L2207.06 136.303 L2195.67 164.636 Z" fill="#000000" fill-rule="evenodd" fill-opacity="1" /><path clip-path="url(#clip680)" d="M2214.35 158.293 L2221.99 158.293 L2221.99 131.928 L2213.68 133.595 L2213.68 129.335 L2221.95 127.669 L2226.62 127.669 L2226.62 158.293 L2234.26 158.293 L2234.26 162.229 L2214.35 162.229 L2214.35 158.293 Z" fill="#000000" fill-rule="evenodd" fill-opacity="1" /></svg>
