<?xml version="1.0" encoding="utf-8"?>
<svg xmlns="http://www.w3.org/2000/svg" xmlns:xlink="http://www.w3.org/1999/xlink" width="600" height="400" viewBox="0 0 2400 1600">
<defs>
  <clipPath id="clip010">
    <rect x="0" y="0" width="2400" height="1600"/>
  </clipPath>
</defs>
<path clip-path="url(#clip010)" d="
M0 1600 L2400 1600 L2400 0 L0 0  Z
  " fill="#ffffff" fill-rule="evenodd" fill-opacity="1"/>
<defs>
  <clipPath id="clip011">
    <rect x="480" y="0" width="1681" height="1600"/>
  </clipPath>
</defs>
<path clip-path="url(#clip010)" d="
M219.866 1423.18 L2352.76 1423.18 L2352.76 47.2441 L219.866 47.2441  Z
  " fill="#ffffff" fill-rule="evenodd" fill-opacity="1"/>
<defs>
  <clipPath id="clip012">
    <rect x="219" y="47" width="2134" height="1377"/>
  </clipPath>
</defs>
<polyline clip-path="url(#clip012)" style="stroke:#000000; stroke-linecap:butt; stroke-linejoin:round; stroke-width:2; stroke-opacity:0.1; fill:none" points="
  280.231,1423.18 280.231,47.2441 
  "/>
<polyline clip-path="url(#clip012)" style="stroke:#000000; stroke-linecap:butt; stroke-linejoin:round; stroke-width:2; stroke-opacity:0.1; fill:none" points="
  783.271,1423.18 783.271,47.2441 
  "/>
<polyline clip-path="url(#clip012)" style="stroke:#000000; stroke-linecap:butt; stroke-linejoin:round; stroke-width:2; stroke-opacity:0.1; fill:none" points="
  1286.31,1423.18 1286.31,47.2441 
  "/>
<polyline clip-path="url(#clip012)" style="stroke:#000000; stroke-linecap:butt; stroke-linejoin:round; stroke-width:2; stroke-opacity:0.1; fill:none" points="
  1789.35,1423.18 1789.35,47.2441 
  "/>
<polyline clip-path="url(#clip012)" style="stroke:#000000; stroke-linecap:butt; stroke-linejoin:round; stroke-width:2; stroke-opacity:0.1; fill:none" points="
  2292.39,1423.18 2292.39,47.2441 
  "/>
<polyline clip-path="url(#clip010)" style="stroke:#000000; stroke-linecap:butt; stroke-linejoin:round; stroke-width:4; stroke-opacity:1; fill:none" points="
  219.866,1423.18 2352.76,1423.18 
  "/>
<polyline clip-path="url(#clip010)" style="stroke:#000000; stroke-linecap:butt; stroke-linejoin:round; stroke-width:4; stroke-opacity:1; fill:none" points="
  280.231,1423.18 280.231,1404.28 
  "/>
<polyline clip-path="url(#clip010)" style="stroke:#000000; stroke-linecap:butt; stroke-linejoin:round; stroke-width:4; stroke-opacity:1; fill:none" points="
  783.271,1423.18 783.271,1404.28 
  "/>
<polyline clip-path="url(#clip010)" style="stroke:#000000; stroke-linecap:butt; stroke-linejoin:round; stroke-width:4; stroke-opacity:1; fill:none" points="
  1286.31,1423.18 1286.31,1404.28 
  "/>
<polyline clip-path="url(#clip010)" style="stroke:#000000; stroke-linecap:butt; stroke-linejoin:round; stroke-width:4; stroke-opacity:1; fill:none" points="
  1789.35,1423.18 1789.35,1404.28 
  "/>
<polyline clip-path="url(#clip010)" style="stroke:#000000; stroke-linecap:butt; stroke-linejoin:round; stroke-width:4; stroke-opacity:1; fill:none" points="
  2292.39,1423.18 2292.39,1404.28 
  "/>
<path clip-path="url(#clip010)" d="M249.132 1468.75 L278.807 1468.75 L278.807 1472.69 L249.132 1472.69 L249.132 1468.75 Z" fill="#000000" fill-rule="evenodd" fill-opacity="1" /><path clip-path="url(#clip010)" d="M301.747 1455.09 L289.942 1473.54 L301.747 1473.54 L301.747 1455.09 M300.52 1451.02 L306.4 1451.02 L306.4 1473.54 L311.33 1473.54 L311.33 1477.43 L306.4 1477.43 L306.4 1485.58 L301.747 1485.58 L301.747 1477.43 L286.145 1477.43 L286.145 1472.92 L300.52 1451.02 Z" fill="#000000" fill-rule="evenodd" fill-opacity="1" /><path clip-path="url(#clip010)" d="M753.213 1468.75 L782.889 1468.75 L782.889 1472.69 L753.213 1472.69 L753.213 1468.75 Z" fill="#000000" fill-rule="evenodd" fill-opacity="1" /><path clip-path="url(#clip010)" d="M797.009 1481.64 L813.329 1481.64 L813.329 1485.58 L791.384 1485.58 L791.384 1481.64 Q794.046 1478.89 798.63 1474.26 Q803.236 1469.61 804.417 1468.27 Q806.662 1465.74 807.542 1464.01 Q808.445 1462.25 808.445 1460.56 Q808.445 1457.8 806.5 1456.07 Q804.579 1454.33 801.477 1454.33 Q799.278 1454.33 796.824 1455.09 Q794.394 1455.86 791.616 1457.41 L791.616 1452.69 Q794.44 1451.55 796.894 1450.97 Q799.347 1450.39 801.384 1450.39 Q806.755 1450.39 809.949 1453.08 Q813.144 1455.77 813.144 1460.26 Q813.144 1462.39 812.333 1464.31 Q811.546 1466.2 809.44 1468.8 Q808.861 1469.47 805.759 1472.69 Q802.658 1475.88 797.009 1481.64 Z" fill="#000000" fill-rule="evenodd" fill-opacity="1" /><path clip-path="url(#clip010)" d="M1286.31 1454.1 Q1282.7 1454.1 1280.87 1457.66 Q1279.07 1461.2 1279.07 1468.33 Q1279.07 1475.44 1280.87 1479.01 Q1282.7 1482.55 1286.31 1482.55 Q1289.95 1482.55 1291.75 1479.01 Q1293.58 1475.44 1293.58 1468.33 Q1293.58 1461.2 1291.75 1457.66 Q1289.95 1454.1 1286.31 1454.1 M1286.31 1450.39 Q1292.12 1450.39 1295.18 1455 Q1298.26 1459.58 1298.26 1468.33 Q1298.26 1477.06 1295.18 1481.67 Q1292.12 1486.25 1286.31 1486.25 Q1280.5 1486.25 1277.42 1481.67 Q1274.37 1477.06 1274.37 1468.33 Q1274.37 1459.58 1277.42 1455 Q1280.5 1450.39 1286.31 1450.39 Z" fill="#000000" fill-rule="evenodd" fill-opacity="1" /><path clip-path="url(#clip010)" d="M1784 1481.64 L1800.32 1481.64 L1800.32 1485.58 L1778.38 1485.58 L1778.38 1481.64 Q1781.04 1478.89 1785.62 1474.26 Q1790.23 1469.61 1791.41 1468.27 Q1793.66 1465.74 1794.54 1464.01 Q1795.44 1462.25 1795.44 1460.56 Q1795.44 1457.8 1793.49 1456.07 Q1791.57 1454.33 1788.47 1454.33 Q1786.27 1454.33 1783.82 1455.09 Q1781.39 1455.86 1778.61 1457.41 L1778.61 1452.69 Q1781.43 1451.55 1783.89 1450.97 Q1786.34 1450.39 1788.38 1450.39 Q1793.75 1450.39 1796.94 1453.08 Q1800.14 1455.77 1800.14 1460.26 Q1800.14 1462.39 1799.33 1464.31 Q1798.54 1466.2 1796.43 1468.8 Q1795.86 1469.47 1792.75 1472.69 Q1789.65 1475.88 1784 1481.64 Z" fill="#000000" fill-rule="evenodd" fill-opacity="1" /><path clip-path="url(#clip010)" d="M2295.4 1455.09 L2283.59 1473.54 L2295.4 1473.54 L2295.4 1455.09 M2294.17 1451.02 L2300.05 1451.02 L2300.05 1473.54 L2304.98 1473.54 L2304.98 1477.43 L2300.05 1477.43 L2300.05 1485.58 L2295.4 1485.58 L2295.4 1477.43 L2279.8 1477.43 L2279.8 1472.92 L2294.17 1451.02 Z" fill="#000000" fill-rule="evenodd" fill-opacity="1" /><path clip-path="url(#clip010)" d="M1129.64 1520.52 L1159.68 1520.52 L1159.68 1525.93 L1136.06 1525.93 L1136.06 1540 L1158.69 1540 L1158.69 1545.41 L1136.06 1545.41 L1136.06 1562.63 L1160.25 1562.63 L1160.25 1568.04 L1129.64 1568.04 L1129.64 1520.52 Z" fill="#000000" fill-rule="evenodd" fill-opacity="1" /><path clip-path="url(#clip010)" d="M1200.2 1546.53 L1200.2 1568.04 L1194.34 1568.04 L1194.34 1546.72 Q1194.34 1541.66 1192.37 1539.14 Q1190.4 1536.63 1186.45 1536.63 Q1181.71 1536.63 1178.97 1539.65 Q1176.23 1542.68 1176.23 1547.9 L1176.23 1568.04 L1170.34 1568.04 L1170.34 1532.4 L1176.23 1532.4 L1176.23 1537.93 Q1178.33 1534.72 1181.17 1533.13 Q1184.03 1531.54 1187.75 1531.54 Q1193.9 1531.54 1197.05 1535.36 Q1200.2 1539.14 1200.2 1546.53 Z" fill="#000000" fill-rule="evenodd" fill-opacity="1" /><path clip-path="url(#clip010)" d="M1242.37 1548.76 L1242.37 1551.62 L1215.44 1551.62 Q1215.83 1557.67 1219.07 1560.85 Q1222.35 1564 1228.18 1564 Q1231.55 1564 1234.7 1563.17 Q1237.88 1562.35 1241 1560.69 L1241 1566.23 Q1237.85 1567.57 1234.54 1568.27 Q1231.23 1568.97 1227.83 1568.97 Q1219.3 1568.97 1214.3 1564 Q1209.33 1559.04 1209.33 1550.57 Q1209.33 1541.82 1214.04 1536.69 Q1218.79 1531.54 1226.81 1531.54 Q1234 1531.54 1238.17 1536.18 Q1242.37 1540.8 1242.37 1548.76 M1236.52 1547.04 Q1236.45 1542.23 1233.81 1539.37 Q1231.2 1536.5 1226.87 1536.5 Q1221.97 1536.5 1219.01 1539.27 Q1216.08 1542.04 1215.64 1547.07 L1236.52 1547.04 Z" fill="#000000" fill-rule="evenodd" fill-opacity="1" /><path clip-path="url(#clip010)" d="M1272.64 1537.87 Q1271.65 1537.3 1270.48 1537.04 Q1269.33 1536.76 1267.93 1536.76 Q1262.96 1536.76 1260.29 1540 Q1257.65 1543.22 1257.65 1549.27 L1257.65 1568.04 L1251.76 1568.04 L1251.76 1532.4 L1257.65 1532.4 L1257.65 1537.93 Q1259.5 1534.69 1262.46 1533.13 Q1265.42 1531.54 1269.65 1531.54 Q1270.25 1531.54 1270.99 1531.63 Q1271.72 1531.7 1272.61 1531.85 L1272.64 1537.87 Z" fill="#000000" fill-rule="evenodd" fill-opacity="1" /><path clip-path="url(#clip010)" d="M1301.1 1549.81 Q1301.1 1543.44 1298.45 1539.94 Q1295.84 1536.44 1291.1 1536.44 Q1286.39 1536.44 1283.75 1539.94 Q1281.14 1543.44 1281.14 1549.81 Q1281.14 1556.14 1283.75 1559.64 Q1286.39 1563.14 1291.1 1563.14 Q1295.84 1563.14 1298.45 1559.64 Q1301.1 1556.14 1301.1 1549.81 M1306.95 1563.62 Q1306.95 1572.72 1302.91 1577.15 Q1298.87 1581.6 1290.53 1581.6 Q1287.44 1581.6 1284.7 1581.13 Q1281.97 1580.68 1279.39 1579.72 L1279.39 1574.03 Q1281.97 1575.43 1284.48 1576.1 Q1287 1576.76 1289.61 1576.76 Q1295.37 1576.76 1298.23 1573.74 Q1301.1 1570.75 1301.1 1564.67 L1301.1 1561.77 Q1299.28 1564.92 1296.45 1566.48 Q1293.62 1568.04 1289.67 1568.04 Q1283.11 1568.04 1279.1 1563.05 Q1275.09 1558.05 1275.09 1549.81 Q1275.09 1541.53 1279.1 1536.53 Q1283.11 1531.54 1289.67 1531.54 Q1293.62 1531.54 1296.45 1533.1 Q1299.28 1534.66 1301.1 1537.81 L1301.1 1532.4 L1306.95 1532.4 L1306.95 1563.62 Z" fill="#000000" fill-rule="evenodd" fill-opacity="1" /><path clip-path="url(#clip010)" d="M1333.85 1571.35 Q1331.36 1577.72 1329.01 1579.66 Q1326.65 1581.6 1322.71 1581.6 L1318.03 1581.6 L1318.03 1576.7 L1321.47 1576.7 Q1323.88 1576.7 1325.22 1575.56 Q1326.56 1574.41 1328.18 1570.14 L1329.23 1567.47 L1314.81 1532.4 L1321.02 1532.4 L1332.16 1560.28 L1343.3 1532.4 L1349.51 1532.4 L1333.85 1571.35 Z" fill="#000000" fill-rule="evenodd" fill-opacity="1" /><path clip-path="url(#clip010)" d="M1377.77 1518.52 L1391.27 1518.52 L1391.27 1523.07 L1383.63 1523.07 L1383.63 1572.09 L1391.27 1572.09 L1391.27 1576.64 L1377.77 1576.64 L1377.77 1518.52 Z" fill="#000000" fill-rule="evenodd" fill-opacity="1" /><path clip-path="url(#clip010)" d="M1409.54 1522.27 L1409.54 1532.4 L1421.6 1532.4 L1421.6 1536.95 L1409.54 1536.95 L1409.54 1556.3 Q1409.54 1560.66 1410.71 1561.9 Q1411.92 1563.14 1415.58 1563.14 L1421.6 1563.14 L1421.6 1568.04 L1415.58 1568.04 Q1408.8 1568.04 1406.23 1565.53 Q1403.65 1562.98 1403.65 1556.3 L1403.65 1536.95 L1399.35 1536.95 L1399.35 1532.4 L1403.65 1532.4 L1403.65 1522.27 L1409.54 1522.27 Z" fill="#000000" fill-rule="evenodd" fill-opacity="1" /><path clip-path="url(#clip010)" d="M1442.99 1518.52 L1442.99 1576.64 L1429.49 1576.64 L1429.49 1572.09 L1437.1 1572.09 L1437.1 1523.07 L1429.49 1523.07 L1429.49 1518.52 L1442.99 1518.52 Z" fill="#000000" fill-rule="evenodd" fill-opacity="1" /><polyline clip-path="url(#clip012)" style="stroke:#000000; stroke-linecap:butt; stroke-linejoin:round; stroke-width:2; stroke-opacity:0.1; fill:none" points="
  219.866,1385.71 2352.76,1385.71 
  "/>
<polyline clip-path="url(#clip012)" style="stroke:#000000; stroke-linecap:butt; stroke-linejoin:round; stroke-width:2; stroke-opacity:0.1; fill:none" points="
  219.866,1081.73 2352.76,1081.73 
  "/>
<polyline clip-path="url(#clip012)" style="stroke:#000000; stroke-linecap:butt; stroke-linejoin:round; stroke-width:2; stroke-opacity:0.1; fill:none" points="
  219.866,777.743 2352.76,777.743 
  "/>
<polyline clip-path="url(#clip012)" style="stroke:#000000; stroke-linecap:butt; stroke-linejoin:round; stroke-width:2; stroke-opacity:0.1; fill:none" points="
  219.866,473.76 2352.76,473.76 
  "/>
<polyline clip-path="url(#clip012)" style="stroke:#000000; stroke-linecap:butt; stroke-linejoin:round; stroke-width:2; stroke-opacity:0.1; fill:none" points="
  219.866,169.776 2352.76,169.776 
  "/>
<polyline clip-path="url(#clip010)" style="stroke:#000000; stroke-linecap:butt; stroke-linejoin:round; stroke-width:4; stroke-opacity:1; fill:none" points="
  219.866,1423.18 219.866,47.2441 
  "/>
<polyline clip-path="url(#clip010)" style="stroke:#000000; stroke-linecap:butt; stroke-linejoin:round; stroke-width:4; stroke-opacity:1; fill:none" points="
  219.866,1385.71 238.764,1385.71 
  "/>
<polyline clip-path="url(#clip010)" style="stroke:#000000; stroke-linecap:butt; stroke-linejoin:round; stroke-width:4; stroke-opacity:1; fill:none" points="
  219.866,1081.73 238.764,1081.73 
  "/>
<polyline clip-path="url(#clip010)" style="stroke:#000000; stroke-linecap:butt; stroke-linejoin:round; stroke-width:4; stroke-opacity:1; fill:none" points="
  219.866,777.743 238.764,777.743 
  "/>
<polyline clip-path="url(#clip010)" style="stroke:#000000; stroke-linecap:butt; stroke-linejoin:round; stroke-width:4; stroke-opacity:1; fill:none" points="
  219.866,473.76 238.764,473.76 
  "/>
<polyline clip-path="url(#clip010)" style="stroke:#000000; stroke-linecap:butt; stroke-linejoin:round; stroke-width:4; stroke-opacity:1; fill:none" points="
  219.866,169.776 238.764,169.776 
  "/>
<path clip-path="url(#clip010)" d="M126.691 1371.51 Q123.08 1371.51 121.251 1375.07 Q119.445 1378.61 119.445 1385.74 Q119.445 1392.85 121.251 1396.42 Q123.08 1399.96 126.691 1399.96 Q130.325 1399.96 132.13 1396.42 Q133.959 1392.85 133.959 1385.74 Q133.959 1378.61 132.13 1375.07 Q130.325 1371.51 126.691 1371.51 M126.691 1367.8 Q132.501 1367.8 135.556 1372.41 Q138.635 1376.99 138.635 1385.74 Q138.635 1394.47 135.556 1399.08 Q132.501 1403.66 126.691 1403.66 Q120.88 1403.66 117.802 1399.08 Q114.746 1394.47 114.746 1385.74 Q114.746 1376.99 117.802 1372.41 Q120.88 1367.8 126.691 1367.8 Z" fill="#000000" fill-rule="evenodd" fill-opacity="1" /><path clip-path="url(#clip010)" d="M146.853 1397.11 L151.737 1397.11 L151.737 1402.99 L146.853 1402.99 L146.853 1397.11 Z" fill="#000000" fill-rule="evenodd" fill-opacity="1" /><path clip-path="url(#clip010)" d="M171.922 1371.51 Q168.311 1371.51 166.482 1375.07 Q164.677 1378.61 164.677 1385.74 Q164.677 1392.85 166.482 1396.42 Q168.311 1399.96 171.922 1399.96 Q175.556 1399.96 177.362 1396.42 Q179.19 1392.85 179.19 1385.74 Q179.19 1378.61 177.362 1375.07 Q175.556 1371.51 171.922 1371.51 M171.922 1367.8 Q177.732 1367.8 180.788 1372.41 Q183.866 1376.99 183.866 1385.74 Q183.866 1394.47 180.788 1399.08 Q177.732 1403.66 171.922 1403.66 Q166.112 1403.66 163.033 1399.08 Q159.978 1394.47 159.978 1385.74 Q159.978 1376.99 163.033 1372.41 Q166.112 1367.8 171.922 1367.8 Z" fill="#000000" fill-rule="evenodd" fill-opacity="1" /><path clip-path="url(#clip010)" d="M128.288 1067.53 Q124.677 1067.53 122.848 1071.09 Q121.043 1074.63 121.043 1081.76 Q121.043 1088.87 122.848 1092.43 Q124.677 1095.97 128.288 1095.97 Q131.922 1095.97 133.728 1092.43 Q135.556 1088.87 135.556 1081.76 Q135.556 1074.63 133.728 1071.09 Q131.922 1067.53 128.288 1067.53 M128.288 1063.82 Q134.098 1063.82 137.154 1068.43 Q140.232 1073.01 140.232 1081.76 Q140.232 1090.49 137.154 1095.09 Q134.098 1099.68 128.288 1099.68 Q122.478 1099.68 119.399 1095.09 Q116.343 1090.49 116.343 1081.76 Q116.343 1073.01 119.399 1068.43 Q122.478 1063.82 128.288 1063.82 Z" fill="#000000" fill-rule="evenodd" fill-opacity="1" /><path clip-path="url(#clip010)" d="M148.45 1093.13 L153.334 1093.13 L153.334 1099.01 L148.45 1099.01 L148.45 1093.13 Z" fill="#000000" fill-rule="evenodd" fill-opacity="1" /><path clip-path="url(#clip010)" d="M167.547 1095.07 L183.866 1095.07 L183.866 1099.01 L161.922 1099.01 L161.922 1095.07 Q164.584 1092.32 169.167 1087.69 Q173.774 1083.03 174.954 1081.69 Q177.2 1079.17 178.079 1077.43 Q178.982 1075.67 178.982 1073.98 Q178.982 1071.23 177.038 1069.49 Q175.116 1067.76 172.014 1067.76 Q169.815 1067.76 167.362 1068.52 Q164.931 1069.28 162.153 1070.84 L162.153 1066.11 Q164.977 1064.98 167.431 1064.4 Q169.885 1063.82 171.922 1063.82 Q177.292 1063.82 180.487 1066.51 Q183.681 1069.19 183.681 1073.68 Q183.681 1075.81 182.871 1077.73 Q182.084 1079.63 179.977 1082.22 Q179.399 1082.9 176.297 1086.11 Q173.195 1089.31 167.547 1095.07 Z" fill="#000000" fill-rule="evenodd" fill-opacity="1" /><path clip-path="url(#clip010)" d="M126.205 763.542 Q122.593 763.542 120.765 767.107 Q118.959 770.648 118.959 777.778 Q118.959 784.884 120.765 788.449 Q122.593 791.991 126.205 791.991 Q129.839 791.991 131.644 788.449 Q133.473 784.884 133.473 777.778 Q133.473 770.648 131.644 767.107 Q129.839 763.542 126.205 763.542 M126.205 759.838 Q132.015 759.838 135.07 764.445 Q138.149 769.028 138.149 777.778 Q138.149 786.505 135.07 791.111 Q132.015 795.694 126.205 795.694 Q120.394 795.694 117.316 791.111 Q114.26 786.505 114.26 777.778 Q114.26 769.028 117.316 764.445 Q120.394 759.838 126.205 759.838 Z" fill="#000000" fill-rule="evenodd" fill-opacity="1" /><path clip-path="url(#clip010)" d="M146.366 789.143 L151.251 789.143 L151.251 795.023 L146.366 795.023 L146.366 789.143 Z" fill="#000000" fill-rule="evenodd" fill-opacity="1" /><path clip-path="url(#clip010)" d="M174.283 764.537 L162.477 782.986 L174.283 782.986 L174.283 764.537 M173.056 760.463 L178.936 760.463 L178.936 782.986 L183.866 782.986 L183.866 786.875 L178.936 786.875 L178.936 795.023 L174.283 795.023 L174.283 786.875 L158.681 786.875 L158.681 782.361 L173.056 760.463 Z" fill="#000000" fill-rule="evenodd" fill-opacity="1" /><path clip-path="url(#clip010)" d="M126.529 459.558 Q122.918 459.558 121.089 463.123 Q119.283 466.665 119.283 473.794 Q119.283 480.901 121.089 484.466 Q122.918 488.007 126.529 488.007 Q130.163 488.007 131.968 484.466 Q133.797 480.901 133.797 473.794 Q133.797 466.665 131.968 463.123 Q130.163 459.558 126.529 459.558 M126.529 455.855 Q132.339 455.855 135.394 460.461 Q138.473 465.044 138.473 473.794 Q138.473 482.521 135.394 487.128 Q132.339 491.711 126.529 491.711 Q120.718 491.711 117.64 487.128 Q114.584 482.521 114.584 473.794 Q114.584 465.044 117.64 460.461 Q120.718 455.855 126.529 455.855 Z" fill="#000000" fill-rule="evenodd" fill-opacity="1" /><path clip-path="url(#clip010)" d="M146.691 485.16 L151.575 485.16 L151.575 491.04 L146.691 491.04 L146.691 485.16 Z" fill="#000000" fill-rule="evenodd" fill-opacity="1" /><path clip-path="url(#clip010)" d="M172.339 471.896 Q169.19 471.896 167.339 474.049 Q165.51 476.202 165.51 479.952 Q165.51 483.679 167.339 485.855 Q169.19 488.007 172.339 488.007 Q175.487 488.007 177.315 485.855 Q179.167 483.679 179.167 479.952 Q179.167 476.202 177.315 474.049 Q175.487 471.896 172.339 471.896 M181.621 457.244 L181.621 461.503 Q179.862 460.67 178.056 460.23 Q176.274 459.79 174.514 459.79 Q169.885 459.79 167.431 462.915 Q165.001 466.04 164.653 472.359 Q166.019 470.345 168.079 469.281 Q170.139 468.193 172.616 468.193 Q177.825 468.193 180.834 471.364 Q183.866 474.512 183.866 479.952 Q183.866 485.276 180.718 488.493 Q177.57 491.711 172.339 491.711 Q166.343 491.711 163.172 487.128 Q160.001 482.521 160.001 473.794 Q160.001 465.6 163.89 460.739 Q167.778 455.855 174.329 455.855 Q176.089 455.855 177.871 456.202 Q179.676 456.549 181.621 457.244 Z" fill="#000000" fill-rule="evenodd" fill-opacity="1" /><path clip-path="url(#clip010)" d="M126.783 155.575 Q123.172 155.575 121.343 159.14 Q119.538 162.682 119.538 169.811 Q119.538 176.918 121.343 180.482 Q123.172 184.024 126.783 184.024 Q130.417 184.024 132.223 180.482 Q134.052 176.918 134.052 169.811 Q134.052 162.682 132.223 159.14 Q130.417 155.575 126.783 155.575 M126.783 151.871 Q132.593 151.871 135.649 156.478 Q138.728 161.061 138.728 169.811 Q138.728 178.538 135.649 183.144 Q132.593 187.728 126.783 187.728 Q120.973 187.728 117.894 183.144 Q114.839 178.538 114.839 169.811 Q114.839 161.061 117.894 156.478 Q120.973 151.871 126.783 151.871 Z" fill="#000000" fill-rule="evenodd" fill-opacity="1" /><path clip-path="url(#clip010)" d="M146.945 181.177 L151.829 181.177 L151.829 187.056 L146.945 187.056 L146.945 181.177 Z" fill="#000000" fill-rule="evenodd" fill-opacity="1" /><path clip-path="url(#clip010)" d="M172.014 170.644 Q168.681 170.644 166.76 172.427 Q164.862 174.209 164.862 177.334 Q164.862 180.459 166.76 182.242 Q168.681 184.024 172.014 184.024 Q175.348 184.024 177.269 182.242 Q179.19 180.436 179.19 177.334 Q179.19 174.209 177.269 172.427 Q175.371 170.644 172.014 170.644 M167.339 168.654 Q164.329 167.913 162.64 165.853 Q160.973 163.793 160.973 160.83 Q160.973 156.686 163.913 154.279 Q166.876 151.871 172.014 151.871 Q177.176 151.871 180.116 154.279 Q183.056 156.686 183.056 160.83 Q183.056 163.793 181.366 165.853 Q179.7 167.913 176.714 168.654 Q180.093 169.441 181.968 171.732 Q183.866 174.024 183.866 177.334 Q183.866 182.357 180.788 185.042 Q177.732 187.728 172.014 187.728 Q166.297 187.728 163.218 185.042 Q160.163 182.357 160.163 177.334 Q160.163 174.024 162.061 171.732 Q163.959 169.441 167.339 168.654 M165.626 161.269 Q165.626 163.955 167.292 165.459 Q168.982 166.964 172.014 166.964 Q175.024 166.964 176.714 165.459 Q178.426 163.955 178.426 161.269 Q178.426 158.584 176.714 157.08 Q175.024 155.575 172.014 155.575 Q168.982 155.575 167.292 157.08 Q165.626 158.584 165.626 161.269 Z" fill="#000000" fill-rule="evenodd" fill-opacity="1" /><path clip-path="url(#clip010)" d="M16.4842 896.471 L16.4842 890.042 L58.5933 890.042 L58.5933 866.903 L64.0042 866.903 L64.0042 896.471 L16.4842 896.471 Z" fill="#000000" fill-rule="evenodd" fill-opacity="1" /><path clip-path="url(#clip010)" d="M32.4621 847.742 Q32.4621 852.452 36.1542 855.19 Q39.8145 857.927 46.212 857.927 Q52.6095 857.927 56.3017 855.221 Q59.9619 852.484 59.9619 847.742 Q59.9619 843.063 56.2698 840.326 Q52.5777 837.588 46.212 837.588 Q39.8781 837.588 36.186 840.326 Q32.4621 843.063 32.4621 847.742 M27.4968 847.742 Q27.4968 840.103 32.4621 835.742 Q37.4273 831.382 46.212 831.382 Q54.9649 831.382 59.9619 835.742 Q64.9272 840.103 64.9272 847.742 Q64.9272 855.412 59.9619 859.773 Q54.9649 864.102 46.212 864.102 Q37.4273 864.102 32.4621 859.773 Q27.4968 855.412 27.4968 847.742 Z" fill="#000000" fill-rule="evenodd" fill-opacity="1" /><path clip-path="url(#clip010)" d="M29.7248 796.02 L35.1993 796.02 Q33.8307 798.503 33.1623 801.017 Q32.4621 803.5 32.4621 806.046 Q32.4621 811.744 36.0905 814.895 Q39.6872 818.046 46.212 818.046 Q52.7369 818.046 56.3653 814.895 Q59.9619 811.744 59.9619 806.046 Q59.9619 803.5 59.2935 801.017 Q58.5933 798.503 57.2247 796.02 L62.6355 796.02 Q63.7814 798.471 64.3543 801.113 Q64.9272 803.723 64.9272 806.683 Q64.9272 814.736 59.8664 819.478 Q54.8057 824.22 46.212 824.22 Q37.491 824.22 32.4939 819.446 Q27.4968 814.64 27.4968 806.301 Q27.4968 803.596 28.0697 801.017 Q28.6108 798.439 29.7248 796.02 Z" fill="#000000" fill-rule="evenodd" fill-opacity="1" /><path clip-path="url(#clip010)" d="M46.0847 769.635 Q46.0847 776.732 47.7079 779.47 Q49.3312 782.207 53.2461 782.207 Q56.3653 782.207 58.2114 780.17 Q60.0256 778.101 60.0256 774.568 Q60.0256 769.698 56.5881 766.77 Q53.1188 763.81 47.3897 763.81 L46.0847 763.81 L46.0847 769.635 M43.6657 757.953 L64.0042 757.953 L64.0042 763.81 L58.5933 763.81 Q61.8398 765.815 63.3994 768.807 Q64.9272 771.799 64.9272 776.128 Q64.9272 781.602 61.8716 784.849 Q58.7843 788.063 53.6281 788.063 Q47.6125 788.063 44.5569 784.053 Q41.5014 780.011 41.5014 772.022 L41.5014 763.81 L40.9285 763.81 Q36.8862 763.81 34.6901 766.484 Q32.4621 769.125 32.4621 773.931 Q32.4621 776.987 33.1941 779.883 Q33.9262 782.78 35.3903 785.453 L29.9795 785.453 Q28.7381 782.239 28.1334 779.215 Q27.4968 776.191 27.4968 773.327 Q27.4968 765.592 31.5072 761.773 Q35.5176 757.953 43.6657 757.953 Z" fill="#000000" fill-rule="evenodd" fill-opacity="1" /><path clip-path="url(#clip010)" d="M14.479 745.89 L14.479 740.034 L64.0042 740.034 L64.0042 745.89 L14.479 745.89 Z" fill="#000000" fill-rule="evenodd" fill-opacity="1" /><path clip-path="url(#clip010)" d="M21.7677 700.376 L58.7206 700.376 L58.7206 692.609 Q58.7206 682.774 54.2646 678.223 Q49.8086 673.64 40.1964 673.64 Q30.6479 673.64 26.2237 678.223 Q21.7677 682.774 21.7677 692.609 L21.7677 700.376 M16.4842 706.805 L16.4842 693.596 Q16.4842 679.783 22.2451 673.321 Q27.9743 666.86 40.1964 666.86 Q52.4822 666.86 58.2432 673.353 Q64.0042 679.846 64.0042 693.596 L64.0042 706.805 L16.4842 706.805 Z" fill="#000000" fill-rule="evenodd" fill-opacity="1" /><path clip-path="url(#clip010)" d="M20.8447 637.323 Q20.8447 644.326 26.0645 648.463 Q31.2844 652.569 40.2919 652.569 Q49.2675 652.569 54.4874 648.463 Q59.7073 644.326 59.7073 637.323 Q59.7073 630.321 54.4874 626.247 Q49.2675 622.141 40.2919 622.141 Q31.2844 622.141 26.0645 626.247 Q20.8447 630.321 20.8447 637.323 M15.6248 637.323 Q15.6248 627.329 22.3406 621.345 Q29.0246 615.362 40.2919 615.362 Q51.5274 615.362 58.2432 621.345 Q64.9272 627.329 64.9272 637.323 Q64.9272 647.349 58.2432 653.365 Q51.5592 659.349 40.2919 659.349 Q29.0246 659.349 22.3406 653.365 Q15.6248 647.349 15.6248 637.323 Z" fill="#000000" fill-rule="evenodd" fill-opacity="1" /><path clip-path="url(#clip010)" d="M18.0438 576.817 L24.314 576.817 Q22.5634 580.478 21.704 583.724 Q20.8447 586.971 20.8447 589.994 Q20.8447 595.246 22.8817 598.111 Q24.9187 600.943 28.6745 600.943 Q31.8255 600.943 33.4488 599.065 Q35.0402 597.156 36.0269 591.872 L36.8226 587.989 Q38.1912 580.796 41.6605 577.39 Q45.098 573.953 50.8908 573.953 Q57.7976 573.953 61.3624 578.6 Q64.9272 583.215 64.9272 592.159 Q64.9272 595.532 64.1633 599.352 Q63.3994 603.139 61.9035 607.214 L55.2831 607.214 Q57.4793 603.299 58.5933 599.543 Q59.7073 595.787 59.7073 592.159 Q59.7073 586.652 57.543 583.66 Q55.3786 580.669 51.3682 580.669 Q47.8671 580.669 45.8937 582.833 Q43.9204 584.965 42.9337 589.867 L42.1698 593.782 Q40.7375 600.975 37.682 604.19 Q34.6264 607.404 29.1837 607.404 Q22.8817 607.404 19.2532 602.98 Q15.6248 598.524 15.6248 590.726 Q15.6248 587.384 16.2295 583.915 Q16.8343 580.446 18.0438 576.817 Z" fill="#000000" fill-rule="evenodd" fill-opacity="1" /><polyline clip-path="url(#clip012)" style="stroke:#009af9; stroke-linecap:butt; stroke-linejoin:round; stroke-width:4; stroke-opacity:1; fill:none" points="
  280.231,1124.03 282.245,1205.39 284.259,1232.5 286.274,1231.51 288.288,1204.3 290.302,1133.05 292.316,969.99 294.33,649.187 296.344,259.001 298.359,365.305 
  300.373,852.045 302.387,1071.01 304.401,1145.51 306.415,1145.61 308.43,1063.15 310.444,824.808 312.458,662.432 314.472,935.366 316.486,1103.49 318.5,1144.98 
  320.515,1107.76 322.529,962.374 324.543,735.583 326.557,595.763 328.571,308.952 330.585,527.444 332.6,828.219 334.614,912.595 336.628,778.517 338.642,713.827 
  340.656,911.896 342.67,1090.04 344.685,1134.26 346.699,1098.11 348.713,1065.28 350.727,1004.68 352.741,801.174 354.756,818.69 356.77,949.91 358.784,856.355 
  360.798,806.671 362.812,923.289 364.826,903.45 366.841,814.527 368.855,953.27 370.869,1106.15 372.883,1165.09 374.897,1157.31 376.911,1069.64 378.926,835.507 
  380.94,701.62 382.954,852.141 384.968,752.625 386.982,608.991 388.996,836.511 391.011,958.816 393.025,840.928 395.039,637.197 397.053,828.427 399.067,945.061 
  401.082,847.366 403.096,703.047 405.11,946.11 407.124,1097.06 409.138,1117.22 411.152,1027.1 413.167,815.9 415.181,767.264 417.195,934.797 419.209,902.329 
  421.223,835.872 423.237,968.155 425.252,956.494 427.266,782.183 429.28,886.129 431.294,1029.8 433.308,1086.1 435.322,1109.08 437.337,1061.25 439.351,908.188 
  441.365,841.422 443.379,883.779 445.393,868.51 447.408,947.263 449.422,917.208 451.436,739.542 453.45,333.392 455.464,469.22 457.478,719.867 459.493,953.068 
  461.507,1104.13 463.521,1146.77 465.535,1114.26 467.549,968.486 469.563,701.126 471.578,736.436 473.592,976.465 475.606,1091.53 477.62,1084.75 479.634,955.449 
  481.648,588.256 483.663,171.986 485.677,528.105 487.691,926.47 489.705,1072.56 491.719,1144.96 493.734,1197.32 495.748,1202.65 497.762,1156.68 499.776,1009.6 
  501.79,779.614 503.804,940.037 505.819,1118.81 507.833,1170.4 509.847,1147.27 511.861,1060.99 513.875,983.108 515.889,752.743 517.904,294.837 519.918,410.7 
  521.932,755.682 523.946,954.597 525.96,966.919 527.974,904.137 529.989,1038.81 532.003,1106.07 534.017,1048.44 536.031,931.416 538.045,986.014 540.06,992.988 
  542.074,801.513 544.088,516.872 546.102,294.028 548.116,469.612 550.13,875.868 552.145,1027.99 554.159,1056.91 556.173,1086.85 558.187,1161.43 560.201,1194.45 
  562.215,1183.71 564.23,1124 566.244,968.318 568.258,579.274 570.272,86.1857 572.286,211.129 574.301,702.181 576.315,1013.2 578.329,1132.07 580.343,1161.31 
  582.357,1110.83 584.371,999.469 586.386,1077.01 588.4,1145.32 590.414,1117.3 592.428,1149.16 594.442,1207.96 596.456,1213.05 598.471,1167.64 600.485,1050.1 
  602.499,955.901 604.513,850.957 606.527,663.357 608.541,285.768 610.556,386.373 612.57,809.435 614.584,934.514 616.598,894.755 618.612,922.153 620.627,810.091 
  622.641,747.246 624.655,970.468 626.669,1033.77 628.683,925.828 630.697,898.732 632.712,1010.14 634.726,945.525 636.74,664.119 638.754,678.615 640.768,935.314 
  642.782,1030.79 644.797,1107.6 646.811,1087.3 648.825,946.195 650.839,856.793 652.853,940.055 654.867,968.573 656.882,974.921 658.896,837.243 660.91,588.133 
  662.924,660.481 664.938,727.419 666.953,888.269 668.967,1070.25 670.981,1158.3 672.995,1201.6 675.009,1241.1 677.023,1254.01 679.038,1246.34 681.052,1216 
  683.066,1142.84 685.08,966.582 687.094,686.198 689.108,609.002 691.123,526.273 693.137,689.476 695.151,739.952 697.165,524.96 699.179,520.173 701.193,761.683 
  703.208,1023.37 705.222,1140.02 707.236,1163.83 709.25,1118.16 711.264,977.745 713.279,898.438 715.293,1081.66 717.307,1168.61 719.321,1165.49 721.335,1133.91 
  723.349,1091.11 725.364,914.611 727.378,657.734 729.392,808.607 731.406,1022.63 733.42,1062.87 735.434,955.331 737.449,622.38 739.463,287.136 741.477,607.209 
  743.491,786.093 745.505,900.825 747.519,1092.8 749.534,1174.3 751.548,1188.55 753.562,1146.94 755.576,1008.65 757.59,796.643 759.605,685.999 761.619,832.068 
  763.633,1029.5 765.647,1029.66 767.661,899.13 769.675,1008.55 771.69,1153.83 773.704,1193.38 775.718,1156.17 777.732,1060.18 779.746,1102.92 781.76,1143.32 
  783.775,1111.46 785.789,1052.93 787.803,845.511 789.817,756.756 791.831,951.532 793.845,943.254 795.86,828.236 797.874,877.262 799.888,912.092 801.902,981.779 
  803.916,1066.31 805.931,1015.46 807.945,819.843 809.959,820.066 811.973,836.595 813.987,550.256 816.001,173.329 818.016,535.303 820.03,960.703 822.044,1140.61 
  824.058,1217.58 826.072,1253.02 828.086,1267.24 830.101,1265.63 832.115,1242.65 834.129,1175.66 836.143,1074.81 838.157,1081.36 840.171,1000.63 842.186,812.478 
  844.2,932.304 846.214,1035.21 848.228,999.551 850.242,831.765 852.257,824.22 854.271,913.471 856.285,934.171 858.299,972.831 860.313,1120.99 862.327,1177.64 
  864.342,1160.47 866.356,1082.46 868.37,861.081 870.384,767.466 872.398,1021.05 874.412,1129.05 876.427,1102.22 878.441,938.079 880.455,905.643 882.469,1083.15 
  884.483,1193.22 886.498,1236.37 888.512,1238.17 890.526,1205.9 892.54,1129.24 894.554,957.415 896.568,671.414 898.583,362.826 900.597,536.665 902.611,957.61 
  904.625,1155.53 906.639,1239.36 908.653,1279.72 910.668,1301.06 912.682,1312.62 914.696,1318.22 916.71,1319.37 918.724,1316.27 920.738,1307.86 922.753,1291.11 
  924.767,1258.36 926.781,1188.81 928.795,1023.78 930.809,725.946 932.824,701.318 934.838,748.587 936.852,695.501 938.866,976.65 940.88,1161.16 942.894,1235.92 
  944.909,1264.59 946.923,1269.02 948.937,1250.9 950.951,1193.5 952.965,1039.1 954.979,760.096 956.994,885.437 959.008,1121.93 961.022,1213.62 963.036,1229.84 
  965.05,1219.14 967.064,1227.59 969.079,1208.62 971.093,1213.5 973.107,1189.81 975.121,1089.02 977.135,829.708 979.15,484.556 981.164,374.064 983.178,625.957 
  985.192,968.284 987.206,1160.14 989.22,1243.21 991.235,1283.35 993.249,1304.86 995.263,1316.93 997.277,1323.44 999.291,1326.11 1001.31,1325.55 1003.32,1321.61 
  1005.33,1313.3 1007.35,1298.2 1009.36,1270.77 1011.38,1217.29 1013.39,1099.61 1015.4,825.136 1017.42,457.036 1019.43,548.775 1021.45,713.127 1023.46,943.785 
  1025.48,1135.73 1027.49,1213.56 1029.5,1233.31 1031.52,1206.44 1033.53,1100.24 1035.55,981.399 1037.56,1117.64 1039.57,1213.15 1041.59,1234.88 1043.6,1203.88 
  1045.62,1134.42 1047.63,1004.44 1049.65,942.534 1051.66,1095.72 1053.67,1138.87 1055.69,1056 1057.7,792.116 1059.72,605.843 1061.73,855.76 1063.74,1076.35 
  1065.76,1188.23 1067.77,1242.06 1069.79,1255.3 1071.8,1235.07 1073.82,1160.1 1075.83,1037.38 1077.84,1060.39 1079.86,1070.63 1081.87,1101.1 1083.89,1100.76 
  1085.9,943.376 1087.91,720.806 1089.93,912.198 1091.94,1052.79 1093.96,1067.43 1095.97,1141.61 1097.99,1150.34 1100,1044.68 1102.01,871.974 1104.03,848.268 
  1106.04,931.885 1108.06,1077.17 1110.07,1074.87 1112.09,1007.1 1114.1,982.124 1116.11,1075.14 1118.13,1146.36 1120.14,1174.79 1122.16,1129.4 1124.17,1116.81 
  1126.18,1222.14 1128.2,1279.5 1130.21,1299.44 1132.23,1301.27 1134.24,1288.02 1136.26,1250.81 1138.27,1155.06 1140.28,1026.81 1142.3,1074.62 1144.31,1044.03 
  1146.33,988.943 1148.34,1059.8 1150.35,1045.56 1152.37,1055.02 1154.38,1023.93 1156.4,1048.36 1158.41,992.797 1160.43,949.645 1162.44,921.023 1164.45,966.908 
  1166.47,1110.38 1168.48,1234.97 1170.5,1290.38 1172.51,1315.86 1174.52,1328.68 1176.54,1335.02 1178.55,1337.1 1180.57,1335.47 1182.58,1329.31 1184.6,1315.81 
  1186.61,1287.22 1188.62,1221.3 1190.64,1067.63 1192.65,937.659 1194.67,954.315 1196.68,1024.45 1198.69,1182.55 1200.71,1255.97 1202.72,1270.47 1204.74,1236.99 
  1206.75,1170.88 1208.77,1177.7 1210.78,1257.76 1212.79,1295.7 1214.81,1297.08 1216.82,1262.13 1218.84,1172.57 1220.85,1175.49 1222.86,1262.35 1224.88,1291.92 
  1226.89,1278.52 1228.91,1210.99 1230.92,1154.65 1232.94,1241.49 1234.95,1289.35 1236.96,1289.2 1238.98,1240.23 1240.99,1162.01 1243.01,1231.35 1245.02,1300.32 
  1247.03,1326.09 1249.05,1332.69 1251.06,1326.6 1253.08,1301.88 1255.09,1233.2 1257.11,1125.41 1259.12,1200.1 1261.13,1290.34 1263.15,1326.11 1265.16,1339.33 
  1267.18,1341.87 1269.19,1335.29 1271.2,1313.06 1273.22,1252.63 1275.23,1163.86 1277.25,1232.74 1279.26,1306.92 1281.28,1336.56 1283.29,1348.43 1285.3,1352.71 
  1287.32,1352.38 1289.33,1347.3 1291.35,1334.08 1293.36,1301.46 1295.37,1220.05 1297.39,1144.55 1299.4,1242.2 1301.42,1308.89 1303.43,1333.86 1305.45,1342.02 
  1307.46,1340.92 1309.47,1329.77 1311.49,1298.26 1313.5,1218.1 1315.52,1151.6 1317.53,1247.19 1319.54,1307.75 1321.56,1328.79 1323.57,1332.46 1325.59,1323.12 
  1327.6,1292.32 1329.62,1211.74 1331.63,1131.1 1333.64,1222.48 1335.66,1280.42 1337.67,1282.8 1339.69,1232.48 1341.7,1139.9 1343.72,1201.33 1345.73,1275.09 
  1347.74,1291.47 1349.76,1263.94 1351.77,1179.48 1353.79,1177.41 1355.8,1266.42 1357.81,1302.15 1359.83,1303.42 1361.84,1272.27 1363.86,1205.04 1365.87,1199.77 
  1367.89,1252 1369.9,1273.35 1371.91,1247.71 1373.93,1153.13 1375.94,956.151 1377.96,918.861 1379.97,984.066 1381.98,1111.43 1384,1241.99 1386.01,1298.88 
  1388.03,1324.29 1390.04,1336.73 1392.06,1342.75 1394.07,1344.81 1396.08,1343.67 1398.1,1338.99 1400.11,1329.15 1402.13,1309.75 1404.14,1268.85 1406.15,1175.7 
  1408.17,1015.85 1410.18,885.787 1412.2,937.738 1414.21,1084.85 1416.23,1173.72 1418.24,1179.97 1420.25,1141.03 1422.27,1119.8 1424.28,1169.8 1426.3,1200.94 
  1428.31,1161.47 1430.32,1150.35 1432.34,1194.3 1434.35,1275.78 1436.37,1317.69 1438.38,1335.69 1440.4,1343.74 1442.41,1346.04 1444.42,1343.4 1446.44,1333.35 
  1448.45,1312.82 1450.47,1302.62 1452.48,1283.75 1454.49,1214.37 1456.51,1076.98 1458.52,1038.23 1460.54,1093.58 1462.55,1202.79 1464.57,1221.93 1466.58,1220.48 
  1468.59,1221.24 1470.61,1254.8 1472.62,1289.58 1474.64,1304.43 1476.65,1286.92 1478.66,1228.76 1480.68,1217.29 1482.69,1222.73 1484.71,1184.71 1486.72,1243.72 
  1488.74,1281.64 1490.75,1278.08 1492.76,1242.45 1494.78,1216.85 1496.79,1202.96 1498.81,1271.87 1500.82,1320.07 1502.83,1337.84 1504.85,1341.32 1506.86,1333.64 
  1508.88,1311.83 1510.89,1257.82 1512.91,1176.48 1514.92,1234.5 1516.93,1303.61 1518.95,1332.34 1520.96,1336.35 1522.98,1322.37 1524.99,1327.89 1527,1346.82 
  1529.02,1355.56 1531.03,1359.51 1533.05,1360.24 1535.06,1352.88 1537.08,1343.72 1539.09,1355.35 1541.1,1364.43 1543.12,1366.78 1545.13,1364.39 1547.15,1355.4 
  1549.16,1332.56 1551.17,1310.61 1553.19,1304.95 1555.2,1306.47 1557.22,1334.49 1559.23,1357.71 1561.25,1368.22 1563.26,1373.06 1565.27,1375.59 1567.29,1377.02 
  1569.3,1377.84 1571.32,1378.28 1573.33,1378.41 1575.35,1378.25 1577.36,1377.75 1579.37,1376.78 1581.39,1375.03 1583.4,1371.79 1585.42,1365.26 1587.43,1350.5 
  1589.44,1318.01 1591.46,1278.37 1593.47,1297.01 1595.49,1334.96 1597.5,1358.27 1599.52,1367.66 1601.53,1370.75 1603.54,1371.44 1605.56,1373.3 1607.57,1373.19 
  1609.59,1374.07 1611.6,1373.76 1613.61,1369.3 1615.63,1357.31 1617.64,1351.87 1619.66,1366.04 1621.67,1373.62 1623.69,1376.36 1625.7,1377.07 1627.71,1376.45 
  1629.73,1374.18 1631.74,1368.42 1633.76,1354.16 1635.77,1335.88 1637.78,1345.17 1639.8,1349.36 1641.81,1354.3 1643.83,1367.52 1645.84,1374.49 1647.86,1377.49 
  1649.87,1378.93 1651.88,1379.64 1653.9,1379.94 1655.91,1379.97 1657.93,1379.75 1659.94,1379.24 1661.95,1378.34 1663.97,1376.78 1665.98,1373.96 1668,1368.31 
  1670.01,1355.44 1672.03,1326.76 1674.04,1303.42 1676.05,1319.56 1678.07,1344.18 1680.08,1361.42 1682.1,1368.67 1684.11,1372.37 1686.12,1373.62 1688.14,1372.5 
  1690.15,1368.14 1692.17,1361.9 1694.18,1364.97 1696.2,1368.7 1698.21,1368.42 1700.22,1364.15 1702.24,1354.36 1704.25,1350.58 1706.27,1350.14 1708.28,1337.92 
  1710.29,1304.2 1712.31,1236.36 1714.32,1199.24 1716.34,1150.21 1718.35,1191.63 1720.37,1213.13 1722.38,1198.12 1724.39,1273.74 1726.41,1317 1728.42,1333.08 
  1730.44,1343.35 1732.45,1346.43 1734.46,1342.03 1736.48,1338.49 1738.49,1355.31 1740.51,1366.21 1742.52,1370.62 1744.54,1372.25 1746.55,1372.26 1748.56,1370.68 
  1750.58,1366.54 1752.59,1356.61 1754.61,1333.05 1756.62,1311.51 1758.63,1320.57 1760.65,1320.68 1762.66,1288.84 1764.68,1280.41 1766.69,1324.96 1768.71,1340.55 
  1770.72,1333.68 1772.73,1339.14 1774.75,1347.03 1776.76,1353.39 1778.78,1364.28 1780.79,1368.99 1782.81,1367.77 1784.82,1368.21 1786.83,1370.35 1788.85,1369.17 
  1790.86,1372.39 1792.88,1374.25 1794.89,1373.74 1796.9,1376.41 1798.92,1378.29 1800.93,1378.42 1802.95,1376.95 1804.96,1375.01 1806.98,1374.78 1808.99,1372.03 
  1811,1363.07 1813.02,1348.62 1815.03,1344.81 1817.05,1357.83 1819.06,1369.28 1821.07,1373.24 1823.09,1373.51 1825.1,1370.84 1827.12,1363.6 1829.13,1349.8 
  1831.15,1322.74 1833.16,1287.43 1835.17,1322.98 1837.19,1354.14 1839.2,1366.18 1841.22,1370.67 1843.23,1369.66 1845.24,1366.94 1847.26,1372.67 1849.27,1377.09 
  1851.29,1378.74 1853.3,1379.32 1855.32,1378.67 1857.33,1376.58 1859.34,1371.8 1861.36,1371.98 1863.37,1377.06 1865.39,1379.07 1867.4,1378.97 1869.41,1377.71 
  1871.43,1375.08 1873.44,1370.61 1875.46,1370.77 1877.47,1369.35 1879.49,1362.1 1881.5,1353.52 1883.51,1356.52 1885.53,1366.98 1887.54,1374.76 1889.56,1378.63 
  1891.57,1380.28 1893.58,1380.97 1895.6,1381.1 1897.61,1380.73 1899.63,1379.62 1901.64,1378.02 1903.66,1375.47 1905.67,1368.71 1907.68,1358.46 1909.7,1350.42 
  1911.71,1339.95 1913.73,1356.19 1915.74,1367.03 1917.75,1372.13 1919.77,1373.1 1921.78,1370.87 1923.8,1369.61 1925.81,1375.26 1927.83,1377.84 1929.84,1377.35 
  1931.85,1375.55 1933.87,1372.77 1935.88,1372.33 1937.9,1376.62 1939.91,1377.63 1941.92,1375.28 1943.94,1374.91 1945.95,1376.58 1947.97,1374.09 1949.98,1366.45 
  1952,1366.84 1954.01,1371.04 1956.02,1370.17 1958.04,1374.08 1960.05,1375.54 1962.07,1372.97 1964.08,1371.47 1966.09,1376.47 1968.11,1378.58 1970.12,1379.52 
  1972.14,1381.14 1974.15,1381.93 1976.17,1381.99 1978.18,1381.14 1980.19,1378.95 1982.21,1378.72 1984.22,1380.09 1986.24,1379.94 1988.25,1379.05 1990.26,1380.03 
  1992.28,1380.06 1994.29,1378.52 1996.31,1374.43 1998.32,1364.3 2000.34,1348.66 2002.35,1344.5 2004.36,1359.61 2006.38,1372.49 2008.39,1377.78 2010.41,1379.99 
  2012.42,1380.76 2014.44,1380.37 2016.45,1378.85 2018.46,1379.01 2020.48,1378.86 2022.49,1377.01 2024.51,1371.95 2026.52,1368.69 2028.53,1373.76 2030.55,1377.83 
  2032.56,1378.89 2034.58,1378.23 2036.59,1375.91 2038.61,1378.42 2040.62,1380.7 2042.63,1380.89 2044.65,1379.82 2046.66,1379.91 2048.68,1379.03 2050.69,1374.81 
  2052.7,1371.45 2054.72,1373.94 2056.73,1378.38 2058.75,1380.34 2060.76,1381 2062.78,1381.88 2064.79,1382.02 2066.8,1381 2068.82,1377.87 2070.83,1375.01 
  2072.85,1378.84 2074.86,1381.28 2076.87,1381.95 2078.89,1381.68 2080.9,1380.47 2082.92,1378.55 2084.93,1374.56 2086.95,1363.87 2088.96,1354.92 2090.97,1366.31 
  2092.99,1375.75 2095,1379.49 2097.02,1380.68 2099.03,1380.2 2101.04,1377.98 2103.06,1377.14 2105.07,1380.17 2107.09,1381.92 2109.1,1382.34 2111.12,1381.83 
  2113.13,1380.04 2115.14,1377.86 2117.16,1376.02 2119.17,1375.53 2121.19,1377.89 2123.2,1380.35 2125.21,1380.67 2127.23,1379.82 2129.24,1378.87 2131.26,1375.87 
  2133.27,1375.99 2135.29,1379.97 2137.3,1381.38 2139.31,1381.47 2141.33,1381.78 2143.34,1381 2145.36,1380.35 2147.37,1380.87 2149.38,1379.6 2151.4,1376.56 
  2153.41,1377.67 2155.43,1379.17 2157.44,1377.63 2159.46,1378.13 2161.47,1380.79 2163.48,1381.54 2165.5,1380.72 2167.51,1377.56 2169.53,1372.71 2171.54,1375.66 
  2173.55,1377.84 2175.57,1376.08 2177.58,1373.35 2179.6,1377.13 2181.61,1380.09 2183.63,1380.04 2185.64,1378.49 2187.65,1380.19 2189.67,1381.33 2191.68,1380.71 
  2193.7,1381.64 2195.71,1382.95 2197.72,1383.4 2199.74,1383.31 2201.75,1382.54 2203.77,1381 2205.78,1379.48 2207.8,1380.52 2209.81,1381.22 2211.82,1380.12 
  2213.84,1380.34 2215.85,1380.07 2217.87,1376.9 2219.88,1376.6 2221.9,1380.1 2223.91,1381.23 2225.92,1382.18 2227.94,1382.75 2229.95,1382.51 2231.97,1381.14 
  2233.98,1378.89 2235.99,1378.35 2238.01,1379.62 2240.02,1378.6 2242.04,1374.51 2244.05,1371.68 2246.07,1376.37 2248.08,1378.56 2250.09,1381.05 2252.11,1382.46 
  2254.12,1382.78 2256.14,1382.22 2258.15,1380.17 2260.16,1376.74 2262.18,1378.66 2264.19,1381.83 2266.21,1383.06 2268.22,1383.39 2270.24,1383.11 2272.25,1381.89 
  2274.26,1379.08 2276.28,1378.73 2278.29,1381.07 2280.31,1382.77 2282.32,1383.72 2284.33,1384.11 2286.35,1384.24 2288.36,1384.18 2290.38,1383.91 2292.39,1383.21 
  
  "/>
<path clip-path="url(#clip010)" d="
M1992.24 196.789 L2281.66 196.789 L2281.66 93.1086 L1992.24 93.1086  Z
  " fill="#ffffff" fill-rule="evenodd" fill-opacity="1"/>
<polyline clip-path="url(#clip010)" style="stroke:#000000; stroke-linecap:butt; stroke-linejoin:round; stroke-width:4; stroke-opacity:1; fill:none" points="
  1992.24,196.789 2281.66,196.789 2281.66,93.1086 1992.24,93.1086 1992.24,196.789 
  "/>
<polyline clip-path="url(#clip010)" style="stroke:#009af9; stroke-linecap:butt; stroke-linejoin:round; stroke-width:4; stroke-opacity:1; fill:none" points="
  2015.94,144.949 2158.13,144.949 
  "/>
<path clip-path="url(#clip010)" d="M2195.67 164.636 Q2193.87 169.266 2192.16 170.678 Q2190.44 172.09 2187.57 172.09 L2184.17 172.09 L2184.17 168.525 L2186.67 168.525 Q2188.43 168.525 2189.4 167.692 Q2190.37 166.858 2191.55 163.756 L2192.32 161.812 L2181.83 136.303 L2186.35 136.303 L2194.45 156.581 L2202.55 136.303 L2207.06 136.303 L2195.67 164.636 Z" fill="#000000" fill-rule="evenodd" fill-opacity="1" /><path clip-path="url(#clip010)" d="M2214.35 158.293 L2221.99 158.293 L2221.99 131.928 L2213.68 133.595 L2213.68 129.335 L2221.95 127.669 L2226.62 127.669 L2226.62 158.293 L2234.26 158.293 L2234.26 162.229 L2214.35 162.229 L2214.35 158.293 Z" fill="#000000" fill-rule="evenodd" fill-opacity="1" /></svg>
