<?xml version="1.0" encoding="utf-8"?>
<svg xmlns="http://www.w3.org/2000/svg" xmlns:xlink="http://www.w3.org/1999/xlink" width="600" height="400" viewBox="0 0 2400 1600">
<defs>
  <clipPath id="clip640">
    <rect x="0" y="0" width="2400" height="1600"/>
  </clipPath>
</defs>
<path clip-path="url(#clip640)" d="
M0 1600 L2400 1600 L2400 0 L0 0  Z
  " fill="#ffffff" fill-rule="evenodd" fill-opacity="1"/>
<defs>
  <clipPath id="clip641">
    <rect x="480" y="0" width="1681" height="1600"/>
  </clipPath>
</defs>
<path clip-path="url(#clip640)" d="
M249.542 1423.18 L2352.76 1423.18 L2352.76 47.2441 L249.542 47.2441  Z
  " fill="#ffffff" fill-rule="evenodd" fill-opacity="1"/>
<defs>
  <clipPath id="clip642">
    <rect x="249" y="47" width="2104" height="1377"/>
  </clipPath>
</defs>
<polyline clip-path="url(#clip642)" style="stroke:#000000; stroke-linecap:butt; stroke-linejoin:round; stroke-width:2; stroke-opacity:0.1; fill:none" points="
  309.067,1423.18 309.067,47.2441 
  "/>
<polyline clip-path="url(#clip642)" style="stroke:#000000; stroke-linecap:butt; stroke-linejoin:round; stroke-width:2; stroke-opacity:0.1; fill:none" points="
  805.108,1423.18 805.108,47.2441 
  "/>
<polyline clip-path="url(#clip642)" style="stroke:#000000; stroke-linecap:butt; stroke-linejoin:round; stroke-width:2; stroke-opacity:0.1; fill:none" points="
  1301.15,1423.18 1301.15,47.2441 
  "/>
<polyline clip-path="url(#clip642)" style="stroke:#000000; stroke-linecap:butt; stroke-linejoin:round; stroke-width:2; stroke-opacity:0.1; fill:none" points="
  1797.19,1423.18 1797.19,47.2441 
  "/>
<polyline clip-path="url(#clip642)" style="stroke:#000000; stroke-linecap:butt; stroke-linejoin:round; stroke-width:2; stroke-opacity:0.1; fill:none" points="
  2293.23,1423.18 2293.23,47.2441 
  "/>
<polyline clip-path="url(#clip640)" style="stroke:#000000; stroke-linecap:butt; stroke-linejoin:round; stroke-width:4; stroke-opacity:1; fill:none" points="
  249.542,1423.18 2352.76,1423.18 
  "/>
<polyline clip-path="url(#clip640)" style="stroke:#000000; stroke-linecap:butt; stroke-linejoin:round; stroke-width:4; stroke-opacity:1; fill:none" points="
  309.067,1423.18 309.067,1404.28 
  "/>
<polyline clip-path="url(#clip640)" style="stroke:#000000; stroke-linecap:butt; stroke-linejoin:round; stroke-width:4; stroke-opacity:1; fill:none" points="
  805.108,1423.18 805.108,1404.28 
  "/>
<polyline clip-path="url(#clip640)" style="stroke:#000000; stroke-linecap:butt; stroke-linejoin:round; stroke-width:4; stroke-opacity:1; fill:none" points="
  1301.15,1423.18 1301.15,1404.28 
  "/>
<polyline clip-path="url(#clip640)" style="stroke:#000000; stroke-linecap:butt; stroke-linejoin:round; stroke-width:4; stroke-opacity:1; fill:none" points="
  1797.19,1423.18 1797.19,1404.28 
  "/>
<polyline clip-path="url(#clip640)" style="stroke:#000000; stroke-linecap:butt; stroke-linejoin:round; stroke-width:4; stroke-opacity:1; fill:none" points="
  2293.23,1423.18 2293.23,1404.28 
  "/>
<path clip-path="url(#clip640)" d="M277.968 1468.75 L307.643 1468.75 L307.643 1472.69 L277.968 1472.69 L277.968 1468.75 Z" fill="#000000" fill-rule="evenodd" fill-opacity="1" /><path clip-path="url(#clip640)" d="M330.583 1455.09 L318.778 1473.54 L330.583 1473.54 L330.583 1455.09 M329.356 1451.02 L335.236 1451.02 L335.236 1473.54 L340.166 1473.54 L340.166 1477.43 L335.236 1477.43 L335.236 1485.58 L330.583 1485.58 L330.583 1477.43 L314.981 1477.43 L314.981 1472.92 L329.356 1451.02 Z" fill="#000000" fill-rule="evenodd" fill-opacity="1" /><path clip-path="url(#clip640)" d="M775.05 1468.75 L804.726 1468.75 L804.726 1472.69 L775.05 1472.69 L775.05 1468.75 Z" fill="#000000" fill-rule="evenodd" fill-opacity="1" /><path clip-path="url(#clip640)" d="M818.846 1481.64 L835.166 1481.64 L835.166 1485.58 L813.221 1485.58 L813.221 1481.64 Q815.883 1478.89 820.467 1474.26 Q825.073 1469.61 826.254 1468.27 Q828.499 1465.74 829.379 1464.01 Q830.281 1462.25 830.281 1460.56 Q830.281 1457.8 828.337 1456.07 Q826.416 1454.33 823.314 1454.33 Q821.115 1454.33 818.661 1455.09 Q816.231 1455.86 813.453 1457.41 L813.453 1452.69 Q816.277 1451.55 818.731 1450.97 Q821.184 1450.39 823.221 1450.39 Q828.592 1450.39 831.786 1453.08 Q834.98 1455.77 834.98 1460.26 Q834.98 1462.39 834.17 1464.31 Q833.383 1466.2 831.277 1468.8 Q830.698 1469.47 827.596 1472.69 Q824.494 1475.88 818.846 1481.64 Z" fill="#000000" fill-rule="evenodd" fill-opacity="1" /><path clip-path="url(#clip640)" d="M1301.15 1454.1 Q1297.54 1454.1 1295.71 1457.66 Q1293.9 1461.2 1293.9 1468.33 Q1293.9 1475.44 1295.71 1479.01 Q1297.54 1482.55 1301.15 1482.55 Q1304.78 1482.55 1306.59 1479.01 Q1308.42 1475.44 1308.42 1468.33 Q1308.42 1461.2 1306.59 1457.66 Q1304.78 1454.1 1301.15 1454.1 M1301.15 1450.39 Q1306.96 1450.39 1310.01 1455 Q1313.09 1459.58 1313.09 1468.33 Q1313.09 1477.06 1310.01 1481.67 Q1306.96 1486.25 1301.15 1486.25 Q1295.34 1486.25 1292.26 1481.67 Q1289.2 1477.06 1289.2 1468.33 Q1289.2 1459.58 1292.26 1455 Q1295.34 1450.39 1301.15 1450.39 Z" fill="#000000" fill-rule="evenodd" fill-opacity="1" /><path clip-path="url(#clip640)" d="M1791.84 1481.64 L1808.16 1481.64 L1808.16 1485.58 L1786.22 1485.58 L1786.22 1481.64 Q1788.88 1478.89 1793.46 1474.26 Q1798.07 1469.61 1799.25 1468.27 Q1801.5 1465.74 1802.38 1464.01 Q1803.28 1462.25 1803.28 1460.56 Q1803.28 1457.8 1801.33 1456.07 Q1799.41 1454.33 1796.31 1454.33 Q1794.11 1454.33 1791.66 1455.09 Q1789.23 1455.86 1786.45 1457.41 L1786.45 1452.69 Q1789.27 1451.55 1791.73 1450.97 Q1794.18 1450.39 1796.22 1450.39 Q1801.59 1450.39 1804.78 1453.08 Q1807.98 1455.77 1807.98 1460.26 Q1807.98 1462.39 1807.17 1464.31 Q1806.38 1466.2 1804.27 1468.8 Q1803.69 1469.47 1800.59 1472.69 Q1797.49 1475.88 1791.84 1481.64 Z" fill="#000000" fill-rule="evenodd" fill-opacity="1" /><path clip-path="url(#clip640)" d="M2296.24 1455.09 L2284.43 1473.54 L2296.24 1473.54 L2296.24 1455.09 M2295.01 1451.02 L2300.89 1451.02 L2300.89 1473.54 L2305.82 1473.54 L2305.82 1477.43 L2300.89 1477.43 L2300.89 1485.58 L2296.24 1485.58 L2296.24 1477.43 L2280.64 1477.43 L2280.64 1472.92 L2295.01 1451.02 Z" fill="#000000" fill-rule="evenodd" fill-opacity="1" /><path clip-path="url(#clip640)" d="M1144.47 1520.52 L1174.52 1520.52 L1174.52 1525.93 L1150.9 1525.93 L1150.9 1540 L1173.53 1540 L1173.53 1545.41 L1150.9 1545.41 L1150.9 1562.63 L1175.09 1562.63 L1175.09 1568.04 L1144.47 1568.04 L1144.47 1520.52 Z" fill="#000000" fill-rule="evenodd" fill-opacity="1" /><path clip-path="url(#clip640)" d="M1215.04 1546.53 L1215.04 1568.04 L1209.18 1568.04 L1209.18 1546.72 Q1209.18 1541.66 1207.21 1539.14 Q1205.23 1536.63 1201.29 1536.63 Q1196.54 1536.63 1193.81 1539.65 Q1191.07 1542.68 1191.07 1547.9 L1191.07 1568.04 L1185.18 1568.04 L1185.18 1532.4 L1191.07 1532.4 L1191.07 1537.93 Q1193.17 1534.72 1196 1533.13 Q1198.87 1531.54 1202.59 1531.54 Q1208.73 1531.54 1211.89 1535.36 Q1215.04 1539.14 1215.04 1546.53 Z" fill="#000000" fill-rule="evenodd" fill-opacity="1" /><path clip-path="url(#clip640)" d="M1257.21 1548.76 L1257.21 1551.62 L1230.28 1551.62 Q1230.66 1557.67 1233.91 1560.85 Q1237.19 1564 1243.01 1564 Q1246.39 1564 1249.54 1563.17 Q1252.72 1562.35 1255.84 1560.69 L1255.84 1566.23 Q1252.69 1567.57 1249.38 1568.27 Q1246.07 1568.97 1242.66 1568.97 Q1234.13 1568.97 1229.14 1564 Q1224.17 1559.04 1224.17 1550.57 Q1224.17 1541.82 1228.88 1536.69 Q1233.62 1531.54 1241.65 1531.54 Q1248.84 1531.54 1253.01 1536.18 Q1257.21 1540.8 1257.21 1548.76 M1251.35 1547.04 Q1251.29 1542.23 1248.65 1539.37 Q1246.04 1536.5 1241.71 1536.5 Q1236.81 1536.5 1233.85 1539.27 Q1230.92 1542.04 1230.47 1547.07 L1251.35 1547.04 Z" fill="#000000" fill-rule="evenodd" fill-opacity="1" /><path clip-path="url(#clip640)" d="M1287.48 1537.87 Q1286.49 1537.3 1285.31 1537.04 Q1284.17 1536.76 1282.77 1536.76 Q1277.8 1536.76 1275.13 1540 Q1272.49 1543.22 1272.49 1549.27 L1272.49 1568.04 L1266.6 1568.04 L1266.6 1532.4 L1272.49 1532.4 L1272.49 1537.93 Q1274.33 1534.69 1277.29 1533.13 Q1280.25 1531.54 1284.49 1531.54 Q1285.09 1531.54 1285.82 1531.63 Q1286.56 1531.7 1287.45 1531.85 L1287.48 1537.87 Z" fill="#000000" fill-rule="evenodd" fill-opacity="1" /><path clip-path="url(#clip640)" d="M1315.93 1549.81 Q1315.93 1543.44 1313.29 1539.94 Q1310.68 1536.44 1305.94 1536.44 Q1301.23 1536.44 1298.59 1539.94 Q1295.98 1543.44 1295.98 1549.81 Q1295.98 1556.14 1298.59 1559.64 Q1301.23 1563.14 1305.94 1563.14 Q1310.68 1563.14 1313.29 1559.64 Q1315.93 1556.14 1315.93 1549.81 M1321.79 1563.62 Q1321.79 1572.72 1317.75 1577.15 Q1313.71 1581.6 1305.37 1581.6 Q1302.28 1581.6 1299.54 1581.13 Q1296.8 1580.68 1294.23 1579.72 L1294.23 1574.03 Q1296.8 1575.43 1299.32 1576.1 Q1301.83 1576.76 1304.44 1576.76 Q1310.2 1576.76 1313.07 1573.74 Q1315.93 1570.75 1315.93 1564.67 L1315.93 1561.77 Q1314.12 1564.92 1311.29 1566.48 Q1308.45 1568.04 1304.51 1568.04 Q1297.95 1568.04 1293.94 1563.05 Q1289.93 1558.05 1289.93 1549.81 Q1289.93 1541.53 1293.94 1536.53 Q1297.95 1531.54 1304.51 1531.54 Q1308.45 1531.54 1311.29 1533.1 Q1314.12 1534.66 1315.93 1537.81 L1315.93 1532.4 L1321.79 1532.4 L1321.79 1563.62 Z" fill="#000000" fill-rule="evenodd" fill-opacity="1" /><path clip-path="url(#clip640)" d="M1348.68 1571.35 Q1346.2 1577.72 1343.85 1579.66 Q1341.49 1581.6 1337.54 1581.6 L1332.87 1581.6 L1332.87 1576.7 L1336.3 1576.7 Q1338.72 1576.7 1340.06 1575.56 Q1341.4 1574.41 1343.02 1570.14 L1344.07 1567.47 L1329.65 1532.4 L1335.86 1532.4 L1347 1560.28 L1358.14 1532.4 L1364.34 1532.4 L1348.68 1571.35 Z" fill="#000000" fill-rule="evenodd" fill-opacity="1" /><path clip-path="url(#clip640)" d="M1392.61 1518.52 L1406.1 1518.52 L1406.1 1523.07 L1398.46 1523.07 L1398.46 1572.09 L1406.1 1572.09 L1406.1 1576.64 L1392.61 1576.64 L1392.61 1518.52 Z" fill="#000000" fill-rule="evenodd" fill-opacity="1" /><path clip-path="url(#clip640)" d="M1424.37 1522.27 L1424.37 1532.4 L1436.44 1532.4 L1436.44 1536.95 L1424.37 1536.95 L1424.37 1556.3 Q1424.37 1560.66 1425.55 1561.9 Q1426.76 1563.14 1430.42 1563.14 L1436.44 1563.14 L1436.44 1568.04 L1430.42 1568.04 Q1423.64 1568.04 1421.06 1565.53 Q1418.48 1562.98 1418.48 1556.3 L1418.48 1536.95 L1414.19 1536.95 L1414.19 1532.4 L1418.48 1532.4 L1418.48 1522.27 L1424.37 1522.27 Z" fill="#000000" fill-rule="evenodd" fill-opacity="1" /><path clip-path="url(#clip640)" d="M1457.82 1518.52 L1457.82 1576.64 L1444.33 1576.64 L1444.33 1572.09 L1451.94 1572.09 L1451.94 1523.07 L1444.33 1523.07 L1444.33 1518.52 L1457.82 1518.52 Z" fill="#000000" fill-rule="evenodd" fill-opacity="1" /><polyline clip-path="url(#clip642)" style="stroke:#000000; stroke-linecap:butt; stroke-linejoin:round; stroke-width:2; stroke-opacity:0.1; fill:none" points="
  249.542,1385.16 2352.76,1385.16 
  "/>
<polyline clip-path="url(#clip642)" style="stroke:#000000; stroke-linecap:butt; stroke-linejoin:round; stroke-width:2; stroke-opacity:0.1; fill:none" points="
  249.542,1061.22 2352.76,1061.22 
  "/>
<polyline clip-path="url(#clip642)" style="stroke:#000000; stroke-linecap:butt; stroke-linejoin:round; stroke-width:2; stroke-opacity:0.1; fill:none" points="
  249.542,737.285 2352.76,737.285 
  "/>
<polyline clip-path="url(#clip642)" style="stroke:#000000; stroke-linecap:butt; stroke-linejoin:round; stroke-width:2; stroke-opacity:0.1; fill:none" points="
  249.542,413.346 2352.76,413.346 
  "/>
<polyline clip-path="url(#clip642)" style="stroke:#000000; stroke-linecap:butt; stroke-linejoin:round; stroke-width:2; stroke-opacity:0.1; fill:none" points="
  249.542,89.4063 2352.76,89.4063 
  "/>
<polyline clip-path="url(#clip640)" style="stroke:#000000; stroke-linecap:butt; stroke-linejoin:round; stroke-width:4; stroke-opacity:1; fill:none" points="
  249.542,1423.18 249.542,47.2441 
  "/>
<polyline clip-path="url(#clip640)" style="stroke:#000000; stroke-linecap:butt; stroke-linejoin:round; stroke-width:4; stroke-opacity:1; fill:none" points="
  249.542,1385.16 268.44,1385.16 
  "/>
<polyline clip-path="url(#clip640)" style="stroke:#000000; stroke-linecap:butt; stroke-linejoin:round; stroke-width:4; stroke-opacity:1; fill:none" points="
  249.542,1061.22 268.44,1061.22 
  "/>
<polyline clip-path="url(#clip640)" style="stroke:#000000; stroke-linecap:butt; stroke-linejoin:round; stroke-width:4; stroke-opacity:1; fill:none" points="
  249.542,737.285 268.44,737.285 
  "/>
<polyline clip-path="url(#clip640)" style="stroke:#000000; stroke-linecap:butt; stroke-linejoin:round; stroke-width:4; stroke-opacity:1; fill:none" points="
  249.542,413.346 268.44,413.346 
  "/>
<polyline clip-path="url(#clip640)" style="stroke:#000000; stroke-linecap:butt; stroke-linejoin:round; stroke-width:4; stroke-opacity:1; fill:none" points="
  249.542,89.4063 268.44,89.4063 
  "/>
<path clip-path="url(#clip640)" d="M126.205 1370.96 Q122.593 1370.96 120.765 1374.53 Q118.959 1378.07 118.959 1385.2 Q118.959 1392.3 120.765 1395.87 Q122.593 1399.41 126.205 1399.41 Q129.839 1399.41 131.644 1395.87 Q133.473 1392.3 133.473 1385.2 Q133.473 1378.07 131.644 1374.53 Q129.839 1370.96 126.205 1370.96 M126.205 1367.26 Q132.015 1367.26 135.07 1371.86 Q138.149 1376.45 138.149 1385.2 Q138.149 1393.92 135.07 1398.53 Q132.015 1403.11 126.205 1403.11 Q120.394 1403.11 117.316 1398.53 Q114.26 1393.92 114.26 1385.2 Q114.26 1376.45 117.316 1371.86 Q120.394 1367.26 126.205 1367.26 Z" fill="#000000" fill-rule="evenodd" fill-opacity="1" /><path clip-path="url(#clip640)" d="M146.366 1396.56 L151.251 1396.56 L151.251 1402.44 L146.366 1402.44 L146.366 1396.56 Z" fill="#000000" fill-rule="evenodd" fill-opacity="1" /><path clip-path="url(#clip640)" d="M171.436 1370.96 Q167.825 1370.96 165.996 1374.53 Q164.19 1378.07 164.19 1385.2 Q164.19 1392.3 165.996 1395.87 Q167.825 1399.41 171.436 1399.41 Q175.07 1399.41 176.876 1395.87 Q178.704 1392.3 178.704 1385.2 Q178.704 1378.07 176.876 1374.53 Q175.07 1370.96 171.436 1370.96 M171.436 1367.26 Q177.246 1367.26 180.301 1371.86 Q183.38 1376.45 183.38 1385.2 Q183.38 1393.92 180.301 1398.53 Q177.246 1403.11 171.436 1403.11 Q165.626 1403.11 162.547 1398.53 Q159.491 1393.92 159.491 1385.2 Q159.491 1376.45 162.547 1371.86 Q165.626 1367.26 171.436 1367.26 Z" fill="#000000" fill-rule="evenodd" fill-opacity="1" /><path clip-path="url(#clip640)" d="M201.598 1370.96 Q197.987 1370.96 196.158 1374.53 Q194.352 1378.07 194.352 1385.2 Q194.352 1392.3 196.158 1395.87 Q197.987 1399.41 201.598 1399.41 Q205.232 1399.41 207.037 1395.87 Q208.866 1392.3 208.866 1385.2 Q208.866 1378.07 207.037 1374.53 Q205.232 1370.96 201.598 1370.96 M201.598 1367.26 Q207.408 1367.26 210.463 1371.86 Q213.542 1376.45 213.542 1385.2 Q213.542 1393.92 210.463 1398.53 Q207.408 1403.11 201.598 1403.11 Q195.787 1403.11 192.709 1398.53 Q189.653 1393.92 189.653 1385.2 Q189.653 1376.45 192.709 1371.86 Q195.787 1367.26 201.598 1367.26 Z" fill="#000000" fill-rule="evenodd" fill-opacity="1" /><path clip-path="url(#clip640)" d="M127.2 1047.02 Q123.589 1047.02 121.76 1050.59 Q119.955 1054.13 119.955 1061.26 Q119.955 1068.37 121.76 1071.93 Q123.589 1075.47 127.2 1075.47 Q130.834 1075.47 132.64 1071.93 Q134.468 1068.37 134.468 1061.26 Q134.468 1054.13 132.64 1050.59 Q130.834 1047.02 127.2 1047.02 M127.2 1043.32 Q133.01 1043.32 136.066 1047.93 Q139.144 1052.51 139.144 1061.26 Q139.144 1069.99 136.066 1074.59 Q133.01 1079.18 127.2 1079.18 Q121.39 1079.18 118.311 1074.59 Q115.256 1069.99 115.256 1061.26 Q115.256 1052.51 118.311 1047.93 Q121.39 1043.32 127.2 1043.32 Z" fill="#000000" fill-rule="evenodd" fill-opacity="1" /><path clip-path="url(#clip640)" d="M147.362 1072.62 L152.246 1072.62 L152.246 1078.5 L147.362 1078.5 L147.362 1072.62 Z" fill="#000000" fill-rule="evenodd" fill-opacity="1" /><path clip-path="url(#clip640)" d="M166.459 1074.57 L182.778 1074.57 L182.778 1078.5 L160.834 1078.5 L160.834 1074.57 Q163.496 1071.81 168.079 1067.18 Q172.686 1062.53 173.866 1061.19 Q176.112 1058.67 176.991 1056.93 Q177.894 1055.17 177.894 1053.48 Q177.894 1050.73 175.95 1048.99 Q174.028 1047.25 170.927 1047.25 Q168.727 1047.25 166.274 1048.02 Q163.843 1048.78 161.065 1050.33 L161.065 1045.61 Q163.89 1044.48 166.343 1043.9 Q168.797 1043.32 170.834 1043.32 Q176.204 1043.32 179.399 1046 Q182.593 1048.69 182.593 1053.18 Q182.593 1055.31 181.783 1057.23 Q180.996 1059.13 178.889 1061.72 Q178.311 1062.39 175.209 1065.61 Q172.107 1068.81 166.459 1074.57 Z" fill="#000000" fill-rule="evenodd" fill-opacity="1" /><path clip-path="url(#clip640)" d="M192.639 1043.94 L210.996 1043.94 L210.996 1047.88 L196.922 1047.88 L196.922 1056.35 Q197.94 1056 198.959 1055.84 Q199.977 1055.66 200.996 1055.66 Q206.783 1055.66 210.162 1058.83 Q213.542 1062 213.542 1067.42 Q213.542 1072.99 210.07 1076.1 Q206.598 1079.18 200.278 1079.18 Q198.102 1079.18 195.834 1078.8 Q193.588 1078.43 191.181 1077.69 L191.181 1072.99 Q193.264 1074.13 195.487 1074.68 Q197.709 1075.24 200.186 1075.24 Q204.19 1075.24 206.528 1073.13 Q208.866 1071.03 208.866 1067.42 Q208.866 1063.81 206.528 1061.7 Q204.19 1059.59 200.186 1059.59 Q198.311 1059.59 196.436 1060.01 Q194.584 1060.43 192.639 1061.31 L192.639 1043.94 Z" fill="#000000" fill-rule="evenodd" fill-opacity="1" /><path clip-path="url(#clip640)" d="M126.205 723.084 Q122.593 723.084 120.765 726.648 Q118.959 730.19 118.959 737.32 Q118.959 744.426 120.765 747.991 Q122.593 751.532 126.205 751.532 Q129.839 751.532 131.644 747.991 Q133.473 744.426 133.473 737.32 Q133.473 730.19 131.644 726.648 Q129.839 723.084 126.205 723.084 M126.205 719.38 Q132.015 719.38 135.07 723.986 Q138.149 728.57 138.149 737.32 Q138.149 746.046 135.07 750.653 Q132.015 755.236 126.205 755.236 Q120.394 755.236 117.316 750.653 Q114.26 746.046 114.26 737.32 Q114.26 728.57 117.316 723.986 Q120.394 719.38 126.205 719.38 Z" fill="#000000" fill-rule="evenodd" fill-opacity="1" /><path clip-path="url(#clip640)" d="M146.366 748.685 L151.251 748.685 L151.251 754.565 L146.366 754.565 L146.366 748.685 Z" fill="#000000" fill-rule="evenodd" fill-opacity="1" /><path clip-path="url(#clip640)" d="M161.482 720.005 L179.839 720.005 L179.839 723.94 L165.765 723.94 L165.765 732.412 Q166.783 732.065 167.802 731.903 Q168.82 731.718 169.839 731.718 Q175.626 731.718 179.005 734.889 Q182.385 738.06 182.385 743.477 Q182.385 749.056 178.913 752.157 Q175.44 755.236 169.121 755.236 Q166.945 755.236 164.677 754.866 Q162.431 754.495 160.024 753.755 L160.024 749.056 Q162.107 750.19 164.329 750.745 Q166.552 751.301 169.028 751.301 Q173.033 751.301 175.371 749.194 Q177.709 747.088 177.709 743.477 Q177.709 739.866 175.371 737.759 Q173.033 735.653 169.028 735.653 Q167.153 735.653 165.278 736.07 Q163.427 736.486 161.482 737.366 L161.482 720.005 Z" fill="#000000" fill-rule="evenodd" fill-opacity="1" /><path clip-path="url(#clip640)" d="M201.598 723.084 Q197.987 723.084 196.158 726.648 Q194.352 730.19 194.352 737.32 Q194.352 744.426 196.158 747.991 Q197.987 751.532 201.598 751.532 Q205.232 751.532 207.037 747.991 Q208.866 744.426 208.866 737.32 Q208.866 730.19 207.037 726.648 Q205.232 723.084 201.598 723.084 M201.598 719.38 Q207.408 719.38 210.463 723.986 Q213.542 728.57 213.542 737.32 Q213.542 746.046 210.463 750.653 Q207.408 755.236 201.598 755.236 Q195.787 755.236 192.709 750.653 Q189.653 746.046 189.653 737.32 Q189.653 728.57 192.709 723.986 Q195.787 719.38 201.598 719.38 Z" fill="#000000" fill-rule="evenodd" fill-opacity="1" /><path clip-path="url(#clip640)" d="M127.2 399.144 Q123.589 399.144 121.76 402.709 Q119.955 406.251 119.955 413.38 Q119.955 420.487 121.76 424.052 Q123.589 427.593 127.2 427.593 Q130.834 427.593 132.64 424.052 Q134.468 420.487 134.468 413.38 Q134.468 406.251 132.64 402.709 Q130.834 399.144 127.2 399.144 M127.2 395.441 Q133.01 395.441 136.066 400.047 Q139.144 404.63 139.144 413.38 Q139.144 422.107 136.066 426.714 Q133.01 431.297 127.2 431.297 Q121.39 431.297 118.311 426.714 Q115.256 422.107 115.256 413.38 Q115.256 404.63 118.311 400.047 Q121.39 395.441 127.2 395.441 Z" fill="#000000" fill-rule="evenodd" fill-opacity="1" /><path clip-path="url(#clip640)" d="M147.362 424.746 L152.246 424.746 L152.246 430.626 L147.362 430.626 L147.362 424.746 Z" fill="#000000" fill-rule="evenodd" fill-opacity="1" /><path clip-path="url(#clip640)" d="M161.251 396.066 L183.473 396.066 L183.473 398.056 L170.927 430.626 L166.042 430.626 L177.848 400.001 L161.251 400.001 L161.251 396.066 Z" fill="#000000" fill-rule="evenodd" fill-opacity="1" /><path clip-path="url(#clip640)" d="M192.639 396.066 L210.996 396.066 L210.996 400.001 L196.922 400.001 L196.922 408.473 Q197.94 408.126 198.959 407.964 Q199.977 407.778 200.996 407.778 Q206.783 407.778 210.162 410.95 Q213.542 414.121 213.542 419.538 Q213.542 425.116 210.07 428.218 Q206.598 431.297 200.278 431.297 Q198.102 431.297 195.834 430.927 Q193.588 430.556 191.181 429.815 L191.181 425.116 Q193.264 426.251 195.487 426.806 Q197.709 427.362 200.186 427.362 Q204.19 427.362 206.528 425.255 Q208.866 423.149 208.866 419.538 Q208.866 415.927 206.528 413.82 Q204.19 411.714 200.186 411.714 Q198.311 411.714 196.436 412.13 Q194.584 412.547 192.639 413.427 L192.639 396.066 Z" fill="#000000" fill-rule="evenodd" fill-opacity="1" /><path clip-path="url(#clip640)" d="M117.015 102.751 L124.654 102.751 L124.654 76.3856 L116.343 78.0522 L116.343 73.793 L124.607 72.1263 L129.283 72.1263 L129.283 102.751 L136.922 102.751 L136.922 106.686 L117.015 106.686 L117.015 102.751 Z" fill="#000000" fill-rule="evenodd" fill-opacity="1" /><path clip-path="url(#clip640)" d="M146.366 100.807 L151.251 100.807 L151.251 106.686 L146.366 106.686 L146.366 100.807 Z" fill="#000000" fill-rule="evenodd" fill-opacity="1" /><path clip-path="url(#clip640)" d="M171.436 75.205 Q167.825 75.205 165.996 78.7698 Q164.19 82.3115 164.19 89.4411 Q164.19 96.5475 165.996 100.112 Q167.825 103.654 171.436 103.654 Q175.07 103.654 176.876 100.112 Q178.704 96.5475 178.704 89.4411 Q178.704 82.3115 176.876 78.7698 Q175.07 75.205 171.436 75.205 M171.436 71.5014 Q177.246 71.5014 180.301 76.1078 Q183.38 80.6911 183.38 89.4411 Q183.38 98.1679 180.301 102.774 Q177.246 107.358 171.436 107.358 Q165.626 107.358 162.547 102.774 Q159.491 98.1679 159.491 89.4411 Q159.491 80.6911 162.547 76.1078 Q165.626 71.5014 171.436 71.5014 Z" fill="#000000" fill-rule="evenodd" fill-opacity="1" /><path clip-path="url(#clip640)" d="M201.598 75.205 Q197.987 75.205 196.158 78.7698 Q194.352 82.3115 194.352 89.4411 Q194.352 96.5475 196.158 100.112 Q197.987 103.654 201.598 103.654 Q205.232 103.654 207.037 100.112 Q208.866 96.5475 208.866 89.4411 Q208.866 82.3115 207.037 78.7698 Q205.232 75.205 201.598 75.205 M201.598 71.5014 Q207.408 71.5014 210.463 76.1078 Q213.542 80.6911 213.542 89.4411 Q213.542 98.1679 210.463 102.774 Q207.408 107.358 201.598 107.358 Q195.787 107.358 192.709 102.774 Q189.653 98.1679 189.653 89.4411 Q189.653 80.6911 192.709 76.1078 Q195.787 71.5014 201.598 71.5014 Z" fill="#000000" fill-rule="evenodd" fill-opacity="1" /><path clip-path="url(#clip640)" d="M16.4842 896.471 L16.4842 890.042 L58.5933 890.042 L58.5933 866.903 L64.0042 866.903 L64.0042 896.471 L16.4842 896.471 Z" fill="#000000" fill-rule="evenodd" fill-opacity="1" /><path clip-path="url(#clip640)" d="M32.4621 847.742 Q32.4621 852.452 36.1542 855.19 Q39.8145 857.927 46.212 857.927 Q52.6095 857.927 56.3017 855.221 Q59.9619 852.484 59.9619 847.742 Q59.9619 843.063 56.2698 840.326 Q52.5777 837.588 46.212 837.588 Q39.8781 837.588 36.186 840.326 Q32.4621 843.063 32.4621 847.742 M27.4968 847.742 Q27.4968 840.103 32.4621 835.742 Q37.4273 831.382 46.212 831.382 Q54.9649 831.382 59.9619 835.742 Q64.9272 840.103 64.9272 847.742 Q64.9272 855.412 59.9619 859.773 Q54.9649 864.102 46.212 864.102 Q37.4273 864.102 32.4621 859.773 Q27.4968 855.412 27.4968 847.742 Z" fill="#000000" fill-rule="evenodd" fill-opacity="1" /><path clip-path="url(#clip640)" d="M29.7248 796.02 L35.1993 796.02 Q33.8307 798.503 33.1623 801.017 Q32.4621 803.5 32.4621 806.046 Q32.4621 811.744 36.0905 814.895 Q39.6872 818.046 46.212 818.046 Q52.7369 818.046 56.3653 814.895 Q59.9619 811.744 59.9619 806.046 Q59.9619 803.5 59.2935 801.017 Q58.5933 798.503 57.2247 796.02 L62.6355 796.02 Q63.7814 798.471 64.3543 801.113 Q64.9272 803.723 64.9272 806.683 Q64.9272 814.736 59.8664 819.478 Q54.8057 824.22 46.212 824.22 Q37.491 824.22 32.4939 819.446 Q27.4968 814.64 27.4968 806.301 Q27.4968 803.596 28.0697 801.017 Q28.6108 798.439 29.7248 796.02 Z" fill="#000000" fill-rule="evenodd" fill-opacity="1" /><path clip-path="url(#clip640)" d="M46.0847 769.635 Q46.0847 776.732 47.7079 779.47 Q49.3312 782.207 53.2461 782.207 Q56.3653 782.207 58.2114 780.17 Q60.0256 778.101 60.0256 774.568 Q60.0256 769.698 56.5881 766.77 Q53.1188 763.81 47.3897 763.81 L46.0847 763.81 L46.0847 769.635 M43.6657 757.953 L64.0042 757.953 L64.0042 763.81 L58.5933 763.81 Q61.8398 765.815 63.3994 768.807 Q64.9272 771.799 64.9272 776.128 Q64.9272 781.602 61.8716 784.849 Q58.7843 788.063 53.6281 788.063 Q47.6125 788.063 44.5569 784.053 Q41.5014 780.011 41.5014 772.022 L41.5014 763.81 L40.9285 763.81 Q36.8862 763.81 34.6901 766.484 Q32.4621 769.125 32.4621 773.931 Q32.4621 776.987 33.1941 779.883 Q33.9262 782.78 35.3903 785.453 L29.9795 785.453 Q28.7381 782.239 28.1334 779.215 Q27.4968 776.191 27.4968 773.327 Q27.4968 765.592 31.5072 761.773 Q35.5176 757.953 43.6657 757.953 Z" fill="#000000" fill-rule="evenodd" fill-opacity="1" /><path clip-path="url(#clip640)" d="M14.479 745.89 L14.479 740.034 L64.0042 740.034 L64.0042 745.89 L14.479 745.89 Z" fill="#000000" fill-rule="evenodd" fill-opacity="1" /><path clip-path="url(#clip640)" d="M21.7677 700.376 L58.7206 700.376 L58.7206 692.609 Q58.7206 682.774 54.2646 678.223 Q49.8086 673.64 40.1964 673.64 Q30.6479 673.64 26.2237 678.223 Q21.7677 682.774 21.7677 692.609 L21.7677 700.376 M16.4842 706.805 L16.4842 693.596 Q16.4842 679.783 22.2451 673.321 Q27.9743 666.86 40.1964 666.86 Q52.4822 666.86 58.2432 673.353 Q64.0042 679.846 64.0042 693.596 L64.0042 706.805 L16.4842 706.805 Z" fill="#000000" fill-rule="evenodd" fill-opacity="1" /><path clip-path="url(#clip640)" d="M20.8447 637.323 Q20.8447 644.326 26.0645 648.463 Q31.2844 652.569 40.2919 652.569 Q49.2675 652.569 54.4874 648.463 Q59.7073 644.326 59.7073 637.323 Q59.7073 630.321 54.4874 626.247 Q49.2675 622.141 40.2919 622.141 Q31.2844 622.141 26.0645 626.247 Q20.8447 630.321 20.8447 637.323 M15.6248 637.323 Q15.6248 627.329 22.3406 621.345 Q29.0246 615.362 40.2919 615.362 Q51.5274 615.362 58.2432 621.345 Q64.9272 627.329 64.9272 637.323 Q64.9272 647.349 58.2432 653.365 Q51.5592 659.349 40.2919 659.349 Q29.0246 659.349 22.3406 653.365 Q15.6248 647.349 15.6248 637.323 Z" fill="#000000" fill-rule="evenodd" fill-opacity="1" /><path clip-path="url(#clip640)" d="M18.0438 576.817 L24.314 576.817 Q22.5634 580.478 21.704 583.724 Q20.8447 586.971 20.8447 589.994 Q20.8447 595.246 22.8817 598.111 Q24.9187 600.943 28.6745 600.943 Q31.8255 600.943 33.4488 599.065 Q35.0402 597.156 36.0269 591.872 L36.8226 587.989 Q38.1912 580.796 41.6605 577.39 Q45.098 573.953 50.8908 573.953 Q57.7976 573.953 61.3624 578.6 Q64.9272 583.215 64.9272 592.159 Q64.9272 595.532 64.1633 599.352 Q63.3994 603.139 61.9035 607.214 L55.2831 607.214 Q57.4793 603.299 58.5933 599.543 Q59.7073 595.787 59.7073 592.159 Q59.7073 586.652 57.543 583.66 Q55.3786 580.669 51.3682 580.669 Q47.8671 580.669 45.8937 582.833 Q43.9204 584.965 42.9337 589.867 L42.1698 593.782 Q40.7375 600.975 37.682 604.19 Q34.6264 607.404 29.1837 607.404 Q22.8817 607.404 19.2532 602.98 Q15.6248 598.524 15.6248 590.726 Q15.6248 587.384 16.2295 583.915 Q16.8343 580.446 18.0438 576.817 Z" fill="#000000" fill-rule="evenodd" fill-opacity="1" /><polyline clip-path="url(#clip642)" style="stroke:#009af9; stroke-linecap:butt; stroke-linejoin:round; stroke-width:4; stroke-opacity:1; fill:none" points="
  309.067,1195.57 311.053,1257.03 313.039,1277.31 315.025,1277 317.012,1258.01 318.998,1207.49 320.984,1093.34 322.97,887.128 324.956,600.904 326.942,673.032 
  328.928,1015.35 330.915,1168.87 332.901,1221.19 334.887,1222.14 336.873,1166.44 338.859,1010.85 340.845,952.227 342.832,1127.49 344.818,1207.58 346.804,1213.86 
  348.79,1162 350.776,1025.08 352.762,938.434 354.748,955.545 356.735,831.076 358.721,887.739 360.707,1057.59 362.693,1129.87 364.679,1116.2 366.665,1143.11 
  368.651,1195.8 370.638,1184.3 372.624,1075.99 374.61,858.841 376.596,839.302 378.582,1043.39 380.568,1188.89 382.555,1243.71 384.541,1248.2 386.527,1208.95 
  388.513,1193.31 390.499,1218.77 392.485,1209.83 394.471,1128.18 396.458,1002.47 398.444,1044.06 400.43,1153.63 402.416,1165.31 404.402,1075.69 406.388,822.85 
  408.374,686.188 410.361,877.875 412.347,853.649 414.333,953.392 416.319,1123.51 418.305,1176.22 420.291,1145.99 422.278,1011.23 424.264,911.587 426.25,978.522 
  428.236,842.418 430.222,669.789 432.208,935.457 434.194,1086.6 436.181,1065.73 438.167,981.867 440.153,1053.94 442.139,1137.05 444.125,1201.96 446.111,1190.19 
  448.097,1181.77 450.084,1230.06 452.07,1234.84 454.056,1191.2 456.042,1064.7 458.028,883.891 460.014,915.294 462.001,1013.9 463.987,1154.01 465.973,1222.99 
  467.959,1227.33 469.945,1179.91 471.931,1160.69 473.917,1176.25 475.904,1154.48 477.89,1084.9 479.876,885.98 481.862,799.152 483.848,819.113 485.834,949.213 
  487.82,1137.84 489.807,1209.32 491.793,1215.4 493.779,1160.44 495.765,1020.19 497.751,923.547 499.737,1074.19 501.724,1173.79 503.71,1178.13 505.696,1096.63 
  507.682,857.851 509.668,563.638 511.654,779.113 513.64,1060.1 515.627,1155.17 517.613,1208.33 519.599,1253.61 521.585,1264.09 523.571,1241.85 525.557,1161.9 
  527.543,1042.16 529.53,1132.06 531.516,1221.78 533.502,1242.13 535.488,1217.72 537.474,1150.04 539.46,1078.12 541.447,878.889 543.433,488.484 545.419,597.871 
  547.405,873.721 549.391,1038.91 551.377,1030.07 553.363,970.854 555.35,1101.56 557.336,1165.63 559.322,1125.09 561.308,1039.11 563.294,1087.69 565.28,1049.52 
  567.266,898.844 569.253,1008.2 571.239,1116.16 573.225,1164.61 575.211,1207.06 577.197,1185.43 579.183,1114.09 581.17,1049.93 583.156,1152.21 585.142,1217.57 
  587.128,1222.37 589.114,1181.82 591.1,1066.65 593.086,776.205 595.073,395.795 597.059,434.655 599.045,821.936 601.031,1077.95 603.017,1171.92 605.003,1187.63 
  606.989,1131.5 608.976,1026.13 610.962,1077.31 612.948,1128.49 614.934,1127.39 616.92,1145.77 618.906,1205.68 620.893,1212.75 622.879,1169.68 624.865,1049.31 
  626.851,902.942 628.837,806.824 630.823,431.019 632.809,178.647 634.796,289.994 636.782,695.447 638.768,979.929 640.754,1054.3 642.74,1048.09 644.726,986.846 
  646.712,914.924 648.699,964.76 650.685,971.127 652.671,824.94 654.657,799.289 656.643,1018.81 658.629,1083.33 660.616,1044.86 662.602,1066.38 664.588,1070.09 
  666.574,1068.73 668.56,967.663 670.546,628.37 672.532,107.36 674.519,439.423 676.505,804.308 678.491,953.664 680.477,935.595 682.463,707.809 684.449,487.199 
  686.435,737.367 688.422,835.167 690.408,1007.32 692.394,1128.34 694.38,1138.89 696.366,1180.36 698.352,1247.22 700.339,1276.08 702.325,1284.38 704.311,1278.93 
  706.297,1255.26 708.283,1197.02 710.269,1124.66 712.255,1111.14 714.242,1036.92 716.228,913.36 718.214,655.243 720.2,334.265 722.186,649.851 724.172,794.845 
  726.158,876.719 728.145,1081.9 730.131,1176.86 732.117,1194.92 734.103,1141.25 736.089,1104.47 738.075,1187.73 740.062,1215.82 742.048,1173.84 744.034,1072.5 
  746.02,1103.95 748.006,1132.02 749.992,1089.83 751.978,1118.69 753.965,1149.9 755.951,1098.94 757.937,925.73 759.923,514.152 761.909,211.433 763.895,399.36 
  765.881,196.533 767.868,251.068 769.854,796.587 771.84,1054.64 773.826,1155.53 775.812,1184.29 777.798,1151.74 779.785,1048.76 781.771,947.984 783.757,1024.06 
  785.743,1152.22 787.729,1162.14 789.715,1121.68 791.701,1192.81 793.688,1239.61 795.674,1230.51 797.66,1153.87 799.646,996.815 801.632,1057.84 803.618,1180.91 
  805.604,1222.26 807.591,1256.89 809.577,1261.98 811.563,1250.53 813.549,1226.15 815.535,1136.81 817.521,1036.45 819.508,1072.79 821.494,1063.7 823.48,1048.63 
  825.466,1012.92 827.452,772.257 829.438,415.724 831.424,621.705 833.411,903.273 835.397,924.511 837.383,914.179 839.369,1055.41 841.355,1197.87 843.341,1260.25 
  845.328,1287.17 847.314,1297.83 849.3,1297.7 851.286,1285.37 853.272,1250.1 855.258,1161.72 857.244,1038.98 859.231,1105.34 861.217,1165.87 863.203,1117.64 
  865.189,1033.21 867.175,1023.11 869.161,877.263 871.147,739.704 873.134,696.683 875.12,787.746 877.106,752.977 879.092,647.335 881.078,893.785 883.064,1071.21 
  885.051,1096.73 887.037,1132.8 889.023,1159.62 891.009,1192.68 892.995,1248.59 894.981,1260.53 896.967,1228.25 898.954,1139.36 900.94,1123.14 902.926,1208.91 
  904.912,1246.71 906.898,1233.35 908.884,1161.02 910.87,1030.82 912.857,1010.05 914.843,889.491 916.829,688.695 918.815,545.917 920.801,839.719 922.787,1112.51 
  924.774,1229.37 926.76,1281.78 928.746,1308.59 930.732,1323.55 932.718,1332.14 934.704,1336.75 936.69,1338.35 938.677,1337.08 940.663,1332.25 942.649,1321.82 
  944.635,1300.51 946.621,1253.73 948.607,1140.33 950.593,947.687 952.58,977.125 954.566,1024.56 956.552,1033.34 958.538,1185.57 960.524,1271.72 962.51,1307.04 
  964.497,1321.64 966.483,1325.4 968.469,1319.68 970.455,1298.7 972.441,1241.26 974.427,1123.74 976.413,1147.5 978.4,1251.24 980.386,1287.44 982.372,1281.34 
  984.358,1257.07 986.344,1234.15 988.33,1185.18 990.316,1229.51 992.303,1260.85 994.289,1237.07 996.275,1139.69 998.261,957.076 1000.25,858.977 1002.23,1041.41 
  1004.22,1206.99 1006.21,1282.92 1008.19,1316.38 1010.18,1333.02 1012.16,1342 1014.15,1346.91 1016.14,1349.29 1018.12,1349.81 1020.11,1348.65 1022.09,1345.62 
  1024.08,1340.09 1026.07,1330.62 1028.05,1314.06 1030.04,1282.8 1032.03,1216.16 1034.01,1060.51 1036,819.811 1037.98,795.133 1039.97,877.868 1041.96,1041.15 
  1043.94,1199.81 1045.93,1265.32 1047.91,1288.25 1049.9,1285.45 1051.89,1249.67 1053.87,1197.78 1055.86,1194.6 1057.85,1175.25 1059.83,1231.73 1061.82,1250.41 
  1063.8,1232.18 1065.79,1213.67 1067.78,1203.21 1069.76,1238.69 1071.75,1228.18 1073.73,1147.43 1075.72,928.965 1077.71,717.33 1079.69,961.686 1081.68,1140.91 
  1083.67,1230.25 1085.65,1263.84 1087.64,1267.73 1089.62,1247 1091.61,1185.83 1093.6,1029.01 1095.58,761.747 1097.57,797.72 1099.55,988.718 1101.54,1017.81 
  1103.53,871.292 1105.51,629.586 1107.5,846.161 1109.49,989.875 1111.47,1042.45 1113.46,1145.38 1115.44,1171.36 1117.43,1149.38 1119.42,1140.55 1121.4,1127.67 
  1123.39,1208.02 1125.37,1231.82 1127.36,1211.48 1129.35,1174.8 1131.33,1194.37 1133.32,1238.41 1135.31,1241.23 1137.29,1192.43 1139.28,1074.55 1141.26,1013.26 
  1143.25,1173.23 1145.24,1261.07 1147.22,1293.86 1149.21,1304.63 1151.19,1303.76 1153.18,1292.79 1155.17,1267.14 1157.15,1211.43 1159.14,1104.87 1161.13,935.667 
  1163.11,760.322 1165.1,859.236 1167.08,764.56 1169.07,524.002 1171.06,602.663 1173.04,617.923 1175.03,422.752 1177.01,370.976 1179,690.629 1180.99,857.36 
  1182.97,982.526 1184.96,1159.04 1186.95,1245.64 1188.93,1286.81 1190.92,1308.9 1192.9,1321.51 1194.89,1328.43 1196.88,1331.06 1198.86,1329.38 1200.85,1321.8 
  1202.83,1303.55 1204.82,1261.15 1206.81,1154.91 1208.79,929.594 1210.78,932.884 1212.77,1155.3 1214.75,1264.97 1216.74,1311.43 1218.72,1332.63 1220.71,1341.77 
  1222.7,1342.19 1224.68,1342.57 1226.67,1353.13 1228.65,1358.77 1230.64,1359.01 1232.63,1352.6 1234.61,1335.47 1236.6,1337.22 1238.59,1356.3 1240.57,1364.81 
  1242.56,1367.17 1244.54,1365 1246.53,1362.94 1248.52,1369.14 1250.5,1373.11 1252.49,1374.8 1254.47,1375.35 1256.46,1375.3 1258.45,1376.28 1260.43,1377.11 
  1262.42,1377.43 1264.41,1377.4 1266.39,1376.91 1268.38,1375.42 1270.36,1371.35 1272.35,1364.96 1274.34,1369.58 1276.32,1375.16 1278.31,1377.5 1280.29,1378.56 
  1282.28,1379.11 1284.27,1379.41 1286.25,1379.54 1288.24,1379.46 1290.23,1379.23 1292.21,1379.56 1294.2,1379.88 1296.18,1380 1298.17,1380.01 1300.16,1379.94 
  1302.14,1379.76 1304.13,1379.4 1306.11,1378.64 1308.1,1376.86 1310.09,1372.5 1312.07,1368.47 1314.06,1373.7 1316.05,1377.31 1318.03,1378.73 1320.02,1379.32 
  1322,1379.56 1323.99,1379.62 1325.98,1379.5 1327.96,1379.12 1329.95,1378.74 1331.93,1378.97 1333.92,1378.98 1335.91,1378.7 1337.89,1378.11 1339.88,1376.97 
  1341.87,1374.49 1343.85,1368.59 1345.84,1362.76 1347.82,1369.15 1349.81,1373.37 1351.8,1374.13 1353.78,1372.46 1355.77,1368.98 1357.75,1370.35 1359.74,1371.56 
  1361.73,1369.58 1363.71,1362.83 1365.7,1347.61 1367.69,1346.66 1369.67,1361.34 1371.66,1367.69 1373.64,1369.54 1375.63,1369.27 1377.62,1367.39 1379.6,1365.04 
  1381.59,1363.01 1383.57,1358.32 1385.56,1347.29 1387.55,1320.97 1389.53,1275.17 1391.52,1270.09 1393.5,1294.63 1395.49,1328.38 1397.48,1344.06 1399.46,1349.14 
  1401.45,1349.56 1403.44,1347.29 1405.42,1342.79 1407.41,1335.8 1409.39,1325.39 1411.38,1309.59 1413.37,1284.27 1415.35,1239.7 1417.34,1150.29 1419.32,969.182 
  1421.31,788.969 1423.3,523.244 1425.28,86.1857 1427.27,165.818 1429.26,360.183 1431.24,505.638 1433.23,527.016 1435.21,791.186 1437.2,925.38 1439.19,959.359 
  1441.17,1097.44 1443.16,1211.53 1445.14,1262.14 1447.13,1295.34 1449.12,1315.56 1451.1,1326.34 1453.09,1331.62 1455.08,1332.42 1457.06,1327.23 1459.05,1309.87 
  1461.03,1277.95 1463.02,1281 1465.01,1287.82 1466.99,1266.66 1468.98,1198.39 1470.96,1143.97 1472.95,1123 1474.94,1193.29 1476.92,1246.54 1478.91,1240.14 
  1480.9,1219.75 1482.88,1237.09 1484.87,1232.51 1486.85,1171.06 1488.84,1000.28 1490.83,767.663 1492.81,874.798 1494.8,855.183 1496.78,670.505 1498.77,824.391 
  1500.76,899.289 1502.74,782.795 1504.73,425.689 1506.72,494.583 1508.7,869.707 1510.69,1104.71 1512.67,1221.3 1514.66,1274.99 1516.65,1301.53 1518.63,1313.05 
  1520.62,1310.66 1522.6,1285.1 1524.59,1241.91 1526.58,1282.85 1528.56,1326.84 1530.55,1345.45 1532.54,1353.03 1534.52,1355.18 1536.51,1357.42 1538.49,1358.75 
  1540.48,1362.42 1542.47,1362.27 1544.45,1359.15 1546.44,1362.65 1548.42,1364.72 1550.41,1369.15 1552.4,1372.28 1554.38,1373.5 1556.37,1373.52 1558.36,1371.98 
  1560.34,1367.36 1562.33,1362.5 1564.31,1359.92 1566.3,1359.72 1568.29,1368.25 1570.27,1374.08 1572.26,1376.67 1574.24,1377.97 1576.23,1378.72 1578.22,1379.21 
  1580.2,1379.54 1582.19,1379.77 1584.18,1379.92 1586.16,1380 1588.15,1379.99 1590.13,1379.87 1592.12,1379.58 1594.11,1378.95 1596.09,1377.62 1598.08,1374.48 
  1600.06,1367.4 1602.05,1359.67 1604.04,1364.45 1606.02,1372.09 1608.01,1376.18 1610,1377.26 1611.98,1376.14 1613.97,1374.44 1615.95,1376.34 1617.94,1377.13 
  1619.93,1378.22 1621.91,1378.61 1623.9,1377.32 1625.88,1373.42 1627.87,1372.6 1629.86,1377.11 1631.84,1379.34 1633.83,1380.19 1635.82,1380.48 1637.8,1380.47 
  1639.79,1380.13 1641.77,1379.22 1643.76,1376.97 1645.75,1373.26 1647.73,1373.39 1649.72,1372.45 1651.7,1371.78 1653.69,1376.21 1655.68,1378.79 1657.66,1379.81 
  1659.65,1380.23 1661.64,1380.39 1663.62,1380.4 1665.61,1380.33 1667.59,1380.17 1669.58,1379.94 1671.57,1379.6 1673.55,1379.13 1675.54,1378.4 1677.52,1377.17 
  1679.51,1374.72 1681.5,1369.51 1683.48,1364.34 1685.47,1365.32 1687.46,1367.83 1689.44,1369.43 1691.43,1369.1 1693.41,1370.92 1695.4,1371.16 1697.39,1369.92 
  1699.37,1366.98 1701.36,1362.37 1703.34,1360.42 1705.33,1359.16 1707.32,1355.06 1709.3,1347.61 1711.29,1335.45 1713.28,1317.4 1715.26,1287.52 1717.25,1227.49 
  1719.23,1088.83 1721.22,793.161 1723.21,649.766 1725.19,848.613 1727.18,995.113 1729.16,1052.48 1731.15,937.133 1733.14,830.979 1735.12,1020.46 1737.11,1195.27 
  1739.1,1265.91 1741.08,1286.47 1743.07,1269.41 1745.05,1253.33 1747.04,1300.48 1749.03,1334.97 1751.01,1350.3 1753,1357.83 1754.98,1361.79 1756.97,1363.62 
  1758.96,1363.57 1760.94,1360.88 1762.93,1353.1 1764.92,1342.39 1766.9,1335.74 1768.89,1309.48 1770.87,1246.9 1772.86,1222.42 1774.85,1296.01 1776.83,1331.18 
  1778.82,1342.03 1780.8,1353.35 1782.79,1358.76 1784.78,1365.37 1786.76,1370.7 1788.75,1373.12 1790.73,1374.93 1792.72,1375.56 1794.71,1374.35 1796.69,1373.27 
  1798.68,1374.02 1800.67,1371.46 1802.65,1371.12 1804.64,1375.86 1806.62,1378.19 1808.61,1378.97 1810.6,1379 1812.58,1378.46 1814.57,1377.34 1816.55,1374.24 
  1818.54,1366.85 1820.53,1364.23 1822.51,1372.11 1824.5,1376.18 1826.49,1377.31 1828.47,1376.91 1830.46,1375.07 1832.44,1370.65 1834.43,1361.17 1836.42,1352.13 
  1838.4,1336.02 1840.39,1306.13 1842.37,1324.74 1844.36,1354.89 1846.35,1368.25 1848.33,1373.47 1850.32,1374.83 1852.31,1375.34 1854.29,1377.44 1856.28,1377.71 
  1858.26,1377.66 1860.25,1379.44 1862.24,1380.11 1864.22,1379.5 1866.21,1377.66 1868.19,1378.24 1870.18,1379.8 1872.17,1379.79 1874.15,1378.59 1876.14,1375.3 
  1878.13,1374.5 1880.11,1374.8 1882.1,1371.78 1884.08,1373.75 1886.07,1375.59 1888.06,1376.84 1890.04,1379.49 1892.03,1380.58 1894.01,1381.61 1896,1382.19 
  1897.99,1382.39 1899.97,1382.36 1901.96,1382.12 1903.95,1381.49 1905.93,1380.14 1907.92,1379.12 1909.9,1378.39 1911.89,1375.15 1913.88,1368.63 1915.86,1362.68 
  1917.85,1354 1919.83,1362.9 1921.82,1372.04 1923.81,1375.73 1925.79,1375.79 1927.78,1371.59 1929.77,1368.15 1931.75,1374.76 1933.74,1378.56 1935.72,1379.68 
  1937.71,1380.23 1939.7,1379.75 1941.68,1379.75 1943.67,1379.92 1945.65,1378.01 1947.64,1374.09 1949.63,1375.06 1951.61,1376.56 1953.6,1376.88 1955.59,1375.17 
  1957.57,1376.42 1959.56,1379.42 1961.54,1380.71 1963.53,1380.39 1965.52,1378.19 1967.5,1375.69 1969.49,1374.75 1971.47,1377.16 1973.46,1379.81 1975.45,1380.47 
  1977.43,1381.65 1979.42,1382.47 1981.41,1382.66 1983.39,1382.38 1985.38,1381.51 1987.36,1381.14 1989.35,1380.92 1991.34,1379.59 1993.32,1378.01 1995.31,1379.86 
  1997.29,1380.79 1999.28,1380.2 2001.27,1377.78 2003.25,1371.41 2005.24,1362.46 2007.23,1362.67 2009.21,1371.19 2011.2,1377.84 2013.18,1380.54 2015.17,1381.6 
  2017.16,1381.77 2019.14,1380.93 2021.13,1379.43 2023.11,1380.19 2025.1,1381.51 2027.09,1381.94 2029.07,1381.47 2031.06,1381.42 2033.05,1380.48 2035.03,1379.6 
  2037.02,1381.18 2039,1381.45 2040.99,1380.89 2042.98,1382 2044.96,1382.66 2046.95,1382.41 2048.93,1381.72 2050.92,1382.01 2052.91,1381.85 2054.89,1380.54 
  2056.88,1378.62 2058.87,1378.76 2060.85,1381.11 2062.84,1382.17 2064.82,1382.48 2066.81,1383.08 2068.8,1383.28 2070.78,1382.98 2072.77,1381.9 2074.75,1380.81 
  2076.74,1382.17 2078.73,1383.06 2080.71,1383.26 2082.7,1383.07 2084.69,1382.41 2086.67,1381.52 2088.66,1379.71 2090.64,1374.81 2092.63,1370.96 2094.62,1376.07 
  2096.6,1380.32 2098.59,1381.95 2100.57,1382.32 2102.56,1381.65 2104.55,1380.54 2106.53,1381.66 2108.52,1382.84 2110.51,1383.27 2112.49,1383.21 2114.48,1382.6 
  2116.46,1381.06 2118.45,1380.05 2120.44,1380.33 2122.42,1380.89 2124.41,1382.38 2126.39,1382.98 2128.38,1382.88 2130.37,1382.84 2132.35,1382.93 2134.34,1383.25 
  2136.33,1383.33 2138.31,1382.84 2140.3,1381.83 2142.28,1380.45 2144.27,1378.85 2146.26,1380.99 2148.24,1382.73 2150.23,1383.34 2152.21,1383.42 2154.2,1383.24 
  2156.19,1383.14 2158.17,1383.1 2160.16,1382.39 2162.15,1381.26 2164.13,1380.36 2166.12,1381.14 2168.1,1381.19 2170.09,1379.04 2172.08,1375.35 2174.06,1377.75 
  2176.05,1379.76 2178.03,1379.04 2180.02,1380.42 2182.01,1382.32 2183.99,1382.99 2185.98,1382.93 2187.97,1382.11 2189.95,1381.74 2191.94,1382.01 2193.92,1381.27 
  2195.91,1381.95 2197.9,1383.12 2199.88,1383.51 2201.87,1383.34 2203.85,1382.48 2205.84,1382.21 2207.83,1383.06 2209.81,1383.53 2211.8,1383.57 2213.78,1383.16 
  2215.77,1383.37 2217.76,1383.78 2219.74,1383.79 2221.73,1383.42 2223.72,1382.61 2225.7,1381.11 2227.69,1380.7 2229.67,1382.38 2231.66,1383.24 2233.65,1383.42 
  2235.63,1383.05 2237.62,1382.63 2239.6,1382.8 2241.59,1382.24 2243.58,1380.49 2245.56,1380.45 2247.55,1381.24 2249.54,1381.22 2251.52,1381.86 2253.51,1382.99 
  2255.49,1383.47 2257.48,1383.38 2259.47,1382.58 2261.45,1380.97 2263.44,1381.54 2265.42,1383.07 2267.41,1383.69 2269.4,1383.84 2271.38,1383.66 2273.37,1382.95 
  2275.36,1381.34 2277.34,1381.03 2279.33,1382.39 2281.31,1383.33 2283.3,1383.91 2285.29,1384.16 2287.27,1384.24 2289.26,1384.21 2291.24,1384.05 2293.23,1383.61 
  
  "/>
<path clip-path="url(#clip640)" d="
M1996.53 196.789 L2282.65 196.789 L2282.65 93.1086 L1996.53 93.1086  Z
  " fill="#ffffff" fill-rule="evenodd" fill-opacity="1"/>
<polyline clip-path="url(#clip640)" style="stroke:#000000; stroke-linecap:butt; stroke-linejoin:round; stroke-width:4; stroke-opacity:1; fill:none" points="
  1996.53,196.789 2282.65,196.789 2282.65,93.1086 1996.53,93.1086 1996.53,196.789 
  "/>
<polyline clip-path="url(#clip640)" style="stroke:#009af9; stroke-linecap:butt; stroke-linejoin:round; stroke-width:4; stroke-opacity:1; fill:none" points="
  2019.9,144.949 2160.11,144.949 
  "/>
<path clip-path="url(#clip640)" d="M2197.32 164.636 Q2195.52 169.266 2193.8 170.678 Q2192.09 172.09 2189.22 172.09 L2185.82 172.09 L2185.82 168.525 L2188.32 168.525 Q2190.08 168.525 2191.05 167.692 Q2192.02 166.858 2193.2 163.756 L2193.97 161.812 L2183.48 136.303 L2187.99 136.303 L2196.1 156.581 L2204.2 136.303 L2208.71 136.303 L2197.32 164.636 Z" fill="#000000" fill-rule="evenodd" fill-opacity="1" /><path clip-path="url(#clip640)" d="M2216 158.293 L2223.64 158.293 L2223.64 131.928 L2215.33 133.595 L2215.33 129.335 L2223.6 127.669 L2228.27 127.669 L2228.27 158.293 L2235.91 158.293 L2235.91 162.229 L2216 162.229 L2216 158.293 Z" fill="#000000" fill-rule="evenodd" fill-opacity="1" /></svg>
