<?xml version="1.0" encoding="utf-8"?>
<svg xmlns="http://www.w3.org/2000/svg" xmlns:xlink="http://www.w3.org/1999/xlink" width="400" height="300" viewBox="0 0 1600 1200">
<defs>
  <clipPath id="clip440">
    <rect x="0" y="0" width="1600" height="1200"/>
  </clipPath>
</defs>
<path clip-path="url(#clip440)" d="
M0 1200 L1600 1200 L1600 0 L0 0  Z
  " fill="#ffffff" fill-rule="evenodd" fill-opacity="1"/>
<defs>
  <clipPath id="clip441">
    <rect x="320" y="0" width="1121" height="1121"/>
  </clipPath>
</defs>
<defs>
  <clipPath id="clip442">
    <rect x="196" y="522" width="1047" height="501"/>
  </clipPath>
</defs>
<path clip-path="url(#clip440)" d="
M290.079 1016.92 L1552.76 1016.92 L1552.76 131.032 L290.079 131.032  Z
  " fill="#ffffff" fill-rule="evenodd" fill-opacity="1"/>
<defs>
  <clipPath id="clip443">
    <rect x="290" y="131" width="1264" height="887"/>
  </clipPath>
</defs>
<polyline clip-path="url(#clip443)" style="stroke:#000000; stroke-linecap:butt; stroke-linejoin:round; stroke-width:2; stroke-opacity:0.1; fill:none" points="
  290.079,1016.92 290.079,131.032 
  "/>
<polyline clip-path="url(#clip443)" style="stroke:#000000; stroke-linecap:butt; stroke-linejoin:round; stroke-width:2; stroke-opacity:0.1; fill:none" points="
  484.337,1016.92 484.337,131.032 
  "/>
<polyline clip-path="url(#clip443)" style="stroke:#000000; stroke-linecap:butt; stroke-linejoin:round; stroke-width:2; stroke-opacity:0.1; fill:none" points="
  678.595,1016.92 678.595,131.032 
  "/>
<polyline clip-path="url(#clip443)" style="stroke:#000000; stroke-linecap:butt; stroke-linejoin:round; stroke-width:2; stroke-opacity:0.1; fill:none" points="
  872.853,1016.92 872.853,131.032 
  "/>
<polyline clip-path="url(#clip443)" style="stroke:#000000; stroke-linecap:butt; stroke-linejoin:round; stroke-width:2; stroke-opacity:0.1; fill:none" points="
  1067.11,1016.92 1067.11,131.032 
  "/>
<polyline clip-path="url(#clip443)" style="stroke:#000000; stroke-linecap:butt; stroke-linejoin:round; stroke-width:2; stroke-opacity:0.1; fill:none" points="
  1261.37,1016.92 1261.37,131.032 
  "/>
<polyline clip-path="url(#clip443)" style="stroke:#000000; stroke-linecap:butt; stroke-linejoin:round; stroke-width:2; stroke-opacity:0.1; fill:none" points="
  1455.63,1016.92 1455.63,131.032 
  "/>
<polyline clip-path="url(#clip440)" style="stroke:#000000; stroke-linecap:butt; stroke-linejoin:round; stroke-width:4; stroke-opacity:1; fill:none" points="
  290.079,1016.92 1552.76,1016.92 
  "/>
<polyline clip-path="url(#clip440)" style="stroke:#000000; stroke-linecap:butt; stroke-linejoin:round; stroke-width:4; stroke-opacity:1; fill:none" points="
  290.079,1016.92 290.079,998.022 
  "/>
<polyline clip-path="url(#clip440)" style="stroke:#000000; stroke-linecap:butt; stroke-linejoin:round; stroke-width:4; stroke-opacity:1; fill:none" points="
  484.337,1016.92 484.337,998.022 
  "/>
<polyline clip-path="url(#clip440)" style="stroke:#000000; stroke-linecap:butt; stroke-linejoin:round; stroke-width:4; stroke-opacity:1; fill:none" points="
  678.595,1016.92 678.595,998.022 
  "/>
<polyline clip-path="url(#clip440)" style="stroke:#000000; stroke-linecap:butt; stroke-linejoin:round; stroke-width:4; stroke-opacity:1; fill:none" points="
  872.853,1016.92 872.853,998.022 
  "/>
<polyline clip-path="url(#clip440)" style="stroke:#000000; stroke-linecap:butt; stroke-linejoin:round; stroke-width:4; stroke-opacity:1; fill:none" points="
  1067.11,1016.92 1067.11,998.022 
  "/>
<polyline clip-path="url(#clip440)" style="stroke:#000000; stroke-linecap:butt; stroke-linejoin:round; stroke-width:4; stroke-opacity:1; fill:none" points="
  1261.37,1016.92 1261.37,998.022 
  "/>
<polyline clip-path="url(#clip440)" style="stroke:#000000; stroke-linecap:butt; stroke-linejoin:round; stroke-width:4; stroke-opacity:1; fill:none" points="
  1455.63,1016.92 1455.63,998.022 
  "/>
<path clip-path="url(#clip440)" d="M280.461 1068.98 L288.1 1068.98 L288.1 1042.62 L279.79 1044.29 L279.79 1040.03 L288.053 1038.36 L292.729 1038.36 L292.729 1068.98 L300.368 1068.98 L300.368 1072.92 L280.461 1072.92 L280.461 1068.98 Z" fill="#000000" fill-rule="evenodd" fill-opacity="1" /><path clip-path="url(#clip440)" d="M478.99 1068.98 L495.309 1068.98 L495.309 1072.92 L473.365 1072.92 L473.365 1068.98 Q476.027 1066.23 480.61 1061.6 Q485.217 1056.95 486.397 1055.61 Q488.642 1053.08 489.522 1051.35 Q490.425 1049.59 490.425 1047.9 Q490.425 1045.14 488.48 1043.41 Q486.559 1041.67 483.457 1041.67 Q481.258 1041.67 478.805 1042.43 Q476.374 1043.2 473.596 1044.75 L473.596 1040.03 Q476.42 1038.89 478.874 1038.31 Q481.328 1037.73 483.365 1037.73 Q488.735 1037.73 491.929 1040.42 Q495.124 1043.11 495.124 1047.6 Q495.124 1049.73 494.314 1051.65 Q493.527 1053.54 491.42 1056.14 Q490.842 1056.81 487.74 1060.03 Q484.638 1063.22 478.99 1068.98 Z" fill="#000000" fill-rule="evenodd" fill-opacity="1" /><path clip-path="url(#clip440)" d="M682.843 1054.29 Q686.199 1055 688.074 1057.27 Q689.972 1059.54 689.972 1062.87 Q689.972 1067.99 686.454 1070.79 Q682.935 1073.59 676.454 1073.59 Q674.278 1073.59 671.963 1073.15 Q669.671 1072.73 667.218 1071.88 L667.218 1067.36 Q669.162 1068.5 671.477 1069.08 Q673.792 1069.66 676.315 1069.66 Q680.713 1069.66 683.005 1067.92 Q685.319 1066.18 685.319 1062.87 Q685.319 1059.82 683.167 1058.11 Q681.037 1056.37 677.218 1056.37 L673.19 1056.37 L673.19 1052.53 L677.403 1052.53 Q680.852 1052.53 682.681 1051.16 Q684.509 1049.77 684.509 1047.18 Q684.509 1044.52 682.611 1043.11 Q680.736 1041.67 677.218 1041.67 Q675.296 1041.67 673.097 1042.09 Q670.898 1042.5 668.259 1043.38 L668.259 1039.22 Q670.921 1038.48 673.236 1038.11 Q675.574 1037.73 677.634 1037.73 Q682.958 1037.73 686.06 1040.17 Q689.162 1042.57 689.162 1046.69 Q689.162 1049.56 687.518 1051.55 Q685.875 1053.52 682.843 1054.29 Z" fill="#000000" fill-rule="evenodd" fill-opacity="1" /><path clip-path="url(#clip440)" d="M875.862 1042.43 L864.057 1060.88 L875.862 1060.88 L875.862 1042.43 M874.635 1038.36 L880.515 1038.36 L880.515 1060.88 L885.445 1060.88 L885.445 1064.77 L880.515 1064.77 L880.515 1072.92 L875.862 1072.92 L875.862 1064.77 L860.26 1064.77 L860.26 1060.26 L874.635 1038.36 Z" fill="#000000" fill-rule="evenodd" fill-opacity="1" /><path clip-path="url(#clip440)" d="M1057.39 1038.36 L1075.75 1038.36 L1075.75 1042.3 L1061.67 1042.3 L1061.67 1050.77 Q1062.69 1050.42 1063.71 1050.26 Q1064.73 1050.07 1065.75 1050.07 Q1071.53 1050.07 1074.91 1053.24 Q1078.29 1056.42 1078.29 1061.83 Q1078.29 1067.41 1074.82 1070.51 Q1071.35 1073.59 1065.03 1073.59 Q1062.85 1073.59 1060.58 1073.22 Q1058.34 1072.85 1055.93 1072.11 L1055.93 1067.41 Q1058.01 1068.54 1060.24 1069.1 Q1062.46 1069.66 1064.93 1069.66 Q1068.94 1069.66 1071.28 1067.55 Q1073.62 1065.44 1073.62 1061.83 Q1073.62 1058.22 1071.28 1056.11 Q1068.94 1054.01 1064.93 1054.01 Q1063.06 1054.01 1061.19 1054.42 Q1059.33 1054.84 1057.39 1055.72 L1057.39 1038.36 Z" fill="#000000" fill-rule="evenodd" fill-opacity="1" /><path clip-path="url(#clip440)" d="M1261.77 1053.78 Q1258.63 1053.78 1256.77 1055.93 Q1254.95 1058.08 1254.95 1061.83 Q1254.95 1065.56 1256.77 1067.73 Q1258.63 1069.89 1261.77 1069.89 Q1264.92 1069.89 1266.75 1067.73 Q1268.6 1065.56 1268.6 1061.83 Q1268.6 1058.08 1266.75 1055.93 Q1264.92 1053.78 1261.77 1053.78 M1271.06 1039.12 L1271.06 1043.38 Q1269.3 1042.55 1267.49 1042.11 Q1265.71 1041.67 1263.95 1041.67 Q1259.32 1041.67 1256.87 1044.79 Q1254.44 1047.92 1254.09 1054.24 Q1255.45 1052.23 1257.51 1051.16 Q1259.57 1050.07 1262.05 1050.07 Q1267.26 1050.07 1270.27 1053.24 Q1273.3 1056.39 1273.3 1061.83 Q1273.3 1067.16 1270.15 1070.37 Q1267.01 1073.59 1261.77 1073.59 Q1255.78 1073.59 1252.61 1069.01 Q1249.44 1064.4 1249.44 1055.67 Q1249.44 1047.48 1253.32 1042.62 Q1257.21 1037.73 1263.76 1037.73 Q1265.52 1037.73 1267.31 1038.08 Q1269.11 1038.43 1271.06 1039.12 Z" fill="#000000" fill-rule="evenodd" fill-opacity="1" /><path clip-path="url(#clip440)" d="M1444.52 1038.36 L1466.74 1038.36 L1466.74 1040.35 L1454.19 1072.92 L1449.31 1072.92 L1461.11 1042.3 L1444.52 1042.3 L1444.52 1038.36 Z" fill="#000000" fill-rule="evenodd" fill-opacity="1" /><path clip-path="url(#clip440)" d="M944.822 1098.55 Q944.822 1099.87 943.727 1099.87 Q941.795 1099.94 940.474 1100.32 Q939.154 1100.68 938.381 1101.38 Q937.64 1102.09 937.222 1102.87 Q936.835 1103.61 936.578 1104.73 L930.716 1128.15 Q929.041 1134.75 923.631 1139.55 Q918.22 1144.31 912.069 1144.31 Q908.558 1144.31 905.628 1142.87 Q902.729 1141.42 900.926 1138.49 Q899.122 1135.55 899.122 1131.66 Q899.122 1129.79 899.605 1127.83 L903.599 1111.53 L905.08 1105.73 Q906.175 1101.45 906.175 1101.06 Q906.175 1100.45 905.789 1100.29 Q905.434 1100.1 904.404 1100 L901.892 1099.87 Q901.119 1099.87 900.797 1099.84 Q900.507 1099.81 900.282 1099.65 Q900.056 1099.48 900.056 1099.13 Q900.056 1098.68 900.153 1098.39 Q900.282 1098.07 900.507 1097.97 Q900.732 1097.87 900.893 1097.84 Q901.054 1097.81 901.312 1097.81 L909.814 1098 L918.252 1097.81 Q919.186 1097.81 919.186 1098.55 Q919.186 1099.48 918.768 1099.68 Q918.349 1099.87 916.932 1099.87 Q914.517 1099.87 913.422 1100.19 Q912.359 1100.48 912.037 1101 Q911.747 1101.48 911.393 1102.9 L904.984 1128.57 Q904.662 1129.85 904.468 1131.14 Q904.307 1132.4 904.307 1133.04 L904.275 1133.69 Q904.275 1137.78 906.529 1140.03 Q908.816 1142.29 912.327 1142.29 Q917.479 1142.29 922.278 1138.2 Q927.109 1134.11 928.752 1127.7 L934.677 1104.15 Q934.871 1103.57 934.871 1102.77 Q934.871 1101.48 933.904 1100.71 Q932.97 1099.9 930.394 1099.87 Q929.202 1099.87 929.202 1099.13 Q929.202 1098.52 929.428 1098.23 Q929.685 1097.91 929.879 1097.87 Q930.104 1097.81 930.394 1097.81 Q931.489 1097.81 933.808 1097.91 Q936.127 1098 937.254 1098 Q938.381 1098 940.635 1097.91 Q942.89 1097.81 943.985 1097.81 Q944.371 1097.81 944.565 1098 Q944.79 1098.16 944.822 1098.36 L944.822 1098.55 Z" fill="#000000" fill-rule="evenodd" fill-opacity="1" /><polyline clip-path="url(#clip443)" style="stroke:#000000; stroke-linecap:butt; stroke-linejoin:round; stroke-width:2; stroke-opacity:0.1; fill:none" points="
  290.079,991.848 1552.76,991.848 
  "/>
<polyline clip-path="url(#clip443)" style="stroke:#000000; stroke-linecap:butt; stroke-linejoin:round; stroke-width:2; stroke-opacity:0.1; fill:none" points="
  290.079,782.912 1552.76,782.912 
  "/>
<polyline clip-path="url(#clip443)" style="stroke:#000000; stroke-linecap:butt; stroke-linejoin:round; stroke-width:2; stroke-opacity:0.1; fill:none" points="
  290.079,573.976 1552.76,573.976 
  "/>
<polyline clip-path="url(#clip443)" style="stroke:#000000; stroke-linecap:butt; stroke-linejoin:round; stroke-width:2; stroke-opacity:0.1; fill:none" points="
  290.079,365.04 1552.76,365.04 
  "/>
<polyline clip-path="url(#clip443)" style="stroke:#000000; stroke-linecap:butt; stroke-linejoin:round; stroke-width:2; stroke-opacity:0.1; fill:none" points="
  290.079,156.104 1552.76,156.104 
  "/>
<polyline clip-path="url(#clip440)" style="stroke:#000000; stroke-linecap:butt; stroke-linejoin:round; stroke-width:4; stroke-opacity:1; fill:none" points="
  290.079,1016.92 290.079,131.032 
  "/>
<polyline clip-path="url(#clip440)" style="stroke:#000000; stroke-linecap:butt; stroke-linejoin:round; stroke-width:4; stroke-opacity:1; fill:none" points="
  290.079,991.848 308.977,991.848 
  "/>
<polyline clip-path="url(#clip440)" style="stroke:#000000; stroke-linecap:butt; stroke-linejoin:round; stroke-width:4; stroke-opacity:1; fill:none" points="
  290.079,782.912 308.977,782.912 
  "/>
<polyline clip-path="url(#clip440)" style="stroke:#000000; stroke-linecap:butt; stroke-linejoin:round; stroke-width:4; stroke-opacity:1; fill:none" points="
  290.079,573.976 308.977,573.976 
  "/>
<polyline clip-path="url(#clip440)" style="stroke:#000000; stroke-linecap:butt; stroke-linejoin:round; stroke-width:4; stroke-opacity:1; fill:none" points="
  290.079,365.04 308.977,365.04 
  "/>
<polyline clip-path="url(#clip440)" style="stroke:#000000; stroke-linecap:butt; stroke-linejoin:round; stroke-width:4; stroke-opacity:1; fill:none" points="
  290.079,156.104 308.977,156.104 
  "/>
<path clip-path="url(#clip440)" d="M178.741 977.646 Q175.13 977.646 173.302 981.211 Q171.496 984.753 171.496 991.882 Q171.496 998.989 173.302 1002.55 Q175.13 1006.1 178.741 1006.1 Q182.376 1006.1 184.181 1002.55 Q186.01 998.989 186.01 991.882 Q186.01 984.753 184.181 981.211 Q182.376 977.646 178.741 977.646 M178.741 973.943 Q184.552 973.943 187.607 978.549 Q190.686 983.132 190.686 991.882 Q190.686 1000.61 187.607 1005.22 Q184.552 1009.8 178.741 1009.8 Q172.931 1009.8 169.853 1005.22 Q166.797 1000.61 166.797 991.882 Q166.797 983.132 169.853 978.549 Q172.931 973.943 178.741 973.943 Z" fill="#000000" fill-rule="evenodd" fill-opacity="1" /><path clip-path="url(#clip440)" d="M198.903 1003.25 L203.788 1003.25 L203.788 1009.13 L198.903 1009.13 L198.903 1003.25 Z" fill="#000000" fill-rule="evenodd" fill-opacity="1" /><path clip-path="url(#clip440)" d="M223.973 977.646 Q220.362 977.646 218.533 981.211 Q216.727 984.753 216.727 991.882 Q216.727 998.989 218.533 1002.55 Q220.362 1006.1 223.973 1006.1 Q227.607 1006.1 229.412 1002.55 Q231.241 998.989 231.241 991.882 Q231.241 984.753 229.412 981.211 Q227.607 977.646 223.973 977.646 M223.973 973.943 Q229.783 973.943 232.838 978.549 Q235.917 983.132 235.917 991.882 Q235.917 1000.61 232.838 1005.22 Q229.783 1009.8 223.973 1009.8 Q218.162 1009.8 215.084 1005.22 Q212.028 1000.61 212.028 991.882 Q212.028 983.132 215.084 978.549 Q218.162 973.943 223.973 973.943 Z" fill="#000000" fill-rule="evenodd" fill-opacity="1" /><path clip-path="url(#clip440)" d="M254.135 977.646 Q250.523 977.646 248.695 981.211 Q246.889 984.753 246.889 991.882 Q246.889 998.989 248.695 1002.55 Q250.523 1006.1 254.135 1006.1 Q257.769 1006.1 259.574 1002.55 Q261.403 998.989 261.403 991.882 Q261.403 984.753 259.574 981.211 Q257.769 977.646 254.135 977.646 M254.135 973.943 Q259.945 973.943 263 978.549 Q266.079 983.132 266.079 991.882 Q266.079 1000.61 263 1005.22 Q259.945 1009.8 254.135 1009.8 Q248.324 1009.8 245.246 1005.22 Q242.19 1000.61 242.19 991.882 Q242.19 983.132 245.246 978.549 Q248.324 973.943 254.135 973.943 Z" fill="#000000" fill-rule="evenodd" fill-opacity="1" /><path clip-path="url(#clip440)" d="M179.737 768.71 Q176.126 768.71 174.297 772.275 Q172.491 775.817 172.491 782.946 Q172.491 790.053 174.297 793.618 Q176.126 797.159 179.737 797.159 Q183.371 797.159 185.177 793.618 Q187.005 790.053 187.005 782.946 Q187.005 775.817 185.177 772.275 Q183.371 768.71 179.737 768.71 M179.737 765.007 Q185.547 765.007 188.602 769.613 Q191.681 774.197 191.681 782.946 Q191.681 791.673 188.602 796.28 Q185.547 800.863 179.737 800.863 Q173.927 800.863 170.848 796.28 Q167.792 791.673 167.792 782.946 Q167.792 774.197 170.848 769.613 Q173.927 765.007 179.737 765.007 Z" fill="#000000" fill-rule="evenodd" fill-opacity="1" /><path clip-path="url(#clip440)" d="M199.899 794.312 L204.783 794.312 L204.783 800.192 L199.899 800.192 L199.899 794.312 Z" fill="#000000" fill-rule="evenodd" fill-opacity="1" /><path clip-path="url(#clip440)" d="M218.996 796.257 L235.315 796.257 L235.315 800.192 L213.371 800.192 L213.371 796.257 Q216.033 793.502 220.616 788.872 Q225.223 784.22 226.403 782.877 Q228.649 780.354 229.528 778.618 Q230.431 776.859 230.431 775.169 Q230.431 772.414 228.487 770.678 Q226.565 768.942 223.463 768.942 Q221.264 768.942 218.811 769.706 Q216.38 770.47 213.602 772.021 L213.602 767.298 Q216.426 766.164 218.88 765.585 Q221.334 765.007 223.371 765.007 Q228.741 765.007 231.936 767.692 Q235.13 770.377 235.13 774.868 Q235.13 776.997 234.32 778.919 Q233.533 780.817 231.426 783.409 Q230.848 784.081 227.746 787.298 Q224.644 790.493 218.996 796.257 Z" fill="#000000" fill-rule="evenodd" fill-opacity="1" /><path clip-path="url(#clip440)" d="M245.176 765.632 L263.533 765.632 L263.533 769.567 L249.459 769.567 L249.459 778.039 Q250.477 777.692 251.496 777.53 Q252.514 777.345 253.533 777.345 Q259.32 777.345 262.699 780.516 Q266.079 783.687 266.079 789.104 Q266.079 794.683 262.607 797.784 Q259.135 800.863 252.815 800.863 Q250.639 800.863 248.371 800.493 Q246.125 800.122 243.718 799.382 L243.718 794.683 Q245.801 795.817 248.023 796.372 Q250.246 796.928 252.722 796.928 Q256.727 796.928 259.065 794.821 Q261.403 792.715 261.403 789.104 Q261.403 785.493 259.065 783.386 Q256.727 781.28 252.722 781.28 Q250.848 781.28 248.973 781.696 Q247.121 782.113 245.176 782.993 L245.176 765.632 Z" fill="#000000" fill-rule="evenodd" fill-opacity="1" /><path clip-path="url(#clip440)" d="M178.741 559.775 Q175.13 559.775 173.302 563.339 Q171.496 566.881 171.496 574.011 Q171.496 581.117 173.302 584.682 Q175.13 588.224 178.741 588.224 Q182.376 588.224 184.181 584.682 Q186.01 581.117 186.01 574.011 Q186.01 566.881 184.181 563.339 Q182.376 559.775 178.741 559.775 M178.741 556.071 Q184.552 556.071 187.607 560.677 Q190.686 565.261 190.686 574.011 Q190.686 582.738 187.607 587.344 Q184.552 591.927 178.741 591.927 Q172.931 591.927 169.853 587.344 Q166.797 582.738 166.797 574.011 Q166.797 565.261 169.853 560.677 Q172.931 556.071 178.741 556.071 Z" fill="#000000" fill-rule="evenodd" fill-opacity="1" /><path clip-path="url(#clip440)" d="M198.903 585.376 L203.788 585.376 L203.788 591.256 L198.903 591.256 L198.903 585.376 Z" fill="#000000" fill-rule="evenodd" fill-opacity="1" /><path clip-path="url(#clip440)" d="M214.019 556.696 L232.375 556.696 L232.375 560.631 L218.301 560.631 L218.301 569.103 Q219.32 568.756 220.338 568.594 Q221.357 568.409 222.375 568.409 Q228.162 568.409 231.542 571.58 Q234.922 574.751 234.922 580.168 Q234.922 585.747 231.449 588.849 Q227.977 591.927 221.658 591.927 Q219.482 591.927 217.213 591.557 Q214.968 591.187 212.561 590.446 L212.561 585.747 Q214.644 586.881 216.866 587.437 Q219.088 587.992 221.565 587.992 Q225.57 587.992 227.908 585.886 Q230.246 583.779 230.246 580.168 Q230.246 576.557 227.908 574.451 Q225.57 572.344 221.565 572.344 Q219.69 572.344 217.815 572.761 Q215.963 573.177 214.019 574.057 L214.019 556.696 Z" fill="#000000" fill-rule="evenodd" fill-opacity="1" /><path clip-path="url(#clip440)" d="M254.135 559.775 Q250.523 559.775 248.695 563.339 Q246.889 566.881 246.889 574.011 Q246.889 581.117 248.695 584.682 Q250.523 588.224 254.135 588.224 Q257.769 588.224 259.574 584.682 Q261.403 581.117 261.403 574.011 Q261.403 566.881 259.574 563.339 Q257.769 559.775 254.135 559.775 M254.135 556.071 Q259.945 556.071 263 560.677 Q266.079 565.261 266.079 574.011 Q266.079 582.738 263 587.344 Q259.945 591.927 254.135 591.927 Q248.324 591.927 245.246 587.344 Q242.19 582.738 242.19 574.011 Q242.19 565.261 245.246 560.677 Q248.324 556.071 254.135 556.071 Z" fill="#000000" fill-rule="evenodd" fill-opacity="1" /><path clip-path="url(#clip440)" d="M179.737 350.839 Q176.126 350.839 174.297 354.404 Q172.491 357.945 172.491 365.075 Q172.491 372.181 174.297 375.746 Q176.126 379.288 179.737 379.288 Q183.371 379.288 185.177 375.746 Q187.005 372.181 187.005 365.075 Q187.005 357.945 185.177 354.404 Q183.371 350.839 179.737 350.839 M179.737 347.135 Q185.547 347.135 188.602 351.742 Q191.681 356.325 191.681 365.075 Q191.681 373.802 188.602 378.408 Q185.547 382.991 179.737 382.991 Q173.927 382.991 170.848 378.408 Q167.792 373.802 167.792 365.075 Q167.792 356.325 170.848 351.742 Q173.927 347.135 179.737 347.135 Z" fill="#000000" fill-rule="evenodd" fill-opacity="1" /><path clip-path="url(#clip440)" d="M199.899 376.441 L204.783 376.441 L204.783 382.32 L199.899 382.32 L199.899 376.441 Z" fill="#000000" fill-rule="evenodd" fill-opacity="1" /><path clip-path="url(#clip440)" d="M213.788 347.76 L236.01 347.76 L236.01 349.751 L223.463 382.32 L218.579 382.32 L230.385 351.695 L213.788 351.695 L213.788 347.76 Z" fill="#000000" fill-rule="evenodd" fill-opacity="1" /><path clip-path="url(#clip440)" d="M245.176 347.76 L263.533 347.76 L263.533 351.695 L249.459 351.695 L249.459 360.168 Q250.477 359.82 251.496 359.658 Q252.514 359.473 253.533 359.473 Q259.32 359.473 262.699 362.644 Q266.079 365.816 266.079 371.232 Q266.079 376.811 262.607 379.913 Q259.135 382.991 252.815 382.991 Q250.639 382.991 248.371 382.621 Q246.125 382.251 243.718 381.51 L243.718 376.811 Q245.801 377.945 248.023 378.501 Q250.246 379.056 252.722 379.056 Q256.727 379.056 259.065 376.95 Q261.403 374.843 261.403 371.232 Q261.403 367.621 259.065 365.515 Q256.727 363.408 252.722 363.408 Q250.848 363.408 248.973 363.825 Q247.121 364.242 245.176 365.121 L245.176 347.76 Z" fill="#000000" fill-rule="evenodd" fill-opacity="1" /><path clip-path="url(#clip440)" d="M169.552 169.449 L177.19 169.449 L177.19 143.084 L168.88 144.75 L168.88 140.491 L177.144 138.824 L181.82 138.824 L181.82 169.449 L189.459 169.449 L189.459 173.384 L169.552 173.384 L169.552 169.449 Z" fill="#000000" fill-rule="evenodd" fill-opacity="1" /><path clip-path="url(#clip440)" d="M198.903 167.505 L203.788 167.505 L203.788 173.384 L198.903 173.384 L198.903 167.505 Z" fill="#000000" fill-rule="evenodd" fill-opacity="1" /><path clip-path="url(#clip440)" d="M223.973 141.903 Q220.362 141.903 218.533 145.468 Q216.727 149.01 216.727 156.139 Q216.727 163.246 218.533 166.81 Q220.362 170.352 223.973 170.352 Q227.607 170.352 229.412 166.81 Q231.241 163.246 231.241 156.139 Q231.241 149.01 229.412 145.468 Q227.607 141.903 223.973 141.903 M223.973 138.199 Q229.783 138.199 232.838 142.806 Q235.917 147.389 235.917 156.139 Q235.917 164.866 232.838 169.472 Q229.783 174.056 223.973 174.056 Q218.162 174.056 215.084 169.472 Q212.028 164.866 212.028 156.139 Q212.028 147.389 215.084 142.806 Q218.162 138.199 223.973 138.199 Z" fill="#000000" fill-rule="evenodd" fill-opacity="1" /><path clip-path="url(#clip440)" d="M254.135 141.903 Q250.523 141.903 248.695 145.468 Q246.889 149.01 246.889 156.139 Q246.889 163.246 248.695 166.81 Q250.523 170.352 254.135 170.352 Q257.769 170.352 259.574 166.81 Q261.403 163.246 261.403 156.139 Q261.403 149.01 259.574 145.468 Q257.769 141.903 254.135 141.903 M254.135 138.199 Q259.945 138.199 263 142.806 Q266.079 147.389 266.079 156.139 Q266.079 164.866 263 169.472 Q259.945 174.056 254.135 174.056 Q248.324 174.056 245.246 169.472 Q242.19 164.866 242.19 156.139 Q242.19 147.389 245.246 142.806 Q248.324 138.199 254.135 138.199 Z" fill="#000000" fill-rule="evenodd" fill-opacity="1" /><path clip-path="url(#clip440)" d="M79.3978 773.818 Q79.6233 773.818 80.5895 774.366 Q81.5234 774.881 83.8745 776.781 Q86.2255 778.682 88.963 781.516 Q90.0258 782.578 91.5072 784.189 Q92.9887 785.799 93.9549 786.894 L94.9211 787.989 Q98.4637 792.176 102.425 795.847 Q102.328 795.59 102.296 795.139 Q102.232 794.688 102.232 794.366 L102.232 794.044 Q102.232 792.369 103.359 789.438 Q104.196 786.862 104.196 785.541 Q104.196 784.253 103.745 782.836 Q103.295 781.419 101.974 779.873 Q100.654 778.327 98.657 777.619 Q98.3349 777.49 98.2383 777.426 Q98.1095 777.361 97.9806 777.168 Q97.8196 776.975 97.8196 776.717 Q97.8196 776.363 98.0128 776.137 Q98.2061 775.912 98.4637 775.912 Q99.0434 775.912 100.203 776.363 Q101.362 776.781 102.812 777.715 Q104.261 778.617 105.581 779.809 Q106.869 780.968 107.771 782.707 Q108.641 784.446 108.641 786.282 Q108.641 787.603 107.997 788.569 Q107.385 789.535 106.193 790.501 Q104.679 791.822 104.196 792.53 Q103.681 793.239 103.681 794.334 Q103.681 797.264 107.771 799.937 Q108.351 800.227 108.48 800.421 Q108.641 800.582 108.641 800.968 Q108.609 801.773 107.964 801.773 Q107.707 801.773 106.58 801.065 Q105.42 800.324 103.391 798.681 Q101.362 797.007 99.3333 794.978 L93.7939 789.052 Q88.2545 782.482 85.1305 779.873 Q85.1305 780.968 85.0983 781.451 Q85.0661 781.902 84.8728 782.804 Q84.6474 783.706 84.1643 784.962 Q83.1659 787.892 83.1659 789.116 Q83.1659 789.438 83.1981 789.793 Q83.2303 790.147 83.3914 790.952 Q83.5524 791.725 83.8745 792.369 Q84.1643 793.013 84.8084 793.689 Q85.4203 794.366 86.2577 794.72 Q86.5153 794.817 86.6442 794.881 Q86.773 794.946 86.9018 795.139 Q86.9984 795.3 86.9984 795.557 Q86.9984 795.944 86.773 796.169 Q86.5475 796.363 86.2577 796.363 Q85.678 796.363 84.4864 795.783 Q83.2948 795.203 82.0065 794.237 Q80.6861 793.271 79.7199 791.693 Q78.7537 790.115 78.7537 788.376 Q78.7537 787.345 79.2046 786.475 Q79.6555 785.574 80.1386 785.123 Q80.5895 784.64 81.5878 783.835 Q82.3608 783.158 82.6828 782.836 Q83.0049 782.514 83.3592 781.87 Q83.6812 781.194 83.6812 780.453 Q83.6812 779.229 82.7473 778.102 Q81.7811 776.975 79.4623 775.525 Q78.7537 775.139 78.7537 774.527 Q78.7537 773.818 79.3978 773.818 Z" fill="#000000" fill-rule="evenodd" fill-opacity="1" /><path clip-path="url(#clip440)" d="M97.884 753.111 Q97.0789 753.046 97.0789 751.79 L97.0789 711.372 Q97.0789 709.472 97.8196 709.44 Q98.6247 709.44 98.5925 711.243 L98.5925 751.339 Q98.6247 753.111 97.884 753.111 M85.0017 753.111 Q84.1965 753.111 84.2287 751.726 L84.2287 711.436 Q84.2287 709.472 85.0017 709.44 Q85.7424 709.44 85.7424 711.114 L85.7424 751.79 Q85.7424 753.111 85.0017 753.111 Z" fill="#000000" fill-rule="evenodd" fill-opacity="1" /><path clip-path="url(#clip440)" d="M91.4106 684.003 Q80.2674 684.003 71.282 679.849 Q67.5139 678.077 64.3577 675.597 Q61.2015 673.117 59.8167 671.475 Q58.4318 669.832 58.4318 669.382 Q58.4318 668.737 59.0759 668.705 Q59.398 668.705 60.2032 669.575 Q71.0243 680.203 91.4106 680.171 Q111.861 680.171 122.264 669.832 Q123.391 668.705 123.745 668.705 Q124.389 668.705 124.389 669.382 Q124.389 669.832 123.069 671.411 Q121.749 672.989 118.721 675.436 Q115.694 677.884 111.99 679.655 Q103.005 684.003 91.4106 684.003 Z" fill="#000000" fill-rule="evenodd" fill-opacity="1" /><path clip-path="url(#clip440)" d="M70.2514 659.998 L68.1902 659.998 Q68.1902 652.075 63.9712 647.985 Q63.9712 646.858 64.2289 646.664 Q64.4865 646.471 65.6781 646.471 L102.683 646.471 Q104.647 646.471 105.259 645.505 Q105.871 644.539 105.871 640.32 L105.871 638.227 L107.9 638.227 Q107.707 640.545 107.707 648.919 Q107.707 657.292 107.9 659.579 L105.871 659.579 L105.871 657.486 Q105.871 653.331 105.291 652.333 Q104.679 651.334 102.683 651.334 L68.5123 651.334 Q70.2514 654.78 70.2514 659.998 Z" fill="#000000" fill-rule="evenodd" fill-opacity="1" /><path clip-path="url(#clip440)" d="M90.4767 565.496 Q90.8631 565.11 91.4106 565.11 Q91.9581 565.11 92.3446 565.496 Q92.7311 565.883 92.7311 566.43 L92.7311 607.718 Q92.7311 608.266 92.3446 608.652 Q91.9581 609.039 91.4106 609.039 Q90.8631 609.039 90.4767 608.652 Q90.0902 608.266 90.0902 607.718 L90.0902 566.43 Q90.0902 565.883 90.4767 565.496 Z" fill="#000000" fill-rule="evenodd" fill-opacity="1" /><path clip-path="url(#clip440)" d="M44.1445 491.165 Q46.2379 491.165 48.8788 491.584 Q51.4874 492.003 54.547 492.904 Q57.5744 493.806 60.5695 495.094 Q63.5324 496.383 66.3021 498.283 Q69.0396 500.151 71.133 502.373 Q73.2264 504.595 74.4824 507.526 Q75.7385 510.457 75.7385 513.709 Q75.7385 516.35 74.9011 518.508 Q74.0638 520.666 72.8077 521.986 Q71.5195 523.307 69.9092 524.241 Q68.2989 525.143 66.8174 525.497 Q65.336 525.851 64.0155 525.851 Q62.9527 525.851 61.7289 525.69 Q60.5051 525.497 58.5727 524.982 Q56.6082 524.434 54.4504 523.146 Q52.2604 521.825 50.3602 519.925 Q46.7854 516.35 45.465 513.13 Q44.1445 509.909 44.1445 506.463 Q44.1445 502.824 46.3667 500.666 Q48.5889 498.476 51.9383 497.961 Q45.0463 496.093 40.6663 496.093 Q37.6067 496.093 35.2557 496.898 Q32.8725 497.671 31.4876 499.024 Q30.1028 500.344 29.4264 502.019 Q28.7179 503.661 28.7179 505.529 Q28.7179 506.495 28.8789 507.462 Q29.04 508.428 29.5231 509.845 Q29.9739 511.262 31.1333 512.647 Q32.2928 513.999 33.9997 515.03 Q33.9997 514.418 34.0641 514.064 Q34.0963 513.709 34.2895 513.13 Q34.4505 512.55 34.9658 512.26 Q35.4811 511.938 36.2863 511.938 Q37.5423 511.938 38.6695 512.969 Q39.7967 513.967 39.7967 515.513 Q39.7967 516.833 39.0882 517.413 Q38.3797 517.993 37.4779 517.993 Q36.8338 517.993 35.7066 517.639 Q34.5472 517.252 33.0335 516.318 Q31.5198 515.352 30.2316 513.999 Q28.9111 512.614 28.0094 510.36 Q27.0754 508.106 27.0754 505.4 Q27.0754 499.185 31.7453 495.191 Q36.4151 491.165 44.1445 491.165 M54.2894 499.152 Q53.8385 499.152 53.3876 499.185 Q52.9367 499.185 52.0027 499.346 Q51.0688 499.507 50.2958 499.764 Q49.5229 500.022 48.6211 500.569 Q47.6872 501.117 47.0752 501.858 Q46.4311 502.598 46.0125 503.79 Q45.5938 504.982 45.5938 506.463 Q45.5938 512.292 51.4552 516.415 Q54.0639 518.186 59.2813 519.474 Q64.4664 520.763 66.431 520.763 Q66.8174 520.763 67.2361 520.73 Q67.6548 520.666 68.6532 520.505 Q69.6193 520.344 70.4245 519.861 Q71.2296 519.378 72.0992 518.637 Q72.9366 517.896 73.4196 516.576 Q73.9027 515.223 73.9027 513.516 Q73.9027 510.65 72.3246 508.17 Q70.7143 505.658 68.3633 504.08 Q66.0123 502.47 63.2426 501.31 Q60.4729 500.151 58.1541 499.668 Q55.8352 499.152 54.2894 499.152 Z" fill="#000000" fill-rule="evenodd" fill-opacity="1" /><path clip-path="url(#clip440)" d="M30.296 487.748 Q29.2332 487.748 29.2332 486.299 L29.2332 449.359 L44.0801 447.523 L44.0801 449.23 Q39.7323 449.81 37.2203 450.84 Q34.7082 451.871 33.3555 454.061 Q32.0029 456.219 31.6486 458.892 Q31.2944 461.565 31.2944 466.46 L31.2944 480.309 L50.006 467.362 Q51.3264 466.428 51.7451 466.46 Q52.3248 466.46 53.5164 467.587 L71.5195 483.529 L71.5195 467.781 Q71.5195 464.753 71.4229 462.853 Q71.3263 460.921 71.0686 458.892 Q70.7788 456.831 70.2313 455.639 Q69.6838 454.447 68.782 453.256 Q67.8802 452.064 66.4632 451.388 Q65.0461 450.679 63.146 450.132 Q61.2136 449.584 58.6694 449.23 L58.6694 447.523 L74.2892 449.359 L74.2892 486.363 Q74.2892 487.684 73.4841 487.684 Q73.0976 487.684 72.1636 486.911 L54.6436 471.323 Q53.7741 471.967 51.9383 473.191 L31.8097 487.104 Q30.6181 487.748 30.296 487.748 Z" fill="#000000" fill-rule="evenodd" fill-opacity="1" /><path clip-path="url(#clip440)" d="
M93.3267 525.851 L93.3267 440.875 L89.8067 440.875 L89.8067 525.851  Z
  " fill="#000000" fill-rule="evenodd" fill-opacity="1"/>
<path clip-path="url(#clip440)" d="M124.022 489.165 Q126.116 489.165 128.757 489.584 Q131.365 490.003 134.425 490.904 Q137.452 491.806 140.447 493.094 Q143.41 494.383 146.18 496.283 Q148.918 498.151 151.011 500.373 Q153.104 502.595 154.36 505.526 Q155.616 508.457 155.616 511.709 Q155.616 514.35 154.779 516.508 Q153.942 518.666 152.686 519.986 Q151.397 521.307 149.787 522.241 Q148.177 523.143 146.695 523.497 Q145.214 523.851 143.893 523.851 Q142.831 523.851 141.607 523.69 Q140.383 523.497 138.451 522.982 Q136.486 522.434 134.328 521.146 Q132.138 519.825 130.238 517.925 Q126.663 514.35 125.343 511.13 Q124.022 507.909 124.022 504.463 Q124.022 500.824 126.245 498.666 Q128.467 496.476 131.816 495.961 Q124.924 494.093 120.544 494.093 Q117.485 494.093 115.134 494.898 Q112.75 495.671 111.366 497.024 Q109.981 498.344 109.304 500.019 Q108.596 501.661 108.596 503.529 Q108.596 504.495 108.757 505.462 Q108.918 506.428 109.401 507.845 Q109.852 509.262 111.011 510.647 Q112.171 511.999 113.878 513.03 Q113.878 512.418 113.942 512.064 Q113.974 511.709 114.167 511.13 Q114.328 510.55 114.844 510.26 Q115.359 509.938 116.164 509.938 Q117.42 509.938 118.547 510.969 Q119.675 511.967 119.675 513.513 Q119.675 514.833 118.966 515.413 Q118.258 515.993 117.356 515.993 Q116.712 515.993 115.584 515.639 Q114.425 515.252 112.911 514.318 Q111.398 513.352 110.109 511.999 Q108.789 510.614 107.887 508.36 Q106.953 506.106 106.953 503.4 Q106.953 497.185 111.623 493.191 Q116.293 489.165 124.022 489.165 M134.167 497.152 Q133.716 497.152 133.266 497.185 Q132.815 497.185 131.881 497.346 Q130.947 497.507 130.174 497.764 Q129.401 498.022 128.499 498.569 Q127.565 499.117 126.953 499.858 Q126.309 500.598 125.89 501.79 Q125.472 502.982 125.472 504.463 Q125.472 510.292 131.333 514.415 Q133.942 516.186 139.159 517.474 Q144.344 518.763 146.309 518.763 Q146.695 518.763 147.114 518.73 Q147.533 518.666 148.531 518.505 Q149.497 518.344 150.302 517.861 Q151.108 517.378 151.977 516.637 Q152.814 515.896 153.298 514.576 Q153.781 513.223 153.781 511.516 Q153.781 508.65 152.203 506.17 Q150.592 503.658 148.241 502.08 Q145.89 500.47 143.121 499.31 Q140.351 498.151 138.032 497.668 Q135.713 497.152 134.167 497.152 Z" fill="#000000" fill-rule="evenodd" fill-opacity="1" /><path clip-path="url(#clip440)" d="M129.626 449.155 Q132.621 449.155 138.418 450.669 Q140.931 451.281 143.217 452.118 Q145.472 452.923 147.662 454.115 Q149.852 455.306 151.43 456.691 Q152.975 458.076 153.942 459.88 Q154.908 461.683 154.908 463.68 Q154.908 466.836 153.04 468.704 Q151.14 470.54 147.887 471.119 Q154.908 475.435 154.908 481.2 Q154.908 484.775 152.364 486.449 Q149.787 488.124 145.472 488.124 Q141.832 488.124 138.064 487.158 Q130.914 485.322 125.923 481.747 Q125.343 481.264 125.343 480.556 Q125.343 480.137 125.472 479.944 Q125.826 479.364 126.406 479.364 Q126.824 479.364 127.243 479.686 Q130.367 481.941 133.04 483.422 Q135.713 484.904 138.418 485.58 Q140.737 486.095 142.702 486.095 Q146.019 486.095 148.08 484.678 Q150.141 483.229 150.141 480.363 Q150.141 477.722 148.499 475.403 Q146.824 473.084 144.022 471.377 Q140.963 471.28 138.064 470.54 Q134.972 469.863 134.972 468.285 Q134.972 467.029 136.679 467.029 Q137.259 467.029 138.418 467.287 Q141.478 467.996 144.216 469.284 Q146.889 468.833 148.531 467.158 Q150.141 465.483 150.141 462.81 Q150.141 460.331 148.338 458.141 Q146.534 455.918 143.893 454.501 Q141.22 453.052 138.064 452.247 Q137.001 451.989 135.649 451.989 Q132.042 451.989 129.819 454.501 Q129.111 455.21 128.177 455.21 Q127.082 455.21 126.084 454.308 Q125.021 453.245 125.021 451.989 Q125.021 451.055 125.601 450.476 Q126.76 449.155 129.626 449.155 Z" fill="#000000" fill-rule="evenodd" fill-opacity="1" /><path clip-path="url(#clip440)" d="M123.745 433.835 Q123.423 433.835 122.618 432.997 Q111.797 422.37 91.4106 422.37 Q70.9599 422.37 60.6218 432.579 Q59.4302 433.835 59.0759 433.835 Q58.4318 433.835 58.4318 433.191 Q58.4318 432.74 59.7523 431.162 Q61.0727 429.551 64.1001 427.136 Q67.1274 424.688 70.8311 422.885 Q79.8165 418.537 91.4106 418.537 Q102.554 418.537 111.539 422.692 Q115.307 424.463 118.464 426.943 Q121.62 429.423 123.005 431.065 Q124.389 432.708 124.389 433.191 Q124.389 433.835 123.745 433.835 Z" fill="#000000" fill-rule="evenodd" fill-opacity="1" /><path clip-path="url(#clip440)" d="M55.8513 381.169 Q56.1218 380.899 56.5051 380.899 Q56.8883 380.899 57.1588 381.169 Q57.4294 381.44 57.4294 381.823 L57.4294 410.725 Q57.4294 411.108 57.1588 411.378 Q56.8883 411.649 56.5051 411.649 Q56.1218 411.649 55.8513 411.378 Q55.5807 411.108 55.5807 410.725 L55.5807 381.823 Q55.5807 381.44 55.8513 381.169 Z" fill="#000000" fill-rule="evenodd" fill-opacity="1" /><path clip-path="url(#clip440)" d="M41.6936 376.082 L40.2508 376.082 Q40.2508 370.536 37.2975 367.673 Q37.2975 366.884 37.4778 366.749 Q37.6582 366.613 38.4923 366.613 L64.3955 366.613 Q65.7707 366.613 66.199 365.937 Q66.6274 365.261 66.6274 362.307 L66.6274 360.842 L68.0476 360.842 Q67.9124 362.465 67.9124 368.327 Q67.9124 374.188 68.0476 375.789 L66.6274 375.789 L66.6274 374.323 Q66.6274 371.415 66.2216 370.716 Q65.7932 370.017 64.3955 370.017 L40.4762 370.017 Q41.6936 372.43 41.6936 376.082 Z" fill="#000000" fill-rule="evenodd" fill-opacity="1" /><path clip-path="url(#clip440)" d="M824.533 25.7466 Q824.533 26.5254 824.369 27.1812 L822.074 41.7734 Q821.951 42.8801 821.705 43.29 Q821.5 43.6999 820.844 43.6999 Q819.819 43.6999 819.819 42.6342 Q819.819 42.0193 820.065 41.0356 Q820.762 36.4038 820.762 34.3133 Q820.762 32.9197 820.475 31.895 Q820.229 30.8293 819.819 30.0914 Q819.45 29.3536 818.589 28.8618 Q817.729 28.3699 816.909 28.083 Q816.089 27.796 814.614 27.6731 Q813.138 27.5091 811.867 27.4681 Q810.597 27.4271 808.506 27.4271 Q803.956 27.4271 803.218 27.5911 Q802.44 27.796 802.03 28.4109 Q801.661 28.9847 801.251 30.7063 L790.102 75.2616 L789.774 77.0242 Q789.774 78.0079 790.389 78.3358 Q791.004 78.6637 792.889 78.8687 Q795.594 79.0736 798.259 79.0736 Q798.341 79.0736 798.505 79.0736 Q799.406 79.0736 799.775 79.1146 Q800.144 79.1146 800.513 79.1966 Q800.882 79.2786 800.964 79.4835 Q801.087 79.6475 801.087 79.9754 Q801.087 80.7542 800.759 81.1641 Q800.431 81.533 800.103 81.615 Q799.816 81.656 799.243 81.656 Q798.095 81.656 795.635 81.574 Q793.176 81.492 791.946 81.492 L784.978 81.41 L777.846 81.492 Q776.739 81.492 774.403 81.574 Q772.067 81.656 770.96 81.656 Q769.525 81.656 769.525 80.6312 Q769.525 79.4835 770.058 79.2786 Q770.632 79.0736 773.05 79.0736 Q776.452 79.0736 778.297 78.9097 Q780.142 78.7457 781.125 78.1719 Q782.15 77.598 782.437 77.0242 Q782.724 76.4093 783.052 75.0157 L794.324 30.2144 Q794.652 29.2307 794.652 28.4519 Q794.652 28.042 794.529 27.878 Q794.447 27.7141 793.914 27.5911 Q793.381 27.4271 792.274 27.4271 L788.995 27.4271 Q785.634 27.4271 783.544 27.5911 Q781.494 27.7141 779.527 28.3289 Q777.6 28.9437 776.452 29.8045 Q775.346 30.6653 774.116 32.4278 Q772.886 34.1904 771.985 36.3218 Q771.124 38.4533 769.894 41.9373 Q769.484 43.085 769.238 43.413 Q769.033 43.6999 768.46 43.6999 Q768.05 43.6999 767.722 43.454 Q767.435 43.167 767.435 42.7981 Q767.845 41.4455 767.927 41.2815 L772.968 26.4844 Q773.378 25.2957 773.747 25.0908 Q774.157 24.8448 775.674 24.8448 L822.238 24.8448 Q822.975 24.8448 823.221 24.8448 Q823.467 24.8448 823.877 24.9268 Q824.287 25.0088 824.41 25.2137 Q824.533 25.4187 824.533 25.7466 Z" fill="#000000" fill-rule="evenodd" fill-opacity="1" /><path clip-path="url(#clip440)" d="M839.281 68.9083 Q839.363 67.8836 840.961 67.8836 L892.403 67.8836 Q894.821 67.8836 894.862 68.8263 Q894.862 69.851 892.567 69.8101 L841.535 69.8101 Q839.281 69.851 839.281 68.9083 M839.281 52.5126 Q839.281 51.4878 841.043 51.5288 L892.321 51.5288 Q894.821 51.5288 894.862 52.5126 Q894.862 53.4553 892.731 53.4553 L840.961 53.4553 Q839.281 53.4553 839.281 52.5126 Z" fill="#000000" fill-rule="evenodd" fill-opacity="1" /><path clip-path="url(#clip440)" d="M927.245 54.808 Q927.245 42.4702 930.36 35.748 Q934.705 25.7466 944.952 25.7466 Q947.124 25.7466 949.379 26.3614 Q951.674 26.9353 954.543 29.1897 Q957.454 31.4441 959.216 35.1331 Q962.577 42.2653 962.577 54.808 Q962.577 67.0638 959.462 73.745 Q954.912 83.5005 944.87 83.5005 Q941.099 83.5005 937.246 81.574 Q933.434 79.6475 931.016 75.0157 Q927.245 68.0885 927.245 54.808 M934.213 53.7832 Q934.213 66.4489 935.115 71.4906 Q936.139 76.9422 938.927 79.3196 Q941.755 81.656 944.87 81.656 Q948.231 81.656 951.018 79.1556 Q953.847 76.6143 954.707 71.1627 Q955.65 65.7931 955.609 53.7832 Q955.609 42.1013 954.789 37.4285 Q953.683 31.977 950.731 29.8045 Q947.821 27.5911 944.87 27.5911 Q943.763 27.5911 942.575 27.919 Q941.427 28.2469 939.746 29.1897 Q938.066 30.1324 936.754 32.4688 Q935.483 34.8052 934.869 38.3303 Q934.213 42.8801 934.213 53.7832 Z" fill="#000000" fill-rule="evenodd" fill-opacity="1" /><path clip-path="url(#clip440)" d="M970.088 80.3033 Q968.818 78.9507 968.818 77.1881 Q968.818 75.4256 970.088 74.1549 Q971.359 72.8433 973.285 72.8433 Q975.13 72.8433 976.36 74.0729 Q977.63 75.2616 977.63 77.2291 Q977.63 79.1556 976.278 80.4263 Q974.966 81.656 973.285 81.656 Q971.359 81.656 970.088 80.3033 Z" fill="#000000" fill-rule="evenodd" fill-opacity="1" /><path clip-path="url(#clip440)" d="M991.918 54.808 Q991.918 42.4702 995.033 35.748 Q999.378 25.7466 1009.63 25.7466 Q1011.8 25.7466 1014.05 26.3614 Q1016.35 26.9353 1019.22 29.1897 Q1022.13 31.4441 1023.89 35.1331 Q1027.25 42.2653 1027.25 54.808 Q1027.25 67.0638 1024.14 73.745 Q1019.59 83.5005 1009.54 83.5005 Q1005.77 83.5005 1001.92 81.574 Q998.108 79.6475 995.689 75.0157 Q991.918 68.0885 991.918 54.808 M998.886 53.7832 Q998.886 66.4489 999.788 71.4906 Q1000.81 76.9422 1003.6 79.3196 Q1006.43 81.656 1009.54 81.656 Q1012.9 81.656 1015.69 79.1556 Q1018.52 76.6143 1019.38 71.1627 Q1020.32 65.7931 1020.28 53.7832 Q1020.28 42.1013 1019.46 37.4285 Q1018.36 31.977 1015.4 29.8045 Q1012.49 27.5911 1009.54 27.5911 Q1008.44 27.5911 1007.25 27.919 Q1006.1 28.2469 1004.42 29.1897 Q1002.74 30.1324 1001.43 32.4688 Q1000.16 34.8052 999.542 38.3303 Q998.886 42.8801 998.886 53.7832 Z" fill="#000000" fill-rule="evenodd" fill-opacity="1" /><path clip-path="url(#clip440)" d="M1033.83 68.1295 Q1033.83 65.6292 1035.18 64.6864 Q1036.53 63.7027 1037.97 63.7027 Q1039.89 63.7027 1041 64.9323 Q1042.15 66.121 1042.15 67.8016 Q1042.15 69.4821 1041 70.7118 Q1039.89 71.9005 1037.97 71.9005 Q1037.02 71.9005 1036.53 71.7366 Q1037.64 75.5895 1041 78.3768 Q1044.4 81.1641 1048.87 81.1641 Q1054.49 81.1641 1057.85 75.7125 Q1059.86 72.1874 1059.86 64.1945 Q1059.86 57.1444 1058.34 53.6193 Q1056 48.2497 1051.21 48.2497 Q1044.4 48.2497 1040.39 54.1112 Q1039.89 54.849 1039.32 54.89 Q1038.5 54.89 1038.29 54.4391 Q1038.13 53.9472 1038.13 52.6765 L1038.13 27.837 Q1038.13 25.8286 1038.95 25.8286 Q1039.28 25.8286 1039.98 26.0745 Q1045.26 28.4109 1051.12 28.4519 Q1057.15 28.4519 1062.56 25.9925 Q1062.97 25.7466 1063.22 25.7466 Q1064.04 25.7466 1064.08 26.6893 Q1064.08 27.0173 1063.38 28.001 Q1062.72 28.9437 1061.29 30.2144 Q1059.86 31.4441 1058.01 32.6328 Q1056.17 33.8215 1053.46 34.6413 Q1050.8 35.4201 1047.85 35.4201 Q1044.32 35.4201 1040.71 34.3133 L1040.71 50.6681 Q1045.06 46.4052 1051.37 46.4052 Q1058.09 46.4052 1062.72 51.8158 Q1067.36 57.2263 1067.36 64.7684 Q1067.36 72.6793 1061.86 78.0899 Q1056.41 83.5005 1049.03 83.5005 Q1042.31 83.5005 1038.05 78.7047 Q1033.83 73.909 1033.83 68.1295 Z" fill="#000000" fill-rule="evenodd" fill-opacity="1" /><polyline clip-path="url(#clip443)" style="stroke:#009af9; stroke-linecap:butt; stroke-linejoin:round; stroke-width:4; stroke-opacity:1; fill:none" points="
  95.8209,156.104 125.554,157.162 155.288,160.324 185.021,165.561 214.754,172.825 244.488,182.049 274.221,193.151 303.954,206.033 333.688,220.587 363.421,236.691 
  393.155,254.22 422.888,273.04 452.621,293.015 482.355,314.008 512.088,335.882 541.821,358.505 571.555,381.746 601.288,405.481 631.022,429.594 660.755,453.972 
  690.488,478.513 720.222,503.122 749.955,527.711 779.688,552.2 809.422,576.517 839.155,600.598 868.888,624.383 898.622,647.821 928.355,670.863 958.089,693.466 
  987.822,715.592 1017.56,737.204 1047.29,758.268 1077.02,778.755 1106.76,798.641 1136.49,817.917 1166.22,836.604 1195.96,991.848 1225.69,991.848 1255.42,991.848 
  1285.16,991.848 1314.89,991.848 1344.62,991.848 1374.36,991.848 1404.09,991.848 1433.82,991.848 1463.56,991.848 1493.29,991.848 1523.02,991.848 1552.76,991.848 
  
  "/>
<circle clip-path="url(#clip443)" cx="303.954" cy="206.033" r="14" fill="#009af9" fill-rule="evenodd" fill-opacity="1" stroke="#000000" stroke-opacity="1" stroke-width="2.4"/>
<circle clip-path="url(#clip443)" cx="333.688" cy="220.587" r="14" fill="#009af9" fill-rule="evenodd" fill-opacity="1" stroke="#000000" stroke-opacity="1" stroke-width="2.4"/>
<circle clip-path="url(#clip443)" cx="363.421" cy="236.691" r="14" fill="#009af9" fill-rule="evenodd" fill-opacity="1" stroke="#000000" stroke-opacity="1" stroke-width="2.4"/>
<circle clip-path="url(#clip443)" cx="393.155" cy="254.22" r="14" fill="#009af9" fill-rule="evenodd" fill-opacity="1" stroke="#000000" stroke-opacity="1" stroke-width="2.4"/>
<circle clip-path="url(#clip443)" cx="422.888" cy="273.04" r="14" fill="#009af9" fill-rule="evenodd" fill-opacity="1" stroke="#000000" stroke-opacity="1" stroke-width="2.4"/>
<circle clip-path="url(#clip443)" cx="452.621" cy="293.015" r="14" fill="#009af9" fill-rule="evenodd" fill-opacity="1" stroke="#000000" stroke-opacity="1" stroke-width="2.4"/>
<circle clip-path="url(#clip443)" cx="482.355" cy="314.008" r="14" fill="#009af9" fill-rule="evenodd" fill-opacity="1" stroke="#000000" stroke-opacity="1" stroke-width="2.4"/>
<circle clip-path="url(#clip443)" cx="512.088" cy="335.882" r="14" fill="#009af9" fill-rule="evenodd" fill-opacity="1" stroke="#000000" stroke-opacity="1" stroke-width="2.4"/>
<circle clip-path="url(#clip443)" cx="541.821" cy="358.505" r="14" fill="#009af9" fill-rule="evenodd" fill-opacity="1" stroke="#000000" stroke-opacity="1" stroke-width="2.4"/>
<circle clip-path="url(#clip443)" cx="571.555" cy="381.746" r="14" fill="#009af9" fill-rule="evenodd" fill-opacity="1" stroke="#000000" stroke-opacity="1" stroke-width="2.4"/>
<circle clip-path="url(#clip443)" cx="601.288" cy="405.481" r="14" fill="#009af9" fill-rule="evenodd" fill-opacity="1" stroke="#000000" stroke-opacity="1" stroke-width="2.4"/>
<circle clip-path="url(#clip443)" cx="631.022" cy="429.594" r="14" fill="#009af9" fill-rule="evenodd" fill-opacity="1" stroke="#000000" stroke-opacity="1" stroke-width="2.4"/>
<circle clip-path="url(#clip443)" cx="660.755" cy="453.972" r="14" fill="#009af9" fill-rule="evenodd" fill-opacity="1" stroke="#000000" stroke-opacity="1" stroke-width="2.4"/>
<circle clip-path="url(#clip443)" cx="690.488" cy="478.513" r="14" fill="#009af9" fill-rule="evenodd" fill-opacity="1" stroke="#000000" stroke-opacity="1" stroke-width="2.4"/>
<circle clip-path="url(#clip443)" cx="720.222" cy="503.122" r="14" fill="#009af9" fill-rule="evenodd" fill-opacity="1" stroke="#000000" stroke-opacity="1" stroke-width="2.4"/>
<circle clip-path="url(#clip443)" cx="749.955" cy="527.711" r="14" fill="#009af9" fill-rule="evenodd" fill-opacity="1" stroke="#000000" stroke-opacity="1" stroke-width="2.4"/>
<circle clip-path="url(#clip443)" cx="779.688" cy="552.2" r="14" fill="#009af9" fill-rule="evenodd" fill-opacity="1" stroke="#000000" stroke-opacity="1" stroke-width="2.4"/>
<circle clip-path="url(#clip443)" cx="809.422" cy="576.517" r="14" fill="#009af9" fill-rule="evenodd" fill-opacity="1" stroke="#000000" stroke-opacity="1" stroke-width="2.4"/>
<circle clip-path="url(#clip443)" cx="839.155" cy="600.598" r="14" fill="#009af9" fill-rule="evenodd" fill-opacity="1" stroke="#000000" stroke-opacity="1" stroke-width="2.4"/>
<circle clip-path="url(#clip443)" cx="868.888" cy="624.383" r="14" fill="#009af9" fill-rule="evenodd" fill-opacity="1" stroke="#000000" stroke-opacity="1" stroke-width="2.4"/>
<circle clip-path="url(#clip443)" cx="898.622" cy="647.821" r="14" fill="#009af9" fill-rule="evenodd" fill-opacity="1" stroke="#000000" stroke-opacity="1" stroke-width="2.4"/>
<circle clip-path="url(#clip443)" cx="928.355" cy="670.863" r="14" fill="#009af9" fill-rule="evenodd" fill-opacity="1" stroke="#000000" stroke-opacity="1" stroke-width="2.4"/>
<circle clip-path="url(#clip443)" cx="958.089" cy="693.466" r="14" fill="#009af9" fill-rule="evenodd" fill-opacity="1" stroke="#000000" stroke-opacity="1" stroke-width="2.4"/>
<circle clip-path="url(#clip443)" cx="987.822" cy="715.592" r="14" fill="#009af9" fill-rule="evenodd" fill-opacity="1" stroke="#000000" stroke-opacity="1" stroke-width="2.4"/>
<circle clip-path="url(#clip443)" cx="1017.56" cy="737.204" r="14" fill="#009af9" fill-rule="evenodd" fill-opacity="1" stroke="#000000" stroke-opacity="1" stroke-width="2.4"/>
<circle clip-path="url(#clip443)" cx="1047.29" cy="758.268" r="14" fill="#009af9" fill-rule="evenodd" fill-opacity="1" stroke="#000000" stroke-opacity="1" stroke-width="2.4"/>
<circle clip-path="url(#clip443)" cx="1077.02" cy="778.755" r="14" fill="#009af9" fill-rule="evenodd" fill-opacity="1" stroke="#000000" stroke-opacity="1" stroke-width="2.4"/>
<circle clip-path="url(#clip443)" cx="1106.76" cy="798.641" r="14" fill="#009af9" fill-rule="evenodd" fill-opacity="1" stroke="#000000" stroke-opacity="1" stroke-width="2.4"/>
<circle clip-path="url(#clip443)" cx="1136.49" cy="817.917" r="14" fill="#009af9" fill-rule="evenodd" fill-opacity="1" stroke="#000000" stroke-opacity="1" stroke-width="2.4"/>
<circle clip-path="url(#clip443)" cx="1166.22" cy="836.604" r="14" fill="#009af9" fill-rule="evenodd" fill-opacity="1" stroke="#000000" stroke-opacity="1" stroke-width="2.4"/>
<circle clip-path="url(#clip443)" cx="1195.96" cy="991.848" r="14" fill="#009af9" fill-rule="evenodd" fill-opacity="1" stroke="#000000" stroke-opacity="1" stroke-width="2.4"/>
<circle clip-path="url(#clip443)" cx="1225.69" cy="991.848" r="14" fill="#009af9" fill-rule="evenodd" fill-opacity="1" stroke="#000000" stroke-opacity="1" stroke-width="2.4"/>
<circle clip-path="url(#clip443)" cx="1255.42" cy="991.848" r="14" fill="#009af9" fill-rule="evenodd" fill-opacity="1" stroke="#000000" stroke-opacity="1" stroke-width="2.4"/>
<circle clip-path="url(#clip443)" cx="1285.16" cy="991.848" r="14" fill="#009af9" fill-rule="evenodd" fill-opacity="1" stroke="#000000" stroke-opacity="1" stroke-width="2.4"/>
<circle clip-path="url(#clip443)" cx="1314.89" cy="991.848" r="14" fill="#009af9" fill-rule="evenodd" fill-opacity="1" stroke="#000000" stroke-opacity="1" stroke-width="2.4"/>
<circle clip-path="url(#clip443)" cx="1344.62" cy="991.848" r="14" fill="#009af9" fill-rule="evenodd" fill-opacity="1" stroke="#000000" stroke-opacity="1" stroke-width="2.4"/>
<circle clip-path="url(#clip443)" cx="1374.36" cy="991.848" r="14" fill="#009af9" fill-rule="evenodd" fill-opacity="1" stroke="#000000" stroke-opacity="1" stroke-width="2.4"/>
<circle clip-path="url(#clip443)" cx="1404.09" cy="991.848" r="14" fill="#009af9" fill-rule="evenodd" fill-opacity="1" stroke="#000000" stroke-opacity="1" stroke-width="2.4"/>
<circle clip-path="url(#clip443)" cx="1433.82" cy="991.848" r="14" fill="#009af9" fill-rule="evenodd" fill-opacity="1" stroke="#000000" stroke-opacity="1" stroke-width="2.4"/>
<circle clip-path="url(#clip443)" cx="1463.56" cy="991.848" r="14" fill="#009af9" fill-rule="evenodd" fill-opacity="1" stroke="#000000" stroke-opacity="1" stroke-width="2.4"/>
<circle clip-path="url(#clip443)" cx="1493.29" cy="991.848" r="14" fill="#009af9" fill-rule="evenodd" fill-opacity="1" stroke="#000000" stroke-opacity="1" stroke-width="2.4"/>
<circle clip-path="url(#clip443)" cx="1523.02" cy="991.848" r="14" fill="#009af9" fill-rule="evenodd" fill-opacity="1" stroke="#000000" stroke-opacity="1" stroke-width="2.4"/>
<circle clip-path="url(#clip443)" cx="1552.76" cy="991.848" r="14" fill="#009af9" fill-rule="evenodd" fill-opacity="1" stroke="#000000" stroke-opacity="1" stroke-width="2.4"/>
<path clip-path="url(#clip440)" d="
M1263.8 264.242 L1510.67 264.242 L1510.67 160.562 L1263.8 160.562  Z
  " fill="#ffffff" fill-rule="evenodd" fill-opacity="1"/>
<polyline clip-path="url(#clip440)" style="stroke:#000000; stroke-linecap:butt; stroke-linejoin:round; stroke-width:4; stroke-opacity:1; fill:none" points="
  1263.8,264.242 1510.67,264.242 1510.67,160.562 1263.8,160.562 1263.8,264.242 
  "/>
<polyline clip-path="url(#clip440)" style="stroke:#009af9; stroke-linecap:butt; stroke-linejoin:round; stroke-width:4; stroke-opacity:1; fill:none" points="
  1277.83,212.402 1362,212.402 
  "/>
<circle clip-path="url(#clip440)" cx="1319.91" cy="212.402" r="23" fill="#009af9" fill-rule="evenodd" fill-opacity="1" stroke="#000000" stroke-opacity="1" stroke-width="3.84"/>
<path clip-path="url(#clip440)" d="M1392.05 198.293 Q1386.96 198.293 1383.95 202.089 Q1380.96 205.886 1380.96 212.436 Q1380.96 218.964 1383.95 222.76 Q1386.96 226.557 1392.05 226.557 Q1397.14 226.557 1400.11 222.76 Q1403.09 218.964 1403.09 212.436 Q1403.09 205.886 1400.11 202.089 Q1397.14 198.293 1392.05 198.293 M1392.05 194.497 Q1399.32 194.497 1403.67 199.381 Q1408.02 204.242 1408.02 212.436 Q1408.02 220.608 1403.67 225.492 Q1399.32 230.353 1392.05 230.353 Q1384.76 230.353 1380.39 225.492 Q1376.03 220.631 1376.03 212.436 Q1376.03 204.242 1380.39 199.381 Q1384.76 194.497 1392.05 194.497 Z" fill="#000000" fill-rule="evenodd" fill-opacity="1" /><path clip-path="url(#clip440)" d="M1414.71 219.45 L1414.71 203.756 L1418.97 203.756 L1418.97 219.288 Q1418.97 222.969 1420.41 224.821 Q1421.84 226.649 1424.71 226.649 Q1428.16 226.649 1430.15 224.45 Q1432.17 222.251 1432.17 218.455 L1432.17 203.756 L1436.43 203.756 L1436.43 229.682 L1432.17 229.682 L1432.17 225.7 Q1430.62 228.061 1428.56 229.219 Q1426.52 230.353 1423.81 230.353 Q1419.34 230.353 1417.03 227.575 Q1414.71 224.797 1414.71 219.45 M1425.43 203.131 L1425.43 203.131 Z" fill="#000000" fill-rule="evenodd" fill-opacity="1" /><path clip-path="url(#clip440)" d="M1460.22 207.737 Q1459.51 207.321 1458.65 207.136 Q1457.82 206.927 1456.8 206.927 Q1453.19 206.927 1451.24 209.288 Q1449.32 211.626 1449.32 216.024 L1449.32 229.682 L1445.04 229.682 L1445.04 203.756 L1449.32 203.756 L1449.32 207.784 Q1450.66 205.423 1452.82 204.288 Q1454.97 203.131 1458.05 203.131 Q1458.49 203.131 1459.02 203.2 Q1459.55 203.247 1460.2 203.362 L1460.22 207.737 Z" fill="#000000" fill-rule="evenodd" fill-opacity="1" /><path clip-path="url(#clip440)" d="M1481.22 204.52 L1481.22 208.548 Q1479.41 207.622 1477.47 207.159 Q1475.52 206.696 1473.44 206.696 Q1470.27 206.696 1468.67 207.668 Q1467.1 208.64 1467.1 210.585 Q1467.1 212.066 1468.23 212.923 Q1469.37 213.756 1472.79 214.52 L1474.25 214.844 Q1478.79 215.816 1480.69 217.598 Q1482.61 219.358 1482.61 222.529 Q1482.61 226.14 1479.74 228.247 Q1476.89 230.353 1471.89 230.353 Q1469.81 230.353 1467.54 229.936 Q1465.29 229.543 1462.79 228.733 L1462.79 224.335 Q1465.15 225.561 1467.45 226.186 Q1469.74 226.788 1471.98 226.788 Q1474.99 226.788 1476.61 225.77 Q1478.23 224.728 1478.23 222.853 Q1478.23 221.117 1477.05 220.191 Q1475.89 219.265 1471.94 218.409 L1470.45 218.061 Q1466.5 217.228 1464.74 215.515 Q1462.98 213.779 1462.98 210.77 Q1462.98 207.112 1465.57 205.122 Q1468.16 203.131 1472.93 203.131 Q1475.29 203.131 1477.38 203.478 Q1479.46 203.825 1481.22 204.52 Z" fill="#000000" fill-rule="evenodd" fill-opacity="1" /></svg>
