<?xml version="1.0" encoding="utf-8"?>
<svg xmlns="http://www.w3.org/2000/svg" xmlns:xlink="http://www.w3.org/1999/xlink" width="400" height="300" viewBox="0 0 1600 1200">
<defs>
  <clipPath id="clip560">
    <rect x="0" y="0" width="1600" height="1200"/>
  </clipPath>
</defs>
<path clip-path="url(#clip560)" d="
M0 1200 L1600 1200 L1600 0 L0 0  Z
  " fill="#ffffff" fill-rule="evenodd" fill-opacity="1"/>
<defs>
  <clipPath id="clip561">
    <rect x="320" y="0" width="1121" height="1121"/>
  </clipPath>
</defs>
<path clip-path="url(#clip560)" d="
M217.32 1016.92 L1552.76 1016.92 L1552.76 47.2441 L217.32 47.2441  Z
  " fill="#ffffff" fill-rule="evenodd" fill-opacity="1"/>
<defs>
  <clipPath id="clip562">
    <rect x="217" y="47" width="1336" height="971"/>
  </clipPath>
</defs>
<polyline clip-path="url(#clip562)" style="stroke:#000000; stroke-linecap:round; stroke-linejoin:round; stroke-width:2; stroke-opacity:0.1; fill:none" points="
  255.116,1016.92 255.116,47.2441 
  "/>
<polyline clip-path="url(#clip562)" style="stroke:#000000; stroke-linecap:round; stroke-linejoin:round; stroke-width:2; stroke-opacity:0.1; fill:none" points="
  570.077,1016.92 570.077,47.2441 
  "/>
<polyline clip-path="url(#clip562)" style="stroke:#000000; stroke-linecap:round; stroke-linejoin:round; stroke-width:2; stroke-opacity:0.1; fill:none" points="
  885.038,1016.92 885.038,47.2441 
  "/>
<polyline clip-path="url(#clip562)" style="stroke:#000000; stroke-linecap:round; stroke-linejoin:round; stroke-width:2; stroke-opacity:0.1; fill:none" points="
  1200,1016.92 1200,47.2441 
  "/>
<polyline clip-path="url(#clip562)" style="stroke:#000000; stroke-linecap:round; stroke-linejoin:round; stroke-width:2; stroke-opacity:0.1; fill:none" points="
  1514.96,1016.92 1514.96,47.2441 
  "/>
<polyline clip-path="url(#clip560)" style="stroke:#000000; stroke-linecap:round; stroke-linejoin:round; stroke-width:4; stroke-opacity:1; fill:none" points="
  217.32,1016.92 1552.76,1016.92 
  "/>
<polyline clip-path="url(#clip560)" style="stroke:#000000; stroke-linecap:round; stroke-linejoin:round; stroke-width:4; stroke-opacity:1; fill:none" points="
  255.116,1016.92 255.116,998.022 
  "/>
<polyline clip-path="url(#clip560)" style="stroke:#000000; stroke-linecap:round; stroke-linejoin:round; stroke-width:4; stroke-opacity:1; fill:none" points="
  570.077,1016.92 570.077,998.022 
  "/>
<polyline clip-path="url(#clip560)" style="stroke:#000000; stroke-linecap:round; stroke-linejoin:round; stroke-width:4; stroke-opacity:1; fill:none" points="
  885.038,1016.92 885.038,998.022 
  "/>
<polyline clip-path="url(#clip560)" style="stroke:#000000; stroke-linecap:round; stroke-linejoin:round; stroke-width:4; stroke-opacity:1; fill:none" points="
  1200,1016.92 1200,998.022 
  "/>
<polyline clip-path="url(#clip560)" style="stroke:#000000; stroke-linecap:round; stroke-linejoin:round; stroke-width:4; stroke-opacity:1; fill:none" points="
  1514.96,1016.92 1514.96,998.022 
  "/>
<path clip-path="url(#clip560)" d="M225.058 1056.09 L254.734 1056.09 L254.734 1060.03 L225.058 1060.03 L225.058 1056.09 Z" fill="#000000" fill-rule="evenodd" fill-opacity="1" /><path clip-path="url(#clip560)" d="M268.854 1068.98 L285.173 1068.98 L285.173 1072.92 L263.229 1072.92 L263.229 1068.98 Q265.891 1066.23 270.474 1061.6 Q275.081 1056.95 276.261 1055.61 Q278.507 1053.08 279.386 1051.35 Q280.289 1049.59 280.289 1047.9 Q280.289 1045.14 278.345 1043.41 Q276.423 1041.67 273.321 1041.67 Q271.122 1041.67 268.669 1042.43 Q266.238 1043.2 263.46 1044.75 L263.46 1040.03 Q266.284 1038.89 268.738 1038.31 Q271.192 1037.73 273.229 1037.73 Q278.599 1037.73 281.794 1040.42 Q284.988 1043.11 284.988 1047.6 Q284.988 1049.73 284.178 1051.65 Q283.391 1053.54 281.284 1056.14 Q280.706 1056.81 277.604 1060.03 Q274.502 1063.22 268.854 1068.98 Z" fill="#000000" fill-rule="evenodd" fill-opacity="1" /><path clip-path="url(#clip560)" d="M539.834 1056.09 L569.51 1056.09 L569.51 1060.03 L539.834 1060.03 L539.834 1056.09 Z" fill="#000000" fill-rule="evenodd" fill-opacity="1" /><path clip-path="url(#clip560)" d="M580.412 1068.98 L588.051 1068.98 L588.051 1042.62 L579.741 1044.29 L579.741 1040.03 L588.005 1038.36 L592.681 1038.36 L592.681 1068.98 L600.32 1068.98 L600.32 1072.92 L580.412 1072.92 L580.412 1068.98 Z" fill="#000000" fill-rule="evenodd" fill-opacity="1" /><path clip-path="url(#clip560)" d="M885.038 1041.44 Q881.427 1041.44 879.598 1045 Q877.793 1048.54 877.793 1055.67 Q877.793 1062.78 879.598 1066.35 Q881.427 1069.89 885.038 1069.89 Q888.672 1069.89 890.478 1066.35 Q892.307 1062.78 892.307 1055.67 Q892.307 1048.54 890.478 1045 Q888.672 1041.44 885.038 1041.44 M885.038 1037.73 Q890.848 1037.73 893.904 1042.34 Q896.982 1046.92 896.982 1055.67 Q896.982 1064.4 893.904 1069.01 Q890.848 1073.59 885.038 1073.59 Q879.228 1073.59 876.149 1069.01 Q873.094 1064.4 873.094 1055.67 Q873.094 1046.92 876.149 1042.34 Q879.228 1037.73 885.038 1037.73 Z" fill="#000000" fill-rule="evenodd" fill-opacity="1" /><path clip-path="url(#clip560)" d="M1190.38 1068.98 L1198.02 1068.98 L1198.02 1042.62 L1189.71 1044.29 L1189.71 1040.03 L1197.97 1038.36 L1202.65 1038.36 L1202.65 1068.98 L1210.29 1068.98 L1210.29 1072.92 L1190.38 1072.92 L1190.38 1068.98 Z" fill="#000000" fill-rule="evenodd" fill-opacity="1" /><path clip-path="url(#clip560)" d="M1509.61 1068.98 L1525.93 1068.98 L1525.93 1072.92 L1503.99 1072.92 L1503.99 1068.98 Q1506.65 1066.23 1511.23 1061.6 Q1515.84 1056.95 1517.02 1055.61 Q1519.27 1053.08 1520.15 1051.35 Q1521.05 1049.59 1521.05 1047.9 Q1521.05 1045.14 1519.1 1043.41 Q1517.18 1041.67 1514.08 1041.67 Q1511.88 1041.67 1509.43 1042.43 Q1507 1043.2 1504.22 1044.75 L1504.22 1040.03 Q1507.04 1038.89 1509.5 1038.31 Q1511.95 1037.73 1513.99 1037.73 Q1519.36 1037.73 1522.55 1040.42 Q1525.75 1043.11 1525.75 1047.6 Q1525.75 1049.73 1524.94 1051.65 Q1524.15 1053.54 1522.04 1056.14 Q1521.47 1056.81 1518.36 1060.03 Q1515.26 1063.22 1509.61 1068.98 Z" fill="#000000" fill-rule="evenodd" fill-opacity="1" /><path clip-path="url(#clip560)" d="M903.705 1110.8 Q903.705 1113.79 902.192 1119.59 Q901.58 1122.1 900.742 1124.39 Q899.937 1126.64 898.746 1128.83 Q897.554 1131.02 896.169 1132.6 Q894.784 1134.15 892.981 1135.11 Q891.177 1136.08 889.181 1136.08 Q886.024 1136.08 884.156 1134.21 Q882.321 1132.31 881.741 1129.06 Q877.425 1136.08 871.661 1136.08 Q868.086 1136.08 866.411 1133.54 Q864.736 1130.96 864.736 1126.64 Q864.736 1123 865.702 1119.24 Q867.538 1112.09 871.113 1107.1 Q871.596 1106.52 872.305 1106.52 Q872.723 1106.52 872.917 1106.64 Q873.496 1107 873.496 1107.58 Q873.496 1108 873.174 1108.42 Q870.92 1111.54 869.438 1114.21 Q867.957 1116.89 867.281 1119.59 Q866.765 1121.91 866.765 1123.87 Q866.765 1127.19 868.182 1129.25 Q869.632 1131.31 872.498 1131.31 Q875.139 1131.31 877.458 1129.67 Q879.776 1128 881.483 1125.19 Q881.58 1122.14 882.321 1119.24 Q882.997 1116.14 884.575 1116.14 Q885.831 1116.14 885.831 1117.85 Q885.831 1118.43 885.573 1119.59 Q884.865 1122.65 883.577 1125.39 Q884.028 1128.06 885.702 1129.7 Q887.377 1131.31 890.05 1131.31 Q892.53 1131.31 894.72 1129.51 Q896.942 1127.71 898.359 1125.07 Q899.808 1122.39 900.614 1119.24 Q900.871 1118.17 900.871 1116.82 Q900.871 1113.21 898.359 1110.99 Q897.651 1110.28 897.651 1109.35 Q897.651 1108.25 898.552 1107.26 Q899.615 1106.19 900.871 1106.19 Q901.805 1106.19 902.385 1106.77 Q903.705 1107.93 903.705 1110.8 Z" fill="#000000" fill-rule="evenodd" fill-opacity="1" /><polyline clip-path="url(#clip562)" style="stroke:#000000; stroke-linecap:round; stroke-linejoin:round; stroke-width:2; stroke-opacity:0.1; fill:none" points="
  217.32,989.476 1552.76,989.476 
  "/>
<polyline clip-path="url(#clip562)" style="stroke:#000000; stroke-linecap:round; stroke-linejoin:round; stroke-width:2; stroke-opacity:0.1; fill:none" points="
  217.32,702.072 1552.76,702.072 
  "/>
<polyline clip-path="url(#clip562)" style="stroke:#000000; stroke-linecap:round; stroke-linejoin:round; stroke-width:2; stroke-opacity:0.1; fill:none" points="
  217.32,414.668 1552.76,414.668 
  "/>
<polyline clip-path="url(#clip562)" style="stroke:#000000; stroke-linecap:round; stroke-linejoin:round; stroke-width:2; stroke-opacity:0.1; fill:none" points="
  217.32,127.264 1552.76,127.264 
  "/>
<polyline clip-path="url(#clip560)" style="stroke:#000000; stroke-linecap:round; stroke-linejoin:round; stroke-width:4; stroke-opacity:1; fill:none" points="
  217.32,1016.92 217.32,47.2441 
  "/>
<polyline clip-path="url(#clip560)" style="stroke:#000000; stroke-linecap:round; stroke-linejoin:round; stroke-width:4; stroke-opacity:1; fill:none" points="
  217.32,989.476 236.218,989.476 
  "/>
<polyline clip-path="url(#clip560)" style="stroke:#000000; stroke-linecap:round; stroke-linejoin:round; stroke-width:4; stroke-opacity:1; fill:none" points="
  217.32,702.072 236.218,702.072 
  "/>
<polyline clip-path="url(#clip560)" style="stroke:#000000; stroke-linecap:round; stroke-linejoin:round; stroke-width:4; stroke-opacity:1; fill:none" points="
  217.32,414.668 236.218,414.668 
  "/>
<polyline clip-path="url(#clip560)" style="stroke:#000000; stroke-linecap:round; stroke-linejoin:round; stroke-width:4; stroke-opacity:1; fill:none" points="
  217.32,127.264 236.218,127.264 
  "/>
<path clip-path="url(#clip560)" d="M136.145 975.275 Q132.533 975.275 130.705 978.84 Q128.899 982.381 128.899 989.511 Q128.899 996.617 130.705 1000.18 Q132.533 1003.72 136.145 1003.72 Q139.779 1003.72 141.584 1000.18 Q143.413 996.617 143.413 989.511 Q143.413 982.381 141.584 978.84 Q139.779 975.275 136.145 975.275 M136.145 971.571 Q141.955 971.571 145.01 976.178 Q148.089 980.761 148.089 989.511 Q148.089 998.238 145.01 1002.84 Q141.955 1007.43 136.145 1007.43 Q130.334 1007.43 127.256 1002.84 Q124.2 998.238 124.2 989.511 Q124.2 980.761 127.256 976.178 Q130.334 971.571 136.145 971.571 Z" fill="#000000" fill-rule="evenodd" fill-opacity="1" /><path clip-path="url(#clip560)" d="M156.306 1000.88 L161.191 1000.88 L161.191 1006.76 L156.306 1006.76 L156.306 1000.88 Z" fill="#000000" fill-rule="evenodd" fill-opacity="1" /><path clip-path="url(#clip560)" d="M181.376 975.275 Q177.765 975.275 175.936 978.84 Q174.13 982.381 174.13 989.511 Q174.13 996.617 175.936 1000.18 Q177.765 1003.72 181.376 1003.72 Q185.01 1003.72 186.816 1000.18 Q188.644 996.617 188.644 989.511 Q188.644 982.381 186.816 978.84 Q185.01 975.275 181.376 975.275 M181.376 971.571 Q187.186 971.571 190.241 976.178 Q193.32 980.761 193.32 989.511 Q193.32 998.238 190.241 1002.84 Q187.186 1007.43 181.376 1007.43 Q175.566 1007.43 172.487 1002.84 Q169.431 998.238 169.431 989.511 Q169.431 980.761 172.487 976.178 Q175.566 971.571 181.376 971.571 Z" fill="#000000" fill-rule="evenodd" fill-opacity="1" /><path clip-path="url(#clip560)" d="M137.371 687.871 Q133.76 687.871 131.932 691.436 Q130.126 694.977 130.126 702.107 Q130.126 709.213 131.932 712.778 Q133.76 716.32 137.371 716.32 Q141.006 716.32 142.811 712.778 Q144.64 709.213 144.64 702.107 Q144.64 694.977 142.811 691.436 Q141.006 687.871 137.371 687.871 M137.371 684.167 Q143.182 684.167 146.237 688.774 Q149.316 693.357 149.316 702.107 Q149.316 710.834 146.237 715.44 Q143.182 720.024 137.371 720.024 Q131.561 720.024 128.483 715.44 Q125.427 710.834 125.427 702.107 Q125.427 693.357 128.483 688.774 Q131.561 684.167 137.371 684.167 Z" fill="#000000" fill-rule="evenodd" fill-opacity="1" /><path clip-path="url(#clip560)" d="M157.533 713.473 L162.418 713.473 L162.418 719.352 L157.533 719.352 L157.533 713.473 Z" fill="#000000" fill-rule="evenodd" fill-opacity="1" /><path clip-path="url(#clip560)" d="M173.413 715.417 L181.052 715.417 L181.052 689.051 L172.742 690.718 L172.742 686.459 L181.005 684.792 L185.681 684.792 L185.681 715.417 L193.32 715.417 L193.32 719.352 L173.413 719.352 L173.413 715.417 Z" fill="#000000" fill-rule="evenodd" fill-opacity="1" /><path clip-path="url(#clip560)" d="M137.742 400.467 Q134.131 400.467 132.302 404.032 Q130.496 407.573 130.496 414.703 Q130.496 421.81 132.302 425.374 Q134.131 428.916 137.742 428.916 Q141.376 428.916 143.182 425.374 Q145.01 421.81 145.01 414.703 Q145.01 407.573 143.182 404.032 Q141.376 400.467 137.742 400.467 M137.742 396.763 Q143.552 396.763 146.607 401.37 Q149.686 405.953 149.686 414.703 Q149.686 423.43 146.607 428.036 Q143.552 432.62 137.742 432.62 Q131.932 432.62 128.853 428.036 Q125.797 423.43 125.797 414.703 Q125.797 405.953 128.853 401.37 Q131.932 396.763 137.742 396.763 Z" fill="#000000" fill-rule="evenodd" fill-opacity="1" /><path clip-path="url(#clip560)" d="M157.904 426.069 L162.788 426.069 L162.788 431.948 L157.904 431.948 L157.904 426.069 Z" fill="#000000" fill-rule="evenodd" fill-opacity="1" /><path clip-path="url(#clip560)" d="M177.001 428.013 L193.32 428.013 L193.32 431.948 L171.376 431.948 L171.376 428.013 Q174.038 425.259 178.621 420.629 Q183.228 415.976 184.408 414.634 Q186.654 412.11 187.533 410.374 Q188.436 408.615 188.436 406.925 Q188.436 404.171 186.491 402.435 Q184.57 400.699 181.468 400.699 Q179.269 400.699 176.816 401.462 Q174.385 402.226 171.607 403.777 L171.607 399.055 Q174.431 397.921 176.885 397.342 Q179.339 396.763 181.376 396.763 Q186.746 396.763 189.941 399.449 Q193.135 402.134 193.135 406.624 Q193.135 408.754 192.325 410.675 Q191.538 412.573 189.431 415.166 Q188.853 415.837 185.751 419.055 Q182.649 422.249 177.001 428.013 Z" fill="#000000" fill-rule="evenodd" fill-opacity="1" /><path clip-path="url(#clip560)" d="M136.793 113.063 Q133.182 113.063 131.353 116.628 Q129.547 120.17 129.547 127.299 Q129.547 134.406 131.353 137.97 Q133.182 141.512 136.793 141.512 Q140.427 141.512 142.232 137.97 Q144.061 134.406 144.061 127.299 Q144.061 120.17 142.232 116.628 Q140.427 113.063 136.793 113.063 M136.793 109.359 Q142.603 109.359 145.658 113.966 Q148.737 118.549 148.737 127.299 Q148.737 136.026 145.658 140.632 Q142.603 145.216 136.793 145.216 Q130.983 145.216 127.904 140.632 Q124.848 136.026 124.848 127.299 Q124.848 118.549 127.904 113.966 Q130.983 109.359 136.793 109.359 Z" fill="#000000" fill-rule="evenodd" fill-opacity="1" /><path clip-path="url(#clip560)" d="M156.955 138.665 L161.839 138.665 L161.839 144.544 L156.955 144.544 L156.955 138.665 Z" fill="#000000" fill-rule="evenodd" fill-opacity="1" /><path clip-path="url(#clip560)" d="M186.191 125.91 Q189.547 126.628 191.422 128.896 Q193.32 131.165 193.32 134.498 Q193.32 139.614 189.802 142.415 Q186.283 145.216 179.802 145.216 Q177.626 145.216 175.311 144.776 Q173.019 144.359 170.566 143.503 L170.566 138.989 Q172.51 140.123 174.825 140.702 Q177.14 141.281 179.663 141.281 Q184.061 141.281 186.353 139.544 Q188.667 137.808 188.667 134.498 Q188.667 131.443 186.515 129.73 Q184.385 127.994 180.566 127.994 L176.538 127.994 L176.538 124.151 L180.751 124.151 Q184.2 124.151 186.029 122.785 Q187.857 121.396 187.857 118.804 Q187.857 116.142 185.959 114.73 Q184.084 113.295 180.566 113.295 Q178.644 113.295 176.445 113.711 Q174.246 114.128 171.607 115.008 L171.607 110.841 Q174.269 110.1 176.584 109.73 Q178.922 109.359 180.982 109.359 Q186.306 109.359 189.408 111.79 Q192.51 114.197 192.51 118.318 Q192.51 121.188 190.866 123.179 Q189.223 125.146 186.191 125.91 Z" fill="#000000" fill-rule="evenodd" fill-opacity="1" /><path clip-path="url(#clip560)" d="M69.6267 565.551 Q74.3932 565.551 78.8698 567.999 Q83.3464 570.414 86.0517 574.214 Q88.757 577.982 88.757 581.783 Q88.757 586.066 84.3126 588.288 Q100.448 592.314 100.866 592.54 Q102.251 593.474 102.251 594.826 Q102.251 595.664 101.736 596.179 Q101.253 596.694 100.48 596.694 Q100.222 596.662 99.4172 596.469 L73.4914 590.027 Q67.4689 588.546 63.1856 584.069 Q58.87 579.561 58.87 574.73 Q58.87 570.897 61.7363 568.224 Q64.6026 565.551 69.6267 565.551 M66.7926 570.285 Q63.572 570.285 61.9617 571.574 Q60.3192 572.862 60.3192 574.859 Q60.3192 576.694 61.8007 578.916 Q63.2822 581.106 66.5672 583.039 Q68.4673 584.069 70.8184 584.81 Q73.1694 585.551 78.9664 587 Q81.2853 587.515 81.4141 587.515 Q81.6717 587.515 82.2514 587.387 Q82.8311 587.226 83.7329 586.839 Q84.6025 586.42 85.3754 585.841 Q86.1483 585.261 86.728 584.198 Q87.2755 583.135 87.2755 581.847 Q87.2755 579.85 85.6653 577.725 Q84.0228 575.567 81.0276 573.989 Q78.6122 572.669 74.0711 571.477 Q69.4979 570.285 66.7926 570.285 Z" fill="#000000" fill-rule="evenodd" fill-opacity="1" /><path clip-path="url(#clip560)" d="M71.5269 558.724 Q60.3837 558.724 51.3982 554.57 Q47.6301 552.798 44.474 550.318 Q41.3178 547.839 39.9329 546.196 Q38.5481 544.554 38.5481 544.103 Q38.5481 543.459 39.1922 543.426 Q39.5143 543.426 40.3194 544.296 Q51.1406 554.924 71.5269 554.892 Q91.9776 554.892 102.38 544.554 Q103.507 543.426 103.862 543.426 Q104.506 543.426 104.506 544.103 Q104.506 544.554 103.185 546.132 Q101.865 547.71 98.8375 550.157 Q95.8101 552.605 92.1064 554.376 Q83.121 558.724 71.5269 558.724 Z" fill="#000000" fill-rule="evenodd" fill-opacity="1" /><path clip-path="url(#clip560)" d="M63.4754 500.766 Q66.4706 500.766 72.2676 502.279 Q74.7797 502.891 77.0663 503.729 Q79.3207 504.534 81.5107 505.725 Q83.7007 506.917 85.2788 508.302 Q86.8247 509.687 87.7908 511.49 Q88.757 513.294 88.757 515.291 Q88.757 518.447 86.8891 520.315 Q84.9889 522.15 81.7361 522.73 Q88.757 527.046 88.757 532.811 Q88.757 536.385 86.2128 538.06 Q83.6363 539.735 79.3207 539.735 Q75.6814 539.735 71.9134 538.769 Q64.7637 536.933 59.7717 533.358 Q59.192 532.875 59.192 532.166 Q59.192 531.748 59.3209 531.554 Q59.6751 530.975 60.2548 530.975 Q60.6735 530.975 61.0922 531.297 Q64.2162 533.551 66.8892 535.033 Q69.5623 536.514 72.2676 537.191 Q74.5864 537.706 76.551 537.706 Q79.8682 537.706 81.9294 536.289 Q83.9905 534.839 83.9905 531.973 Q83.9905 529.332 82.3481 527.013 Q80.6733 524.695 77.8714 522.988 Q74.8119 522.891 71.9134 522.15 Q68.8216 521.474 68.8216 519.896 Q68.8216 518.64 70.5285 518.64 Q71.1082 518.64 72.2676 518.898 Q75.3272 519.606 78.0647 520.894 Q80.7378 520.443 82.3803 518.769 Q83.9905 517.094 83.9905 514.421 Q83.9905 511.941 82.187 509.751 Q80.3835 507.529 77.7426 506.112 Q75.0695 504.663 71.9134 503.857 Q70.8506 503.6 69.4979 503.6 Q65.8909 503.6 63.6687 506.112 Q62.9601 506.82 62.0262 506.82 Q60.9312 506.82 59.9328 505.919 Q58.87 504.856 58.87 503.6 Q58.87 502.666 59.4497 502.086 Q60.6091 500.766 63.4754 500.766 Z" fill="#000000" fill-rule="evenodd" fill-opacity="1" /><path clip-path="url(#clip560)" d="M103.862 492.795 Q103.54 492.795 102.734 491.958 Q91.9132 481.33 71.5269 481.33 Q51.0762 481.33 40.7381 491.539 Q39.5465 492.795 39.1922 492.795 Q38.5481 492.795 38.5481 492.151 Q38.5481 491.7 39.8685 490.122 Q41.189 488.512 44.2163 486.096 Q47.2437 483.649 50.9473 481.845 Q59.9328 477.497 71.5269 477.497 Q82.6701 477.497 91.6555 481.652 Q95.4236 483.423 98.5798 485.903 Q101.736 488.383 103.121 490.026 Q104.506 491.668 104.506 492.151 Q104.506 492.795 103.862 492.795 Z" fill="#000000" fill-rule="evenodd" fill-opacity="1" /><polyline clip-path="url(#clip562)" style="stroke:#009af9; stroke-linecap:round; stroke-linejoin:round; stroke-width:4; stroke-opacity:1; fill:none" points="
  255.116,989.476 267.841,806.519 280.567,732.058 293.293,675.834 306.018,629.205 318.744,588.806 331.47,552.905 344.195,520.468 356.921,490.818 369.647,463.483 
  382.373,438.12 395.098,414.466 407.824,392.32 420.55,371.519 433.275,351.931 446.001,333.447 458.727,315.978 471.453,299.445 484.178,283.782 496.904,268.934 
  509.63,254.85 522.355,241.488 535.081,228.81 547.807,216.781 560.532,205.372 573.258,194.556 585.984,184.31 598.71,174.611 611.435,165.441 624.161,156.782 
  636.887,148.618 649.612,140.935 662.338,133.72 675.064,126.961 687.79,120.648 700.515,114.771 713.241,109.321 725.967,104.291 738.692,99.6722 751.418,95.4596 
  764.144,91.6472 776.87,88.2298 789.595,85.2029 802.321,82.5627 815.047,80.3057 827.772,78.4292 840.498,76.9308 853.224,75.8086 865.949,75.0612 878.675,74.6877 
  891.401,74.6877 904.127,75.0612 916.852,75.8086 929.578,76.9308 942.304,78.4292 955.029,80.3057 967.755,82.5627 980.481,85.2029 993.207,88.2298 1005.93,91.6472 
  1018.66,95.4596 1031.38,99.6722 1044.11,104.291 1056.84,109.321 1069.56,114.771 1082.29,120.648 1095.01,126.961 1107.74,133.72 1120.46,140.935 1133.19,148.618 
  1145.92,156.782 1158.64,165.441 1171.37,174.611 1184.09,184.31 1196.82,194.556 1209.54,205.372 1222.27,216.781 1234.99,228.81 1247.72,241.488 1260.45,254.85 
  1273.17,268.934 1285.9,283.782 1298.62,299.445 1311.35,315.978 1324.07,333.447 1336.8,351.931 1349.53,371.519 1362.25,392.32 1374.98,414.466 1387.7,438.12 
  1400.43,463.483 1413.15,490.818 1425.88,520.468 1438.61,552.905 1451.33,588.806 1464.06,629.205 1476.78,675.834 1489.51,732.058 1502.23,806.519 1514.96,989.476 
  
  "/>
</svg>
