<?xml version="1.0" encoding="utf-8"?>
<svg xmlns="http://www.w3.org/2000/svg" xmlns:xlink="http://www.w3.org/1999/xlink" width="400" height="500" viewBox="0 0 1600 2000">
<defs>
  <clipPath id="clip160">
    <rect x="0" y="0" width="1600" height="2000"/>
  </clipPath>
</defs>
<path clip-path="url(#clip160)" d="
M0 2000 L1600 2000 L1600 0 L0 0  Z
  " fill="#ffffff" fill-rule="evenodd" fill-opacity="1"/>
<defs>
  <clipPath id="clip161">
    <rect x="400" y="200" width="1401" height="1401"/>
  </clipPath>
</defs>
<defs>
  <clipPath id="clip162">
    <rect x="271" y="559" width="1600" height="1213"/>
  </clipPath>
</defs>
<path clip-path="url(#clip160)" d="
M239.52 759.715 L1552.76 759.715 L1552.76 153.712 L239.52 153.712  Z
  " fill="#ffffff" fill-rule="evenodd" fill-opacity="1"/>
<defs>
  <clipPath id="clip163">
    <rect x="239" y="153" width="1314" height="607"/>
  </clipPath>
</defs>
<polyline clip-path="url(#clip163)" style="stroke:#000000; stroke-linecap:butt; stroke-linejoin:round; stroke-width:2; stroke-opacity:0.1; fill:none" points="
  258.023,759.715 258.023,153.712 
  "/>
<polyline clip-path="url(#clip163)" style="stroke:#000000; stroke-linecap:butt; stroke-linejoin:round; stroke-width:2; stroke-opacity:0.1; fill:none" points="
  577.081,759.715 577.081,153.712 
  "/>
<polyline clip-path="url(#clip163)" style="stroke:#000000; stroke-linecap:butt; stroke-linejoin:round; stroke-width:2; stroke-opacity:0.1; fill:none" points="
  896.138,759.715 896.138,153.712 
  "/>
<polyline clip-path="url(#clip163)" style="stroke:#000000; stroke-linecap:butt; stroke-linejoin:round; stroke-width:2; stroke-opacity:0.1; fill:none" points="
  1215.2,759.715 1215.2,153.712 
  "/>
<polyline clip-path="url(#clip163)" style="stroke:#000000; stroke-linecap:butt; stroke-linejoin:round; stroke-width:2; stroke-opacity:0.1; fill:none" points="
  1534.25,759.715 1534.25,153.712 
  "/>
<polyline clip-path="url(#clip160)" style="stroke:#000000; stroke-linecap:butt; stroke-linejoin:round; stroke-width:4; stroke-opacity:1; fill:none" points="
  239.52,759.715 1552.76,759.715 
  "/>
<polyline clip-path="url(#clip160)" style="stroke:#000000; stroke-linecap:butt; stroke-linejoin:round; stroke-width:4; stroke-opacity:1; fill:none" points="
  258.023,759.715 258.023,740.817 
  "/>
<polyline clip-path="url(#clip160)" style="stroke:#000000; stroke-linecap:butt; stroke-linejoin:round; stroke-width:4; stroke-opacity:1; fill:none" points="
  577.081,759.715 577.081,740.817 
  "/>
<polyline clip-path="url(#clip160)" style="stroke:#000000; stroke-linecap:butt; stroke-linejoin:round; stroke-width:4; stroke-opacity:1; fill:none" points="
  896.138,759.715 896.138,740.817 
  "/>
<polyline clip-path="url(#clip160)" style="stroke:#000000; stroke-linecap:butt; stroke-linejoin:round; stroke-width:4; stroke-opacity:1; fill:none" points="
  1215.2,759.715 1215.2,740.817 
  "/>
<polyline clip-path="url(#clip160)" style="stroke:#000000; stroke-linecap:butt; stroke-linejoin:round; stroke-width:4; stroke-opacity:1; fill:none" points="
  1534.25,759.715 1534.25,740.817 
  "/>
<path clip-path="url(#clip160)" d="M145.444 817.746 L175.12 817.746 L175.12 821.682 L145.444 821.682 L145.444 817.746 Z" fill="#000000" fill-rule="evenodd" fill-opacity="1" /><path clip-path="url(#clip160)" d="M186.023 830.64 L193.662 830.64 L193.662 804.274 L185.352 805.941 L185.352 801.682 L193.615 800.015 L198.291 800.015 L198.291 830.64 L205.93 830.64 L205.93 834.575 L186.023 834.575 L186.023 830.64 Z" fill="#000000" fill-rule="evenodd" fill-opacity="1" /><path clip-path="url(#clip160)" d="M215.375 828.695 L220.259 828.695 L220.259 834.575 L215.375 834.575 L215.375 828.695 Z" fill="#000000" fill-rule="evenodd" fill-opacity="1" /><path clip-path="url(#clip160)" d="M240.444 803.094 Q236.833 803.094 235.004 806.659 Q233.199 810.2 233.199 817.33 Q233.199 824.436 235.004 828.001 Q236.833 831.543 240.444 831.543 Q244.078 831.543 245.884 828.001 Q247.712 824.436 247.712 817.33 Q247.712 810.2 245.884 806.659 Q244.078 803.094 240.444 803.094 M240.444 799.39 Q246.254 799.39 249.31 803.997 Q252.388 808.58 252.388 817.33 Q252.388 826.057 249.31 830.663 Q246.254 835.246 240.444 835.246 Q234.634 835.246 231.555 830.663 Q228.499 826.057 228.499 817.33 Q228.499 808.58 231.555 803.997 Q234.634 799.39 240.444 799.39 Z" fill="#000000" fill-rule="evenodd" fill-opacity="1" /><path clip-path="url(#clip160)" d="M288.777 809.112 L278.198 819.737 L288.777 830.316 L286.022 833.117 L275.397 822.492 L264.772 833.117 L262.041 830.316 L272.596 819.737 L262.041 809.112 L264.772 806.311 L275.397 816.936 L286.022 806.311 L288.777 809.112 Z" fill="#000000" fill-rule="evenodd" fill-opacity="1" /><path clip-path="url(#clip160)" d="M301.138 830.64 L308.777 830.64 L308.777 804.274 L300.467 805.941 L300.467 801.682 L308.731 800.015 L313.406 800.015 L313.406 830.64 L321.045 830.64 L321.045 834.575 L301.138 834.575 L301.138 830.64 Z" fill="#000000" fill-rule="evenodd" fill-opacity="1" /><path clip-path="url(#clip160)" d="M340.49 803.094 Q336.879 803.094 335.05 806.659 Q333.244 810.2 333.244 817.33 Q333.244 824.436 335.05 828.001 Q336.879 831.543 340.49 831.543 Q344.124 831.543 345.929 828.001 Q347.758 824.436 347.758 817.33 Q347.758 810.2 345.929 806.659 Q344.124 803.094 340.49 803.094 M340.49 799.39 Q346.3 799.39 349.355 803.997 Q352.434 808.58 352.434 817.33 Q352.434 826.057 349.355 830.663 Q346.3 835.246 340.49 835.246 Q334.679 835.246 331.601 830.663 Q328.545 826.057 328.545 817.33 Q328.545 808.58 331.601 803.997 Q334.679 799.39 340.49 799.39 Z" fill="#000000" fill-rule="evenodd" fill-opacity="1" /><path clip-path="url(#clip160)" d="M353.619 779.085 L368.533 779.085 L368.533 782.282 L357.098 782.282 L357.098 789.166 Q357.926 788.883 358.753 788.752 Q359.581 788.601 360.408 788.601 Q365.11 788.601 367.856 791.178 Q370.602 793.755 370.602 798.156 Q370.602 802.688 367.781 805.209 Q364.96 807.71 359.825 807.71 Q358.058 807.71 356.214 807.409 Q354.39 807.108 352.434 806.506 L352.434 802.688 Q354.127 803.61 355.932 804.061 Q357.738 804.513 359.75 804.513 Q363.004 804.513 364.904 802.801 Q366.803 801.09 366.803 798.156 Q366.803 795.222 364.904 793.51 Q363.004 791.799 359.75 791.799 Q358.227 791.799 356.703 792.137 Q355.199 792.476 353.619 793.19 L353.619 779.085 Z" fill="#000000" fill-rule="evenodd" fill-opacity="1" /><path clip-path="url(#clip160)" d="M463.354 817.746 L493.03 817.746 L493.03 821.682 L463.354 821.682 L463.354 817.746 Z" fill="#000000" fill-rule="evenodd" fill-opacity="1" /><path clip-path="url(#clip160)" d="M503.169 800.015 L521.525 800.015 L521.525 803.95 L507.451 803.95 L507.451 812.422 Q508.47 812.075 509.488 811.913 Q510.507 811.728 511.525 811.728 Q517.312 811.728 520.692 814.899 Q524.072 818.071 524.072 823.487 Q524.072 829.066 520.599 832.168 Q517.127 835.246 510.808 835.246 Q508.632 835.246 506.363 834.876 Q504.118 834.506 501.711 833.765 L501.711 829.066 Q503.794 830.2 506.016 830.756 Q508.238 831.311 510.715 831.311 Q514.72 831.311 517.058 829.205 Q519.396 827.098 519.396 823.487 Q519.396 819.876 517.058 817.77 Q514.72 815.663 510.715 815.663 Q508.84 815.663 506.965 816.08 Q505.113 816.496 503.169 817.376 L503.169 800.015 Z" fill="#000000" fill-rule="evenodd" fill-opacity="1" /><path clip-path="url(#clip160)" d="M533.285 828.695 L538.169 828.695 L538.169 834.575 L533.285 834.575 L533.285 828.695 Z" fill="#000000" fill-rule="evenodd" fill-opacity="1" /><path clip-path="url(#clip160)" d="M558.354 803.094 Q554.743 803.094 552.914 806.659 Q551.109 810.2 551.109 817.33 Q551.109 824.436 552.914 828.001 Q554.743 831.543 558.354 831.543 Q561.988 831.543 563.794 828.001 Q565.622 824.436 565.622 817.33 Q565.622 810.2 563.794 806.659 Q561.988 803.094 558.354 803.094 M558.354 799.39 Q564.164 799.39 567.22 803.997 Q570.298 808.58 570.298 817.33 Q570.298 826.057 567.22 830.663 Q564.164 835.246 558.354 835.246 Q552.544 835.246 549.465 830.663 Q546.409 826.057 546.409 817.33 Q546.409 808.58 549.465 803.997 Q552.544 799.39 558.354 799.39 Z" fill="#000000" fill-rule="evenodd" fill-opacity="1" /><path clip-path="url(#clip160)" d="M606.687 809.112 L596.108 819.737 L606.687 830.316 L603.932 833.117 L593.307 822.492 L582.682 833.117 L579.951 830.316 L590.506 819.737 L579.951 809.112 L582.682 806.311 L593.307 816.936 L603.932 806.311 L606.687 809.112 Z" fill="#000000" fill-rule="evenodd" fill-opacity="1" /><path clip-path="url(#clip160)" d="M619.048 830.64 L626.687 830.64 L626.687 804.274 L618.377 805.941 L618.377 801.682 L626.641 800.015 L631.316 800.015 L631.316 830.64 L638.955 830.64 L638.955 834.575 L619.048 834.575 L619.048 830.64 Z" fill="#000000" fill-rule="evenodd" fill-opacity="1" /><path clip-path="url(#clip160)" d="M658.4 803.094 Q654.789 803.094 652.96 806.659 Q651.154 810.2 651.154 817.33 Q651.154 824.436 652.96 828.001 Q654.789 831.543 658.4 831.543 Q662.034 831.543 663.839 828.001 Q665.668 824.436 665.668 817.33 Q665.668 810.2 663.839 806.659 Q662.034 803.094 658.4 803.094 M658.4 799.39 Q664.21 799.39 667.265 803.997 Q670.344 808.58 670.344 817.33 Q670.344 826.057 667.265 830.663 Q664.21 835.246 658.4 835.246 Q652.589 835.246 649.511 830.663 Q646.455 826.057 646.455 817.33 Q646.455 808.58 649.511 803.997 Q652.589 799.39 658.4 799.39 Z" fill="#000000" fill-rule="evenodd" fill-opacity="1" /><path clip-path="url(#clip160)" d="M683.02 782.395 L673.428 797.385 L683.02 797.385 L683.02 782.395 M682.024 779.085 L686.801 779.085 L686.801 797.385 L690.807 797.385 L690.807 800.544 L686.801 800.544 L686.801 807.165 L683.02 807.165 L683.02 800.544 L670.344 800.544 L670.344 796.877 L682.024 779.085 Z" fill="#000000" fill-rule="evenodd" fill-opacity="1" /><path clip-path="url(#clip160)" d="M896.138 787.434 Q892.527 787.434 890.698 790.999 Q888.893 794.54 888.893 801.67 Q888.893 808.776 890.698 812.341 Q892.527 815.883 896.138 815.883 Q899.772 815.883 901.578 812.341 Q903.406 808.776 903.406 801.67 Q903.406 794.54 901.578 790.999 Q899.772 787.434 896.138 787.434 M896.138 783.73 Q901.948 783.73 905.004 788.337 Q908.082 792.92 908.082 801.67 Q908.082 810.397 905.004 815.003 Q901.948 819.586 896.138 819.586 Q890.328 819.586 887.249 815.003 Q884.193 810.397 884.193 801.67 Q884.193 792.92 887.249 788.337 Q890.328 783.73 896.138 783.73 Z" fill="#000000" fill-rule="evenodd" fill-opacity="1" /><path clip-path="url(#clip160)" d="M1122.11 800.015 L1140.46 800.015 L1140.46 803.95 L1126.39 803.95 L1126.39 812.422 Q1127.41 812.075 1128.42 811.913 Q1129.44 811.728 1130.46 811.728 Q1136.25 811.728 1139.63 814.899 Q1143.01 818.071 1143.01 823.487 Q1143.01 829.066 1139.54 832.168 Q1136.06 835.246 1129.74 835.246 Q1127.57 835.246 1125.3 834.876 Q1123.05 834.506 1120.65 833.765 L1120.65 829.066 Q1122.73 830.2 1124.95 830.756 Q1127.17 831.311 1129.65 831.311 Q1133.66 831.311 1135.99 829.205 Q1138.33 827.098 1138.33 823.487 Q1138.33 819.876 1135.99 817.77 Q1133.66 815.663 1129.65 815.663 Q1127.78 815.663 1125.9 816.08 Q1124.05 816.496 1122.11 817.376 L1122.11 800.015 Z" fill="#000000" fill-rule="evenodd" fill-opacity="1" /><path clip-path="url(#clip160)" d="M1152.22 828.695 L1157.11 828.695 L1157.11 834.575 L1152.22 834.575 L1152.22 828.695 Z" fill="#000000" fill-rule="evenodd" fill-opacity="1" /><path clip-path="url(#clip160)" d="M1177.29 803.094 Q1173.68 803.094 1171.85 806.659 Q1170.04 810.2 1170.04 817.33 Q1170.04 824.436 1171.85 828.001 Q1173.68 831.543 1177.29 831.543 Q1180.92 831.543 1182.73 828.001 Q1184.56 824.436 1184.56 817.33 Q1184.56 810.2 1182.73 806.659 Q1180.92 803.094 1177.29 803.094 M1177.29 799.39 Q1183.1 799.39 1186.16 803.997 Q1189.23 808.58 1189.23 817.33 Q1189.23 826.057 1186.16 830.663 Q1183.1 835.246 1177.29 835.246 Q1171.48 835.246 1168.4 830.663 Q1165.35 826.057 1165.35 817.33 Q1165.35 808.58 1168.4 803.997 Q1171.48 799.39 1177.29 799.39 Z" fill="#000000" fill-rule="evenodd" fill-opacity="1" /><path clip-path="url(#clip160)" d="M1225.62 809.112 L1215.04 819.737 L1225.62 830.316 L1222.87 833.117 L1212.24 822.492 L1201.62 833.117 L1198.89 830.316 L1209.44 819.737 L1198.89 809.112 L1201.62 806.311 L1212.24 816.936 L1222.87 806.311 L1225.62 809.112 Z" fill="#000000" fill-rule="evenodd" fill-opacity="1" /><path clip-path="url(#clip160)" d="M1237.98 830.64 L1245.62 830.64 L1245.62 804.274 L1237.31 805.941 L1237.31 801.682 L1245.58 800.015 L1250.25 800.015 L1250.25 830.64 L1257.89 830.64 L1257.89 834.575 L1237.98 834.575 L1237.98 830.64 Z" fill="#000000" fill-rule="evenodd" fill-opacity="1" /><path clip-path="url(#clip160)" d="M1277.34 803.094 Q1273.72 803.094 1271.9 806.659 Q1270.09 810.2 1270.09 817.33 Q1270.09 824.436 1271.9 828.001 Q1273.72 831.543 1277.34 831.543 Q1280.97 831.543 1282.78 828.001 Q1284.6 824.436 1284.6 817.33 Q1284.6 810.2 1282.78 806.659 Q1280.97 803.094 1277.34 803.094 M1277.34 799.39 Q1283.15 799.39 1286.2 803.997 Q1289.28 808.58 1289.28 817.33 Q1289.28 826.057 1286.2 830.663 Q1283.15 835.246 1277.34 835.246 Q1271.53 835.246 1268.45 830.663 Q1265.39 826.057 1265.39 817.33 Q1265.39 808.58 1268.45 803.997 Q1271.53 799.39 1277.34 799.39 Z" fill="#000000" fill-rule="evenodd" fill-opacity="1" /><path clip-path="url(#clip160)" d="M1301.96 782.395 L1292.36 797.385 L1301.96 797.385 L1301.96 782.395 M1300.96 779.085 L1305.74 779.085 L1305.74 797.385 L1309.74 797.385 L1309.74 800.544 L1305.74 800.544 L1305.74 807.165 L1301.96 807.165 L1301.96 800.544 L1289.28 800.544 L1289.28 796.877 L1300.96 779.085 Z" fill="#000000" fill-rule="evenodd" fill-opacity="1" /><path clip-path="url(#clip160)" d="M1442.3 830.64 L1449.94 830.64 L1449.94 804.274 L1441.63 805.941 L1441.63 801.682 L1449.89 800.015 L1454.57 800.015 L1454.57 830.64 L1462.21 830.64 L1462.21 834.575 L1442.3 834.575 L1442.3 830.64 Z" fill="#000000" fill-rule="evenodd" fill-opacity="1" /><path clip-path="url(#clip160)" d="M1471.65 828.695 L1476.53 828.695 L1476.53 834.575 L1471.65 834.575 L1471.65 828.695 Z" fill="#000000" fill-rule="evenodd" fill-opacity="1" /><path clip-path="url(#clip160)" d="M1496.72 803.094 Q1493.11 803.094 1491.28 806.659 Q1489.47 810.2 1489.47 817.33 Q1489.47 824.436 1491.28 828.001 Q1493.11 831.543 1496.72 831.543 Q1500.35 831.543 1502.16 828.001 Q1503.99 824.436 1503.99 817.33 Q1503.99 810.2 1502.16 806.659 Q1500.35 803.094 1496.72 803.094 M1496.72 799.39 Q1502.53 799.39 1505.58 803.997 Q1508.66 808.58 1508.66 817.33 Q1508.66 826.057 1505.58 830.663 Q1502.53 835.246 1496.72 835.246 Q1490.91 835.246 1487.83 830.663 Q1484.77 826.057 1484.77 817.33 Q1484.77 808.58 1487.83 803.997 Q1490.91 799.39 1496.72 799.39 Z" fill="#000000" fill-rule="evenodd" fill-opacity="1" /><path clip-path="url(#clip160)" d="M1545.05 809.112 L1534.47 819.737 L1545.05 830.316 L1542.3 833.117 L1531.67 822.492 L1521.05 833.117 L1518.32 830.316 L1528.87 819.737 L1518.32 809.112 L1521.05 806.311 L1531.67 816.936 L1542.3 806.311 L1545.05 809.112 Z" fill="#000000" fill-rule="evenodd" fill-opacity="1" /><path clip-path="url(#clip160)" d="M1557.41 830.64 L1565.05 830.64 L1565.05 804.274 L1556.74 805.941 L1556.74 801.682 L1565.01 800.015 L1569.68 800.015 L1569.68 830.64 L1577.32 830.64 L1577.32 834.575 L1557.41 834.575 L1557.41 830.64 Z" fill="#000000" fill-rule="evenodd" fill-opacity="1" /><path clip-path="url(#clip160)" d="M1596.77 803.094 Q1593.15 803.094 1591.33 806.659 Q1589.52 810.2 1589.52 817.33 Q1589.52 824.436 1591.33 828.001 Q1593.15 831.543 1596.77 831.543 Q1600.4 831.543 1602.2 828.001 Q1604.03 824.436 1604.03 817.33 Q1604.03 810.2 1602.2 806.659 Q1600.4 803.094 1596.77 803.094 M1596.77 799.39 Q1602.58 799.39 1605.63 803.997 Q1608.71 808.58 1608.71 817.33 Q1608.71 826.057 1605.63 830.663 Q1602.58 835.246 1596.77 835.246 Q1590.95 835.246 1587.88 830.663 Q1584.82 826.057 1584.82 817.33 Q1584.82 808.58 1587.88 803.997 Q1590.95 799.39 1596.77 799.39 Z" fill="#000000" fill-rule="evenodd" fill-opacity="1" /><path clip-path="url(#clip160)" d="M1609.89 779.085 L1624.81 779.085 L1624.81 782.282 L1613.37 782.282 L1613.37 789.166 Q1614.2 788.883 1615.03 788.752 Q1615.86 788.601 1616.68 788.601 Q1621.39 788.601 1624.13 791.178 Q1626.88 793.755 1626.88 798.156 Q1626.88 802.688 1624.06 805.209 Q1621.24 807.71 1616.1 807.71 Q1614.33 807.71 1612.49 807.409 Q1610.67 807.108 1608.71 806.506 L1608.71 802.688 Q1610.4 803.61 1612.21 804.061 Q1614.01 804.513 1616.03 804.513 Q1619.28 804.513 1621.18 802.801 Q1623.08 801.09 1623.08 798.156 Q1623.08 795.222 1621.18 793.51 Q1619.28 791.799 1616.03 791.799 Q1614.5 791.799 1612.98 792.137 Q1611.47 792.476 1609.89 793.19 L1609.89 779.085 Z" fill="#000000" fill-rule="evenodd" fill-opacity="1" /><path clip-path="url(#clip160)" d="M911.06 892.182 Q911.06 892.472 910.803 893.471 Q910.577 894.437 909.836 896.337 Q909.128 898.205 908.033 900.298 Q906.97 902.36 905.006 904.968 Q903.041 907.577 900.593 909.863 Q895.988 914.179 891.06 916.498 Q886.165 918.817 881.978 919.557 L881.044 919.557 Q880.014 919.557 880.014 918.752 L880.722 915.789 L884.748 899.654 Q886.004 894.727 886.004 894.308 Q886.004 893.922 885.843 893.728 Q885.714 893.503 884.941 893.342 Q884.201 893.181 882.719 893.181 Q882.107 893.181 881.817 893.149 Q881.56 893.116 881.334 892.955 Q881.109 892.762 881.109 892.376 Q881.109 891.828 881.334 891.538 Q881.592 891.216 881.785 891.152 Q881.978 891.087 882.365 891.055 Q882.912 891.023 884.748 890.862 Q886.584 890.669 888.162 890.54 Q889.74 890.411 890.416 890.411 Q890.803 890.411 891.028 890.604 Q891.254 890.765 891.254 890.959 L891.286 891.12 L884.812 917.367 Q887.196 916.594 889.547 915.306 Q891.93 914.018 894.506 911.892 Q897.083 909.735 899.273 907.062 Q901.463 904.388 903.395 900.653 Q905.36 896.885 906.584 892.569 Q906.809 891.699 907.357 891.184 Q907.936 890.669 908.355 890.54 Q908.774 890.411 909.16 890.411 Q910.03 890.411 910.545 890.894 Q911.06 891.345 911.06 892.182 Z" fill="#000000" fill-rule="evenodd" fill-opacity="1" /><polyline clip-path="url(#clip163)" style="stroke:#000000; stroke-linecap:butt; stroke-linejoin:round; stroke-width:2; stroke-opacity:0.1; fill:none" points="
  239.52,734.117 1552.76,734.117 
  "/>
<polyline clip-path="url(#clip163)" style="stroke:#000000; stroke-linecap:butt; stroke-linejoin:round; stroke-width:2; stroke-opacity:0.1; fill:none" points="
  239.52,595.415 1552.76,595.415 
  "/>
<polyline clip-path="url(#clip163)" style="stroke:#000000; stroke-linecap:butt; stroke-linejoin:round; stroke-width:2; stroke-opacity:0.1; fill:none" points="
  239.52,456.714 1552.76,456.714 
  "/>
<polyline clip-path="url(#clip163)" style="stroke:#000000; stroke-linecap:butt; stroke-linejoin:round; stroke-width:2; stroke-opacity:0.1; fill:none" points="
  239.52,318.012 1552.76,318.012 
  "/>
<polyline clip-path="url(#clip163)" style="stroke:#000000; stroke-linecap:butt; stroke-linejoin:round; stroke-width:2; stroke-opacity:0.1; fill:none" points="
  239.52,179.31 1552.76,179.31 
  "/>
<polyline clip-path="url(#clip160)" style="stroke:#000000; stroke-linecap:butt; stroke-linejoin:round; stroke-width:4; stroke-opacity:1; fill:none" points="
  239.52,759.715 239.52,153.712 
  "/>
<polyline clip-path="url(#clip160)" style="stroke:#000000; stroke-linecap:butt; stroke-linejoin:round; stroke-width:4; stroke-opacity:1; fill:none" points="
  239.52,734.117 258.417,734.117 
  "/>
<polyline clip-path="url(#clip160)" style="stroke:#000000; stroke-linecap:butt; stroke-linejoin:round; stroke-width:4; stroke-opacity:1; fill:none" points="
  239.52,595.415 258.417,595.415 
  "/>
<polyline clip-path="url(#clip160)" style="stroke:#000000; stroke-linecap:butt; stroke-linejoin:round; stroke-width:4; stroke-opacity:1; fill:none" points="
  239.52,456.714 258.417,456.714 
  "/>
<polyline clip-path="url(#clip160)" style="stroke:#000000; stroke-linecap:butt; stroke-linejoin:round; stroke-width:4; stroke-opacity:1; fill:none" points="
  239.52,318.012 258.417,318.012 
  "/>
<polyline clip-path="url(#clip160)" style="stroke:#000000; stroke-linecap:butt; stroke-linejoin:round; stroke-width:4; stroke-opacity:1; fill:none" points="
  239.52,179.31 258.417,179.31 
  "/>
<path clip-path="url(#clip160)" d="M149.404 734.568 L179.08 734.568 L179.08 738.503 L149.404 738.503 L149.404 734.568 Z" fill="#000000" fill-rule="evenodd" fill-opacity="1" /><path clip-path="url(#clip160)" d="M193.2 747.462 L209.52 747.462 L209.52 751.397 L187.575 751.397 L187.575 747.462 Q190.237 744.707 194.821 740.077 Q199.427 735.425 200.608 734.082 Q202.853 731.559 203.733 729.823 Q204.636 728.064 204.636 726.374 Q204.636 723.619 202.691 721.883 Q200.77 720.147 197.668 720.147 Q195.469 720.147 193.015 720.911 Q190.585 721.675 187.807 723.226 L187.807 718.503 Q190.631 717.369 193.085 716.791 Q195.538 716.212 197.575 716.212 Q202.946 716.212 206.14 718.897 Q209.335 721.582 209.335 726.073 Q209.335 728.202 208.524 730.124 Q207.737 732.022 205.631 734.614 Q205.052 735.286 201.95 738.503 Q198.849 741.698 193.2 747.462 Z" fill="#000000" fill-rule="evenodd" fill-opacity="1" /><path clip-path="url(#clip160)" d="M149.034 595.867 L178.71 595.867 L178.71 599.802 L149.034 599.802 L149.034 595.867 Z" fill="#000000" fill-rule="evenodd" fill-opacity="1" /><path clip-path="url(#clip160)" d="M189.612 608.76 L197.251 608.76 L197.251 582.394 L188.941 584.061 L188.941 579.802 L197.205 578.135 L201.881 578.135 L201.881 608.76 L209.52 608.76 L209.52 612.695 L189.612 612.695 L189.612 608.76 Z" fill="#000000" fill-rule="evenodd" fill-opacity="1" /><path clip-path="url(#clip160)" d="M197.575 442.512 Q193.964 442.512 192.136 446.077 Q190.33 449.619 190.33 456.748 Q190.33 463.855 192.136 467.42 Q193.964 470.961 197.575 470.961 Q201.21 470.961 203.015 467.42 Q204.844 463.855 204.844 456.748 Q204.844 449.619 203.015 446.077 Q201.21 442.512 197.575 442.512 M197.575 438.809 Q203.386 438.809 206.441 443.415 Q209.52 447.998 209.52 456.748 Q209.52 465.475 206.441 470.082 Q203.386 474.665 197.575 474.665 Q191.765 474.665 188.687 470.082 Q185.631 465.475 185.631 456.748 Q185.631 447.998 188.687 443.415 Q191.765 438.809 197.575 438.809 Z" fill="#000000" fill-rule="evenodd" fill-opacity="1" /><path clip-path="url(#clip160)" d="M189.612 331.357 L197.251 331.357 L197.251 304.991 L188.941 306.658 L188.941 302.399 L197.205 300.732 L201.881 300.732 L201.881 331.357 L209.52 331.357 L209.52 335.292 L189.612 335.292 L189.612 331.357 Z" fill="#000000" fill-rule="evenodd" fill-opacity="1" /><path clip-path="url(#clip160)" d="M193.2 192.655 L209.52 192.655 L209.52 196.59 L187.575 196.59 L187.575 192.655 Q190.237 189.901 194.821 185.271 Q199.427 180.618 200.608 179.276 Q202.853 176.753 203.733 175.016 Q204.636 173.257 204.636 171.567 Q204.636 168.813 202.691 167.077 Q200.77 165.341 197.668 165.341 Q195.469 165.341 193.015 166.104 Q190.585 166.868 187.807 168.419 L187.807 163.697 Q190.631 162.563 193.085 161.984 Q195.538 161.405 197.575 161.405 Q202.946 161.405 206.14 164.091 Q209.335 166.776 209.335 171.266 Q209.335 173.396 208.524 175.317 Q207.737 177.215 205.631 179.808 Q205.052 180.479 201.95 183.697 Q198.849 186.891 193.2 192.655 Z" fill="#000000" fill-rule="evenodd" fill-opacity="1" /><path clip-path="url(#clip160)" d="M109.233 585.072 L107.204 585.072 L107.204 583.333 Q107.204 579.629 106.624 578.792 Q106.012 577.922 104.08 577.922 L69.3295 577.922 Q67.4294 577.922 66.8497 578.792 Q66.2378 579.661 66.2378 583.333 L66.2378 585.072 L64.1766 585.072 Q64.3698 582.753 64.3698 574.959 Q64.3698 567.23 64.1766 564.943 L66.2378 564.943 L66.2378 566.65 Q66.2378 570.354 66.8497 571.223 Q67.4294 572.061 69.3295 572.061 L104.08 572.061 Q105.98 572.061 106.592 571.223 Q107.204 570.354 107.204 566.65 L107.204 564.943 L109.233 564.943 Q109.039 567.262 109.039 575.024 Q109.039 582.753 109.233 585.072 Z" fill="#000000" fill-rule="evenodd" fill-opacity="1" /><path clip-path="url(#clip160)" d="M109.233 556.22 L107.204 556.22 Q107.204 552.71 106.785 551.904 Q106.334 551.099 104.208 551.099 L86.5275 551.099 Q84.0798 551.099 83.4679 551.969 Q82.856 552.806 82.856 556.22 L80.7948 556.22 L80.0863 546.945 L87.0106 546.945 Q80.0863 543.853 80.0863 537.186 Q80.0863 529.457 86.5275 528.394 Q84.0154 527.267 82.0509 524.916 Q80.0863 522.533 80.0863 518.829 Q80.0863 513.869 82.534 511.905 Q84.1765 510.455 86.0122 510.166 Q87.8479 509.876 92.6144 509.876 L105.207 509.876 Q106.592 509.811 106.914 508.749 Q107.204 507.686 107.204 504.723 L109.233 504.723 Q109.039 511.454 109.039 512.098 Q109.039 512.613 109.233 519.57 L107.204 519.57 Q107.204 516.059 106.785 515.254 Q106.334 514.417 104.208 514.417 L88.8463 514.417 Q85.4969 514.417 83.5323 515.447 Q81.5356 516.478 81.5356 519.312 Q81.5356 522.726 84.4019 525.463 Q87.2682 528.201 92.0991 528.201 L104.208 528.201 Q106.334 528.201 106.785 527.396 Q107.204 526.558 107.204 523.048 L109.233 523.048 Q109.039 529.779 109.039 530.455 Q109.039 530.971 109.233 537.895 L107.204 537.895 Q107.204 534.384 106.785 533.579 Q106.334 532.742 104.208 532.742 L88.8463 532.742 Q85.4969 532.742 83.5323 533.772 Q81.5356 534.803 81.5356 537.637 Q81.5356 541.051 84.4019 543.788 Q87.2682 546.526 92.0991 546.526 L104.208 546.526 Q106.334 546.526 106.785 545.721 Q107.204 544.883 107.204 541.405 L109.233 541.405 Q109.039 548.136 109.039 548.78 Q109.039 549.296 109.233 556.22 Z" fill="#000000" fill-rule="evenodd" fill-opacity="1" /><path clip-path="url(#clip160)" d="M65.2394 484.406 Q64.1766 484.406 64.1766 482.957 L64.1766 446.016 L79.0235 444.181 L79.0235 445.888 Q74.6757 446.467 72.1637 447.498 Q69.6516 448.529 68.299 450.719 Q66.9463 452.876 66.5921 455.549 Q66.2378 458.223 66.2378 463.118 L66.2378 476.966 L84.9494 464.02 Q86.2698 463.086 86.6885 463.118 Q87.2682 463.118 88.4598 464.245 L106.463 480.187 L106.463 464.438 Q106.463 461.411 106.366 459.511 Q106.27 457.578 106.012 455.549 Q105.722 453.488 105.175 452.297 Q104.627 451.105 103.725 449.913 Q102.824 448.722 101.407 448.045 Q99.9895 447.337 98.0894 446.789 Q96.157 446.242 93.6128 445.888 L93.6128 444.181 L109.233 446.016 L109.233 483.021 Q109.233 484.341 108.427 484.341 Q108.041 484.341 107.107 483.569 L89.587 467.981 Q88.7175 468.625 86.8817 469.849 L66.7531 483.762 Q65.5615 484.406 65.2394 484.406 Z" fill="#000000" fill-rule="evenodd" fill-opacity="1" /><path clip-path="url(#clip160)" d="M92.7432 433.83 Q81.6 433.83 72.6145 429.675 Q68.8465 427.904 65.6903 425.424 Q62.5341 422.944 61.1493 421.302 Q59.7644 419.659 59.7644 419.208 Q59.7644 418.564 60.4085 418.532 Q60.7306 418.532 61.5357 419.402 Q72.3569 430.029 92.7432 429.997 Q113.194 429.997 123.596 419.659 Q124.724 418.532 125.078 418.532 Q125.722 418.532 125.722 419.208 Q125.722 419.659 124.402 421.237 Q123.081 422.815 120.054 425.263 Q117.026 427.711 113.323 429.482 Q104.337 433.83 92.7432 433.83 Z" fill="#000000" fill-rule="evenodd" fill-opacity="1" /><path clip-path="url(#clip160)" d="M109.233 408.503 L107.204 408.503 Q107.204 404.993 106.785 404.188 Q106.334 403.383 104.208 403.383 L86.4631 403.383 Q84.0154 403.383 83.4357 404.22 Q82.856 405.025 82.856 408.246 L80.7948 408.246 L80.0863 399.035 L104.273 399.035 Q106.237 399.035 106.721 398.326 Q107.204 397.618 107.204 394.397 L109.233 394.397 Q109.039 401.128 109.039 401.257 Q109.039 402.159 109.233 408.503 M68.5888 405.734 Q67.2684 405.734 66.2056 404.735 Q65.1106 403.705 65.1106 402.255 Q65.1106 400.806 66.109 399.776 Q67.0751 398.745 68.621 398.745 Q70.1347 398.745 71.1331 399.776 Q72.0993 400.806 72.0993 402.255 Q72.0993 403.769 71.0365 404.768 Q69.9737 405.734 68.5888 405.734 Z" fill="#000000" fill-rule="evenodd" fill-opacity="1" /><path clip-path="url(#clip160)" d="M81.8576 359.371 Q82.1475 359.371 83.1459 359.629 Q84.112 359.854 86.0122 360.595 Q87.8801 361.304 89.9735 362.399 Q92.0347 363.461 94.6434 365.426 Q97.252 367.39 99.5386 369.838 Q103.854 374.444 106.173 379.371 Q108.492 384.266 109.233 388.453 L109.233 389.387 Q109.233 390.418 108.427 390.418 L105.465 389.709 L89.3294 385.683 Q84.4019 384.427 83.9832 384.427 Q83.5967 384.427 83.4035 384.588 Q83.1781 384.717 83.017 385.49 Q82.856 386.231 82.856 387.712 Q82.856 388.324 82.8238 388.614 Q82.7916 388.872 82.6306 389.097 Q82.4373 389.323 82.0509 389.323 Q81.5034 389.323 81.2135 389.097 Q80.8915 388.84 80.827 388.646 Q80.7626 388.453 80.7304 388.067 Q80.6982 387.519 80.5372 385.683 Q80.344 383.848 80.2151 382.27 Q80.0863 380.691 80.0863 380.015 Q80.0863 379.629 80.2795 379.403 Q80.4406 379.178 80.6338 379.178 L80.7948 379.146 L107.043 385.619 Q106.27 383.236 104.981 380.885 Q103.693 378.501 101.568 375.925 Q99.4098 373.349 96.7367 371.159 Q94.0637 368.969 90.3278 367.036 Q86.5597 365.072 82.2441 363.848 Q81.3745 363.622 80.8592 363.075 Q80.344 362.495 80.2151 362.077 Q80.0863 361.658 80.0863 361.271 Q80.0863 360.402 80.5694 359.887 Q81.0203 359.371 81.8576 359.371 Z" fill="#000000" fill-rule="evenodd" fill-opacity="1" /><path clip-path="url(#clip160)" d="M125.078 353.682 Q124.756 353.682 123.951 352.844 Q113.13 342.216 92.7432 342.216 Q72.2925 342.216 61.9544 352.426 Q60.7628 353.682 60.4085 353.682 Q59.7644 353.682 59.7644 353.037 Q59.7644 352.587 61.0848 351.008 Q62.4053 349.398 65.4326 346.983 Q68.46 344.535 72.1637 342.732 Q81.1491 338.384 92.7432 338.384 Q103.886 338.384 112.872 342.538 Q116.64 344.31 119.796 346.79 Q122.952 349.269 124.337 350.912 Q125.722 352.554 125.722 353.037 Q125.722 353.682 125.078 353.682 Z" fill="#000000" fill-rule="evenodd" fill-opacity="1" /><path clip-path="url(#clip160)" d="M645.05 21.4389 Q645.05 23.1194 643.656 23.1194 Q641.197 23.2014 639.516 23.6933 Q637.835 24.1442 636.852 25.0459 Q635.909 25.9477 635.376 26.9314 Q634.884 27.8742 634.556 29.3088 L627.096 59.108 Q624.965 67.5108 618.079 73.6182 Q611.192 79.6846 603.363 79.6846 Q598.896 79.6846 595.166 77.8401 Q591.477 75.9956 589.181 72.2656 Q586.886 68.5355 586.886 63.5758 Q586.886 61.1985 587.501 58.6981 L592.583 37.9575 L594.469 30.5795 Q595.862 25.1279 595.862 24.636 Q595.862 23.8572 595.371 23.6523 Q594.92 23.4064 593.608 23.2834 L590.411 23.1194 Q589.427 23.1194 589.017 23.0784 Q588.648 23.0374 588.361 22.8325 Q588.074 22.6276 588.074 22.1767 Q588.074 21.6028 588.197 21.2339 Q588.361 20.824 588.648 20.7011 Q588.935 20.5781 589.14 20.5371 Q589.345 20.4961 589.673 20.4961 L600.494 20.7421 L611.233 20.4961 Q612.422 20.4961 612.422 21.4389 Q612.422 22.6276 611.889 22.8735 Q611.356 23.1194 609.553 23.1194 Q606.479 23.1194 605.085 23.5293 Q603.732 23.8982 603.322 24.5541 Q602.954 25.1689 602.503 26.9724 L594.346 59.6409 Q593.936 61.2804 593.69 62.92 Q593.485 64.5186 593.485 65.3384 L593.444 66.1582 Q593.444 71.3638 596.313 74.2331 Q599.223 77.1023 603.691 77.1023 Q610.25 77.1023 616.357 71.8967 Q622.505 66.691 624.596 58.5342 L632.138 28.571 Q632.384 27.8332 632.384 26.8085 Q632.384 25.1689 631.154 24.1851 Q629.965 23.1604 626.686 23.1194 Q625.17 23.1194 625.17 22.1767 Q625.17 21.3979 625.457 21.029 Q625.785 20.6191 626.03 20.5781 Q626.317 20.4961 626.686 20.4961 Q628.08 20.4961 631.031 20.6191 Q633.982 20.7421 635.417 20.7421 Q636.852 20.7421 639.721 20.6191 Q642.59 20.4961 643.984 20.4961 Q644.476 20.4961 644.722 20.7421 Q645.009 20.947 645.05 21.1929 L645.05 21.4389 Z" fill="#000000" fill-rule="evenodd" fill-opacity="1" /><path clip-path="url(#clip160)" d="M666.928 65.0924 Q667.01 64.0677 668.608 64.0677 L720.05 64.0677 Q722.468 64.0677 722.509 65.0105 Q722.509 66.0352 720.214 65.9942 L669.182 65.9942 Q666.928 66.0352 666.928 65.0924 M666.928 48.6967 Q666.928 47.672 668.69 47.713 L719.968 47.713 Q722.468 47.713 722.509 48.6967 Q722.509 49.6395 720.378 49.6395 L668.608 49.6395 Q666.928 49.6395 666.928 48.6967 Z" fill="#000000" fill-rule="evenodd" fill-opacity="1" /><path clip-path="url(#clip160)" d="M754.886 64.3137 Q754.886 61.8133 756.239 60.8706 Q757.591 59.8868 759.026 59.8868 Q760.952 59.8868 762.059 61.1165 Q763.207 62.3052 763.207 63.9857 Q763.207 65.6663 762.059 66.896 Q760.952 68.0847 759.026 68.0847 Q758.083 68.0847 757.591 67.9207 Q758.698 71.7737 762.059 74.561 Q765.461 77.3482 769.929 77.3482 Q775.544 77.3482 778.906 71.8967 Q780.914 68.3716 780.914 60.3787 Q780.914 53.3285 779.397 49.8034 Q777.061 44.4339 772.265 44.4339 Q765.461 44.4339 761.444 50.2953 Q760.952 51.0331 760.378 51.0741 Q759.559 51.0741 759.354 50.6232 Q759.19 50.1314 759.19 48.8607 L759.19 24.0212 Q759.19 22.0127 760.01 22.0127 Q760.337 22.0127 761.034 22.2587 Q766.322 24.595 772.183 24.636 Q778.209 24.636 783.619 22.1767 Q784.029 21.9307 784.275 21.9307 Q785.095 21.9307 785.136 22.8735 Q785.136 23.2014 784.439 24.1851 Q783.783 25.1279 782.349 26.3986 Q780.914 27.6282 779.07 28.8169 Q777.225 30.0056 774.52 30.8254 Q771.855 31.6042 768.904 31.6042 Q765.379 31.6042 761.772 30.4975 L761.772 46.8522 Q766.117 42.5893 772.429 42.5893 Q779.152 42.5893 783.783 47.9999 Q788.415 53.4105 788.415 60.9525 Q788.415 68.8635 782.923 74.274 Q777.471 79.6846 770.093 79.6846 Q763.371 79.6846 759.108 74.8889 Q754.886 70.0931 754.886 64.3137 Z" fill="#000000" fill-rule="evenodd" fill-opacity="1" /><path clip-path="url(#clip160)" d="M797.726 76.4875 Q796.455 75.1348 796.455 73.3723 Q796.455 71.6097 797.726 70.3391 Q798.996 69.0274 800.923 69.0274 Q802.767 69.0274 803.997 70.2571 Q805.268 71.4458 805.268 73.4133 Q805.268 75.3398 803.915 76.6104 Q802.603 77.8401 800.923 77.8401 Q798.996 77.8401 797.726 76.4875 Z" fill="#000000" fill-rule="evenodd" fill-opacity="1" /><path clip-path="url(#clip160)" d="M819.553 50.9921 Q819.553 38.6544 822.668 31.9321 Q827.013 21.9307 837.261 21.9307 Q839.433 21.9307 841.688 22.5456 Q843.983 23.1194 846.852 25.3738 Q849.762 27.6282 851.525 31.3173 Q854.886 38.4494 854.886 50.9921 Q854.886 63.2479 851.771 69.9292 Q847.221 79.6846 837.179 79.6846 Q833.408 79.6846 829.555 77.7581 Q825.743 75.8316 823.324 71.1999 Q819.553 64.2727 819.553 50.9921 M826.521 49.9674 Q826.521 62.6331 827.423 67.6748 Q828.448 73.1263 831.235 75.5037 Q834.064 77.8401 837.179 77.8401 Q840.54 77.8401 843.327 75.3398 Q846.155 72.7984 847.016 67.3469 Q847.959 61.9773 847.918 49.9674 Q847.918 38.2855 847.098 33.6127 Q845.991 28.1611 843.04 25.9887 Q840.13 23.7753 837.179 23.7753 Q836.072 23.7753 834.883 24.1032 Q833.736 24.4311 832.055 25.3738 Q830.374 26.3166 829.063 28.653 Q827.792 30.9894 827.177 34.5144 Q826.521 39.0643 826.521 49.9674 Z" fill="#000000" fill-rule="evenodd" fill-opacity="1" /><path clip-path="url(#clip160)" d="M862.311 76.4875 Q861.122 75.1348 861.122 73.3723 Q861.122 71.6097 862.27 70.2981 Q863.459 68.9454 865.59 68.9454 Q868.09 68.9454 869.525 71.3638 Q870.96 73.7412 870.96 77.7581 Q870.96 82.103 869.197 86.1199 Q867.435 90.1779 865.713 92.1044 Q863.992 94.0309 863.295 94.0309 Q862.475 94.0309 862.475 93.1291 Q862.475 92.8012 863.049 92.1864 Q869.074 85.7101 869.115 77.7581 Q869.115 76.4875 868.951 76.4875 L868.746 76.6514 Q867.312 77.8401 865.59 77.8401 Q863.5 77.8401 862.311 76.4875 Z" fill="#000000" fill-rule="evenodd" fill-opacity="1" /><path clip-path="url(#clip160)" d="M954.547 21.9307 Q954.547 22.7095 954.383 23.3654 L952.087 37.9575 Q951.964 39.0643 951.718 39.4742 Q951.513 39.884 950.858 39.884 Q949.833 39.884 949.833 38.8183 Q949.833 38.2035 950.079 37.2197 Q950.776 32.588 950.776 30.4975 Q950.776 29.1039 950.489 28.0791 Q950.243 27.0134 949.833 26.2756 Q949.464 25.5378 948.603 25.0459 Q947.742 24.5541 946.923 24.2671 Q946.103 23.9802 944.627 23.8572 Q943.152 23.6933 941.881 23.6523 Q940.61 23.6113 938.52 23.6113 Q933.97 23.6113 933.232 23.7753 Q932.453 23.9802 932.043 24.595 Q931.675 25.1689 931.265 26.8904 L920.116 71.4458 L919.788 73.2083 Q919.788 74.1921 920.402 74.52 Q921.017 74.8479 922.903 75.0528 Q925.608 75.2578 928.272 75.2578 Q928.354 75.2578 928.518 75.2578 Q929.42 75.2578 929.789 75.2988 Q930.158 75.2988 930.527 75.3808 Q930.896 75.4627 930.978 75.6677 Q931.101 75.8316 931.101 76.1596 Q931.101 76.9384 930.773 77.3482 Q930.445 77.7171 930.117 77.7991 Q929.83 77.8401 929.256 77.8401 Q928.108 77.8401 925.649 77.7581 Q923.19 77.6762 921.96 77.6762 L914.992 77.5942 L907.86 77.6762 Q906.753 77.6762 904.417 77.7581 Q902.08 77.8401 900.974 77.8401 Q899.539 77.8401 899.539 76.8154 Q899.539 75.6677 900.072 75.4627 Q900.646 75.2578 903.064 75.2578 Q906.466 75.2578 908.311 75.0938 Q910.155 74.9299 911.139 74.356 Q912.164 73.7822 912.451 73.2083 Q912.737 72.5935 913.065 71.1999 L924.337 26.3986 Q924.665 25.4148 924.665 24.636 Q924.665 24.2261 924.542 24.0622 Q924.46 23.8982 923.928 23.7753 Q923.395 23.6113 922.288 23.6113 L919.009 23.6113 Q915.648 23.6113 913.557 23.7753 Q911.508 23.8982 909.54 24.5131 Q907.614 25.1279 906.466 25.9887 Q905.359 26.8495 904.13 28.612 Q902.9 30.3745 901.998 32.506 Q901.138 34.6374 899.908 38.1215 Q899.498 39.2692 899.252 39.5971 Q899.047 39.884 898.473 39.884 Q898.063 39.884 897.735 39.6381 Q897.448 39.3512 897.448 38.9823 Q897.858 37.6296 897.94 37.4657 L902.982 22.6685 Q903.392 21.4799 903.761 21.2749 Q904.171 21.029 905.687 21.029 L952.251 21.029 Q952.989 21.029 953.235 21.029 Q953.481 21.029 953.891 21.111 Q954.301 21.1929 954.424 21.3979 Q954.547 21.6028 954.547 21.9307 Z" fill="#000000" fill-rule="evenodd" fill-opacity="1" /><path clip-path="url(#clip160)" d="M969.29 65.0924 Q969.372 64.0677 970.971 64.0677 L1022.41 64.0677 Q1024.83 64.0677 1024.87 65.0105 Q1024.87 66.0352 1022.58 65.9942 L971.545 65.9942 Q969.29 66.0352 969.29 65.0924 M969.29 48.6967 Q969.29 47.672 971.053 47.713 L1022.33 47.713 Q1024.83 47.713 1024.87 48.6967 Q1024.87 49.6395 1022.74 49.6395 L970.971 49.6395 Q969.29 49.6395 969.29 48.6967 Z" fill="#000000" fill-rule="evenodd" fill-opacity="1" /><path clip-path="url(#clip160)" d="M1057.25 50.9921 Q1057.25 38.6544 1060.36 31.9321 Q1064.71 21.9307 1074.96 21.9307 Q1077.13 21.9307 1079.38 22.5456 Q1081.68 23.1194 1084.55 25.3738 Q1087.46 27.6282 1089.22 31.3173 Q1092.58 38.4494 1092.58 50.9921 Q1092.58 63.2479 1089.47 69.9292 Q1084.92 79.6846 1074.87 79.6846 Q1071.1 79.6846 1067.25 77.7581 Q1063.44 75.8316 1061.02 71.1999 Q1057.25 64.2727 1057.25 50.9921 M1064.22 49.9674 Q1064.22 62.6331 1065.12 67.6748 Q1066.14 73.1263 1068.93 75.5037 Q1071.76 77.8401 1074.87 77.8401 Q1078.24 77.8401 1081.02 75.3398 Q1083.85 72.7984 1084.71 67.3469 Q1085.65 61.9773 1085.61 49.9674 Q1085.61 38.2855 1084.79 33.6127 Q1083.69 28.1611 1080.74 25.9887 Q1077.83 23.7753 1074.87 23.7753 Q1073.77 23.7753 1072.58 24.1032 Q1071.43 24.4311 1069.75 25.3738 Q1068.07 26.3166 1066.76 28.653 Q1065.49 30.9894 1064.87 34.5144 Q1064.22 39.0643 1064.22 49.9674 Z" fill="#000000" fill-rule="evenodd" fill-opacity="1" /><path clip-path="url(#clip160)" d="M1100.09 76.4875 Q1098.82 75.1348 1098.82 73.3723 Q1098.82 71.6097 1100.09 70.3391 Q1101.36 69.0274 1103.29 69.0274 Q1105.13 69.0274 1106.36 70.2571 Q1107.63 71.4458 1107.63 73.4133 Q1107.63 75.3398 1106.28 76.6104 Q1104.97 77.8401 1103.29 77.8401 Q1101.36 77.8401 1100.09 76.4875 Z" fill="#000000" fill-rule="evenodd" fill-opacity="1" /><path clip-path="url(#clip160)" d="M1121.92 50.9921 Q1121.92 38.6544 1125.03 31.9321 Q1129.38 21.9307 1139.62 21.9307 Q1141.8 21.9307 1144.05 22.5456 Q1146.35 23.1194 1149.21 25.3738 Q1152.13 27.6282 1153.89 31.3173 Q1157.25 38.4494 1157.25 50.9921 Q1157.25 63.2479 1154.13 69.9292 Q1149.58 79.6846 1139.54 79.6846 Q1135.77 79.6846 1131.92 77.7581 Q1128.11 75.8316 1125.69 71.1999 Q1121.92 64.2727 1121.92 50.9921 M1128.88 49.9674 Q1128.88 62.6331 1129.79 67.6748 Q1130.81 73.1263 1133.6 75.5037 Q1136.43 77.8401 1139.54 77.8401 Q1142.9 77.8401 1145.69 75.3398 Q1148.52 72.7984 1149.38 67.3469 Q1150.32 61.9773 1150.28 49.9674 Q1150.28 38.2855 1149.46 33.6127 Q1148.35 28.1611 1145.4 25.9887 Q1142.49 23.7753 1139.54 23.7753 Q1138.43 23.7753 1137.25 24.1032 Q1136.1 24.4311 1134.42 25.3738 Q1132.74 26.3166 1131.43 28.653 Q1130.15 30.9894 1129.54 34.5144 Q1128.88 39.0643 1128.88 49.9674 Z" fill="#000000" fill-rule="evenodd" fill-opacity="1" /><path clip-path="url(#clip160)" d="M1163.82 64.3137 Q1163.82 61.8133 1165.17 60.8706 Q1166.53 59.8868 1167.96 59.8868 Q1169.89 59.8868 1170.99 61.1165 Q1172.14 62.3052 1172.14 63.9857 Q1172.14 65.6663 1170.99 66.896 Q1169.89 68.0847 1167.96 68.0847 Q1167.02 68.0847 1166.53 67.9207 Q1167.63 71.7737 1170.99 74.561 Q1174.4 77.3482 1178.86 77.3482 Q1184.48 77.3482 1187.84 71.8967 Q1189.85 68.3716 1189.85 60.3787 Q1189.85 53.3285 1188.33 49.8034 Q1186 44.4339 1181.2 44.4339 Q1174.4 44.4339 1170.38 50.2953 Q1169.89 51.0331 1169.31 51.0741 Q1168.49 51.0741 1168.29 50.6232 Q1168.12 50.1314 1168.12 48.8607 L1168.12 24.0212 Q1168.12 22.0127 1168.94 22.0127 Q1169.27 22.0127 1169.97 22.2587 Q1175.26 24.595 1181.12 24.636 Q1187.14 24.636 1192.55 22.1767 Q1192.96 21.9307 1193.21 21.9307 Q1194.03 21.9307 1194.07 22.8735 Q1194.07 23.2014 1193.37 24.1851 Q1192.72 25.1279 1191.28 26.3986 Q1189.85 27.6282 1188 28.8169 Q1186.16 30.0056 1183.45 30.8254 Q1180.79 31.6042 1177.84 31.6042 Q1174.31 31.6042 1170.71 30.4975 L1170.71 46.8522 Q1175.05 42.5893 1181.36 42.5893 Q1188.09 42.5893 1192.72 47.9999 Q1197.35 53.4105 1197.35 60.9525 Q1197.35 68.8635 1191.86 74.274 Q1186.41 79.6846 1179.03 79.6846 Q1172.31 79.6846 1168.04 74.8889 Q1163.82 70.0931 1163.82 64.3137 Z" fill="#000000" fill-rule="evenodd" fill-opacity="1" /><polyline clip-path="url(#clip163)" style="stroke:#009af9; stroke-linecap:butt; stroke-linejoin:round; stroke-width:4; stroke-opacity:1; fill:none" points="
  276.687,453.142 307.96,452.952 743.38,442.251 817.955,428.576 846.822,412.48 862.86,392.191 872.482,368.258 878.897,340.114 883.709,305.161 886.916,269.438 
  889.322,232.417 890.926,202.705 891.728,187.782 892.529,175.446 893.331,170.863 894.133,184.971 894.935,238.528 895.737,360.591 896.539,552.836 897.341,674.899 
  898.143,728.457 898.944,742.564 899.746,737.981 900.548,725.645 901.35,710.722 902.954,681.01 905.359,643.989 908.567,608.266 913.378,573.313 919.793,545.17 
  929.416,521.236 945.453,500.947 974.321,484.851 1048.9,471.176 1484.32,460.475 1515.59,460.285 
  "/>
<circle clip-path="url(#clip163)" cx="276.687" cy="453.142" r="14" fill="#009af9" fill-rule="evenodd" fill-opacity="1" stroke="#000000" stroke-opacity="1" stroke-width="3.2"/>
<circle clip-path="url(#clip163)" cx="307.96" cy="452.952" r="14" fill="#009af9" fill-rule="evenodd" fill-opacity="1" stroke="#000000" stroke-opacity="1" stroke-width="3.2"/>
<circle clip-path="url(#clip163)" cx="743.38" cy="442.251" r="14" fill="#009af9" fill-rule="evenodd" fill-opacity="1" stroke="#000000" stroke-opacity="1" stroke-width="3.2"/>
<circle clip-path="url(#clip163)" cx="817.955" cy="428.576" r="14" fill="#009af9" fill-rule="evenodd" fill-opacity="1" stroke="#000000" stroke-opacity="1" stroke-width="3.2"/>
<circle clip-path="url(#clip163)" cx="846.822" cy="412.48" r="14" fill="#009af9" fill-rule="evenodd" fill-opacity="1" stroke="#000000" stroke-opacity="1" stroke-width="3.2"/>
<circle clip-path="url(#clip163)" cx="862.86" cy="392.191" r="14" fill="#009af9" fill-rule="evenodd" fill-opacity="1" stroke="#000000" stroke-opacity="1" stroke-width="3.2"/>
<circle clip-path="url(#clip163)" cx="872.482" cy="368.258" r="14" fill="#009af9" fill-rule="evenodd" fill-opacity="1" stroke="#000000" stroke-opacity="1" stroke-width="3.2"/>
<circle clip-path="url(#clip163)" cx="878.897" cy="340.114" r="14" fill="#009af9" fill-rule="evenodd" fill-opacity="1" stroke="#000000" stroke-opacity="1" stroke-width="3.2"/>
<circle clip-path="url(#clip163)" cx="883.709" cy="305.161" r="14" fill="#009af9" fill-rule="evenodd" fill-opacity="1" stroke="#000000" stroke-opacity="1" stroke-width="3.2"/>
<circle clip-path="url(#clip163)" cx="886.916" cy="269.438" r="14" fill="#009af9" fill-rule="evenodd" fill-opacity="1" stroke="#000000" stroke-opacity="1" stroke-width="3.2"/>
<circle clip-path="url(#clip163)" cx="889.322" cy="232.417" r="14" fill="#009af9" fill-rule="evenodd" fill-opacity="1" stroke="#000000" stroke-opacity="1" stroke-width="3.2"/>
<circle clip-path="url(#clip163)" cx="890.926" cy="202.705" r="14" fill="#009af9" fill-rule="evenodd" fill-opacity="1" stroke="#000000" stroke-opacity="1" stroke-width="3.2"/>
<circle clip-path="url(#clip163)" cx="891.728" cy="187.782" r="14" fill="#009af9" fill-rule="evenodd" fill-opacity="1" stroke="#000000" stroke-opacity="1" stroke-width="3.2"/>
<circle clip-path="url(#clip163)" cx="892.529" cy="175.446" r="14" fill="#009af9" fill-rule="evenodd" fill-opacity="1" stroke="#000000" stroke-opacity="1" stroke-width="3.2"/>
<circle clip-path="url(#clip163)" cx="893.331" cy="170.863" r="14" fill="#009af9" fill-rule="evenodd" fill-opacity="1" stroke="#000000" stroke-opacity="1" stroke-width="3.2"/>
<circle clip-path="url(#clip163)" cx="894.133" cy="184.971" r="14" fill="#009af9" fill-rule="evenodd" fill-opacity="1" stroke="#000000" stroke-opacity="1" stroke-width="3.2"/>
<circle clip-path="url(#clip163)" cx="894.935" cy="238.528" r="14" fill="#009af9" fill-rule="evenodd" fill-opacity="1" stroke="#000000" stroke-opacity="1" stroke-width="3.2"/>
<circle clip-path="url(#clip163)" cx="895.737" cy="360.591" r="14" fill="#009af9" fill-rule="evenodd" fill-opacity="1" stroke="#000000" stroke-opacity="1" stroke-width="3.2"/>
<circle clip-path="url(#clip163)" cx="896.539" cy="552.836" r="14" fill="#009af9" fill-rule="evenodd" fill-opacity="1" stroke="#000000" stroke-opacity="1" stroke-width="3.2"/>
<circle clip-path="url(#clip163)" cx="897.341" cy="674.899" r="14" fill="#009af9" fill-rule="evenodd" fill-opacity="1" stroke="#000000" stroke-opacity="1" stroke-width="3.2"/>
<circle clip-path="url(#clip163)" cx="898.143" cy="728.457" r="14" fill="#009af9" fill-rule="evenodd" fill-opacity="1" stroke="#000000" stroke-opacity="1" stroke-width="3.2"/>
<circle clip-path="url(#clip163)" cx="898.944" cy="742.564" r="14" fill="#009af9" fill-rule="evenodd" fill-opacity="1" stroke="#000000" stroke-opacity="1" stroke-width="3.2"/>
<circle clip-path="url(#clip163)" cx="899.746" cy="737.981" r="14" fill="#009af9" fill-rule="evenodd" fill-opacity="1" stroke="#000000" stroke-opacity="1" stroke-width="3.2"/>
<circle clip-path="url(#clip163)" cx="900.548" cy="725.645" r="14" fill="#009af9" fill-rule="evenodd" fill-opacity="1" stroke="#000000" stroke-opacity="1" stroke-width="3.2"/>
<circle clip-path="url(#clip163)" cx="901.35" cy="710.722" r="14" fill="#009af9" fill-rule="evenodd" fill-opacity="1" stroke="#000000" stroke-opacity="1" stroke-width="3.2"/>
<circle clip-path="url(#clip163)" cx="902.954" cy="681.01" r="14" fill="#009af9" fill-rule="evenodd" fill-opacity="1" stroke="#000000" stroke-opacity="1" stroke-width="3.2"/>
<circle clip-path="url(#clip163)" cx="905.359" cy="643.989" r="14" fill="#009af9" fill-rule="evenodd" fill-opacity="1" stroke="#000000" stroke-opacity="1" stroke-width="3.2"/>
<circle clip-path="url(#clip163)" cx="908.567" cy="608.266" r="14" fill="#009af9" fill-rule="evenodd" fill-opacity="1" stroke="#000000" stroke-opacity="1" stroke-width="3.2"/>
<circle clip-path="url(#clip163)" cx="913.378" cy="573.313" r="14" fill="#009af9" fill-rule="evenodd" fill-opacity="1" stroke="#000000" stroke-opacity="1" stroke-width="3.2"/>
<circle clip-path="url(#clip163)" cx="919.793" cy="545.17" r="14" fill="#009af9" fill-rule="evenodd" fill-opacity="1" stroke="#000000" stroke-opacity="1" stroke-width="3.2"/>
<circle clip-path="url(#clip163)" cx="929.416" cy="521.236" r="14" fill="#009af9" fill-rule="evenodd" fill-opacity="1" stroke="#000000" stroke-opacity="1" stroke-width="3.2"/>
<circle clip-path="url(#clip163)" cx="945.453" cy="500.947" r="14" fill="#009af9" fill-rule="evenodd" fill-opacity="1" stroke="#000000" stroke-opacity="1" stroke-width="3.2"/>
<circle clip-path="url(#clip163)" cx="974.321" cy="484.851" r="14" fill="#009af9" fill-rule="evenodd" fill-opacity="1" stroke="#000000" stroke-opacity="1" stroke-width="3.2"/>
<circle clip-path="url(#clip163)" cx="1048.9" cy="471.176" r="14" fill="#009af9" fill-rule="evenodd" fill-opacity="1" stroke="#000000" stroke-opacity="1" stroke-width="3.2"/>
<circle clip-path="url(#clip163)" cx="1484.32" cy="460.475" r="14" fill="#009af9" fill-rule="evenodd" fill-opacity="1" stroke="#000000" stroke-opacity="1" stroke-width="3.2"/>
<circle clip-path="url(#clip163)" cx="1515.59" cy="460.285" r="14" fill="#009af9" fill-rule="evenodd" fill-opacity="1" stroke="#000000" stroke-opacity="1" stroke-width="3.2"/>
<path clip-path="url(#clip160)" d="
M239.52 1759.72 L1552.76 1759.72 L1552.76 1153.71 L239.52 1153.71  Z
  " fill="#ffffff" fill-rule="evenodd" fill-opacity="1"/>
<defs>
  <clipPath id="clip164">
    <rect x="239" y="1153" width="1314" height="607"/>
  </clipPath>
</defs>
<polyline clip-path="url(#clip164)" style="stroke:#000000; stroke-linecap:butt; stroke-linejoin:round; stroke-width:2; stroke-opacity:0.1; fill:none" points="
  258.023,1759.72 258.023,1153.71 
  "/>
<polyline clip-path="url(#clip164)" style="stroke:#000000; stroke-linecap:butt; stroke-linejoin:round; stroke-width:2; stroke-opacity:0.1; fill:none" points="
  577.081,1759.72 577.081,1153.71 
  "/>
<polyline clip-path="url(#clip164)" style="stroke:#000000; stroke-linecap:butt; stroke-linejoin:round; stroke-width:2; stroke-opacity:0.1; fill:none" points="
  896.138,1759.72 896.138,1153.71 
  "/>
<polyline clip-path="url(#clip164)" style="stroke:#000000; stroke-linecap:butt; stroke-linejoin:round; stroke-width:2; stroke-opacity:0.1; fill:none" points="
  1215.2,1759.72 1215.2,1153.71 
  "/>
<polyline clip-path="url(#clip164)" style="stroke:#000000; stroke-linecap:butt; stroke-linejoin:round; stroke-width:2; stroke-opacity:0.1; fill:none" points="
  1534.25,1759.72 1534.25,1153.71 
  "/>
<polyline clip-path="url(#clip160)" style="stroke:#000000; stroke-linecap:butt; stroke-linejoin:round; stroke-width:4; stroke-opacity:1; fill:none" points="
  239.52,1759.72 1552.76,1759.72 
  "/>
<polyline clip-path="url(#clip160)" style="stroke:#000000; stroke-linecap:butt; stroke-linejoin:round; stroke-width:4; stroke-opacity:1; fill:none" points="
  258.023,1759.72 258.023,1740.82 
  "/>
<polyline clip-path="url(#clip160)" style="stroke:#000000; stroke-linecap:butt; stroke-linejoin:round; stroke-width:4; stroke-opacity:1; fill:none" points="
  577.081,1759.72 577.081,1740.82 
  "/>
<polyline clip-path="url(#clip160)" style="stroke:#000000; stroke-linecap:butt; stroke-linejoin:round; stroke-width:4; stroke-opacity:1; fill:none" points="
  896.138,1759.72 896.138,1740.82 
  "/>
<polyline clip-path="url(#clip160)" style="stroke:#000000; stroke-linecap:butt; stroke-linejoin:round; stroke-width:4; stroke-opacity:1; fill:none" points="
  1215.2,1759.72 1215.2,1740.82 
  "/>
<polyline clip-path="url(#clip160)" style="stroke:#000000; stroke-linecap:butt; stroke-linejoin:round; stroke-width:4; stroke-opacity:1; fill:none" points="
  1534.25,1759.72 1534.25,1740.82 
  "/>
<path clip-path="url(#clip160)" d="M145.444 1817.75 L175.12 1817.75 L175.12 1821.68 L145.444 1821.68 L145.444 1817.75 Z" fill="#000000" fill-rule="evenodd" fill-opacity="1" /><path clip-path="url(#clip160)" d="M186.023 1830.64 L193.662 1830.64 L193.662 1804.27 L185.352 1805.94 L185.352 1801.68 L193.615 1800.02 L198.291 1800.02 L198.291 1830.64 L205.93 1830.64 L205.93 1834.58 L186.023 1834.58 L186.023 1830.64 Z" fill="#000000" fill-rule="evenodd" fill-opacity="1" /><path clip-path="url(#clip160)" d="M215.375 1828.7 L220.259 1828.7 L220.259 1834.58 L215.375 1834.58 L215.375 1828.7 Z" fill="#000000" fill-rule="evenodd" fill-opacity="1" /><path clip-path="url(#clip160)" d="M240.444 1803.09 Q236.833 1803.09 235.004 1806.66 Q233.199 1810.2 233.199 1817.33 Q233.199 1824.44 235.004 1828 Q236.833 1831.54 240.444 1831.54 Q244.078 1831.54 245.884 1828 Q247.712 1824.44 247.712 1817.33 Q247.712 1810.2 245.884 1806.66 Q244.078 1803.09 240.444 1803.09 M240.444 1799.39 Q246.254 1799.39 249.31 1804 Q252.388 1808.58 252.388 1817.33 Q252.388 1826.06 249.31 1830.66 Q246.254 1835.25 240.444 1835.25 Q234.634 1835.25 231.555 1830.66 Q228.499 1826.06 228.499 1817.33 Q228.499 1808.58 231.555 1804 Q234.634 1799.39 240.444 1799.39 Z" fill="#000000" fill-rule="evenodd" fill-opacity="1" /><path clip-path="url(#clip160)" d="M288.777 1809.11 L278.198 1819.74 L288.777 1830.32 L286.022 1833.12 L275.397 1822.49 L264.772 1833.12 L262.041 1830.32 L272.596 1819.74 L262.041 1809.11 L264.772 1806.31 L275.397 1816.94 L286.022 1806.31 L288.777 1809.11 Z" fill="#000000" fill-rule="evenodd" fill-opacity="1" /><path clip-path="url(#clip160)" d="M301.138 1830.64 L308.777 1830.64 L308.777 1804.27 L300.467 1805.94 L300.467 1801.68 L308.731 1800.02 L313.406 1800.02 L313.406 1830.64 L321.045 1830.64 L321.045 1834.58 L301.138 1834.58 L301.138 1830.64 Z" fill="#000000" fill-rule="evenodd" fill-opacity="1" /><path clip-path="url(#clip160)" d="M340.49 1803.09 Q336.879 1803.09 335.05 1806.66 Q333.244 1810.2 333.244 1817.33 Q333.244 1824.44 335.05 1828 Q336.879 1831.54 340.49 1831.54 Q344.124 1831.54 345.929 1828 Q347.758 1824.44 347.758 1817.33 Q347.758 1810.2 345.929 1806.66 Q344.124 1803.09 340.49 1803.09 M340.49 1799.39 Q346.3 1799.39 349.355 1804 Q352.434 1808.58 352.434 1817.33 Q352.434 1826.06 349.355 1830.66 Q346.3 1835.25 340.49 1835.25 Q334.679 1835.25 331.601 1830.66 Q328.545 1826.06 328.545 1817.33 Q328.545 1808.58 331.601 1804 Q334.679 1799.39 340.49 1799.39 Z" fill="#000000" fill-rule="evenodd" fill-opacity="1" /><path clip-path="url(#clip160)" d="M353.619 1779.08 L368.533 1779.08 L368.533 1782.28 L357.098 1782.28 L357.098 1789.17 Q357.926 1788.88 358.753 1788.75 Q359.581 1788.6 360.408 1788.6 Q365.11 1788.6 367.856 1791.18 Q370.602 1793.75 370.602 1798.16 Q370.602 1802.69 367.781 1805.21 Q364.96 1807.71 359.825 1807.71 Q358.058 1807.71 356.214 1807.41 Q354.39 1807.11 352.434 1806.51 L352.434 1802.69 Q354.127 1803.61 355.932 1804.06 Q357.738 1804.51 359.75 1804.51 Q363.004 1804.51 364.904 1802.8 Q366.803 1801.09 366.803 1798.16 Q366.803 1795.22 364.904 1793.51 Q363.004 1791.8 359.75 1791.8 Q358.227 1791.8 356.703 1792.14 Q355.199 1792.48 353.619 1793.19 L353.619 1779.08 Z" fill="#000000" fill-rule="evenodd" fill-opacity="1" /><path clip-path="url(#clip160)" d="M463.354 1817.75 L493.03 1817.75 L493.03 1821.68 L463.354 1821.68 L463.354 1817.75 Z" fill="#000000" fill-rule="evenodd" fill-opacity="1" /><path clip-path="url(#clip160)" d="M503.169 1800.02 L521.525 1800.02 L521.525 1803.95 L507.451 1803.95 L507.451 1812.42 Q508.47 1812.08 509.488 1811.91 Q510.507 1811.73 511.525 1811.73 Q517.312 1811.73 520.692 1814.9 Q524.072 1818.07 524.072 1823.49 Q524.072 1829.07 520.599 1832.17 Q517.127 1835.25 510.808 1835.25 Q508.632 1835.25 506.363 1834.88 Q504.118 1834.51 501.711 1833.76 L501.711 1829.07 Q503.794 1830.2 506.016 1830.76 Q508.238 1831.31 510.715 1831.31 Q514.72 1831.31 517.058 1829.2 Q519.396 1827.1 519.396 1823.49 Q519.396 1819.88 517.058 1817.77 Q514.72 1815.66 510.715 1815.66 Q508.84 1815.66 506.965 1816.08 Q505.113 1816.5 503.169 1817.38 L503.169 1800.02 Z" fill="#000000" fill-rule="evenodd" fill-opacity="1" /><path clip-path="url(#clip160)" d="M533.285 1828.7 L538.169 1828.7 L538.169 1834.58 L533.285 1834.58 L533.285 1828.7 Z" fill="#000000" fill-rule="evenodd" fill-opacity="1" /><path clip-path="url(#clip160)" d="M558.354 1803.09 Q554.743 1803.09 552.914 1806.66 Q551.109 1810.2 551.109 1817.33 Q551.109 1824.44 552.914 1828 Q554.743 1831.54 558.354 1831.54 Q561.988 1831.54 563.794 1828 Q565.622 1824.44 565.622 1817.33 Q565.622 1810.2 563.794 1806.66 Q561.988 1803.09 558.354 1803.09 M558.354 1799.39 Q564.164 1799.39 567.22 1804 Q570.298 1808.58 570.298 1817.33 Q570.298 1826.06 567.22 1830.66 Q564.164 1835.25 558.354 1835.25 Q552.544 1835.25 549.465 1830.66 Q546.409 1826.06 546.409 1817.33 Q546.409 1808.58 549.465 1804 Q552.544 1799.39 558.354 1799.39 Z" fill="#000000" fill-rule="evenodd" fill-opacity="1" /><path clip-path="url(#clip160)" d="M606.687 1809.11 L596.108 1819.74 L606.687 1830.32 L603.932 1833.12 L593.307 1822.49 L582.682 1833.12 L579.951 1830.32 L590.506 1819.74 L579.951 1809.11 L582.682 1806.31 L593.307 1816.94 L603.932 1806.31 L606.687 1809.11 Z" fill="#000000" fill-rule="evenodd" fill-opacity="1" /><path clip-path="url(#clip160)" d="M619.048 1830.64 L626.687 1830.64 L626.687 1804.27 L618.377 1805.94 L618.377 1801.68 L626.641 1800.02 L631.316 1800.02 L631.316 1830.64 L638.955 1830.64 L638.955 1834.58 L619.048 1834.58 L619.048 1830.64 Z" fill="#000000" fill-rule="evenodd" fill-opacity="1" /><path clip-path="url(#clip160)" d="M658.4 1803.09 Q654.789 1803.09 652.96 1806.66 Q651.154 1810.2 651.154 1817.33 Q651.154 1824.44 652.96 1828 Q654.789 1831.54 658.4 1831.54 Q662.034 1831.54 663.839 1828 Q665.668 1824.44 665.668 1817.33 Q665.668 1810.2 663.839 1806.66 Q662.034 1803.09 658.4 1803.09 M658.4 1799.39 Q664.21 1799.39 667.265 1804 Q670.344 1808.58 670.344 1817.33 Q670.344 1826.06 667.265 1830.66 Q664.21 1835.25 658.4 1835.25 Q652.589 1835.25 649.511 1830.66 Q646.455 1826.06 646.455 1817.33 Q646.455 1808.58 649.511 1804 Q652.589 1799.39 658.4 1799.39 Z" fill="#000000" fill-rule="evenodd" fill-opacity="1" /><path clip-path="url(#clip160)" d="M683.02 1782.39 L673.428 1797.38 L683.02 1797.38 L683.02 1782.39 M682.024 1779.08 L686.801 1779.08 L686.801 1797.38 L690.807 1797.38 L690.807 1800.54 L686.801 1800.54 L686.801 1807.16 L683.02 1807.16 L683.02 1800.54 L670.344 1800.54 L670.344 1796.88 L682.024 1779.08 Z" fill="#000000" fill-rule="evenodd" fill-opacity="1" /><path clip-path="url(#clip160)" d="M896.138 1787.43 Q892.527 1787.43 890.698 1791 Q888.893 1794.54 888.893 1801.67 Q888.893 1808.78 890.698 1812.34 Q892.527 1815.88 896.138 1815.88 Q899.772 1815.88 901.578 1812.34 Q903.406 1808.78 903.406 1801.67 Q903.406 1794.54 901.578 1791 Q899.772 1787.43 896.138 1787.43 M896.138 1783.73 Q901.948 1783.73 905.004 1788.34 Q908.082 1792.92 908.082 1801.67 Q908.082 1810.4 905.004 1815 Q901.948 1819.59 896.138 1819.59 Q890.328 1819.59 887.249 1815 Q884.193 1810.4 884.193 1801.67 Q884.193 1792.92 887.249 1788.34 Q890.328 1783.73 896.138 1783.73 Z" fill="#000000" fill-rule="evenodd" fill-opacity="1" /><path clip-path="url(#clip160)" d="M1122.11 1800.02 L1140.46 1800.02 L1140.46 1803.95 L1126.39 1803.95 L1126.39 1812.42 Q1127.41 1812.08 1128.42 1811.91 Q1129.44 1811.73 1130.46 1811.73 Q1136.25 1811.73 1139.63 1814.9 Q1143.01 1818.07 1143.01 1823.49 Q1143.01 1829.07 1139.54 1832.17 Q1136.06 1835.25 1129.74 1835.25 Q1127.57 1835.25 1125.3 1834.88 Q1123.05 1834.51 1120.65 1833.76 L1120.65 1829.07 Q1122.73 1830.2 1124.95 1830.76 Q1127.17 1831.31 1129.65 1831.31 Q1133.66 1831.31 1135.99 1829.2 Q1138.33 1827.1 1138.33 1823.49 Q1138.33 1819.88 1135.99 1817.77 Q1133.66 1815.66 1129.65 1815.66 Q1127.78 1815.66 1125.9 1816.08 Q1124.05 1816.5 1122.11 1817.38 L1122.11 1800.02 Z" fill="#000000" fill-rule="evenodd" fill-opacity="1" /><path clip-path="url(#clip160)" d="M1152.22 1828.7 L1157.11 1828.7 L1157.11 1834.58 L1152.22 1834.58 L1152.22 1828.7 Z" fill="#000000" fill-rule="evenodd" fill-opacity="1" /><path clip-path="url(#clip160)" d="M1177.29 1803.09 Q1173.68 1803.09 1171.85 1806.66 Q1170.04 1810.2 1170.04 1817.33 Q1170.04 1824.44 1171.85 1828 Q1173.68 1831.54 1177.29 1831.54 Q1180.92 1831.54 1182.73 1828 Q1184.56 1824.44 1184.56 1817.33 Q1184.56 1810.2 1182.73 1806.66 Q1180.92 1803.09 1177.29 1803.09 M1177.29 1799.39 Q1183.1 1799.39 1186.16 1804 Q1189.23 1808.58 1189.23 1817.33 Q1189.23 1826.06 1186.16 1830.66 Q1183.1 1835.25 1177.29 1835.25 Q1171.48 1835.25 1168.4 1830.66 Q1165.35 1826.06 1165.35 1817.33 Q1165.35 1808.58 1168.4 1804 Q1171.48 1799.39 1177.29 1799.39 Z" fill="#000000" fill-rule="evenodd" fill-opacity="1" /><path clip-path="url(#clip160)" d="M1225.62 1809.11 L1215.04 1819.74 L1225.62 1830.32 L1222.87 1833.12 L1212.24 1822.49 L1201.62 1833.12 L1198.89 1830.32 L1209.44 1819.74 L1198.89 1809.11 L1201.62 1806.31 L1212.24 1816.94 L1222.87 1806.31 L1225.62 1809.11 Z" fill="#000000" fill-rule="evenodd" fill-opacity="1" /><path clip-path="url(#clip160)" d="M1237.98 1830.64 L1245.62 1830.64 L1245.62 1804.27 L1237.31 1805.94 L1237.31 1801.68 L1245.58 1800.02 L1250.25 1800.02 L1250.25 1830.64 L1257.89 1830.64 L1257.89 1834.58 L1237.98 1834.58 L1237.98 1830.64 Z" fill="#000000" fill-rule="evenodd" fill-opacity="1" /><path clip-path="url(#clip160)" d="M1277.34 1803.09 Q1273.72 1803.09 1271.9 1806.66 Q1270.09 1810.2 1270.09 1817.33 Q1270.09 1824.44 1271.9 1828 Q1273.72 1831.54 1277.34 1831.54 Q1280.97 1831.54 1282.78 1828 Q1284.6 1824.44 1284.6 1817.33 Q1284.6 1810.2 1282.78 1806.66 Q1280.97 1803.09 1277.34 1803.09 M1277.34 1799.39 Q1283.15 1799.39 1286.2 1804 Q1289.28 1808.58 1289.28 1817.33 Q1289.28 1826.06 1286.2 1830.66 Q1283.15 1835.25 1277.34 1835.25 Q1271.53 1835.25 1268.45 1830.66 Q1265.39 1826.06 1265.39 1817.33 Q1265.39 1808.58 1268.45 1804 Q1271.53 1799.39 1277.34 1799.39 Z" fill="#000000" fill-rule="evenodd" fill-opacity="1" /><path clip-path="url(#clip160)" d="M1301.96 1782.39 L1292.36 1797.38 L1301.96 1797.38 L1301.96 1782.39 M1300.96 1779.08 L1305.74 1779.08 L1305.74 1797.38 L1309.74 1797.38 L1309.74 1800.54 L1305.74 1800.54 L1305.74 1807.16 L1301.96 1807.16 L1301.96 1800.54 L1289.28 1800.54 L1289.28 1796.88 L1300.96 1779.08 Z" fill="#000000" fill-rule="evenodd" fill-opacity="1" /><path clip-path="url(#clip160)" d="M1442.3 1830.64 L1449.94 1830.64 L1449.94 1804.27 L1441.63 1805.94 L1441.63 1801.68 L1449.89 1800.02 L1454.57 1800.02 L1454.57 1830.64 L1462.21 1830.64 L1462.21 1834.58 L1442.3 1834.58 L1442.3 1830.64 Z" fill="#000000" fill-rule="evenodd" fill-opacity="1" /><path clip-path="url(#clip160)" d="M1471.65 1828.7 L1476.53 1828.7 L1476.53 1834.58 L1471.65 1834.58 L1471.65 1828.7 Z" fill="#000000" fill-rule="evenodd" fill-opacity="1" /><path clip-path="url(#clip160)" d="M1496.72 1803.09 Q1493.11 1803.09 1491.28 1806.66 Q1489.47 1810.2 1489.47 1817.33 Q1489.47 1824.44 1491.28 1828 Q1493.11 1831.54 1496.72 1831.54 Q1500.35 1831.54 1502.16 1828 Q1503.99 1824.44 1503.99 1817.33 Q1503.99 1810.2 1502.16 1806.66 Q1500.35 1803.09 1496.72 1803.09 M1496.72 1799.39 Q1502.53 1799.39 1505.58 1804 Q1508.66 1808.58 1508.66 1817.33 Q1508.66 1826.06 1505.58 1830.66 Q1502.53 1835.25 1496.72 1835.25 Q1490.91 1835.25 1487.83 1830.66 Q1484.77 1826.06 1484.77 1817.33 Q1484.77 1808.58 1487.83 1804 Q1490.91 1799.39 1496.72 1799.39 Z" fill="#000000" fill-rule="evenodd" fill-opacity="1" /><path clip-path="url(#clip160)" d="M1545.05 1809.11 L1534.47 1819.74 L1545.05 1830.32 L1542.3 1833.12 L1531.67 1822.49 L1521.05 1833.12 L1518.32 1830.32 L1528.87 1819.74 L1518.32 1809.11 L1521.05 1806.31 L1531.67 1816.94 L1542.3 1806.31 L1545.05 1809.11 Z" fill="#000000" fill-rule="evenodd" fill-opacity="1" /><path clip-path="url(#clip160)" d="M1557.41 1830.64 L1565.05 1830.64 L1565.05 1804.27 L1556.74 1805.94 L1556.74 1801.68 L1565.01 1800.02 L1569.68 1800.02 L1569.68 1830.64 L1577.32 1830.64 L1577.32 1834.58 L1557.41 1834.58 L1557.41 1830.64 Z" fill="#000000" fill-rule="evenodd" fill-opacity="1" /><path clip-path="url(#clip160)" d="M1596.77 1803.09 Q1593.15 1803.09 1591.33 1806.66 Q1589.52 1810.2 1589.52 1817.33 Q1589.52 1824.44 1591.33 1828 Q1593.15 1831.54 1596.77 1831.54 Q1600.4 1831.54 1602.2 1828 Q1604.03 1824.44 1604.03 1817.33 Q1604.03 1810.2 1602.2 1806.66 Q1600.4 1803.09 1596.77 1803.09 M1596.77 1799.39 Q1602.58 1799.39 1605.63 1804 Q1608.71 1808.58 1608.71 1817.33 Q1608.71 1826.06 1605.63 1830.66 Q1602.58 1835.25 1596.77 1835.25 Q1590.95 1835.25 1587.88 1830.66 Q1584.82 1826.06 1584.82 1817.33 Q1584.82 1808.58 1587.88 1804 Q1590.95 1799.39 1596.77 1799.39 Z" fill="#000000" fill-rule="evenodd" fill-opacity="1" /><path clip-path="url(#clip160)" d="M1609.89 1779.08 L1624.81 1779.08 L1624.81 1782.28 L1613.37 1782.28 L1613.37 1789.17 Q1614.2 1788.88 1615.03 1788.75 Q1615.86 1788.6 1616.68 1788.6 Q1621.39 1788.6 1624.13 1791.18 Q1626.88 1793.75 1626.88 1798.16 Q1626.88 1802.69 1624.06 1805.21 Q1621.24 1807.71 1616.1 1807.71 Q1614.33 1807.71 1612.49 1807.41 Q1610.67 1807.11 1608.71 1806.51 L1608.71 1802.69 Q1610.4 1803.61 1612.21 1804.06 Q1614.01 1804.51 1616.03 1804.51 Q1619.28 1804.51 1621.18 1802.8 Q1623.08 1801.09 1623.08 1798.16 Q1623.08 1795.22 1621.18 1793.51 Q1619.28 1791.8 1616.03 1791.8 Q1614.5 1791.8 1612.98 1792.14 Q1611.47 1792.48 1609.89 1793.19 L1609.89 1779.08 Z" fill="#000000" fill-rule="evenodd" fill-opacity="1" /><path clip-path="url(#clip160)" d="M911.06 1892.18 Q911.06 1892.47 910.803 1893.47 Q910.577 1894.44 909.836 1896.34 Q909.128 1898.2 908.033 1900.3 Q906.97 1902.36 905.006 1904.97 Q903.041 1907.58 900.593 1909.86 Q895.988 1914.18 891.06 1916.5 Q886.165 1918.82 881.978 1919.56 L881.044 1919.56 Q880.014 1919.56 880.014 1918.75 L880.722 1915.79 L884.748 1899.65 Q886.004 1894.73 886.004 1894.31 Q886.004 1893.92 885.843 1893.73 Q885.714 1893.5 884.941 1893.34 Q884.201 1893.18 882.719 1893.18 Q882.107 1893.18 881.817 1893.15 Q881.56 1893.12 881.334 1892.96 Q881.109 1892.76 881.109 1892.38 Q881.109 1891.83 881.334 1891.54 Q881.592 1891.22 881.785 1891.15 Q881.978 1891.09 882.365 1891.06 Q882.912 1891.02 884.748 1890.86 Q886.584 1890.67 888.162 1890.54 Q889.74 1890.41 890.416 1890.41 Q890.803 1890.41 891.028 1890.6 Q891.254 1890.77 891.254 1890.96 L891.286 1891.12 L884.812 1917.37 Q887.196 1916.59 889.547 1915.31 Q891.93 1914.02 894.506 1911.89 Q897.083 1909.73 899.273 1907.06 Q901.463 1904.39 903.395 1900.65 Q905.36 1896.88 906.584 1892.57 Q906.809 1891.7 907.357 1891.18 Q907.936 1890.67 908.355 1890.54 Q908.774 1890.41 909.16 1890.41 Q910.03 1890.41 910.545 1890.89 Q911.06 1891.35 911.06 1892.18 Z" fill="#000000" fill-rule="evenodd" fill-opacity="1" /><polyline clip-path="url(#clip164)" style="stroke:#000000; stroke-linecap:butt; stroke-linejoin:round; stroke-width:2; stroke-opacity:0.1; fill:none" points="
  239.52,1708.16 1552.76,1708.16 
  "/>
<polyline clip-path="url(#clip164)" style="stroke:#000000; stroke-linecap:butt; stroke-linejoin:round; stroke-width:2; stroke-opacity:0.1; fill:none" points="
  239.52,1582.44 1552.76,1582.44 
  "/>
<polyline clip-path="url(#clip164)" style="stroke:#000000; stroke-linecap:butt; stroke-linejoin:round; stroke-width:2; stroke-opacity:0.1; fill:none" points="
  239.52,1456.71 1552.76,1456.71 
  "/>
<polyline clip-path="url(#clip164)" style="stroke:#000000; stroke-linecap:butt; stroke-linejoin:round; stroke-width:2; stroke-opacity:0.1; fill:none" points="
  239.52,1330.99 1552.76,1330.99 
  "/>
<polyline clip-path="url(#clip164)" style="stroke:#000000; stroke-linecap:butt; stroke-linejoin:round; stroke-width:2; stroke-opacity:0.1; fill:none" points="
  239.52,1205.27 1552.76,1205.27 
  "/>
<polyline clip-path="url(#clip160)" style="stroke:#000000; stroke-linecap:butt; stroke-linejoin:round; stroke-width:4; stroke-opacity:1; fill:none" points="
  239.52,1759.72 239.52,1153.71 
  "/>
<polyline clip-path="url(#clip160)" style="stroke:#000000; stroke-linecap:butt; stroke-linejoin:round; stroke-width:4; stroke-opacity:1; fill:none" points="
  239.52,1708.16 258.417,1708.16 
  "/>
<polyline clip-path="url(#clip160)" style="stroke:#000000; stroke-linecap:butt; stroke-linejoin:round; stroke-width:4; stroke-opacity:1; fill:none" points="
  239.52,1582.44 258.417,1582.44 
  "/>
<polyline clip-path="url(#clip160)" style="stroke:#000000; stroke-linecap:butt; stroke-linejoin:round; stroke-width:4; stroke-opacity:1; fill:none" points="
  239.52,1456.71 258.417,1456.71 
  "/>
<polyline clip-path="url(#clip160)" style="stroke:#000000; stroke-linecap:butt; stroke-linejoin:round; stroke-width:4; stroke-opacity:1; fill:none" points="
  239.52,1330.99 258.417,1330.99 
  "/>
<polyline clip-path="url(#clip160)" style="stroke:#000000; stroke-linecap:butt; stroke-linejoin:round; stroke-width:4; stroke-opacity:1; fill:none" points="
  239.52,1205.27 258.417,1205.27 
  "/>
<path clip-path="url(#clip160)" d="M117.645 1708.61 L147.321 1708.61 L147.321 1712.54 L117.645 1712.54 L117.645 1708.61 Z" fill="#000000" fill-rule="evenodd" fill-opacity="1" /><path clip-path="url(#clip160)" d="M170.261 1694.95 L158.455 1713.4 L170.261 1713.4 L170.261 1694.95 M169.034 1690.88 L174.913 1690.88 L174.913 1713.4 L179.844 1713.4 L179.844 1717.29 L174.913 1717.29 L174.913 1725.44 L170.261 1725.44 L170.261 1717.29 L154.659 1717.29 L154.659 1712.78 L169.034 1690.88 Z" fill="#000000" fill-rule="evenodd" fill-opacity="1" /><path clip-path="url(#clip160)" d="M197.575 1693.96 Q193.964 1693.96 192.136 1697.52 Q190.33 1701.06 190.33 1708.19 Q190.33 1715.3 192.136 1718.86 Q193.964 1722.41 197.575 1722.41 Q201.21 1722.41 203.015 1718.86 Q204.844 1715.3 204.844 1708.19 Q204.844 1701.06 203.015 1697.52 Q201.21 1693.96 197.575 1693.96 M197.575 1690.25 Q203.386 1690.25 206.441 1694.86 Q209.52 1699.44 209.52 1708.19 Q209.52 1716.92 206.441 1721.53 Q203.386 1726.11 197.575 1726.11 Q191.765 1726.11 188.687 1721.53 Q185.631 1716.92 185.631 1708.19 Q185.631 1699.44 188.687 1694.86 Q191.765 1690.25 197.575 1690.25 Z" fill="#000000" fill-rule="evenodd" fill-opacity="1" /><path clip-path="url(#clip160)" d="M117.645 1582.89 L147.321 1582.89 L147.321 1586.82 L117.645 1586.82 L117.645 1582.89 Z" fill="#000000" fill-rule="evenodd" fill-opacity="1" /><path clip-path="url(#clip160)" d="M161.441 1595.78 L177.761 1595.78 L177.761 1599.72 L155.816 1599.72 L155.816 1595.78 Q158.478 1593.03 163.062 1588.4 Q167.668 1583.74 168.849 1582.4 Q171.094 1579.88 171.974 1578.14 Q172.876 1576.38 172.876 1574.69 Q172.876 1571.94 170.932 1570.2 Q169.011 1568.47 165.909 1568.47 Q163.71 1568.47 161.256 1569.23 Q158.826 1569.99 156.048 1571.54 L156.048 1566.82 Q158.872 1565.69 161.326 1565.11 Q163.779 1564.53 165.816 1564.53 Q171.187 1564.53 174.381 1567.22 Q177.575 1569.9 177.575 1574.39 Q177.575 1576.52 176.765 1578.44 Q175.978 1580.34 173.872 1582.93 Q173.293 1583.6 170.191 1586.82 Q167.089 1590.02 161.441 1595.78 Z" fill="#000000" fill-rule="evenodd" fill-opacity="1" /><path clip-path="url(#clip160)" d="M197.575 1568.23 Q193.964 1568.23 192.136 1571.8 Q190.33 1575.34 190.33 1582.47 Q190.33 1589.58 192.136 1593.14 Q193.964 1596.68 197.575 1596.68 Q201.21 1596.68 203.015 1593.14 Q204.844 1589.58 204.844 1582.47 Q204.844 1575.34 203.015 1571.8 Q201.21 1568.23 197.575 1568.23 M197.575 1564.53 Q203.386 1564.53 206.441 1569.14 Q209.52 1573.72 209.52 1582.47 Q209.52 1591.2 206.441 1595.8 Q203.386 1600.39 197.575 1600.39 Q191.765 1600.39 188.687 1595.8 Q185.631 1591.2 185.631 1582.47 Q185.631 1573.72 188.687 1569.14 Q191.765 1564.53 197.575 1564.53 Z" fill="#000000" fill-rule="evenodd" fill-opacity="1" /><path clip-path="url(#clip160)" d="M197.575 1442.51 Q193.964 1442.51 192.136 1446.08 Q190.33 1449.62 190.33 1456.75 Q190.33 1463.85 192.136 1467.42 Q193.964 1470.96 197.575 1470.96 Q201.21 1470.96 203.015 1467.42 Q204.844 1463.85 204.844 1456.75 Q204.844 1449.62 203.015 1446.08 Q201.21 1442.51 197.575 1442.51 M197.575 1438.81 Q203.386 1438.81 206.441 1443.42 Q209.52 1448 209.52 1456.75 Q209.52 1465.48 206.441 1470.08 Q203.386 1474.66 197.575 1474.66 Q191.765 1474.66 188.687 1470.08 Q185.631 1465.48 185.631 1456.75 Q185.631 1448 188.687 1443.42 Q191.765 1438.81 197.575 1438.81 Z" fill="#000000" fill-rule="evenodd" fill-opacity="1" /><path clip-path="url(#clip160)" d="M161.441 1344.34 L177.761 1344.34 L177.761 1348.27 L155.816 1348.27 L155.816 1344.34 Q158.478 1341.58 163.062 1336.95 Q167.668 1332.3 168.849 1330.96 Q171.094 1328.43 171.974 1326.7 Q172.876 1324.94 172.876 1323.25 Q172.876 1320.49 170.932 1318.76 Q169.011 1317.02 165.909 1317.02 Q163.71 1317.02 161.256 1317.79 Q158.826 1318.55 156.048 1320.1 L156.048 1315.38 Q158.872 1314.24 161.326 1313.66 Q163.779 1313.09 165.816 1313.09 Q171.187 1313.09 174.381 1315.77 Q177.575 1318.46 177.575 1322.95 Q177.575 1325.08 176.765 1327 Q175.978 1328.9 173.872 1331.49 Q173.293 1332.16 170.191 1335.38 Q167.089 1338.57 161.441 1344.34 Z" fill="#000000" fill-rule="evenodd" fill-opacity="1" /><path clip-path="url(#clip160)" d="M197.575 1316.79 Q193.964 1316.79 192.136 1320.35 Q190.33 1323.9 190.33 1331.03 Q190.33 1338.13 192.136 1341.7 Q193.964 1345.24 197.575 1345.24 Q201.21 1345.24 203.015 1341.7 Q204.844 1338.13 204.844 1331.03 Q204.844 1323.9 203.015 1320.35 Q201.21 1316.79 197.575 1316.79 M197.575 1313.09 Q203.386 1313.09 206.441 1317.69 Q209.52 1322.28 209.52 1331.03 Q209.52 1339.75 206.441 1344.36 Q203.386 1348.94 197.575 1348.94 Q191.765 1348.94 188.687 1344.36 Q185.631 1339.75 185.631 1331.03 Q185.631 1322.28 188.687 1317.69 Q191.765 1313.09 197.575 1313.09 Z" fill="#000000" fill-rule="evenodd" fill-opacity="1" /><path clip-path="url(#clip160)" d="M170.261 1192.06 L158.455 1210.51 L170.261 1210.51 L170.261 1192.06 M169.034 1187.99 L174.913 1187.99 L174.913 1210.51 L179.844 1210.51 L179.844 1214.4 L174.913 1214.4 L174.913 1222.55 L170.261 1222.55 L170.261 1214.4 L154.659 1214.4 L154.659 1209.89 L169.034 1187.99 Z" fill="#000000" fill-rule="evenodd" fill-opacity="1" /><path clip-path="url(#clip160)" d="M197.575 1191.07 Q193.964 1191.07 192.136 1194.63 Q190.33 1198.17 190.33 1205.3 Q190.33 1212.41 192.136 1215.97 Q193.964 1219.52 197.575 1219.52 Q201.21 1219.52 203.015 1215.97 Q204.844 1212.41 204.844 1205.3 Q204.844 1198.17 203.015 1194.63 Q201.21 1191.07 197.575 1191.07 M197.575 1187.36 Q203.386 1187.36 206.441 1191.97 Q209.52 1196.55 209.52 1205.3 Q209.52 1214.03 206.441 1218.64 Q203.386 1223.22 197.575 1223.22 Q191.765 1223.22 188.687 1218.64 Q185.631 1214.03 185.631 1205.3 Q185.631 1196.55 188.687 1191.97 Q191.765 1187.36 197.575 1187.36 Z" fill="#000000" fill-rule="evenodd" fill-opacity="1" /><path clip-path="url(#clip160)" d="M77.8439 1585.07 L75.8149 1585.07 L75.8149 1583.33 Q75.8149 1579.63 75.2352 1578.79 Q74.6233 1577.92 72.691 1577.92 L37.9408 1577.92 Q36.0407 1577.92 35.461 1578.79 Q34.8491 1579.66 34.8491 1583.33 L34.8491 1585.07 L32.7879 1585.07 Q32.9811 1582.75 32.9811 1574.96 Q32.9811 1567.23 32.7879 1564.94 L34.8491 1564.94 L34.8491 1566.65 Q34.8491 1570.35 35.461 1571.22 Q36.0407 1572.06 37.9408 1572.06 L72.691 1572.06 Q74.5911 1572.06 75.203 1571.22 Q75.8149 1570.35 75.8149 1566.65 L75.8149 1564.94 L77.8439 1564.94 Q77.6507 1567.26 77.6507 1575.02 Q77.6507 1582.75 77.8439 1585.07 Z" fill="#000000" fill-rule="evenodd" fill-opacity="1" /><path clip-path="url(#clip160)" d="M77.8439 1556.22 L75.8149 1556.22 Q75.8149 1552.71 75.3962 1551.9 Q74.9454 1551.1 72.8198 1551.1 L55.1388 1551.1 Q52.6911 1551.1 52.0792 1551.97 Q51.4673 1552.81 51.4673 1556.22 L49.4061 1556.22 L48.6976 1546.94 L55.6218 1546.94 Q48.6976 1543.85 48.6976 1537.19 Q48.6976 1529.46 55.1388 1528.39 Q52.6267 1527.27 50.6621 1524.92 Q48.6976 1522.53 48.6976 1518.83 Q48.6976 1513.87 51.1452 1511.9 Q52.7877 1510.46 54.6235 1510.17 Q56.4592 1509.88 61.2257 1509.88 L73.8182 1509.88 Q75.203 1509.81 75.5251 1508.75 Q75.8149 1507.69 75.8149 1504.72 L77.8439 1504.72 Q77.6507 1511.45 77.6507 1512.1 Q77.6507 1512.61 77.8439 1519.57 L75.8149 1519.57 Q75.8149 1516.06 75.3962 1515.25 Q74.9454 1514.42 72.8198 1514.42 L57.4576 1514.42 Q54.1082 1514.42 52.1436 1515.45 Q50.1469 1516.48 50.1469 1519.31 Q50.1469 1522.73 53.0132 1525.46 Q55.8795 1528.2 60.7104 1528.2 L72.8198 1528.2 Q74.9454 1528.2 75.3962 1527.4 Q75.8149 1526.56 75.8149 1523.05 L77.8439 1523.05 Q77.6507 1529.78 77.6507 1530.46 Q77.6507 1530.97 77.8439 1537.89 L75.8149 1537.89 Q75.8149 1534.38 75.3962 1533.58 Q74.9454 1532.74 72.8198 1532.74 L57.4576 1532.74 Q54.1082 1532.74 52.1436 1533.77 Q50.1469 1534.8 50.1469 1537.64 Q50.1469 1541.05 53.0132 1543.79 Q55.8795 1546.53 60.7104 1546.53 L72.8198 1546.53 Q74.9454 1546.53 75.3962 1545.72 Q75.8149 1544.88 75.8149 1541.41 L77.8439 1541.41 Q77.6507 1548.14 77.6507 1548.78 Q77.6507 1549.3 77.8439 1556.22 Z" fill="#000000" fill-rule="evenodd" fill-opacity="1" /><path clip-path="url(#clip160)" d="M33.8507 1484.41 Q32.7879 1484.41 32.7879 1482.96 L32.7879 1446.02 L47.6348 1444.18 L47.6348 1445.89 Q43.287 1446.47 40.7749 1447.5 Q38.2629 1448.53 36.9102 1450.72 Q35.5576 1452.88 35.2033 1455.55 Q34.8491 1458.22 34.8491 1463.12 L34.8491 1476.97 L53.5607 1464.02 Q54.8811 1463.09 55.2998 1463.12 Q55.8795 1463.12 57.0711 1464.25 L75.0742 1480.19 L75.0742 1464.44 Q75.0742 1461.41 74.9776 1459.51 Q74.881 1457.58 74.6233 1455.55 Q74.3335 1453.49 73.786 1452.3 Q73.2385 1451.11 72.3367 1449.91 Q71.4349 1448.72 70.0179 1448.05 Q68.6008 1447.34 66.7007 1446.79 Q64.7683 1446.24 62.224 1445.89 L62.224 1444.18 L77.8439 1446.02 L77.8439 1483.02 Q77.8439 1484.34 77.0387 1484.34 Q76.6523 1484.34 75.7183 1483.57 L58.1983 1467.98 Q57.3288 1468.63 55.493 1469.85 L35.3644 1483.76 Q34.1727 1484.41 33.8507 1484.41 Z" fill="#000000" fill-rule="evenodd" fill-opacity="1" /><path clip-path="url(#clip160)" d="M61.3545 1433.83 Q50.2113 1433.83 41.2258 1429.68 Q37.4577 1427.9 34.3016 1425.42 Q31.1454 1422.94 29.7605 1421.3 Q28.3757 1419.66 28.3757 1419.21 Q28.3757 1418.56 29.0198 1418.53 Q29.3419 1418.53 30.147 1419.4 Q40.9682 1430.03 61.3545 1430 Q81.8052 1430 92.2077 1419.66 Q93.3349 1418.53 93.6892 1418.53 Q94.3333 1418.53 94.3333 1419.21 Q94.3333 1419.66 93.0129 1421.24 Q91.6924 1422.82 88.6651 1425.26 Q85.6377 1427.71 81.934 1429.48 Q72.9486 1433.83 61.3545 1433.83 Z" fill="#000000" fill-rule="evenodd" fill-opacity="1" /><path clip-path="url(#clip160)" d="M77.8439 1408.5 L75.8149 1408.5 Q75.8149 1404.99 75.3962 1404.19 Q74.9454 1403.38 72.8198 1403.38 L55.0743 1403.38 Q52.6267 1403.38 52.047 1404.22 Q51.4673 1405.03 51.4673 1408.25 L49.4061 1408.25 L48.6976 1399.03 L72.8842 1399.03 Q74.8487 1399.03 75.3318 1398.33 Q75.8149 1397.62 75.8149 1394.4 L77.8439 1394.4 Q77.6507 1401.13 77.6507 1401.26 Q77.6507 1402.16 77.8439 1408.5 M37.2001 1405.73 Q35.8797 1405.73 34.8169 1404.74 Q33.7219 1403.7 33.7219 1402.26 Q33.7219 1400.81 34.7202 1399.78 Q35.6864 1398.75 37.2323 1398.75 Q38.746 1398.75 39.7444 1399.78 Q40.7105 1400.81 40.7105 1402.26 Q40.7105 1403.77 39.6477 1404.77 Q38.5849 1405.73 37.2001 1405.73 Z" fill="#000000" fill-rule="evenodd" fill-opacity="1" /><path clip-path="url(#clip160)" d="M50.4689 1359.37 Q50.7588 1359.37 51.7571 1359.63 Q52.7233 1359.85 54.6235 1360.6 Q56.4914 1361.3 58.5848 1362.4 Q60.646 1363.46 63.2546 1365.43 Q65.8633 1367.39 68.1499 1369.84 Q72.4655 1374.44 74.7843 1379.37 Q77.1032 1384.27 77.8439 1388.45 L77.8439 1389.39 Q77.8439 1390.42 77.0387 1390.42 L74.0758 1389.71 L57.9407 1385.68 Q53.0132 1384.43 52.5945 1384.43 Q52.208 1384.43 52.0148 1384.59 Q51.7893 1384.72 51.6283 1385.49 Q51.4673 1386.23 51.4673 1387.71 Q51.4673 1388.32 51.4351 1388.61 Q51.4029 1388.87 51.2418 1389.1 Q51.0486 1389.32 50.6621 1389.32 Q50.1146 1389.32 49.8248 1389.1 Q49.5027 1388.84 49.4383 1388.65 Q49.3739 1388.45 49.3417 1388.07 Q49.3095 1387.52 49.1485 1385.68 Q48.9552 1383.85 48.8264 1382.27 Q48.6976 1380.69 48.6976 1380.02 Q48.6976 1379.63 48.8908 1379.4 Q49.0519 1379.18 49.2451 1379.18 L49.4061 1379.15 L75.6539 1385.62 Q74.881 1383.24 73.5927 1380.88 Q72.3045 1378.5 70.1789 1375.93 Q68.0211 1373.35 65.348 1371.16 Q62.6749 1368.97 58.9391 1367.04 Q55.171 1365.07 50.8554 1363.85 Q49.9858 1363.62 49.4705 1363.07 Q48.9552 1362.5 48.8264 1362.08 Q48.6976 1361.66 48.6976 1361.27 Q48.6976 1360.4 49.1807 1359.89 Q49.6316 1359.37 50.4689 1359.37 Z" fill="#000000" fill-rule="evenodd" fill-opacity="1" /><path clip-path="url(#clip160)" d="M93.6892 1353.68 Q93.3671 1353.68 92.562 1352.84 Q81.7408 1342.22 61.3545 1342.22 Q40.9038 1342.22 30.5657 1352.43 Q29.3741 1353.68 29.0198 1353.68 Q28.3757 1353.68 28.3757 1353.04 Q28.3757 1352.59 29.6961 1351.01 Q31.0166 1349.4 34.0439 1346.98 Q37.0713 1344.54 40.7749 1342.73 Q49.7604 1338.38 61.3545 1338.38 Q72.4977 1338.38 81.4832 1342.54 Q85.2512 1344.31 88.4074 1346.79 Q91.5636 1349.27 92.9484 1350.91 Q94.3333 1352.55 94.3333 1353.04 Q94.3333 1353.68 93.6892 1353.68 Z" fill="#000000" fill-rule="evenodd" fill-opacity="1" /><path clip-path="url(#clip160)" d="M645.05 1021.44 Q645.05 1023.12 643.656 1023.12 Q641.197 1023.2 639.516 1023.69 Q637.835 1024.14 636.852 1025.05 Q635.909 1025.95 635.376 1026.93 Q634.884 1027.87 634.556 1029.31 L627.096 1059.11 Q624.965 1067.51 618.079 1073.62 Q611.192 1079.68 603.363 1079.68 Q598.896 1079.68 595.166 1077.84 Q591.477 1076 589.181 1072.27 Q586.886 1068.54 586.886 1063.58 Q586.886 1061.2 587.501 1058.7 L592.583 1037.96 L594.469 1030.58 Q595.862 1025.13 595.862 1024.64 Q595.862 1023.86 595.371 1023.65 Q594.92 1023.41 593.608 1023.28 L590.411 1023.12 Q589.427 1023.12 589.017 1023.08 Q588.648 1023.04 588.361 1022.83 Q588.074 1022.63 588.074 1022.18 Q588.074 1021.6 588.197 1021.23 Q588.361 1020.82 588.648 1020.7 Q588.935 1020.58 589.14 1020.54 Q589.345 1020.5 589.673 1020.5 L600.494 1020.74 L611.233 1020.5 Q612.422 1020.5 612.422 1021.44 Q612.422 1022.63 611.889 1022.87 Q611.356 1023.12 609.553 1023.12 Q606.479 1023.12 605.085 1023.53 Q603.732 1023.9 603.322 1024.55 Q602.954 1025.17 602.503 1026.97 L594.346 1059.64 Q593.936 1061.28 593.69 1062.92 Q593.485 1064.52 593.485 1065.34 L593.444 1066.16 Q593.444 1071.36 596.313 1074.23 Q599.223 1077.1 603.691 1077.1 Q610.25 1077.1 616.357 1071.9 Q622.505 1066.69 624.596 1058.53 L632.138 1028.57 Q632.384 1027.83 632.384 1026.81 Q632.384 1025.17 631.154 1024.19 Q629.965 1023.16 626.686 1023.12 Q625.17 1023.12 625.17 1022.18 Q625.17 1021.4 625.457 1021.03 Q625.785 1020.62 626.03 1020.58 Q626.317 1020.5 626.686 1020.5 Q628.08 1020.5 631.031 1020.62 Q633.982 1020.74 635.417 1020.74 Q636.852 1020.74 639.721 1020.62 Q642.59 1020.5 643.984 1020.5 Q644.476 1020.5 644.722 1020.74 Q645.009 1020.95 645.05 1021.19 L645.05 1021.44 Z" fill="#000000" fill-rule="evenodd" fill-opacity="1" /><path clip-path="url(#clip160)" d="M666.928 1065.09 Q667.01 1064.07 668.608 1064.07 L720.05 1064.07 Q722.468 1064.07 722.509 1065.01 Q722.509 1066.04 720.214 1065.99 L669.182 1065.99 Q666.928 1066.04 666.928 1065.09 M666.928 1048.7 Q666.928 1047.67 668.69 1047.71 L719.968 1047.71 Q722.468 1047.71 722.509 1048.7 Q722.509 1049.64 720.378 1049.64 L668.608 1049.64 Q666.928 1049.64 666.928 1048.7 Z" fill="#000000" fill-rule="evenodd" fill-opacity="1" /><path clip-path="url(#clip160)" d="M754.886 1051.32 Q754.886 1038.12 761.608 1030.05 Q768.33 1021.93 776.979 1021.93 Q782.021 1021.93 784.808 1024.51 Q787.636 1027.05 787.636 1030.99 Q787.636 1033.16 786.366 1034.1 Q785.095 1035.05 783.783 1035.05 Q782.267 1035.05 781.078 1034.02 Q779.889 1033 779.889 1031.15 Q779.889 1027.38 784.521 1027.38 Q782.349 1024.02 777.143 1024.02 Q775.544 1024.02 773.905 1024.51 Q772.265 1024.96 770.134 1026.52 Q768.002 1028.08 766.363 1030.54 Q764.723 1033 763.576 1037.63 Q762.428 1042.26 762.428 1048.29 L762.428 1050.3 Q765.871 1041.97 772.921 1042.02 Q779.971 1042.02 784.849 1047.39 Q789.727 1052.75 789.727 1060.71 Q789.727 1068.86 784.644 1074.27 Q779.561 1079.68 772.429 1079.68 Q769.232 1079.68 766.322 1078.33 Q763.453 1077.02 760.747 1073.99 Q758.083 1070.95 756.484 1065.13 Q754.886 1059.31 754.886 1051.32 M762.592 1058.86 Q762.592 1067.1 764.108 1071.04 Q764.354 1071.69 764.887 1072.59 Q765.461 1073.5 766.404 1074.68 Q767.388 1075.83 768.986 1076.61 Q770.585 1077.35 772.429 1077.35 Q778.045 1077.35 780.75 1071.9 Q782.185 1068.86 782.185 1060.62 Q782.185 1052.22 780.668 1049.15 Q778.086 1043.94 772.839 1043.94 Q769.314 1043.94 766.855 1046.36 Q764.436 1048.78 763.494 1052.02 Q762.592 1055.26 762.592 1058.86 Z" fill="#000000" fill-rule="evenodd" fill-opacity="1" /><path clip-path="url(#clip160)" d="M797.726 1076.49 Q796.455 1075.13 796.455 1073.37 Q796.455 1071.61 797.726 1070.34 Q798.996 1069.03 800.923 1069.03 Q802.767 1069.03 803.997 1070.26 Q805.268 1071.45 805.268 1073.41 Q805.268 1075.34 803.915 1076.61 Q802.603 1077.84 800.923 1077.84 Q798.996 1077.84 797.726 1076.49 Z" fill="#000000" fill-rule="evenodd" fill-opacity="1" /><path clip-path="url(#clip160)" d="M819.553 1064.31 Q819.553 1061.81 820.906 1060.87 Q822.259 1059.89 823.693 1059.89 Q825.62 1059.89 826.726 1061.12 Q827.874 1062.31 827.874 1063.99 Q827.874 1065.67 826.726 1066.9 Q825.62 1068.08 823.693 1068.08 Q822.75 1068.08 822.259 1067.92 Q823.365 1071.77 826.726 1074.56 Q830.129 1077.35 834.596 1077.35 Q840.212 1077.35 843.573 1071.9 Q845.581 1068.37 845.581 1060.38 Q845.581 1053.33 844.065 1049.8 Q841.729 1044.43 836.933 1044.43 Q830.129 1044.43 826.112 1050.3 Q825.62 1051.03 825.046 1051.07 Q824.226 1051.07 824.021 1050.62 Q823.857 1050.13 823.857 1048.86 L823.857 1024.02 Q823.857 1022.01 824.677 1022.01 Q825.005 1022.01 825.702 1022.26 Q830.989 1024.6 836.851 1024.64 Q842.876 1024.64 848.287 1022.18 Q848.697 1021.93 848.943 1021.93 Q849.762 1021.93 849.803 1022.87 Q849.803 1023.2 849.107 1024.19 Q848.451 1025.13 847.016 1026.4 Q845.581 1027.63 843.737 1028.82 Q841.892 1030.01 839.187 1030.83 Q836.523 1031.6 833.572 1031.6 Q830.047 1031.6 826.44 1030.5 L826.44 1046.85 Q830.784 1042.59 837.097 1042.59 Q843.819 1042.59 848.451 1048 Q853.083 1053.41 853.083 1060.95 Q853.083 1068.86 847.59 1074.27 Q842.138 1079.68 834.76 1079.68 Q828.038 1079.68 823.775 1074.89 Q819.553 1070.09 819.553 1064.31 Z" fill="#000000" fill-rule="evenodd" fill-opacity="1" /><path clip-path="url(#clip160)" d="M862.311 1076.49 Q861.122 1075.13 861.122 1073.37 Q861.122 1071.61 862.27 1070.3 Q863.459 1068.95 865.59 1068.95 Q868.09 1068.95 869.525 1071.36 Q870.96 1073.74 870.96 1077.76 Q870.96 1082.1 869.197 1086.12 Q867.435 1090.18 865.713 1092.1 Q863.992 1094.03 863.295 1094.03 Q862.475 1094.03 862.475 1093.13 Q862.475 1092.8 863.049 1092.19 Q869.074 1085.71 869.115 1077.76 Q869.115 1076.49 868.951 1076.49 L868.746 1076.65 Q867.312 1077.84 865.59 1077.84 Q863.5 1077.84 862.311 1076.49 Z" fill="#000000" fill-rule="evenodd" fill-opacity="1" /><path clip-path="url(#clip160)" d="M954.547 1021.93 Q954.547 1022.71 954.383 1023.37 L952.087 1037.96 Q951.964 1039.06 951.718 1039.47 Q951.513 1039.88 950.858 1039.88 Q949.833 1039.88 949.833 1038.82 Q949.833 1038.2 950.079 1037.22 Q950.776 1032.59 950.776 1030.5 Q950.776 1029.1 950.489 1028.08 Q950.243 1027.01 949.833 1026.28 Q949.464 1025.54 948.603 1025.05 Q947.742 1024.55 946.923 1024.27 Q946.103 1023.98 944.627 1023.86 Q943.152 1023.69 941.881 1023.65 Q940.61 1023.61 938.52 1023.61 Q933.97 1023.61 933.232 1023.78 Q932.453 1023.98 932.043 1024.6 Q931.675 1025.17 931.265 1026.89 L920.116 1071.45 L919.788 1073.21 Q919.788 1074.19 920.402 1074.52 Q921.017 1074.85 922.903 1075.05 Q925.608 1075.26 928.272 1075.26 Q928.354 1075.26 928.518 1075.26 Q929.42 1075.26 929.789 1075.3 Q930.158 1075.3 930.527 1075.38 Q930.896 1075.46 930.978 1075.67 Q931.101 1075.83 931.101 1076.16 Q931.101 1076.94 930.773 1077.35 Q930.445 1077.72 930.117 1077.8 Q929.83 1077.84 929.256 1077.84 Q928.108 1077.84 925.649 1077.76 Q923.19 1077.68 921.96 1077.68 L914.992 1077.59 L907.86 1077.68 Q906.753 1077.68 904.417 1077.76 Q902.08 1077.84 900.974 1077.84 Q899.539 1077.84 899.539 1076.82 Q899.539 1075.67 900.072 1075.46 Q900.646 1075.26 903.064 1075.26 Q906.466 1075.26 908.311 1075.09 Q910.155 1074.93 911.139 1074.36 Q912.164 1073.78 912.451 1073.21 Q912.737 1072.59 913.065 1071.2 L924.337 1026.4 Q924.665 1025.41 924.665 1024.64 Q924.665 1024.23 924.542 1024.06 Q924.46 1023.9 923.928 1023.78 Q923.395 1023.61 922.288 1023.61 L919.009 1023.61 Q915.648 1023.61 913.557 1023.78 Q911.508 1023.9 909.54 1024.51 Q907.614 1025.13 906.466 1025.99 Q905.359 1026.85 904.13 1028.61 Q902.9 1030.37 901.998 1032.51 Q901.138 1034.64 899.908 1038.12 Q899.498 1039.27 899.252 1039.6 Q899.047 1039.88 898.473 1039.88 Q898.063 1039.88 897.735 1039.64 Q897.448 1039.35 897.448 1038.98 Q897.858 1037.63 897.94 1037.47 L902.982 1022.67 Q903.392 1021.48 903.761 1021.27 Q904.171 1021.03 905.687 1021.03 L952.251 1021.03 Q952.989 1021.03 953.235 1021.03 Q953.481 1021.03 953.891 1021.11 Q954.301 1021.19 954.424 1021.4 Q954.547 1021.6 954.547 1021.93 Z" fill="#000000" fill-rule="evenodd" fill-opacity="1" /><path clip-path="url(#clip160)" d="M969.29 1065.09 Q969.372 1064.07 970.971 1064.07 L1022.41 1064.07 Q1024.83 1064.07 1024.87 1065.01 Q1024.87 1066.04 1022.58 1065.99 L971.545 1065.99 Q969.29 1066.04 969.29 1065.09 M969.29 1048.7 Q969.29 1047.67 971.053 1047.71 L1022.33 1047.71 Q1024.83 1047.71 1024.87 1048.7 Q1024.87 1049.64 1022.74 1049.64 L970.971 1049.64 Q969.29 1049.64 969.29 1048.7 Z" fill="#000000" fill-rule="evenodd" fill-opacity="1" /><path clip-path="url(#clip160)" d="M1057.25 1050.99 Q1057.25 1038.65 1060.36 1031.93 Q1064.71 1021.93 1074.96 1021.93 Q1077.13 1021.93 1079.38 1022.55 Q1081.68 1023.12 1084.55 1025.37 Q1087.46 1027.63 1089.22 1031.32 Q1092.58 1038.45 1092.58 1050.99 Q1092.58 1063.25 1089.47 1069.93 Q1084.92 1079.68 1074.87 1079.68 Q1071.1 1079.68 1067.25 1077.76 Q1063.44 1075.83 1061.02 1071.2 Q1057.25 1064.27 1057.25 1050.99 M1064.22 1049.97 Q1064.22 1062.63 1065.12 1067.67 Q1066.14 1073.13 1068.93 1075.5 Q1071.76 1077.84 1074.87 1077.84 Q1078.24 1077.84 1081.02 1075.34 Q1083.85 1072.8 1084.71 1067.35 Q1085.65 1061.98 1085.61 1049.97 Q1085.61 1038.29 1084.79 1033.61 Q1083.69 1028.16 1080.74 1025.99 Q1077.83 1023.78 1074.87 1023.78 Q1073.77 1023.78 1072.58 1024.1 Q1071.43 1024.43 1069.75 1025.37 Q1068.07 1026.32 1066.76 1028.65 Q1065.49 1030.99 1064.87 1034.51 Q1064.22 1039.06 1064.22 1049.97 Z" fill="#000000" fill-rule="evenodd" fill-opacity="1" /><path clip-path="url(#clip160)" d="M1100.09 1076.49 Q1098.82 1075.13 1098.82 1073.37 Q1098.82 1071.61 1100.09 1070.34 Q1101.36 1069.03 1103.29 1069.03 Q1105.13 1069.03 1106.36 1070.26 Q1107.63 1071.45 1107.63 1073.41 Q1107.63 1075.34 1106.28 1076.61 Q1104.97 1077.84 1103.29 1077.84 Q1101.36 1077.84 1100.09 1076.49 Z" fill="#000000" fill-rule="evenodd" fill-opacity="1" /><path clip-path="url(#clip160)" d="M1121.92 1050.99 Q1121.92 1038.65 1125.03 1031.93 Q1129.38 1021.93 1139.62 1021.93 Q1141.8 1021.93 1144.05 1022.55 Q1146.35 1023.12 1149.21 1025.37 Q1152.13 1027.63 1153.89 1031.32 Q1157.25 1038.45 1157.25 1050.99 Q1157.25 1063.25 1154.13 1069.93 Q1149.58 1079.68 1139.54 1079.68 Q1135.77 1079.68 1131.92 1077.76 Q1128.11 1075.83 1125.69 1071.2 Q1121.92 1064.27 1121.92 1050.99 M1128.88 1049.97 Q1128.88 1062.63 1129.79 1067.67 Q1130.81 1073.13 1133.6 1075.5 Q1136.43 1077.84 1139.54 1077.84 Q1142.9 1077.84 1145.69 1075.34 Q1148.52 1072.8 1149.38 1067.35 Q1150.32 1061.98 1150.28 1049.97 Q1150.28 1038.29 1149.46 1033.61 Q1148.35 1028.16 1145.4 1025.99 Q1142.49 1023.78 1139.54 1023.78 Q1138.43 1023.78 1137.25 1024.1 Q1136.1 1024.43 1134.42 1025.37 Q1132.74 1026.32 1131.43 1028.65 Q1130.15 1030.99 1129.54 1034.51 Q1128.88 1039.06 1128.88 1049.97 Z" fill="#000000" fill-rule="evenodd" fill-opacity="1" /><path clip-path="url(#clip160)" d="M1163.82 1064.31 Q1163.82 1061.81 1165.17 1060.87 Q1166.53 1059.89 1167.96 1059.89 Q1169.89 1059.89 1170.99 1061.12 Q1172.14 1062.31 1172.14 1063.99 Q1172.14 1065.67 1170.99 1066.9 Q1169.89 1068.08 1167.96 1068.08 Q1167.02 1068.08 1166.53 1067.92 Q1167.63 1071.77 1170.99 1074.56 Q1174.4 1077.35 1178.86 1077.35 Q1184.48 1077.35 1187.84 1071.9 Q1189.85 1068.37 1189.85 1060.38 Q1189.85 1053.33 1188.33 1049.8 Q1186 1044.43 1181.2 1044.43 Q1174.4 1044.43 1170.38 1050.3 Q1169.89 1051.03 1169.31 1051.07 Q1168.49 1051.07 1168.29 1050.62 Q1168.12 1050.13 1168.12 1048.86 L1168.12 1024.02 Q1168.12 1022.01 1168.94 1022.01 Q1169.27 1022.01 1169.97 1022.26 Q1175.26 1024.6 1181.12 1024.64 Q1187.14 1024.64 1192.55 1022.18 Q1192.96 1021.93 1193.21 1021.93 Q1194.03 1021.93 1194.07 1022.87 Q1194.07 1023.2 1193.37 1024.19 Q1192.72 1025.13 1191.28 1026.4 Q1189.85 1027.63 1188 1028.82 Q1186.16 1030.01 1183.45 1030.83 Q1180.79 1031.6 1177.84 1031.6 Q1174.31 1031.6 1170.71 1030.5 L1170.71 1046.85 Q1175.05 1042.59 1181.36 1042.59 Q1188.09 1042.59 1192.72 1048 Q1197.35 1053.41 1197.35 1060.95 Q1197.35 1068.86 1191.86 1074.27 Q1186.41 1079.68 1179.03 1079.68 Q1172.31 1079.68 1168.04 1074.89 Q1163.82 1070.09 1163.82 1064.31 Z" fill="#000000" fill-rule="evenodd" fill-opacity="1" /><polyline clip-path="url(#clip164)" style="stroke:#009af9; stroke-linecap:butt; stroke-linejoin:round; stroke-width:4; stroke-opacity:1; fill:none" points="
  276.687,1456.44 307.96,1456.43 743.38,1455.61 817.955,1454.55 846.822,1453.31 862.86,1451.72 872.482,1449.79 878.897,1447.44 883.709,1444.28 886.916,1440.62 
  889.322,1435.96 890.926,1430.74 891.728,1426.83 892.529,1421.25 893.331,1412.56 894.133,1396.88 894.935,1359.8 895.737,1170.86 896.539,1742.56 897.341,1553.63 
  898.143,1516.55 898.944,1500.86 899.746,1492.17 900.548,1486.6 901.35,1482.69 902.954,1477.47 905.359,1472.81 908.567,1469.15 913.378,1465.99 919.793,1463.63 
  929.416,1461.71 945.453,1460.12 974.321,1458.87 1048.9,1457.82 1484.32,1457 1515.59,1456.99 
  "/>
<circle clip-path="url(#clip164)" cx="276.687" cy="1456.44" r="14" fill="#009af9" fill-rule="evenodd" fill-opacity="1" stroke="#000000" stroke-opacity="1" stroke-width="3.2"/>
<circle clip-path="url(#clip164)" cx="307.96" cy="1456.43" r="14" fill="#009af9" fill-rule="evenodd" fill-opacity="1" stroke="#000000" stroke-opacity="1" stroke-width="3.2"/>
<circle clip-path="url(#clip164)" cx="743.38" cy="1455.61" r="14" fill="#009af9" fill-rule="evenodd" fill-opacity="1" stroke="#000000" stroke-opacity="1" stroke-width="3.2"/>
<circle clip-path="url(#clip164)" cx="817.955" cy="1454.55" r="14" fill="#009af9" fill-rule="evenodd" fill-opacity="1" stroke="#000000" stroke-opacity="1" stroke-width="3.2"/>
<circle clip-path="url(#clip164)" cx="846.822" cy="1453.31" r="14" fill="#009af9" fill-rule="evenodd" fill-opacity="1" stroke="#000000" stroke-opacity="1" stroke-width="3.2"/>
<circle clip-path="url(#clip164)" cx="862.86" cy="1451.72" r="14" fill="#009af9" fill-rule="evenodd" fill-opacity="1" stroke="#000000" stroke-opacity="1" stroke-width="3.2"/>
<circle clip-path="url(#clip164)" cx="872.482" cy="1449.79" r="14" fill="#009af9" fill-rule="evenodd" fill-opacity="1" stroke="#000000" stroke-opacity="1" stroke-width="3.2"/>
<circle clip-path="url(#clip164)" cx="878.897" cy="1447.44" r="14" fill="#009af9" fill-rule="evenodd" fill-opacity="1" stroke="#000000" stroke-opacity="1" stroke-width="3.2"/>
<circle clip-path="url(#clip164)" cx="883.709" cy="1444.28" r="14" fill="#009af9" fill-rule="evenodd" fill-opacity="1" stroke="#000000" stroke-opacity="1" stroke-width="3.2"/>
<circle clip-path="url(#clip164)" cx="886.916" cy="1440.62" r="14" fill="#009af9" fill-rule="evenodd" fill-opacity="1" stroke="#000000" stroke-opacity="1" stroke-width="3.2"/>
<circle clip-path="url(#clip164)" cx="889.322" cy="1435.96" r="14" fill="#009af9" fill-rule="evenodd" fill-opacity="1" stroke="#000000" stroke-opacity="1" stroke-width="3.2"/>
<circle clip-path="url(#clip164)" cx="890.926" cy="1430.74" r="14" fill="#009af9" fill-rule="evenodd" fill-opacity="1" stroke="#000000" stroke-opacity="1" stroke-width="3.2"/>
<circle clip-path="url(#clip164)" cx="891.728" cy="1426.83" r="14" fill="#009af9" fill-rule="evenodd" fill-opacity="1" stroke="#000000" stroke-opacity="1" stroke-width="3.2"/>
<circle clip-path="url(#clip164)" cx="892.529" cy="1421.25" r="14" fill="#009af9" fill-rule="evenodd" fill-opacity="1" stroke="#000000" stroke-opacity="1" stroke-width="3.2"/>
<circle clip-path="url(#clip164)" cx="893.331" cy="1412.56" r="14" fill="#009af9" fill-rule="evenodd" fill-opacity="1" stroke="#000000" stroke-opacity="1" stroke-width="3.2"/>
<circle clip-path="url(#clip164)" cx="894.133" cy="1396.88" r="14" fill="#009af9" fill-rule="evenodd" fill-opacity="1" stroke="#000000" stroke-opacity="1" stroke-width="3.2"/>
<circle clip-path="url(#clip164)" cx="894.935" cy="1359.8" r="14" fill="#009af9" fill-rule="evenodd" fill-opacity="1" stroke="#000000" stroke-opacity="1" stroke-width="3.2"/>
<circle clip-path="url(#clip164)" cx="895.737" cy="1170.86" r="14" fill="#009af9" fill-rule="evenodd" fill-opacity="1" stroke="#000000" stroke-opacity="1" stroke-width="3.2"/>
<circle clip-path="url(#clip164)" cx="896.539" cy="1742.56" r="14" fill="#009af9" fill-rule="evenodd" fill-opacity="1" stroke="#000000" stroke-opacity="1" stroke-width="3.2"/>
<circle clip-path="url(#clip164)" cx="897.341" cy="1553.63" r="14" fill="#009af9" fill-rule="evenodd" fill-opacity="1" stroke="#000000" stroke-opacity="1" stroke-width="3.2"/>
<circle clip-path="url(#clip164)" cx="898.143" cy="1516.55" r="14" fill="#009af9" fill-rule="evenodd" fill-opacity="1" stroke="#000000" stroke-opacity="1" stroke-width="3.2"/>
<circle clip-path="url(#clip164)" cx="898.944" cy="1500.86" r="14" fill="#009af9" fill-rule="evenodd" fill-opacity="1" stroke="#000000" stroke-opacity="1" stroke-width="3.2"/>
<circle clip-path="url(#clip164)" cx="899.746" cy="1492.17" r="14" fill="#009af9" fill-rule="evenodd" fill-opacity="1" stroke="#000000" stroke-opacity="1" stroke-width="3.2"/>
<circle clip-path="url(#clip164)" cx="900.548" cy="1486.6" r="14" fill="#009af9" fill-rule="evenodd" fill-opacity="1" stroke="#000000" stroke-opacity="1" stroke-width="3.2"/>
<circle clip-path="url(#clip164)" cx="901.35" cy="1482.69" r="14" fill="#009af9" fill-rule="evenodd" fill-opacity="1" stroke="#000000" stroke-opacity="1" stroke-width="3.2"/>
<circle clip-path="url(#clip164)" cx="902.954" cy="1477.47" r="14" fill="#009af9" fill-rule="evenodd" fill-opacity="1" stroke="#000000" stroke-opacity="1" stroke-width="3.2"/>
<circle clip-path="url(#clip164)" cx="905.359" cy="1472.81" r="14" fill="#009af9" fill-rule="evenodd" fill-opacity="1" stroke="#000000" stroke-opacity="1" stroke-width="3.2"/>
<circle clip-path="url(#clip164)" cx="908.567" cy="1469.15" r="14" fill="#009af9" fill-rule="evenodd" fill-opacity="1" stroke="#000000" stroke-opacity="1" stroke-width="3.2"/>
<circle clip-path="url(#clip164)" cx="913.378" cy="1465.99" r="14" fill="#009af9" fill-rule="evenodd" fill-opacity="1" stroke="#000000" stroke-opacity="1" stroke-width="3.2"/>
<circle clip-path="url(#clip164)" cx="919.793" cy="1463.63" r="14" fill="#009af9" fill-rule="evenodd" fill-opacity="1" stroke="#000000" stroke-opacity="1" stroke-width="3.2"/>
<circle clip-path="url(#clip164)" cx="929.416" cy="1461.71" r="14" fill="#009af9" fill-rule="evenodd" fill-opacity="1" stroke="#000000" stroke-opacity="1" stroke-width="3.2"/>
<circle clip-path="url(#clip164)" cx="945.453" cy="1460.12" r="14" fill="#009af9" fill-rule="evenodd" fill-opacity="1" stroke="#000000" stroke-opacity="1" stroke-width="3.2"/>
<circle clip-path="url(#clip164)" cx="974.321" cy="1458.87" r="14" fill="#009af9" fill-rule="evenodd" fill-opacity="1" stroke="#000000" stroke-opacity="1" stroke-width="3.2"/>
<circle clip-path="url(#clip164)" cx="1048.9" cy="1457.82" r="14" fill="#009af9" fill-rule="evenodd" fill-opacity="1" stroke="#000000" stroke-opacity="1" stroke-width="3.2"/>
<circle clip-path="url(#clip164)" cx="1484.32" cy="1457" r="14" fill="#009af9" fill-rule="evenodd" fill-opacity="1" stroke="#000000" stroke-opacity="1" stroke-width="3.2"/>
<circle clip-path="url(#clip164)" cx="1515.59" cy="1456.99" r="14" fill="#009af9" fill-rule="evenodd" fill-opacity="1" stroke="#000000" stroke-opacity="1" stroke-width="3.2"/>
</svg>
