<?xml version="1.0" encoding="utf-8"?>
<svg xmlns="http://www.w3.org/2000/svg" xmlns:xlink="http://www.w3.org/1999/xlink" width="400" height="300" viewBox="0 0 1600 1200">
<defs>
  <clipPath id="clip030">
    <rect x="0" y="0" width="1600" height="1200"/>
  </clipPath>
</defs>
<path clip-path="url(#clip030)" d="
M0 1200 L1600 1200 L1600 0 L0 0  Z
  " fill="#ffffff" fill-rule="evenodd" fill-opacity="1"/>
<defs>
  <clipPath id="clip031">
    <rect x="320" y="0" width="1121" height="1121"/>
  </clipPath>
</defs>
<defs>
  <clipPath id="clip032">
    <rect x="196" y="522" width="1047" height="486"/>
  </clipPath>
</defs>
<path clip-path="url(#clip030)" d="
M290.079 1016.92 L1552.76 1016.92 L1552.76 131.032 L290.079 131.032  Z
  " fill="#ffffff" fill-rule="evenodd" fill-opacity="1"/>
<defs>
  <clipPath id="clip033">
    <rect x="290" y="131" width="1264" height="887"/>
  </clipPath>
</defs>
<polyline clip-path="url(#clip033)" style="stroke:#000000; stroke-linecap:butt; stroke-linejoin:round; stroke-width:2; stroke-opacity:0.1; fill:none" points="
  325.815,1016.92 325.815,131.032 
  "/>
<polyline clip-path="url(#clip033)" style="stroke:#000000; stroke-linecap:butt; stroke-linejoin:round; stroke-width:2; stroke-opacity:0.1; fill:none" points="
  509.077,1016.92 509.077,131.032 
  "/>
<polyline clip-path="url(#clip033)" style="stroke:#000000; stroke-linecap:butt; stroke-linejoin:round; stroke-width:2; stroke-opacity:0.1; fill:none" points="
  692.34,1016.92 692.34,131.032 
  "/>
<polyline clip-path="url(#clip033)" style="stroke:#000000; stroke-linecap:butt; stroke-linejoin:round; stroke-width:2; stroke-opacity:0.1; fill:none" points="
  875.602,1016.92 875.602,131.032 
  "/>
<polyline clip-path="url(#clip033)" style="stroke:#000000; stroke-linecap:butt; stroke-linejoin:round; stroke-width:2; stroke-opacity:0.1; fill:none" points="
  1058.86,1016.92 1058.86,131.032 
  "/>
<polyline clip-path="url(#clip033)" style="stroke:#000000; stroke-linecap:butt; stroke-linejoin:round; stroke-width:2; stroke-opacity:0.1; fill:none" points="
  1242.13,1016.92 1242.13,131.032 
  "/>
<polyline clip-path="url(#clip033)" style="stroke:#000000; stroke-linecap:butt; stroke-linejoin:round; stroke-width:2; stroke-opacity:0.1; fill:none" points="
  1425.39,1016.92 1425.39,131.032 
  "/>
<polyline clip-path="url(#clip030)" style="stroke:#000000; stroke-linecap:butt; stroke-linejoin:round; stroke-width:4; stroke-opacity:1; fill:none" points="
  290.079,1016.92 1552.76,1016.92 
  "/>
<polyline clip-path="url(#clip030)" style="stroke:#000000; stroke-linecap:butt; stroke-linejoin:round; stroke-width:4; stroke-opacity:1; fill:none" points="
  325.815,1016.92 325.815,998.022 
  "/>
<polyline clip-path="url(#clip030)" style="stroke:#000000; stroke-linecap:butt; stroke-linejoin:round; stroke-width:4; stroke-opacity:1; fill:none" points="
  509.077,1016.92 509.077,998.022 
  "/>
<polyline clip-path="url(#clip030)" style="stroke:#000000; stroke-linecap:butt; stroke-linejoin:round; stroke-width:4; stroke-opacity:1; fill:none" points="
  692.34,1016.92 692.34,998.022 
  "/>
<polyline clip-path="url(#clip030)" style="stroke:#000000; stroke-linecap:butt; stroke-linejoin:round; stroke-width:4; stroke-opacity:1; fill:none" points="
  875.602,1016.92 875.602,998.022 
  "/>
<polyline clip-path="url(#clip030)" style="stroke:#000000; stroke-linecap:butt; stroke-linejoin:round; stroke-width:4; stroke-opacity:1; fill:none" points="
  1058.86,1016.92 1058.86,998.022 
  "/>
<polyline clip-path="url(#clip030)" style="stroke:#000000; stroke-linecap:butt; stroke-linejoin:round; stroke-width:4; stroke-opacity:1; fill:none" points="
  1242.13,1016.92 1242.13,998.022 
  "/>
<polyline clip-path="url(#clip030)" style="stroke:#000000; stroke-linecap:butt; stroke-linejoin:round; stroke-width:4; stroke-opacity:1; fill:none" points="
  1425.39,1016.92 1425.39,998.022 
  "/>
<path clip-path="url(#clip030)" d="M325.815 1041.44 Q322.204 1041.44 320.375 1045 Q318.57 1048.54 318.57 1055.67 Q318.57 1062.78 320.375 1066.35 Q322.204 1069.89 325.815 1069.89 Q329.449 1069.89 331.255 1066.35 Q333.084 1062.78 333.084 1055.67 Q333.084 1048.54 331.255 1045 Q329.449 1041.44 325.815 1041.44 M325.815 1037.73 Q331.625 1037.73 334.681 1042.34 Q337.759 1046.92 337.759 1055.67 Q337.759 1064.4 334.681 1069.01 Q331.625 1073.59 325.815 1073.59 Q320.005 1073.59 316.926 1069.01 Q313.871 1064.4 313.871 1055.67 Q313.871 1046.92 316.926 1042.34 Q320.005 1037.73 325.815 1037.73 Z" fill="#000000" fill-rule="evenodd" fill-opacity="1" /><path clip-path="url(#clip030)" d="M499.459 1068.98 L507.098 1068.98 L507.098 1042.62 L498.788 1044.29 L498.788 1040.03 L507.052 1038.36 L511.728 1038.36 L511.728 1068.98 L519.367 1068.98 L519.367 1072.92 L499.459 1072.92 L499.459 1068.98 Z" fill="#000000" fill-rule="evenodd" fill-opacity="1" /><path clip-path="url(#clip030)" d="M686.992 1068.98 L703.312 1068.98 L703.312 1072.92 L681.367 1072.92 L681.367 1068.98 Q684.029 1066.23 688.613 1061.6 Q693.219 1056.95 694.4 1055.61 Q696.645 1053.08 697.525 1051.35 Q698.428 1049.59 698.428 1047.9 Q698.428 1045.14 696.483 1043.41 Q694.562 1041.67 691.46 1041.67 Q689.261 1041.67 686.807 1042.43 Q684.377 1043.2 681.599 1044.75 L681.599 1040.03 Q684.423 1038.89 686.877 1038.31 Q689.33 1037.73 691.367 1037.73 Q696.738 1037.73 699.932 1040.42 Q703.127 1043.11 703.127 1047.6 Q703.127 1049.73 702.316 1051.65 Q701.529 1053.54 699.423 1056.14 Q698.844 1056.81 695.742 1060.03 Q692.641 1063.22 686.992 1068.98 Z" fill="#000000" fill-rule="evenodd" fill-opacity="1" /><path clip-path="url(#clip030)" d="M879.85 1054.29 Q883.206 1055 885.081 1057.27 Q886.979 1059.54 886.979 1062.87 Q886.979 1067.99 883.461 1070.79 Q879.942 1073.59 873.461 1073.59 Q871.285 1073.59 868.97 1073.15 Q866.678 1072.73 864.225 1071.88 L864.225 1067.36 Q866.169 1068.5 868.484 1069.08 Q870.799 1069.66 873.322 1069.66 Q877.72 1069.66 880.012 1067.92 Q882.326 1066.18 882.326 1062.87 Q882.326 1059.82 880.174 1058.11 Q878.044 1056.37 874.225 1056.37 L870.197 1056.37 L870.197 1052.53 L874.41 1052.53 Q877.859 1052.53 879.687 1051.16 Q881.516 1049.77 881.516 1047.18 Q881.516 1044.52 879.618 1043.11 Q877.743 1041.67 874.225 1041.67 Q872.303 1041.67 870.104 1042.09 Q867.905 1042.5 865.266 1043.38 L865.266 1039.22 Q867.928 1038.48 870.243 1038.11 Q872.581 1037.73 874.641 1037.73 Q879.965 1037.73 883.067 1040.17 Q886.169 1042.57 886.169 1046.69 Q886.169 1049.56 884.525 1051.55 Q882.882 1053.52 879.85 1054.29 Z" fill="#000000" fill-rule="evenodd" fill-opacity="1" /><path clip-path="url(#clip030)" d="M1061.87 1042.43 L1050.07 1060.88 L1061.87 1060.88 L1061.87 1042.43 M1060.65 1038.36 L1066.53 1038.36 L1066.53 1060.88 L1071.46 1060.88 L1071.46 1064.77 L1066.53 1064.77 L1066.53 1072.92 L1061.87 1072.92 L1061.87 1064.77 L1046.27 1064.77 L1046.27 1060.26 L1060.65 1038.36 Z" fill="#000000" fill-rule="evenodd" fill-opacity="1" /><path clip-path="url(#clip030)" d="M1232.4 1038.36 L1250.76 1038.36 L1250.76 1042.3 L1236.69 1042.3 L1236.69 1050.77 Q1237.71 1050.42 1238.72 1050.26 Q1239.74 1050.07 1240.76 1050.07 Q1246.55 1050.07 1249.93 1053.24 Q1253.31 1056.42 1253.31 1061.83 Q1253.31 1067.41 1249.83 1070.51 Q1246.36 1073.59 1240.04 1073.59 Q1237.87 1073.59 1235.6 1073.22 Q1233.35 1072.85 1230.95 1072.11 L1230.95 1067.41 Q1233.03 1068.54 1235.25 1069.1 Q1237.47 1069.66 1239.95 1069.66 Q1243.96 1069.66 1246.29 1067.55 Q1248.63 1065.44 1248.63 1061.83 Q1248.63 1058.22 1246.29 1056.11 Q1243.96 1054.01 1239.95 1054.01 Q1238.08 1054.01 1236.2 1054.42 Q1234.35 1054.84 1232.4 1055.72 L1232.4 1038.36 Z" fill="#000000" fill-rule="evenodd" fill-opacity="1" /><path clip-path="url(#clip030)" d="M1425.79 1053.78 Q1422.65 1053.78 1420.79 1055.93 Q1418.97 1058.08 1418.97 1061.83 Q1418.97 1065.56 1420.79 1067.73 Q1422.65 1069.89 1425.79 1069.89 Q1428.94 1069.89 1430.77 1067.73 Q1432.62 1065.56 1432.62 1061.83 Q1432.62 1058.08 1430.77 1055.93 Q1428.94 1053.78 1425.79 1053.78 M1435.08 1039.12 L1435.08 1043.38 Q1433.32 1042.55 1431.51 1042.11 Q1429.73 1041.67 1427.97 1041.67 Q1423.34 1041.67 1420.89 1044.79 Q1418.46 1047.92 1418.11 1054.24 Q1419.47 1052.23 1421.53 1051.16 Q1423.59 1050.07 1426.07 1050.07 Q1431.28 1050.07 1434.29 1053.24 Q1437.32 1056.39 1437.32 1061.83 Q1437.32 1067.16 1434.17 1070.37 Q1431.03 1073.59 1425.79 1073.59 Q1419.8 1073.59 1416.63 1069.01 Q1413.46 1064.4 1413.46 1055.67 Q1413.46 1047.48 1417.34 1042.62 Q1421.23 1037.73 1427.78 1037.73 Q1429.54 1037.73 1431.33 1038.08 Q1433.13 1038.43 1435.08 1039.12 Z" fill="#000000" fill-rule="evenodd" fill-opacity="1" /><path clip-path="url(#clip030)" d="M944.822 1098.55 Q944.822 1099.87 943.727 1099.87 Q941.795 1099.94 940.474 1100.32 Q939.154 1100.68 938.381 1101.38 Q937.64 1102.09 937.222 1102.87 Q936.835 1103.61 936.578 1104.73 L930.716 1128.15 Q929.041 1134.75 923.631 1139.55 Q918.22 1144.31 912.069 1144.31 Q908.558 1144.31 905.628 1142.87 Q902.729 1141.42 900.926 1138.49 Q899.122 1135.55 899.122 1131.66 Q899.122 1129.79 899.605 1127.83 L903.599 1111.53 L905.08 1105.73 Q906.175 1101.45 906.175 1101.06 Q906.175 1100.45 905.789 1100.29 Q905.434 1100.1 904.404 1100 L901.892 1099.87 Q901.119 1099.87 900.797 1099.84 Q900.507 1099.81 900.282 1099.65 Q900.056 1099.48 900.056 1099.13 Q900.056 1098.68 900.153 1098.39 Q900.282 1098.07 900.507 1097.97 Q900.732 1097.87 900.893 1097.84 Q901.054 1097.81 901.312 1097.81 L909.814 1098 L918.252 1097.81 Q919.186 1097.81 919.186 1098.55 Q919.186 1099.48 918.768 1099.68 Q918.349 1099.87 916.932 1099.87 Q914.517 1099.87 913.422 1100.19 Q912.359 1100.48 912.037 1101 Q911.747 1101.48 911.393 1102.9 L904.984 1128.57 Q904.662 1129.85 904.468 1131.14 Q904.307 1132.4 904.307 1133.04 L904.275 1133.69 Q904.275 1137.78 906.529 1140.03 Q908.816 1142.29 912.327 1142.29 Q917.479 1142.29 922.278 1138.2 Q927.109 1134.11 928.752 1127.7 L934.677 1104.15 Q934.871 1103.57 934.871 1102.77 Q934.871 1101.48 933.904 1100.71 Q932.97 1099.9 930.394 1099.87 Q929.202 1099.87 929.202 1099.13 Q929.202 1098.52 929.428 1098.23 Q929.685 1097.91 929.879 1097.87 Q930.104 1097.81 930.394 1097.81 Q931.489 1097.81 933.808 1097.91 Q936.127 1098 937.254 1098 Q938.381 1098 940.635 1097.91 Q942.89 1097.81 943.985 1097.81 Q944.371 1097.81 944.565 1098 Q944.79 1098.16 944.822 1098.36 L944.822 1098.55 Z" fill="#000000" fill-rule="evenodd" fill-opacity="1" /><polyline clip-path="url(#clip033)" style="stroke:#000000; stroke-linecap:butt; stroke-linejoin:round; stroke-width:2; stroke-opacity:0.1; fill:none" points="
  290.079,997.621 1552.76,997.621 
  "/>
<polyline clip-path="url(#clip033)" style="stroke:#000000; stroke-linecap:butt; stroke-linejoin:round; stroke-width:2; stroke-opacity:0.1; fill:none" points="
  290.079,787.242 1552.76,787.242 
  "/>
<polyline clip-path="url(#clip033)" style="stroke:#000000; stroke-linecap:butt; stroke-linejoin:round; stroke-width:2; stroke-opacity:0.1; fill:none" points="
  290.079,576.863 1552.76,576.863 
  "/>
<polyline clip-path="url(#clip033)" style="stroke:#000000; stroke-linecap:butt; stroke-linejoin:round; stroke-width:2; stroke-opacity:0.1; fill:none" points="
  290.079,366.484 1552.76,366.484 
  "/>
<polyline clip-path="url(#clip033)" style="stroke:#000000; stroke-linecap:butt; stroke-linejoin:round; stroke-width:2; stroke-opacity:0.1; fill:none" points="
  290.079,156.104 1552.76,156.104 
  "/>
<polyline clip-path="url(#clip030)" style="stroke:#000000; stroke-linecap:butt; stroke-linejoin:round; stroke-width:4; stroke-opacity:1; fill:none" points="
  290.079,1016.92 290.079,131.032 
  "/>
<polyline clip-path="url(#clip030)" style="stroke:#000000; stroke-linecap:butt; stroke-linejoin:round; stroke-width:4; stroke-opacity:1; fill:none" points="
  290.079,997.621 308.977,997.621 
  "/>
<polyline clip-path="url(#clip030)" style="stroke:#000000; stroke-linecap:butt; stroke-linejoin:round; stroke-width:4; stroke-opacity:1; fill:none" points="
  290.079,787.242 308.977,787.242 
  "/>
<polyline clip-path="url(#clip030)" style="stroke:#000000; stroke-linecap:butt; stroke-linejoin:round; stroke-width:4; stroke-opacity:1; fill:none" points="
  290.079,576.863 308.977,576.863 
  "/>
<polyline clip-path="url(#clip030)" style="stroke:#000000; stroke-linecap:butt; stroke-linejoin:round; stroke-width:4; stroke-opacity:1; fill:none" points="
  290.079,366.484 308.977,366.484 
  "/>
<polyline clip-path="url(#clip030)" style="stroke:#000000; stroke-linecap:butt; stroke-linejoin:round; stroke-width:4; stroke-opacity:1; fill:none" points="
  290.079,156.104 308.977,156.104 
  "/>
<path clip-path="url(#clip030)" d="M178.741 983.42 Q175.13 983.42 173.302 986.985 Q171.496 990.527 171.496 997.656 Q171.496 1004.76 173.302 1008.33 Q175.13 1011.87 178.741 1011.87 Q182.376 1011.87 184.181 1008.33 Q186.01 1004.76 186.01 997.656 Q186.01 990.527 184.181 986.985 Q182.376 983.42 178.741 983.42 M178.741 979.716 Q184.552 979.716 187.607 984.323 Q190.686 988.906 190.686 997.656 Q190.686 1006.38 187.607 1010.99 Q184.552 1015.57 178.741 1015.57 Q172.931 1015.57 169.853 1010.99 Q166.797 1006.38 166.797 997.656 Q166.797 988.906 169.853 984.323 Q172.931 979.716 178.741 979.716 Z" fill="#000000" fill-rule="evenodd" fill-opacity="1" /><path clip-path="url(#clip030)" d="M198.903 1009.02 L203.788 1009.02 L203.788 1014.9 L198.903 1014.9 L198.903 1009.02 Z" fill="#000000" fill-rule="evenodd" fill-opacity="1" /><path clip-path="url(#clip030)" d="M223.973 983.42 Q220.362 983.42 218.533 986.985 Q216.727 990.527 216.727 997.656 Q216.727 1004.76 218.533 1008.33 Q220.362 1011.87 223.973 1011.87 Q227.607 1011.87 229.412 1008.33 Q231.241 1004.76 231.241 997.656 Q231.241 990.527 229.412 986.985 Q227.607 983.42 223.973 983.42 M223.973 979.716 Q229.783 979.716 232.838 984.323 Q235.917 988.906 235.917 997.656 Q235.917 1006.38 232.838 1010.99 Q229.783 1015.57 223.973 1015.57 Q218.162 1015.57 215.084 1010.99 Q212.028 1006.38 212.028 997.656 Q212.028 988.906 215.084 984.323 Q218.162 979.716 223.973 979.716 Z" fill="#000000" fill-rule="evenodd" fill-opacity="1" /><path clip-path="url(#clip030)" d="M254.135 983.42 Q250.523 983.42 248.695 986.985 Q246.889 990.527 246.889 997.656 Q246.889 1004.76 248.695 1008.33 Q250.523 1011.87 254.135 1011.87 Q257.769 1011.87 259.574 1008.33 Q261.403 1004.76 261.403 997.656 Q261.403 990.527 259.574 986.985 Q257.769 983.42 254.135 983.42 M254.135 979.716 Q259.945 979.716 263 984.323 Q266.079 988.906 266.079 997.656 Q266.079 1006.38 263 1010.99 Q259.945 1015.57 254.135 1015.57 Q248.324 1015.57 245.246 1010.99 Q242.19 1006.38 242.19 997.656 Q242.19 988.906 245.246 984.323 Q248.324 979.716 254.135 979.716 Z" fill="#000000" fill-rule="evenodd" fill-opacity="1" /><path clip-path="url(#clip030)" d="M179.737 773.041 Q176.126 773.041 174.297 776.606 Q172.491 780.147 172.491 787.277 Q172.491 794.383 174.297 797.948 Q176.126 801.49 179.737 801.49 Q183.371 801.49 185.177 797.948 Q187.005 794.383 187.005 787.277 Q187.005 780.147 185.177 776.606 Q183.371 773.041 179.737 773.041 M179.737 769.337 Q185.547 769.337 188.602 773.944 Q191.681 778.527 191.681 787.277 Q191.681 796.004 188.602 800.61 Q185.547 805.193 179.737 805.193 Q173.927 805.193 170.848 800.61 Q167.792 796.004 167.792 787.277 Q167.792 778.527 170.848 773.944 Q173.927 769.337 179.737 769.337 Z" fill="#000000" fill-rule="evenodd" fill-opacity="1" /><path clip-path="url(#clip030)" d="M199.899 798.643 L204.783 798.643 L204.783 804.522 L199.899 804.522 L199.899 798.643 Z" fill="#000000" fill-rule="evenodd" fill-opacity="1" /><path clip-path="url(#clip030)" d="M218.996 800.587 L235.315 800.587 L235.315 804.522 L213.371 804.522 L213.371 800.587 Q216.033 797.832 220.616 793.203 Q225.223 788.55 226.403 787.207 Q228.649 784.684 229.528 782.948 Q230.431 781.189 230.431 779.499 Q230.431 776.745 228.487 775.008 Q226.565 773.272 223.463 773.272 Q221.264 773.272 218.811 774.036 Q216.38 774.8 213.602 776.351 L213.602 771.629 Q216.426 770.495 218.88 769.916 Q221.334 769.337 223.371 769.337 Q228.741 769.337 231.936 772.022 Q235.13 774.708 235.13 779.198 Q235.13 781.328 234.32 783.249 Q233.533 785.147 231.426 787.74 Q230.848 788.411 227.746 791.629 Q224.644 794.823 218.996 800.587 Z" fill="#000000" fill-rule="evenodd" fill-opacity="1" /><path clip-path="url(#clip030)" d="M245.176 769.962 L263.533 769.962 L263.533 773.897 L249.459 773.897 L249.459 782.37 Q250.477 782.022 251.496 781.86 Q252.514 781.675 253.533 781.675 Q259.32 781.675 262.699 784.846 Q266.079 788.018 266.079 793.434 Q266.079 799.013 262.607 802.115 Q259.135 805.193 252.815 805.193 Q250.639 805.193 248.371 804.823 Q246.125 804.453 243.718 803.712 L243.718 799.013 Q245.801 800.147 248.023 800.703 Q250.246 801.258 252.722 801.258 Q256.727 801.258 259.065 799.152 Q261.403 797.045 261.403 793.434 Q261.403 789.823 259.065 787.717 Q256.727 785.61 252.722 785.61 Q250.848 785.61 248.973 786.027 Q247.121 786.444 245.176 787.323 L245.176 769.962 Z" fill="#000000" fill-rule="evenodd" fill-opacity="1" /><path clip-path="url(#clip030)" d="M178.741 562.662 Q175.13 562.662 173.302 566.226 Q171.496 569.768 171.496 576.898 Q171.496 584.004 173.302 587.569 Q175.13 591.111 178.741 591.111 Q182.376 591.111 184.181 587.569 Q186.01 584.004 186.01 576.898 Q186.01 569.768 184.181 566.226 Q182.376 562.662 178.741 562.662 M178.741 558.958 Q184.552 558.958 187.607 563.564 Q190.686 568.148 190.686 576.898 Q190.686 585.624 187.607 590.231 Q184.552 594.814 178.741 594.814 Q172.931 594.814 169.853 590.231 Q166.797 585.624 166.797 576.898 Q166.797 568.148 169.853 563.564 Q172.931 558.958 178.741 558.958 Z" fill="#000000" fill-rule="evenodd" fill-opacity="1" /><path clip-path="url(#clip030)" d="M198.903 588.263 L203.788 588.263 L203.788 594.143 L198.903 594.143 L198.903 588.263 Z" fill="#000000" fill-rule="evenodd" fill-opacity="1" /><path clip-path="url(#clip030)" d="M214.019 559.583 L232.375 559.583 L232.375 563.518 L218.301 563.518 L218.301 571.99 Q219.32 571.643 220.338 571.481 Q221.357 571.296 222.375 571.296 Q228.162 571.296 231.542 574.467 Q234.922 577.638 234.922 583.055 Q234.922 588.634 231.449 591.736 Q227.977 594.814 221.658 594.814 Q219.482 594.814 217.213 594.444 Q214.968 594.073 212.561 593.333 L212.561 588.634 Q214.644 589.768 216.866 590.323 Q219.088 590.879 221.565 590.879 Q225.57 590.879 227.908 588.773 Q230.246 586.666 230.246 583.055 Q230.246 579.444 227.908 577.337 Q225.57 575.231 221.565 575.231 Q219.69 575.231 217.815 575.648 Q215.963 576.064 214.019 576.944 L214.019 559.583 Z" fill="#000000" fill-rule="evenodd" fill-opacity="1" /><path clip-path="url(#clip030)" d="M254.135 562.662 Q250.523 562.662 248.695 566.226 Q246.889 569.768 246.889 576.898 Q246.889 584.004 248.695 587.569 Q250.523 591.111 254.135 591.111 Q257.769 591.111 259.574 587.569 Q261.403 584.004 261.403 576.898 Q261.403 569.768 259.574 566.226 Q257.769 562.662 254.135 562.662 M254.135 558.958 Q259.945 558.958 263 563.564 Q266.079 568.148 266.079 576.898 Q266.079 585.624 263 590.231 Q259.945 594.814 254.135 594.814 Q248.324 594.814 245.246 590.231 Q242.19 585.624 242.19 576.898 Q242.19 568.148 245.246 563.564 Q248.324 558.958 254.135 558.958 Z" fill="#000000" fill-rule="evenodd" fill-opacity="1" /><path clip-path="url(#clip030)" d="M179.737 352.282 Q176.126 352.282 174.297 355.847 Q172.491 359.389 172.491 366.518 Q172.491 373.625 174.297 377.19 Q176.126 380.731 179.737 380.731 Q183.371 380.731 185.177 377.19 Q187.005 373.625 187.005 366.518 Q187.005 359.389 185.177 355.847 Q183.371 352.282 179.737 352.282 M179.737 348.579 Q185.547 348.579 188.602 353.185 Q191.681 357.768 191.681 366.518 Q191.681 375.245 188.602 379.852 Q185.547 384.435 179.737 384.435 Q173.927 384.435 170.848 379.852 Q167.792 375.245 167.792 366.518 Q167.792 357.768 170.848 353.185 Q173.927 348.579 179.737 348.579 Z" fill="#000000" fill-rule="evenodd" fill-opacity="1" /><path clip-path="url(#clip030)" d="M199.899 377.884 L204.783 377.884 L204.783 383.764 L199.899 383.764 L199.899 377.884 Z" fill="#000000" fill-rule="evenodd" fill-opacity="1" /><path clip-path="url(#clip030)" d="M213.788 349.204 L236.01 349.204 L236.01 351.194 L223.463 383.764 L218.579 383.764 L230.385 353.139 L213.788 353.139 L213.788 349.204 Z" fill="#000000" fill-rule="evenodd" fill-opacity="1" /><path clip-path="url(#clip030)" d="M245.176 349.204 L263.533 349.204 L263.533 353.139 L249.459 353.139 L249.459 361.611 Q250.477 361.264 251.496 361.102 Q252.514 360.917 253.533 360.917 Q259.32 360.917 262.699 364.088 Q266.079 367.259 266.079 372.676 Q266.079 378.254 262.607 381.356 Q259.135 384.435 252.815 384.435 Q250.639 384.435 248.371 384.065 Q246.125 383.694 243.718 382.953 L243.718 378.254 Q245.801 379.389 248.023 379.944 Q250.246 380.5 252.722 380.5 Q256.727 380.5 259.065 378.393 Q261.403 376.287 261.403 372.676 Q261.403 369.065 259.065 366.958 Q256.727 364.852 252.722 364.852 Q250.848 364.852 248.973 365.268 Q247.121 365.685 245.176 366.565 L245.176 349.204 Z" fill="#000000" fill-rule="evenodd" fill-opacity="1" /><path clip-path="url(#clip030)" d="M169.552 169.449 L177.19 169.449 L177.19 143.084 L168.88 144.75 L168.88 140.491 L177.144 138.824 L181.82 138.824 L181.82 169.449 L189.459 169.449 L189.459 173.384 L169.552 173.384 L169.552 169.449 Z" fill="#000000" fill-rule="evenodd" fill-opacity="1" /><path clip-path="url(#clip030)" d="M198.903 167.505 L203.788 167.505 L203.788 173.384 L198.903 173.384 L198.903 167.505 Z" fill="#000000" fill-rule="evenodd" fill-opacity="1" /><path clip-path="url(#clip030)" d="M223.973 141.903 Q220.362 141.903 218.533 145.468 Q216.727 149.01 216.727 156.139 Q216.727 163.246 218.533 166.81 Q220.362 170.352 223.973 170.352 Q227.607 170.352 229.412 166.81 Q231.241 163.246 231.241 156.139 Q231.241 149.01 229.412 145.468 Q227.607 141.903 223.973 141.903 M223.973 138.199 Q229.783 138.199 232.838 142.806 Q235.917 147.389 235.917 156.139 Q235.917 164.866 232.838 169.472 Q229.783 174.056 223.973 174.056 Q218.162 174.056 215.084 169.472 Q212.028 164.866 212.028 156.139 Q212.028 147.389 215.084 142.806 Q218.162 138.199 223.973 138.199 Z" fill="#000000" fill-rule="evenodd" fill-opacity="1" /><path clip-path="url(#clip030)" d="M254.135 141.903 Q250.523 141.903 248.695 145.468 Q246.889 149.01 246.889 156.139 Q246.889 163.246 248.695 166.81 Q250.523 170.352 254.135 170.352 Q257.769 170.352 259.574 166.81 Q261.403 163.246 261.403 156.139 Q261.403 149.01 259.574 145.468 Q257.769 141.903 254.135 141.903 M254.135 138.199 Q259.945 138.199 263 142.806 Q266.079 147.389 266.079 156.139 Q266.079 164.866 263 169.472 Q259.945 174.056 254.135 174.056 Q248.324 174.056 245.246 169.472 Q242.19 164.866 242.19 156.139 Q242.19 147.389 245.246 142.806 Q248.324 138.199 254.135 138.199 Z" fill="#000000" fill-rule="evenodd" fill-opacity="1" /><path clip-path="url(#clip030)" d="M79.3978 810.744 Q79.6233 810.744 80.5895 811.292 Q81.5234 811.807 83.8745 813.707 Q86.2255 815.607 88.963 818.441 Q90.0258 819.504 91.5072 821.114 Q92.9887 822.725 93.9549 823.82 L94.9211 824.915 Q98.4637 829.101 102.425 832.773 Q102.328 832.515 102.296 832.064 Q102.232 831.614 102.232 831.291 L102.232 830.969 Q102.232 829.295 103.359 826.364 Q104.196 823.787 104.196 822.467 Q104.196 821.179 103.745 819.762 Q103.295 818.345 101.974 816.799 Q100.654 815.253 98.657 814.544 Q98.3349 814.416 98.2383 814.351 Q98.1095 814.287 97.9806 814.094 Q97.8196 813.9 97.8196 813.643 Q97.8196 813.288 98.0128 813.063 Q98.2061 812.838 98.4637 812.838 Q99.0434 812.838 100.203 813.288 Q101.362 813.707 102.812 814.641 Q104.261 815.543 105.581 816.734 Q106.869 817.894 107.771 819.633 Q108.641 821.372 108.641 823.208 Q108.641 824.528 107.997 825.494 Q107.385 826.461 106.193 827.427 Q104.679 828.747 104.196 829.456 Q103.681 830.164 103.681 831.259 Q103.681 834.19 107.771 836.863 Q108.351 837.153 108.48 837.346 Q108.641 837.507 108.641 837.894 Q108.609 838.699 107.964 838.699 Q107.707 838.699 106.58 837.99 Q105.42 837.25 103.391 835.607 Q101.362 833.932 99.3333 831.903 L93.7939 825.977 Q88.2545 819.407 85.1305 816.799 Q85.1305 817.894 85.0983 818.377 Q85.0661 818.828 84.8728 819.73 Q84.6474 820.631 84.1643 821.887 Q83.1659 824.818 83.1659 826.042 Q83.1659 826.364 83.1981 826.718 Q83.2303 827.072 83.3914 827.878 Q83.5524 828.651 83.8745 829.295 Q84.1643 829.939 84.8084 830.615 Q85.4203 831.291 86.2577 831.646 Q86.5153 831.742 86.6442 831.807 Q86.773 831.871 86.9018 832.064 Q86.9984 832.225 86.9984 832.483 Q86.9984 832.87 86.773 833.095 Q86.5475 833.288 86.2577 833.288 Q85.678 833.288 84.4864 832.709 Q83.2948 832.129 82.0065 831.163 Q80.6861 830.196 79.7199 828.618 Q78.7537 827.04 78.7537 825.301 Q78.7537 824.271 79.2046 823.401 Q79.6555 822.499 80.1386 822.048 Q80.5895 821.565 81.5878 820.76 Q82.3608 820.084 82.6828 819.762 Q83.0049 819.44 83.3592 818.796 Q83.6812 818.119 83.6812 817.379 Q83.6812 816.155 82.7473 815.028 Q81.7811 813.9 79.4623 812.451 Q78.7537 812.065 78.7537 811.453 Q78.7537 810.744 79.3978 810.744 Z" fill="#000000" fill-rule="evenodd" fill-opacity="1" /><path clip-path="url(#clip030)" d="M97.884 790.036 Q97.0789 789.972 97.0789 788.716 L97.0789 748.298 Q97.0789 746.397 97.8196 746.365 Q98.6247 746.365 98.5925 748.169 L98.5925 788.265 Q98.6247 790.036 97.884 790.036 M85.0017 790.036 Q84.1965 790.036 84.2287 788.652 L84.2287 748.362 Q84.2287 746.397 85.0017 746.365 Q85.7424 746.365 85.7424 748.04 L85.7424 788.716 Q85.7424 790.036 85.0017 790.036 Z" fill="#000000" fill-rule="evenodd" fill-opacity="1" /><path clip-path="url(#clip030)" d="M91.4106 720.929 Q80.2674 720.929 71.282 716.774 Q67.5139 715.003 64.3577 712.523 Q61.2015 710.043 59.8167 708.401 Q58.4318 706.758 58.4318 706.307 Q58.4318 705.663 59.0759 705.631 Q59.398 705.631 60.2032 706.5 Q71.0243 717.128 91.4106 717.096 Q111.861 717.096 122.264 706.758 Q123.391 705.631 123.745 705.631 Q124.389 705.631 124.389 706.307 Q124.389 706.758 123.069 708.336 Q121.749 709.914 118.721 712.362 Q115.694 714.81 111.99 716.581 Q103.005 720.929 91.4106 720.929 Z" fill="#000000" fill-rule="evenodd" fill-opacity="1" /><path clip-path="url(#clip030)" d="M70.2514 696.923 L68.1902 696.923 Q68.1902 689.001 63.9712 684.911 Q63.9712 683.783 64.2289 683.59 Q64.4865 683.397 65.6781 683.397 L102.683 683.397 Q104.647 683.397 105.259 682.431 Q105.871 681.465 105.871 677.246 L105.871 675.152 L107.9 675.152 Q107.707 677.471 107.707 685.845 Q107.707 694.218 107.9 696.505 L105.871 696.505 L105.871 694.411 Q105.871 690.257 105.291 689.258 Q104.679 688.26 102.683 688.26 L68.5123 688.26 Q70.2514 691.706 70.2514 696.923 Z" fill="#000000" fill-rule="evenodd" fill-opacity="1" /><path clip-path="url(#clip030)" d="M90.4767 602.422 Q90.8631 602.036 91.4106 602.036 Q91.9581 602.036 92.3446 602.422 Q92.7311 602.809 92.7311 603.356 L92.7311 644.644 Q92.7311 645.191 92.3446 645.578 Q91.9581 645.964 91.4106 645.964 Q90.8631 645.964 90.4767 645.578 Q90.0902 645.191 90.0902 644.644 L90.0902 603.356 Q90.0902 602.809 90.4767 602.422 Z" fill="#000000" fill-rule="evenodd" fill-opacity="1" /><path clip-path="url(#clip030)" d="M44.1445 528.091 Q46.2379 528.091 48.8788 528.51 Q51.4874 528.928 54.547 529.83 Q57.5744 530.732 60.5695 532.02 Q63.5324 533.308 66.3021 535.208 Q69.0396 537.076 71.133 539.299 Q73.2264 541.521 74.4824 544.452 Q75.7385 547.382 75.7385 550.635 Q75.7385 553.276 74.9011 555.434 Q74.0638 557.592 72.8077 558.912 Q71.5195 560.232 69.9092 561.166 Q68.2989 562.068 66.8174 562.422 Q65.336 562.777 64.0155 562.777 Q62.9527 562.777 61.7289 562.616 Q60.5051 562.422 58.5727 561.907 Q56.6082 561.36 54.4504 560.071 Q52.2604 558.751 50.3602 556.851 Q46.7854 553.276 45.465 550.055 Q44.1445 546.835 44.1445 543.389 Q44.1445 539.75 46.3667 537.592 Q48.5889 535.402 51.9383 534.886 Q45.0463 533.018 40.6663 533.018 Q37.6067 533.018 35.2557 533.824 Q32.8725 534.597 31.4876 535.949 Q30.1028 537.27 29.4264 538.944 Q28.7179 540.587 28.7179 542.455 Q28.7179 543.421 28.8789 544.387 Q29.04 545.353 29.5231 546.77 Q29.9739 548.187 31.1333 549.572 Q32.2928 550.925 33.9997 551.956 Q33.9997 551.344 34.0641 550.989 Q34.0963 550.635 34.2895 550.055 Q34.4505 549.476 34.9658 549.186 Q35.4811 548.864 36.2863 548.864 Q37.5423 548.864 38.6695 549.894 Q39.7967 550.893 39.7967 552.439 Q39.7967 553.759 39.0882 554.339 Q38.3797 554.918 37.4779 554.918 Q36.8338 554.918 35.7066 554.564 Q34.5472 554.178 33.0335 553.244 Q31.5198 552.278 30.2316 550.925 Q28.9111 549.54 28.0094 547.286 Q27.0754 545.031 27.0754 542.326 Q27.0754 536.11 31.7453 532.117 Q36.4151 528.091 44.1445 528.091 M54.2894 536.078 Q53.8385 536.078 53.3876 536.11 Q52.9367 536.11 52.0027 536.271 Q51.0688 536.432 50.2958 536.69 Q49.5229 536.948 48.6211 537.495 Q47.6872 538.043 47.0752 538.783 Q46.4311 539.524 46.0125 540.716 Q45.5938 541.907 45.5938 543.389 Q45.5938 549.218 51.4552 553.34 Q54.0639 555.112 59.2813 556.4 Q64.4664 557.688 66.431 557.688 Q66.8174 557.688 67.2361 557.656 Q67.6548 557.592 68.6532 557.431 Q69.6193 557.27 70.4245 556.786 Q71.2296 556.303 72.0992 555.563 Q72.9366 554.822 73.4196 553.501 Q73.9027 552.149 73.9027 550.442 Q73.9027 547.576 72.3246 545.096 Q70.7143 542.584 68.3633 541.006 Q66.0123 539.395 63.2426 538.236 Q60.4729 537.076 58.1541 536.593 Q55.8352 536.078 54.2894 536.078 Z" fill="#000000" fill-rule="evenodd" fill-opacity="1" /><path clip-path="url(#clip030)" d="M74.2892 528.106 L72.2602 528.106 L72.2602 526.528 Q72.2602 522.953 71.6805 522.148 Q71.0686 521.31 69.1363 521.31 L34.3861 521.31 Q32.486 521.31 31.9063 522.148 Q31.2944 522.985 31.2944 526.528 L31.2944 528.106 L29.2332 528.106 L29.2332 507.397 Q29.2332 500.216 32.7758 495.224 Q36.2863 490.2 41.1172 490.2 Q44.8208 490.2 47.7194 493.452 Q50.6179 496.705 51.8739 501.729 Q54.1283 495.191 59.5067 493.678 L64.7885 492.84 Q66.6886 492.583 67.6548 492.422 Q68.621 492.228 69.9414 491.939 Q71.2618 491.649 71.906 491.359 Q72.5179 491.037 73.1942 490.586 Q73.8383 490.135 74.0638 489.555 Q74.2892 488.943 74.2892 488.138 Q74.2892 486.625 72.9366 485.336 Q71.5839 484.048 68.4277 483.791 Q67.3649 483.662 67.3649 482.985 Q67.3649 482.148 68.4277 482.148 Q69.3617 482.148 70.4567 482.406 Q71.5195 482.663 72.7755 483.307 Q74.0316 483.919 74.8689 485.272 Q75.7385 486.625 75.7385 488.396 Q75.7385 493.549 72.9688 496.705 Q71.7771 498.026 70.2313 498.637 Q68.6854 499.217 67.4616 499.314 Q66.2377 499.41 63.5324 499.41 Q59.6999 499.41 58.0252 499.829 Q56.3505 500.216 54.708 501.922 Q52.4536 504.241 52.4536 508.074 L52.4536 515.642 L69.1363 515.642 Q71.0364 515.642 71.6483 514.837 Q72.2602 514 72.2602 510.425 L72.2602 508.847 L74.2892 508.847 Q74.096 511.23 74.096 518.476 Q74.096 525.723 74.2892 528.106 M51.0044 515.642 L51.0044 508.331 Q51.0044 504.821 50.167 502.47 Q49.2975 500.087 47.7516 498.96 Q46.2057 497.832 44.6598 497.414 Q43.0817 496.995 41.1172 496.995 Q38.7983 496.995 37.0592 497.51 Q35.3201 498.026 34.2895 499.153 Q33.2589 500.28 32.6148 501.407 Q31.9385 502.534 31.6808 504.273 Q31.4232 506.013 31.3588 507.204 Q31.2944 508.396 31.2944 510.296 Q31.2944 513.517 31.4232 514.193 Q31.4876 514.934 31.8419 515.223 Q32.1961 515.513 32.6148 515.578 Q33.0013 515.642 33.9353 515.642 L51.0044 515.642 Z" fill="#000000" fill-rule="evenodd" fill-opacity="1" /><path clip-path="url(#clip030)" d="M59.7644 479.816 Q53.5486 479.816 49.1364 475.822 Q44.7242 471.829 44.7242 466.096 Q44.7242 460.299 48.4923 457.304 Q52.2604 454.277 57.671 454.277 Q58.6694 454.277 58.8626 454.534 Q59.0558 454.792 59.0558 455.919 L59.0558 474.341 Q65.7869 474.341 68.943 472.344 Q73.3552 469.574 73.3552 464.905 Q73.3552 464.261 73.2264 463.488 Q73.0976 462.715 72.5501 461.137 Q71.9704 459.558 70.4567 458.174 Q68.943 456.789 66.5598 455.984 Q65.6258 455.79 65.658 455.146 Q65.658 454.277 66.431 454.277 Q67.0107 454.277 68.3311 454.921 Q69.6193 455.533 71.1652 456.724 Q72.7111 457.916 73.8705 460.235 Q75.0299 462.521 75.0299 465.291 Q75.0299 471.088 70.6499 475.468 Q66.2377 479.816 59.7644 479.816 M57.671 474.277 L57.671 458.624 Q56.2861 458.624 54.7402 458.882 Q53.1944 459.108 51.0688 459.816 Q48.911 460.492 47.5583 462.103 Q46.2057 463.713 46.2057 466.096 Q46.2057 467.159 46.6566 468.318 Q47.1075 469.446 48.2025 470.831 Q49.2975 472.215 51.7773 473.182 Q54.2572 474.148 57.671 474.277 Z" fill="#000000" fill-rule="evenodd" fill-opacity="1" /><path clip-path="url(#clip030)" d="M30.296 450.823 Q29.2332 450.823 29.2332 449.373 L29.2332 412.433 L44.0801 410.597 L44.0801 412.304 Q39.7323 412.884 37.2203 413.915 Q34.7082 414.945 33.3555 417.135 Q32.0029 419.293 31.6486 421.966 Q31.2944 424.639 31.2944 429.534 L31.2944 443.383 L50.006 430.436 Q51.3264 429.502 51.7451 429.534 Q52.3248 429.534 53.5164 430.662 L71.5195 446.604 L71.5195 430.855 Q71.5195 427.828 71.4229 425.927 Q71.3263 423.995 71.0686 421.966 Q70.7788 419.905 70.2313 418.713 Q69.6838 417.522 68.782 416.33 Q67.8802 415.138 66.4632 414.462 Q65.0461 413.754 63.146 413.206 Q61.2136 412.659 58.6694 412.304 L58.6694 410.597 L74.2892 412.433 L74.2892 449.438 Q74.2892 450.758 73.4841 450.758 Q73.0976 450.758 72.1636 449.985 L54.6436 434.398 Q53.7741 435.042 51.9383 436.265 L31.8097 450.178 Q30.6181 450.823 30.296 450.823 Z" fill="#000000" fill-rule="evenodd" fill-opacity="1" /><path clip-path="url(#clip030)" d="
M93.3267 562.777 L93.3267 403.949 L89.8067 403.949 L89.8067 562.777  Z
  " fill="#000000" fill-rule="evenodd" fill-opacity="1"/>
<path clip-path="url(#clip030)" d="M124.022 489.424 Q126.116 489.424 128.757 489.843 Q131.365 490.262 134.425 491.163 Q137.452 492.065 140.447 493.353 Q143.41 494.642 146.18 496.542 Q148.918 498.41 151.011 500.632 Q153.104 502.854 154.36 505.785 Q155.616 508.716 155.616 511.968 Q155.616 514.609 154.779 516.767 Q153.942 518.925 152.686 520.245 Q151.397 521.566 149.787 522.5 Q148.177 523.402 146.695 523.756 Q145.214 524.11 143.893 524.11 Q142.831 524.11 141.607 523.949 Q140.383 523.756 138.451 523.24 Q136.486 522.693 134.328 521.405 Q132.138 520.084 130.238 518.184 Q126.663 514.609 125.343 511.389 Q124.022 508.168 124.022 504.722 Q124.022 501.083 126.245 498.925 Q128.467 496.735 131.816 496.22 Q124.924 494.352 120.544 494.352 Q117.485 494.352 115.134 495.157 Q112.75 495.93 111.366 497.283 Q109.981 498.603 109.304 500.278 Q108.596 501.92 108.596 503.788 Q108.596 504.754 108.757 505.72 Q108.918 506.687 109.401 508.104 Q109.852 509.521 111.011 510.906 Q112.171 512.258 113.878 513.289 Q113.878 512.677 113.942 512.323 Q113.974 511.968 114.167 511.389 Q114.328 510.809 114.844 510.519 Q115.359 510.197 116.164 510.197 Q117.42 510.197 118.547 511.228 Q119.675 512.226 119.675 513.772 Q119.675 515.092 118.966 515.672 Q118.258 516.252 117.356 516.252 Q116.712 516.252 115.584 515.898 Q114.425 515.511 112.911 514.577 Q111.398 513.611 110.109 512.258 Q108.789 510.873 107.887 508.619 Q106.953 506.365 106.953 503.659 Q106.953 497.444 111.623 493.45 Q116.293 489.424 124.022 489.424 M134.167 497.411 Q133.716 497.411 133.266 497.444 Q132.815 497.444 131.881 497.605 Q130.947 497.766 130.174 498.023 Q129.401 498.281 128.499 498.828 Q127.565 499.376 126.953 500.117 Q126.309 500.857 125.89 502.049 Q125.472 503.241 125.472 504.722 Q125.472 510.551 131.333 514.674 Q133.942 516.445 139.159 517.733 Q144.344 519.022 146.309 519.022 Q146.695 519.022 147.114 518.989 Q147.533 518.925 148.531 518.764 Q149.497 518.603 150.302 518.12 Q151.108 517.637 151.977 516.896 Q152.814 516.155 153.298 514.835 Q153.781 513.482 153.781 511.775 Q153.781 508.909 152.203 506.429 Q150.592 503.917 148.241 502.339 Q145.89 500.729 143.121 499.569 Q140.351 498.41 138.032 497.927 Q135.713 497.411 134.167 497.411 Z" fill="#000000" fill-rule="evenodd" fill-opacity="1" /><path clip-path="url(#clip030)" d="M129.626 449.414 Q132.621 449.414 138.418 450.928 Q140.931 451.54 143.217 452.377 Q145.472 453.182 147.662 454.374 Q149.852 455.565 151.43 456.95 Q152.975 458.335 153.942 460.139 Q154.908 461.942 154.908 463.939 Q154.908 467.095 153.04 468.963 Q151.14 470.799 147.887 471.378 Q154.908 475.694 154.908 481.459 Q154.908 485.034 152.364 486.708 Q149.787 488.383 145.472 488.383 Q141.832 488.383 138.064 487.417 Q130.914 485.581 125.923 482.006 Q125.343 481.523 125.343 480.815 Q125.343 480.396 125.472 480.203 Q125.826 479.623 126.406 479.623 Q126.824 479.623 127.243 479.945 Q130.367 482.2 133.04 483.681 Q135.713 485.163 138.418 485.839 Q140.737 486.354 142.702 486.354 Q146.019 486.354 148.08 484.937 Q150.141 483.488 150.141 480.622 Q150.141 477.981 148.499 475.662 Q146.824 473.343 144.022 471.636 Q140.963 471.539 138.064 470.799 Q134.972 470.122 134.972 468.544 Q134.972 467.288 136.679 467.288 Q137.259 467.288 138.418 467.546 Q141.478 468.254 144.216 469.543 Q146.889 469.092 148.531 467.417 Q150.141 465.742 150.141 463.069 Q150.141 460.589 148.338 458.399 Q146.534 456.177 143.893 454.76 Q141.22 453.311 138.064 452.506 Q137.001 452.248 135.649 452.248 Q132.042 452.248 129.819 454.76 Q129.111 455.469 128.177 455.469 Q127.082 455.469 126.084 454.567 Q125.021 453.504 125.021 452.248 Q125.021 451.314 125.601 450.734 Q126.76 449.414 129.626 449.414 Z" fill="#000000" fill-rule="evenodd" fill-opacity="1" /><path clip-path="url(#clip030)" d="M123.745 396.909 Q123.423 396.909 122.618 396.072 Q111.797 385.444 91.4106 385.444 Q70.9599 385.444 60.6218 395.653 Q59.4302 396.909 59.0759 396.909 Q58.4318 396.909 58.4318 396.265 Q58.4318 395.814 59.7523 394.236 Q61.0727 392.626 64.1001 390.21 Q67.1274 387.763 70.8311 385.959 Q79.8165 381.611 91.4106 381.611 Q102.554 381.611 111.539 385.766 Q115.307 387.537 118.464 390.017 Q121.62 392.497 123.005 394.139 Q124.389 395.782 124.389 396.265 Q124.389 396.909 123.745 396.909 Z" fill="#000000" fill-rule="evenodd" fill-opacity="1" /><path clip-path="url(#clip030)" d="M55.8513 344.244 Q56.1218 343.973 56.5051 343.973 Q56.8883 343.973 57.1588 344.244 Q57.4294 344.514 57.4294 344.898 L57.4294 373.799 Q57.4294 374.182 57.1588 374.453 Q56.8883 374.723 56.5051 374.723 Q56.1218 374.723 55.8513 374.453 Q55.5807 374.182 55.5807 373.799 L55.5807 344.898 Q55.5807 344.514 55.8513 344.244 Z" fill="#000000" fill-rule="evenodd" fill-opacity="1" /><path clip-path="url(#clip030)" d="M41.6936 339.156 L40.2508 339.156 Q40.2508 333.61 37.2975 330.747 Q37.2975 329.958 37.4778 329.823 Q37.6582 329.688 38.4923 329.688 L64.3955 329.688 Q65.7707 329.688 66.199 329.011 Q66.6274 328.335 66.6274 325.382 L66.6274 323.916 L68.0476 323.916 Q67.9124 325.54 67.9124 331.401 Q67.9124 337.262 68.0476 338.863 L66.6274 338.863 L66.6274 337.398 Q66.6274 334.49 66.2216 333.791 Q65.7932 333.092 64.3955 333.092 L40.4762 333.092 Q41.6936 335.504 41.6936 339.156 Z" fill="#000000" fill-rule="evenodd" fill-opacity="1" /><path clip-path="url(#clip030)" d="M824.533 25.7466 Q824.533 26.5254 824.369 27.1812 L822.074 41.7734 Q821.951 42.8801 821.705 43.29 Q821.5 43.6999 820.844 43.6999 Q819.819 43.6999 819.819 42.6342 Q819.819 42.0193 820.065 41.0356 Q820.762 36.4038 820.762 34.3133 Q820.762 32.9197 820.475 31.895 Q820.229 30.8293 819.819 30.0914 Q819.45 29.3536 818.589 28.8618 Q817.729 28.3699 816.909 28.083 Q816.089 27.796 814.614 27.6731 Q813.138 27.5091 811.867 27.4681 Q810.597 27.4271 808.506 27.4271 Q803.956 27.4271 803.218 27.5911 Q802.44 27.796 802.03 28.4109 Q801.661 28.9847 801.251 30.7063 L790.102 75.2616 L789.774 77.0242 Q789.774 78.0079 790.389 78.3358 Q791.004 78.6637 792.889 78.8687 Q795.594 79.0736 798.259 79.0736 Q798.341 79.0736 798.505 79.0736 Q799.406 79.0736 799.775 79.1146 Q800.144 79.1146 800.513 79.1966 Q800.882 79.2786 800.964 79.4835 Q801.087 79.6475 801.087 79.9754 Q801.087 80.7542 800.759 81.1641 Q800.431 81.533 800.103 81.615 Q799.816 81.656 799.243 81.656 Q798.095 81.656 795.635 81.574 Q793.176 81.492 791.946 81.492 L784.978 81.41 L777.846 81.492 Q776.739 81.492 774.403 81.574 Q772.067 81.656 770.96 81.656 Q769.525 81.656 769.525 80.6312 Q769.525 79.4835 770.058 79.2786 Q770.632 79.0736 773.05 79.0736 Q776.452 79.0736 778.297 78.9097 Q780.142 78.7457 781.125 78.1719 Q782.15 77.598 782.437 77.0242 Q782.724 76.4093 783.052 75.0157 L794.324 30.2144 Q794.652 29.2307 794.652 28.4519 Q794.652 28.042 794.529 27.878 Q794.447 27.7141 793.914 27.5911 Q793.381 27.4271 792.274 27.4271 L788.995 27.4271 Q785.634 27.4271 783.544 27.5911 Q781.494 27.7141 779.527 28.3289 Q777.6 28.9437 776.452 29.8045 Q775.346 30.6653 774.116 32.4278 Q772.886 34.1904 771.985 36.3218 Q771.124 38.4533 769.894 41.9373 Q769.484 43.085 769.238 43.413 Q769.033 43.6999 768.46 43.6999 Q768.05 43.6999 767.722 43.454 Q767.435 43.167 767.435 42.7981 Q767.845 41.4455 767.927 41.2815 L772.968 26.4844 Q773.378 25.2957 773.747 25.0908 Q774.157 24.8448 775.674 24.8448 L822.238 24.8448 Q822.975 24.8448 823.221 24.8448 Q823.467 24.8448 823.877 24.9268 Q824.287 25.0088 824.41 25.2137 Q824.533 25.4187 824.533 25.7466 Z" fill="#000000" fill-rule="evenodd" fill-opacity="1" /><path clip-path="url(#clip030)" d="M839.281 68.9083 Q839.363 67.8836 840.961 67.8836 L892.403 67.8836 Q894.821 67.8836 894.862 68.8263 Q894.862 69.851 892.567 69.8101 L841.535 69.8101 Q839.281 69.851 839.281 68.9083 M839.281 52.5126 Q839.281 51.4878 841.043 51.5288 L892.321 51.5288 Q894.821 51.5288 894.862 52.5126 Q894.862 53.4553 892.731 53.4553 L840.961 53.4553 Q839.281 53.4553 839.281 52.5126 Z" fill="#000000" fill-rule="evenodd" fill-opacity="1" /><path clip-path="url(#clip030)" d="M927.245 54.808 Q927.245 42.4702 930.36 35.748 Q934.705 25.7466 944.952 25.7466 Q947.124 25.7466 949.379 26.3614 Q951.674 26.9353 954.543 29.1897 Q957.454 31.4441 959.216 35.1331 Q962.577 42.2653 962.577 54.808 Q962.577 67.0638 959.462 73.745 Q954.912 83.5005 944.87 83.5005 Q941.099 83.5005 937.246 81.574 Q933.434 79.6475 931.016 75.0157 Q927.245 68.0885 927.245 54.808 M934.213 53.7832 Q934.213 66.4489 935.115 71.4906 Q936.139 76.9422 938.927 79.3196 Q941.755 81.656 944.87 81.656 Q948.231 81.656 951.018 79.1556 Q953.847 76.6143 954.707 71.1627 Q955.65 65.7931 955.609 53.7832 Q955.609 42.1013 954.789 37.4285 Q953.683 31.977 950.731 29.8045 Q947.821 27.5911 944.87 27.5911 Q943.763 27.5911 942.575 27.919 Q941.427 28.2469 939.746 29.1897 Q938.066 30.1324 936.754 32.4688 Q935.483 34.8052 934.869 38.3303 Q934.213 42.8801 934.213 53.7832 Z" fill="#000000" fill-rule="evenodd" fill-opacity="1" /><path clip-path="url(#clip030)" d="M970.088 80.3033 Q968.818 78.9507 968.818 77.1881 Q968.818 75.4256 970.088 74.1549 Q971.359 72.8433 973.285 72.8433 Q975.13 72.8433 976.36 74.0729 Q977.63 75.2616 977.63 77.2291 Q977.63 79.1556 976.278 80.4263 Q974.966 81.656 973.285 81.656 Q971.359 81.656 970.088 80.3033 Z" fill="#000000" fill-rule="evenodd" fill-opacity="1" /><path clip-path="url(#clip030)" d="M991.918 54.808 Q991.918 42.4702 995.033 35.748 Q999.378 25.7466 1009.63 25.7466 Q1011.8 25.7466 1014.05 26.3614 Q1016.35 26.9353 1019.22 29.1897 Q1022.13 31.4441 1023.89 35.1331 Q1027.25 42.2653 1027.25 54.808 Q1027.25 67.0638 1024.14 73.745 Q1019.59 83.5005 1009.54 83.5005 Q1005.77 83.5005 1001.92 81.574 Q998.108 79.6475 995.689 75.0157 Q991.918 68.0885 991.918 54.808 M998.886 53.7832 Q998.886 66.4489 999.788 71.4906 Q1000.81 76.9422 1003.6 79.3196 Q1006.43 81.656 1009.54 81.656 Q1012.9 81.656 1015.69 79.1556 Q1018.52 76.6143 1019.38 71.1627 Q1020.32 65.7931 1020.28 53.7832 Q1020.28 42.1013 1019.46 37.4285 Q1018.36 31.977 1015.4 29.8045 Q1012.49 27.5911 1009.54 27.5911 Q1008.44 27.5911 1007.25 27.919 Q1006.1 28.2469 1004.42 29.1897 Q1002.74 30.1324 1001.43 32.4688 Q1000.16 34.8052 999.542 38.3303 Q998.886 42.8801 998.886 53.7832 Z" fill="#000000" fill-rule="evenodd" fill-opacity="1" /><path clip-path="url(#clip030)" d="M1033.83 68.1295 Q1033.83 65.6292 1035.18 64.6864 Q1036.53 63.7027 1037.97 63.7027 Q1039.89 63.7027 1041 64.9323 Q1042.15 66.121 1042.15 67.8016 Q1042.15 69.4821 1041 70.7118 Q1039.89 71.9005 1037.97 71.9005 Q1037.02 71.9005 1036.53 71.7366 Q1037.64 75.5895 1041 78.3768 Q1044.4 81.1641 1048.87 81.1641 Q1054.49 81.1641 1057.85 75.7125 Q1059.86 72.1874 1059.86 64.1945 Q1059.86 57.1444 1058.34 53.6193 Q1056 48.2497 1051.21 48.2497 Q1044.4 48.2497 1040.39 54.1112 Q1039.89 54.849 1039.32 54.89 Q1038.5 54.89 1038.29 54.4391 Q1038.13 53.9472 1038.13 52.6765 L1038.13 27.837 Q1038.13 25.8286 1038.95 25.8286 Q1039.28 25.8286 1039.98 26.0745 Q1045.26 28.4109 1051.12 28.4519 Q1057.15 28.4519 1062.56 25.9925 Q1062.97 25.7466 1063.22 25.7466 Q1064.04 25.7466 1064.08 26.6893 Q1064.08 27.0173 1063.38 28.001 Q1062.72 28.9437 1061.29 30.2144 Q1059.86 31.4441 1058.01 32.6328 Q1056.17 33.8215 1053.46 34.6413 Q1050.8 35.4201 1047.85 35.4201 Q1044.32 35.4201 1040.71 34.3133 L1040.71 50.6681 Q1045.06 46.4052 1051.37 46.4052 Q1058.09 46.4052 1062.72 51.8158 Q1067.36 57.2263 1067.36 64.7684 Q1067.36 72.6793 1061.86 78.0899 Q1056.41 83.5005 1049.03 83.5005 Q1042.31 83.5005 1038.05 78.7047 Q1033.83 73.909 1033.83 68.1295 Z" fill="#000000" fill-rule="evenodd" fill-opacity="1" /><polyline clip-path="url(#clip033)" style="stroke:#009af9; stroke-linecap:butt; stroke-linejoin:round; stroke-width:4; stroke-opacity:1; fill:none" points="
  325.815,156.104 344.141,156.446 362.468,157.47 380.794,159.173 399.12,161.551 417.446,164.598 435.772,168.307 454.099,172.667 472.425,177.668 490.751,183.298 
  509.077,189.543 527.404,196.388 545.73,203.817 564.056,211.812 582.382,220.355 600.708,229.428 619.035,239.011 637.361,249.083 655.687,259.625 674.013,270.614 
  692.34,282.03 710.666,293.852 728.992,306.057 747.318,318.625 765.644,331.536 783.971,344.768 802.297,358.302 820.623,372.117 838.949,386.194 857.276,400.516 
  875.602,415.064 893.928,429.822 912.254,444.773 930.581,459.902 948.907,475.196 967.233,490.64 985.559,506.224 1003.89,521.934 1022.21,537.762 1040.54,553.699 
  1058.86,569.737 1077.19,585.869 1095.52,602.091 1113.84,618.398 1132.17,634.79 1150.5,651.266 1168.82,667.829 1187.15,684.483 1205.47,701.241 1223.8,718.116 
  1242.13,735.135 1260.45,752.336 1278.78,769.783 1297.11,787.585 1315.43,805.935 1333.76,825.221 1352.08,846.382 1370.41,873.144 1388.74,989.001 1407.06,989.565 
  1425.39,990.058 1443.71,990.495 1462.04,990.886 1480.37,991.238 1498.69,991.557 1517.02,991.848 
  "/>
<circle clip-path="url(#clip033)" cx="325.815" cy="156.104" r="14" fill="#009af9" fill-rule="evenodd" fill-opacity="1" stroke="#000000" stroke-opacity="1" stroke-width="2.4"/>
<circle clip-path="url(#clip033)" cx="344.141" cy="156.446" r="14" fill="#009af9" fill-rule="evenodd" fill-opacity="1" stroke="#000000" stroke-opacity="1" stroke-width="2.4"/>
<circle clip-path="url(#clip033)" cx="362.468" cy="157.47" r="14" fill="#009af9" fill-rule="evenodd" fill-opacity="1" stroke="#000000" stroke-opacity="1" stroke-width="2.4"/>
<circle clip-path="url(#clip033)" cx="380.794" cy="159.173" r="14" fill="#009af9" fill-rule="evenodd" fill-opacity="1" stroke="#000000" stroke-opacity="1" stroke-width="2.4"/>
<circle clip-path="url(#clip033)" cx="399.12" cy="161.551" r="14" fill="#009af9" fill-rule="evenodd" fill-opacity="1" stroke="#000000" stroke-opacity="1" stroke-width="2.4"/>
<circle clip-path="url(#clip033)" cx="417.446" cy="164.598" r="14" fill="#009af9" fill-rule="evenodd" fill-opacity="1" stroke="#000000" stroke-opacity="1" stroke-width="2.4"/>
<circle clip-path="url(#clip033)" cx="435.772" cy="168.307" r="14" fill="#009af9" fill-rule="evenodd" fill-opacity="1" stroke="#000000" stroke-opacity="1" stroke-width="2.4"/>
<circle clip-path="url(#clip033)" cx="454.099" cy="172.667" r="14" fill="#009af9" fill-rule="evenodd" fill-opacity="1" stroke="#000000" stroke-opacity="1" stroke-width="2.4"/>
<circle clip-path="url(#clip033)" cx="472.425" cy="177.668" r="14" fill="#009af9" fill-rule="evenodd" fill-opacity="1" stroke="#000000" stroke-opacity="1" stroke-width="2.4"/>
<circle clip-path="url(#clip033)" cx="490.751" cy="183.298" r="14" fill="#009af9" fill-rule="evenodd" fill-opacity="1" stroke="#000000" stroke-opacity="1" stroke-width="2.4"/>
<circle clip-path="url(#clip033)" cx="509.077" cy="189.543" r="14" fill="#009af9" fill-rule="evenodd" fill-opacity="1" stroke="#000000" stroke-opacity="1" stroke-width="2.4"/>
<circle clip-path="url(#clip033)" cx="527.404" cy="196.388" r="14" fill="#009af9" fill-rule="evenodd" fill-opacity="1" stroke="#000000" stroke-opacity="1" stroke-width="2.4"/>
<circle clip-path="url(#clip033)" cx="545.73" cy="203.817" r="14" fill="#009af9" fill-rule="evenodd" fill-opacity="1" stroke="#000000" stroke-opacity="1" stroke-width="2.4"/>
<circle clip-path="url(#clip033)" cx="564.056" cy="211.812" r="14" fill="#009af9" fill-rule="evenodd" fill-opacity="1" stroke="#000000" stroke-opacity="1" stroke-width="2.4"/>
<circle clip-path="url(#clip033)" cx="582.382" cy="220.355" r="14" fill="#009af9" fill-rule="evenodd" fill-opacity="1" stroke="#000000" stroke-opacity="1" stroke-width="2.4"/>
<circle clip-path="url(#clip033)" cx="600.708" cy="229.428" r="14" fill="#009af9" fill-rule="evenodd" fill-opacity="1" stroke="#000000" stroke-opacity="1" stroke-width="2.4"/>
<circle clip-path="url(#clip033)" cx="619.035" cy="239.011" r="14" fill="#009af9" fill-rule="evenodd" fill-opacity="1" stroke="#000000" stroke-opacity="1" stroke-width="2.4"/>
<circle clip-path="url(#clip033)" cx="637.361" cy="249.083" r="14" fill="#009af9" fill-rule="evenodd" fill-opacity="1" stroke="#000000" stroke-opacity="1" stroke-width="2.4"/>
<circle clip-path="url(#clip033)" cx="655.687" cy="259.625" r="14" fill="#009af9" fill-rule="evenodd" fill-opacity="1" stroke="#000000" stroke-opacity="1" stroke-width="2.4"/>
<circle clip-path="url(#clip033)" cx="674.013" cy="270.614" r="14" fill="#009af9" fill-rule="evenodd" fill-opacity="1" stroke="#000000" stroke-opacity="1" stroke-width="2.4"/>
<circle clip-path="url(#clip033)" cx="692.34" cy="282.03" r="14" fill="#009af9" fill-rule="evenodd" fill-opacity="1" stroke="#000000" stroke-opacity="1" stroke-width="2.4"/>
<circle clip-path="url(#clip033)" cx="710.666" cy="293.852" r="14" fill="#009af9" fill-rule="evenodd" fill-opacity="1" stroke="#000000" stroke-opacity="1" stroke-width="2.4"/>
<circle clip-path="url(#clip033)" cx="728.992" cy="306.057" r="14" fill="#009af9" fill-rule="evenodd" fill-opacity="1" stroke="#000000" stroke-opacity="1" stroke-width="2.4"/>
<circle clip-path="url(#clip033)" cx="747.318" cy="318.625" r="14" fill="#009af9" fill-rule="evenodd" fill-opacity="1" stroke="#000000" stroke-opacity="1" stroke-width="2.4"/>
<circle clip-path="url(#clip033)" cx="765.644" cy="331.536" r="14" fill="#009af9" fill-rule="evenodd" fill-opacity="1" stroke="#000000" stroke-opacity="1" stroke-width="2.4"/>
<circle clip-path="url(#clip033)" cx="783.971" cy="344.768" r="14" fill="#009af9" fill-rule="evenodd" fill-opacity="1" stroke="#000000" stroke-opacity="1" stroke-width="2.4"/>
<circle clip-path="url(#clip033)" cx="802.297" cy="358.302" r="14" fill="#009af9" fill-rule="evenodd" fill-opacity="1" stroke="#000000" stroke-opacity="1" stroke-width="2.4"/>
<circle clip-path="url(#clip033)" cx="820.623" cy="372.117" r="14" fill="#009af9" fill-rule="evenodd" fill-opacity="1" stroke="#000000" stroke-opacity="1" stroke-width="2.4"/>
<circle clip-path="url(#clip033)" cx="838.949" cy="386.194" r="14" fill="#009af9" fill-rule="evenodd" fill-opacity="1" stroke="#000000" stroke-opacity="1" stroke-width="2.4"/>
<circle clip-path="url(#clip033)" cx="857.276" cy="400.516" r="14" fill="#009af9" fill-rule="evenodd" fill-opacity="1" stroke="#000000" stroke-opacity="1" stroke-width="2.4"/>
<circle clip-path="url(#clip033)" cx="875.602" cy="415.064" r="14" fill="#009af9" fill-rule="evenodd" fill-opacity="1" stroke="#000000" stroke-opacity="1" stroke-width="2.4"/>
<circle clip-path="url(#clip033)" cx="893.928" cy="429.822" r="14" fill="#009af9" fill-rule="evenodd" fill-opacity="1" stroke="#000000" stroke-opacity="1" stroke-width="2.4"/>
<circle clip-path="url(#clip033)" cx="912.254" cy="444.773" r="14" fill="#009af9" fill-rule="evenodd" fill-opacity="1" stroke="#000000" stroke-opacity="1" stroke-width="2.4"/>
<circle clip-path="url(#clip033)" cx="930.581" cy="459.902" r="14" fill="#009af9" fill-rule="evenodd" fill-opacity="1" stroke="#000000" stroke-opacity="1" stroke-width="2.4"/>
<circle clip-path="url(#clip033)" cx="948.907" cy="475.196" r="14" fill="#009af9" fill-rule="evenodd" fill-opacity="1" stroke="#000000" stroke-opacity="1" stroke-width="2.4"/>
<circle clip-path="url(#clip033)" cx="967.233" cy="490.64" r="14" fill="#009af9" fill-rule="evenodd" fill-opacity="1" stroke="#000000" stroke-opacity="1" stroke-width="2.4"/>
<circle clip-path="url(#clip033)" cx="985.559" cy="506.224" r="14" fill="#009af9" fill-rule="evenodd" fill-opacity="1" stroke="#000000" stroke-opacity="1" stroke-width="2.4"/>
<circle clip-path="url(#clip033)" cx="1003.89" cy="521.934" r="14" fill="#009af9" fill-rule="evenodd" fill-opacity="1" stroke="#000000" stroke-opacity="1" stroke-width="2.4"/>
<circle clip-path="url(#clip033)" cx="1022.21" cy="537.762" r="14" fill="#009af9" fill-rule="evenodd" fill-opacity="1" stroke="#000000" stroke-opacity="1" stroke-width="2.4"/>
<circle clip-path="url(#clip033)" cx="1040.54" cy="553.699" r="14" fill="#009af9" fill-rule="evenodd" fill-opacity="1" stroke="#000000" stroke-opacity="1" stroke-width="2.4"/>
<circle clip-path="url(#clip033)" cx="1058.86" cy="569.737" r="14" fill="#009af9" fill-rule="evenodd" fill-opacity="1" stroke="#000000" stroke-opacity="1" stroke-width="2.4"/>
<circle clip-path="url(#clip033)" cx="1077.19" cy="585.869" r="14" fill="#009af9" fill-rule="evenodd" fill-opacity="1" stroke="#000000" stroke-opacity="1" stroke-width="2.4"/>
<circle clip-path="url(#clip033)" cx="1095.52" cy="602.091" r="14" fill="#009af9" fill-rule="evenodd" fill-opacity="1" stroke="#000000" stroke-opacity="1" stroke-width="2.4"/>
<circle clip-path="url(#clip033)" cx="1113.84" cy="618.398" r="14" fill="#009af9" fill-rule="evenodd" fill-opacity="1" stroke="#000000" stroke-opacity="1" stroke-width="2.4"/>
<circle clip-path="url(#clip033)" cx="1132.17" cy="634.79" r="14" fill="#009af9" fill-rule="evenodd" fill-opacity="1" stroke="#000000" stroke-opacity="1" stroke-width="2.4"/>
<circle clip-path="url(#clip033)" cx="1150.5" cy="651.266" r="14" fill="#009af9" fill-rule="evenodd" fill-opacity="1" stroke="#000000" stroke-opacity="1" stroke-width="2.4"/>
<circle clip-path="url(#clip033)" cx="1168.82" cy="667.829" r="14" fill="#009af9" fill-rule="evenodd" fill-opacity="1" stroke="#000000" stroke-opacity="1" stroke-width="2.4"/>
<circle clip-path="url(#clip033)" cx="1187.15" cy="684.483" r="14" fill="#009af9" fill-rule="evenodd" fill-opacity="1" stroke="#000000" stroke-opacity="1" stroke-width="2.4"/>
<circle clip-path="url(#clip033)" cx="1205.47" cy="701.241" r="14" fill="#009af9" fill-rule="evenodd" fill-opacity="1" stroke="#000000" stroke-opacity="1" stroke-width="2.4"/>
<circle clip-path="url(#clip033)" cx="1223.8" cy="718.116" r="14" fill="#009af9" fill-rule="evenodd" fill-opacity="1" stroke="#000000" stroke-opacity="1" stroke-width="2.4"/>
<circle clip-path="url(#clip033)" cx="1242.13" cy="735.135" r="14" fill="#009af9" fill-rule="evenodd" fill-opacity="1" stroke="#000000" stroke-opacity="1" stroke-width="2.4"/>
<circle clip-path="url(#clip033)" cx="1260.45" cy="752.336" r="14" fill="#009af9" fill-rule="evenodd" fill-opacity="1" stroke="#000000" stroke-opacity="1" stroke-width="2.4"/>
<circle clip-path="url(#clip033)" cx="1278.78" cy="769.783" r="14" fill="#009af9" fill-rule="evenodd" fill-opacity="1" stroke="#000000" stroke-opacity="1" stroke-width="2.4"/>
<circle clip-path="url(#clip033)" cx="1297.11" cy="787.585" r="14" fill="#009af9" fill-rule="evenodd" fill-opacity="1" stroke="#000000" stroke-opacity="1" stroke-width="2.4"/>
<circle clip-path="url(#clip033)" cx="1315.43" cy="805.935" r="14" fill="#009af9" fill-rule="evenodd" fill-opacity="1" stroke="#000000" stroke-opacity="1" stroke-width="2.4"/>
<circle clip-path="url(#clip033)" cx="1333.76" cy="825.221" r="14" fill="#009af9" fill-rule="evenodd" fill-opacity="1" stroke="#000000" stroke-opacity="1" stroke-width="2.4"/>
<circle clip-path="url(#clip033)" cx="1352.08" cy="846.382" r="14" fill="#009af9" fill-rule="evenodd" fill-opacity="1" stroke="#000000" stroke-opacity="1" stroke-width="2.4"/>
<circle clip-path="url(#clip033)" cx="1370.41" cy="873.144" r="14" fill="#009af9" fill-rule="evenodd" fill-opacity="1" stroke="#000000" stroke-opacity="1" stroke-width="2.4"/>
<circle clip-path="url(#clip033)" cx="1388.74" cy="989.001" r="14" fill="#009af9" fill-rule="evenodd" fill-opacity="1" stroke="#000000" stroke-opacity="1" stroke-width="2.4"/>
<circle clip-path="url(#clip033)" cx="1407.06" cy="989.565" r="14" fill="#009af9" fill-rule="evenodd" fill-opacity="1" stroke="#000000" stroke-opacity="1" stroke-width="2.4"/>
<circle clip-path="url(#clip033)" cx="1425.39" cy="990.058" r="14" fill="#009af9" fill-rule="evenodd" fill-opacity="1" stroke="#000000" stroke-opacity="1" stroke-width="2.4"/>
<circle clip-path="url(#clip033)" cx="1443.71" cy="990.495" r="14" fill="#009af9" fill-rule="evenodd" fill-opacity="1" stroke="#000000" stroke-opacity="1" stroke-width="2.4"/>
<circle clip-path="url(#clip033)" cx="1462.04" cy="990.886" r="14" fill="#009af9" fill-rule="evenodd" fill-opacity="1" stroke="#000000" stroke-opacity="1" stroke-width="2.4"/>
<circle clip-path="url(#clip033)" cx="1480.37" cy="991.238" r="14" fill="#009af9" fill-rule="evenodd" fill-opacity="1" stroke="#000000" stroke-opacity="1" stroke-width="2.4"/>
<circle clip-path="url(#clip033)" cx="1498.69" cy="991.557" r="14" fill="#009af9" fill-rule="evenodd" fill-opacity="1" stroke="#000000" stroke-opacity="1" stroke-width="2.4"/>
<circle clip-path="url(#clip033)" cx="1517.02" cy="991.848" r="14" fill="#009af9" fill-rule="evenodd" fill-opacity="1" stroke="#000000" stroke-opacity="1" stroke-width="2.4"/>
</svg>
