<?xml version="1.0" encoding="utf-8"?>
<svg xmlns="http://www.w3.org/2000/svg" xmlns:xlink="http://www.w3.org/1999/xlink" width="400" height="300" viewBox="0 0 1600 1200">
<defs>
  <clipPath id="clip530">
    <rect x="0" y="0" width="1600" height="1200"/>
  </clipPath>
</defs>
<path clip-path="url(#clip530)" d="
M0 1200 L1600 1200 L1600 0 L0 0  Z
  " fill="#ffffff" fill-rule="evenodd" fill-opacity="1"/>
<defs>
  <clipPath id="clip531">
    <rect x="320" y="0" width="1121" height="1121"/>
  </clipPath>
</defs>
<defs>
  <clipPath id="clip532">
    <rect x="191" y="522" width="1052" height="486"/>
  </clipPath>
</defs>
<path clip-path="url(#clip530)" d="
M260.403 1016.92 L1552.76 1016.92 L1552.76 131.032 L260.403 131.032  Z
  " fill="#ffffff" fill-rule="evenodd" fill-opacity="1"/>
<defs>
  <clipPath id="clip533">
    <rect x="260" y="131" width="1293" height="887"/>
  </clipPath>
</defs>
<polyline clip-path="url(#clip533)" style="stroke:#000000; stroke-linecap:butt; stroke-linejoin:round; stroke-width:2; stroke-opacity:0.1; fill:none" points="
  378.259,1016.92 378.259,131.032 
  "/>
<polyline clip-path="url(#clip533)" style="stroke:#000000; stroke-linecap:butt; stroke-linejoin:round; stroke-width:2; stroke-opacity:0.1; fill:none" points="
  622.099,1016.92 622.099,131.032 
  "/>
<polyline clip-path="url(#clip533)" style="stroke:#000000; stroke-linecap:butt; stroke-linejoin:round; stroke-width:2; stroke-opacity:0.1; fill:none" points="
  865.939,1016.92 865.939,131.032 
  "/>
<polyline clip-path="url(#clip533)" style="stroke:#000000; stroke-linecap:butt; stroke-linejoin:round; stroke-width:2; stroke-opacity:0.1; fill:none" points="
  1109.78,1016.92 1109.78,131.032 
  "/>
<polyline clip-path="url(#clip533)" style="stroke:#000000; stroke-linecap:butt; stroke-linejoin:round; stroke-width:2; stroke-opacity:0.1; fill:none" points="
  1353.62,1016.92 1353.62,131.032 
  "/>
<polyline clip-path="url(#clip530)" style="stroke:#000000; stroke-linecap:butt; stroke-linejoin:round; stroke-width:4; stroke-opacity:1; fill:none" points="
  260.403,1016.92 1552.76,1016.92 
  "/>
<polyline clip-path="url(#clip530)" style="stroke:#000000; stroke-linecap:butt; stroke-linejoin:round; stroke-width:4; stroke-opacity:1; fill:none" points="
  378.259,1016.92 378.259,998.022 
  "/>
<polyline clip-path="url(#clip530)" style="stroke:#000000; stroke-linecap:butt; stroke-linejoin:round; stroke-width:4; stroke-opacity:1; fill:none" points="
  622.099,1016.92 622.099,998.022 
  "/>
<polyline clip-path="url(#clip530)" style="stroke:#000000; stroke-linecap:butt; stroke-linejoin:round; stroke-width:4; stroke-opacity:1; fill:none" points="
  865.939,1016.92 865.939,998.022 
  "/>
<polyline clip-path="url(#clip530)" style="stroke:#000000; stroke-linecap:butt; stroke-linejoin:round; stroke-width:4; stroke-opacity:1; fill:none" points="
  1109.78,1016.92 1109.78,998.022 
  "/>
<polyline clip-path="url(#clip530)" style="stroke:#000000; stroke-linecap:butt; stroke-linejoin:round; stroke-width:4; stroke-opacity:1; fill:none" points="
  1353.62,1016.92 1353.62,998.022 
  "/>
<path clip-path="url(#clip530)" d="M346.037 1038.36 L364.394 1038.36 L364.394 1042.3 L350.32 1042.3 L350.32 1050.77 Q351.338 1050.42 352.357 1050.26 Q353.375 1050.07 354.394 1050.07 Q360.181 1050.07 363.56 1053.24 Q366.94 1056.42 366.94 1061.83 Q366.94 1067.41 363.468 1070.51 Q359.995 1073.59 353.676 1073.59 Q351.5 1073.59 349.232 1073.22 Q346.986 1072.85 344.579 1072.11 L344.579 1067.41 Q346.662 1068.54 348.884 1069.1 Q351.107 1069.66 353.583 1069.66 Q357.588 1069.66 359.926 1067.55 Q362.264 1065.44 362.264 1061.83 Q362.264 1058.22 359.926 1056.11 Q357.588 1054.01 353.583 1054.01 Q351.708 1054.01 349.833 1054.42 Q347.982 1054.84 346.037 1055.72 L346.037 1038.36 Z" fill="#000000" fill-rule="evenodd" fill-opacity="1" /><path clip-path="url(#clip530)" d="M376.153 1067.04 L381.037 1067.04 L381.037 1072.92 L376.153 1072.92 L376.153 1067.04 Z" fill="#000000" fill-rule="evenodd" fill-opacity="1" /><path clip-path="url(#clip530)" d="M392.032 1068.98 L399.671 1068.98 L399.671 1042.62 L391.361 1044.29 L391.361 1040.03 L399.625 1038.36 L404.301 1038.36 L404.301 1068.98 L411.94 1068.98 L411.94 1072.92 L392.032 1072.92 L392.032 1068.98 Z" fill="#000000" fill-rule="evenodd" fill-opacity="1" /><path clip-path="url(#clip530)" d="M589.021 1038.36 L607.377 1038.36 L607.377 1042.3 L593.303 1042.3 L593.303 1050.77 Q594.322 1050.42 595.34 1050.26 Q596.359 1050.07 597.377 1050.07 Q603.164 1050.07 606.544 1053.24 Q609.923 1056.42 609.923 1061.83 Q609.923 1067.41 606.451 1070.51 Q602.979 1073.59 596.66 1073.59 Q594.484 1073.59 592.215 1073.22 Q589.97 1072.85 587.563 1072.11 L587.563 1067.41 Q589.646 1068.54 591.868 1069.1 Q594.09 1069.66 596.567 1069.66 Q600.572 1069.66 602.91 1067.55 Q605.248 1065.44 605.248 1061.83 Q605.248 1058.22 602.91 1056.11 Q600.572 1054.01 596.567 1054.01 Q594.692 1054.01 592.817 1054.42 Q590.965 1054.84 589.021 1055.72 L589.021 1038.36 Z" fill="#000000" fill-rule="evenodd" fill-opacity="1" /><path clip-path="url(#clip530)" d="M619.136 1067.04 L624.021 1067.04 L624.021 1072.92 L619.136 1072.92 L619.136 1067.04 Z" fill="#000000" fill-rule="evenodd" fill-opacity="1" /><path clip-path="url(#clip530)" d="M647.053 1042.43 L635.247 1060.88 L647.053 1060.88 L647.053 1042.43 M645.826 1038.36 L651.706 1038.36 L651.706 1060.88 L656.636 1060.88 L656.636 1064.77 L651.706 1064.77 L651.706 1072.92 L647.053 1072.92 L647.053 1064.77 L631.451 1064.77 L631.451 1060.26 L645.826 1038.36 Z" fill="#000000" fill-rule="evenodd" fill-opacity="1" /><path clip-path="url(#clip530)" d="M833.555 1038.36 L851.912 1038.36 L851.912 1042.3 L837.838 1042.3 L837.838 1050.77 Q838.856 1050.42 839.875 1050.26 Q840.893 1050.07 841.912 1050.07 Q847.699 1050.07 851.078 1053.24 Q854.458 1056.42 854.458 1061.83 Q854.458 1067.41 850.986 1070.51 Q847.514 1073.59 841.194 1073.59 Q839.018 1073.59 836.75 1073.22 Q834.504 1072.85 832.097 1072.11 L832.097 1067.41 Q834.18 1068.54 836.403 1069.1 Q838.625 1069.66 841.102 1069.66 Q845.106 1069.66 847.444 1067.55 Q849.782 1065.44 849.782 1061.83 Q849.782 1058.22 847.444 1056.11 Q845.106 1054.01 841.102 1054.01 Q839.227 1054.01 837.352 1054.42 Q835.5 1054.84 833.555 1055.72 L833.555 1038.36 Z" fill="#000000" fill-rule="evenodd" fill-opacity="1" /><path clip-path="url(#clip530)" d="M863.671 1067.04 L868.555 1067.04 L868.555 1072.92 L863.671 1072.92 L863.671 1067.04 Z" fill="#000000" fill-rule="evenodd" fill-opacity="1" /><path clip-path="url(#clip530)" d="M877.56 1038.36 L899.782 1038.36 L899.782 1040.35 L887.236 1072.92 L882.351 1072.92 L894.157 1042.3 L877.56 1042.3 L877.56 1038.36 Z" fill="#000000" fill-rule="evenodd" fill-opacity="1" /><path clip-path="url(#clip530)" d="M1087.65 1053.78 Q1084.5 1053.78 1082.65 1055.93 Q1080.82 1058.08 1080.82 1061.83 Q1080.82 1065.56 1082.65 1067.73 Q1084.5 1069.89 1087.65 1069.89 Q1090.8 1069.89 1092.63 1067.73 Q1094.48 1065.56 1094.48 1061.83 Q1094.48 1058.08 1092.63 1055.93 Q1090.8 1053.78 1087.65 1053.78 M1096.93 1039.12 L1096.93 1043.38 Q1095.17 1042.55 1093.37 1042.11 Q1091.59 1041.67 1089.83 1041.67 Q1085.2 1041.67 1082.74 1044.79 Q1080.31 1047.92 1079.96 1054.24 Q1081.33 1052.23 1083.39 1051.16 Q1085.45 1050.07 1087.93 1050.07 Q1093.14 1050.07 1096.15 1053.24 Q1099.18 1056.39 1099.18 1061.83 Q1099.18 1067.16 1096.03 1070.37 Q1092.88 1073.59 1087.65 1073.59 Q1081.65 1073.59 1078.48 1069.01 Q1075.31 1064.4 1075.31 1055.67 Q1075.31 1047.48 1079.2 1042.62 Q1083.09 1037.73 1089.64 1037.73 Q1091.4 1037.73 1093.18 1038.08 Q1094.99 1038.43 1096.93 1039.12 Z" fill="#000000" fill-rule="evenodd" fill-opacity="1" /><path clip-path="url(#clip530)" d="M1107.23 1067.04 L1112.12 1067.04 L1112.12 1072.92 L1107.23 1072.92 L1107.23 1067.04 Z" fill="#000000" fill-rule="evenodd" fill-opacity="1" /><path clip-path="url(#clip530)" d="M1132.3 1041.44 Q1128.69 1041.44 1126.86 1045 Q1125.06 1048.54 1125.06 1055.67 Q1125.06 1062.78 1126.86 1066.35 Q1128.69 1069.89 1132.3 1069.89 Q1135.94 1069.89 1137.74 1066.35 Q1139.57 1062.78 1139.57 1055.67 Q1139.57 1048.54 1137.74 1045 Q1135.94 1041.44 1132.3 1041.44 M1132.3 1037.73 Q1138.11 1037.73 1141.17 1042.34 Q1144.25 1046.92 1144.25 1055.67 Q1144.25 1064.4 1141.17 1069.01 Q1138.11 1073.59 1132.3 1073.59 Q1126.49 1073.59 1123.41 1069.01 Q1120.36 1064.4 1120.36 1055.67 Q1120.36 1046.92 1123.41 1042.34 Q1126.49 1037.73 1132.3 1037.73 Z" fill="#000000" fill-rule="evenodd" fill-opacity="1" /><path clip-path="url(#clip530)" d="M1331.81 1053.78 Q1328.67 1053.78 1326.81 1055.93 Q1324.99 1058.08 1324.99 1061.83 Q1324.99 1065.56 1326.81 1067.73 Q1328.67 1069.89 1331.81 1069.89 Q1334.96 1069.89 1336.79 1067.73 Q1338.64 1065.56 1338.64 1061.83 Q1338.64 1058.08 1336.79 1055.93 Q1334.96 1053.78 1331.81 1053.78 M1341.1 1039.12 L1341.1 1043.38 Q1339.34 1042.55 1337.53 1042.11 Q1335.75 1041.67 1333.99 1041.67 Q1329.36 1041.67 1326.91 1044.79 Q1324.48 1047.92 1324.13 1054.24 Q1325.49 1052.23 1327.56 1051.16 Q1329.62 1050.07 1332.09 1050.07 Q1337.3 1050.07 1340.31 1053.24 Q1343.34 1056.39 1343.34 1061.83 Q1343.34 1067.16 1340.19 1070.37 Q1337.05 1073.59 1331.81 1073.59 Q1325.82 1073.59 1322.65 1069.01 Q1319.48 1064.4 1319.48 1055.67 Q1319.48 1047.48 1323.37 1042.62 Q1327.25 1037.73 1333.81 1037.73 Q1335.56 1037.73 1337.35 1038.08 Q1339.15 1038.43 1341.1 1039.12 Z" fill="#000000" fill-rule="evenodd" fill-opacity="1" /><path clip-path="url(#clip530)" d="M1351.4 1067.04 L1356.28 1067.04 L1356.28 1072.92 L1351.4 1072.92 L1351.4 1067.04 Z" fill="#000000" fill-rule="evenodd" fill-opacity="1" /><path clip-path="url(#clip530)" d="M1380.63 1054.29 Q1383.99 1055 1385.86 1057.27 Q1387.76 1059.54 1387.76 1062.87 Q1387.76 1067.99 1384.24 1070.79 Q1380.73 1073.59 1374.24 1073.59 Q1372.07 1073.59 1369.75 1073.15 Q1367.46 1072.73 1365.01 1071.88 L1365.01 1067.36 Q1366.95 1068.5 1369.27 1069.08 Q1371.58 1069.66 1374.11 1069.66 Q1378.5 1069.66 1380.8 1067.92 Q1383.11 1066.18 1383.11 1062.87 Q1383.11 1059.82 1380.96 1058.11 Q1378.83 1056.37 1375.01 1056.37 L1370.98 1056.37 L1370.98 1052.53 L1375.19 1052.53 Q1378.64 1052.53 1380.47 1051.16 Q1382.3 1049.77 1382.3 1047.18 Q1382.3 1044.52 1380.4 1043.11 Q1378.53 1041.67 1375.01 1041.67 Q1373.09 1041.67 1370.89 1042.09 Q1368.69 1042.5 1366.05 1043.38 L1366.05 1039.22 Q1368.71 1038.48 1371.03 1038.11 Q1373.37 1037.73 1375.43 1037.73 Q1380.75 1037.73 1383.85 1040.17 Q1386.95 1042.57 1386.95 1046.69 Q1386.95 1049.56 1385.31 1051.55 Q1383.67 1053.52 1380.63 1054.29 Z" fill="#000000" fill-rule="evenodd" fill-opacity="1" /><path clip-path="url(#clip530)" d="M929.984 1098.55 Q929.984 1099.87 928.889 1099.87 Q926.957 1099.94 925.637 1100.32 Q924.316 1100.68 923.543 1101.38 Q922.802 1102.09 922.384 1102.87 Q921.997 1103.61 921.74 1104.73 L915.878 1128.15 Q914.203 1134.75 908.793 1139.55 Q903.382 1144.31 897.231 1144.31 Q893.721 1144.31 890.79 1142.87 Q887.891 1141.42 886.088 1138.49 Q884.284 1135.55 884.284 1131.66 Q884.284 1129.79 884.767 1127.83 L888.761 1111.53 L890.242 1105.73 Q891.337 1101.45 891.337 1101.06 Q891.337 1100.45 890.951 1100.29 Q890.597 1100.1 889.566 1100 L887.054 1099.87 Q886.281 1099.87 885.959 1099.84 Q885.669 1099.81 885.444 1099.65 Q885.218 1099.48 885.218 1099.13 Q885.218 1098.68 885.315 1098.39 Q885.444 1098.07 885.669 1097.97 Q885.895 1097.87 886.056 1097.84 Q886.217 1097.81 886.474 1097.81 L894.977 1098 L903.415 1097.81 Q904.349 1097.81 904.349 1098.55 Q904.349 1099.48 903.93 1099.68 Q903.511 1099.87 902.094 1099.87 Q899.679 1099.87 898.584 1100.19 Q897.521 1100.48 897.199 1101 Q896.909 1101.48 896.555 1102.9 L890.146 1128.57 Q889.824 1129.85 889.63 1131.14 Q889.469 1132.4 889.469 1133.04 L889.437 1133.69 Q889.437 1137.78 891.692 1140.03 Q893.978 1142.29 897.489 1142.29 Q902.642 1142.29 907.44 1138.2 Q912.271 1134.11 913.914 1127.7 L919.84 1104.15 Q920.033 1103.57 920.033 1102.77 Q920.033 1101.48 919.067 1100.71 Q918.133 1099.9 915.556 1099.87 Q914.365 1099.87 914.365 1099.13 Q914.365 1098.52 914.59 1098.23 Q914.848 1097.91 915.041 1097.87 Q915.266 1097.81 915.556 1097.81 Q916.651 1097.81 918.97 1097.91 Q921.289 1098 922.416 1098 Q923.543 1098 925.798 1097.91 Q928.052 1097.81 929.147 1097.81 Q929.533 1097.81 929.727 1098 Q929.952 1098.16 929.984 1098.36 L929.984 1098.55 Z" fill="#000000" fill-rule="evenodd" fill-opacity="1" /><polyline clip-path="url(#clip533)" style="stroke:#000000; stroke-linecap:butt; stroke-linejoin:round; stroke-width:2; stroke-opacity:0.1; fill:none" points="
  260.403,876.603 1552.76,876.603 
  "/>
<polyline clip-path="url(#clip533)" style="stroke:#000000; stroke-linecap:butt; stroke-linejoin:round; stroke-width:2; stroke-opacity:0.1; fill:none" points="
  260.403,729.76 1552.76,729.76 
  "/>
<polyline clip-path="url(#clip533)" style="stroke:#000000; stroke-linecap:butt; stroke-linejoin:round; stroke-width:2; stroke-opacity:0.1; fill:none" points="
  260.403,582.918 1552.76,582.918 
  "/>
<polyline clip-path="url(#clip533)" style="stroke:#000000; stroke-linecap:butt; stroke-linejoin:round; stroke-width:2; stroke-opacity:0.1; fill:none" points="
  260.403,436.076 1552.76,436.076 
  "/>
<polyline clip-path="url(#clip533)" style="stroke:#000000; stroke-linecap:butt; stroke-linejoin:round; stroke-width:2; stroke-opacity:0.1; fill:none" points="
  260.403,289.234 1552.76,289.234 
  "/>
<polyline clip-path="url(#clip533)" style="stroke:#000000; stroke-linecap:butt; stroke-linejoin:round; stroke-width:2; stroke-opacity:0.1; fill:none" points="
  260.403,142.392 1552.76,142.392 
  "/>
<polyline clip-path="url(#clip530)" style="stroke:#000000; stroke-linecap:butt; stroke-linejoin:round; stroke-width:4; stroke-opacity:1; fill:none" points="
  260.403,1016.92 260.403,131.032 
  "/>
<polyline clip-path="url(#clip530)" style="stroke:#000000; stroke-linecap:butt; stroke-linejoin:round; stroke-width:4; stroke-opacity:1; fill:none" points="
  260.403,876.603 279.301,876.603 
  "/>
<polyline clip-path="url(#clip530)" style="stroke:#000000; stroke-linecap:butt; stroke-linejoin:round; stroke-width:4; stroke-opacity:1; fill:none" points="
  260.403,729.76 279.301,729.76 
  "/>
<polyline clip-path="url(#clip530)" style="stroke:#000000; stroke-linecap:butt; stroke-linejoin:round; stroke-width:4; stroke-opacity:1; fill:none" points="
  260.403,582.918 279.301,582.918 
  "/>
<polyline clip-path="url(#clip530)" style="stroke:#000000; stroke-linecap:butt; stroke-linejoin:round; stroke-width:4; stroke-opacity:1; fill:none" points="
  260.403,436.076 279.301,436.076 
  "/>
<polyline clip-path="url(#clip530)" style="stroke:#000000; stroke-linecap:butt; stroke-linejoin:round; stroke-width:4; stroke-opacity:1; fill:none" points="
  260.403,289.234 279.301,289.234 
  "/>
<polyline clip-path="url(#clip530)" style="stroke:#000000; stroke-linecap:butt; stroke-linejoin:round; stroke-width:4; stroke-opacity:1; fill:none" points="
  260.403,142.392 279.301,142.392 
  "/>
<path clip-path="url(#clip530)" d="M180.454 862.401 Q176.843 862.401 175.015 865.966 Q173.209 869.508 173.209 876.637 Q173.209 883.744 175.015 887.309 Q176.843 890.85 180.454 890.85 Q184.089 890.85 185.894 887.309 Q187.723 883.744 187.723 876.637 Q187.723 869.508 185.894 865.966 Q184.089 862.401 180.454 862.401 M180.454 858.698 Q186.265 858.698 189.32 863.304 Q192.399 867.887 192.399 876.637 Q192.399 885.364 189.32 889.971 Q186.265 894.554 180.454 894.554 Q174.644 894.554 171.566 889.971 Q168.51 885.364 168.51 876.637 Q168.51 867.887 171.566 863.304 Q174.644 858.698 180.454 858.698 Z" fill="#000000" fill-rule="evenodd" fill-opacity="1" /><path clip-path="url(#clip530)" d="M200.616 888.003 L205.501 888.003 L205.501 893.883 L200.616 893.883 L200.616 888.003 Z" fill="#000000" fill-rule="evenodd" fill-opacity="1" /><path clip-path="url(#clip530)" d="M216.496 889.947 L224.135 889.947 L224.135 863.582 L215.825 865.248 L215.825 860.989 L224.088 859.323 L228.764 859.323 L228.764 889.947 L236.403 889.947 L236.403 893.883 L216.496 893.883 L216.496 889.947 Z" fill="#000000" fill-rule="evenodd" fill-opacity="1" /><path clip-path="url(#clip530)" d="M180.825 715.559 Q177.214 715.559 175.385 719.124 Q173.579 722.666 173.579 729.795 Q173.579 736.902 175.385 740.466 Q177.214 744.008 180.825 744.008 Q184.459 744.008 186.265 740.466 Q188.093 736.902 188.093 729.795 Q188.093 722.666 186.265 719.124 Q184.459 715.559 180.825 715.559 M180.825 711.855 Q186.635 711.855 189.69 716.462 Q192.769 721.045 192.769 729.795 Q192.769 738.522 189.69 743.128 Q186.635 747.712 180.825 747.712 Q175.015 747.712 171.936 743.128 Q168.88 738.522 168.88 729.795 Q168.88 721.045 171.936 716.462 Q175.015 711.855 180.825 711.855 Z" fill="#000000" fill-rule="evenodd" fill-opacity="1" /><path clip-path="url(#clip530)" d="M200.987 741.161 L205.871 741.161 L205.871 747.04 L200.987 747.04 L200.987 741.161 Z" fill="#000000" fill-rule="evenodd" fill-opacity="1" /><path clip-path="url(#clip530)" d="M220.084 743.105 L236.403 743.105 L236.403 747.04 L214.459 747.04 L214.459 743.105 Q217.121 740.351 221.704 735.721 Q226.311 731.068 227.491 729.726 Q229.737 727.203 230.616 725.467 Q231.519 723.707 231.519 722.017 Q231.519 719.263 229.574 717.527 Q227.653 715.791 224.551 715.791 Q222.352 715.791 219.899 716.555 Q217.468 717.318 214.69 718.869 L214.69 714.147 Q217.514 713.013 219.968 712.434 Q222.422 711.855 224.459 711.855 Q229.829 711.855 233.024 714.541 Q236.218 717.226 236.218 721.717 Q236.218 723.846 235.408 725.767 Q234.621 727.666 232.514 730.258 Q231.936 730.929 228.834 734.147 Q225.732 737.341 220.084 743.105 Z" fill="#000000" fill-rule="evenodd" fill-opacity="1" /><path clip-path="url(#clip530)" d="M179.876 568.717 Q176.265 568.717 174.436 572.282 Q172.63 575.824 172.63 582.953 Q172.63 590.06 174.436 593.624 Q176.265 597.166 179.876 597.166 Q183.51 597.166 185.315 593.624 Q187.144 590.06 187.144 582.953 Q187.144 575.824 185.315 572.282 Q183.51 568.717 179.876 568.717 M179.876 565.013 Q185.686 565.013 188.741 569.62 Q191.82 574.203 191.82 582.953 Q191.82 591.68 188.741 596.286 Q185.686 600.87 179.876 600.87 Q174.066 600.87 170.987 596.286 Q167.931 591.68 167.931 582.953 Q167.931 574.203 170.987 569.62 Q174.066 565.013 179.876 565.013 Z" fill="#000000" fill-rule="evenodd" fill-opacity="1" /><path clip-path="url(#clip530)" d="M200.038 594.319 L204.922 594.319 L204.922 600.198 L200.038 600.198 L200.038 594.319 Z" fill="#000000" fill-rule="evenodd" fill-opacity="1" /><path clip-path="url(#clip530)" d="M229.274 581.564 Q232.63 582.282 234.505 584.55 Q236.403 586.819 236.403 590.152 Q236.403 595.268 232.885 598.069 Q229.366 600.87 222.885 600.87 Q220.709 600.87 218.394 600.43 Q216.102 600.013 213.649 599.157 L213.649 594.643 Q215.593 595.777 217.908 596.356 Q220.223 596.935 222.746 596.935 Q227.144 596.935 229.436 595.198 Q231.75 593.462 231.75 590.152 Q231.75 587.097 229.598 585.384 Q227.468 583.648 223.649 583.648 L219.621 583.648 L219.621 579.805 L223.834 579.805 Q227.283 579.805 229.112 578.439 Q230.94 577.05 230.94 574.458 Q230.94 571.796 229.042 570.384 Q227.167 568.949 223.649 568.949 Q221.727 568.949 219.528 569.365 Q217.329 569.782 214.69 570.662 L214.69 566.495 Q217.352 565.754 219.667 565.384 Q222.005 565.013 224.065 565.013 Q229.389 565.013 232.491 567.444 Q235.593 569.851 235.593 573.972 Q235.593 576.842 233.949 578.833 Q232.306 580.8 229.274 581.564 Z" fill="#000000" fill-rule="evenodd" fill-opacity="1" /><path clip-path="url(#clip530)" d="M178.741 421.875 Q175.13 421.875 173.302 425.44 Q171.496 428.981 171.496 436.111 Q171.496 443.218 173.302 446.782 Q175.13 450.324 178.741 450.324 Q182.376 450.324 184.181 446.782 Q186.01 443.218 186.01 436.111 Q186.01 428.981 184.181 425.44 Q182.376 421.875 178.741 421.875 M178.741 418.171 Q184.552 418.171 187.607 422.778 Q190.686 427.361 190.686 436.111 Q190.686 444.838 187.607 449.444 Q184.552 454.028 178.741 454.028 Q172.931 454.028 169.853 449.444 Q166.797 444.838 166.797 436.111 Q166.797 427.361 169.853 422.778 Q172.931 418.171 178.741 418.171 Z" fill="#000000" fill-rule="evenodd" fill-opacity="1" /><path clip-path="url(#clip530)" d="M198.903 447.477 L203.788 447.477 L203.788 453.356 L198.903 453.356 L198.903 447.477 Z" fill="#000000" fill-rule="evenodd" fill-opacity="1" /><path clip-path="url(#clip530)" d="M226.82 422.87 L215.014 441.319 L226.82 441.319 L226.82 422.87 M225.593 418.796 L231.473 418.796 L231.473 441.319 L236.403 441.319 L236.403 445.208 L231.473 445.208 L231.473 453.356 L226.82 453.356 L226.82 445.208 L211.218 445.208 L211.218 440.694 L225.593 418.796 Z" fill="#000000" fill-rule="evenodd" fill-opacity="1" /><path clip-path="url(#clip530)" d="M180.223 275.033 Q176.612 275.033 174.783 278.598 Q172.978 282.139 172.978 289.269 Q172.978 296.375 174.783 299.94 Q176.612 303.482 180.223 303.482 Q183.857 303.482 185.663 299.94 Q187.491 296.375 187.491 289.269 Q187.491 282.139 185.663 278.598 Q183.857 275.033 180.223 275.033 M180.223 271.329 Q186.033 271.329 189.089 275.936 Q192.167 280.519 192.167 289.269 Q192.167 297.996 189.089 302.602 Q186.033 307.186 180.223 307.186 Q174.413 307.186 171.334 302.602 Q168.279 297.996 168.279 289.269 Q168.279 280.519 171.334 275.936 Q174.413 271.329 180.223 271.329 Z" fill="#000000" fill-rule="evenodd" fill-opacity="1" /><path clip-path="url(#clip530)" d="M200.385 300.635 L205.269 300.635 L205.269 306.514 L200.385 306.514 L200.385 300.635 Z" fill="#000000" fill-rule="evenodd" fill-opacity="1" /><path clip-path="url(#clip530)" d="M215.5 271.954 L233.857 271.954 L233.857 275.889 L219.783 275.889 L219.783 284.362 Q220.801 284.014 221.82 283.852 Q222.838 283.667 223.857 283.667 Q229.644 283.667 233.024 286.838 Q236.403 290.01 236.403 295.426 Q236.403 301.005 232.931 304.107 Q229.459 307.186 223.139 307.186 Q220.963 307.186 218.695 306.815 Q216.45 306.445 214.042 305.704 L214.042 301.005 Q216.125 302.139 218.348 302.695 Q220.57 303.25 223.047 303.25 Q227.051 303.25 229.389 301.144 Q231.727 299.037 231.727 295.426 Q231.727 291.815 229.389 289.709 Q227.051 287.602 223.047 287.602 Q221.172 287.602 219.297 288.019 Q217.445 288.436 215.5 289.315 L215.5 271.954 Z" fill="#000000" fill-rule="evenodd" fill-opacity="1" /><path clip-path="url(#clip530)" d="M179.065 128.191 Q175.454 128.191 173.626 131.756 Q171.82 135.297 171.82 142.427 Q171.82 149.533 173.626 153.098 Q175.454 156.64 179.065 156.64 Q182.7 156.64 184.505 153.098 Q186.334 149.533 186.334 142.427 Q186.334 135.297 184.505 131.756 Q182.7 128.191 179.065 128.191 M179.065 124.487 Q184.876 124.487 187.931 129.094 Q191.01 133.677 191.01 142.427 Q191.01 151.154 187.931 155.76 Q184.876 160.344 179.065 160.344 Q173.255 160.344 170.177 155.76 Q167.121 151.154 167.121 142.427 Q167.121 133.677 170.177 129.094 Q173.255 124.487 179.065 124.487 Z" fill="#000000" fill-rule="evenodd" fill-opacity="1" /><path clip-path="url(#clip530)" d="M199.227 153.793 L204.112 153.793 L204.112 159.672 L199.227 159.672 L199.227 153.793 Z" fill="#000000" fill-rule="evenodd" fill-opacity="1" /><path clip-path="url(#clip530)" d="M224.875 140.529 Q221.727 140.529 219.875 142.682 Q218.047 144.834 218.047 148.584 Q218.047 152.311 219.875 154.487 Q221.727 156.64 224.875 156.64 Q228.024 156.64 229.852 154.487 Q231.704 152.311 231.704 148.584 Q231.704 144.834 229.852 142.682 Q228.024 140.529 224.875 140.529 M234.158 125.876 L234.158 130.135 Q232.399 129.302 230.593 128.862 Q228.811 128.422 227.051 128.422 Q222.422 128.422 219.968 131.547 Q217.538 134.672 217.19 140.992 Q218.556 138.978 220.616 137.913 Q222.676 136.825 225.153 136.825 Q230.362 136.825 233.371 139.996 Q236.403 143.145 236.403 148.584 Q236.403 153.908 233.255 157.126 Q230.107 160.344 224.875 160.344 Q218.88 160.344 215.709 155.76 Q212.538 151.154 212.538 142.427 Q212.538 134.233 216.426 129.371 Q220.315 124.487 226.866 124.487 Q228.625 124.487 230.408 124.834 Q232.213 125.182 234.158 125.876 Z" fill="#000000" fill-rule="evenodd" fill-opacity="1" /><path clip-path="url(#clip530)" d="M79.3978 773.818 Q79.6233 773.818 80.5895 774.366 Q81.5234 774.881 83.8745 776.781 Q86.2255 778.682 88.963 781.516 Q90.0258 782.578 91.5072 784.189 Q92.9887 785.799 93.9549 786.894 L94.9211 787.989 Q98.4637 792.176 102.425 795.847 Q102.328 795.59 102.296 795.139 Q102.232 794.688 102.232 794.366 L102.232 794.044 Q102.232 792.369 103.359 789.438 Q104.196 786.862 104.196 785.541 Q104.196 784.253 103.745 782.836 Q103.295 781.419 101.974 779.873 Q100.654 778.327 98.657 777.619 Q98.3349 777.49 98.2383 777.426 Q98.1095 777.361 97.9806 777.168 Q97.8196 776.975 97.8196 776.717 Q97.8196 776.363 98.0128 776.137 Q98.2061 775.912 98.4637 775.912 Q99.0434 775.912 100.203 776.363 Q101.362 776.781 102.812 777.715 Q104.261 778.617 105.581 779.809 Q106.869 780.968 107.771 782.707 Q108.641 784.446 108.641 786.282 Q108.641 787.603 107.997 788.569 Q107.385 789.535 106.193 790.501 Q104.679 791.822 104.196 792.53 Q103.681 793.239 103.681 794.334 Q103.681 797.264 107.771 799.937 Q108.351 800.227 108.48 800.421 Q108.641 800.582 108.641 800.968 Q108.609 801.773 107.964 801.773 Q107.707 801.773 106.58 801.065 Q105.42 800.324 103.391 798.681 Q101.362 797.007 99.3333 794.978 L93.7939 789.052 Q88.2545 782.482 85.1305 779.873 Q85.1305 780.968 85.0983 781.451 Q85.0661 781.902 84.8728 782.804 Q84.6474 783.706 84.1643 784.962 Q83.1659 787.892 83.1659 789.116 Q83.1659 789.438 83.1981 789.793 Q83.2303 790.147 83.3914 790.952 Q83.5524 791.725 83.8745 792.369 Q84.1643 793.013 84.8084 793.689 Q85.4203 794.366 86.2577 794.72 Q86.5153 794.817 86.6442 794.881 Q86.773 794.946 86.9018 795.139 Q86.9984 795.3 86.9984 795.557 Q86.9984 795.944 86.773 796.169 Q86.5475 796.363 86.2577 796.363 Q85.678 796.363 84.4864 795.783 Q83.2948 795.203 82.0065 794.237 Q80.6861 793.271 79.7199 791.693 Q78.7537 790.115 78.7537 788.376 Q78.7537 787.345 79.2046 786.475 Q79.6555 785.574 80.1386 785.123 Q80.5895 784.64 81.5878 783.835 Q82.3608 783.158 82.6828 782.836 Q83.0049 782.514 83.3592 781.87 Q83.6812 781.194 83.6812 780.453 Q83.6812 779.229 82.7473 778.102 Q81.7811 776.975 79.4623 775.525 Q78.7537 775.139 78.7537 774.527 Q78.7537 773.818 79.3978 773.818 Z" fill="#000000" fill-rule="evenodd" fill-opacity="1" /><path clip-path="url(#clip530)" d="M97.884 753.111 Q97.0789 753.046 97.0789 751.79 L97.0789 711.372 Q97.0789 709.472 97.8196 709.44 Q98.6247 709.44 98.5925 711.243 L98.5925 751.339 Q98.6247 753.111 97.884 753.111 M85.0017 753.111 Q84.1965 753.111 84.2287 751.726 L84.2287 711.436 Q84.2287 709.472 85.0017 709.44 Q85.7424 709.44 85.7424 711.114 L85.7424 751.79 Q85.7424 753.111 85.0017 753.111 Z" fill="#000000" fill-rule="evenodd" fill-opacity="1" /><path clip-path="url(#clip530)" d="M91.4106 684.003 Q80.2674 684.003 71.282 679.849 Q67.5139 678.077 64.3577 675.597 Q61.2015 673.117 59.8167 671.475 Q58.4318 669.832 58.4318 669.382 Q58.4318 668.737 59.0759 668.705 Q59.398 668.705 60.2032 669.575 Q71.0243 680.203 91.4106 680.171 Q111.861 680.171 122.264 669.832 Q123.391 668.705 123.745 668.705 Q124.389 668.705 124.389 669.382 Q124.389 669.832 123.069 671.411 Q121.749 672.989 118.721 675.436 Q115.694 677.884 111.99 679.655 Q103.005 684.003 91.4106 684.003 Z" fill="#000000" fill-rule="evenodd" fill-opacity="1" /><path clip-path="url(#clip530)" d="M70.2514 659.998 L68.1902 659.998 Q68.1902 652.075 63.9712 647.985 Q63.9712 646.858 64.2289 646.664 Q64.4865 646.471 65.6781 646.471 L102.683 646.471 Q104.647 646.471 105.259 645.505 Q105.871 644.539 105.871 640.32 L105.871 638.227 L107.9 638.227 Q107.707 640.545 107.707 648.919 Q107.707 657.292 107.9 659.579 L105.871 659.579 L105.871 657.486 Q105.871 653.331 105.291 652.333 Q104.679 651.334 102.683 651.334 L68.5123 651.334 Q70.2514 654.78 70.2514 659.998 Z" fill="#000000" fill-rule="evenodd" fill-opacity="1" /><path clip-path="url(#clip530)" d="M90.4767 565.496 Q90.8631 565.11 91.4106 565.11 Q91.9581 565.11 92.3446 565.496 Q92.7311 565.883 92.7311 566.43 L92.7311 607.718 Q92.7311 608.266 92.3446 608.652 Q91.9581 609.039 91.4106 609.039 Q90.8631 609.039 90.4767 608.652 Q90.0902 608.266 90.0902 607.718 L90.0902 566.43 Q90.0902 565.883 90.4767 565.496 Z" fill="#000000" fill-rule="evenodd" fill-opacity="1" /><path clip-path="url(#clip530)" d="M44.1445 491.165 Q46.2379 491.165 48.8788 491.584 Q51.4874 492.003 54.547 492.904 Q57.5744 493.806 60.5695 495.094 Q63.5324 496.383 66.3021 498.283 Q69.0396 500.151 71.133 502.373 Q73.2264 504.595 74.4824 507.526 Q75.7385 510.457 75.7385 513.709 Q75.7385 516.35 74.9011 518.508 Q74.0638 520.666 72.8077 521.986 Q71.5195 523.307 69.9092 524.241 Q68.2989 525.143 66.8174 525.497 Q65.336 525.851 64.0155 525.851 Q62.9527 525.851 61.7289 525.69 Q60.5051 525.497 58.5727 524.982 Q56.6082 524.434 54.4504 523.146 Q52.2604 521.825 50.3602 519.925 Q46.7854 516.35 45.465 513.13 Q44.1445 509.909 44.1445 506.463 Q44.1445 502.824 46.3667 500.666 Q48.5889 498.476 51.9383 497.961 Q45.0463 496.093 40.6663 496.093 Q37.6067 496.093 35.2557 496.898 Q32.8725 497.671 31.4876 499.024 Q30.1028 500.344 29.4264 502.019 Q28.7179 503.661 28.7179 505.529 Q28.7179 506.495 28.8789 507.462 Q29.04 508.428 29.5231 509.845 Q29.9739 511.262 31.1333 512.647 Q32.2928 513.999 33.9997 515.03 Q33.9997 514.418 34.0641 514.064 Q34.0963 513.709 34.2895 513.13 Q34.4505 512.55 34.9658 512.26 Q35.4811 511.938 36.2863 511.938 Q37.5423 511.938 38.6695 512.969 Q39.7967 513.967 39.7967 515.513 Q39.7967 516.833 39.0882 517.413 Q38.3797 517.993 37.4779 517.993 Q36.8338 517.993 35.7066 517.639 Q34.5472 517.252 33.0335 516.318 Q31.5198 515.352 30.2316 513.999 Q28.9111 512.614 28.0094 510.36 Q27.0754 508.106 27.0754 505.4 Q27.0754 499.185 31.7453 495.191 Q36.4151 491.165 44.1445 491.165 M54.2894 499.152 Q53.8385 499.152 53.3876 499.185 Q52.9367 499.185 52.0027 499.346 Q51.0688 499.507 50.2958 499.764 Q49.5229 500.022 48.6211 500.569 Q47.6872 501.117 47.0752 501.858 Q46.4311 502.598 46.0125 503.79 Q45.5938 504.982 45.5938 506.463 Q45.5938 512.292 51.4552 516.415 Q54.0639 518.186 59.2813 519.474 Q64.4664 520.763 66.431 520.763 Q66.8174 520.763 67.2361 520.73 Q67.6548 520.666 68.6532 520.505 Q69.6193 520.344 70.4245 519.861 Q71.2296 519.378 72.0992 518.637 Q72.9366 517.896 73.4196 516.576 Q73.9027 515.223 73.9027 513.516 Q73.9027 510.65 72.3246 508.17 Q70.7143 505.658 68.3633 504.08 Q66.0123 502.47 63.2426 501.31 Q60.4729 500.151 58.1541 499.668 Q55.8352 499.152 54.2894 499.152 Z" fill="#000000" fill-rule="evenodd" fill-opacity="1" /><path clip-path="url(#clip530)" d="M30.296 487.748 Q29.2332 487.748 29.2332 486.299 L29.2332 449.359 L44.0801 447.523 L44.0801 449.23 Q39.7323 449.81 37.2203 450.84 Q34.7082 451.871 33.3555 454.061 Q32.0029 456.219 31.6486 458.892 Q31.2944 461.565 31.2944 466.46 L31.2944 480.309 L50.006 467.362 Q51.3264 466.428 51.7451 466.46 Q52.3248 466.46 53.5164 467.587 L71.5195 483.529 L71.5195 467.781 Q71.5195 464.753 71.4229 462.853 Q71.3263 460.921 71.0686 458.892 Q70.7788 456.831 70.2313 455.639 Q69.6838 454.447 68.782 453.256 Q67.8802 452.064 66.4632 451.388 Q65.0461 450.679 63.146 450.132 Q61.2136 449.584 58.6694 449.23 L58.6694 447.523 L74.2892 449.359 L74.2892 486.363 Q74.2892 487.684 73.4841 487.684 Q73.0976 487.684 72.1636 486.911 L54.6436 471.323 Q53.7741 471.967 51.9383 473.191 L31.8097 487.104 Q30.6181 487.748 30.296 487.748 Z" fill="#000000" fill-rule="evenodd" fill-opacity="1" /><path clip-path="url(#clip530)" d="
M93.3267 525.851 L93.3267 440.875 L89.8067 440.875 L89.8067 525.851  Z
  " fill="#000000" fill-rule="evenodd" fill-opacity="1"/>
<path clip-path="url(#clip530)" d="M124.022 489.165 Q126.116 489.165 128.757 489.584 Q131.365 490.003 134.425 490.904 Q137.452 491.806 140.447 493.094 Q143.41 494.383 146.18 496.283 Q148.918 498.151 151.011 500.373 Q153.104 502.595 154.36 505.526 Q155.616 508.457 155.616 511.709 Q155.616 514.35 154.779 516.508 Q153.942 518.666 152.686 519.986 Q151.397 521.307 149.787 522.241 Q148.177 523.143 146.695 523.497 Q145.214 523.851 143.893 523.851 Q142.831 523.851 141.607 523.69 Q140.383 523.497 138.451 522.982 Q136.486 522.434 134.328 521.146 Q132.138 519.825 130.238 517.925 Q126.663 514.35 125.343 511.13 Q124.022 507.909 124.022 504.463 Q124.022 500.824 126.245 498.666 Q128.467 496.476 131.816 495.961 Q124.924 494.093 120.544 494.093 Q117.485 494.093 115.134 494.898 Q112.75 495.671 111.366 497.024 Q109.981 498.344 109.304 500.019 Q108.596 501.661 108.596 503.529 Q108.596 504.495 108.757 505.462 Q108.918 506.428 109.401 507.845 Q109.852 509.262 111.011 510.647 Q112.171 511.999 113.878 513.03 Q113.878 512.418 113.942 512.064 Q113.974 511.709 114.167 511.13 Q114.328 510.55 114.844 510.26 Q115.359 509.938 116.164 509.938 Q117.42 509.938 118.547 510.969 Q119.675 511.967 119.675 513.513 Q119.675 514.833 118.966 515.413 Q118.258 515.993 117.356 515.993 Q116.712 515.993 115.584 515.639 Q114.425 515.252 112.911 514.318 Q111.398 513.352 110.109 511.999 Q108.789 510.614 107.887 508.36 Q106.953 506.106 106.953 503.4 Q106.953 497.185 111.623 493.191 Q116.293 489.165 124.022 489.165 M134.167 497.152 Q133.716 497.152 133.266 497.185 Q132.815 497.185 131.881 497.346 Q130.947 497.507 130.174 497.764 Q129.401 498.022 128.499 498.569 Q127.565 499.117 126.953 499.858 Q126.309 500.598 125.89 501.79 Q125.472 502.982 125.472 504.463 Q125.472 510.292 131.333 514.415 Q133.942 516.186 139.159 517.474 Q144.344 518.763 146.309 518.763 Q146.695 518.763 147.114 518.73 Q147.533 518.666 148.531 518.505 Q149.497 518.344 150.302 517.861 Q151.108 517.378 151.977 516.637 Q152.814 515.896 153.298 514.576 Q153.781 513.223 153.781 511.516 Q153.781 508.65 152.203 506.17 Q150.592 503.658 148.241 502.08 Q145.89 500.47 143.121 499.31 Q140.351 498.151 138.032 497.668 Q135.713 497.152 134.167 497.152 Z" fill="#000000" fill-rule="evenodd" fill-opacity="1" /><path clip-path="url(#clip530)" d="M129.626 449.155 Q132.621 449.155 138.418 450.669 Q140.931 451.281 143.217 452.118 Q145.472 452.923 147.662 454.115 Q149.852 455.306 151.43 456.691 Q152.975 458.076 153.942 459.88 Q154.908 461.683 154.908 463.68 Q154.908 466.836 153.04 468.704 Q151.14 470.54 147.887 471.119 Q154.908 475.435 154.908 481.2 Q154.908 484.775 152.364 486.449 Q149.787 488.124 145.472 488.124 Q141.832 488.124 138.064 487.158 Q130.914 485.322 125.923 481.747 Q125.343 481.264 125.343 480.556 Q125.343 480.137 125.472 479.944 Q125.826 479.364 126.406 479.364 Q126.824 479.364 127.243 479.686 Q130.367 481.941 133.04 483.422 Q135.713 484.904 138.418 485.58 Q140.737 486.095 142.702 486.095 Q146.019 486.095 148.08 484.678 Q150.141 483.229 150.141 480.363 Q150.141 477.722 148.499 475.403 Q146.824 473.084 144.022 471.377 Q140.963 471.28 138.064 470.54 Q134.972 469.863 134.972 468.285 Q134.972 467.029 136.679 467.029 Q137.259 467.029 138.418 467.287 Q141.478 467.996 144.216 469.284 Q146.889 468.833 148.531 467.158 Q150.141 465.483 150.141 462.81 Q150.141 460.331 148.338 458.141 Q146.534 455.918 143.893 454.501 Q141.22 453.052 138.064 452.247 Q137.001 451.989 135.649 451.989 Q132.042 451.989 129.819 454.501 Q129.111 455.21 128.177 455.21 Q127.082 455.21 126.084 454.308 Q125.021 453.245 125.021 451.989 Q125.021 451.055 125.601 450.476 Q126.76 449.155 129.626 449.155 Z" fill="#000000" fill-rule="evenodd" fill-opacity="1" /><path clip-path="url(#clip530)" d="M123.745 433.835 Q123.423 433.835 122.618 432.997 Q111.797 422.37 91.4106 422.37 Q70.9599 422.37 60.6218 432.579 Q59.4302 433.835 59.0759 433.835 Q58.4318 433.835 58.4318 433.191 Q58.4318 432.74 59.7523 431.162 Q61.0727 429.551 64.1001 427.136 Q67.1274 424.688 70.8311 422.885 Q79.8165 418.537 91.4106 418.537 Q102.554 418.537 111.539 422.692 Q115.307 424.463 118.464 426.943 Q121.62 429.423 123.005 431.065 Q124.389 432.708 124.389 433.191 Q124.389 433.835 123.745 433.835 Z" fill="#000000" fill-rule="evenodd" fill-opacity="1" /><path clip-path="url(#clip530)" d="M55.8513 381.169 Q56.1218 380.899 56.5051 380.899 Q56.8883 380.899 57.1588 381.169 Q57.4294 381.44 57.4294 381.823 L57.4294 410.725 Q57.4294 411.108 57.1588 411.378 Q56.8883 411.649 56.5051 411.649 Q56.1218 411.649 55.8513 411.378 Q55.5807 411.108 55.5807 410.725 L55.5807 381.823 Q55.5807 381.44 55.8513 381.169 Z" fill="#000000" fill-rule="evenodd" fill-opacity="1" /><path clip-path="url(#clip530)" d="M41.6936 376.082 L40.2508 376.082 Q40.2508 370.536 37.2975 367.673 Q37.2975 366.884 37.4778 366.749 Q37.6582 366.613 38.4923 366.613 L64.3955 366.613 Q65.7707 366.613 66.199 365.937 Q66.6274 365.261 66.6274 362.307 L66.6274 360.842 L68.0476 360.842 Q67.9124 362.465 67.9124 368.327 Q67.9124 374.188 68.0476 375.789 L66.6274 375.789 L66.6274 374.323 Q66.6274 371.415 66.2216 370.716 Q65.7932 370.017 64.3955 370.017 L40.4762 370.017 Q41.6936 372.43 41.6936 376.082 Z" fill="#000000" fill-rule="evenodd" fill-opacity="1" /><path clip-path="url(#clip530)" d="M809.695 25.7466 Q809.695 26.5254 809.531 27.1812 L807.236 41.7734 Q807.113 42.8801 806.867 43.29 Q806.662 43.6999 806.006 43.6999 Q804.981 43.6999 804.981 42.6342 Q804.981 42.0193 805.227 41.0356 Q805.924 36.4038 805.924 34.3133 Q805.924 32.9197 805.637 31.895 Q805.391 30.8293 804.981 30.0914 Q804.612 29.3536 803.752 28.8618 Q802.891 28.3699 802.071 28.083 Q801.251 27.796 799.776 27.6731 Q798.3 27.5091 797.029 27.4681 Q795.759 27.4271 793.668 27.4271 Q789.118 27.4271 788.381 27.5911 Q787.602 27.796 787.192 28.4109 Q786.823 28.9847 786.413 30.7063 L775.264 75.2616 L774.936 77.0242 Q774.936 78.0079 775.551 78.3358 Q776.166 78.6637 778.051 78.8687 Q780.757 79.0736 783.421 79.0736 Q783.503 79.0736 783.667 79.0736 Q784.569 79.0736 784.938 79.1146 Q785.306 79.1146 785.675 79.1966 Q786.044 79.2786 786.126 79.4835 Q786.249 79.6475 786.249 79.9754 Q786.249 80.7542 785.921 81.1641 Q785.593 81.533 785.265 81.615 Q784.979 81.656 784.405 81.656 Q783.257 81.656 780.798 81.574 Q778.338 81.492 777.109 81.492 L770.14 81.41 L763.008 81.492 Q761.902 81.492 759.565 81.574 Q757.229 81.656 756.122 81.656 Q754.687 81.656 754.687 80.6312 Q754.687 79.4835 755.22 79.2786 Q755.794 79.0736 758.213 79.0736 Q761.615 79.0736 763.459 78.9097 Q765.304 78.7457 766.287 78.1719 Q767.312 77.598 767.599 77.0242 Q767.886 76.4093 768.214 75.0157 L779.486 30.2144 Q779.814 29.2307 779.814 28.4519 Q779.814 28.042 779.691 27.878 Q779.609 27.7141 779.076 27.5911 Q778.543 27.4271 777.436 27.4271 L774.157 27.4271 Q770.796 27.4271 768.706 27.5911 Q766.656 27.7141 764.689 28.3289 Q762.762 28.9437 761.615 29.8045 Q760.508 30.6653 759.278 32.4278 Q758.049 34.1904 757.147 36.3218 Q756.286 38.4533 755.056 41.9373 Q754.646 43.085 754.401 43.413 Q754.196 43.6999 753.622 43.6999 Q753.212 43.6999 752.884 43.454 Q752.597 43.167 752.597 42.7981 Q753.007 41.4455 753.089 41.2815 L758.131 26.4844 Q758.54 25.2957 758.909 25.0908 Q759.319 24.8448 760.836 24.8448 L807.4 24.8448 Q808.137 24.8448 808.383 24.8448 Q808.629 24.8448 809.039 24.9268 Q809.449 25.0088 809.572 25.2137 Q809.695 25.4187 809.695 25.7466 Z" fill="#000000" fill-rule="evenodd" fill-opacity="1" /><path clip-path="url(#clip530)" d="M824.443 68.9083 Q824.525 67.8836 826.124 67.8836 L877.565 67.8836 Q879.984 67.8836 880.025 68.8263 Q880.025 69.851 877.729 69.8101 L826.697 69.8101 Q824.443 69.851 824.443 68.9083 M824.443 52.5126 Q824.443 51.4878 826.206 51.5288 L877.483 51.5288 Q879.984 51.5288 880.025 52.5126 Q880.025 53.4553 877.893 53.4553 L826.124 53.4553 Q824.443 53.4553 824.443 52.5126 Z" fill="#000000" fill-rule="evenodd" fill-opacity="1" /><path clip-path="url(#clip530)" d="M912.407 54.808 Q912.407 42.4702 915.522 35.748 Q919.867 25.7466 930.114 25.7466 Q932.287 25.7466 934.541 26.3614 Q936.836 26.9353 939.706 29.1897 Q942.616 31.4441 944.378 35.1331 Q947.74 42.2653 947.74 54.808 Q947.74 67.0638 944.624 73.745 Q940.075 83.5005 930.032 83.5005 Q926.261 83.5005 922.408 81.574 Q918.596 79.6475 916.178 75.0157 Q912.407 68.0885 912.407 54.808 M919.375 53.7832 Q919.375 66.4489 920.277 71.4906 Q921.301 76.9422 924.089 79.3196 Q926.917 81.656 930.032 81.656 Q933.393 81.656 936.181 79.1556 Q939.009 76.6143 939.87 71.1627 Q940.812 65.7931 940.771 53.7832 Q940.771 42.1013 939.952 37.4285 Q938.845 31.977 935.894 29.8045 Q932.983 27.5911 930.032 27.5911 Q928.925 27.5911 927.737 27.919 Q926.589 28.2469 924.908 29.1897 Q923.228 30.1324 921.916 32.4688 Q920.646 34.8052 920.031 38.3303 Q919.375 42.8801 919.375 53.7832 Z" fill="#000000" fill-rule="evenodd" fill-opacity="1" /><path clip-path="url(#clip530)" d="M955.25 80.3033 Q953.98 78.9507 953.98 77.1881 Q953.98 75.4256 955.25 74.1549 Q956.521 72.8433 958.447 72.8433 Q960.292 72.8433 961.522 74.0729 Q962.792 75.2616 962.792 77.2291 Q962.792 79.1556 961.44 80.4263 Q960.128 81.656 958.447 81.656 Q956.521 81.656 955.25 80.3033 Z" fill="#000000" fill-rule="evenodd" fill-opacity="1" /><path clip-path="url(#clip530)" d="M977.08 54.808 Q977.08 42.4702 980.195 35.748 Q984.54 25.7466 994.788 25.7466 Q996.96 25.7466 999.214 26.3614 Q1001.51 26.9353 1004.38 29.1897 Q1007.29 31.4441 1009.05 35.1331 Q1012.41 42.2653 1012.41 54.808 Q1012.41 67.0638 1009.3 73.745 Q1004.75 83.5005 994.706 83.5005 Q990.935 83.5005 987.082 81.574 Q983.27 79.6475 980.851 75.0157 Q977.08 68.0885 977.08 54.808 M984.048 53.7832 Q984.048 66.4489 984.95 71.4906 Q985.975 76.9422 988.762 79.3196 Q991.59 81.656 994.706 81.656 Q998.067 81.656 1000.85 79.1556 Q1003.68 76.6143 1004.54 71.1627 Q1005.49 65.7931 1005.44 53.7832 Q1005.44 42.1013 1004.63 37.4285 Q1003.52 31.977 1000.57 29.8045 Q997.657 27.5911 994.706 27.5911 Q993.599 27.5911 992.41 27.919 Q991.263 28.2469 989.582 29.1897 Q987.901 30.1324 986.59 32.4688 Q985.319 34.8052 984.704 38.3303 Q984.048 42.8801 984.048 53.7832 Z" fill="#000000" fill-rule="evenodd" fill-opacity="1" /><path clip-path="url(#clip530)" d="M1018.99 68.1295 Q1018.99 65.6292 1020.34 64.6864 Q1021.69 63.7027 1023.13 63.7027 Q1025.06 63.7027 1026.16 64.9323 Q1027.31 66.121 1027.31 67.8016 Q1027.31 69.4821 1026.16 70.7118 Q1025.06 71.9005 1023.13 71.9005 Q1022.19 71.9005 1021.69 71.7366 Q1022.8 75.5895 1026.16 78.3768 Q1029.56 81.1641 1034.03 81.1641 Q1039.65 81.1641 1043.01 75.7125 Q1045.02 72.1874 1045.02 64.1945 Q1045.02 57.1444 1043.5 53.6193 Q1041.16 48.2497 1036.37 48.2497 Q1029.56 48.2497 1025.55 54.1112 Q1025.06 54.849 1024.48 54.89 Q1023.66 54.89 1023.46 54.4391 Q1023.29 53.9472 1023.29 52.6765 L1023.29 27.837 Q1023.29 25.8286 1024.11 25.8286 Q1024.44 25.8286 1025.14 26.0745 Q1030.43 28.4109 1036.29 28.4519 Q1042.31 28.4519 1047.72 25.9925 Q1048.13 25.7466 1048.38 25.7466 Q1049.2 25.7466 1049.24 26.6893 Q1049.24 27.0173 1048.54 28.001 Q1047.89 28.9437 1046.45 30.2144 Q1045.02 31.4441 1043.17 32.6328 Q1041.33 33.8215 1038.62 34.6413 Q1035.96 35.4201 1033.01 35.4201 Q1029.48 35.4201 1025.88 34.3133 L1025.88 50.6681 Q1030.22 46.4052 1036.53 46.4052 Q1043.25 46.4052 1047.89 51.8158 Q1052.52 57.2263 1052.52 64.7684 Q1052.52 72.6793 1047.03 78.0899 Q1041.57 83.5005 1034.2 83.5005 Q1027.47 83.5005 1023.21 78.7047 Q1018.99 73.909 1018.99 68.1295 Z" fill="#000000" fill-rule="evenodd" fill-opacity="1" /><polyline clip-path="url(#clip533)" style="stroke:#009af9; stroke-linecap:butt; stroke-linejoin:round; stroke-width:4; stroke-opacity:1; fill:none" points="
  296.979,156.104 361.148,183.334 425.316,212.059 489.485,242.499 553.653,274.964 617.821,309.918 681.99,348.119 746.158,390.981 810.327,441.754 874.495,513.081 
  938.664,976.272 1002.83,978.708 1067,980.899 1131.17,982.884 1195.34,984.696 1259.51,986.358 1323.67,987.889 1387.84,989.306 1452.01,990.622 1516.18,991.848 
  
  "/>
<circle clip-path="url(#clip533)" cx="296.979" cy="156.104" r="14" fill="#009af9" fill-rule="evenodd" fill-opacity="1" stroke="#000000" stroke-opacity="1" stroke-width="2.4"/>
<circle clip-path="url(#clip533)" cx="361.148" cy="183.334" r="14" fill="#009af9" fill-rule="evenodd" fill-opacity="1" stroke="#000000" stroke-opacity="1" stroke-width="2.4"/>
<circle clip-path="url(#clip533)" cx="425.316" cy="212.059" r="14" fill="#009af9" fill-rule="evenodd" fill-opacity="1" stroke="#000000" stroke-opacity="1" stroke-width="2.4"/>
<circle clip-path="url(#clip533)" cx="489.485" cy="242.499" r="14" fill="#009af9" fill-rule="evenodd" fill-opacity="1" stroke="#000000" stroke-opacity="1" stroke-width="2.4"/>
<circle clip-path="url(#clip533)" cx="553.653" cy="274.964" r="14" fill="#009af9" fill-rule="evenodd" fill-opacity="1" stroke="#000000" stroke-opacity="1" stroke-width="2.4"/>
<circle clip-path="url(#clip533)" cx="617.821" cy="309.918" r="14" fill="#009af9" fill-rule="evenodd" fill-opacity="1" stroke="#000000" stroke-opacity="1" stroke-width="2.4"/>
<circle clip-path="url(#clip533)" cx="681.99" cy="348.119" r="14" fill="#009af9" fill-rule="evenodd" fill-opacity="1" stroke="#000000" stroke-opacity="1" stroke-width="2.4"/>
<circle clip-path="url(#clip533)" cx="746.158" cy="390.981" r="14" fill="#009af9" fill-rule="evenodd" fill-opacity="1" stroke="#000000" stroke-opacity="1" stroke-width="2.4"/>
<circle clip-path="url(#clip533)" cx="810.327" cy="441.754" r="14" fill="#009af9" fill-rule="evenodd" fill-opacity="1" stroke="#000000" stroke-opacity="1" stroke-width="2.4"/>
<circle clip-path="url(#clip533)" cx="874.495" cy="513.081" r="14" fill="#009af9" fill-rule="evenodd" fill-opacity="1" stroke="#000000" stroke-opacity="1" stroke-width="2.4"/>
<circle clip-path="url(#clip533)" cx="938.664" cy="976.272" r="14" fill="#009af9" fill-rule="evenodd" fill-opacity="1" stroke="#000000" stroke-opacity="1" stroke-width="2.4"/>
<circle clip-path="url(#clip533)" cx="1002.83" cy="978.708" r="14" fill="#009af9" fill-rule="evenodd" fill-opacity="1" stroke="#000000" stroke-opacity="1" stroke-width="2.4"/>
<circle clip-path="url(#clip533)" cx="1067" cy="980.899" r="14" fill="#009af9" fill-rule="evenodd" fill-opacity="1" stroke="#000000" stroke-opacity="1" stroke-width="2.4"/>
<circle clip-path="url(#clip533)" cx="1131.17" cy="982.884" r="14" fill="#009af9" fill-rule="evenodd" fill-opacity="1" stroke="#000000" stroke-opacity="1" stroke-width="2.4"/>
<circle clip-path="url(#clip533)" cx="1195.34" cy="984.696" r="14" fill="#009af9" fill-rule="evenodd" fill-opacity="1" stroke="#000000" stroke-opacity="1" stroke-width="2.4"/>
<circle clip-path="url(#clip533)" cx="1259.51" cy="986.358" r="14" fill="#009af9" fill-rule="evenodd" fill-opacity="1" stroke="#000000" stroke-opacity="1" stroke-width="2.4"/>
<circle clip-path="url(#clip533)" cx="1323.67" cy="987.889" r="14" fill="#009af9" fill-rule="evenodd" fill-opacity="1" stroke="#000000" stroke-opacity="1" stroke-width="2.4"/>
<circle clip-path="url(#clip533)" cx="1387.84" cy="989.306" r="14" fill="#009af9" fill-rule="evenodd" fill-opacity="1" stroke="#000000" stroke-opacity="1" stroke-width="2.4"/>
<circle clip-path="url(#clip533)" cx="1452.01" cy="990.622" r="14" fill="#009af9" fill-rule="evenodd" fill-opacity="1" stroke="#000000" stroke-opacity="1" stroke-width="2.4"/>
<circle clip-path="url(#clip533)" cx="1516.18" cy="991.848" r="14" fill="#009af9" fill-rule="evenodd" fill-opacity="1" stroke="#000000" stroke-opacity="1" stroke-width="2.4"/>
</svg>
