<?xml version="1.0" encoding="utf-8"?>
<svg xmlns="http://www.w3.org/2000/svg" xmlns:xlink="http://www.w3.org/1999/xlink" width="400" height="300" viewBox="0 0 1600 1200">
<defs>
  <clipPath id="clip180">
    <rect x="0" y="0" width="1600" height="1200"/>
  </clipPath>
</defs>
<path clip-path="url(#clip180)" d="
M0 1200 L1600 1200 L1600 0 L0 0  Z
  " fill="#ffffff" fill-rule="evenodd" fill-opacity="1"/>
<defs>
  <clipPath id="clip181">
    <rect x="320" y="0" width="1121" height="1121"/>
  </clipPath>
</defs>
<path clip-path="url(#clip180)" d="
M217.32 1016.92 L1552.76 1016.92 L1552.76 47.2441 L217.32 47.2441  Z
  " fill="#ffffff" fill-rule="evenodd" fill-opacity="1"/>
<defs>
  <clipPath id="clip182">
    <rect x="217" y="47" width="1336" height="971"/>
  </clipPath>
</defs>
<polyline clip-path="url(#clip182)" style="stroke:#000000; stroke-linecap:butt; stroke-linejoin:round; stroke-width:2; stroke-opacity:0.1; fill:none" points="
  381.1,1016.92 381.1,47.2441 
  "/>
<polyline clip-path="url(#clip182)" style="stroke:#000000; stroke-linecap:butt; stroke-linejoin:round; stroke-width:2; stroke-opacity:0.1; fill:none" points="
  633.069,1016.92 633.069,47.2441 
  "/>
<polyline clip-path="url(#clip182)" style="stroke:#000000; stroke-linecap:butt; stroke-linejoin:round; stroke-width:2; stroke-opacity:0.1; fill:none" points="
  885.038,1016.92 885.038,47.2441 
  "/>
<polyline clip-path="url(#clip182)" style="stroke:#000000; stroke-linecap:butt; stroke-linejoin:round; stroke-width:2; stroke-opacity:0.1; fill:none" points="
  1137.01,1016.92 1137.01,47.2441 
  "/>
<polyline clip-path="url(#clip182)" style="stroke:#000000; stroke-linecap:butt; stroke-linejoin:round; stroke-width:2; stroke-opacity:0.1; fill:none" points="
  1388.98,1016.92 1388.98,47.2441 
  "/>
<polyline clip-path="url(#clip180)" style="stroke:#000000; stroke-linecap:butt; stroke-linejoin:round; stroke-width:4; stroke-opacity:1; fill:none" points="
  217.32,1016.92 1552.76,1016.92 
  "/>
<polyline clip-path="url(#clip180)" style="stroke:#000000; stroke-linecap:butt; stroke-linejoin:round; stroke-width:4; stroke-opacity:1; fill:none" points="
  381.1,1016.92 381.1,998.022 
  "/>
<polyline clip-path="url(#clip180)" style="stroke:#000000; stroke-linecap:butt; stroke-linejoin:round; stroke-width:4; stroke-opacity:1; fill:none" points="
  633.069,1016.92 633.069,998.022 
  "/>
<polyline clip-path="url(#clip180)" style="stroke:#000000; stroke-linecap:butt; stroke-linejoin:round; stroke-width:4; stroke-opacity:1; fill:none" points="
  885.038,1016.92 885.038,998.022 
  "/>
<polyline clip-path="url(#clip180)" style="stroke:#000000; stroke-linecap:butt; stroke-linejoin:round; stroke-width:4; stroke-opacity:1; fill:none" points="
  1137.01,1016.92 1137.01,998.022 
  "/>
<polyline clip-path="url(#clip180)" style="stroke:#000000; stroke-linecap:butt; stroke-linejoin:round; stroke-width:4; stroke-opacity:1; fill:none" points="
  1388.98,1016.92 1388.98,998.022 
  "/>
<path clip-path="url(#clip180)" d="M351.042 1056.09 L380.718 1056.09 L380.718 1060.03 L351.042 1060.03 L351.042 1056.09 Z" fill="#000000" fill-rule="evenodd" fill-opacity="1" /><path clip-path="url(#clip180)" d="M394.838 1068.98 L411.158 1068.98 L411.158 1072.92 L389.213 1072.92 L389.213 1068.98 Q391.875 1066.23 396.459 1061.6 Q401.065 1056.95 402.246 1055.61 Q404.491 1053.08 405.371 1051.35 Q406.273 1049.59 406.273 1047.9 Q406.273 1045.14 404.329 1043.41 Q402.408 1041.67 399.306 1041.67 Q397.107 1041.67 394.653 1042.43 Q392.223 1043.2 389.445 1044.75 L389.445 1040.03 Q392.269 1038.89 394.723 1038.31 Q397.176 1037.73 399.213 1037.73 Q404.584 1037.73 407.778 1040.42 Q410.973 1043.11 410.973 1047.6 Q410.973 1049.73 410.162 1051.65 Q409.375 1053.54 407.269 1056.14 Q406.69 1056.81 403.588 1060.03 Q400.486 1063.22 394.838 1068.98 Z" fill="#000000" fill-rule="evenodd" fill-opacity="1" /><path clip-path="url(#clip180)" d="M602.826 1056.09 L632.502 1056.09 L632.502 1060.03 L602.826 1060.03 L602.826 1056.09 Z" fill="#000000" fill-rule="evenodd" fill-opacity="1" /><path clip-path="url(#clip180)" d="M643.405 1068.98 L651.043 1068.98 L651.043 1042.62 L642.733 1044.29 L642.733 1040.03 L650.997 1038.36 L655.673 1038.36 L655.673 1068.98 L663.312 1068.98 L663.312 1072.92 L643.405 1072.92 L643.405 1068.98 Z" fill="#000000" fill-rule="evenodd" fill-opacity="1" /><path clip-path="url(#clip180)" d="M885.038 1041.44 Q881.427 1041.44 879.598 1045 Q877.793 1048.54 877.793 1055.67 Q877.793 1062.78 879.598 1066.35 Q881.427 1069.89 885.038 1069.89 Q888.672 1069.89 890.478 1066.35 Q892.307 1062.78 892.307 1055.67 Q892.307 1048.54 890.478 1045 Q888.672 1041.44 885.038 1041.44 M885.038 1037.73 Q890.848 1037.73 893.904 1042.34 Q896.982 1046.92 896.982 1055.67 Q896.982 1064.4 893.904 1069.01 Q890.848 1073.59 885.038 1073.59 Q879.228 1073.59 876.149 1069.01 Q873.094 1064.4 873.094 1055.67 Q873.094 1046.92 876.149 1042.34 Q879.228 1037.73 885.038 1037.73 Z" fill="#000000" fill-rule="evenodd" fill-opacity="1" /><path clip-path="url(#clip180)" d="M1127.39 1068.98 L1135.03 1068.98 L1135.03 1042.62 L1126.72 1044.29 L1126.72 1040.03 L1134.98 1038.36 L1139.66 1038.36 L1139.66 1068.98 L1147.3 1068.98 L1147.3 1072.92 L1127.39 1072.92 L1127.39 1068.98 Z" fill="#000000" fill-rule="evenodd" fill-opacity="1" /><path clip-path="url(#clip180)" d="M1383.63 1068.98 L1399.95 1068.98 L1399.95 1072.92 L1378 1072.92 L1378 1068.98 Q1380.67 1066.23 1385.25 1061.6 Q1389.86 1056.95 1391.04 1055.61 Q1393.28 1053.08 1394.16 1051.35 Q1395.06 1049.59 1395.06 1047.9 Q1395.06 1045.14 1393.12 1043.41 Q1391.2 1041.67 1388.1 1041.67 Q1385.9 1041.67 1383.44 1042.43 Q1381.01 1043.2 1378.24 1044.75 L1378.24 1040.03 Q1381.06 1038.89 1383.51 1038.31 Q1385.97 1037.73 1388 1037.73 Q1393.37 1037.73 1396.57 1040.42 Q1399.76 1043.11 1399.76 1047.6 Q1399.76 1049.73 1398.95 1051.65 Q1398.17 1053.54 1396.06 1056.14 Q1395.48 1056.81 1392.38 1060.03 Q1389.28 1063.22 1383.63 1068.98 Z" fill="#000000" fill-rule="evenodd" fill-opacity="1" /><path clip-path="url(#clip180)" d="M903.705 1110.8 Q903.705 1113.79 902.192 1119.59 Q901.58 1122.1 900.742 1124.39 Q899.937 1126.64 898.746 1128.83 Q897.554 1131.02 896.169 1132.6 Q894.784 1134.15 892.981 1135.11 Q891.177 1136.08 889.181 1136.08 Q886.024 1136.08 884.156 1134.21 Q882.321 1132.31 881.741 1129.06 Q877.425 1136.08 871.661 1136.08 Q868.086 1136.08 866.411 1133.54 Q864.736 1130.96 864.736 1126.64 Q864.736 1123 865.702 1119.24 Q867.538 1112.09 871.113 1107.1 Q871.596 1106.52 872.305 1106.52 Q872.723 1106.52 872.917 1106.64 Q873.496 1107 873.496 1107.58 Q873.496 1108 873.174 1108.42 Q870.92 1111.54 869.438 1114.21 Q867.957 1116.89 867.281 1119.59 Q866.765 1121.91 866.765 1123.87 Q866.765 1127.19 868.182 1129.25 Q869.632 1131.31 872.498 1131.31 Q875.139 1131.31 877.458 1129.67 Q879.776 1128 881.483 1125.19 Q881.58 1122.14 882.321 1119.24 Q882.997 1116.14 884.575 1116.14 Q885.831 1116.14 885.831 1117.85 Q885.831 1118.43 885.573 1119.59 Q884.865 1122.65 883.577 1125.39 Q884.028 1128.06 885.702 1129.7 Q887.377 1131.31 890.05 1131.31 Q892.53 1131.31 894.72 1129.51 Q896.942 1127.71 898.359 1125.07 Q899.808 1122.39 900.614 1119.24 Q900.871 1118.17 900.871 1116.82 Q900.871 1113.21 898.359 1110.99 Q897.651 1110.28 897.651 1109.35 Q897.651 1108.25 898.552 1107.26 Q899.615 1106.19 900.871 1106.19 Q901.805 1106.19 902.385 1106.77 Q903.705 1107.93 903.705 1110.8 Z" fill="#000000" fill-rule="evenodd" fill-opacity="1" /><polyline clip-path="url(#clip182)" style="stroke:#000000; stroke-linecap:butt; stroke-linejoin:round; stroke-width:2; stroke-opacity:0.1; fill:none" points="
  217.32,989.476 1552.76,989.476 
  "/>
<polyline clip-path="url(#clip182)" style="stroke:#000000; stroke-linecap:butt; stroke-linejoin:round; stroke-width:2; stroke-opacity:0.1; fill:none" points="
  217.32,702.064 1552.76,702.064 
  "/>
<polyline clip-path="url(#clip182)" style="stroke:#000000; stroke-linecap:butt; stroke-linejoin:round; stroke-width:2; stroke-opacity:0.1; fill:none" points="
  217.32,414.652 1552.76,414.652 
  "/>
<polyline clip-path="url(#clip182)" style="stroke:#000000; stroke-linecap:butt; stroke-linejoin:round; stroke-width:2; stroke-opacity:0.1; fill:none" points="
  217.32,127.24 1552.76,127.24 
  "/>
<polyline clip-path="url(#clip180)" style="stroke:#000000; stroke-linecap:butt; stroke-linejoin:round; stroke-width:4; stroke-opacity:1; fill:none" points="
  217.32,1016.92 217.32,47.2441 
  "/>
<polyline clip-path="url(#clip180)" style="stroke:#000000; stroke-linecap:butt; stroke-linejoin:round; stroke-width:4; stroke-opacity:1; fill:none" points="
  217.32,989.476 236.218,989.476 
  "/>
<polyline clip-path="url(#clip180)" style="stroke:#000000; stroke-linecap:butt; stroke-linejoin:round; stroke-width:4; stroke-opacity:1; fill:none" points="
  217.32,702.064 236.218,702.064 
  "/>
<polyline clip-path="url(#clip180)" style="stroke:#000000; stroke-linecap:butt; stroke-linejoin:round; stroke-width:4; stroke-opacity:1; fill:none" points="
  217.32,414.652 236.218,414.652 
  "/>
<polyline clip-path="url(#clip180)" style="stroke:#000000; stroke-linecap:butt; stroke-linejoin:round; stroke-width:4; stroke-opacity:1; fill:none" points="
  217.32,127.24 236.218,127.24 
  "/>
<path clip-path="url(#clip180)" d="M136.145 975.275 Q132.533 975.275 130.705 978.84 Q128.899 982.381 128.899 989.511 Q128.899 996.617 130.705 1000.18 Q132.533 1003.72 136.145 1003.72 Q139.779 1003.72 141.584 1000.18 Q143.413 996.617 143.413 989.511 Q143.413 982.381 141.584 978.84 Q139.779 975.275 136.145 975.275 M136.145 971.571 Q141.955 971.571 145.01 976.178 Q148.089 980.761 148.089 989.511 Q148.089 998.238 145.01 1002.84 Q141.955 1007.43 136.145 1007.43 Q130.334 1007.43 127.256 1002.84 Q124.2 998.238 124.2 989.511 Q124.2 980.761 127.256 976.178 Q130.334 971.571 136.145 971.571 Z" fill="#000000" fill-rule="evenodd" fill-opacity="1" /><path clip-path="url(#clip180)" d="M156.306 1000.88 L161.191 1000.88 L161.191 1006.76 L156.306 1006.76 L156.306 1000.88 Z" fill="#000000" fill-rule="evenodd" fill-opacity="1" /><path clip-path="url(#clip180)" d="M181.376 975.275 Q177.765 975.275 175.936 978.84 Q174.13 982.381 174.13 989.511 Q174.13 996.617 175.936 1000.18 Q177.765 1003.72 181.376 1003.72 Q185.01 1003.72 186.816 1000.18 Q188.644 996.617 188.644 989.511 Q188.644 982.381 186.816 978.84 Q185.01 975.275 181.376 975.275 M181.376 971.571 Q187.186 971.571 190.241 976.178 Q193.32 980.761 193.32 989.511 Q193.32 998.238 190.241 1002.84 Q187.186 1007.43 181.376 1007.43 Q175.566 1007.43 172.487 1002.84 Q169.431 998.238 169.431 989.511 Q169.431 980.761 172.487 976.178 Q175.566 971.571 181.376 971.571 Z" fill="#000000" fill-rule="evenodd" fill-opacity="1" /><path clip-path="url(#clip180)" d="M137.371 687.863 Q133.76 687.863 131.932 691.427 Q130.126 694.969 130.126 702.099 Q130.126 709.205 131.932 712.77 Q133.76 716.312 137.371 716.312 Q141.006 716.312 142.811 712.77 Q144.64 709.205 144.64 702.099 Q144.64 694.969 142.811 691.427 Q141.006 687.863 137.371 687.863 M137.371 684.159 Q143.182 684.159 146.237 688.765 Q149.316 693.349 149.316 702.099 Q149.316 710.826 146.237 715.432 Q143.182 720.015 137.371 720.015 Q131.561 720.015 128.483 715.432 Q125.427 710.826 125.427 702.099 Q125.427 693.349 128.483 688.765 Q131.561 684.159 137.371 684.159 Z" fill="#000000" fill-rule="evenodd" fill-opacity="1" /><path clip-path="url(#clip180)" d="M157.533 713.464 L162.418 713.464 L162.418 719.344 L157.533 719.344 L157.533 713.464 Z" fill="#000000" fill-rule="evenodd" fill-opacity="1" /><path clip-path="url(#clip180)" d="M173.413 715.409 L181.052 715.409 L181.052 689.043 L172.742 690.71 L172.742 686.451 L181.005 684.784 L185.681 684.784 L185.681 715.409 L193.32 715.409 L193.32 719.344 L173.413 719.344 L173.413 715.409 Z" fill="#000000" fill-rule="evenodd" fill-opacity="1" /><path clip-path="url(#clip180)" d="M137.742 400.451 Q134.131 400.451 132.302 404.015 Q130.496 407.557 130.496 414.687 Q130.496 421.793 132.302 425.358 Q134.131 428.899 137.742 428.899 Q141.376 428.899 143.182 425.358 Q145.01 421.793 145.01 414.687 Q145.01 407.557 143.182 404.015 Q141.376 400.451 137.742 400.451 M137.742 396.747 Q143.552 396.747 146.607 401.353 Q149.686 405.937 149.686 414.687 Q149.686 423.413 146.607 428.02 Q143.552 432.603 137.742 432.603 Q131.932 432.603 128.853 428.02 Q125.797 423.413 125.797 414.687 Q125.797 405.937 128.853 401.353 Q131.932 396.747 137.742 396.747 Z" fill="#000000" fill-rule="evenodd" fill-opacity="1" /><path clip-path="url(#clip180)" d="M157.904 426.052 L162.788 426.052 L162.788 431.932 L157.904 431.932 L157.904 426.052 Z" fill="#000000" fill-rule="evenodd" fill-opacity="1" /><path clip-path="url(#clip180)" d="M177.001 427.997 L193.32 427.997 L193.32 431.932 L171.376 431.932 L171.376 427.997 Q174.038 425.242 178.621 420.612 Q183.228 415.96 184.408 414.617 Q186.654 412.094 187.533 410.358 Q188.436 408.599 188.436 406.909 Q188.436 404.154 186.491 402.418 Q184.57 400.682 181.468 400.682 Q179.269 400.682 176.816 401.446 Q174.385 402.21 171.607 403.761 L171.607 399.038 Q174.431 397.904 176.885 397.326 Q179.339 396.747 181.376 396.747 Q186.746 396.747 189.941 399.432 Q193.135 402.117 193.135 406.608 Q193.135 408.738 192.325 410.659 Q191.538 412.557 189.431 415.15 Q188.853 415.821 185.751 419.038 Q182.649 422.233 177.001 427.997 Z" fill="#000000" fill-rule="evenodd" fill-opacity="1" /><path clip-path="url(#clip180)" d="M136.793 113.038 Q133.182 113.038 131.353 116.603 Q129.547 120.145 129.547 127.274 Q129.547 134.381 131.353 137.946 Q133.182 141.487 136.793 141.487 Q140.427 141.487 142.232 137.946 Q144.061 134.381 144.061 127.274 Q144.061 120.145 142.232 116.603 Q140.427 113.038 136.793 113.038 M136.793 109.335 Q142.603 109.335 145.658 113.941 Q148.737 118.524 148.737 127.274 Q148.737 136.001 145.658 140.608 Q142.603 145.191 136.793 145.191 Q130.983 145.191 127.904 140.608 Q124.848 136.001 124.848 127.274 Q124.848 118.524 127.904 113.941 Q130.983 109.335 136.793 109.335 Z" fill="#000000" fill-rule="evenodd" fill-opacity="1" /><path clip-path="url(#clip180)" d="M156.955 138.64 L161.839 138.64 L161.839 144.52 L156.955 144.52 L156.955 138.64 Z" fill="#000000" fill-rule="evenodd" fill-opacity="1" /><path clip-path="url(#clip180)" d="M186.191 125.886 Q189.547 126.603 191.422 128.872 Q193.32 131.14 193.32 134.473 Q193.32 139.589 189.802 142.39 Q186.283 145.191 179.802 145.191 Q177.626 145.191 175.311 144.751 Q173.019 144.334 170.566 143.478 L170.566 138.964 Q172.51 140.098 174.825 140.677 Q177.14 141.256 179.663 141.256 Q184.061 141.256 186.353 139.52 Q188.667 137.784 188.667 134.473 Q188.667 131.418 186.515 129.705 Q184.385 127.969 180.566 127.969 L176.538 127.969 L176.538 124.126 L180.751 124.126 Q184.2 124.126 186.029 122.761 Q187.857 121.372 187.857 118.779 Q187.857 116.117 185.959 114.705 Q184.084 113.27 180.566 113.27 Q178.644 113.27 176.445 113.686 Q174.246 114.103 171.607 114.983 L171.607 110.816 Q174.269 110.075 176.584 109.705 Q178.922 109.335 180.982 109.335 Q186.306 109.335 189.408 111.765 Q192.51 114.173 192.51 118.293 Q192.51 121.163 190.866 123.154 Q189.223 125.122 186.191 125.886 Z" fill="#000000" fill-rule="evenodd" fill-opacity="1" /><path clip-path="url(#clip180)" d="M69.6267 565.551 Q74.3932 565.551 78.8698 567.999 Q83.3464 570.414 86.0517 574.214 Q88.757 577.982 88.757 581.783 Q88.757 586.066 84.3126 588.288 Q100.448 592.314 100.866 592.54 Q102.251 593.474 102.251 594.826 Q102.251 595.664 101.736 596.179 Q101.253 596.694 100.48 596.694 Q100.222 596.662 99.4172 596.469 L73.4914 590.027 Q67.4689 588.546 63.1856 584.069 Q58.87 579.561 58.87 574.73 Q58.87 570.897 61.7363 568.224 Q64.6026 565.551 69.6267 565.551 M66.7926 570.285 Q63.572 570.285 61.9617 571.574 Q60.3192 572.862 60.3192 574.859 Q60.3192 576.694 61.8007 578.916 Q63.2822 581.106 66.5672 583.039 Q68.4673 584.069 70.8184 584.81 Q73.1694 585.551 78.9664 587 Q81.2853 587.515 81.4141 587.515 Q81.6717 587.515 82.2514 587.387 Q82.8311 587.226 83.7329 586.839 Q84.6025 586.42 85.3754 585.841 Q86.1483 585.261 86.728 584.198 Q87.2755 583.135 87.2755 581.847 Q87.2755 579.85 85.6653 577.725 Q84.0228 575.567 81.0276 573.989 Q78.6122 572.669 74.0711 571.477 Q69.4979 570.285 66.7926 570.285 Z" fill="#000000" fill-rule="evenodd" fill-opacity="1" /><path clip-path="url(#clip180)" d="M71.5269 558.724 Q60.3837 558.724 51.3982 554.57 Q47.6301 552.798 44.474 550.318 Q41.3178 547.839 39.9329 546.196 Q38.5481 544.554 38.5481 544.103 Q38.5481 543.459 39.1922 543.426 Q39.5143 543.426 40.3194 544.296 Q51.1406 554.924 71.5269 554.892 Q91.9776 554.892 102.38 544.554 Q103.507 543.426 103.862 543.426 Q104.506 543.426 104.506 544.103 Q104.506 544.554 103.185 546.132 Q101.865 547.71 98.8375 550.157 Q95.8101 552.605 92.1064 554.376 Q83.121 558.724 71.5269 558.724 Z" fill="#000000" fill-rule="evenodd" fill-opacity="1" /><path clip-path="url(#clip180)" d="M63.4754 500.766 Q66.4706 500.766 72.2676 502.279 Q74.7797 502.891 77.0663 503.729 Q79.3207 504.534 81.5107 505.725 Q83.7007 506.917 85.2788 508.302 Q86.8247 509.687 87.7908 511.49 Q88.757 513.294 88.757 515.291 Q88.757 518.447 86.8891 520.315 Q84.9889 522.15 81.7361 522.73 Q88.757 527.046 88.757 532.811 Q88.757 536.385 86.2128 538.06 Q83.6363 539.735 79.3207 539.735 Q75.6814 539.735 71.9134 538.769 Q64.7637 536.933 59.7717 533.358 Q59.192 532.875 59.192 532.166 Q59.192 531.748 59.3209 531.554 Q59.6751 530.975 60.2548 530.975 Q60.6735 530.975 61.0922 531.297 Q64.2162 533.551 66.8892 535.033 Q69.5623 536.514 72.2676 537.191 Q74.5864 537.706 76.551 537.706 Q79.8682 537.706 81.9294 536.289 Q83.9905 534.839 83.9905 531.973 Q83.9905 529.332 82.3481 527.013 Q80.6733 524.695 77.8714 522.988 Q74.8119 522.891 71.9134 522.15 Q68.8216 521.474 68.8216 519.896 Q68.8216 518.64 70.5285 518.64 Q71.1082 518.64 72.2676 518.898 Q75.3272 519.606 78.0647 520.894 Q80.7378 520.443 82.3803 518.769 Q83.9905 517.094 83.9905 514.421 Q83.9905 511.941 82.187 509.751 Q80.3835 507.529 77.7426 506.112 Q75.0695 504.663 71.9134 503.857 Q70.8506 503.6 69.4979 503.6 Q65.8909 503.6 63.6687 506.112 Q62.9601 506.82 62.0262 506.82 Q60.9312 506.82 59.9328 505.919 Q58.87 504.856 58.87 503.6 Q58.87 502.666 59.4497 502.086 Q60.6091 500.766 63.4754 500.766 Z" fill="#000000" fill-rule="evenodd" fill-opacity="1" /><path clip-path="url(#clip180)" d="M103.862 492.795 Q103.54 492.795 102.734 491.958 Q91.9132 481.33 71.5269 481.33 Q51.0762 481.33 40.7381 491.539 Q39.5465 492.795 39.1922 492.795 Q38.5481 492.795 38.5481 492.151 Q38.5481 491.7 39.8685 490.122 Q41.189 488.512 44.2163 486.096 Q47.2437 483.649 50.9473 481.845 Q59.9328 477.497 71.5269 477.497 Q82.6701 477.497 91.6555 481.652 Q95.4236 483.423 98.5798 485.903 Q101.736 488.383 103.121 490.026 Q104.506 491.668 104.506 492.151 Q104.506 492.795 103.862 492.795 Z" fill="#000000" fill-rule="evenodd" fill-opacity="1" /><polyline clip-path="url(#clip182)" style="stroke:#009af9; stroke-linecap:butt; stroke-linejoin:round; stroke-width:4; stroke-opacity:1; fill:none" points="
  255.116,989.476 267.841,989.476 280.567,989.476 293.293,989.476 306.018,989.476 318.744,989.476 331.47,989.476 344.195,989.476 356.921,989.476 369.647,989.476 
  382.373,924.501 395.098,775.344 407.824,695.51 420.55,634.636 433.275,584.087 446.001,540.365 458.727,501.629 471.453,466.771 484.178,435.058 496.904,405.978 
  509.63,379.153 522.355,354.299 535.081,331.191 547.807,309.652 560.532,289.537 573.258,270.727 585.984,253.12 598.71,236.634 611.435,221.195 624.161,206.743 
  636.887,193.222 649.612,180.586 662.338,168.795 675.064,157.813 687.79,147.607 700.515,138.151 713.241,129.418 725.967,121.388 738.692,114.042 751.418,107.361 
  764.144,101.331 776.87,95.9386 789.595,91.1727 802.321,87.0233 815.047,83.4817 827.772,80.5409 840.498,78.1951 853.224,76.4398 865.949,75.2714 878.675,74.6877 
  891.401,74.6877 904.127,75.2714 916.852,76.4398 929.578,78.1951 942.304,80.5409 955.029,83.4817 967.755,87.0233 980.481,91.1727 993.207,95.9386 1005.93,101.331 
  1018.66,107.361 1031.38,114.042 1044.11,121.388 1056.84,129.418 1069.56,138.151 1082.29,147.607 1095.01,157.813 1107.74,168.795 1120.46,180.586 1133.19,193.222 
  1145.92,206.743 1158.64,221.195 1171.37,236.634 1184.09,253.12 1196.82,270.727 1209.54,289.537 1222.27,309.652 1234.99,331.191 1247.72,354.299 1260.45,379.153 
  1273.17,405.978 1285.9,435.058 1298.62,466.771 1311.35,501.629 1324.07,540.365 1336.8,584.087 1349.53,634.636 1362.25,695.51 1374.98,775.344 1387.7,924.501 
  1400.43,989.476 1413.15,989.476 1425.88,989.476 1438.61,989.476 1451.33,989.476 1464.06,989.476 1476.78,989.476 1489.51,989.476 1502.23,989.476 1514.96,989.476 
  
  "/>
</svg>
