<?xml version="1.0" encoding="utf-8"?>
<svg xmlns="http://www.w3.org/2000/svg" xmlns:xlink="http://www.w3.org/1999/xlink" width="400" height="300" viewBox="0 0 1600 1200">
<defs>
  <clipPath id="clip720">
    <rect x="0" y="0" width="1600" height="1200"/>
  </clipPath>
</defs>
<path clip-path="url(#clip720)" d="
M0 1200 L1600 1200 L1600 0 L0 0  Z
  " fill="#ffffff" fill-rule="evenodd" fill-opacity="1"/>
<defs>
  <clipPath id="clip721">
    <rect x="320" y="0" width="1121" height="1121"/>
  </clipPath>
</defs>
<path clip-path="url(#clip720)" d="
M217.32 1016.92 L1552.76 1016.92 L1552.76 47.2441 L217.32 47.2441  Z
  " fill="#ffffff" fill-rule="evenodd" fill-opacity="1"/>
<defs>
  <clipPath id="clip722">
    <rect x="217" y="47" width="1336" height="971"/>
  </clipPath>
</defs>
<polyline clip-path="url(#clip722)" style="stroke:#000000; stroke-linecap:butt; stroke-linejoin:round; stroke-width:2; stroke-opacity:0.1; fill:none" points="
  255.116,1016.92 255.116,47.2441 
  "/>
<polyline clip-path="url(#clip722)" style="stroke:#000000; stroke-linecap:butt; stroke-linejoin:round; stroke-width:2; stroke-opacity:0.1; fill:none" points="
  570.077,1016.92 570.077,47.2441 
  "/>
<polyline clip-path="url(#clip722)" style="stroke:#000000; stroke-linecap:butt; stroke-linejoin:round; stroke-width:2; stroke-opacity:0.1; fill:none" points="
  885.038,1016.92 885.038,47.2441 
  "/>
<polyline clip-path="url(#clip722)" style="stroke:#000000; stroke-linecap:butt; stroke-linejoin:round; stroke-width:2; stroke-opacity:0.1; fill:none" points="
  1200,1016.92 1200,47.2441 
  "/>
<polyline clip-path="url(#clip722)" style="stroke:#000000; stroke-linecap:butt; stroke-linejoin:round; stroke-width:2; stroke-opacity:0.1; fill:none" points="
  1514.96,1016.92 1514.96,47.2441 
  "/>
<polyline clip-path="url(#clip720)" style="stroke:#000000; stroke-linecap:butt; stroke-linejoin:round; stroke-width:4; stroke-opacity:1; fill:none" points="
  217.32,1016.92 1552.76,1016.92 
  "/>
<polyline clip-path="url(#clip720)" style="stroke:#000000; stroke-linecap:butt; stroke-linejoin:round; stroke-width:4; stroke-opacity:1; fill:none" points="
  255.116,1016.92 255.116,998.022 
  "/>
<polyline clip-path="url(#clip720)" style="stroke:#000000; stroke-linecap:butt; stroke-linejoin:round; stroke-width:4; stroke-opacity:1; fill:none" points="
  570.077,1016.92 570.077,998.022 
  "/>
<polyline clip-path="url(#clip720)" style="stroke:#000000; stroke-linecap:butt; stroke-linejoin:round; stroke-width:4; stroke-opacity:1; fill:none" points="
  885.038,1016.92 885.038,998.022 
  "/>
<polyline clip-path="url(#clip720)" style="stroke:#000000; stroke-linecap:butt; stroke-linejoin:round; stroke-width:4; stroke-opacity:1; fill:none" points="
  1200,1016.92 1200,998.022 
  "/>
<polyline clip-path="url(#clip720)" style="stroke:#000000; stroke-linecap:butt; stroke-linejoin:round; stroke-width:4; stroke-opacity:1; fill:none" points="
  1514.96,1016.92 1514.96,998.022 
  "/>
<path clip-path="url(#clip720)" d="M225.058 1056.09 L254.734 1056.09 L254.734 1060.03 L225.058 1060.03 L225.058 1056.09 Z" fill="#000000" fill-rule="evenodd" fill-opacity="1" /><path clip-path="url(#clip720)" d="M268.854 1068.98 L285.173 1068.98 L285.173 1072.92 L263.229 1072.92 L263.229 1068.98 Q265.891 1066.23 270.474 1061.6 Q275.081 1056.95 276.261 1055.61 Q278.507 1053.08 279.386 1051.35 Q280.289 1049.59 280.289 1047.9 Q280.289 1045.14 278.345 1043.41 Q276.423 1041.67 273.321 1041.67 Q271.122 1041.67 268.669 1042.43 Q266.238 1043.2 263.46 1044.75 L263.46 1040.03 Q266.284 1038.89 268.738 1038.31 Q271.192 1037.73 273.229 1037.73 Q278.599 1037.73 281.794 1040.42 Q284.988 1043.11 284.988 1047.6 Q284.988 1049.73 284.178 1051.65 Q283.391 1053.54 281.284 1056.14 Q280.706 1056.81 277.604 1060.03 Q274.502 1063.22 268.854 1068.98 Z" fill="#000000" fill-rule="evenodd" fill-opacity="1" /><path clip-path="url(#clip720)" d="M539.834 1056.09 L569.51 1056.09 L569.51 1060.03 L539.834 1060.03 L539.834 1056.09 Z" fill="#000000" fill-rule="evenodd" fill-opacity="1" /><path clip-path="url(#clip720)" d="M580.412 1068.98 L588.051 1068.98 L588.051 1042.62 L579.741 1044.29 L579.741 1040.03 L588.005 1038.36 L592.681 1038.36 L592.681 1068.98 L600.32 1068.98 L600.32 1072.92 L580.412 1072.92 L580.412 1068.98 Z" fill="#000000" fill-rule="evenodd" fill-opacity="1" /><path clip-path="url(#clip720)" d="M885.038 1041.44 Q881.427 1041.44 879.598 1045 Q877.793 1048.54 877.793 1055.67 Q877.793 1062.78 879.598 1066.35 Q881.427 1069.89 885.038 1069.89 Q888.672 1069.89 890.478 1066.35 Q892.307 1062.78 892.307 1055.67 Q892.307 1048.54 890.478 1045 Q888.672 1041.44 885.038 1041.44 M885.038 1037.73 Q890.848 1037.73 893.904 1042.34 Q896.982 1046.92 896.982 1055.67 Q896.982 1064.4 893.904 1069.01 Q890.848 1073.59 885.038 1073.59 Q879.228 1073.59 876.149 1069.01 Q873.094 1064.4 873.094 1055.67 Q873.094 1046.92 876.149 1042.34 Q879.228 1037.73 885.038 1037.73 Z" fill="#000000" fill-rule="evenodd" fill-opacity="1" /><path clip-path="url(#clip720)" d="M1190.38 1068.98 L1198.02 1068.98 L1198.02 1042.62 L1189.71 1044.29 L1189.71 1040.03 L1197.97 1038.36 L1202.65 1038.36 L1202.65 1068.98 L1210.29 1068.98 L1210.29 1072.92 L1190.38 1072.92 L1190.38 1068.98 Z" fill="#000000" fill-rule="evenodd" fill-opacity="1" /><path clip-path="url(#clip720)" d="M1509.61 1068.98 L1525.93 1068.98 L1525.93 1072.92 L1503.99 1072.92 L1503.99 1068.98 Q1506.65 1066.23 1511.23 1061.6 Q1515.84 1056.95 1517.02 1055.61 Q1519.27 1053.08 1520.15 1051.35 Q1521.05 1049.59 1521.05 1047.9 Q1521.05 1045.14 1519.1 1043.41 Q1517.18 1041.67 1514.08 1041.67 Q1511.88 1041.67 1509.43 1042.43 Q1507 1043.2 1504.22 1044.75 L1504.22 1040.03 Q1507.04 1038.89 1509.5 1038.31 Q1511.95 1037.73 1513.99 1037.73 Q1519.36 1037.73 1522.55 1040.42 Q1525.75 1043.11 1525.75 1047.6 Q1525.75 1049.73 1524.94 1051.65 Q1524.15 1053.54 1522.04 1056.14 Q1521.47 1056.81 1518.36 1060.03 Q1515.26 1063.22 1509.61 1068.98 Z" fill="#000000" fill-rule="evenodd" fill-opacity="1" /><path clip-path="url(#clip720)" d="M903.705 1127.43 Q903.705 1130.43 902.192 1136.22 Q901.58 1138.73 900.742 1141.02 Q899.937 1143.28 898.746 1145.47 Q897.554 1147.66 896.169 1149.23 Q894.784 1150.78 892.981 1151.75 Q891.177 1152.71 889.181 1152.71 Q886.024 1152.71 884.156 1150.84 Q882.321 1148.94 881.741 1145.69 Q877.425 1152.71 871.661 1152.71 Q868.086 1152.71 866.411 1150.17 Q864.736 1147.59 864.736 1143.28 Q864.736 1139.64 865.702 1135.87 Q867.538 1128.72 871.113 1123.73 Q871.596 1123.15 872.305 1123.15 Q872.723 1123.15 872.917 1123.28 Q873.496 1123.63 873.496 1124.21 Q873.496 1124.63 873.174 1125.05 Q870.92 1128.17 869.438 1130.84 Q867.957 1133.52 867.281 1136.22 Q866.765 1138.54 866.765 1140.51 Q866.765 1143.82 868.182 1145.88 Q869.632 1147.95 872.498 1147.95 Q875.139 1147.95 877.458 1146.3 Q879.776 1144.63 881.483 1141.83 Q881.58 1138.77 882.321 1135.87 Q882.997 1132.78 884.575 1132.78 Q885.831 1132.78 885.831 1134.48 Q885.831 1135.06 885.573 1136.22 Q884.865 1139.28 883.577 1142.02 Q884.028 1144.69 885.702 1146.34 Q887.377 1147.95 890.05 1147.95 Q892.53 1147.95 894.72 1146.14 Q896.942 1144.34 898.359 1141.7 Q899.808 1139.02 900.614 1135.87 Q900.871 1134.81 900.871 1133.45 Q900.871 1129.85 898.359 1127.62 Q897.651 1126.92 897.651 1125.98 Q897.651 1124.89 898.552 1123.89 Q899.615 1122.83 900.871 1122.83 Q901.805 1122.83 902.385 1123.4 Q903.705 1124.56 903.705 1127.43 Z" fill="#000000" fill-rule="evenodd" fill-opacity="1" /><polyline clip-path="url(#clip722)" style="stroke:#000000; stroke-linecap:butt; stroke-linejoin:round; stroke-width:2; stroke-opacity:0.1; fill:none" points="
  217.32,989.476 1552.76,989.476 
  "/>
<polyline clip-path="url(#clip722)" style="stroke:#000000; stroke-linecap:butt; stroke-linejoin:round; stroke-width:2; stroke-opacity:0.1; fill:none" points="
  217.32,702.072 1552.76,702.072 
  "/>
<polyline clip-path="url(#clip722)" style="stroke:#000000; stroke-linecap:butt; stroke-linejoin:round; stroke-width:2; stroke-opacity:0.1; fill:none" points="
  217.32,414.668 1552.76,414.668 
  "/>
<polyline clip-path="url(#clip722)" style="stroke:#000000; stroke-linecap:butt; stroke-linejoin:round; stroke-width:2; stroke-opacity:0.1; fill:none" points="
  217.32,127.264 1552.76,127.264 
  "/>
<polyline clip-path="url(#clip720)" style="stroke:#000000; stroke-linecap:butt; stroke-linejoin:round; stroke-width:4; stroke-opacity:1; fill:none" points="
  217.32,1016.92 217.32,47.2441 
  "/>
<polyline clip-path="url(#clip720)" style="stroke:#000000; stroke-linecap:butt; stroke-linejoin:round; stroke-width:4; stroke-opacity:1; fill:none" points="
  217.32,989.476 236.218,989.476 
  "/>
<polyline clip-path="url(#clip720)" style="stroke:#000000; stroke-linecap:butt; stroke-linejoin:round; stroke-width:4; stroke-opacity:1; fill:none" points="
  217.32,702.072 236.218,702.072 
  "/>
<polyline clip-path="url(#clip720)" style="stroke:#000000; stroke-linecap:butt; stroke-linejoin:round; stroke-width:4; stroke-opacity:1; fill:none" points="
  217.32,414.668 236.218,414.668 
  "/>
<polyline clip-path="url(#clip720)" style="stroke:#000000; stroke-linecap:butt; stroke-linejoin:round; stroke-width:4; stroke-opacity:1; fill:none" points="
  217.32,127.264 236.218,127.264 
  "/>
<path clip-path="url(#clip720)" d="M136.145 975.275 Q132.533 975.275 130.705 978.84 Q128.899 982.381 128.899 989.511 Q128.899 996.617 130.705 1000.18 Q132.533 1003.72 136.145 1003.72 Q139.779 1003.72 141.584 1000.18 Q143.413 996.617 143.413 989.511 Q143.413 982.381 141.584 978.84 Q139.779 975.275 136.145 975.275 M136.145 971.571 Q141.955 971.571 145.01 976.178 Q148.089 980.761 148.089 989.511 Q148.089 998.238 145.01 1002.84 Q141.955 1007.43 136.145 1007.43 Q130.334 1007.43 127.256 1002.84 Q124.2 998.238 124.2 989.511 Q124.2 980.761 127.256 976.178 Q130.334 971.571 136.145 971.571 Z" fill="#000000" fill-rule="evenodd" fill-opacity="1" /><path clip-path="url(#clip720)" d="M156.306 1000.88 L161.191 1000.88 L161.191 1006.76 L156.306 1006.76 L156.306 1000.88 Z" fill="#000000" fill-rule="evenodd" fill-opacity="1" /><path clip-path="url(#clip720)" d="M181.376 975.275 Q177.765 975.275 175.936 978.84 Q174.13 982.381 174.13 989.511 Q174.13 996.617 175.936 1000.18 Q177.765 1003.72 181.376 1003.72 Q185.01 1003.72 186.816 1000.18 Q188.644 996.617 188.644 989.511 Q188.644 982.381 186.816 978.84 Q185.01 975.275 181.376 975.275 M181.376 971.571 Q187.186 971.571 190.241 976.178 Q193.32 980.761 193.32 989.511 Q193.32 998.238 190.241 1002.84 Q187.186 1007.43 181.376 1007.43 Q175.566 1007.43 172.487 1002.84 Q169.431 998.238 169.431 989.511 Q169.431 980.761 172.487 976.178 Q175.566 971.571 181.376 971.571 Z" fill="#000000" fill-rule="evenodd" fill-opacity="1" /><path clip-path="url(#clip720)" d="M137.371 687.871 Q133.76 687.871 131.932 691.436 Q130.126 694.977 130.126 702.107 Q130.126 709.213 131.932 712.778 Q133.76 716.32 137.371 716.32 Q141.006 716.32 142.811 712.778 Q144.64 709.213 144.64 702.107 Q144.64 694.977 142.811 691.436 Q141.006 687.871 137.371 687.871 M137.371 684.167 Q143.182 684.167 146.237 688.774 Q149.316 693.357 149.316 702.107 Q149.316 710.834 146.237 715.44 Q143.182 720.024 137.371 720.024 Q131.561 720.024 128.483 715.44 Q125.427 710.834 125.427 702.107 Q125.427 693.357 128.483 688.774 Q131.561 684.167 137.371 684.167 Z" fill="#000000" fill-rule="evenodd" fill-opacity="1" /><path clip-path="url(#clip720)" d="M157.533 713.473 L162.418 713.473 L162.418 719.352 L157.533 719.352 L157.533 713.473 Z" fill="#000000" fill-rule="evenodd" fill-opacity="1" /><path clip-path="url(#clip720)" d="M173.413 715.417 L181.052 715.417 L181.052 689.051 L172.742 690.718 L172.742 686.459 L181.005 684.792 L185.681 684.792 L185.681 715.417 L193.32 715.417 L193.32 719.352 L173.413 719.352 L173.413 715.417 Z" fill="#000000" fill-rule="evenodd" fill-opacity="1" /><path clip-path="url(#clip720)" d="M137.742 400.467 Q134.131 400.467 132.302 404.032 Q130.496 407.573 130.496 414.703 Q130.496 421.81 132.302 425.374 Q134.131 428.916 137.742 428.916 Q141.376 428.916 143.182 425.374 Q145.01 421.81 145.01 414.703 Q145.01 407.573 143.182 404.032 Q141.376 400.467 137.742 400.467 M137.742 396.763 Q143.552 396.763 146.607 401.37 Q149.686 405.953 149.686 414.703 Q149.686 423.43 146.607 428.036 Q143.552 432.62 137.742 432.62 Q131.932 432.62 128.853 428.036 Q125.797 423.43 125.797 414.703 Q125.797 405.953 128.853 401.37 Q131.932 396.763 137.742 396.763 Z" fill="#000000" fill-rule="evenodd" fill-opacity="1" /><path clip-path="url(#clip720)" d="M157.904 426.069 L162.788 426.069 L162.788 431.948 L157.904 431.948 L157.904 426.069 Z" fill="#000000" fill-rule="evenodd" fill-opacity="1" /><path clip-path="url(#clip720)" d="M177.001 428.013 L193.32 428.013 L193.32 431.948 L171.376 431.948 L171.376 428.013 Q174.038 425.259 178.621 420.629 Q183.228 415.976 184.408 414.634 Q186.654 412.11 187.533 410.374 Q188.436 408.615 188.436 406.925 Q188.436 404.171 186.491 402.435 Q184.57 400.699 181.468 400.699 Q179.269 400.699 176.816 401.462 Q174.385 402.226 171.607 403.777 L171.607 399.055 Q174.431 397.921 176.885 397.342 Q179.339 396.763 181.376 396.763 Q186.746 396.763 189.941 399.449 Q193.135 402.134 193.135 406.624 Q193.135 408.754 192.325 410.675 Q191.538 412.573 189.431 415.166 Q188.853 415.837 185.751 419.055 Q182.649 422.249 177.001 428.013 Z" fill="#000000" fill-rule="evenodd" fill-opacity="1" /><path clip-path="url(#clip720)" d="M136.793 113.063 Q133.182 113.063 131.353 116.628 Q129.547 120.17 129.547 127.299 Q129.547 134.406 131.353 137.97 Q133.182 141.512 136.793 141.512 Q140.427 141.512 142.232 137.97 Q144.061 134.406 144.061 127.299 Q144.061 120.17 142.232 116.628 Q140.427 113.063 136.793 113.063 M136.793 109.359 Q142.603 109.359 145.658 113.966 Q148.737 118.549 148.737 127.299 Q148.737 136.026 145.658 140.632 Q142.603 145.216 136.793 145.216 Q130.983 145.216 127.904 140.632 Q124.848 136.026 124.848 127.299 Q124.848 118.549 127.904 113.966 Q130.983 109.359 136.793 109.359 Z" fill="#000000" fill-rule="evenodd" fill-opacity="1" /><path clip-path="url(#clip720)" d="M156.955 138.665 L161.839 138.665 L161.839 144.544 L156.955 144.544 L156.955 138.665 Z" fill="#000000" fill-rule="evenodd" fill-opacity="1" /><path clip-path="url(#clip720)" d="M186.191 125.91 Q189.547 126.628 191.422 128.896 Q193.32 131.165 193.32 134.498 Q193.32 139.614 189.802 142.415 Q186.283 145.216 179.802 145.216 Q177.626 145.216 175.311 144.776 Q173.019 144.359 170.566 143.503 L170.566 138.989 Q172.51 140.123 174.825 140.702 Q177.14 141.281 179.663 141.281 Q184.061 141.281 186.353 139.544 Q188.667 137.808 188.667 134.498 Q188.667 131.443 186.515 129.73 Q184.385 127.994 180.566 127.994 L176.538 127.994 L176.538 124.151 L180.751 124.151 Q184.2 124.151 186.029 122.785 Q187.857 121.396 187.857 118.804 Q187.857 116.142 185.959 114.73 Q184.084 113.295 180.566 113.295 Q178.644 113.295 176.445 113.711 Q174.246 114.128 171.607 115.008 L171.607 110.841 Q174.269 110.1 176.584 109.73 Q178.922 109.359 180.982 109.359 Q186.306 109.359 189.408 111.79 Q192.51 114.197 192.51 118.318 Q192.51 121.188 190.866 123.179 Q189.223 125.146 186.191 125.91 Z" fill="#000000" fill-rule="evenodd" fill-opacity="1" /><path clip-path="url(#clip720)" d="M72.0027 565.551 Q76.7692 565.551 81.2458 567.999 Q85.7224 570.414 88.4277 574.214 Q91.133 577.982 91.133 581.783 Q91.133 586.066 86.6886 588.288 Q102.824 592.314 103.242 592.54 Q104.627 593.474 104.627 594.826 Q104.627 595.664 104.112 596.179 Q103.629 596.694 102.856 596.694 Q102.598 596.662 101.793 596.469 L75.8674 590.027 Q69.8449 588.546 65.5616 584.069 Q61.246 579.561 61.246 574.73 Q61.246 570.897 64.1123 568.224 Q66.9786 565.551 72.0027 565.551 M69.1686 570.285 Q65.948 570.285 64.3377 571.574 Q62.6952 572.862 62.6952 574.859 Q62.6952 576.694 64.1767 578.916 Q65.6582 581.106 68.9432 583.039 Q70.8433 584.069 73.1944 584.81 Q75.5454 585.551 81.3424 587 Q83.6613 587.515 83.7901 587.515 Q84.0477 587.515 84.6274 587.387 Q85.2071 587.226 86.1089 586.839 Q86.9785 586.42 87.7514 585.841 Q88.5243 585.261 89.104 584.198 Q89.6515 583.135 89.6515 581.847 Q89.6515 579.85 88.0413 577.725 Q86.3988 575.567 83.4036 573.989 Q80.9882 572.669 76.4471 571.477 Q71.8739 570.285 69.1686 570.285 Z" fill="#000000" fill-rule="evenodd" fill-opacity="1" /><path clip-path="url(#clip720)" d="M73.9029 558.724 Q62.7597 558.724 53.7742 554.57 Q50.0061 552.798 46.85 550.318 Q43.6938 547.839 42.3089 546.196 Q40.9241 544.554 40.9241 544.103 Q40.9241 543.459 41.5682 543.426 Q41.8903 543.426 42.6954 544.296 Q53.5166 554.924 73.9029 554.892 Q94.3536 554.892 104.756 544.554 Q105.883 543.426 106.238 543.426 Q106.882 543.426 106.882 544.103 Q106.882 544.554 105.561 546.132 Q104.241 547.71 101.213 550.157 Q98.1861 552.605 94.4824 554.376 Q85.497 558.724 73.9029 558.724 Z" fill="#000000" fill-rule="evenodd" fill-opacity="1" /><path clip-path="url(#clip720)" d="M65.8514 500.766 Q68.8466 500.766 74.6436 502.279 Q77.1557 502.891 79.4423 503.729 Q81.6967 504.534 83.8867 505.725 Q86.0767 506.917 87.6548 508.302 Q89.2007 509.687 90.1668 511.49 Q91.133 513.294 91.133 515.291 Q91.133 518.447 89.2651 520.315 Q87.3649 522.15 84.1121 522.73 Q91.133 527.046 91.133 532.811 Q91.133 536.385 88.5888 538.06 Q86.0123 539.735 81.6967 539.735 Q78.0574 539.735 74.2894 538.769 Q67.1397 536.933 62.1477 533.358 Q61.568 532.875 61.568 532.166 Q61.568 531.748 61.6969 531.554 Q62.0511 530.975 62.6308 530.975 Q63.0495 530.975 63.4682 531.297 Q66.5922 533.551 69.2652 535.033 Q71.9383 536.514 74.6436 537.191 Q76.9624 537.706 78.927 537.706 Q82.2442 537.706 84.3054 536.289 Q86.3665 534.839 86.3665 531.973 Q86.3665 529.332 84.7241 527.013 Q83.0493 524.695 80.2474 522.988 Q77.1879 522.891 74.2894 522.15 Q71.1976 521.474 71.1976 519.896 Q71.1976 518.64 72.9045 518.64 Q73.4842 518.64 74.6436 518.898 Q77.7032 519.606 80.4407 520.894 Q83.1138 520.443 84.7563 518.769 Q86.3665 517.094 86.3665 514.421 Q86.3665 511.941 84.563 509.751 Q82.7595 507.529 80.1186 506.112 Q77.4455 504.663 74.2894 503.857 Q73.2266 503.6 71.8739 503.6 Q68.2669 503.6 66.0447 506.112 Q65.3361 506.82 64.4022 506.82 Q63.3072 506.82 62.3088 505.919 Q61.246 504.856 61.246 503.6 Q61.246 502.666 61.8257 502.086 Q62.9851 500.766 65.8514 500.766 Z" fill="#000000" fill-rule="evenodd" fill-opacity="1" /><path clip-path="url(#clip720)" d="M106.238 492.795 Q105.916 492.795 105.11 491.958 Q94.2892 481.33 73.9029 481.33 Q53.4522 481.33 43.1141 491.539 Q41.9225 492.795 41.5682 492.795 Q40.9241 492.795 40.9241 492.151 Q40.9241 491.7 42.2445 490.122 Q43.565 488.512 46.5923 486.096 Q49.6197 483.649 53.3233 481.845 Q62.3088 477.497 73.9029 477.497 Q85.0461 477.497 94.0315 481.652 Q97.7996 483.423 100.956 485.903 Q104.112 488.383 105.497 490.026 Q106.882 491.668 106.882 492.151 Q106.882 492.795 106.238 492.795 Z" fill="#000000" fill-rule="evenodd" fill-opacity="1" /><polyline clip-path="url(#clip722)" style="stroke:#009af9; stroke-linecap:butt; stroke-linejoin:round; stroke-width:4; stroke-opacity:1; fill:none" points="
  255.116,989.476 267.841,806.519 280.567,732.058 293.293,675.834 306.018,629.205 318.744,588.806 331.47,552.905 344.195,520.468 356.921,490.818 369.647,463.483 
  382.373,438.12 395.098,414.466 407.824,392.32 420.55,371.519 433.275,351.931 446.001,333.447 458.727,315.978 471.453,299.445 484.178,283.782 496.904,268.934 
  509.63,254.85 522.355,241.488 535.081,228.81 547.807,216.781 560.532,205.372 573.258,194.556 585.984,184.31 598.71,174.611 611.435,165.441 624.161,156.782 
  636.887,148.618 649.612,140.935 662.338,133.72 675.064,126.961 687.79,120.648 700.515,114.771 713.241,109.321 725.967,104.291 738.692,99.6722 751.418,95.4596 
  764.144,91.6472 776.87,88.2298 789.595,85.2029 802.321,82.5627 815.047,80.3057 827.772,78.4292 840.498,76.9308 853.224,75.8086 865.949,75.0612 878.675,74.6877 
  891.401,74.6877 904.127,75.0612 916.852,75.8086 929.578,76.9308 942.304,78.4292 955.029,80.3057 967.755,82.5627 980.481,85.2029 993.207,88.2298 1005.93,91.6472 
  1018.66,95.4596 1031.38,99.6722 1044.11,104.291 1056.84,109.321 1069.56,114.771 1082.29,120.648 1095.01,126.961 1107.74,133.72 1120.46,140.935 1133.19,148.618 
  1145.92,156.782 1158.64,165.441 1171.37,174.611 1184.09,184.31 1196.82,194.556 1209.54,205.372 1222.27,216.781 1234.99,228.81 1247.72,241.488 1260.45,254.85 
  1273.17,268.934 1285.9,283.782 1298.62,299.445 1311.35,315.978 1324.07,333.447 1336.8,351.931 1349.53,371.519 1362.25,392.32 1374.98,414.466 1387.7,438.12 
  1400.43,463.483 1413.15,490.818 1425.88,520.468 1438.61,552.905 1451.33,588.806 1464.06,629.205 1476.78,675.834 1489.51,732.058 1502.23,806.519 1514.96,989.476 
  
  "/>
</svg>
