<?xml version="1.0" encoding="utf-8"?>
<svg xmlns="http://www.w3.org/2000/svg" xmlns:xlink="http://www.w3.org/1999/xlink" width="400" height="500" viewBox="0 0 1600 2000">
<defs>
  <clipPath id="clip620">
    <rect x="0" y="0" width="1600" height="2000"/>
  </clipPath>
</defs>
<path clip-path="url(#clip620)" d="
M0 2000 L1600 2000 L1600 0 L0 0  Z
  " fill="#ffffff" fill-rule="evenodd" fill-opacity="1"/>
<defs>
  <clipPath id="clip621">
    <rect x="400" y="200" width="1401" height="1401"/>
  </clipPath>
</defs>
<defs>
  <clipPath id="clip622">
    <rect x="271" y="559" width="1600" height="1213"/>
  </clipPath>
</defs>
<path clip-path="url(#clip620)" d="
M239.52 759.715 L1552.76 759.715 L1552.76 153.712 L239.52 153.712  Z
  " fill="#ffffff" fill-rule="evenodd" fill-opacity="1"/>
<defs>
  <clipPath id="clip623">
    <rect x="239" y="153" width="1314" height="607"/>
  </clipPath>
</defs>
<polyline clip-path="url(#clip623)" style="stroke:#000000; stroke-linecap:butt; stroke-linejoin:round; stroke-width:2; stroke-opacity:0.1; fill:none" points="
  258.023,759.715 258.023,153.712 
  "/>
<polyline clip-path="url(#clip623)" style="stroke:#000000; stroke-linecap:butt; stroke-linejoin:round; stroke-width:2; stroke-opacity:0.1; fill:none" points="
  577.081,759.715 577.081,153.712 
  "/>
<polyline clip-path="url(#clip623)" style="stroke:#000000; stroke-linecap:butt; stroke-linejoin:round; stroke-width:2; stroke-opacity:0.1; fill:none" points="
  896.138,759.715 896.138,153.712 
  "/>
<polyline clip-path="url(#clip623)" style="stroke:#000000; stroke-linecap:butt; stroke-linejoin:round; stroke-width:2; stroke-opacity:0.1; fill:none" points="
  1215.2,759.715 1215.2,153.712 
  "/>
<polyline clip-path="url(#clip623)" style="stroke:#000000; stroke-linecap:butt; stroke-linejoin:round; stroke-width:2; stroke-opacity:0.1; fill:none" points="
  1534.25,759.715 1534.25,153.712 
  "/>
<polyline clip-path="url(#clip620)" style="stroke:#000000; stroke-linecap:butt; stroke-linejoin:round; stroke-width:4; stroke-opacity:1; fill:none" points="
  239.52,759.715 1552.76,759.715 
  "/>
<polyline clip-path="url(#clip620)" style="stroke:#000000; stroke-linecap:butt; stroke-linejoin:round; stroke-width:4; stroke-opacity:1; fill:none" points="
  258.023,759.715 258.023,740.817 
  "/>
<polyline clip-path="url(#clip620)" style="stroke:#000000; stroke-linecap:butt; stroke-linejoin:round; stroke-width:4; stroke-opacity:1; fill:none" points="
  577.081,759.715 577.081,740.817 
  "/>
<polyline clip-path="url(#clip620)" style="stroke:#000000; stroke-linecap:butt; stroke-linejoin:round; stroke-width:4; stroke-opacity:1; fill:none" points="
  896.138,759.715 896.138,740.817 
  "/>
<polyline clip-path="url(#clip620)" style="stroke:#000000; stroke-linecap:butt; stroke-linejoin:round; stroke-width:4; stroke-opacity:1; fill:none" points="
  1215.2,759.715 1215.2,740.817 
  "/>
<polyline clip-path="url(#clip620)" style="stroke:#000000; stroke-linecap:butt; stroke-linejoin:round; stroke-width:4; stroke-opacity:1; fill:none" points="
  1534.25,759.715 1534.25,740.817 
  "/>
<path clip-path="url(#clip620)" d="M145.444 817.746 L175.12 817.746 L175.12 821.682 L145.444 821.682 L145.444 817.746 Z" fill="#000000" fill-rule="evenodd" fill-opacity="1" /><path clip-path="url(#clip620)" d="M186.023 830.64 L193.662 830.64 L193.662 804.274 L185.352 805.941 L185.352 801.682 L193.615 800.015 L198.291 800.015 L198.291 830.64 L205.93 830.64 L205.93 834.575 L186.023 834.575 L186.023 830.64 Z" fill="#000000" fill-rule="evenodd" fill-opacity="1" /><path clip-path="url(#clip620)" d="M215.375 828.695 L220.259 828.695 L220.259 834.575 L215.375 834.575 L215.375 828.695 Z" fill="#000000" fill-rule="evenodd" fill-opacity="1" /><path clip-path="url(#clip620)" d="M240.444 803.094 Q236.833 803.094 235.004 806.659 Q233.199 810.2 233.199 817.33 Q233.199 824.436 235.004 828.001 Q236.833 831.543 240.444 831.543 Q244.078 831.543 245.884 828.001 Q247.712 824.436 247.712 817.33 Q247.712 810.2 245.884 806.659 Q244.078 803.094 240.444 803.094 M240.444 799.39 Q246.254 799.39 249.31 803.997 Q252.388 808.58 252.388 817.33 Q252.388 826.057 249.31 830.663 Q246.254 835.246 240.444 835.246 Q234.634 835.246 231.555 830.663 Q228.499 826.057 228.499 817.33 Q228.499 808.58 231.555 803.997 Q234.634 799.39 240.444 799.39 Z" fill="#000000" fill-rule="evenodd" fill-opacity="1" /><path clip-path="url(#clip620)" d="M288.777 809.112 L278.198 819.737 L288.777 830.316 L286.022 833.117 L275.397 822.492 L264.772 833.117 L262.041 830.316 L272.596 819.737 L262.041 809.112 L264.772 806.311 L275.397 816.936 L286.022 806.311 L288.777 809.112 Z" fill="#000000" fill-rule="evenodd" fill-opacity="1" /><path clip-path="url(#clip620)" d="M301.138 830.64 L308.777 830.64 L308.777 804.274 L300.467 805.941 L300.467 801.682 L308.731 800.015 L313.406 800.015 L313.406 830.64 L321.045 830.64 L321.045 834.575 L301.138 834.575 L301.138 830.64 Z" fill="#000000" fill-rule="evenodd" fill-opacity="1" /><path clip-path="url(#clip620)" d="M340.49 803.094 Q336.879 803.094 335.05 806.659 Q333.244 810.2 333.244 817.33 Q333.244 824.436 335.05 828.001 Q336.879 831.543 340.49 831.543 Q344.124 831.543 345.929 828.001 Q347.758 824.436 347.758 817.33 Q347.758 810.2 345.929 806.659 Q344.124 803.094 340.49 803.094 M340.49 799.39 Q346.3 799.39 349.355 803.997 Q352.434 808.58 352.434 817.33 Q352.434 826.057 349.355 830.663 Q346.3 835.246 340.49 835.246 Q334.679 835.246 331.601 830.663 Q328.545 826.057 328.545 817.33 Q328.545 808.58 331.601 803.997 Q334.679 799.39 340.49 799.39 Z" fill="#000000" fill-rule="evenodd" fill-opacity="1" /><path clip-path="url(#clip620)" d="M353.619 779.085 L368.533 779.085 L368.533 782.282 L357.098 782.282 L357.098 789.166 Q357.926 788.883 358.753 788.752 Q359.581 788.601 360.408 788.601 Q365.11 788.601 367.856 791.178 Q370.602 793.755 370.602 798.156 Q370.602 802.688 367.781 805.209 Q364.96 807.71 359.825 807.71 Q358.058 807.71 356.214 807.409 Q354.39 807.108 352.434 806.506 L352.434 802.688 Q354.127 803.61 355.932 804.061 Q357.738 804.513 359.75 804.513 Q363.004 804.513 364.904 802.801 Q366.803 801.09 366.803 798.156 Q366.803 795.222 364.904 793.51 Q363.004 791.799 359.75 791.799 Q358.227 791.799 356.703 792.137 Q355.199 792.476 353.619 793.19 L353.619 779.085 Z" fill="#000000" fill-rule="evenodd" fill-opacity="1" /><path clip-path="url(#clip620)" d="M463.354 817.746 L493.03 817.746 L493.03 821.682 L463.354 821.682 L463.354 817.746 Z" fill="#000000" fill-rule="evenodd" fill-opacity="1" /><path clip-path="url(#clip620)" d="M503.169 800.015 L521.525 800.015 L521.525 803.95 L507.451 803.95 L507.451 812.422 Q508.47 812.075 509.488 811.913 Q510.507 811.728 511.525 811.728 Q517.312 811.728 520.692 814.899 Q524.072 818.071 524.072 823.487 Q524.072 829.066 520.599 832.168 Q517.127 835.246 510.808 835.246 Q508.632 835.246 506.363 834.876 Q504.118 834.506 501.711 833.765 L501.711 829.066 Q503.794 830.2 506.016 830.756 Q508.238 831.311 510.715 831.311 Q514.72 831.311 517.058 829.205 Q519.396 827.098 519.396 823.487 Q519.396 819.876 517.058 817.77 Q514.72 815.663 510.715 815.663 Q508.84 815.663 506.965 816.08 Q505.113 816.496 503.169 817.376 L503.169 800.015 Z" fill="#000000" fill-rule="evenodd" fill-opacity="1" /><path clip-path="url(#clip620)" d="M533.285 828.695 L538.169 828.695 L538.169 834.575 L533.285 834.575 L533.285 828.695 Z" fill="#000000" fill-rule="evenodd" fill-opacity="1" /><path clip-path="url(#clip620)" d="M558.354 803.094 Q554.743 803.094 552.914 806.659 Q551.109 810.2 551.109 817.33 Q551.109 824.436 552.914 828.001 Q554.743 831.543 558.354 831.543 Q561.988 831.543 563.794 828.001 Q565.622 824.436 565.622 817.33 Q565.622 810.2 563.794 806.659 Q561.988 803.094 558.354 803.094 M558.354 799.39 Q564.164 799.39 567.22 803.997 Q570.298 808.58 570.298 817.33 Q570.298 826.057 567.22 830.663 Q564.164 835.246 558.354 835.246 Q552.544 835.246 549.465 830.663 Q546.409 826.057 546.409 817.33 Q546.409 808.58 549.465 803.997 Q552.544 799.39 558.354 799.39 Z" fill="#000000" fill-rule="evenodd" fill-opacity="1" /><path clip-path="url(#clip620)" d="M606.687 809.112 L596.108 819.737 L606.687 830.316 L603.932 833.117 L593.307 822.492 L582.682 833.117 L579.951 830.316 L590.506 819.737 L579.951 809.112 L582.682 806.311 L593.307 816.936 L603.932 806.311 L606.687 809.112 Z" fill="#000000" fill-rule="evenodd" fill-opacity="1" /><path clip-path="url(#clip620)" d="M619.048 830.64 L626.687 830.64 L626.687 804.274 L618.377 805.941 L618.377 801.682 L626.641 800.015 L631.316 800.015 L631.316 830.64 L638.955 830.64 L638.955 834.575 L619.048 834.575 L619.048 830.64 Z" fill="#000000" fill-rule="evenodd" fill-opacity="1" /><path clip-path="url(#clip620)" d="M658.4 803.094 Q654.789 803.094 652.96 806.659 Q651.154 810.2 651.154 817.33 Q651.154 824.436 652.96 828.001 Q654.789 831.543 658.4 831.543 Q662.034 831.543 663.839 828.001 Q665.668 824.436 665.668 817.33 Q665.668 810.2 663.839 806.659 Q662.034 803.094 658.4 803.094 M658.4 799.39 Q664.21 799.39 667.265 803.997 Q670.344 808.58 670.344 817.33 Q670.344 826.057 667.265 830.663 Q664.21 835.246 658.4 835.246 Q652.589 835.246 649.511 830.663 Q646.455 826.057 646.455 817.33 Q646.455 808.58 649.511 803.997 Q652.589 799.39 658.4 799.39 Z" fill="#000000" fill-rule="evenodd" fill-opacity="1" /><path clip-path="url(#clip620)" d="M683.02 782.395 L673.428 797.385 L683.02 797.385 L683.02 782.395 M682.024 779.085 L686.801 779.085 L686.801 797.385 L690.807 797.385 L690.807 800.544 L686.801 800.544 L686.801 807.165 L683.02 807.165 L683.02 800.544 L670.344 800.544 L670.344 796.877 L682.024 779.085 Z" fill="#000000" fill-rule="evenodd" fill-opacity="1" /><path clip-path="url(#clip620)" d="M896.138 787.434 Q892.527 787.434 890.698 790.999 Q888.893 794.54 888.893 801.67 Q888.893 808.776 890.698 812.341 Q892.527 815.883 896.138 815.883 Q899.772 815.883 901.578 812.341 Q903.406 808.776 903.406 801.67 Q903.406 794.54 901.578 790.999 Q899.772 787.434 896.138 787.434 M896.138 783.73 Q901.948 783.73 905.004 788.337 Q908.082 792.92 908.082 801.67 Q908.082 810.397 905.004 815.003 Q901.948 819.586 896.138 819.586 Q890.328 819.586 887.249 815.003 Q884.193 810.397 884.193 801.67 Q884.193 792.92 887.249 788.337 Q890.328 783.73 896.138 783.73 Z" fill="#000000" fill-rule="evenodd" fill-opacity="1" /><path clip-path="url(#clip620)" d="M1122.11 800.015 L1140.46 800.015 L1140.46 803.95 L1126.39 803.95 L1126.39 812.422 Q1127.41 812.075 1128.42 811.913 Q1129.44 811.728 1130.46 811.728 Q1136.25 811.728 1139.63 814.899 Q1143.01 818.071 1143.01 823.487 Q1143.01 829.066 1139.54 832.168 Q1136.06 835.246 1129.74 835.246 Q1127.57 835.246 1125.3 834.876 Q1123.05 834.506 1120.65 833.765 L1120.65 829.066 Q1122.73 830.2 1124.95 830.756 Q1127.17 831.311 1129.65 831.311 Q1133.66 831.311 1135.99 829.205 Q1138.33 827.098 1138.33 823.487 Q1138.33 819.876 1135.99 817.77 Q1133.66 815.663 1129.65 815.663 Q1127.78 815.663 1125.9 816.08 Q1124.05 816.496 1122.11 817.376 L1122.11 800.015 Z" fill="#000000" fill-rule="evenodd" fill-opacity="1" /><path clip-path="url(#clip620)" d="M1152.22 828.695 L1157.11 828.695 L1157.11 834.575 L1152.22 834.575 L1152.22 828.695 Z" fill="#000000" fill-rule="evenodd" fill-opacity="1" /><path clip-path="url(#clip620)" d="M1177.29 803.094 Q1173.68 803.094 1171.85 806.659 Q1170.04 810.2 1170.04 817.33 Q1170.04 824.436 1171.85 828.001 Q1173.68 831.543 1177.29 831.543 Q1180.92 831.543 1182.73 828.001 Q1184.56 824.436 1184.56 817.33 Q1184.56 810.2 1182.73 806.659 Q1180.92 803.094 1177.29 803.094 M1177.29 799.39 Q1183.1 799.39 1186.16 803.997 Q1189.23 808.58 1189.23 817.33 Q1189.23 826.057 1186.16 830.663 Q1183.1 835.246 1177.29 835.246 Q1171.48 835.246 1168.4 830.663 Q1165.35 826.057 1165.35 817.33 Q1165.35 808.58 1168.4 803.997 Q1171.48 799.39 1177.29 799.39 Z" fill="#000000" fill-rule="evenodd" fill-opacity="1" /><path clip-path="url(#clip620)" d="M1225.62 809.112 L1215.04 819.737 L1225.62 830.316 L1222.87 833.117 L1212.24 822.492 L1201.62 833.117 L1198.89 830.316 L1209.44 819.737 L1198.89 809.112 L1201.62 806.311 L1212.24 816.936 L1222.87 806.311 L1225.62 809.112 Z" fill="#000000" fill-rule="evenodd" fill-opacity="1" /><path clip-path="url(#clip620)" d="M1237.98 830.64 L1245.62 830.64 L1245.62 804.274 L1237.31 805.941 L1237.31 801.682 L1245.58 800.015 L1250.25 800.015 L1250.25 830.64 L1257.89 830.64 L1257.89 834.575 L1237.98 834.575 L1237.98 830.64 Z" fill="#000000" fill-rule="evenodd" fill-opacity="1" /><path clip-path="url(#clip620)" d="M1277.34 803.094 Q1273.72 803.094 1271.9 806.659 Q1270.09 810.2 1270.09 817.33 Q1270.09 824.436 1271.9 828.001 Q1273.72 831.543 1277.34 831.543 Q1280.97 831.543 1282.78 828.001 Q1284.6 824.436 1284.6 817.33 Q1284.6 810.2 1282.78 806.659 Q1280.97 803.094 1277.34 803.094 M1277.34 799.39 Q1283.15 799.39 1286.2 803.997 Q1289.28 808.58 1289.28 817.33 Q1289.28 826.057 1286.2 830.663 Q1283.15 835.246 1277.34 835.246 Q1271.53 835.246 1268.45 830.663 Q1265.39 826.057 1265.39 817.33 Q1265.39 808.58 1268.45 803.997 Q1271.53 799.39 1277.34 799.39 Z" fill="#000000" fill-rule="evenodd" fill-opacity="1" /><path clip-path="url(#clip620)" d="M1301.96 782.395 L1292.36 797.385 L1301.96 797.385 L1301.96 782.395 M1300.96 779.085 L1305.74 779.085 L1305.74 797.385 L1309.74 797.385 L1309.74 800.544 L1305.74 800.544 L1305.74 807.165 L1301.96 807.165 L1301.96 800.544 L1289.28 800.544 L1289.28 796.877 L1300.96 779.085 Z" fill="#000000" fill-rule="evenodd" fill-opacity="1" /><path clip-path="url(#clip620)" d="M1442.3 830.64 L1449.94 830.64 L1449.94 804.274 L1441.63 805.941 L1441.63 801.682 L1449.89 800.015 L1454.57 800.015 L1454.57 830.64 L1462.21 830.64 L1462.21 834.575 L1442.3 834.575 L1442.3 830.64 Z" fill="#000000" fill-rule="evenodd" fill-opacity="1" /><path clip-path="url(#clip620)" d="M1471.65 828.695 L1476.53 828.695 L1476.53 834.575 L1471.65 834.575 L1471.65 828.695 Z" fill="#000000" fill-rule="evenodd" fill-opacity="1" /><path clip-path="url(#clip620)" d="M1496.72 803.094 Q1493.11 803.094 1491.28 806.659 Q1489.47 810.2 1489.47 817.33 Q1489.47 824.436 1491.28 828.001 Q1493.11 831.543 1496.72 831.543 Q1500.35 831.543 1502.16 828.001 Q1503.99 824.436 1503.99 817.33 Q1503.99 810.2 1502.16 806.659 Q1500.35 803.094 1496.72 803.094 M1496.72 799.39 Q1502.53 799.39 1505.58 803.997 Q1508.66 808.58 1508.66 817.33 Q1508.66 826.057 1505.58 830.663 Q1502.53 835.246 1496.72 835.246 Q1490.91 835.246 1487.83 830.663 Q1484.77 826.057 1484.77 817.33 Q1484.77 808.58 1487.83 803.997 Q1490.91 799.39 1496.72 799.39 Z" fill="#000000" fill-rule="evenodd" fill-opacity="1" /><path clip-path="url(#clip620)" d="M1545.05 809.112 L1534.47 819.737 L1545.05 830.316 L1542.3 833.117 L1531.67 822.492 L1521.05 833.117 L1518.32 830.316 L1528.87 819.737 L1518.32 809.112 L1521.05 806.311 L1531.67 816.936 L1542.3 806.311 L1545.05 809.112 Z" fill="#000000" fill-rule="evenodd" fill-opacity="1" /><path clip-path="url(#clip620)" d="M1557.41 830.64 L1565.05 830.64 L1565.05 804.274 L1556.74 805.941 L1556.74 801.682 L1565.01 800.015 L1569.68 800.015 L1569.68 830.64 L1577.32 830.64 L1577.32 834.575 L1557.41 834.575 L1557.41 830.64 Z" fill="#000000" fill-rule="evenodd" fill-opacity="1" /><path clip-path="url(#clip620)" d="M1596.77 803.094 Q1593.15 803.094 1591.33 806.659 Q1589.52 810.2 1589.52 817.33 Q1589.52 824.436 1591.33 828.001 Q1593.15 831.543 1596.77 831.543 Q1600.4 831.543 1602.2 828.001 Q1604.03 824.436 1604.03 817.33 Q1604.03 810.2 1602.2 806.659 Q1600.4 803.094 1596.77 803.094 M1596.77 799.39 Q1602.58 799.39 1605.63 803.997 Q1608.71 808.58 1608.71 817.33 Q1608.71 826.057 1605.63 830.663 Q1602.58 835.246 1596.77 835.246 Q1590.95 835.246 1587.88 830.663 Q1584.82 826.057 1584.82 817.33 Q1584.82 808.58 1587.88 803.997 Q1590.95 799.39 1596.77 799.39 Z" fill="#000000" fill-rule="evenodd" fill-opacity="1" /><path clip-path="url(#clip620)" d="M1609.89 779.085 L1624.81 779.085 L1624.81 782.282 L1613.37 782.282 L1613.37 789.166 Q1614.2 788.883 1615.03 788.752 Q1615.86 788.601 1616.68 788.601 Q1621.39 788.601 1624.13 791.178 Q1626.88 793.755 1626.88 798.156 Q1626.88 802.688 1624.06 805.209 Q1621.24 807.71 1616.1 807.71 Q1614.33 807.71 1612.49 807.409 Q1610.67 807.108 1608.71 806.506 L1608.71 802.688 Q1610.4 803.61 1612.21 804.061 Q1614.01 804.513 1616.03 804.513 Q1619.28 804.513 1621.18 802.801 Q1623.08 801.09 1623.08 798.156 Q1623.08 795.222 1621.18 793.51 Q1619.28 791.799 1616.03 791.799 Q1614.5 791.799 1612.98 792.137 Q1611.47 792.476 1609.89 793.19 L1609.89 779.085 Z" fill="#000000" fill-rule="evenodd" fill-opacity="1" /><path clip-path="url(#clip620)" d="M911.06 875.55 Q911.06 875.84 910.803 876.839 Q910.577 877.805 909.836 879.705 Q909.128 881.573 908.033 883.666 Q906.97 885.728 905.006 888.336 Q903.041 890.945 900.593 893.231 Q895.988 897.547 891.06 899.866 Q886.165 902.185 881.978 902.925 L881.044 902.925 Q880.014 902.925 880.014 902.12 L880.722 899.157 L884.748 883.022 Q886.004 878.095 886.004 877.676 Q886.004 877.29 885.843 877.096 Q885.714 876.871 884.941 876.71 Q884.201 876.549 882.719 876.549 Q882.107 876.549 881.817 876.517 Q881.56 876.484 881.334 876.323 Q881.109 876.13 881.109 875.744 Q881.109 875.196 881.334 874.906 Q881.592 874.584 881.785 874.52 Q881.978 874.455 882.365 874.423 Q882.912 874.391 884.748 874.23 Q886.584 874.037 888.162 873.908 Q889.74 873.779 890.416 873.779 Q890.803 873.779 891.028 873.972 Q891.254 874.133 891.254 874.327 L891.286 874.488 L884.812 900.735 Q887.196 899.962 889.547 898.674 Q891.93 897.386 894.506 895.26 Q897.083 893.103 899.273 890.43 Q901.463 887.756 903.395 884.021 Q905.36 880.253 906.584 875.937 Q906.809 875.067 907.357 874.552 Q907.936 874.037 908.355 873.908 Q908.774 873.779 909.16 873.779 Q910.03 873.779 910.545 874.262 Q911.06 874.713 911.06 875.55 Z" fill="#000000" fill-rule="evenodd" fill-opacity="1" /><polyline clip-path="url(#clip623)" style="stroke:#000000; stroke-linecap:butt; stroke-linejoin:round; stroke-width:2; stroke-opacity:0.1; fill:none" points="
  239.52,734.117 1552.76,734.117 
  "/>
<polyline clip-path="url(#clip623)" style="stroke:#000000; stroke-linecap:butt; stroke-linejoin:round; stroke-width:2; stroke-opacity:0.1; fill:none" points="
  239.52,595.415 1552.76,595.415 
  "/>
<polyline clip-path="url(#clip623)" style="stroke:#000000; stroke-linecap:butt; stroke-linejoin:round; stroke-width:2; stroke-opacity:0.1; fill:none" points="
  239.52,456.714 1552.76,456.714 
  "/>
<polyline clip-path="url(#clip623)" style="stroke:#000000; stroke-linecap:butt; stroke-linejoin:round; stroke-width:2; stroke-opacity:0.1; fill:none" points="
  239.52,318.012 1552.76,318.012 
  "/>
<polyline clip-path="url(#clip623)" style="stroke:#000000; stroke-linecap:butt; stroke-linejoin:round; stroke-width:2; stroke-opacity:0.1; fill:none" points="
  239.52,179.31 1552.76,179.31 
  "/>
<polyline clip-path="url(#clip620)" style="stroke:#000000; stroke-linecap:butt; stroke-linejoin:round; stroke-width:4; stroke-opacity:1; fill:none" points="
  239.52,759.715 239.52,153.712 
  "/>
<polyline clip-path="url(#clip620)" style="stroke:#000000; stroke-linecap:butt; stroke-linejoin:round; stroke-width:4; stroke-opacity:1; fill:none" points="
  239.52,734.117 258.417,734.117 
  "/>
<polyline clip-path="url(#clip620)" style="stroke:#000000; stroke-linecap:butt; stroke-linejoin:round; stroke-width:4; stroke-opacity:1; fill:none" points="
  239.52,595.415 258.417,595.415 
  "/>
<polyline clip-path="url(#clip620)" style="stroke:#000000; stroke-linecap:butt; stroke-linejoin:round; stroke-width:4; stroke-opacity:1; fill:none" points="
  239.52,456.714 258.417,456.714 
  "/>
<polyline clip-path="url(#clip620)" style="stroke:#000000; stroke-linecap:butt; stroke-linejoin:round; stroke-width:4; stroke-opacity:1; fill:none" points="
  239.52,318.012 258.417,318.012 
  "/>
<polyline clip-path="url(#clip620)" style="stroke:#000000; stroke-linecap:butt; stroke-linejoin:round; stroke-width:4; stroke-opacity:1; fill:none" points="
  239.52,179.31 258.417,179.31 
  "/>
<path clip-path="url(#clip620)" d="M149.404 734.568 L179.08 734.568 L179.08 738.503 L149.404 738.503 L149.404 734.568 Z" fill="#000000" fill-rule="evenodd" fill-opacity="1" /><path clip-path="url(#clip620)" d="M193.2 747.462 L209.52 747.462 L209.52 751.397 L187.575 751.397 L187.575 747.462 Q190.237 744.707 194.821 740.077 Q199.427 735.425 200.608 734.082 Q202.853 731.559 203.733 729.823 Q204.636 728.064 204.636 726.374 Q204.636 723.619 202.691 721.883 Q200.77 720.147 197.668 720.147 Q195.469 720.147 193.015 720.911 Q190.585 721.675 187.807 723.226 L187.807 718.503 Q190.631 717.369 193.085 716.791 Q195.538 716.212 197.575 716.212 Q202.946 716.212 206.14 718.897 Q209.335 721.582 209.335 726.073 Q209.335 728.202 208.524 730.124 Q207.737 732.022 205.631 734.614 Q205.052 735.286 201.95 738.503 Q198.849 741.698 193.2 747.462 Z" fill="#000000" fill-rule="evenodd" fill-opacity="1" /><path clip-path="url(#clip620)" d="M149.034 595.867 L178.71 595.867 L178.71 599.802 L149.034 599.802 L149.034 595.867 Z" fill="#000000" fill-rule="evenodd" fill-opacity="1" /><path clip-path="url(#clip620)" d="M189.612 608.76 L197.251 608.76 L197.251 582.394 L188.941 584.061 L188.941 579.802 L197.205 578.135 L201.881 578.135 L201.881 608.76 L209.52 608.76 L209.52 612.695 L189.612 612.695 L189.612 608.76 Z" fill="#000000" fill-rule="evenodd" fill-opacity="1" /><path clip-path="url(#clip620)" d="M197.575 442.512 Q193.964 442.512 192.136 446.077 Q190.33 449.619 190.33 456.748 Q190.33 463.855 192.136 467.42 Q193.964 470.961 197.575 470.961 Q201.21 470.961 203.015 467.42 Q204.844 463.855 204.844 456.748 Q204.844 449.619 203.015 446.077 Q201.21 442.512 197.575 442.512 M197.575 438.809 Q203.386 438.809 206.441 443.415 Q209.52 447.998 209.52 456.748 Q209.52 465.475 206.441 470.082 Q203.386 474.665 197.575 474.665 Q191.765 474.665 188.687 470.082 Q185.631 465.475 185.631 456.748 Q185.631 447.998 188.687 443.415 Q191.765 438.809 197.575 438.809 Z" fill="#000000" fill-rule="evenodd" fill-opacity="1" /><path clip-path="url(#clip620)" d="M189.612 331.357 L197.251 331.357 L197.251 304.991 L188.941 306.658 L188.941 302.399 L197.205 300.732 L201.881 300.732 L201.881 331.357 L209.52 331.357 L209.52 335.292 L189.612 335.292 L189.612 331.357 Z" fill="#000000" fill-rule="evenodd" fill-opacity="1" /><path clip-path="url(#clip620)" d="M193.2 192.655 L209.52 192.655 L209.52 196.59 L187.575 196.59 L187.575 192.655 Q190.237 189.901 194.821 185.271 Q199.427 180.618 200.608 179.276 Q202.853 176.753 203.733 175.016 Q204.636 173.257 204.636 171.567 Q204.636 168.813 202.691 167.077 Q200.77 165.341 197.668 165.341 Q195.469 165.341 193.015 166.104 Q190.585 166.868 187.807 168.419 L187.807 163.697 Q190.631 162.563 193.085 161.984 Q195.538 161.405 197.575 161.405 Q202.946 161.405 206.14 164.091 Q209.335 166.776 209.335 171.266 Q209.335 173.396 208.524 175.317 Q207.737 177.215 205.631 179.808 Q205.052 180.479 201.95 183.697 Q198.849 186.891 193.2 192.655 Z" fill="#000000" fill-rule="evenodd" fill-opacity="1" /><path clip-path="url(#clip620)" d="M106.857 585.072 L104.828 585.072 L104.828 583.333 Q104.828 579.629 104.248 578.792 Q103.636 577.922 101.704 577.922 L66.9535 577.922 Q65.0534 577.922 64.4737 578.792 Q63.8618 579.661 63.8618 583.333 L63.8618 585.072 L61.8006 585.072 Q61.9938 582.753 61.9938 574.959 Q61.9938 567.23 61.8006 564.943 L63.8618 564.943 L63.8618 566.65 Q63.8618 570.354 64.4737 571.223 Q65.0534 572.061 66.9535 572.061 L101.704 572.061 Q103.604 572.061 104.216 571.223 Q104.828 570.354 104.828 566.65 L104.828 564.943 L106.857 564.943 Q106.663 567.262 106.663 575.024 Q106.663 582.753 106.857 585.072 Z" fill="#000000" fill-rule="evenodd" fill-opacity="1" /><path clip-path="url(#clip620)" d="M106.857 556.22 L104.828 556.22 Q104.828 552.71 104.409 551.904 Q103.958 551.099 101.832 551.099 L84.1515 551.099 Q81.7038 551.099 81.0919 551.969 Q80.48 552.806 80.48 556.22 L78.4188 556.22 L77.7103 546.945 L84.6346 546.945 Q77.7103 543.853 77.7103 537.186 Q77.7103 529.457 84.1515 528.394 Q81.6394 527.267 79.6749 524.916 Q77.7103 522.533 77.7103 518.829 Q77.7103 513.869 80.158 511.905 Q81.8005 510.455 83.6362 510.166 Q85.4719 509.876 90.2384 509.876 L102.831 509.876 Q104.216 509.811 104.538 508.749 Q104.828 507.686 104.828 504.723 L106.857 504.723 Q106.663 511.454 106.663 512.098 Q106.663 512.613 106.857 519.57 L104.828 519.57 Q104.828 516.059 104.409 515.254 Q103.958 514.417 101.832 514.417 L86.4703 514.417 Q83.1209 514.417 81.1563 515.447 Q79.1596 516.478 79.1596 519.312 Q79.1596 522.726 82.0259 525.463 Q84.8922 528.201 89.7231 528.201 L101.832 528.201 Q103.958 528.201 104.409 527.396 Q104.828 526.558 104.828 523.048 L106.857 523.048 Q106.663 529.779 106.663 530.455 Q106.663 530.971 106.857 537.895 L104.828 537.895 Q104.828 534.384 104.409 533.579 Q103.958 532.742 101.832 532.742 L86.4703 532.742 Q83.1209 532.742 81.1563 533.772 Q79.1596 534.803 79.1596 537.637 Q79.1596 541.051 82.0259 543.788 Q84.8922 546.526 89.7231 546.526 L101.832 546.526 Q103.958 546.526 104.409 545.721 Q104.828 544.883 104.828 541.405 L106.857 541.405 Q106.663 548.136 106.663 548.78 Q106.663 549.296 106.857 556.22 Z" fill="#000000" fill-rule="evenodd" fill-opacity="1" /><path clip-path="url(#clip620)" d="M62.8634 484.406 Q61.8006 484.406 61.8006 482.957 L61.8006 446.016 L76.6475 444.181 L76.6475 445.888 Q72.2997 446.467 69.7877 447.498 Q67.2756 448.529 65.923 450.719 Q64.5703 452.876 64.2161 455.549 Q63.8618 458.223 63.8618 463.118 L63.8618 476.966 L82.5734 464.02 Q83.8938 463.086 84.3125 463.118 Q84.8922 463.118 86.0838 464.245 L104.087 480.187 L104.087 464.438 Q104.087 461.411 103.99 459.511 Q103.894 457.578 103.636 455.549 Q103.346 453.488 102.799 452.297 Q102.251 451.105 101.349 449.913 Q100.448 448.722 99.0306 448.045 Q97.6135 447.337 95.7134 446.789 Q93.781 446.242 91.2368 445.888 L91.2368 444.181 L106.857 446.016 L106.857 483.021 Q106.857 484.341 106.051 484.341 Q105.665 484.341 104.731 483.569 L87.211 467.981 Q86.3415 468.625 84.5057 469.849 L64.3771 483.762 Q63.1855 484.406 62.8634 484.406 Z" fill="#000000" fill-rule="evenodd" fill-opacity="1" /><path clip-path="url(#clip620)" d="M90.3672 433.83 Q79.224 433.83 70.2385 429.675 Q66.4705 427.904 63.3143 425.424 Q60.1581 422.944 58.7733 421.302 Q57.3884 419.659 57.3884 419.208 Q57.3884 418.564 58.0325 418.532 Q58.3546 418.532 59.1597 419.402 Q69.9809 430.029 90.3672 429.997 Q110.818 429.997 121.22 419.659 Q122.348 418.532 122.702 418.532 Q123.346 418.532 123.346 419.208 Q123.346 419.659 122.026 421.237 Q120.705 422.815 117.678 425.263 Q114.65 427.711 110.947 429.482 Q101.961 433.83 90.3672 433.83 Z" fill="#000000" fill-rule="evenodd" fill-opacity="1" /><path clip-path="url(#clip620)" d="M106.857 408.503 L104.828 408.503 Q104.828 404.993 104.409 404.188 Q103.958 403.383 101.832 403.383 L84.0871 403.383 Q81.6394 403.383 81.0597 404.22 Q80.48 405.025 80.48 408.246 L78.4188 408.246 L77.7103 399.035 L101.897 399.035 Q103.861 399.035 104.345 398.326 Q104.828 397.618 104.828 394.397 L106.857 394.397 Q106.663 401.128 106.663 401.257 Q106.663 402.159 106.857 408.503 M66.2128 405.734 Q64.8924 405.734 63.8296 404.735 Q62.7346 403.705 62.7346 402.255 Q62.7346 400.806 63.733 399.776 Q64.6991 398.745 66.245 398.745 Q67.7587 398.745 68.7571 399.776 Q69.7233 400.806 69.7233 402.255 Q69.7233 403.769 68.6605 404.768 Q67.5977 405.734 66.2128 405.734 Z" fill="#000000" fill-rule="evenodd" fill-opacity="1" /><path clip-path="url(#clip620)" d="M79.4816 359.371 Q79.7715 359.371 80.7699 359.629 Q81.736 359.854 83.6362 360.595 Q85.5041 361.304 87.5975 362.399 Q89.6587 363.461 92.2674 365.426 Q94.876 367.39 97.1626 369.838 Q101.478 374.444 103.797 379.371 Q106.116 384.266 106.857 388.453 L106.857 389.387 Q106.857 390.418 106.051 390.418 L103.089 389.709 L86.9534 385.683 Q82.0259 384.427 81.6072 384.427 Q81.2207 384.427 81.0275 384.588 Q80.8021 384.717 80.641 385.49 Q80.48 386.231 80.48 387.712 Q80.48 388.324 80.4478 388.614 Q80.4156 388.872 80.2546 389.097 Q80.0613 389.323 79.6749 389.323 Q79.1274 389.323 78.8375 389.097 Q78.5155 388.84 78.451 388.646 Q78.3866 388.453 78.3544 388.067 Q78.3222 387.519 78.1612 385.683 Q77.968 383.848 77.8391 382.27 Q77.7103 380.691 77.7103 380.015 Q77.7103 379.629 77.9035 379.403 Q78.0646 379.178 78.2578 379.178 L78.4188 379.146 L104.667 385.619 Q103.894 383.236 102.605 380.885 Q101.317 378.501 99.1916 375.925 Q97.0338 373.349 94.3607 371.159 Q91.6877 368.969 87.9518 367.036 Q84.1837 365.072 79.8681 363.848 Q78.9985 363.622 78.4832 363.075 Q77.968 362.495 77.8391 362.077 Q77.7103 361.658 77.7103 361.271 Q77.7103 360.402 78.1934 359.887 Q78.6443 359.371 79.4816 359.371 Z" fill="#000000" fill-rule="evenodd" fill-opacity="1" /><path clip-path="url(#clip620)" d="M122.702 353.682 Q122.38 353.682 121.575 352.844 Q110.754 342.216 90.3672 342.216 Q69.9165 342.216 59.5784 352.426 Q58.3868 353.682 58.0325 353.682 Q57.3884 353.682 57.3884 353.037 Q57.3884 352.587 58.7088 351.008 Q60.0293 349.398 63.0566 346.983 Q66.084 344.535 69.7877 342.732 Q78.7731 338.384 90.3672 338.384 Q101.51 338.384 110.496 342.538 Q114.264 344.31 117.42 346.79 Q120.576 349.269 121.961 350.912 Q123.346 352.554 123.346 353.037 Q123.346 353.682 122.702 353.682 Z" fill="#000000" fill-rule="evenodd" fill-opacity="1" /><path clip-path="url(#clip620)" d="M645.05 18.4149 Q645.05 20.0954 643.656 20.0954 Q641.197 20.1774 639.516 20.6693 Q637.835 21.1202 636.852 22.0219 Q635.909 22.9237 635.376 23.9074 Q634.884 24.8502 634.556 26.2848 L627.096 56.084 Q624.965 64.4868 618.079 70.5942 Q611.192 76.6606 603.363 76.6606 Q598.896 76.6606 595.166 74.8161 Q591.477 72.9716 589.181 69.2416 Q586.886 65.5115 586.886 60.5518 Q586.886 58.1745 587.501 55.6741 L592.583 34.9335 L594.469 27.5555 Q595.862 22.1039 595.862 21.612 Q595.862 20.8332 595.371 20.6283 Q594.92 20.3824 593.608 20.2594 L590.411 20.0954 Q589.427 20.0954 589.017 20.0544 Q588.648 20.0134 588.361 19.8085 Q588.074 19.6036 588.074 19.1527 Q588.074 18.5788 588.197 18.2099 Q588.361 17.8 588.648 17.6771 Q588.935 17.5541 589.14 17.5131 Q589.345 17.4721 589.673 17.4721 L600.494 17.7181 L611.233 17.4721 Q612.422 17.4721 612.422 18.4149 Q612.422 19.6036 611.889 19.8495 Q611.356 20.0954 609.553 20.0954 Q606.479 20.0954 605.085 20.5053 Q603.732 20.8742 603.322 21.5301 Q602.954 22.1449 602.503 23.9484 L594.346 56.6169 Q593.936 58.2564 593.69 59.896 Q593.485 61.4946 593.485 62.3144 L593.444 63.1342 Q593.444 68.3398 596.313 71.2091 Q599.223 74.0783 603.691 74.0783 Q610.25 74.0783 616.357 68.8727 Q622.505 63.667 624.596 55.5102 L632.138 25.547 Q632.384 24.8092 632.384 23.7845 Q632.384 22.1449 631.154 21.1611 Q629.965 20.1364 626.686 20.0954 Q625.17 20.0954 625.17 19.1527 Q625.17 18.3739 625.457 18.005 Q625.785 17.5951 626.03 17.5541 Q626.317 17.4721 626.686 17.4721 Q628.08 17.4721 631.031 17.5951 Q633.982 17.7181 635.417 17.7181 Q636.852 17.7181 639.721 17.5951 Q642.59 17.4721 643.984 17.4721 Q644.476 17.4721 644.722 17.7181 Q645.009 17.923 645.05 18.1689 L645.05 18.4149 Z" fill="#000000" fill-rule="evenodd" fill-opacity="1" /><path clip-path="url(#clip620)" d="M666.928 62.0684 Q667.01 61.0437 668.608 61.0437 L720.05 61.0437 Q722.468 61.0437 722.509 61.9865 Q722.509 63.0112 720.214 62.9702 L669.182 62.9702 Q666.928 63.0112 666.928 62.0684 M666.928 45.6727 Q666.928 44.648 668.69 44.689 L719.968 44.689 Q722.468 44.689 722.509 45.6727 Q722.509 46.6155 720.378 46.6155 L668.608 46.6155 Q666.928 46.6155 666.928 45.6727 Z" fill="#000000" fill-rule="evenodd" fill-opacity="1" /><path clip-path="url(#clip620)" d="M754.886 61.2897 Q754.886 58.7893 756.239 57.8466 Q757.591 56.8628 759.026 56.8628 Q760.952 56.8628 762.059 58.0925 Q763.207 59.2812 763.207 60.9617 Q763.207 62.6423 762.059 63.872 Q760.952 65.0607 759.026 65.0607 Q758.083 65.0607 757.591 64.8967 Q758.698 68.7497 762.059 71.537 Q765.461 74.3242 769.929 74.3242 Q775.544 74.3242 778.906 68.8727 Q780.914 65.3476 780.914 57.3547 Q780.914 50.3045 779.397 46.7794 Q777.061 41.4099 772.265 41.4099 Q765.461 41.4099 761.444 47.2713 Q760.952 48.0091 760.378 48.0501 Q759.559 48.0501 759.354 47.5992 Q759.19 47.1074 759.19 45.8367 L759.19 20.9972 Q759.19 18.9887 760.01 18.9887 Q760.337 18.9887 761.034 19.2347 Q766.322 21.571 772.183 21.612 Q778.209 21.612 783.619 19.1527 Q784.029 18.9067 784.275 18.9067 Q785.095 18.9067 785.136 19.8495 Q785.136 20.1774 784.439 21.1611 Q783.783 22.1039 782.349 23.3746 Q780.914 24.6042 779.07 25.7929 Q777.225 26.9816 774.52 27.8014 Q771.855 28.5802 768.904 28.5802 Q765.379 28.5802 761.772 27.4735 L761.772 43.8282 Q766.117 39.5653 772.429 39.5653 Q779.152 39.5653 783.783 44.9759 Q788.415 50.3865 788.415 57.9285 Q788.415 65.8395 782.923 71.25 Q777.471 76.6606 770.093 76.6606 Q763.371 76.6606 759.108 71.8649 Q754.886 67.0691 754.886 61.2897 Z" fill="#000000" fill-rule="evenodd" fill-opacity="1" /><path clip-path="url(#clip620)" d="M797.726 73.4635 Q796.455 72.1108 796.455 70.3483 Q796.455 68.5857 797.726 67.3151 Q798.996 66.0034 800.923 66.0034 Q802.767 66.0034 803.997 67.2331 Q805.268 68.4218 805.268 70.3893 Q805.268 72.3158 803.915 73.5864 Q802.603 74.8161 800.923 74.8161 Q798.996 74.8161 797.726 73.4635 Z" fill="#000000" fill-rule="evenodd" fill-opacity="1" /><path clip-path="url(#clip620)" d="M819.553 47.9681 Q819.553 35.6304 822.668 28.9081 Q827.013 18.9067 837.261 18.9067 Q839.433 18.9067 841.688 19.5216 Q843.983 20.0954 846.852 22.3498 Q849.762 24.6042 851.525 28.2933 Q854.886 35.4254 854.886 47.9681 Q854.886 60.2239 851.771 66.9052 Q847.221 76.6606 837.179 76.6606 Q833.408 76.6606 829.555 74.7341 Q825.743 72.8076 823.324 68.1759 Q819.553 61.2487 819.553 47.9681 M826.521 46.9434 Q826.521 59.6091 827.423 64.6508 Q828.448 70.1023 831.235 72.4797 Q834.064 74.8161 837.179 74.8161 Q840.54 74.8161 843.327 72.3158 Q846.155 69.7744 847.016 64.3229 Q847.959 58.9533 847.918 46.9434 Q847.918 35.2615 847.098 30.5887 Q845.991 25.1371 843.04 22.9647 Q840.13 20.7513 837.179 20.7513 Q836.072 20.7513 834.883 21.0792 Q833.736 21.4071 832.055 22.3498 Q830.374 23.2926 829.063 25.629 Q827.792 27.9654 827.177 31.4904 Q826.521 36.0403 826.521 46.9434 Z" fill="#000000" fill-rule="evenodd" fill-opacity="1" /><path clip-path="url(#clip620)" d="M862.311 73.4635 Q861.122 72.1108 861.122 70.3483 Q861.122 68.5857 862.27 67.2741 Q863.459 65.9214 865.59 65.9214 Q868.09 65.9214 869.525 68.3398 Q870.96 70.7172 870.96 74.7341 Q870.96 79.079 869.197 83.0959 Q867.435 87.1539 865.713 89.0804 Q863.992 91.0069 863.295 91.0069 Q862.475 91.0069 862.475 90.1051 Q862.475 89.7772 863.049 89.1624 Q869.074 82.6861 869.115 74.7341 Q869.115 73.4635 868.951 73.4635 L868.746 73.6274 Q867.312 74.8161 865.59 74.8161 Q863.5 74.8161 862.311 73.4635 Z" fill="#000000" fill-rule="evenodd" fill-opacity="1" /><path clip-path="url(#clip620)" d="M954.547 18.9067 Q954.547 19.6855 954.383 20.3414 L952.087 34.9335 Q951.964 36.0403 951.718 36.4502 Q951.513 36.86 950.858 36.86 Q949.833 36.86 949.833 35.7943 Q949.833 35.1795 950.079 34.1957 Q950.776 29.564 950.776 27.4735 Q950.776 26.0799 950.489 25.0551 Q950.243 23.9894 949.833 23.2516 Q949.464 22.5138 948.603 22.0219 Q947.742 21.5301 946.923 21.2431 Q946.103 20.9562 944.627 20.8332 Q943.152 20.6693 941.881 20.6283 Q940.61 20.5873 938.52 20.5873 Q933.97 20.5873 933.232 20.7513 Q932.453 20.9562 932.043 21.571 Q931.675 22.1449 931.265 23.8664 L920.116 68.4218 L919.788 70.1843 Q919.788 71.1681 920.402 71.496 Q921.017 71.8239 922.903 72.0288 Q925.608 72.2338 928.272 72.2338 Q928.354 72.2338 928.518 72.2338 Q929.42 72.2338 929.789 72.2748 Q930.158 72.2748 930.527 72.3568 Q930.896 72.4387 930.978 72.6437 Q931.101 72.8076 931.101 73.1356 Q931.101 73.9144 930.773 74.3242 Q930.445 74.6931 930.117 74.7751 Q929.83 74.8161 929.256 74.8161 Q928.108 74.8161 925.649 74.7341 Q923.19 74.6522 921.96 74.6522 L914.992 74.5702 L907.86 74.6522 Q906.753 74.6522 904.417 74.7341 Q902.08 74.8161 900.974 74.8161 Q899.539 74.8161 899.539 73.7914 Q899.539 72.6437 900.072 72.4387 Q900.646 72.2338 903.064 72.2338 Q906.466 72.2338 908.311 72.0698 Q910.155 71.9059 911.139 71.332 Q912.164 70.7582 912.451 70.1843 Q912.737 69.5695 913.065 68.1759 L924.337 23.3746 Q924.665 22.3908 924.665 21.612 Q924.665 21.2021 924.542 21.0382 Q924.46 20.8742 923.928 20.7513 Q923.395 20.5873 922.288 20.5873 L919.009 20.5873 Q915.648 20.5873 913.557 20.7513 Q911.508 20.8742 909.54 21.4891 Q907.614 22.1039 906.466 22.9647 Q905.359 23.8255 904.13 25.588 Q902.9 27.3505 901.998 29.482 Q901.138 31.6134 899.908 35.0975 Q899.498 36.2452 899.252 36.5731 Q899.047 36.86 898.473 36.86 Q898.063 36.86 897.735 36.6141 Q897.448 36.3272 897.448 35.9583 Q897.858 34.6056 897.94 34.4417 L902.982 19.6445 Q903.392 18.4559 903.761 18.2509 Q904.171 18.005 905.687 18.005 L952.251 18.005 Q952.989 18.005 953.235 18.005 Q953.481 18.005 953.891 18.087 Q954.301 18.1689 954.424 18.3739 Q954.547 18.5788 954.547 18.9067 Z" fill="#000000" fill-rule="evenodd" fill-opacity="1" /><path clip-path="url(#clip620)" d="M969.29 62.0684 Q969.372 61.0437 970.971 61.0437 L1022.41 61.0437 Q1024.83 61.0437 1024.87 61.9865 Q1024.87 63.0112 1022.58 62.9702 L971.545 62.9702 Q969.29 63.0112 969.29 62.0684 M969.29 45.6727 Q969.29 44.648 971.053 44.689 L1022.33 44.689 Q1024.83 44.689 1024.87 45.6727 Q1024.87 46.6155 1022.74 46.6155 L970.971 46.6155 Q969.29 46.6155 969.29 45.6727 Z" fill="#000000" fill-rule="evenodd" fill-opacity="1" /><path clip-path="url(#clip620)" d="M1057.25 47.9681 Q1057.25 35.6304 1060.36 28.9081 Q1064.71 18.9067 1074.96 18.9067 Q1077.13 18.9067 1079.38 19.5216 Q1081.68 20.0954 1084.55 22.3498 Q1087.46 24.6042 1089.22 28.2933 Q1092.58 35.4254 1092.58 47.9681 Q1092.58 60.2239 1089.47 66.9052 Q1084.92 76.6606 1074.87 76.6606 Q1071.1 76.6606 1067.25 74.7341 Q1063.44 72.8076 1061.02 68.1759 Q1057.25 61.2487 1057.25 47.9681 M1064.22 46.9434 Q1064.22 59.6091 1065.12 64.6508 Q1066.14 70.1023 1068.93 72.4797 Q1071.76 74.8161 1074.87 74.8161 Q1078.24 74.8161 1081.02 72.3158 Q1083.85 69.7744 1084.71 64.3229 Q1085.65 58.9533 1085.61 46.9434 Q1085.61 35.2615 1084.79 30.5887 Q1083.69 25.1371 1080.74 22.9647 Q1077.83 20.7513 1074.87 20.7513 Q1073.77 20.7513 1072.58 21.0792 Q1071.43 21.4071 1069.75 22.3498 Q1068.07 23.2926 1066.76 25.629 Q1065.49 27.9654 1064.87 31.4904 Q1064.22 36.0403 1064.22 46.9434 Z" fill="#000000" fill-rule="evenodd" fill-opacity="1" /><path clip-path="url(#clip620)" d="M1100.09 73.4635 Q1098.82 72.1108 1098.82 70.3483 Q1098.82 68.5857 1100.09 67.3151 Q1101.36 66.0034 1103.29 66.0034 Q1105.13 66.0034 1106.36 67.2331 Q1107.63 68.4218 1107.63 70.3893 Q1107.63 72.3158 1106.28 73.5864 Q1104.97 74.8161 1103.29 74.8161 Q1101.36 74.8161 1100.09 73.4635 Z" fill="#000000" fill-rule="evenodd" fill-opacity="1" /><path clip-path="url(#clip620)" d="M1121.92 47.9681 Q1121.92 35.6304 1125.03 28.9081 Q1129.38 18.9067 1139.62 18.9067 Q1141.8 18.9067 1144.05 19.5216 Q1146.35 20.0954 1149.21 22.3498 Q1152.13 24.6042 1153.89 28.2933 Q1157.25 35.4254 1157.25 47.9681 Q1157.25 60.2239 1154.13 66.9052 Q1149.58 76.6606 1139.54 76.6606 Q1135.77 76.6606 1131.92 74.7341 Q1128.11 72.8076 1125.69 68.1759 Q1121.92 61.2487 1121.92 47.9681 M1128.88 46.9434 Q1128.88 59.6091 1129.79 64.6508 Q1130.81 70.1023 1133.6 72.4797 Q1136.43 74.8161 1139.54 74.8161 Q1142.9 74.8161 1145.69 72.3158 Q1148.52 69.7744 1149.38 64.3229 Q1150.32 58.9533 1150.28 46.9434 Q1150.28 35.2615 1149.46 30.5887 Q1148.35 25.1371 1145.4 22.9647 Q1142.49 20.7513 1139.54 20.7513 Q1138.43 20.7513 1137.25 21.0792 Q1136.1 21.4071 1134.42 22.3498 Q1132.74 23.2926 1131.43 25.629 Q1130.15 27.9654 1129.54 31.4904 Q1128.88 36.0403 1128.88 46.9434 Z" fill="#000000" fill-rule="evenodd" fill-opacity="1" /><path clip-path="url(#clip620)" d="M1163.82 61.2897 Q1163.82 58.7893 1165.17 57.8466 Q1166.53 56.8628 1167.96 56.8628 Q1169.89 56.8628 1170.99 58.0925 Q1172.14 59.2812 1172.14 60.9617 Q1172.14 62.6423 1170.99 63.872 Q1169.89 65.0607 1167.96 65.0607 Q1167.02 65.0607 1166.53 64.8967 Q1167.63 68.7497 1170.99 71.537 Q1174.4 74.3242 1178.86 74.3242 Q1184.48 74.3242 1187.84 68.8727 Q1189.85 65.3476 1189.85 57.3547 Q1189.85 50.3045 1188.33 46.7794 Q1186 41.4099 1181.2 41.4099 Q1174.4 41.4099 1170.38 47.2713 Q1169.89 48.0091 1169.31 48.0501 Q1168.49 48.0501 1168.29 47.5992 Q1168.12 47.1074 1168.12 45.8367 L1168.12 20.9972 Q1168.12 18.9887 1168.94 18.9887 Q1169.27 18.9887 1169.97 19.2347 Q1175.26 21.571 1181.12 21.612 Q1187.14 21.612 1192.55 19.1527 Q1192.96 18.9067 1193.21 18.9067 Q1194.03 18.9067 1194.07 19.8495 Q1194.07 20.1774 1193.37 21.1611 Q1192.72 22.1039 1191.28 23.3746 Q1189.85 24.6042 1188 25.7929 Q1186.16 26.9816 1183.45 27.8014 Q1180.79 28.5802 1177.84 28.5802 Q1174.31 28.5802 1170.71 27.4735 L1170.71 43.8282 Q1175.05 39.5653 1181.36 39.5653 Q1188.09 39.5653 1192.72 44.9759 Q1197.35 50.3865 1197.35 57.9285 Q1197.35 65.8395 1191.86 71.25 Q1186.41 76.6606 1179.03 76.6606 Q1172.31 76.6606 1168.04 71.8649 Q1163.82 67.0691 1163.82 61.2897 Z" fill="#000000" fill-rule="evenodd" fill-opacity="1" /><polyline clip-path="url(#clip623)" style="stroke:#009af9; stroke-linecap:butt; stroke-linejoin:round; stroke-width:4; stroke-opacity:1; fill:none" points="
  276.687,453.142 307.96,452.952 743.38,442.251 817.955,428.576 846.822,412.48 862.86,392.191 872.482,368.258 878.897,340.114 883.709,305.161 886.916,269.438 
  889.322,232.417 890.926,202.705 891.728,187.782 892.529,175.446 893.331,170.863 894.133,184.971 894.935,238.528 895.737,360.591 896.539,552.836 897.341,674.899 
  898.143,728.457 898.944,742.564 899.746,737.981 900.548,725.645 901.35,710.722 902.954,681.01 905.359,643.989 908.567,608.266 913.378,573.313 919.793,545.17 
  929.416,521.236 945.453,500.947 974.321,484.851 1048.9,471.176 1484.32,460.475 1515.59,460.285 
  "/>
<circle clip-path="url(#clip623)" cx="276.687" cy="453.142" r="14" fill="#009af9" fill-rule="evenodd" fill-opacity="1" stroke="#000000" stroke-opacity="1" stroke-width="3.2"/>
<circle clip-path="url(#clip623)" cx="307.96" cy="452.952" r="14" fill="#009af9" fill-rule="evenodd" fill-opacity="1" stroke="#000000" stroke-opacity="1" stroke-width="3.2"/>
<circle clip-path="url(#clip623)" cx="743.38" cy="442.251" r="14" fill="#009af9" fill-rule="evenodd" fill-opacity="1" stroke="#000000" stroke-opacity="1" stroke-width="3.2"/>
<circle clip-path="url(#clip623)" cx="817.955" cy="428.576" r="14" fill="#009af9" fill-rule="evenodd" fill-opacity="1" stroke="#000000" stroke-opacity="1" stroke-width="3.2"/>
<circle clip-path="url(#clip623)" cx="846.822" cy="412.48" r="14" fill="#009af9" fill-rule="evenodd" fill-opacity="1" stroke="#000000" stroke-opacity="1" stroke-width="3.2"/>
<circle clip-path="url(#clip623)" cx="862.86" cy="392.191" r="14" fill="#009af9" fill-rule="evenodd" fill-opacity="1" stroke="#000000" stroke-opacity="1" stroke-width="3.2"/>
<circle clip-path="url(#clip623)" cx="872.482" cy="368.258" r="14" fill="#009af9" fill-rule="evenodd" fill-opacity="1" stroke="#000000" stroke-opacity="1" stroke-width="3.2"/>
<circle clip-path="url(#clip623)" cx="878.897" cy="340.114" r="14" fill="#009af9" fill-rule="evenodd" fill-opacity="1" stroke="#000000" stroke-opacity="1" stroke-width="3.2"/>
<circle clip-path="url(#clip623)" cx="883.709" cy="305.161" r="14" fill="#009af9" fill-rule="evenodd" fill-opacity="1" stroke="#000000" stroke-opacity="1" stroke-width="3.2"/>
<circle clip-path="url(#clip623)" cx="886.916" cy="269.438" r="14" fill="#009af9" fill-rule="evenodd" fill-opacity="1" stroke="#000000" stroke-opacity="1" stroke-width="3.2"/>
<circle clip-path="url(#clip623)" cx="889.322" cy="232.417" r="14" fill="#009af9" fill-rule="evenodd" fill-opacity="1" stroke="#000000" stroke-opacity="1" stroke-width="3.2"/>
<circle clip-path="url(#clip623)" cx="890.926" cy="202.705" r="14" fill="#009af9" fill-rule="evenodd" fill-opacity="1" stroke="#000000" stroke-opacity="1" stroke-width="3.2"/>
<circle clip-path="url(#clip623)" cx="891.728" cy="187.782" r="14" fill="#009af9" fill-rule="evenodd" fill-opacity="1" stroke="#000000" stroke-opacity="1" stroke-width="3.2"/>
<circle clip-path="url(#clip623)" cx="892.529" cy="175.446" r="14" fill="#009af9" fill-rule="evenodd" fill-opacity="1" stroke="#000000" stroke-opacity="1" stroke-width="3.2"/>
<circle clip-path="url(#clip623)" cx="893.331" cy="170.863" r="14" fill="#009af9" fill-rule="evenodd" fill-opacity="1" stroke="#000000" stroke-opacity="1" stroke-width="3.2"/>
<circle clip-path="url(#clip623)" cx="894.133" cy="184.971" r="14" fill="#009af9" fill-rule="evenodd" fill-opacity="1" stroke="#000000" stroke-opacity="1" stroke-width="3.2"/>
<circle clip-path="url(#clip623)" cx="894.935" cy="238.528" r="14" fill="#009af9" fill-rule="evenodd" fill-opacity="1" stroke="#000000" stroke-opacity="1" stroke-width="3.2"/>
<circle clip-path="url(#clip623)" cx="895.737" cy="360.591" r="14" fill="#009af9" fill-rule="evenodd" fill-opacity="1" stroke="#000000" stroke-opacity="1" stroke-width="3.2"/>
<circle clip-path="url(#clip623)" cx="896.539" cy="552.836" r="14" fill="#009af9" fill-rule="evenodd" fill-opacity="1" stroke="#000000" stroke-opacity="1" stroke-width="3.2"/>
<circle clip-path="url(#clip623)" cx="897.341" cy="674.899" r="14" fill="#009af9" fill-rule="evenodd" fill-opacity="1" stroke="#000000" stroke-opacity="1" stroke-width="3.2"/>
<circle clip-path="url(#clip623)" cx="898.143" cy="728.457" r="14" fill="#009af9" fill-rule="evenodd" fill-opacity="1" stroke="#000000" stroke-opacity="1" stroke-width="3.2"/>
<circle clip-path="url(#clip623)" cx="898.944" cy="742.564" r="14" fill="#009af9" fill-rule="evenodd" fill-opacity="1" stroke="#000000" stroke-opacity="1" stroke-width="3.2"/>
<circle clip-path="url(#clip623)" cx="899.746" cy="737.981" r="14" fill="#009af9" fill-rule="evenodd" fill-opacity="1" stroke="#000000" stroke-opacity="1" stroke-width="3.2"/>
<circle clip-path="url(#clip623)" cx="900.548" cy="725.645" r="14" fill="#009af9" fill-rule="evenodd" fill-opacity="1" stroke="#000000" stroke-opacity="1" stroke-width="3.2"/>
<circle clip-path="url(#clip623)" cx="901.35" cy="710.722" r="14" fill="#009af9" fill-rule="evenodd" fill-opacity="1" stroke="#000000" stroke-opacity="1" stroke-width="3.2"/>
<circle clip-path="url(#clip623)" cx="902.954" cy="681.01" r="14" fill="#009af9" fill-rule="evenodd" fill-opacity="1" stroke="#000000" stroke-opacity="1" stroke-width="3.2"/>
<circle clip-path="url(#clip623)" cx="905.359" cy="643.989" r="14" fill="#009af9" fill-rule="evenodd" fill-opacity="1" stroke="#000000" stroke-opacity="1" stroke-width="3.2"/>
<circle clip-path="url(#clip623)" cx="908.567" cy="608.266" r="14" fill="#009af9" fill-rule="evenodd" fill-opacity="1" stroke="#000000" stroke-opacity="1" stroke-width="3.2"/>
<circle clip-path="url(#clip623)" cx="913.378" cy="573.313" r="14" fill="#009af9" fill-rule="evenodd" fill-opacity="1" stroke="#000000" stroke-opacity="1" stroke-width="3.2"/>
<circle clip-path="url(#clip623)" cx="919.793" cy="545.17" r="14" fill="#009af9" fill-rule="evenodd" fill-opacity="1" stroke="#000000" stroke-opacity="1" stroke-width="3.2"/>
<circle clip-path="url(#clip623)" cx="929.416" cy="521.236" r="14" fill="#009af9" fill-rule="evenodd" fill-opacity="1" stroke="#000000" stroke-opacity="1" stroke-width="3.2"/>
<circle clip-path="url(#clip623)" cx="945.453" cy="500.947" r="14" fill="#009af9" fill-rule="evenodd" fill-opacity="1" stroke="#000000" stroke-opacity="1" stroke-width="3.2"/>
<circle clip-path="url(#clip623)" cx="974.321" cy="484.851" r="14" fill="#009af9" fill-rule="evenodd" fill-opacity="1" stroke="#000000" stroke-opacity="1" stroke-width="3.2"/>
<circle clip-path="url(#clip623)" cx="1048.9" cy="471.176" r="14" fill="#009af9" fill-rule="evenodd" fill-opacity="1" stroke="#000000" stroke-opacity="1" stroke-width="3.2"/>
<circle clip-path="url(#clip623)" cx="1484.32" cy="460.475" r="14" fill="#009af9" fill-rule="evenodd" fill-opacity="1" stroke="#000000" stroke-opacity="1" stroke-width="3.2"/>
<circle clip-path="url(#clip623)" cx="1515.59" cy="460.285" r="14" fill="#009af9" fill-rule="evenodd" fill-opacity="1" stroke="#000000" stroke-opacity="1" stroke-width="3.2"/>
<path clip-path="url(#clip620)" d="
M239.52 1759.72 L1552.76 1759.72 L1552.76 1153.71 L239.52 1153.71  Z
  " fill="#ffffff" fill-rule="evenodd" fill-opacity="1"/>
<defs>
  <clipPath id="clip624">
    <rect x="239" y="1153" width="1314" height="607"/>
  </clipPath>
</defs>
<polyline clip-path="url(#clip624)" style="stroke:#000000; stroke-linecap:butt; stroke-linejoin:round; stroke-width:2; stroke-opacity:0.1; fill:none" points="
  258.023,1759.72 258.023,1153.71 
  "/>
<polyline clip-path="url(#clip624)" style="stroke:#000000; stroke-linecap:butt; stroke-linejoin:round; stroke-width:2; stroke-opacity:0.1; fill:none" points="
  577.081,1759.72 577.081,1153.71 
  "/>
<polyline clip-path="url(#clip624)" style="stroke:#000000; stroke-linecap:butt; stroke-linejoin:round; stroke-width:2; stroke-opacity:0.1; fill:none" points="
  896.138,1759.72 896.138,1153.71 
  "/>
<polyline clip-path="url(#clip624)" style="stroke:#000000; stroke-linecap:butt; stroke-linejoin:round; stroke-width:2; stroke-opacity:0.1; fill:none" points="
  1215.2,1759.72 1215.2,1153.71 
  "/>
<polyline clip-path="url(#clip624)" style="stroke:#000000; stroke-linecap:butt; stroke-linejoin:round; stroke-width:2; stroke-opacity:0.1; fill:none" points="
  1534.25,1759.72 1534.25,1153.71 
  "/>
<polyline clip-path="url(#clip620)" style="stroke:#000000; stroke-linecap:butt; stroke-linejoin:round; stroke-width:4; stroke-opacity:1; fill:none" points="
  239.52,1759.72 1552.76,1759.72 
  "/>
<polyline clip-path="url(#clip620)" style="stroke:#000000; stroke-linecap:butt; stroke-linejoin:round; stroke-width:4; stroke-opacity:1; fill:none" points="
  258.023,1759.72 258.023,1740.82 
  "/>
<polyline clip-path="url(#clip620)" style="stroke:#000000; stroke-linecap:butt; stroke-linejoin:round; stroke-width:4; stroke-opacity:1; fill:none" points="
  577.081,1759.72 577.081,1740.82 
  "/>
<polyline clip-path="url(#clip620)" style="stroke:#000000; stroke-linecap:butt; stroke-linejoin:round; stroke-width:4; stroke-opacity:1; fill:none" points="
  896.138,1759.72 896.138,1740.82 
  "/>
<polyline clip-path="url(#clip620)" style="stroke:#000000; stroke-linecap:butt; stroke-linejoin:round; stroke-width:4; stroke-opacity:1; fill:none" points="
  1215.2,1759.72 1215.2,1740.82 
  "/>
<polyline clip-path="url(#clip620)" style="stroke:#000000; stroke-linecap:butt; stroke-linejoin:round; stroke-width:4; stroke-opacity:1; fill:none" points="
  1534.25,1759.72 1534.25,1740.82 
  "/>
<path clip-path="url(#clip620)" d="M145.444 1817.75 L175.12 1817.75 L175.12 1821.68 L145.444 1821.68 L145.444 1817.75 Z" fill="#000000" fill-rule="evenodd" fill-opacity="1" /><path clip-path="url(#clip620)" d="M186.023 1830.64 L193.662 1830.64 L193.662 1804.27 L185.352 1805.94 L185.352 1801.68 L193.615 1800.02 L198.291 1800.02 L198.291 1830.64 L205.93 1830.64 L205.93 1834.58 L186.023 1834.58 L186.023 1830.64 Z" fill="#000000" fill-rule="evenodd" fill-opacity="1" /><path clip-path="url(#clip620)" d="M215.375 1828.7 L220.259 1828.7 L220.259 1834.58 L215.375 1834.58 L215.375 1828.7 Z" fill="#000000" fill-rule="evenodd" fill-opacity="1" /><path clip-path="url(#clip620)" d="M240.444 1803.09 Q236.833 1803.09 235.004 1806.66 Q233.199 1810.2 233.199 1817.33 Q233.199 1824.44 235.004 1828 Q236.833 1831.54 240.444 1831.54 Q244.078 1831.54 245.884 1828 Q247.712 1824.44 247.712 1817.33 Q247.712 1810.2 245.884 1806.66 Q244.078 1803.09 240.444 1803.09 M240.444 1799.39 Q246.254 1799.39 249.31 1804 Q252.388 1808.58 252.388 1817.33 Q252.388 1826.06 249.31 1830.66 Q246.254 1835.25 240.444 1835.25 Q234.634 1835.25 231.555 1830.66 Q228.499 1826.06 228.499 1817.33 Q228.499 1808.58 231.555 1804 Q234.634 1799.39 240.444 1799.39 Z" fill="#000000" fill-rule="evenodd" fill-opacity="1" /><path clip-path="url(#clip620)" d="M288.777 1809.11 L278.198 1819.74 L288.777 1830.32 L286.022 1833.12 L275.397 1822.49 L264.772 1833.12 L262.041 1830.32 L272.596 1819.74 L262.041 1809.11 L264.772 1806.31 L275.397 1816.94 L286.022 1806.31 L288.777 1809.11 Z" fill="#000000" fill-rule="evenodd" fill-opacity="1" /><path clip-path="url(#clip620)" d="M301.138 1830.64 L308.777 1830.64 L308.777 1804.27 L300.467 1805.94 L300.467 1801.68 L308.731 1800.02 L313.406 1800.02 L313.406 1830.64 L321.045 1830.64 L321.045 1834.58 L301.138 1834.58 L301.138 1830.64 Z" fill="#000000" fill-rule="evenodd" fill-opacity="1" /><path clip-path="url(#clip620)" d="M340.49 1803.09 Q336.879 1803.09 335.05 1806.66 Q333.244 1810.2 333.244 1817.33 Q333.244 1824.44 335.05 1828 Q336.879 1831.54 340.49 1831.54 Q344.124 1831.54 345.929 1828 Q347.758 1824.44 347.758 1817.33 Q347.758 1810.2 345.929 1806.66 Q344.124 1803.09 340.49 1803.09 M340.49 1799.39 Q346.3 1799.39 349.355 1804 Q352.434 1808.58 352.434 1817.33 Q352.434 1826.06 349.355 1830.66 Q346.3 1835.25 340.49 1835.25 Q334.679 1835.25 331.601 1830.66 Q328.545 1826.06 328.545 1817.33 Q328.545 1808.58 331.601 1804 Q334.679 1799.39 340.49 1799.39 Z" fill="#000000" fill-rule="evenodd" fill-opacity="1" /><path clip-path="url(#clip620)" d="M353.619 1779.08 L368.533 1779.08 L368.533 1782.28 L357.098 1782.28 L357.098 1789.17 Q357.926 1788.88 358.753 1788.75 Q359.581 1788.6 360.408 1788.6 Q365.11 1788.6 367.856 1791.18 Q370.602 1793.75 370.602 1798.16 Q370.602 1802.69 367.781 1805.21 Q364.96 1807.71 359.825 1807.71 Q358.058 1807.71 356.214 1807.41 Q354.39 1807.11 352.434 1806.51 L352.434 1802.69 Q354.127 1803.61 355.932 1804.06 Q357.738 1804.51 359.75 1804.51 Q363.004 1804.51 364.904 1802.8 Q366.803 1801.09 366.803 1798.16 Q366.803 1795.22 364.904 1793.51 Q363.004 1791.8 359.75 1791.8 Q358.227 1791.8 356.703 1792.14 Q355.199 1792.48 353.619 1793.19 L353.619 1779.08 Z" fill="#000000" fill-rule="evenodd" fill-opacity="1" /><path clip-path="url(#clip620)" d="M463.354 1817.75 L493.03 1817.75 L493.03 1821.68 L463.354 1821.68 L463.354 1817.75 Z" fill="#000000" fill-rule="evenodd" fill-opacity="1" /><path clip-path="url(#clip620)" d="M503.169 1800.02 L521.525 1800.02 L521.525 1803.95 L507.451 1803.95 L507.451 1812.42 Q508.47 1812.08 509.488 1811.91 Q510.507 1811.73 511.525 1811.73 Q517.312 1811.73 520.692 1814.9 Q524.072 1818.07 524.072 1823.49 Q524.072 1829.07 520.599 1832.17 Q517.127 1835.25 510.808 1835.25 Q508.632 1835.25 506.363 1834.88 Q504.118 1834.51 501.711 1833.76 L501.711 1829.07 Q503.794 1830.2 506.016 1830.76 Q508.238 1831.31 510.715 1831.31 Q514.72 1831.31 517.058 1829.2 Q519.396 1827.1 519.396 1823.49 Q519.396 1819.88 517.058 1817.77 Q514.72 1815.66 510.715 1815.66 Q508.84 1815.66 506.965 1816.08 Q505.113 1816.5 503.169 1817.38 L503.169 1800.02 Z" fill="#000000" fill-rule="evenodd" fill-opacity="1" /><path clip-path="url(#clip620)" d="M533.285 1828.7 L538.169 1828.7 L538.169 1834.58 L533.285 1834.58 L533.285 1828.7 Z" fill="#000000" fill-rule="evenodd" fill-opacity="1" /><path clip-path="url(#clip620)" d="M558.354 1803.09 Q554.743 1803.09 552.914 1806.66 Q551.109 1810.2 551.109 1817.33 Q551.109 1824.44 552.914 1828 Q554.743 1831.54 558.354 1831.54 Q561.988 1831.54 563.794 1828 Q565.622 1824.44 565.622 1817.33 Q565.622 1810.2 563.794 1806.66 Q561.988 1803.09 558.354 1803.09 M558.354 1799.39 Q564.164 1799.39 567.22 1804 Q570.298 1808.58 570.298 1817.33 Q570.298 1826.06 567.22 1830.66 Q564.164 1835.25 558.354 1835.25 Q552.544 1835.25 549.465 1830.66 Q546.409 1826.06 546.409 1817.33 Q546.409 1808.58 549.465 1804 Q552.544 1799.39 558.354 1799.39 Z" fill="#000000" fill-rule="evenodd" fill-opacity="1" /><path clip-path="url(#clip620)" d="M606.687 1809.11 L596.108 1819.74 L606.687 1830.32 L603.932 1833.12 L593.307 1822.49 L582.682 1833.12 L579.951 1830.32 L590.506 1819.74 L579.951 1809.11 L582.682 1806.31 L593.307 1816.94 L603.932 1806.31 L606.687 1809.11 Z" fill="#000000" fill-rule="evenodd" fill-opacity="1" /><path clip-path="url(#clip620)" d="M619.048 1830.64 L626.687 1830.64 L626.687 1804.27 L618.377 1805.94 L618.377 1801.68 L626.641 1800.02 L631.316 1800.02 L631.316 1830.64 L638.955 1830.64 L638.955 1834.58 L619.048 1834.58 L619.048 1830.64 Z" fill="#000000" fill-rule="evenodd" fill-opacity="1" /><path clip-path="url(#clip620)" d="M658.4 1803.09 Q654.789 1803.09 652.96 1806.66 Q651.154 1810.2 651.154 1817.33 Q651.154 1824.44 652.96 1828 Q654.789 1831.54 658.4 1831.54 Q662.034 1831.54 663.839 1828 Q665.668 1824.44 665.668 1817.33 Q665.668 1810.2 663.839 1806.66 Q662.034 1803.09 658.4 1803.09 M658.4 1799.39 Q664.21 1799.39 667.265 1804 Q670.344 1808.58 670.344 1817.33 Q670.344 1826.06 667.265 1830.66 Q664.21 1835.25 658.4 1835.25 Q652.589 1835.25 649.511 1830.66 Q646.455 1826.06 646.455 1817.33 Q646.455 1808.58 649.511 1804 Q652.589 1799.39 658.4 1799.39 Z" fill="#000000" fill-rule="evenodd" fill-opacity="1" /><path clip-path="url(#clip620)" d="M683.02 1782.39 L673.428 1797.38 L683.02 1797.38 L683.02 1782.39 M682.024 1779.08 L686.801 1779.08 L686.801 1797.38 L690.807 1797.38 L690.807 1800.54 L686.801 1800.54 L686.801 1807.16 L683.02 1807.16 L683.02 1800.54 L670.344 1800.54 L670.344 1796.88 L682.024 1779.08 Z" fill="#000000" fill-rule="evenodd" fill-opacity="1" /><path clip-path="url(#clip620)" d="M896.138 1787.43 Q892.527 1787.43 890.698 1791 Q888.893 1794.54 888.893 1801.67 Q888.893 1808.78 890.698 1812.34 Q892.527 1815.88 896.138 1815.88 Q899.772 1815.88 901.578 1812.34 Q903.406 1808.78 903.406 1801.67 Q903.406 1794.54 901.578 1791 Q899.772 1787.43 896.138 1787.43 M896.138 1783.73 Q901.948 1783.73 905.004 1788.34 Q908.082 1792.92 908.082 1801.67 Q908.082 1810.4 905.004 1815 Q901.948 1819.59 896.138 1819.59 Q890.328 1819.59 887.249 1815 Q884.193 1810.4 884.193 1801.67 Q884.193 1792.92 887.249 1788.34 Q890.328 1783.73 896.138 1783.73 Z" fill="#000000" fill-rule="evenodd" fill-opacity="1" /><path clip-path="url(#clip620)" d="M1122.11 1800.02 L1140.46 1800.02 L1140.46 1803.95 L1126.39 1803.95 L1126.39 1812.42 Q1127.41 1812.08 1128.42 1811.91 Q1129.44 1811.73 1130.46 1811.73 Q1136.25 1811.73 1139.63 1814.9 Q1143.01 1818.07 1143.01 1823.49 Q1143.01 1829.07 1139.54 1832.17 Q1136.06 1835.25 1129.74 1835.25 Q1127.57 1835.25 1125.3 1834.88 Q1123.05 1834.51 1120.65 1833.76 L1120.65 1829.07 Q1122.73 1830.2 1124.95 1830.76 Q1127.17 1831.31 1129.65 1831.31 Q1133.66 1831.31 1135.99 1829.2 Q1138.33 1827.1 1138.33 1823.49 Q1138.33 1819.88 1135.99 1817.77 Q1133.66 1815.66 1129.65 1815.66 Q1127.78 1815.66 1125.9 1816.08 Q1124.05 1816.5 1122.11 1817.38 L1122.11 1800.02 Z" fill="#000000" fill-rule="evenodd" fill-opacity="1" /><path clip-path="url(#clip620)" d="M1152.22 1828.7 L1157.11 1828.7 L1157.11 1834.58 L1152.22 1834.58 L1152.22 1828.7 Z" fill="#000000" fill-rule="evenodd" fill-opacity="1" /><path clip-path="url(#clip620)" d="M1177.29 1803.09 Q1173.68 1803.09 1171.85 1806.66 Q1170.04 1810.2 1170.04 1817.33 Q1170.04 1824.44 1171.85 1828 Q1173.68 1831.54 1177.29 1831.54 Q1180.92 1831.54 1182.73 1828 Q1184.56 1824.44 1184.56 1817.33 Q1184.56 1810.2 1182.73 1806.66 Q1180.92 1803.09 1177.29 1803.09 M1177.29 1799.39 Q1183.1 1799.39 1186.16 1804 Q1189.23 1808.58 1189.23 1817.33 Q1189.23 1826.06 1186.16 1830.66 Q1183.1 1835.25 1177.29 1835.25 Q1171.48 1835.25 1168.4 1830.66 Q1165.35 1826.06 1165.35 1817.33 Q1165.35 1808.58 1168.4 1804 Q1171.48 1799.39 1177.29 1799.39 Z" fill="#000000" fill-rule="evenodd" fill-opacity="1" /><path clip-path="url(#clip620)" d="M1225.62 1809.11 L1215.04 1819.74 L1225.62 1830.32 L1222.87 1833.12 L1212.24 1822.49 L1201.62 1833.12 L1198.89 1830.32 L1209.44 1819.74 L1198.89 1809.11 L1201.62 1806.31 L1212.24 1816.94 L1222.87 1806.31 L1225.62 1809.11 Z" fill="#000000" fill-rule="evenodd" fill-opacity="1" /><path clip-path="url(#clip620)" d="M1237.98 1830.64 L1245.62 1830.64 L1245.62 1804.27 L1237.31 1805.94 L1237.31 1801.68 L1245.58 1800.02 L1250.25 1800.02 L1250.25 1830.64 L1257.89 1830.64 L1257.89 1834.58 L1237.98 1834.58 L1237.98 1830.64 Z" fill="#000000" fill-rule="evenodd" fill-opacity="1" /><path clip-path="url(#clip620)" d="M1277.34 1803.09 Q1273.72 1803.09 1271.9 1806.66 Q1270.09 1810.2 1270.09 1817.33 Q1270.09 1824.44 1271.9 1828 Q1273.72 1831.54 1277.34 1831.54 Q1280.97 1831.54 1282.78 1828 Q1284.6 1824.44 1284.6 1817.33 Q1284.6 1810.2 1282.78 1806.66 Q1280.97 1803.09 1277.34 1803.09 M1277.34 1799.39 Q1283.15 1799.39 1286.2 1804 Q1289.28 1808.58 1289.28 1817.33 Q1289.28 1826.06 1286.2 1830.66 Q1283.15 1835.25 1277.34 1835.25 Q1271.53 1835.25 1268.45 1830.66 Q1265.39 1826.06 1265.39 1817.33 Q1265.39 1808.58 1268.45 1804 Q1271.53 1799.39 1277.34 1799.39 Z" fill="#000000" fill-rule="evenodd" fill-opacity="1" /><path clip-path="url(#clip620)" d="M1301.96 1782.39 L1292.36 1797.38 L1301.96 1797.38 L1301.96 1782.39 M1300.96 1779.08 L1305.74 1779.08 L1305.74 1797.38 L1309.74 1797.38 L1309.74 1800.54 L1305.74 1800.54 L1305.74 1807.16 L1301.96 1807.16 L1301.96 1800.54 L1289.28 1800.54 L1289.28 1796.88 L1300.96 1779.08 Z" fill="#000000" fill-rule="evenodd" fill-opacity="1" /><path clip-path="url(#clip620)" d="M1442.3 1830.64 L1449.94 1830.64 L1449.94 1804.27 L1441.63 1805.94 L1441.63 1801.68 L1449.89 1800.02 L1454.57 1800.02 L1454.57 1830.64 L1462.21 1830.64 L1462.21 1834.58 L1442.3 1834.58 L1442.3 1830.64 Z" fill="#000000" fill-rule="evenodd" fill-opacity="1" /><path clip-path="url(#clip620)" d="M1471.65 1828.7 L1476.53 1828.7 L1476.53 1834.58 L1471.65 1834.58 L1471.65 1828.7 Z" fill="#000000" fill-rule="evenodd" fill-opacity="1" /><path clip-path="url(#clip620)" d="M1496.72 1803.09 Q1493.11 1803.09 1491.28 1806.66 Q1489.47 1810.2 1489.47 1817.33 Q1489.47 1824.44 1491.28 1828 Q1493.11 1831.54 1496.72 1831.54 Q1500.35 1831.54 1502.16 1828 Q1503.99 1824.44 1503.99 1817.33 Q1503.99 1810.2 1502.16 1806.66 Q1500.35 1803.09 1496.72 1803.09 M1496.72 1799.39 Q1502.53 1799.39 1505.58 1804 Q1508.66 1808.58 1508.66 1817.33 Q1508.66 1826.06 1505.58 1830.66 Q1502.53 1835.25 1496.72 1835.25 Q1490.91 1835.25 1487.83 1830.66 Q1484.77 1826.06 1484.77 1817.33 Q1484.77 1808.58 1487.83 1804 Q1490.91 1799.39 1496.72 1799.39 Z" fill="#000000" fill-rule="evenodd" fill-opacity="1" /><path clip-path="url(#clip620)" d="M1545.05 1809.11 L1534.47 1819.74 L1545.05 1830.32 L1542.3 1833.12 L1531.67 1822.49 L1521.05 1833.12 L1518.32 1830.32 L1528.87 1819.74 L1518.32 1809.11 L1521.05 1806.31 L1531.67 1816.94 L1542.3 1806.31 L1545.05 1809.11 Z" fill="#000000" fill-rule="evenodd" fill-opacity="1" /><path clip-path="url(#clip620)" d="M1557.41 1830.64 L1565.05 1830.64 L1565.05 1804.27 L1556.74 1805.94 L1556.74 1801.68 L1565.01 1800.02 L1569.68 1800.02 L1569.68 1830.64 L1577.32 1830.64 L1577.32 1834.58 L1557.41 1834.58 L1557.41 1830.64 Z" fill="#000000" fill-rule="evenodd" fill-opacity="1" /><path clip-path="url(#clip620)" d="M1596.77 1803.09 Q1593.15 1803.09 1591.33 1806.66 Q1589.52 1810.2 1589.52 1817.33 Q1589.52 1824.44 1591.33 1828 Q1593.15 1831.54 1596.77 1831.54 Q1600.4 1831.54 1602.2 1828 Q1604.03 1824.44 1604.03 1817.33 Q1604.03 1810.2 1602.2 1806.66 Q1600.4 1803.09 1596.77 1803.09 M1596.77 1799.39 Q1602.58 1799.39 1605.63 1804 Q1608.71 1808.58 1608.71 1817.33 Q1608.71 1826.06 1605.63 1830.66 Q1602.58 1835.25 1596.77 1835.25 Q1590.95 1835.25 1587.88 1830.66 Q1584.82 1826.06 1584.82 1817.33 Q1584.82 1808.58 1587.88 1804 Q1590.95 1799.39 1596.77 1799.39 Z" fill="#000000" fill-rule="evenodd" fill-opacity="1" /><path clip-path="url(#clip620)" d="M1609.89 1779.08 L1624.81 1779.08 L1624.81 1782.28 L1613.37 1782.28 L1613.37 1789.17 Q1614.2 1788.88 1615.03 1788.75 Q1615.86 1788.6 1616.68 1788.6 Q1621.39 1788.6 1624.13 1791.18 Q1626.88 1793.75 1626.88 1798.16 Q1626.88 1802.69 1624.06 1805.21 Q1621.24 1807.71 1616.1 1807.71 Q1614.33 1807.71 1612.49 1807.41 Q1610.67 1807.11 1608.71 1806.51 L1608.71 1802.69 Q1610.4 1803.61 1612.21 1804.06 Q1614.01 1804.51 1616.03 1804.51 Q1619.28 1804.51 1621.18 1802.8 Q1623.08 1801.09 1623.08 1798.16 Q1623.08 1795.22 1621.18 1793.51 Q1619.28 1791.8 1616.03 1791.8 Q1614.5 1791.8 1612.98 1792.14 Q1611.47 1792.48 1609.89 1793.19 L1609.89 1779.08 Z" fill="#000000" fill-rule="evenodd" fill-opacity="1" /><path clip-path="url(#clip620)" d="M911.06 1875.55 Q911.06 1875.84 910.803 1876.84 Q910.577 1877.8 909.836 1879.71 Q909.128 1881.57 908.033 1883.67 Q906.97 1885.73 905.006 1888.34 Q903.041 1890.94 900.593 1893.23 Q895.988 1897.55 891.06 1899.87 Q886.165 1902.18 881.978 1902.93 L881.044 1902.93 Q880.014 1902.93 880.014 1902.12 L880.722 1899.16 L884.748 1883.02 Q886.004 1878.09 886.004 1877.68 Q886.004 1877.29 885.843 1877.1 Q885.714 1876.87 884.941 1876.71 Q884.201 1876.55 882.719 1876.55 Q882.107 1876.55 881.817 1876.52 Q881.56 1876.48 881.334 1876.32 Q881.109 1876.13 881.109 1875.74 Q881.109 1875.2 881.334 1874.91 Q881.592 1874.58 881.785 1874.52 Q881.978 1874.46 882.365 1874.42 Q882.912 1874.39 884.748 1874.23 Q886.584 1874.04 888.162 1873.91 Q889.74 1873.78 890.416 1873.78 Q890.803 1873.78 891.028 1873.97 Q891.254 1874.13 891.254 1874.33 L891.286 1874.49 L884.812 1900.74 Q887.196 1899.96 889.547 1898.67 Q891.93 1897.39 894.506 1895.26 Q897.083 1893.1 899.273 1890.43 Q901.463 1887.76 903.395 1884.02 Q905.36 1880.25 906.584 1875.94 Q906.809 1875.07 907.357 1874.55 Q907.936 1874.04 908.355 1873.91 Q908.774 1873.78 909.16 1873.78 Q910.03 1873.78 910.545 1874.26 Q911.06 1874.71 911.06 1875.55 Z" fill="#000000" fill-rule="evenodd" fill-opacity="1" /><polyline clip-path="url(#clip624)" style="stroke:#000000; stroke-linecap:butt; stroke-linejoin:round; stroke-width:2; stroke-opacity:0.1; fill:none" points="
  239.52,1708.16 1552.76,1708.16 
  "/>
<polyline clip-path="url(#clip624)" style="stroke:#000000; stroke-linecap:butt; stroke-linejoin:round; stroke-width:2; stroke-opacity:0.1; fill:none" points="
  239.52,1582.44 1552.76,1582.44 
  "/>
<polyline clip-path="url(#clip624)" style="stroke:#000000; stroke-linecap:butt; stroke-linejoin:round; stroke-width:2; stroke-opacity:0.1; fill:none" points="
  239.52,1456.71 1552.76,1456.71 
  "/>
<polyline clip-path="url(#clip624)" style="stroke:#000000; stroke-linecap:butt; stroke-linejoin:round; stroke-width:2; stroke-opacity:0.1; fill:none" points="
  239.52,1330.99 1552.76,1330.99 
  "/>
<polyline clip-path="url(#clip624)" style="stroke:#000000; stroke-linecap:butt; stroke-linejoin:round; stroke-width:2; stroke-opacity:0.1; fill:none" points="
  239.52,1205.27 1552.76,1205.27 
  "/>
<polyline clip-path="url(#clip620)" style="stroke:#000000; stroke-linecap:butt; stroke-linejoin:round; stroke-width:4; stroke-opacity:1; fill:none" points="
  239.52,1759.72 239.52,1153.71 
  "/>
<polyline clip-path="url(#clip620)" style="stroke:#000000; stroke-linecap:butt; stroke-linejoin:round; stroke-width:4; stroke-opacity:1; fill:none" points="
  239.52,1708.16 258.417,1708.16 
  "/>
<polyline clip-path="url(#clip620)" style="stroke:#000000; stroke-linecap:butt; stroke-linejoin:round; stroke-width:4; stroke-opacity:1; fill:none" points="
  239.52,1582.44 258.417,1582.44 
  "/>
<polyline clip-path="url(#clip620)" style="stroke:#000000; stroke-linecap:butt; stroke-linejoin:round; stroke-width:4; stroke-opacity:1; fill:none" points="
  239.52,1456.71 258.417,1456.71 
  "/>
<polyline clip-path="url(#clip620)" style="stroke:#000000; stroke-linecap:butt; stroke-linejoin:round; stroke-width:4; stroke-opacity:1; fill:none" points="
  239.52,1330.99 258.417,1330.99 
  "/>
<polyline clip-path="url(#clip620)" style="stroke:#000000; stroke-linecap:butt; stroke-linejoin:round; stroke-width:4; stroke-opacity:1; fill:none" points="
  239.52,1205.27 258.417,1205.27 
  "/>
<path clip-path="url(#clip620)" d="M117.645 1708.61 L147.321 1708.61 L147.321 1712.54 L117.645 1712.54 L117.645 1708.61 Z" fill="#000000" fill-rule="evenodd" fill-opacity="1" /><path clip-path="url(#clip620)" d="M170.261 1694.95 L158.455 1713.4 L170.261 1713.4 L170.261 1694.95 M169.034 1690.88 L174.913 1690.88 L174.913 1713.4 L179.844 1713.4 L179.844 1717.29 L174.913 1717.29 L174.913 1725.44 L170.261 1725.44 L170.261 1717.29 L154.659 1717.29 L154.659 1712.78 L169.034 1690.88 Z" fill="#000000" fill-rule="evenodd" fill-opacity="1" /><path clip-path="url(#clip620)" d="M197.575 1693.96 Q193.964 1693.96 192.136 1697.52 Q190.33 1701.06 190.33 1708.19 Q190.33 1715.3 192.136 1718.86 Q193.964 1722.41 197.575 1722.41 Q201.21 1722.41 203.015 1718.86 Q204.844 1715.3 204.844 1708.19 Q204.844 1701.06 203.015 1697.52 Q201.21 1693.96 197.575 1693.96 M197.575 1690.25 Q203.386 1690.25 206.441 1694.86 Q209.52 1699.44 209.52 1708.19 Q209.52 1716.92 206.441 1721.53 Q203.386 1726.11 197.575 1726.11 Q191.765 1726.11 188.687 1721.53 Q185.631 1716.92 185.631 1708.19 Q185.631 1699.44 188.687 1694.86 Q191.765 1690.25 197.575 1690.25 Z" fill="#000000" fill-rule="evenodd" fill-opacity="1" /><path clip-path="url(#clip620)" d="M117.645 1582.89 L147.321 1582.89 L147.321 1586.82 L117.645 1586.82 L117.645 1582.89 Z" fill="#000000" fill-rule="evenodd" fill-opacity="1" /><path clip-path="url(#clip620)" d="M161.441 1595.78 L177.761 1595.78 L177.761 1599.72 L155.816 1599.72 L155.816 1595.78 Q158.478 1593.03 163.062 1588.4 Q167.668 1583.74 168.849 1582.4 Q171.094 1579.88 171.974 1578.14 Q172.876 1576.38 172.876 1574.69 Q172.876 1571.94 170.932 1570.2 Q169.011 1568.47 165.909 1568.47 Q163.71 1568.47 161.256 1569.23 Q158.826 1569.99 156.048 1571.54 L156.048 1566.82 Q158.872 1565.69 161.326 1565.11 Q163.779 1564.53 165.816 1564.53 Q171.187 1564.53 174.381 1567.22 Q177.575 1569.9 177.575 1574.39 Q177.575 1576.52 176.765 1578.44 Q175.978 1580.34 173.872 1582.93 Q173.293 1583.6 170.191 1586.82 Q167.089 1590.02 161.441 1595.78 Z" fill="#000000" fill-rule="evenodd" fill-opacity="1" /><path clip-path="url(#clip620)" d="M197.575 1568.23 Q193.964 1568.23 192.136 1571.8 Q190.33 1575.34 190.33 1582.47 Q190.33 1589.58 192.136 1593.14 Q193.964 1596.68 197.575 1596.68 Q201.21 1596.68 203.015 1593.14 Q204.844 1589.58 204.844 1582.47 Q204.844 1575.34 203.015 1571.8 Q201.21 1568.23 197.575 1568.23 M197.575 1564.53 Q203.386 1564.53 206.441 1569.14 Q209.52 1573.72 209.52 1582.47 Q209.52 1591.2 206.441 1595.8 Q203.386 1600.39 197.575 1600.39 Q191.765 1600.39 188.687 1595.8 Q185.631 1591.2 185.631 1582.47 Q185.631 1573.72 188.687 1569.14 Q191.765 1564.53 197.575 1564.53 Z" fill="#000000" fill-rule="evenodd" fill-opacity="1" /><path clip-path="url(#clip620)" d="M197.575 1442.51 Q193.964 1442.51 192.136 1446.08 Q190.33 1449.62 190.33 1456.75 Q190.33 1463.85 192.136 1467.42 Q193.964 1470.96 197.575 1470.96 Q201.21 1470.96 203.015 1467.42 Q204.844 1463.85 204.844 1456.75 Q204.844 1449.62 203.015 1446.08 Q201.21 1442.51 197.575 1442.51 M197.575 1438.81 Q203.386 1438.81 206.441 1443.42 Q209.52 1448 209.52 1456.75 Q209.52 1465.48 206.441 1470.08 Q203.386 1474.66 197.575 1474.66 Q191.765 1474.66 188.687 1470.08 Q185.631 1465.48 185.631 1456.75 Q185.631 1448 188.687 1443.42 Q191.765 1438.81 197.575 1438.81 Z" fill="#000000" fill-rule="evenodd" fill-opacity="1" /><path clip-path="url(#clip620)" d="M161.441 1344.34 L177.761 1344.34 L177.761 1348.27 L155.816 1348.27 L155.816 1344.34 Q158.478 1341.58 163.062 1336.95 Q167.668 1332.3 168.849 1330.96 Q171.094 1328.43 171.974 1326.7 Q172.876 1324.94 172.876 1323.25 Q172.876 1320.49 170.932 1318.76 Q169.011 1317.02 165.909 1317.02 Q163.71 1317.02 161.256 1317.79 Q158.826 1318.55 156.048 1320.1 L156.048 1315.38 Q158.872 1314.24 161.326 1313.66 Q163.779 1313.09 165.816 1313.09 Q171.187 1313.09 174.381 1315.77 Q177.575 1318.46 177.575 1322.95 Q177.575 1325.08 176.765 1327 Q175.978 1328.9 173.872 1331.49 Q173.293 1332.16 170.191 1335.38 Q167.089 1338.57 161.441 1344.34 Z" fill="#000000" fill-rule="evenodd" fill-opacity="1" /><path clip-path="url(#clip620)" d="M197.575 1316.79 Q193.964 1316.79 192.136 1320.35 Q190.33 1323.9 190.33 1331.03 Q190.33 1338.13 192.136 1341.7 Q193.964 1345.24 197.575 1345.24 Q201.21 1345.24 203.015 1341.7 Q204.844 1338.13 204.844 1331.03 Q204.844 1323.9 203.015 1320.35 Q201.21 1316.79 197.575 1316.79 M197.575 1313.09 Q203.386 1313.09 206.441 1317.69 Q209.52 1322.28 209.52 1331.03 Q209.52 1339.75 206.441 1344.36 Q203.386 1348.94 197.575 1348.94 Q191.765 1348.94 188.687 1344.36 Q185.631 1339.75 185.631 1331.03 Q185.631 1322.28 188.687 1317.69 Q191.765 1313.09 197.575 1313.09 Z" fill="#000000" fill-rule="evenodd" fill-opacity="1" /><path clip-path="url(#clip620)" d="M170.261 1192.06 L158.455 1210.51 L170.261 1210.51 L170.261 1192.06 M169.034 1187.99 L174.913 1187.99 L174.913 1210.51 L179.844 1210.51 L179.844 1214.4 L174.913 1214.4 L174.913 1222.55 L170.261 1222.55 L170.261 1214.4 L154.659 1214.4 L154.659 1209.89 L169.034 1187.99 Z" fill="#000000" fill-rule="evenodd" fill-opacity="1" /><path clip-path="url(#clip620)" d="M197.575 1191.07 Q193.964 1191.07 192.136 1194.63 Q190.33 1198.17 190.33 1205.3 Q190.33 1212.41 192.136 1215.97 Q193.964 1219.52 197.575 1219.52 Q201.21 1219.52 203.015 1215.97 Q204.844 1212.41 204.844 1205.3 Q204.844 1198.17 203.015 1194.63 Q201.21 1191.07 197.575 1191.07 M197.575 1187.36 Q203.386 1187.36 206.441 1191.97 Q209.52 1196.55 209.52 1205.3 Q209.52 1214.03 206.441 1218.64 Q203.386 1223.22 197.575 1223.22 Q191.765 1223.22 188.687 1218.64 Q185.631 1214.03 185.631 1205.3 Q185.631 1196.55 188.687 1191.97 Q191.765 1187.36 197.575 1187.36 Z" fill="#000000" fill-rule="evenodd" fill-opacity="1" /><path clip-path="url(#clip620)" d="M75.4679 1585.07 L73.4389 1585.07 L73.4389 1583.33 Q73.4389 1579.63 72.8592 1578.79 Q72.2473 1577.92 70.315 1577.92 L35.5648 1577.92 Q33.6647 1577.92 33.085 1578.79 Q32.4731 1579.66 32.4731 1583.33 L32.4731 1585.07 L30.4119 1585.07 Q30.6051 1582.75 30.6051 1574.96 Q30.6051 1567.23 30.4119 1564.94 L32.4731 1564.94 L32.4731 1566.65 Q32.4731 1570.35 33.085 1571.22 Q33.6647 1572.06 35.5648 1572.06 L70.315 1572.06 Q72.2151 1572.06 72.827 1571.22 Q73.4389 1570.35 73.4389 1566.65 L73.4389 1564.94 L75.4679 1564.94 Q75.2747 1567.26 75.2747 1575.02 Q75.2747 1582.75 75.4679 1585.07 Z" fill="#000000" fill-rule="evenodd" fill-opacity="1" /><path clip-path="url(#clip620)" d="M75.4679 1556.22 L73.4389 1556.22 Q73.4389 1552.71 73.0202 1551.9 Q72.5694 1551.1 70.4438 1551.1 L52.7628 1551.1 Q50.3151 1551.1 49.7032 1551.97 Q49.0913 1552.81 49.0913 1556.22 L47.0301 1556.22 L46.3216 1546.94 L53.2458 1546.94 Q46.3216 1543.85 46.3216 1537.19 Q46.3216 1529.46 52.7628 1528.39 Q50.2507 1527.27 48.2861 1524.92 Q46.3216 1522.53 46.3216 1518.83 Q46.3216 1513.87 48.7692 1511.9 Q50.4117 1510.46 52.2475 1510.17 Q54.0832 1509.88 58.8497 1509.88 L71.4422 1509.88 Q72.827 1509.81 73.1491 1508.75 Q73.4389 1507.69 73.4389 1504.72 L75.4679 1504.72 Q75.2747 1511.45 75.2747 1512.1 Q75.2747 1512.61 75.4679 1519.57 L73.4389 1519.57 Q73.4389 1516.06 73.0202 1515.25 Q72.5694 1514.42 70.4438 1514.42 L55.0816 1514.42 Q51.7322 1514.42 49.7676 1515.45 Q47.7709 1516.48 47.7709 1519.31 Q47.7709 1522.73 50.6372 1525.46 Q53.5035 1528.2 58.3344 1528.2 L70.4438 1528.2 Q72.5694 1528.2 73.0202 1527.4 Q73.4389 1526.56 73.4389 1523.05 L75.4679 1523.05 Q75.2747 1529.78 75.2747 1530.46 Q75.2747 1530.97 75.4679 1537.89 L73.4389 1537.89 Q73.4389 1534.38 73.0202 1533.58 Q72.5694 1532.74 70.4438 1532.74 L55.0816 1532.74 Q51.7322 1532.74 49.7676 1533.77 Q47.7709 1534.8 47.7709 1537.64 Q47.7709 1541.05 50.6372 1543.79 Q53.5035 1546.53 58.3344 1546.53 L70.4438 1546.53 Q72.5694 1546.53 73.0202 1545.72 Q73.4389 1544.88 73.4389 1541.41 L75.4679 1541.41 Q75.2747 1548.14 75.2747 1548.78 Q75.2747 1549.3 75.4679 1556.22 Z" fill="#000000" fill-rule="evenodd" fill-opacity="1" /><path clip-path="url(#clip620)" d="M31.4747 1484.41 Q30.4119 1484.41 30.4119 1482.96 L30.4119 1446.02 L45.2588 1444.18 L45.2588 1445.89 Q40.911 1446.47 38.3989 1447.5 Q35.8869 1448.53 34.5342 1450.72 Q33.1816 1452.88 32.8273 1455.55 Q32.4731 1458.22 32.4731 1463.12 L32.4731 1476.97 L51.1847 1464.02 Q52.5051 1463.09 52.9238 1463.12 Q53.5035 1463.12 54.6951 1464.25 L72.6982 1480.19 L72.6982 1464.44 Q72.6982 1461.41 72.6016 1459.51 Q72.505 1457.58 72.2473 1455.55 Q71.9575 1453.49 71.41 1452.3 Q70.8625 1451.11 69.9607 1449.91 Q69.0589 1448.72 67.6419 1448.05 Q66.2248 1447.34 64.3247 1446.79 Q62.3923 1446.24 59.848 1445.89 L59.848 1444.18 L75.4679 1446.02 L75.4679 1483.02 Q75.4679 1484.34 74.6627 1484.34 Q74.2763 1484.34 73.3423 1483.57 L55.8223 1467.98 Q54.9528 1468.63 53.117 1469.85 L32.9884 1483.76 Q31.7967 1484.41 31.4747 1484.41 Z" fill="#000000" fill-rule="evenodd" fill-opacity="1" /><path clip-path="url(#clip620)" d="M58.9785 1433.83 Q47.8353 1433.83 38.8498 1429.68 Q35.0817 1427.9 31.9256 1425.42 Q28.7694 1422.94 27.3845 1421.3 Q25.9997 1419.66 25.9997 1419.21 Q25.9997 1418.56 26.6438 1418.53 Q26.9659 1418.53 27.771 1419.4 Q38.5922 1430.03 58.9785 1430 Q79.4292 1430 89.8317 1419.66 Q90.9589 1418.53 91.3132 1418.53 Q91.9573 1418.53 91.9573 1419.21 Q91.9573 1419.66 90.6369 1421.24 Q89.3164 1422.82 86.2891 1425.26 Q83.2617 1427.71 79.558 1429.48 Q70.5726 1433.83 58.9785 1433.83 Z" fill="#000000" fill-rule="evenodd" fill-opacity="1" /><path clip-path="url(#clip620)" d="M75.4679 1408.5 L73.4389 1408.5 Q73.4389 1404.99 73.0202 1404.19 Q72.5694 1403.38 70.4438 1403.38 L52.6983 1403.38 Q50.2507 1403.38 49.671 1404.22 Q49.0913 1405.03 49.0913 1408.25 L47.0301 1408.25 L46.3216 1399.03 L70.5082 1399.03 Q72.4727 1399.03 72.9558 1398.33 Q73.4389 1397.62 73.4389 1394.4 L75.4679 1394.4 Q75.2747 1401.13 75.2747 1401.26 Q75.2747 1402.16 75.4679 1408.5 M34.8241 1405.73 Q33.5037 1405.73 32.4409 1404.74 Q31.3459 1403.7 31.3459 1402.26 Q31.3459 1400.81 32.3442 1399.78 Q33.3104 1398.75 34.8563 1398.75 Q36.37 1398.75 37.3684 1399.78 Q38.3345 1400.81 38.3345 1402.26 Q38.3345 1403.77 37.2717 1404.77 Q36.2089 1405.73 34.8241 1405.73 Z" fill="#000000" fill-rule="evenodd" fill-opacity="1" /><path clip-path="url(#clip620)" d="M48.0929 1359.37 Q48.3828 1359.37 49.3811 1359.63 Q50.3473 1359.85 52.2475 1360.6 Q54.1154 1361.3 56.2088 1362.4 Q58.27 1363.46 60.8786 1365.43 Q63.4873 1367.39 65.7739 1369.84 Q70.0895 1374.44 72.4083 1379.37 Q74.7272 1384.27 75.4679 1388.45 L75.4679 1389.39 Q75.4679 1390.42 74.6627 1390.42 L71.6998 1389.71 L55.5647 1385.68 Q50.6372 1384.43 50.2185 1384.43 Q49.832 1384.43 49.6388 1384.59 Q49.4133 1384.72 49.2523 1385.49 Q49.0913 1386.23 49.0913 1387.71 Q49.0913 1388.32 49.0591 1388.61 Q49.0269 1388.87 48.8658 1389.1 Q48.6726 1389.32 48.2861 1389.32 Q47.7386 1389.32 47.4488 1389.1 Q47.1267 1388.84 47.0623 1388.65 Q46.9979 1388.45 46.9657 1388.07 Q46.9335 1387.52 46.7725 1385.68 Q46.5792 1383.85 46.4504 1382.27 Q46.3216 1380.69 46.3216 1380.02 Q46.3216 1379.63 46.5148 1379.4 Q46.6759 1379.18 46.8691 1379.18 L47.0301 1379.15 L73.2779 1385.62 Q72.505 1383.24 71.2167 1380.88 Q69.9285 1378.5 67.8029 1375.93 Q65.6451 1373.35 62.972 1371.16 Q60.2989 1368.97 56.5631 1367.04 Q52.795 1365.07 48.4794 1363.85 Q47.6098 1363.62 47.0945 1363.07 Q46.5792 1362.5 46.4504 1362.08 Q46.3216 1361.66 46.3216 1361.27 Q46.3216 1360.4 46.8047 1359.89 Q47.2556 1359.37 48.0929 1359.37 Z" fill="#000000" fill-rule="evenodd" fill-opacity="1" /><path clip-path="url(#clip620)" d="M91.3132 1353.68 Q90.9911 1353.68 90.186 1352.84 Q79.3648 1342.22 58.9785 1342.22 Q38.5278 1342.22 28.1897 1352.43 Q26.9981 1353.68 26.6438 1353.68 Q25.9997 1353.68 25.9997 1353.04 Q25.9997 1352.59 27.3201 1351.01 Q28.6406 1349.4 31.6679 1346.98 Q34.6953 1344.54 38.3989 1342.73 Q47.3844 1338.38 58.9785 1338.38 Q70.1217 1338.38 79.1072 1342.54 Q82.8752 1344.31 86.0314 1346.79 Q89.1876 1349.27 90.5724 1350.91 Q91.9573 1352.55 91.9573 1353.04 Q91.9573 1353.68 91.3132 1353.68 Z" fill="#000000" fill-rule="evenodd" fill-opacity="1" /><path clip-path="url(#clip620)" d="M645.05 1018.41 Q645.05 1020.1 643.656 1020.1 Q641.197 1020.18 639.516 1020.67 Q637.835 1021.12 636.852 1022.02 Q635.909 1022.92 635.376 1023.91 Q634.884 1024.85 634.556 1026.28 L627.096 1056.08 Q624.965 1064.49 618.079 1070.59 Q611.192 1076.66 603.363 1076.66 Q598.896 1076.66 595.166 1074.82 Q591.477 1072.97 589.181 1069.24 Q586.886 1065.51 586.886 1060.55 Q586.886 1058.17 587.501 1055.67 L592.583 1034.93 L594.469 1027.56 Q595.862 1022.1 595.862 1021.61 Q595.862 1020.83 595.371 1020.63 Q594.92 1020.38 593.608 1020.26 L590.411 1020.1 Q589.427 1020.1 589.017 1020.05 Q588.648 1020.01 588.361 1019.81 Q588.074 1019.6 588.074 1019.15 Q588.074 1018.58 588.197 1018.21 Q588.361 1017.8 588.648 1017.68 Q588.935 1017.55 589.14 1017.51 Q589.345 1017.47 589.673 1017.47 L600.494 1017.72 L611.233 1017.47 Q612.422 1017.47 612.422 1018.41 Q612.422 1019.6 611.889 1019.85 Q611.356 1020.1 609.553 1020.1 Q606.479 1020.1 605.085 1020.51 Q603.732 1020.87 603.322 1021.53 Q602.954 1022.14 602.503 1023.95 L594.346 1056.62 Q593.936 1058.26 593.69 1059.9 Q593.485 1061.49 593.485 1062.31 L593.444 1063.13 Q593.444 1068.34 596.313 1071.21 Q599.223 1074.08 603.691 1074.08 Q610.25 1074.08 616.357 1068.87 Q622.505 1063.67 624.596 1055.51 L632.138 1025.55 Q632.384 1024.81 632.384 1023.78 Q632.384 1022.14 631.154 1021.16 Q629.965 1020.14 626.686 1020.1 Q625.17 1020.1 625.17 1019.15 Q625.17 1018.37 625.457 1018 Q625.785 1017.6 626.03 1017.55 Q626.317 1017.47 626.686 1017.47 Q628.08 1017.47 631.031 1017.6 Q633.982 1017.72 635.417 1017.72 Q636.852 1017.72 639.721 1017.6 Q642.59 1017.47 643.984 1017.47 Q644.476 1017.47 644.722 1017.72 Q645.009 1017.92 645.05 1018.17 L645.05 1018.41 Z" fill="#000000" fill-rule="evenodd" fill-opacity="1" /><path clip-path="url(#clip620)" d="M666.928 1062.07 Q667.01 1061.04 668.608 1061.04 L720.05 1061.04 Q722.468 1061.04 722.509 1061.99 Q722.509 1063.01 720.214 1062.97 L669.182 1062.97 Q666.928 1063.01 666.928 1062.07 M666.928 1045.67 Q666.928 1044.65 668.69 1044.69 L719.968 1044.69 Q722.468 1044.69 722.509 1045.67 Q722.509 1046.62 720.378 1046.62 L668.608 1046.62 Q666.928 1046.62 666.928 1045.67 Z" fill="#000000" fill-rule="evenodd" fill-opacity="1" /><path clip-path="url(#clip620)" d="M754.886 1048.3 Q754.886 1035.1 761.608 1027.02 Q768.33 1018.91 776.979 1018.91 Q782.021 1018.91 784.808 1021.49 Q787.636 1024.03 787.636 1027.97 Q787.636 1030.14 786.366 1031.08 Q785.095 1032.02 783.783 1032.02 Q782.267 1032.02 781.078 1031 Q779.889 1029.97 779.889 1028.13 Q779.889 1024.36 784.521 1024.36 Q782.349 1021 777.143 1021 Q775.544 1021 773.905 1021.49 Q772.265 1021.94 770.134 1023.5 Q768.002 1025.06 766.363 1027.51 Q764.723 1029.97 763.576 1034.61 Q762.428 1039.24 762.428 1045.26 L762.428 1047.27 Q765.871 1038.95 772.921 1038.99 Q779.971 1038.99 784.849 1044.36 Q789.727 1049.73 789.727 1057.68 Q789.727 1065.84 784.644 1071.25 Q779.561 1076.66 772.429 1076.66 Q769.232 1076.66 766.322 1075.31 Q763.453 1074 760.747 1070.96 Q758.083 1067.93 756.484 1062.11 Q754.886 1056.29 754.886 1048.3 M762.592 1055.84 Q762.592 1064.08 764.108 1068.01 Q764.354 1068.67 764.887 1069.57 Q765.461 1070.47 766.404 1071.66 Q767.388 1072.81 768.986 1073.59 Q770.585 1074.32 772.429 1074.32 Q778.045 1074.32 780.75 1068.87 Q782.185 1065.84 782.185 1057.6 Q782.185 1049.2 780.668 1046.12 Q778.086 1040.92 772.839 1040.92 Q769.314 1040.92 766.855 1043.34 Q764.436 1045.75 763.494 1048.99 Q762.592 1052.23 762.592 1055.84 Z" fill="#000000" fill-rule="evenodd" fill-opacity="1" /><path clip-path="url(#clip620)" d="M797.726 1073.46 Q796.455 1072.11 796.455 1070.35 Q796.455 1068.59 797.726 1067.32 Q798.996 1066 800.923 1066 Q802.767 1066 803.997 1067.23 Q805.268 1068.42 805.268 1070.39 Q805.268 1072.32 803.915 1073.59 Q802.603 1074.82 800.923 1074.82 Q798.996 1074.82 797.726 1073.46 Z" fill="#000000" fill-rule="evenodd" fill-opacity="1" /><path clip-path="url(#clip620)" d="M819.553 1061.29 Q819.553 1058.79 820.906 1057.85 Q822.259 1056.86 823.693 1056.86 Q825.62 1056.86 826.726 1058.09 Q827.874 1059.28 827.874 1060.96 Q827.874 1062.64 826.726 1063.87 Q825.62 1065.06 823.693 1065.06 Q822.75 1065.06 822.259 1064.9 Q823.365 1068.75 826.726 1071.54 Q830.129 1074.32 834.596 1074.32 Q840.212 1074.32 843.573 1068.87 Q845.581 1065.35 845.581 1057.35 Q845.581 1050.3 844.065 1046.78 Q841.729 1041.41 836.933 1041.41 Q830.129 1041.41 826.112 1047.27 Q825.62 1048.01 825.046 1048.05 Q824.226 1048.05 824.021 1047.6 Q823.857 1047.11 823.857 1045.84 L823.857 1021 Q823.857 1018.99 824.677 1018.99 Q825.005 1018.99 825.702 1019.23 Q830.989 1021.57 836.851 1021.61 Q842.876 1021.61 848.287 1019.15 Q848.697 1018.91 848.943 1018.91 Q849.762 1018.91 849.803 1019.85 Q849.803 1020.18 849.107 1021.16 Q848.451 1022.1 847.016 1023.37 Q845.581 1024.6 843.737 1025.79 Q841.892 1026.98 839.187 1027.8 Q836.523 1028.58 833.572 1028.58 Q830.047 1028.58 826.44 1027.47 L826.44 1043.83 Q830.784 1039.57 837.097 1039.57 Q843.819 1039.57 848.451 1044.98 Q853.083 1050.39 853.083 1057.93 Q853.083 1065.84 847.59 1071.25 Q842.138 1076.66 834.76 1076.66 Q828.038 1076.66 823.775 1071.86 Q819.553 1067.07 819.553 1061.29 Z" fill="#000000" fill-rule="evenodd" fill-opacity="1" /><path clip-path="url(#clip620)" d="M862.311 1073.46 Q861.122 1072.11 861.122 1070.35 Q861.122 1068.59 862.27 1067.27 Q863.459 1065.92 865.59 1065.92 Q868.09 1065.92 869.525 1068.34 Q870.96 1070.72 870.96 1074.73 Q870.96 1079.08 869.197 1083.1 Q867.435 1087.15 865.713 1089.08 Q863.992 1091.01 863.295 1091.01 Q862.475 1091.01 862.475 1090.11 Q862.475 1089.78 863.049 1089.16 Q869.074 1082.69 869.115 1074.73 Q869.115 1073.46 868.951 1073.46 L868.746 1073.63 Q867.312 1074.82 865.59 1074.82 Q863.5 1074.82 862.311 1073.46 Z" fill="#000000" fill-rule="evenodd" fill-opacity="1" /><path clip-path="url(#clip620)" d="M954.547 1018.91 Q954.547 1019.69 954.383 1020.34 L952.087 1034.93 Q951.964 1036.04 951.718 1036.45 Q951.513 1036.86 950.858 1036.86 Q949.833 1036.86 949.833 1035.79 Q949.833 1035.18 950.079 1034.2 Q950.776 1029.56 950.776 1027.47 Q950.776 1026.08 950.489 1025.06 Q950.243 1023.99 949.833 1023.25 Q949.464 1022.51 948.603 1022.02 Q947.742 1021.53 946.923 1021.24 Q946.103 1020.96 944.627 1020.83 Q943.152 1020.67 941.881 1020.63 Q940.61 1020.59 938.52 1020.59 Q933.97 1020.59 933.232 1020.75 Q932.453 1020.96 932.043 1021.57 Q931.675 1022.14 931.265 1023.87 L920.116 1068.42 L919.788 1070.18 Q919.788 1071.17 920.402 1071.5 Q921.017 1071.82 922.903 1072.03 Q925.608 1072.23 928.272 1072.23 Q928.354 1072.23 928.518 1072.23 Q929.42 1072.23 929.789 1072.27 Q930.158 1072.27 930.527 1072.36 Q930.896 1072.44 930.978 1072.64 Q931.101 1072.81 931.101 1073.14 Q931.101 1073.91 930.773 1074.32 Q930.445 1074.69 930.117 1074.78 Q929.83 1074.82 929.256 1074.82 Q928.108 1074.82 925.649 1074.73 Q923.19 1074.65 921.96 1074.65 L914.992 1074.57 L907.86 1074.65 Q906.753 1074.65 904.417 1074.73 Q902.08 1074.82 900.974 1074.82 Q899.539 1074.82 899.539 1073.79 Q899.539 1072.64 900.072 1072.44 Q900.646 1072.23 903.064 1072.23 Q906.466 1072.23 908.311 1072.07 Q910.155 1071.91 911.139 1071.33 Q912.164 1070.76 912.451 1070.18 Q912.737 1069.57 913.065 1068.18 L924.337 1023.37 Q924.665 1022.39 924.665 1021.61 Q924.665 1021.2 924.542 1021.04 Q924.46 1020.87 923.928 1020.75 Q923.395 1020.59 922.288 1020.59 L919.009 1020.59 Q915.648 1020.59 913.557 1020.75 Q911.508 1020.87 909.54 1021.49 Q907.614 1022.1 906.466 1022.96 Q905.359 1023.83 904.13 1025.59 Q902.9 1027.35 901.998 1029.48 Q901.138 1031.61 899.908 1035.1 Q899.498 1036.25 899.252 1036.57 Q899.047 1036.86 898.473 1036.86 Q898.063 1036.86 897.735 1036.61 Q897.448 1036.33 897.448 1035.96 Q897.858 1034.61 897.94 1034.44 L902.982 1019.64 Q903.392 1018.46 903.761 1018.25 Q904.171 1018 905.687 1018 L952.251 1018 Q952.989 1018 953.235 1018 Q953.481 1018 953.891 1018.09 Q954.301 1018.17 954.424 1018.37 Q954.547 1018.58 954.547 1018.91 Z" fill="#000000" fill-rule="evenodd" fill-opacity="1" /><path clip-path="url(#clip620)" d="M969.29 1062.07 Q969.372 1061.04 970.971 1061.04 L1022.41 1061.04 Q1024.83 1061.04 1024.87 1061.99 Q1024.87 1063.01 1022.58 1062.97 L971.545 1062.97 Q969.29 1063.01 969.29 1062.07 M969.29 1045.67 Q969.29 1044.65 971.053 1044.69 L1022.33 1044.69 Q1024.83 1044.69 1024.87 1045.67 Q1024.87 1046.62 1022.74 1046.62 L970.971 1046.62 Q969.29 1046.62 969.29 1045.67 Z" fill="#000000" fill-rule="evenodd" fill-opacity="1" /><path clip-path="url(#clip620)" d="M1057.25 1047.97 Q1057.25 1035.63 1060.36 1028.91 Q1064.71 1018.91 1074.96 1018.91 Q1077.13 1018.91 1079.38 1019.52 Q1081.68 1020.1 1084.55 1022.35 Q1087.46 1024.6 1089.22 1028.29 Q1092.58 1035.43 1092.58 1047.97 Q1092.58 1060.22 1089.47 1066.91 Q1084.92 1076.66 1074.87 1076.66 Q1071.1 1076.66 1067.25 1074.73 Q1063.44 1072.81 1061.02 1068.18 Q1057.25 1061.25 1057.25 1047.97 M1064.22 1046.94 Q1064.22 1059.61 1065.12 1064.65 Q1066.14 1070.1 1068.93 1072.48 Q1071.76 1074.82 1074.87 1074.82 Q1078.24 1074.82 1081.02 1072.32 Q1083.85 1069.77 1084.71 1064.32 Q1085.65 1058.95 1085.61 1046.94 Q1085.61 1035.26 1084.79 1030.59 Q1083.69 1025.14 1080.74 1022.96 Q1077.83 1020.75 1074.87 1020.75 Q1073.77 1020.75 1072.58 1021.08 Q1071.43 1021.41 1069.75 1022.35 Q1068.07 1023.29 1066.76 1025.63 Q1065.49 1027.97 1064.87 1031.49 Q1064.22 1036.04 1064.22 1046.94 Z" fill="#000000" fill-rule="evenodd" fill-opacity="1" /><path clip-path="url(#clip620)" d="M1100.09 1073.46 Q1098.82 1072.11 1098.82 1070.35 Q1098.82 1068.59 1100.09 1067.32 Q1101.36 1066 1103.29 1066 Q1105.13 1066 1106.36 1067.23 Q1107.63 1068.42 1107.63 1070.39 Q1107.63 1072.32 1106.28 1073.59 Q1104.97 1074.82 1103.29 1074.82 Q1101.36 1074.82 1100.09 1073.46 Z" fill="#000000" fill-rule="evenodd" fill-opacity="1" /><path clip-path="url(#clip620)" d="M1121.92 1047.97 Q1121.92 1035.63 1125.03 1028.91 Q1129.38 1018.91 1139.62 1018.91 Q1141.8 1018.91 1144.05 1019.52 Q1146.35 1020.1 1149.21 1022.35 Q1152.13 1024.6 1153.89 1028.29 Q1157.25 1035.43 1157.25 1047.97 Q1157.25 1060.22 1154.13 1066.91 Q1149.58 1076.66 1139.54 1076.66 Q1135.77 1076.66 1131.92 1074.73 Q1128.11 1072.81 1125.69 1068.18 Q1121.92 1061.25 1121.92 1047.97 M1128.88 1046.94 Q1128.88 1059.61 1129.79 1064.65 Q1130.81 1070.1 1133.6 1072.48 Q1136.43 1074.82 1139.54 1074.82 Q1142.9 1074.82 1145.69 1072.32 Q1148.52 1069.77 1149.38 1064.32 Q1150.32 1058.95 1150.28 1046.94 Q1150.28 1035.26 1149.46 1030.59 Q1148.35 1025.14 1145.4 1022.96 Q1142.49 1020.75 1139.54 1020.75 Q1138.43 1020.75 1137.25 1021.08 Q1136.1 1021.41 1134.42 1022.35 Q1132.74 1023.29 1131.43 1025.63 Q1130.15 1027.97 1129.54 1031.49 Q1128.88 1036.04 1128.88 1046.94 Z" fill="#000000" fill-rule="evenodd" fill-opacity="1" /><path clip-path="url(#clip620)" d="M1163.82 1061.29 Q1163.82 1058.79 1165.17 1057.85 Q1166.53 1056.86 1167.96 1056.86 Q1169.89 1056.86 1170.99 1058.09 Q1172.14 1059.28 1172.14 1060.96 Q1172.14 1062.64 1170.99 1063.87 Q1169.89 1065.06 1167.96 1065.06 Q1167.02 1065.06 1166.53 1064.9 Q1167.63 1068.75 1170.99 1071.54 Q1174.4 1074.32 1178.86 1074.32 Q1184.48 1074.32 1187.84 1068.87 Q1189.85 1065.35 1189.85 1057.35 Q1189.85 1050.3 1188.33 1046.78 Q1186 1041.41 1181.2 1041.41 Q1174.4 1041.41 1170.38 1047.27 Q1169.89 1048.01 1169.31 1048.05 Q1168.49 1048.05 1168.29 1047.6 Q1168.12 1047.11 1168.12 1045.84 L1168.12 1021 Q1168.12 1018.99 1168.94 1018.99 Q1169.27 1018.99 1169.97 1019.23 Q1175.26 1021.57 1181.12 1021.61 Q1187.14 1021.61 1192.55 1019.15 Q1192.96 1018.91 1193.21 1018.91 Q1194.03 1018.91 1194.07 1019.85 Q1194.07 1020.18 1193.37 1021.16 Q1192.72 1022.1 1191.28 1023.37 Q1189.85 1024.6 1188 1025.79 Q1186.16 1026.98 1183.45 1027.8 Q1180.79 1028.58 1177.84 1028.58 Q1174.31 1028.58 1170.71 1027.47 L1170.71 1043.83 Q1175.05 1039.57 1181.36 1039.57 Q1188.09 1039.57 1192.72 1044.98 Q1197.35 1050.39 1197.35 1057.93 Q1197.35 1065.84 1191.86 1071.25 Q1186.41 1076.66 1179.03 1076.66 Q1172.31 1076.66 1168.04 1071.86 Q1163.82 1067.07 1163.82 1061.29 Z" fill="#000000" fill-rule="evenodd" fill-opacity="1" /><polyline clip-path="url(#clip624)" style="stroke:#009af9; stroke-linecap:butt; stroke-linejoin:round; stroke-width:4; stroke-opacity:1; fill:none" points="
  276.687,1456.44 307.96,1456.43 743.38,1455.61 817.955,1454.55 846.822,1453.31 862.86,1451.72 872.482,1449.79 878.897,1447.44 883.709,1444.28 886.916,1440.62 
  889.322,1435.96 890.926,1430.74 891.728,1426.83 892.529,1421.25 893.331,1412.56 894.133,1396.88 894.935,1359.8 895.737,1170.86 896.539,1742.56 897.341,1553.63 
  898.143,1516.55 898.944,1500.86 899.746,1492.17 900.548,1486.6 901.35,1482.69 902.954,1477.47 905.359,1472.81 908.567,1469.15 913.378,1465.99 919.793,1463.63 
  929.416,1461.71 945.453,1460.12 974.321,1458.87 1048.9,1457.82 1484.32,1457 1515.59,1456.99 
  "/>
<circle clip-path="url(#clip624)" cx="276.687" cy="1456.44" r="14" fill="#009af9" fill-rule="evenodd" fill-opacity="1" stroke="#000000" stroke-opacity="1" stroke-width="3.2"/>
<circle clip-path="url(#clip624)" cx="307.96" cy="1456.43" r="14" fill="#009af9" fill-rule="evenodd" fill-opacity="1" stroke="#000000" stroke-opacity="1" stroke-width="3.2"/>
<circle clip-path="url(#clip624)" cx="743.38" cy="1455.61" r="14" fill="#009af9" fill-rule="evenodd" fill-opacity="1" stroke="#000000" stroke-opacity="1" stroke-width="3.2"/>
<circle clip-path="url(#clip624)" cx="817.955" cy="1454.55" r="14" fill="#009af9" fill-rule="evenodd" fill-opacity="1" stroke="#000000" stroke-opacity="1" stroke-width="3.2"/>
<circle clip-path="url(#clip624)" cx="846.822" cy="1453.31" r="14" fill="#009af9" fill-rule="evenodd" fill-opacity="1" stroke="#000000" stroke-opacity="1" stroke-width="3.2"/>
<circle clip-path="url(#clip624)" cx="862.86" cy="1451.72" r="14" fill="#009af9" fill-rule="evenodd" fill-opacity="1" stroke="#000000" stroke-opacity="1" stroke-width="3.2"/>
<circle clip-path="url(#clip624)" cx="872.482" cy="1449.79" r="14" fill="#009af9" fill-rule="evenodd" fill-opacity="1" stroke="#000000" stroke-opacity="1" stroke-width="3.2"/>
<circle clip-path="url(#clip624)" cx="878.897" cy="1447.44" r="14" fill="#009af9" fill-rule="evenodd" fill-opacity="1" stroke="#000000" stroke-opacity="1" stroke-width="3.2"/>
<circle clip-path="url(#clip624)" cx="883.709" cy="1444.28" r="14" fill="#009af9" fill-rule="evenodd" fill-opacity="1" stroke="#000000" stroke-opacity="1" stroke-width="3.2"/>
<circle clip-path="url(#clip624)" cx="886.916" cy="1440.62" r="14" fill="#009af9" fill-rule="evenodd" fill-opacity="1" stroke="#000000" stroke-opacity="1" stroke-width="3.2"/>
<circle clip-path="url(#clip624)" cx="889.322" cy="1435.96" r="14" fill="#009af9" fill-rule="evenodd" fill-opacity="1" stroke="#000000" stroke-opacity="1" stroke-width="3.2"/>
<circle clip-path="url(#clip624)" cx="890.926" cy="1430.74" r="14" fill="#009af9" fill-rule="evenodd" fill-opacity="1" stroke="#000000" stroke-opacity="1" stroke-width="3.2"/>
<circle clip-path="url(#clip624)" cx="891.728" cy="1426.83" r="14" fill="#009af9" fill-rule="evenodd" fill-opacity="1" stroke="#000000" stroke-opacity="1" stroke-width="3.2"/>
<circle clip-path="url(#clip624)" cx="892.529" cy="1421.25" r="14" fill="#009af9" fill-rule="evenodd" fill-opacity="1" stroke="#000000" stroke-opacity="1" stroke-width="3.2"/>
<circle clip-path="url(#clip624)" cx="893.331" cy="1412.56" r="14" fill="#009af9" fill-rule="evenodd" fill-opacity="1" stroke="#000000" stroke-opacity="1" stroke-width="3.2"/>
<circle clip-path="url(#clip624)" cx="894.133" cy="1396.88" r="14" fill="#009af9" fill-rule="evenodd" fill-opacity="1" stroke="#000000" stroke-opacity="1" stroke-width="3.2"/>
<circle clip-path="url(#clip624)" cx="894.935" cy="1359.8" r="14" fill="#009af9" fill-rule="evenodd" fill-opacity="1" stroke="#000000" stroke-opacity="1" stroke-width="3.2"/>
<circle clip-path="url(#clip624)" cx="895.737" cy="1170.86" r="14" fill="#009af9" fill-rule="evenodd" fill-opacity="1" stroke="#000000" stroke-opacity="1" stroke-width="3.2"/>
<circle clip-path="url(#clip624)" cx="896.539" cy="1742.56" r="14" fill="#009af9" fill-rule="evenodd" fill-opacity="1" stroke="#000000" stroke-opacity="1" stroke-width="3.2"/>
<circle clip-path="url(#clip624)" cx="897.341" cy="1553.63" r="14" fill="#009af9" fill-rule="evenodd" fill-opacity="1" stroke="#000000" stroke-opacity="1" stroke-width="3.2"/>
<circle clip-path="url(#clip624)" cx="898.143" cy="1516.55" r="14" fill="#009af9" fill-rule="evenodd" fill-opacity="1" stroke="#000000" stroke-opacity="1" stroke-width="3.2"/>
<circle clip-path="url(#clip624)" cx="898.944" cy="1500.86" r="14" fill="#009af9" fill-rule="evenodd" fill-opacity="1" stroke="#000000" stroke-opacity="1" stroke-width="3.2"/>
<circle clip-path="url(#clip624)" cx="899.746" cy="1492.17" r="14" fill="#009af9" fill-rule="evenodd" fill-opacity="1" stroke="#000000" stroke-opacity="1" stroke-width="3.2"/>
<circle clip-path="url(#clip624)" cx="900.548" cy="1486.6" r="14" fill="#009af9" fill-rule="evenodd" fill-opacity="1" stroke="#000000" stroke-opacity="1" stroke-width="3.2"/>
<circle clip-path="url(#clip624)" cx="901.35" cy="1482.69" r="14" fill="#009af9" fill-rule="evenodd" fill-opacity="1" stroke="#000000" stroke-opacity="1" stroke-width="3.2"/>
<circle clip-path="url(#clip624)" cx="902.954" cy="1477.47" r="14" fill="#009af9" fill-rule="evenodd" fill-opacity="1" stroke="#000000" stroke-opacity="1" stroke-width="3.2"/>
<circle clip-path="url(#clip624)" cx="905.359" cy="1472.81" r="14" fill="#009af9" fill-rule="evenodd" fill-opacity="1" stroke="#000000" stroke-opacity="1" stroke-width="3.2"/>
<circle clip-path="url(#clip624)" cx="908.567" cy="1469.15" r="14" fill="#009af9" fill-rule="evenodd" fill-opacity="1" stroke="#000000" stroke-opacity="1" stroke-width="3.2"/>
<circle clip-path="url(#clip624)" cx="913.378" cy="1465.99" r="14" fill="#009af9" fill-rule="evenodd" fill-opacity="1" stroke="#000000" stroke-opacity="1" stroke-width="3.2"/>
<circle clip-path="url(#clip624)" cx="919.793" cy="1463.63" r="14" fill="#009af9" fill-rule="evenodd" fill-opacity="1" stroke="#000000" stroke-opacity="1" stroke-width="3.2"/>
<circle clip-path="url(#clip624)" cx="929.416" cy="1461.71" r="14" fill="#009af9" fill-rule="evenodd" fill-opacity="1" stroke="#000000" stroke-opacity="1" stroke-width="3.2"/>
<circle clip-path="url(#clip624)" cx="945.453" cy="1460.12" r="14" fill="#009af9" fill-rule="evenodd" fill-opacity="1" stroke="#000000" stroke-opacity="1" stroke-width="3.2"/>
<circle clip-path="url(#clip624)" cx="974.321" cy="1458.87" r="14" fill="#009af9" fill-rule="evenodd" fill-opacity="1" stroke="#000000" stroke-opacity="1" stroke-width="3.2"/>
<circle clip-path="url(#clip624)" cx="1048.9" cy="1457.82" r="14" fill="#009af9" fill-rule="evenodd" fill-opacity="1" stroke="#000000" stroke-opacity="1" stroke-width="3.2"/>
<circle clip-path="url(#clip624)" cx="1484.32" cy="1457" r="14" fill="#009af9" fill-rule="evenodd" fill-opacity="1" stroke="#000000" stroke-opacity="1" stroke-width="3.2"/>
<circle clip-path="url(#clip624)" cx="1515.59" cy="1456.99" r="14" fill="#009af9" fill-rule="evenodd" fill-opacity="1" stroke="#000000" stroke-opacity="1" stroke-width="3.2"/>
</svg>
