<?xml version="1.0" encoding="utf-8"?>
<svg xmlns="http://www.w3.org/2000/svg" xmlns:xlink="http://www.w3.org/1999/xlink" width="400" height="300" viewBox="0 0 1600 1200">
<defs>
  <clipPath id="clip200">
    <rect x="0" y="0" width="1600" height="1200"/>
  </clipPath>
</defs>
<path clip-path="url(#clip200)" d="
M0 1200 L1600 1200 L1600 0 L0 0  Z
  " fill="#ffffff" fill-rule="evenodd" fill-opacity="1"/>
<defs>
  <clipPath id="clip201">
    <rect x="320" y="0" width="1121" height="1121"/>
  </clipPath>
</defs>
<defs>
  <clipPath id="clip202">
    <rect x="191" y="522" width="1052" height="486"/>
  </clipPath>
</defs>
<path clip-path="url(#clip200)" d="
M260.403 1016.92 L1552.76 1016.92 L1552.76 131.032 L260.403 131.032  Z
  " fill="#ffffff" fill-rule="evenodd" fill-opacity="1"/>
<defs>
  <clipPath id="clip203">
    <rect x="260" y="131" width="1293" height="887"/>
  </clipPath>
</defs>
<polyline clip-path="url(#clip203)" style="stroke:#000000; stroke-linecap:butt; stroke-linejoin:round; stroke-width:2; stroke-opacity:0.1; fill:none" points="
  378.259,1016.92 378.259,131.032 
  "/>
<polyline clip-path="url(#clip203)" style="stroke:#000000; stroke-linecap:butt; stroke-linejoin:round; stroke-width:2; stroke-opacity:0.1; fill:none" points="
  622.099,1016.92 622.099,131.032 
  "/>
<polyline clip-path="url(#clip203)" style="stroke:#000000; stroke-linecap:butt; stroke-linejoin:round; stroke-width:2; stroke-opacity:0.1; fill:none" points="
  865.939,1016.92 865.939,131.032 
  "/>
<polyline clip-path="url(#clip203)" style="stroke:#000000; stroke-linecap:butt; stroke-linejoin:round; stroke-width:2; stroke-opacity:0.1; fill:none" points="
  1109.78,1016.92 1109.78,131.032 
  "/>
<polyline clip-path="url(#clip203)" style="stroke:#000000; stroke-linecap:butt; stroke-linejoin:round; stroke-width:2; stroke-opacity:0.1; fill:none" points="
  1353.62,1016.92 1353.62,131.032 
  "/>
<polyline clip-path="url(#clip200)" style="stroke:#000000; stroke-linecap:butt; stroke-linejoin:round; stroke-width:4; stroke-opacity:1; fill:none" points="
  260.403,1016.92 1552.76,1016.92 
  "/>
<polyline clip-path="url(#clip200)" style="stroke:#000000; stroke-linecap:butt; stroke-linejoin:round; stroke-width:4; stroke-opacity:1; fill:none" points="
  378.259,1016.92 378.259,998.022 
  "/>
<polyline clip-path="url(#clip200)" style="stroke:#000000; stroke-linecap:butt; stroke-linejoin:round; stroke-width:4; stroke-opacity:1; fill:none" points="
  622.099,1016.92 622.099,998.022 
  "/>
<polyline clip-path="url(#clip200)" style="stroke:#000000; stroke-linecap:butt; stroke-linejoin:round; stroke-width:4; stroke-opacity:1; fill:none" points="
  865.939,1016.92 865.939,998.022 
  "/>
<polyline clip-path="url(#clip200)" style="stroke:#000000; stroke-linecap:butt; stroke-linejoin:round; stroke-width:4; stroke-opacity:1; fill:none" points="
  1109.78,1016.92 1109.78,998.022 
  "/>
<polyline clip-path="url(#clip200)" style="stroke:#000000; stroke-linecap:butt; stroke-linejoin:round; stroke-width:4; stroke-opacity:1; fill:none" points="
  1353.62,1016.92 1353.62,998.022 
  "/>
<path clip-path="url(#clip200)" d="M346.037 1038.36 L364.394 1038.36 L364.394 1042.3 L350.32 1042.3 L350.32 1050.77 Q351.338 1050.42 352.357 1050.26 Q353.375 1050.07 354.394 1050.07 Q360.181 1050.07 363.56 1053.24 Q366.94 1056.42 366.94 1061.83 Q366.94 1067.41 363.468 1070.51 Q359.995 1073.59 353.676 1073.59 Q351.5 1073.59 349.232 1073.22 Q346.986 1072.85 344.579 1072.11 L344.579 1067.41 Q346.662 1068.54 348.884 1069.1 Q351.107 1069.66 353.583 1069.66 Q357.588 1069.66 359.926 1067.55 Q362.264 1065.44 362.264 1061.83 Q362.264 1058.22 359.926 1056.11 Q357.588 1054.01 353.583 1054.01 Q351.708 1054.01 349.833 1054.42 Q347.982 1054.84 346.037 1055.72 L346.037 1038.36 Z" fill="#000000" fill-rule="evenodd" fill-opacity="1" /><path clip-path="url(#clip200)" d="M376.153 1067.04 L381.037 1067.04 L381.037 1072.92 L376.153 1072.92 L376.153 1067.04 Z" fill="#000000" fill-rule="evenodd" fill-opacity="1" /><path clip-path="url(#clip200)" d="M392.032 1068.98 L399.671 1068.98 L399.671 1042.62 L391.361 1044.29 L391.361 1040.03 L399.625 1038.36 L404.301 1038.36 L404.301 1068.98 L411.94 1068.98 L411.94 1072.92 L392.032 1072.92 L392.032 1068.98 Z" fill="#000000" fill-rule="evenodd" fill-opacity="1" /><path clip-path="url(#clip200)" d="M589.021 1038.36 L607.377 1038.36 L607.377 1042.3 L593.303 1042.3 L593.303 1050.77 Q594.322 1050.42 595.34 1050.26 Q596.359 1050.07 597.377 1050.07 Q603.164 1050.07 606.544 1053.24 Q609.923 1056.42 609.923 1061.83 Q609.923 1067.41 606.451 1070.51 Q602.979 1073.59 596.66 1073.59 Q594.484 1073.59 592.215 1073.22 Q589.97 1072.85 587.563 1072.11 L587.563 1067.41 Q589.646 1068.54 591.868 1069.1 Q594.09 1069.66 596.567 1069.66 Q600.572 1069.66 602.91 1067.55 Q605.248 1065.44 605.248 1061.83 Q605.248 1058.22 602.91 1056.11 Q600.572 1054.01 596.567 1054.01 Q594.692 1054.01 592.817 1054.42 Q590.965 1054.84 589.021 1055.72 L589.021 1038.36 Z" fill="#000000" fill-rule="evenodd" fill-opacity="1" /><path clip-path="url(#clip200)" d="M619.136 1067.04 L624.021 1067.04 L624.021 1072.92 L619.136 1072.92 L619.136 1067.04 Z" fill="#000000" fill-rule="evenodd" fill-opacity="1" /><path clip-path="url(#clip200)" d="M647.053 1042.43 L635.247 1060.88 L647.053 1060.88 L647.053 1042.43 M645.826 1038.36 L651.706 1038.36 L651.706 1060.88 L656.636 1060.88 L656.636 1064.77 L651.706 1064.77 L651.706 1072.92 L647.053 1072.92 L647.053 1064.77 L631.451 1064.77 L631.451 1060.26 L645.826 1038.36 Z" fill="#000000" fill-rule="evenodd" fill-opacity="1" /><path clip-path="url(#clip200)" d="M833.555 1038.36 L851.912 1038.36 L851.912 1042.3 L837.838 1042.3 L837.838 1050.77 Q838.856 1050.42 839.875 1050.26 Q840.893 1050.07 841.912 1050.07 Q847.699 1050.07 851.078 1053.24 Q854.458 1056.42 854.458 1061.83 Q854.458 1067.41 850.986 1070.51 Q847.514 1073.59 841.194 1073.59 Q839.018 1073.59 836.75 1073.22 Q834.504 1072.85 832.097 1072.11 L832.097 1067.41 Q834.18 1068.54 836.403 1069.1 Q838.625 1069.66 841.102 1069.66 Q845.106 1069.66 847.444 1067.55 Q849.782 1065.44 849.782 1061.83 Q849.782 1058.22 847.444 1056.11 Q845.106 1054.01 841.102 1054.01 Q839.227 1054.01 837.352 1054.42 Q835.5 1054.84 833.555 1055.72 L833.555 1038.36 Z" fill="#000000" fill-rule="evenodd" fill-opacity="1" /><path clip-path="url(#clip200)" d="M863.671 1067.04 L868.555 1067.04 L868.555 1072.92 L863.671 1072.92 L863.671 1067.04 Z" fill="#000000" fill-rule="evenodd" fill-opacity="1" /><path clip-path="url(#clip200)" d="M877.56 1038.36 L899.782 1038.36 L899.782 1040.35 L887.236 1072.92 L882.351 1072.92 L894.157 1042.3 L877.56 1042.3 L877.56 1038.36 Z" fill="#000000" fill-rule="evenodd" fill-opacity="1" /><path clip-path="url(#clip200)" d="M1087.65 1053.78 Q1084.5 1053.78 1082.65 1055.93 Q1080.82 1058.08 1080.82 1061.83 Q1080.82 1065.56 1082.65 1067.73 Q1084.5 1069.89 1087.65 1069.89 Q1090.8 1069.89 1092.63 1067.73 Q1094.48 1065.56 1094.48 1061.83 Q1094.48 1058.08 1092.63 1055.93 Q1090.8 1053.78 1087.65 1053.78 M1096.93 1039.12 L1096.93 1043.38 Q1095.17 1042.55 1093.37 1042.11 Q1091.59 1041.67 1089.83 1041.67 Q1085.2 1041.67 1082.74 1044.79 Q1080.31 1047.92 1079.96 1054.24 Q1081.33 1052.23 1083.39 1051.16 Q1085.45 1050.07 1087.93 1050.07 Q1093.14 1050.07 1096.15 1053.24 Q1099.18 1056.39 1099.18 1061.83 Q1099.18 1067.16 1096.03 1070.37 Q1092.88 1073.59 1087.65 1073.59 Q1081.65 1073.59 1078.48 1069.01 Q1075.31 1064.4 1075.31 1055.67 Q1075.31 1047.48 1079.2 1042.62 Q1083.09 1037.73 1089.64 1037.73 Q1091.4 1037.73 1093.18 1038.08 Q1094.99 1038.43 1096.93 1039.12 Z" fill="#000000" fill-rule="evenodd" fill-opacity="1" /><path clip-path="url(#clip200)" d="M1107.23 1067.04 L1112.12 1067.04 L1112.12 1072.92 L1107.23 1072.92 L1107.23 1067.04 Z" fill="#000000" fill-rule="evenodd" fill-opacity="1" /><path clip-path="url(#clip200)" d="M1132.3 1041.44 Q1128.69 1041.44 1126.86 1045 Q1125.06 1048.54 1125.06 1055.67 Q1125.06 1062.78 1126.86 1066.35 Q1128.69 1069.89 1132.3 1069.89 Q1135.94 1069.89 1137.74 1066.35 Q1139.57 1062.78 1139.57 1055.67 Q1139.57 1048.54 1137.74 1045 Q1135.94 1041.44 1132.3 1041.44 M1132.3 1037.73 Q1138.11 1037.73 1141.17 1042.34 Q1144.25 1046.92 1144.25 1055.67 Q1144.25 1064.4 1141.17 1069.01 Q1138.11 1073.59 1132.3 1073.59 Q1126.49 1073.59 1123.41 1069.01 Q1120.36 1064.4 1120.36 1055.67 Q1120.36 1046.92 1123.41 1042.34 Q1126.49 1037.73 1132.3 1037.73 Z" fill="#000000" fill-rule="evenodd" fill-opacity="1" /><path clip-path="url(#clip200)" d="M1331.81 1053.78 Q1328.67 1053.78 1326.81 1055.93 Q1324.99 1058.08 1324.99 1061.83 Q1324.99 1065.56 1326.81 1067.73 Q1328.67 1069.89 1331.81 1069.89 Q1334.96 1069.89 1336.79 1067.73 Q1338.64 1065.56 1338.64 1061.83 Q1338.64 1058.08 1336.79 1055.93 Q1334.96 1053.78 1331.81 1053.78 M1341.1 1039.12 L1341.1 1043.38 Q1339.34 1042.55 1337.53 1042.11 Q1335.75 1041.67 1333.99 1041.67 Q1329.36 1041.67 1326.91 1044.79 Q1324.48 1047.92 1324.13 1054.24 Q1325.49 1052.23 1327.56 1051.16 Q1329.62 1050.07 1332.09 1050.07 Q1337.3 1050.07 1340.31 1053.24 Q1343.34 1056.39 1343.34 1061.83 Q1343.34 1067.16 1340.19 1070.37 Q1337.05 1073.59 1331.81 1073.59 Q1325.82 1073.59 1322.65 1069.01 Q1319.48 1064.4 1319.48 1055.67 Q1319.48 1047.48 1323.37 1042.62 Q1327.25 1037.73 1333.81 1037.73 Q1335.56 1037.73 1337.35 1038.08 Q1339.15 1038.43 1341.1 1039.12 Z" fill="#000000" fill-rule="evenodd" fill-opacity="1" /><path clip-path="url(#clip200)" d="M1351.4 1067.04 L1356.28 1067.04 L1356.28 1072.92 L1351.4 1072.92 L1351.4 1067.04 Z" fill="#000000" fill-rule="evenodd" fill-opacity="1" /><path clip-path="url(#clip200)" d="M1380.63 1054.29 Q1383.99 1055 1385.86 1057.27 Q1387.76 1059.54 1387.76 1062.87 Q1387.76 1067.99 1384.24 1070.79 Q1380.73 1073.59 1374.24 1073.59 Q1372.07 1073.59 1369.75 1073.15 Q1367.46 1072.73 1365.01 1071.88 L1365.01 1067.36 Q1366.95 1068.5 1369.27 1069.08 Q1371.58 1069.66 1374.11 1069.66 Q1378.5 1069.66 1380.8 1067.92 Q1383.11 1066.18 1383.11 1062.87 Q1383.11 1059.82 1380.96 1058.11 Q1378.83 1056.37 1375.01 1056.37 L1370.98 1056.37 L1370.98 1052.53 L1375.19 1052.53 Q1378.64 1052.53 1380.47 1051.16 Q1382.3 1049.77 1382.3 1047.18 Q1382.3 1044.52 1380.4 1043.11 Q1378.53 1041.67 1375.01 1041.67 Q1373.09 1041.67 1370.89 1042.09 Q1368.69 1042.5 1366.05 1043.38 L1366.05 1039.22 Q1368.71 1038.48 1371.03 1038.11 Q1373.37 1037.73 1375.43 1037.73 Q1380.75 1037.73 1383.85 1040.17 Q1386.95 1042.57 1386.95 1046.69 Q1386.95 1049.56 1385.31 1051.55 Q1383.67 1053.52 1380.63 1054.29 Z" fill="#000000" fill-rule="evenodd" fill-opacity="1" /><path clip-path="url(#clip200)" d="M929.984 1115.18 Q929.984 1116.5 928.889 1116.5 Q926.957 1116.57 925.637 1116.95 Q924.316 1117.31 923.543 1118.02 Q922.802 1118.72 922.384 1119.5 Q921.997 1120.24 921.74 1121.37 L915.878 1144.78 Q914.203 1151.38 908.793 1156.18 Q903.382 1160.95 897.231 1160.95 Q893.721 1160.95 890.79 1159.5 Q887.891 1158.05 886.088 1155.12 Q884.284 1152.19 884.284 1148.29 Q884.284 1146.42 884.767 1144.46 L888.761 1128.16 L890.242 1122.36 Q891.337 1118.08 891.337 1117.69 Q891.337 1117.08 890.951 1116.92 Q890.597 1116.73 889.566 1116.63 L887.054 1116.5 Q886.281 1116.5 885.959 1116.47 Q885.669 1116.44 885.444 1116.28 Q885.218 1116.12 885.218 1115.76 Q885.218 1115.31 885.315 1115.02 Q885.444 1114.7 885.669 1114.6 Q885.895 1114.51 886.056 1114.47 Q886.217 1114.44 886.474 1114.44 L894.977 1114.63 L903.415 1114.44 Q904.349 1114.44 904.349 1115.18 Q904.349 1116.12 903.93 1116.31 Q903.511 1116.5 902.094 1116.5 Q899.679 1116.5 898.584 1116.82 Q897.521 1117.11 897.199 1117.63 Q896.909 1118.11 896.555 1119.53 L890.146 1145.2 Q889.824 1146.49 889.63 1147.77 Q889.469 1149.03 889.469 1149.67 L889.437 1150.32 Q889.437 1154.41 891.692 1156.66 Q893.978 1158.92 897.489 1158.92 Q902.642 1158.92 907.44 1154.83 Q912.271 1150.74 913.914 1144.33 L919.84 1120.79 Q920.033 1120.21 920.033 1119.4 Q920.033 1118.11 919.067 1117.34 Q918.133 1116.53 915.556 1116.5 Q914.365 1116.5 914.365 1115.76 Q914.365 1115.15 914.59 1114.86 Q914.848 1114.54 915.041 1114.51 Q915.266 1114.44 915.556 1114.44 Q916.651 1114.44 918.97 1114.54 Q921.289 1114.63 922.416 1114.63 Q923.543 1114.63 925.798 1114.54 Q928.052 1114.44 929.147 1114.44 Q929.533 1114.44 929.727 1114.63 Q929.952 1114.8 929.984 1114.99 L929.984 1115.18 Z" fill="#000000" fill-rule="evenodd" fill-opacity="1" /><polyline clip-path="url(#clip203)" style="stroke:#000000; stroke-linecap:butt; stroke-linejoin:round; stroke-width:2; stroke-opacity:0.1; fill:none" points="
  260.403,876.603 1552.76,876.603 
  "/>
<polyline clip-path="url(#clip203)" style="stroke:#000000; stroke-linecap:butt; stroke-linejoin:round; stroke-width:2; stroke-opacity:0.1; fill:none" points="
  260.403,729.76 1552.76,729.76 
  "/>
<polyline clip-path="url(#clip203)" style="stroke:#000000; stroke-linecap:butt; stroke-linejoin:round; stroke-width:2; stroke-opacity:0.1; fill:none" points="
  260.403,582.918 1552.76,582.918 
  "/>
<polyline clip-path="url(#clip203)" style="stroke:#000000; stroke-linecap:butt; stroke-linejoin:round; stroke-width:2; stroke-opacity:0.1; fill:none" points="
  260.403,436.076 1552.76,436.076 
  "/>
<polyline clip-path="url(#clip203)" style="stroke:#000000; stroke-linecap:butt; stroke-linejoin:round; stroke-width:2; stroke-opacity:0.1; fill:none" points="
  260.403,289.234 1552.76,289.234 
  "/>
<polyline clip-path="url(#clip203)" style="stroke:#000000; stroke-linecap:butt; stroke-linejoin:round; stroke-width:2; stroke-opacity:0.1; fill:none" points="
  260.403,142.392 1552.76,142.392 
  "/>
<polyline clip-path="url(#clip200)" style="stroke:#000000; stroke-linecap:butt; stroke-linejoin:round; stroke-width:4; stroke-opacity:1; fill:none" points="
  260.403,1016.92 260.403,131.032 
  "/>
<polyline clip-path="url(#clip200)" style="stroke:#000000; stroke-linecap:butt; stroke-linejoin:round; stroke-width:4; stroke-opacity:1; fill:none" points="
  260.403,876.603 279.301,876.603 
  "/>
<polyline clip-path="url(#clip200)" style="stroke:#000000; stroke-linecap:butt; stroke-linejoin:round; stroke-width:4; stroke-opacity:1; fill:none" points="
  260.403,729.76 279.301,729.76 
  "/>
<polyline clip-path="url(#clip200)" style="stroke:#000000; stroke-linecap:butt; stroke-linejoin:round; stroke-width:4; stroke-opacity:1; fill:none" points="
  260.403,582.918 279.301,582.918 
  "/>
<polyline clip-path="url(#clip200)" style="stroke:#000000; stroke-linecap:butt; stroke-linejoin:round; stroke-width:4; stroke-opacity:1; fill:none" points="
  260.403,436.076 279.301,436.076 
  "/>
<polyline clip-path="url(#clip200)" style="stroke:#000000; stroke-linecap:butt; stroke-linejoin:round; stroke-width:4; stroke-opacity:1; fill:none" points="
  260.403,289.234 279.301,289.234 
  "/>
<polyline clip-path="url(#clip200)" style="stroke:#000000; stroke-linecap:butt; stroke-linejoin:round; stroke-width:4; stroke-opacity:1; fill:none" points="
  260.403,142.392 279.301,142.392 
  "/>
<path clip-path="url(#clip200)" d="M180.454 862.401 Q176.843 862.401 175.015 865.966 Q173.209 869.508 173.209 876.637 Q173.209 883.744 175.015 887.309 Q176.843 890.85 180.454 890.85 Q184.089 890.85 185.894 887.309 Q187.723 883.744 187.723 876.637 Q187.723 869.508 185.894 865.966 Q184.089 862.401 180.454 862.401 M180.454 858.698 Q186.265 858.698 189.32 863.304 Q192.399 867.887 192.399 876.637 Q192.399 885.364 189.32 889.971 Q186.265 894.554 180.454 894.554 Q174.644 894.554 171.566 889.971 Q168.51 885.364 168.51 876.637 Q168.51 867.887 171.566 863.304 Q174.644 858.698 180.454 858.698 Z" fill="#000000" fill-rule="evenodd" fill-opacity="1" /><path clip-path="url(#clip200)" d="M200.616 888.003 L205.501 888.003 L205.501 893.883 L200.616 893.883 L200.616 888.003 Z" fill="#000000" fill-rule="evenodd" fill-opacity="1" /><path clip-path="url(#clip200)" d="M216.496 889.947 L224.135 889.947 L224.135 863.582 L215.825 865.248 L215.825 860.989 L224.088 859.323 L228.764 859.323 L228.764 889.947 L236.403 889.947 L236.403 893.883 L216.496 893.883 L216.496 889.947 Z" fill="#000000" fill-rule="evenodd" fill-opacity="1" /><path clip-path="url(#clip200)" d="M180.825 715.559 Q177.214 715.559 175.385 719.124 Q173.579 722.666 173.579 729.795 Q173.579 736.902 175.385 740.466 Q177.214 744.008 180.825 744.008 Q184.459 744.008 186.265 740.466 Q188.093 736.902 188.093 729.795 Q188.093 722.666 186.265 719.124 Q184.459 715.559 180.825 715.559 M180.825 711.855 Q186.635 711.855 189.69 716.462 Q192.769 721.045 192.769 729.795 Q192.769 738.522 189.69 743.128 Q186.635 747.712 180.825 747.712 Q175.015 747.712 171.936 743.128 Q168.88 738.522 168.88 729.795 Q168.88 721.045 171.936 716.462 Q175.015 711.855 180.825 711.855 Z" fill="#000000" fill-rule="evenodd" fill-opacity="1" /><path clip-path="url(#clip200)" d="M200.987 741.161 L205.871 741.161 L205.871 747.04 L200.987 747.04 L200.987 741.161 Z" fill="#000000" fill-rule="evenodd" fill-opacity="1" /><path clip-path="url(#clip200)" d="M220.084 743.105 L236.403 743.105 L236.403 747.04 L214.459 747.04 L214.459 743.105 Q217.121 740.351 221.704 735.721 Q226.311 731.068 227.491 729.726 Q229.737 727.203 230.616 725.467 Q231.519 723.707 231.519 722.017 Q231.519 719.263 229.574 717.527 Q227.653 715.791 224.551 715.791 Q222.352 715.791 219.899 716.555 Q217.468 717.318 214.69 718.869 L214.69 714.147 Q217.514 713.013 219.968 712.434 Q222.422 711.855 224.459 711.855 Q229.829 711.855 233.024 714.541 Q236.218 717.226 236.218 721.717 Q236.218 723.846 235.408 725.767 Q234.621 727.666 232.514 730.258 Q231.936 730.929 228.834 734.147 Q225.732 737.341 220.084 743.105 Z" fill="#000000" fill-rule="evenodd" fill-opacity="1" /><path clip-path="url(#clip200)" d="M179.876 568.717 Q176.265 568.717 174.436 572.282 Q172.63 575.824 172.63 582.953 Q172.63 590.06 174.436 593.624 Q176.265 597.166 179.876 597.166 Q183.51 597.166 185.315 593.624 Q187.144 590.06 187.144 582.953 Q187.144 575.824 185.315 572.282 Q183.51 568.717 179.876 568.717 M179.876 565.013 Q185.686 565.013 188.741 569.62 Q191.82 574.203 191.82 582.953 Q191.82 591.68 188.741 596.286 Q185.686 600.87 179.876 600.87 Q174.066 600.87 170.987 596.286 Q167.931 591.68 167.931 582.953 Q167.931 574.203 170.987 569.62 Q174.066 565.013 179.876 565.013 Z" fill="#000000" fill-rule="evenodd" fill-opacity="1" /><path clip-path="url(#clip200)" d="M200.038 594.319 L204.922 594.319 L204.922 600.198 L200.038 600.198 L200.038 594.319 Z" fill="#000000" fill-rule="evenodd" fill-opacity="1" /><path clip-path="url(#clip200)" d="M229.274 581.564 Q232.63 582.282 234.505 584.55 Q236.403 586.819 236.403 590.152 Q236.403 595.268 232.885 598.069 Q229.366 600.87 222.885 600.87 Q220.709 600.87 218.394 600.43 Q216.102 600.013 213.649 599.157 L213.649 594.643 Q215.593 595.777 217.908 596.356 Q220.223 596.935 222.746 596.935 Q227.144 596.935 229.436 595.198 Q231.75 593.462 231.75 590.152 Q231.75 587.097 229.598 585.384 Q227.468 583.648 223.649 583.648 L219.621 583.648 L219.621 579.805 L223.834 579.805 Q227.283 579.805 229.112 578.439 Q230.94 577.05 230.94 574.458 Q230.94 571.796 229.042 570.384 Q227.167 568.949 223.649 568.949 Q221.727 568.949 219.528 569.365 Q217.329 569.782 214.69 570.662 L214.69 566.495 Q217.352 565.754 219.667 565.384 Q222.005 565.013 224.065 565.013 Q229.389 565.013 232.491 567.444 Q235.593 569.851 235.593 573.972 Q235.593 576.842 233.949 578.833 Q232.306 580.8 229.274 581.564 Z" fill="#000000" fill-rule="evenodd" fill-opacity="1" /><path clip-path="url(#clip200)" d="M178.741 421.875 Q175.13 421.875 173.302 425.44 Q171.496 428.981 171.496 436.111 Q171.496 443.218 173.302 446.782 Q175.13 450.324 178.741 450.324 Q182.376 450.324 184.181 446.782 Q186.01 443.218 186.01 436.111 Q186.01 428.981 184.181 425.44 Q182.376 421.875 178.741 421.875 M178.741 418.171 Q184.552 418.171 187.607 422.778 Q190.686 427.361 190.686 436.111 Q190.686 444.838 187.607 449.444 Q184.552 454.028 178.741 454.028 Q172.931 454.028 169.853 449.444 Q166.797 444.838 166.797 436.111 Q166.797 427.361 169.853 422.778 Q172.931 418.171 178.741 418.171 Z" fill="#000000" fill-rule="evenodd" fill-opacity="1" /><path clip-path="url(#clip200)" d="M198.903 447.477 L203.788 447.477 L203.788 453.356 L198.903 453.356 L198.903 447.477 Z" fill="#000000" fill-rule="evenodd" fill-opacity="1" /><path clip-path="url(#clip200)" d="M226.82 422.87 L215.014 441.319 L226.82 441.319 L226.82 422.87 M225.593 418.796 L231.473 418.796 L231.473 441.319 L236.403 441.319 L236.403 445.208 L231.473 445.208 L231.473 453.356 L226.82 453.356 L226.82 445.208 L211.218 445.208 L211.218 440.694 L225.593 418.796 Z" fill="#000000" fill-rule="evenodd" fill-opacity="1" /><path clip-path="url(#clip200)" d="M180.223 275.033 Q176.612 275.033 174.783 278.598 Q172.978 282.139 172.978 289.269 Q172.978 296.375 174.783 299.94 Q176.612 303.482 180.223 303.482 Q183.857 303.482 185.663 299.94 Q187.491 296.375 187.491 289.269 Q187.491 282.139 185.663 278.598 Q183.857 275.033 180.223 275.033 M180.223 271.329 Q186.033 271.329 189.089 275.936 Q192.167 280.519 192.167 289.269 Q192.167 297.996 189.089 302.602 Q186.033 307.186 180.223 307.186 Q174.413 307.186 171.334 302.602 Q168.279 297.996 168.279 289.269 Q168.279 280.519 171.334 275.936 Q174.413 271.329 180.223 271.329 Z" fill="#000000" fill-rule="evenodd" fill-opacity="1" /><path clip-path="url(#clip200)" d="M200.385 300.635 L205.269 300.635 L205.269 306.514 L200.385 306.514 L200.385 300.635 Z" fill="#000000" fill-rule="evenodd" fill-opacity="1" /><path clip-path="url(#clip200)" d="M215.5 271.954 L233.857 271.954 L233.857 275.889 L219.783 275.889 L219.783 284.362 Q220.801 284.014 221.82 283.852 Q222.838 283.667 223.857 283.667 Q229.644 283.667 233.024 286.838 Q236.403 290.01 236.403 295.426 Q236.403 301.005 232.931 304.107 Q229.459 307.186 223.139 307.186 Q220.963 307.186 218.695 306.815 Q216.45 306.445 214.042 305.704 L214.042 301.005 Q216.125 302.139 218.348 302.695 Q220.57 303.25 223.047 303.25 Q227.051 303.25 229.389 301.144 Q231.727 299.037 231.727 295.426 Q231.727 291.815 229.389 289.709 Q227.051 287.602 223.047 287.602 Q221.172 287.602 219.297 288.019 Q217.445 288.436 215.5 289.315 L215.5 271.954 Z" fill="#000000" fill-rule="evenodd" fill-opacity="1" /><path clip-path="url(#clip200)" d="M179.065 128.191 Q175.454 128.191 173.626 131.756 Q171.82 135.297 171.82 142.427 Q171.82 149.533 173.626 153.098 Q175.454 156.64 179.065 156.64 Q182.7 156.64 184.505 153.098 Q186.334 149.533 186.334 142.427 Q186.334 135.297 184.505 131.756 Q182.7 128.191 179.065 128.191 M179.065 124.487 Q184.876 124.487 187.931 129.094 Q191.01 133.677 191.01 142.427 Q191.01 151.154 187.931 155.76 Q184.876 160.344 179.065 160.344 Q173.255 160.344 170.177 155.76 Q167.121 151.154 167.121 142.427 Q167.121 133.677 170.177 129.094 Q173.255 124.487 179.065 124.487 Z" fill="#000000" fill-rule="evenodd" fill-opacity="1" /><path clip-path="url(#clip200)" d="M199.227 153.793 L204.112 153.793 L204.112 159.672 L199.227 159.672 L199.227 153.793 Z" fill="#000000" fill-rule="evenodd" fill-opacity="1" /><path clip-path="url(#clip200)" d="M224.875 140.529 Q221.727 140.529 219.875 142.682 Q218.047 144.834 218.047 148.584 Q218.047 152.311 219.875 154.487 Q221.727 156.64 224.875 156.64 Q228.024 156.64 229.852 154.487 Q231.704 152.311 231.704 148.584 Q231.704 144.834 229.852 142.682 Q228.024 140.529 224.875 140.529 M234.158 125.876 L234.158 130.135 Q232.399 129.302 230.593 128.862 Q228.811 128.422 227.051 128.422 Q222.422 128.422 219.968 131.547 Q217.538 134.672 217.19 140.992 Q218.556 138.978 220.616 137.913 Q222.676 136.825 225.153 136.825 Q230.362 136.825 233.371 139.996 Q236.403 143.145 236.403 148.584 Q236.403 153.908 233.255 157.126 Q230.107 160.344 224.875 160.344 Q218.88 160.344 215.709 155.76 Q212.538 151.154 212.538 142.427 Q212.538 134.233 216.426 129.371 Q220.315 124.487 226.866 124.487 Q228.625 124.487 230.408 124.834 Q232.213 125.182 234.158 125.876 Z" fill="#000000" fill-rule="evenodd" fill-opacity="1" /><path clip-path="url(#clip200)" d="M76.0943 773.818 Q76.3197 773.818 77.2859 774.366 Q78.2198 774.881 80.5709 776.781 Q82.9219 778.682 85.6594 781.516 Q86.7222 782.578 88.2037 784.189 Q89.6851 785.799 90.6513 786.894 L91.6175 787.989 Q95.1601 792.176 99.1215 795.847 Q99.0248 795.59 98.9926 795.139 Q98.9282 794.688 98.9282 794.366 L98.9282 794.044 Q98.9282 792.369 100.055 789.438 Q100.893 786.862 100.893 785.541 Q100.893 784.253 100.442 782.836 Q99.991 781.419 98.6706 779.873 Q97.3501 778.327 95.3534 777.619 Q95.0313 777.49 94.9347 777.426 Q94.8059 777.361 94.677 777.168 Q94.516 776.975 94.516 776.717 Q94.516 776.363 94.7092 776.137 Q94.9025 775.912 95.1601 775.912 Q95.7398 775.912 96.8992 776.363 Q98.0587 776.781 99.5079 777.715 Q100.957 778.617 102.278 779.809 Q103.566 780.968 104.468 782.707 Q105.337 784.446 105.337 786.282 Q105.337 787.603 104.693 788.569 Q104.081 789.535 102.89 790.501 Q101.376 791.822 100.893 792.53 Q100.377 793.239 100.377 794.334 Q100.377 797.264 104.468 799.937 Q105.047 800.227 105.176 800.421 Q105.337 800.582 105.337 800.968 Q105.305 801.773 104.661 801.773 Q104.403 801.773 103.276 801.065 Q102.117 800.324 100.088 798.681 Q98.0587 797.007 96.0297 794.978 L90.4903 789.052 Q84.9509 782.482 81.8269 779.873 Q81.8269 780.968 81.7947 781.451 Q81.7625 781.902 81.5693 782.804 Q81.3438 783.706 80.8607 784.962 Q79.8623 787.892 79.8623 789.116 Q79.8623 789.438 79.8946 789.793 Q79.9268 790.147 80.0878 790.952 Q80.2488 791.725 80.5709 792.369 Q80.8607 793.013 81.5048 793.689 Q82.1168 794.366 82.9541 794.72 Q83.2118 794.817 83.3406 794.881 Q83.4694 794.946 83.5982 795.139 Q83.6948 795.3 83.6948 795.557 Q83.6948 795.944 83.4694 796.169 Q83.244 796.363 82.9541 796.363 Q82.3744 796.363 81.1828 795.783 Q79.9912 795.203 78.7029 794.237 Q77.3825 793.271 76.4163 791.693 Q75.4501 790.115 75.4501 788.376 Q75.4501 787.345 75.901 786.475 Q76.3519 785.574 76.835 785.123 Q77.2859 784.64 78.2843 783.835 Q79.0572 783.158 79.3793 782.836 Q79.7013 782.514 80.0556 781.87 Q80.3776 781.194 80.3776 780.453 Q80.3776 779.229 79.4437 778.102 Q78.4775 776.975 76.1587 775.525 Q75.4501 775.139 75.4501 774.527 Q75.4501 773.818 76.0943 773.818 Z" fill="#000000" fill-rule="evenodd" fill-opacity="1" /><path clip-path="url(#clip200)" d="M94.5804 753.111 Q93.7753 753.046 93.7753 751.79 L93.7753 711.372 Q93.7753 709.472 94.516 709.44 Q95.3212 709.44 95.289 711.243 L95.289 751.339 Q95.3212 753.111 94.5804 753.111 M81.6981 753.111 Q80.8929 753.111 80.9251 751.726 L80.9251 711.436 Q80.9251 709.472 81.6981 709.44 Q82.4388 709.44 82.4388 711.114 L82.4388 751.79 Q82.4388 753.111 81.6981 753.111 Z" fill="#000000" fill-rule="evenodd" fill-opacity="1" /><path clip-path="url(#clip200)" d="M88.107 684.003 Q76.9638 684.003 67.9784 679.849 Q64.2103 678.077 61.0541 675.597 Q57.898 673.117 56.5131 671.475 Q55.1282 669.832 55.1282 669.382 Q55.1282 668.737 55.7724 668.705 Q56.0944 668.705 56.8996 669.575 Q67.7207 680.203 88.107 680.171 Q108.558 680.171 118.96 669.832 Q120.087 668.705 120.442 668.705 Q121.086 668.705 121.086 669.382 Q121.086 669.832 119.765 671.411 Q118.445 672.989 115.418 675.436 Q112.39 677.884 108.687 679.655 Q99.7012 684.003 88.107 684.003 Z" fill="#000000" fill-rule="evenodd" fill-opacity="1" /><path clip-path="url(#clip200)" d="M66.9478 659.998 L64.8866 659.998 Q64.8866 652.075 60.6677 647.985 Q60.6677 646.858 60.9253 646.664 Q61.1829 646.471 62.3746 646.471 L99.3791 646.471 Q101.344 646.471 101.956 645.505 Q102.567 644.539 102.567 640.32 L102.567 638.227 L104.596 638.227 Q104.403 640.545 104.403 648.919 Q104.403 657.292 104.596 659.579 L102.567 659.579 L102.567 657.486 Q102.567 653.331 101.988 652.333 Q101.376 651.334 99.3791 651.334 L65.2087 651.334 Q66.9478 654.78 66.9478 659.998 Z" fill="#000000" fill-rule="evenodd" fill-opacity="1" /><path clip-path="url(#clip200)" d="M87.1731 565.496 Q87.5595 565.11 88.107 565.11 Q88.6545 565.11 89.041 565.496 Q89.4275 565.883 89.4275 566.43 L89.4275 607.718 Q89.4275 608.266 89.041 608.652 Q88.6545 609.039 88.107 609.039 Q87.5595 609.039 87.1731 608.652 Q86.7866 608.266 86.7866 607.718 L86.7866 566.43 Q86.7866 565.883 87.1731 565.496 Z" fill="#000000" fill-rule="evenodd" fill-opacity="1" /><path clip-path="url(#clip200)" d="M40.8409 491.165 Q42.9343 491.165 45.5752 491.584 Q48.1839 492.003 51.2434 492.904 Q54.2708 493.806 57.2659 495.094 Q60.2289 496.383 62.9986 498.283 Q65.7361 500.151 67.8294 502.373 Q69.9228 504.595 71.1789 507.526 Q72.4349 510.457 72.4349 513.709 Q72.4349 516.35 71.5975 518.508 Q70.7602 520.666 69.5041 521.986 Q68.2159 523.307 66.6056 524.241 Q64.9953 525.143 63.5139 525.497 Q62.0324 525.851 60.7119 525.851 Q59.6492 525.851 58.4253 525.69 Q57.2015 525.497 55.2692 524.982 Q53.3046 524.434 51.1468 523.146 Q48.9568 521.825 47.0567 519.925 Q43.4818 516.35 42.1614 513.13 Q40.8409 509.909 40.8409 506.463 Q40.8409 502.824 43.0631 500.666 Q45.2853 498.476 48.6347 497.961 Q41.7427 496.093 37.3627 496.093 Q34.3031 496.093 31.9521 496.898 Q29.5689 497.671 28.184 499.024 Q26.7992 500.344 26.1229 502.019 Q25.4143 503.661 25.4143 505.529 Q25.4143 506.495 25.5754 507.462 Q25.7364 508.428 26.2195 509.845 Q26.6704 511.262 27.8298 512.647 Q28.9892 513.999 30.6961 515.03 Q30.6961 514.418 30.7605 514.064 Q30.7927 513.709 30.9859 513.13 Q31.147 512.55 31.6623 512.26 Q32.1776 511.938 32.9827 511.938 Q34.2387 511.938 35.3659 512.969 Q36.4931 513.967 36.4931 515.513 Q36.4931 516.833 35.7846 517.413 Q35.0761 517.993 34.1743 517.993 Q33.5302 517.993 32.403 517.639 Q31.2436 517.252 29.7299 516.318 Q28.2162 515.352 26.928 513.999 Q25.6076 512.614 24.7058 510.36 Q23.7718 508.106 23.7718 505.4 Q23.7718 499.185 28.4417 495.191 Q33.1115 491.165 40.8409 491.165 M50.9858 499.152 Q50.5349 499.152 50.084 499.185 Q49.6331 499.185 48.6992 499.346 Q47.7652 499.507 46.9922 499.764 Q46.2193 500.022 45.3175 500.569 Q44.3836 501.117 43.7717 501.858 Q43.1275 502.598 42.7089 503.79 Q42.2902 504.982 42.2902 506.463 Q42.2902 512.292 48.1517 516.415 Q50.7603 518.186 55.9777 519.474 Q61.1628 520.763 63.1274 520.763 Q63.5139 520.763 63.9325 520.73 Q64.3512 520.666 65.3496 520.505 Q66.3158 520.344 67.1209 519.861 Q67.9261 519.378 68.7956 518.637 Q69.633 517.896 70.1161 516.576 Q70.5991 515.223 70.5991 513.516 Q70.5991 510.65 69.0211 508.17 Q67.4108 505.658 65.0597 504.08 Q62.7087 502.47 59.939 501.31 Q57.1693 500.151 54.8505 499.668 Q52.5317 499.152 50.9858 499.152 Z" fill="#000000" fill-rule="evenodd" fill-opacity="1" /><path clip-path="url(#clip200)" d="M26.9924 487.748 Q25.9296 487.748 25.9296 486.299 L25.9296 449.359 L40.7765 447.523 L40.7765 449.23 Q36.4287 449.81 33.9167 450.84 Q31.4046 451.871 30.052 454.061 Q28.6993 456.219 28.3451 458.892 Q27.9908 461.565 27.9908 466.46 L27.9908 480.309 L46.7024 467.362 Q48.0228 466.428 48.4415 466.46 Q49.0212 466.46 50.2128 467.587 L68.2159 483.529 L68.2159 467.781 Q68.2159 464.753 68.1193 462.853 Q68.0227 460.921 67.765 458.892 Q67.4752 456.831 66.9277 455.639 Q66.3802 454.447 65.4784 453.256 Q64.5766 452.064 63.1596 451.388 Q61.7425 450.679 59.8424 450.132 Q57.91 449.584 55.3658 449.23 L55.3658 447.523 L70.9856 449.359 L70.9856 486.363 Q70.9856 487.684 70.1805 487.684 Q69.794 487.684 68.86 486.911 L51.34 471.323 Q50.4705 471.967 48.6347 473.191 L28.5061 487.104 Q27.3145 487.748 26.9924 487.748 Z" fill="#000000" fill-rule="evenodd" fill-opacity="1" /><path clip-path="url(#clip200)" d="
M90.0231 525.851 L90.0231 440.875 L86.5031 440.875 L86.5031 525.851  Z
  " fill="#000000" fill-rule="evenodd" fill-opacity="1"/>
<path clip-path="url(#clip200)" d="M120.719 489.165 Q122.812 489.165 125.453 489.584 Q128.062 490.003 131.121 490.904 Q134.149 491.806 137.144 493.094 Q140.107 494.383 142.876 496.283 Q145.614 498.151 147.707 500.373 Q149.801 502.595 151.057 505.526 Q152.313 508.457 152.313 511.709 Q152.313 514.35 151.475 516.508 Q150.638 518.666 149.382 519.986 Q148.094 521.307 146.484 522.241 Q144.873 523.143 143.392 523.497 Q141.91 523.851 140.59 523.851 Q139.527 523.851 138.303 523.69 Q137.079 523.497 135.147 522.982 Q133.183 522.434 131.025 521.146 Q128.835 519.825 126.935 517.925 Q123.36 514.35 122.039 511.13 Q120.719 507.909 120.719 504.463 Q120.719 500.824 122.941 498.666 Q125.163 496.476 128.513 495.961 Q121.621 494.093 117.241 494.093 Q114.181 494.093 111.83 494.898 Q109.447 495.671 108.062 497.024 Q106.677 498.344 106.001 500.019 Q105.292 501.661 105.292 503.529 Q105.292 504.495 105.453 505.462 Q105.614 506.428 106.097 507.845 Q106.548 509.262 107.708 510.647 Q108.867 511.999 110.574 513.03 Q110.574 512.418 110.638 512.064 Q110.671 511.709 110.864 511.13 Q111.025 510.55 111.54 510.26 Q112.055 509.938 112.861 509.938 Q114.117 509.938 115.244 510.969 Q116.371 511.967 116.371 513.513 Q116.371 514.833 115.663 515.413 Q114.954 515.993 114.052 515.993 Q113.408 515.993 112.281 515.639 Q111.121 515.252 109.608 514.318 Q108.094 513.352 106.806 511.999 Q105.485 510.614 104.584 508.36 Q103.65 506.106 103.65 503.4 Q103.65 497.185 108.32 493.191 Q112.989 489.165 120.719 489.165 M130.864 497.152 Q130.413 497.152 129.962 497.185 Q129.511 497.185 128.577 497.346 Q127.643 497.507 126.87 497.764 Q126.097 498.022 125.195 498.569 Q124.261 499.117 123.65 499.858 Q123.005 500.598 122.587 501.79 Q122.168 502.982 122.168 504.463 Q122.168 510.292 128.03 514.415 Q130.638 516.186 135.856 517.474 Q141.041 518.763 143.005 518.763 Q143.392 518.763 143.81 518.73 Q144.229 518.666 145.228 518.505 Q146.194 518.344 146.999 517.861 Q147.804 517.378 148.674 516.637 Q149.511 515.896 149.994 514.576 Q150.477 513.223 150.477 511.516 Q150.477 508.65 148.899 506.17 Q147.289 503.658 144.938 502.08 Q142.587 500.47 139.817 499.31 Q137.047 498.151 134.728 497.668 Q132.41 497.152 130.864 497.152 Z" fill="#000000" fill-rule="evenodd" fill-opacity="1" /><path clip-path="url(#clip200)" d="M126.323 449.155 Q129.318 449.155 135.115 450.669 Q137.627 451.281 139.914 452.118 Q142.168 452.923 144.358 454.115 Q146.548 455.306 148.126 456.691 Q149.672 458.076 150.638 459.88 Q151.604 461.683 151.604 463.68 Q151.604 466.836 149.736 468.704 Q147.836 470.54 144.583 471.119 Q151.604 475.435 151.604 481.2 Q151.604 484.775 149.06 486.449 Q146.484 488.124 142.168 488.124 Q138.529 488.124 134.761 487.158 Q127.611 485.322 122.619 481.747 Q122.039 481.264 122.039 480.556 Q122.039 480.137 122.168 479.944 Q122.522 479.364 123.102 479.364 Q123.521 479.364 123.939 479.686 Q127.063 481.941 129.736 483.422 Q132.41 484.904 135.115 485.58 Q137.434 486.095 139.398 486.095 Q142.715 486.095 144.777 484.678 Q146.838 483.229 146.838 480.363 Q146.838 477.722 145.195 475.403 Q143.521 473.084 140.719 471.377 Q137.659 471.28 134.761 470.54 Q131.669 469.863 131.669 468.285 Q131.669 467.029 133.376 467.029 Q133.955 467.029 135.115 467.287 Q138.174 467.996 140.912 469.284 Q143.585 468.833 145.228 467.158 Q146.838 465.483 146.838 462.81 Q146.838 460.331 145.034 458.141 Q143.231 455.918 140.59 454.501 Q137.917 453.052 134.761 452.247 Q133.698 451.989 132.345 451.989 Q128.738 451.989 126.516 454.501 Q125.807 455.21 124.873 455.21 Q123.778 455.21 122.78 454.308 Q121.717 453.245 121.717 451.989 Q121.717 451.055 122.297 450.476 Q123.456 449.155 126.323 449.155 Z" fill="#000000" fill-rule="evenodd" fill-opacity="1" /><path clip-path="url(#clip200)" d="M120.442 433.835 Q120.12 433.835 119.315 432.997 Q108.493 422.37 88.107 422.37 Q67.6563 422.37 57.3182 432.579 Q56.1266 433.835 55.7724 433.835 Q55.1282 433.835 55.1282 433.191 Q55.1282 432.74 56.4487 431.162 Q57.7691 429.551 60.7965 427.136 Q63.8238 424.688 67.5275 422.885 Q76.5129 418.537 88.107 418.537 Q99.2503 418.537 108.236 422.692 Q112.004 424.463 115.16 426.943 Q118.316 429.423 119.701 431.065 Q121.086 432.708 121.086 433.191 Q121.086 433.835 120.442 433.835 Z" fill="#000000" fill-rule="evenodd" fill-opacity="1" /><path clip-path="url(#clip200)" d="M52.5477 381.169 Q52.8182 380.899 53.2015 380.899 Q53.5847 380.899 53.8553 381.169 Q54.1258 381.44 54.1258 381.823 L54.1258 410.725 Q54.1258 411.108 53.8553 411.378 Q53.5847 411.649 53.2015 411.649 Q52.8182 411.649 52.5477 411.378 Q52.2772 411.108 52.2772 410.725 L52.2772 381.823 Q52.2772 381.44 52.5477 381.169 Z" fill="#000000" fill-rule="evenodd" fill-opacity="1" /><path clip-path="url(#clip200)" d="M38.39 376.082 L36.9472 376.082 Q36.9472 370.536 33.9939 367.673 Q33.9939 366.884 34.1742 366.749 Q34.3546 366.613 35.1887 366.613 L61.0919 366.613 Q62.4671 366.613 62.8954 365.937 Q63.3238 365.261 63.3238 362.307 L63.3238 360.842 L64.7441 360.842 Q64.6088 362.465 64.6088 368.327 Q64.6088 374.188 64.7441 375.789 L63.3238 375.789 L63.3238 374.323 Q63.3238 371.415 62.918 370.716 Q62.4896 370.017 61.0919 370.017 L37.1726 370.017 Q38.39 372.43 38.39 376.082 Z" fill="#000000" fill-rule="evenodd" fill-opacity="1" /><path clip-path="url(#clip200)" d="M809.695 28.7706 Q809.695 29.5494 809.531 30.2052 L807.236 44.7974 Q807.113 45.9041 806.867 46.314 Q806.662 46.7239 806.006 46.7239 Q804.981 46.7239 804.981 45.6582 Q804.981 45.0433 805.227 44.0596 Q805.924 39.4278 805.924 37.3373 Q805.924 35.9437 805.637 34.919 Q805.391 33.8533 804.981 33.1154 Q804.612 32.3776 803.752 31.8858 Q802.891 31.3939 802.071 31.107 Q801.251 30.82 799.776 30.6971 Q798.3 30.5331 797.029 30.4921 Q795.759 30.4511 793.668 30.4511 Q789.118 30.4511 788.381 30.6151 Q787.602 30.82 787.192 31.4349 Q786.823 32.0087 786.413 33.7303 L775.264 78.2856 L774.936 80.0482 Q774.936 81.0319 775.551 81.3598 Q776.166 81.6877 778.051 81.8927 Q780.757 82.0976 783.421 82.0976 Q783.503 82.0976 783.667 82.0976 Q784.569 82.0976 784.938 82.1386 Q785.306 82.1386 785.675 82.2206 Q786.044 82.3026 786.126 82.5075 Q786.249 82.6715 786.249 82.9994 Q786.249 83.7782 785.921 84.1881 Q785.593 84.557 785.265 84.639 Q784.979 84.68 784.405 84.68 Q783.257 84.68 780.798 84.598 Q778.338 84.516 777.109 84.516 L770.14 84.434 L763.008 84.516 Q761.902 84.516 759.565 84.598 Q757.229 84.68 756.122 84.68 Q754.687 84.68 754.687 83.6552 Q754.687 82.5075 755.22 82.3026 Q755.794 82.0976 758.213 82.0976 Q761.615 82.0976 763.459 81.9337 Q765.304 81.7697 766.287 81.1959 Q767.312 80.622 767.599 80.0482 Q767.886 79.4333 768.214 78.0397 L779.486 33.2384 Q779.814 32.2547 779.814 31.4759 Q779.814 31.066 779.691 30.902 Q779.609 30.7381 779.076 30.6151 Q778.543 30.4511 777.436 30.4511 L774.157 30.4511 Q770.796 30.4511 768.706 30.6151 Q766.656 30.7381 764.689 31.3529 Q762.762 31.9677 761.615 32.8285 Q760.508 33.6893 759.278 35.4518 Q758.049 37.2144 757.147 39.3458 Q756.286 41.4773 755.056 44.9613 Q754.646 46.109 754.401 46.437 Q754.196 46.7239 753.622 46.7239 Q753.212 46.7239 752.884 46.478 Q752.597 46.191 752.597 45.8221 Q753.007 44.4695 753.089 44.3055 L758.131 29.5084 Q758.54 28.3197 758.909 28.1148 Q759.319 27.8688 760.836 27.8688 L807.4 27.8688 Q808.137 27.8688 808.383 27.8688 Q808.629 27.8688 809.039 27.9508 Q809.449 28.0328 809.572 28.2377 Q809.695 28.4427 809.695 28.7706 Z" fill="#000000" fill-rule="evenodd" fill-opacity="1" /><path clip-path="url(#clip200)" d="M824.443 71.9323 Q824.525 70.9076 826.124 70.9076 L877.565 70.9076 Q879.984 70.9076 880.025 71.8503 Q880.025 72.875 877.729 72.8341 L826.697 72.8341 Q824.443 72.875 824.443 71.9323 M824.443 55.5366 Q824.443 54.5118 826.206 54.5528 L877.483 54.5528 Q879.984 54.5528 880.025 55.5366 Q880.025 56.4793 877.893 56.4793 L826.124 56.4793 Q824.443 56.4793 824.443 55.5366 Z" fill="#000000" fill-rule="evenodd" fill-opacity="1" /><path clip-path="url(#clip200)" d="M912.407 57.832 Q912.407 45.4942 915.522 38.772 Q919.867 28.7706 930.114 28.7706 Q932.287 28.7706 934.541 29.3854 Q936.836 29.9593 939.706 32.2137 Q942.616 34.4681 944.378 38.1571 Q947.74 45.2893 947.74 57.832 Q947.74 70.0878 944.624 76.769 Q940.075 86.5245 930.032 86.5245 Q926.261 86.5245 922.408 84.598 Q918.596 82.6715 916.178 78.0397 Q912.407 71.1125 912.407 57.832 M919.375 56.8072 Q919.375 69.4729 920.277 74.5146 Q921.301 79.9662 924.089 82.3436 Q926.917 84.68 930.032 84.68 Q933.393 84.68 936.181 82.1796 Q939.009 79.6383 939.87 74.1867 Q940.812 68.8171 940.771 56.8072 Q940.771 45.1253 939.952 40.4525 Q938.845 35.001 935.894 32.8285 Q932.983 30.6151 930.032 30.6151 Q928.925 30.6151 927.737 30.943 Q926.589 31.2709 924.908 32.2137 Q923.228 33.1564 921.916 35.4928 Q920.646 37.8292 920.031 41.3543 Q919.375 45.9041 919.375 56.8072 Z" fill="#000000" fill-rule="evenodd" fill-opacity="1" /><path clip-path="url(#clip200)" d="M955.25 83.3273 Q953.98 81.9747 953.98 80.2121 Q953.98 78.4496 955.25 77.1789 Q956.521 75.8673 958.447 75.8673 Q960.292 75.8673 961.522 77.0969 Q962.792 78.2856 962.792 80.2531 Q962.792 82.1796 961.44 83.4503 Q960.128 84.68 958.447 84.68 Q956.521 84.68 955.25 83.3273 Z" fill="#000000" fill-rule="evenodd" fill-opacity="1" /><path clip-path="url(#clip200)" d="M977.08 57.832 Q977.08 45.4942 980.195 38.772 Q984.54 28.7706 994.788 28.7706 Q996.96 28.7706 999.214 29.3854 Q1001.51 29.9593 1004.38 32.2137 Q1007.29 34.4681 1009.05 38.1571 Q1012.41 45.2893 1012.41 57.832 Q1012.41 70.0878 1009.3 76.769 Q1004.75 86.5245 994.706 86.5245 Q990.935 86.5245 987.082 84.598 Q983.27 82.6715 980.851 78.0397 Q977.08 71.1125 977.08 57.832 M984.048 56.8072 Q984.048 69.4729 984.95 74.5146 Q985.975 79.9662 988.762 82.3436 Q991.59 84.68 994.706 84.68 Q998.067 84.68 1000.85 82.1796 Q1003.68 79.6383 1004.54 74.1867 Q1005.49 68.8171 1005.44 56.8072 Q1005.44 45.1253 1004.63 40.4525 Q1003.52 35.001 1000.57 32.8285 Q997.657 30.6151 994.706 30.6151 Q993.599 30.6151 992.41 30.943 Q991.263 31.2709 989.582 32.2137 Q987.901 33.1564 986.59 35.4928 Q985.319 37.8292 984.704 41.3543 Q984.048 45.9041 984.048 56.8072 Z" fill="#000000" fill-rule="evenodd" fill-opacity="1" /><path clip-path="url(#clip200)" d="M1018.99 71.1535 Q1018.99 68.6532 1020.34 67.7104 Q1021.69 66.7267 1023.13 66.7267 Q1025.06 66.7267 1026.16 67.9563 Q1027.31 69.145 1027.31 70.8256 Q1027.31 72.5061 1026.16 73.7358 Q1025.06 74.9245 1023.13 74.9245 Q1022.19 74.9245 1021.69 74.7606 Q1022.8 78.6135 1026.16 81.4008 Q1029.56 84.1881 1034.03 84.1881 Q1039.65 84.1881 1043.01 78.7365 Q1045.02 75.2114 1045.02 67.2185 Q1045.02 60.1684 1043.5 56.6433 Q1041.16 51.2737 1036.37 51.2737 Q1029.56 51.2737 1025.55 57.1352 Q1025.06 57.873 1024.48 57.914 Q1023.66 57.914 1023.46 57.4631 Q1023.29 56.9712 1023.29 55.7005 L1023.29 30.861 Q1023.29 28.8526 1024.11 28.8526 Q1024.44 28.8526 1025.14 29.0985 Q1030.43 31.4349 1036.29 31.4759 Q1042.31 31.4759 1047.72 29.0165 Q1048.13 28.7706 1048.38 28.7706 Q1049.2 28.7706 1049.24 29.7133 Q1049.24 30.0413 1048.54 31.025 Q1047.89 31.9677 1046.45 33.2384 Q1045.02 34.4681 1043.17 35.6568 Q1041.33 36.8455 1038.62 37.6653 Q1035.96 38.4441 1033.01 38.4441 Q1029.48 38.4441 1025.88 37.3373 L1025.88 53.6921 Q1030.22 49.4292 1036.53 49.4292 Q1043.25 49.4292 1047.89 54.8398 Q1052.52 60.2503 1052.52 67.7924 Q1052.52 75.7033 1047.03 81.1139 Q1041.57 86.5245 1034.2 86.5245 Q1027.47 86.5245 1023.21 81.7287 Q1018.99 76.933 1018.99 71.1535 Z" fill="#000000" fill-rule="evenodd" fill-opacity="1" /><polyline clip-path="url(#clip203)" style="stroke:#009af9; stroke-linecap:butt; stroke-linejoin:round; stroke-width:4; stroke-opacity:1; fill:none" points="
  296.979,156.104 361.148,183.334 425.316,212.059 489.485,242.499 553.653,274.964 617.821,309.918 681.99,348.119 746.158,390.981 810.327,441.754 874.495,513.081 
  938.664,976.272 1002.83,978.708 1067,980.899 1131.17,982.884 1195.34,984.696 1259.51,986.358 1323.67,987.889 1387.84,989.306 1452.01,990.622 1516.18,991.848 
  
  "/>
<circle clip-path="url(#clip203)" cx="296.979" cy="156.104" r="14" fill="#009af9" fill-rule="evenodd" fill-opacity="1" stroke="#000000" stroke-opacity="1" stroke-width="2.4"/>
<circle clip-path="url(#clip203)" cx="361.148" cy="183.334" r="14" fill="#009af9" fill-rule="evenodd" fill-opacity="1" stroke="#000000" stroke-opacity="1" stroke-width="2.4"/>
<circle clip-path="url(#clip203)" cx="425.316" cy="212.059" r="14" fill="#009af9" fill-rule="evenodd" fill-opacity="1" stroke="#000000" stroke-opacity="1" stroke-width="2.4"/>
<circle clip-path="url(#clip203)" cx="489.485" cy="242.499" r="14" fill="#009af9" fill-rule="evenodd" fill-opacity="1" stroke="#000000" stroke-opacity="1" stroke-width="2.4"/>
<circle clip-path="url(#clip203)" cx="553.653" cy="274.964" r="14" fill="#009af9" fill-rule="evenodd" fill-opacity="1" stroke="#000000" stroke-opacity="1" stroke-width="2.4"/>
<circle clip-path="url(#clip203)" cx="617.821" cy="309.918" r="14" fill="#009af9" fill-rule="evenodd" fill-opacity="1" stroke="#000000" stroke-opacity="1" stroke-width="2.4"/>
<circle clip-path="url(#clip203)" cx="681.99" cy="348.119" r="14" fill="#009af9" fill-rule="evenodd" fill-opacity="1" stroke="#000000" stroke-opacity="1" stroke-width="2.4"/>
<circle clip-path="url(#clip203)" cx="746.158" cy="390.981" r="14" fill="#009af9" fill-rule="evenodd" fill-opacity="1" stroke="#000000" stroke-opacity="1" stroke-width="2.4"/>
<circle clip-path="url(#clip203)" cx="810.327" cy="441.754" r="14" fill="#009af9" fill-rule="evenodd" fill-opacity="1" stroke="#000000" stroke-opacity="1" stroke-width="2.4"/>
<circle clip-path="url(#clip203)" cx="874.495" cy="513.081" r="14" fill="#009af9" fill-rule="evenodd" fill-opacity="1" stroke="#000000" stroke-opacity="1" stroke-width="2.4"/>
<circle clip-path="url(#clip203)" cx="938.664" cy="976.272" r="14" fill="#009af9" fill-rule="evenodd" fill-opacity="1" stroke="#000000" stroke-opacity="1" stroke-width="2.4"/>
<circle clip-path="url(#clip203)" cx="1002.83" cy="978.708" r="14" fill="#009af9" fill-rule="evenodd" fill-opacity="1" stroke="#000000" stroke-opacity="1" stroke-width="2.4"/>
<circle clip-path="url(#clip203)" cx="1067" cy="980.899" r="14" fill="#009af9" fill-rule="evenodd" fill-opacity="1" stroke="#000000" stroke-opacity="1" stroke-width="2.4"/>
<circle clip-path="url(#clip203)" cx="1131.17" cy="982.884" r="14" fill="#009af9" fill-rule="evenodd" fill-opacity="1" stroke="#000000" stroke-opacity="1" stroke-width="2.4"/>
<circle clip-path="url(#clip203)" cx="1195.34" cy="984.696" r="14" fill="#009af9" fill-rule="evenodd" fill-opacity="1" stroke="#000000" stroke-opacity="1" stroke-width="2.4"/>
<circle clip-path="url(#clip203)" cx="1259.51" cy="986.358" r="14" fill="#009af9" fill-rule="evenodd" fill-opacity="1" stroke="#000000" stroke-opacity="1" stroke-width="2.4"/>
<circle clip-path="url(#clip203)" cx="1323.67" cy="987.889" r="14" fill="#009af9" fill-rule="evenodd" fill-opacity="1" stroke="#000000" stroke-opacity="1" stroke-width="2.4"/>
<circle clip-path="url(#clip203)" cx="1387.84" cy="989.306" r="14" fill="#009af9" fill-rule="evenodd" fill-opacity="1" stroke="#000000" stroke-opacity="1" stroke-width="2.4"/>
<circle clip-path="url(#clip203)" cx="1452.01" cy="990.622" r="14" fill="#009af9" fill-rule="evenodd" fill-opacity="1" stroke="#000000" stroke-opacity="1" stroke-width="2.4"/>
<circle clip-path="url(#clip203)" cx="1516.18" cy="991.848" r="14" fill="#009af9" fill-rule="evenodd" fill-opacity="1" stroke="#000000" stroke-opacity="1" stroke-width="2.4"/>
</svg>
