<?xml version="1.0" encoding="utf-8"?>
<svg xmlns="http://www.w3.org/2000/svg" xmlns:xlink="http://www.w3.org/1999/xlink" width="600" height="400" viewBox="0 0 2400 1600">
<defs>
  <clipPath id="clip170">
    <rect x="0" y="0" width="2400" height="1600"/>
  </clipPath>
</defs>
<path clip-path="url(#clip170)" d="
M0 1600 L2400 1600 L2400 0 L0 0  Z
  " fill="#ffffff" fill-rule="evenodd" fill-opacity="1"/>
<defs>
  <clipPath id="clip171">
    <rect x="480" y="0" width="1681" height="1600"/>
  </clipPath>
</defs>
<path clip-path="url(#clip170)" d="
M189.496 1486.45 L2352.76 1486.45 L2352.76 47.2441 L189.496 47.2441  Z
  " fill="#ffffff" fill-rule="evenodd" fill-opacity="1"/>
<defs>
  <clipPath id="clip172">
    <rect x="189" y="47" width="2164" height="1440"/>
  </clipPath>
</defs>
<polyline clip-path="url(#clip172)" style="stroke:#000000; stroke-linecap:butt; stroke-linejoin:round; stroke-width:2; stroke-opacity:0.1; fill:none" points="
  230.712,1486.45 230.712,47.2441 
  "/>
<polyline clip-path="url(#clip172)" style="stroke:#000000; stroke-linecap:butt; stroke-linejoin:round; stroke-width:2; stroke-opacity:0.1; fill:none" points="
  730.911,1486.45 730.911,47.2441 
  "/>
<polyline clip-path="url(#clip172)" style="stroke:#000000; stroke-linecap:butt; stroke-linejoin:round; stroke-width:2; stroke-opacity:0.1; fill:none" points="
  1231.11,1486.45 1231.11,47.2441 
  "/>
<polyline clip-path="url(#clip172)" style="stroke:#000000; stroke-linecap:butt; stroke-linejoin:round; stroke-width:2; stroke-opacity:0.1; fill:none" points="
  1731.31,1486.45 1731.31,47.2441 
  "/>
<polyline clip-path="url(#clip172)" style="stroke:#000000; stroke-linecap:butt; stroke-linejoin:round; stroke-width:2; stroke-opacity:0.1; fill:none" points="
  2231.51,1486.45 2231.51,47.2441 
  "/>
<polyline clip-path="url(#clip170)" style="stroke:#000000; stroke-linecap:butt; stroke-linejoin:round; stroke-width:4; stroke-opacity:1; fill:none" points="
  189.496,1486.45 2352.76,1486.45 
  "/>
<polyline clip-path="url(#clip170)" style="stroke:#000000; stroke-linecap:butt; stroke-linejoin:round; stroke-width:4; stroke-opacity:1; fill:none" points="
  230.712,1486.45 230.712,1467.55 
  "/>
<polyline clip-path="url(#clip170)" style="stroke:#000000; stroke-linecap:butt; stroke-linejoin:round; stroke-width:4; stroke-opacity:1; fill:none" points="
  730.911,1486.45 730.911,1467.55 
  "/>
<polyline clip-path="url(#clip170)" style="stroke:#000000; stroke-linecap:butt; stroke-linejoin:round; stroke-width:4; stroke-opacity:1; fill:none" points="
  1231.11,1486.45 1231.11,1467.55 
  "/>
<polyline clip-path="url(#clip170)" style="stroke:#000000; stroke-linecap:butt; stroke-linejoin:round; stroke-width:4; stroke-opacity:1; fill:none" points="
  1731.31,1486.45 1731.31,1467.55 
  "/>
<polyline clip-path="url(#clip170)" style="stroke:#000000; stroke-linecap:butt; stroke-linejoin:round; stroke-width:4; stroke-opacity:1; fill:none" points="
  2231.51,1486.45 2231.51,1467.55 
  "/>
<path clip-path="url(#clip170)" d="M230.712 1517.37 Q227.101 1517.37 225.273 1520.93 Q223.467 1524.47 223.467 1531.6 Q223.467 1538.71 225.273 1542.27 Q227.101 1545.82 230.712 1545.82 Q234.347 1545.82 236.152 1542.27 Q237.981 1538.71 237.981 1531.6 Q237.981 1524.47 236.152 1520.93 Q234.347 1517.37 230.712 1517.37 M230.712 1513.66 Q236.522 1513.66 239.578 1518.27 Q242.657 1522.85 242.657 1531.6 Q242.657 1540.33 239.578 1544.94 Q236.522 1549.52 230.712 1549.52 Q224.902 1549.52 221.823 1544.94 Q218.768 1540.33 218.768 1531.6 Q218.768 1522.85 221.823 1518.27 Q224.902 1513.66 230.712 1513.66 Z" fill="#000000" fill-rule="evenodd" fill-opacity="1" /><path clip-path="url(#clip170)" d="M710.182 1544.91 L726.501 1544.91 L726.501 1548.85 L704.557 1548.85 L704.557 1544.91 Q707.219 1542.16 711.802 1537.53 Q716.409 1532.88 717.589 1531.53 Q719.835 1529.01 720.714 1527.27 Q721.617 1525.51 721.617 1523.82 Q721.617 1521.07 719.673 1519.33 Q717.752 1517.6 714.65 1517.6 Q712.451 1517.6 709.997 1518.36 Q707.566 1519.13 704.789 1520.68 L704.789 1515.95 Q707.613 1514.82 710.066 1514.24 Q712.52 1513.66 714.557 1513.66 Q719.927 1513.66 723.122 1516.35 Q726.316 1519.03 726.316 1523.52 Q726.316 1525.65 725.506 1527.57 Q724.719 1529.47 722.613 1532.07 Q722.034 1532.74 718.932 1535.95 Q715.83 1539.15 710.182 1544.91 Z" fill="#000000" fill-rule="evenodd" fill-opacity="1" /><path clip-path="url(#clip170)" d="M736.363 1514.29 L754.719 1514.29 L754.719 1518.22 L740.645 1518.22 L740.645 1526.7 Q741.663 1526.35 742.682 1526.19 Q743.7 1526 744.719 1526 Q750.506 1526 753.886 1529.17 Q757.265 1532.34 757.265 1537.76 Q757.265 1543.34 753.793 1546.44 Q750.321 1549.52 744.001 1549.52 Q741.825 1549.52 739.557 1549.15 Q737.312 1548.78 734.904 1548.04 L734.904 1543.34 Q736.988 1544.47 739.21 1545.03 Q741.432 1545.58 743.909 1545.58 Q747.913 1545.58 750.251 1543.48 Q752.589 1541.37 752.589 1537.76 Q752.589 1534.15 750.251 1532.04 Q747.913 1529.94 743.909 1529.94 Q742.034 1529.94 740.159 1530.35 Q738.307 1530.77 736.363 1531.65 L736.363 1514.29 Z" fill="#000000" fill-rule="evenodd" fill-opacity="1" /><path clip-path="url(#clip170)" d="M1205.81 1514.29 L1224.17 1514.29 L1224.17 1518.22 L1210.09 1518.22 L1210.09 1526.7 Q1211.11 1526.35 1212.13 1526.19 Q1213.15 1526 1214.17 1526 Q1219.95 1526 1223.33 1529.17 Q1226.71 1532.34 1226.71 1537.76 Q1226.71 1543.34 1223.24 1546.44 Q1219.77 1549.52 1213.45 1549.52 Q1211.27 1549.52 1209 1549.15 Q1206.76 1548.78 1204.35 1548.04 L1204.35 1543.34 Q1206.43 1544.47 1208.66 1545.03 Q1210.88 1545.58 1213.36 1545.58 Q1217.36 1545.58 1219.7 1543.48 Q1222.04 1541.37 1222.04 1537.76 Q1222.04 1534.15 1219.7 1532.04 Q1217.36 1529.94 1213.36 1529.94 Q1211.48 1529.94 1209.61 1530.35 Q1207.75 1530.77 1205.81 1531.65 L1205.81 1514.29 Z" fill="#000000" fill-rule="evenodd" fill-opacity="1" /><path clip-path="url(#clip170)" d="M1245.92 1517.37 Q1242.31 1517.37 1240.48 1520.93 Q1238.68 1524.47 1238.68 1531.6 Q1238.68 1538.71 1240.48 1542.27 Q1242.31 1545.82 1245.92 1545.82 Q1249.56 1545.82 1251.36 1542.27 Q1253.19 1538.71 1253.19 1531.6 Q1253.19 1524.47 1251.36 1520.93 Q1249.56 1517.37 1245.92 1517.37 M1245.92 1513.66 Q1251.73 1513.66 1254.79 1518.27 Q1257.87 1522.85 1257.87 1531.6 Q1257.87 1540.33 1254.79 1544.94 Q1251.73 1549.52 1245.92 1549.52 Q1240.11 1549.52 1237.04 1544.94 Q1233.98 1540.33 1233.98 1531.6 Q1233.98 1522.85 1237.04 1518.27 Q1240.11 1513.66 1245.92 1513.66 Z" fill="#000000" fill-rule="evenodd" fill-opacity="1" /><path clip-path="url(#clip170)" d="M1705.16 1514.29 L1727.39 1514.29 L1727.39 1516.28 L1714.84 1548.85 L1709.95 1548.85 L1721.76 1518.22 L1705.16 1518.22 L1705.16 1514.29 Z" fill="#000000" fill-rule="evenodd" fill-opacity="1" /><path clip-path="url(#clip170)" d="M1736.55 1514.29 L1754.91 1514.29 L1754.91 1518.22 L1740.83 1518.22 L1740.83 1526.7 Q1741.85 1526.35 1742.87 1526.19 Q1743.89 1526 1744.91 1526 Q1750.7 1526 1754.07 1529.17 Q1757.45 1532.34 1757.45 1537.76 Q1757.45 1543.34 1753.98 1546.44 Q1750.51 1549.52 1744.19 1549.52 Q1742.01 1549.52 1739.75 1549.15 Q1737.5 1548.78 1735.09 1548.04 L1735.09 1543.34 Q1737.18 1544.47 1739.4 1545.03 Q1741.62 1545.58 1744.1 1545.58 Q1748.1 1545.58 1750.44 1543.48 Q1752.78 1541.37 1752.78 1537.76 Q1752.78 1534.15 1750.44 1532.04 Q1748.1 1529.94 1744.1 1529.94 Q1742.22 1529.94 1740.35 1530.35 Q1738.5 1530.77 1736.55 1531.65 L1736.55 1514.29 Z" fill="#000000" fill-rule="evenodd" fill-opacity="1" /><path clip-path="url(#clip170)" d="M2191.11 1544.91 L2198.75 1544.91 L2198.75 1518.55 L2190.44 1520.21 L2190.44 1515.95 L2198.71 1514.29 L2203.38 1514.29 L2203.38 1544.91 L2211.02 1544.91 L2211.02 1548.85 L2191.11 1548.85 L2191.11 1544.91 Z" fill="#000000" fill-rule="evenodd" fill-opacity="1" /><path clip-path="url(#clip170)" d="M2230.47 1517.37 Q2226.85 1517.37 2225.03 1520.93 Q2223.22 1524.47 2223.22 1531.6 Q2223.22 1538.71 2225.03 1542.27 Q2226.85 1545.82 2230.47 1545.82 Q2234.1 1545.82 2235.91 1542.27 Q2237.73 1538.71 2237.73 1531.6 Q2237.73 1524.47 2235.91 1520.93 Q2234.1 1517.37 2230.47 1517.37 M2230.47 1513.66 Q2236.28 1513.66 2239.33 1518.27 Q2242.41 1522.85 2242.41 1531.6 Q2242.41 1540.33 2239.33 1544.94 Q2236.28 1549.52 2230.47 1549.52 Q2224.66 1549.52 2221.58 1544.94 Q2218.52 1540.33 2218.52 1531.6 Q2218.52 1522.85 2221.58 1518.27 Q2224.66 1513.66 2230.47 1513.66 Z" fill="#000000" fill-rule="evenodd" fill-opacity="1" /><path clip-path="url(#clip170)" d="M2260.63 1517.37 Q2257.02 1517.37 2255.19 1520.93 Q2253.38 1524.47 2253.38 1531.6 Q2253.38 1538.71 2255.19 1542.27 Q2257.02 1545.82 2260.63 1545.82 Q2264.26 1545.82 2266.07 1542.27 Q2267.9 1538.71 2267.9 1531.6 Q2267.9 1524.47 2266.07 1520.93 Q2264.26 1517.37 2260.63 1517.37 M2260.63 1513.66 Q2266.44 1513.66 2269.49 1518.27 Q2272.57 1522.85 2272.57 1531.6 Q2272.57 1540.33 2269.49 1544.94 Q2266.44 1549.52 2260.63 1549.52 Q2254.82 1549.52 2251.74 1544.94 Q2248.68 1540.33 2248.68 1531.6 Q2248.68 1522.85 2251.74 1518.27 Q2254.82 1513.66 2260.63 1513.66 Z" fill="#000000" fill-rule="evenodd" fill-opacity="1" /><polyline clip-path="url(#clip172)" style="stroke:#000000; stroke-linecap:butt; stroke-linejoin:round; stroke-width:2; stroke-opacity:0.1; fill:none" points="
  189.496,1486.45 2352.76,1486.45 
  "/>
<polyline clip-path="url(#clip172)" style="stroke:#000000; stroke-linecap:butt; stroke-linejoin:round; stroke-width:2; stroke-opacity:0.1; fill:none" points="
  189.496,1246.58 2352.76,1246.58 
  "/>
<polyline clip-path="url(#clip172)" style="stroke:#000000; stroke-linecap:butt; stroke-linejoin:round; stroke-width:2; stroke-opacity:0.1; fill:none" points="
  189.496,1006.71 2352.76,1006.71 
  "/>
<polyline clip-path="url(#clip172)" style="stroke:#000000; stroke-linecap:butt; stroke-linejoin:round; stroke-width:2; stroke-opacity:0.1; fill:none" points="
  189.496,766.846 2352.76,766.846 
  "/>
<polyline clip-path="url(#clip172)" style="stroke:#000000; stroke-linecap:butt; stroke-linejoin:round; stroke-width:2; stroke-opacity:0.1; fill:none" points="
  189.496,526.979 2352.76,526.979 
  "/>
<polyline clip-path="url(#clip172)" style="stroke:#000000; stroke-linecap:butt; stroke-linejoin:round; stroke-width:2; stroke-opacity:0.1; fill:none" points="
  189.496,287.111 2352.76,287.111 
  "/>
<polyline clip-path="url(#clip172)" style="stroke:#000000; stroke-linecap:butt; stroke-linejoin:round; stroke-width:2; stroke-opacity:0.1; fill:none" points="
  189.496,47.2441 2352.76,47.2441 
  "/>
<polyline clip-path="url(#clip170)" style="stroke:#000000; stroke-linecap:butt; stroke-linejoin:round; stroke-width:4; stroke-opacity:1; fill:none" points="
  189.496,1486.45 189.496,47.2441 
  "/>
<polyline clip-path="url(#clip170)" style="stroke:#000000; stroke-linecap:butt; stroke-linejoin:round; stroke-width:4; stroke-opacity:1; fill:none" points="
  189.496,1486.45 208.394,1486.45 
  "/>
<polyline clip-path="url(#clip170)" style="stroke:#000000; stroke-linecap:butt; stroke-linejoin:round; stroke-width:4; stroke-opacity:1; fill:none" points="
  189.496,1246.58 208.394,1246.58 
  "/>
<polyline clip-path="url(#clip170)" style="stroke:#000000; stroke-linecap:butt; stroke-linejoin:round; stroke-width:4; stroke-opacity:1; fill:none" points="
  189.496,1006.71 208.394,1006.71 
  "/>
<polyline clip-path="url(#clip170)" style="stroke:#000000; stroke-linecap:butt; stroke-linejoin:round; stroke-width:4; stroke-opacity:1; fill:none" points="
  189.496,766.846 208.394,766.846 
  "/>
<polyline clip-path="url(#clip170)" style="stroke:#000000; stroke-linecap:butt; stroke-linejoin:round; stroke-width:4; stroke-opacity:1; fill:none" points="
  189.496,526.979 208.394,526.979 
  "/>
<polyline clip-path="url(#clip170)" style="stroke:#000000; stroke-linecap:butt; stroke-linejoin:round; stroke-width:4; stroke-opacity:1; fill:none" points="
  189.496,287.111 208.394,287.111 
  "/>
<polyline clip-path="url(#clip170)" style="stroke:#000000; stroke-linecap:butt; stroke-linejoin:round; stroke-width:4; stroke-opacity:1; fill:none" points="
  189.496,47.2441 208.394,47.2441 
  "/>
<path clip-path="url(#clip170)" d="M52.8671 1506.24 L60.506 1506.24 L60.506 1479.87 L52.1958 1481.54 L52.1958 1477.28 L60.4597 1475.62 L65.1356 1475.62 L65.1356 1506.24 L72.7744 1506.24 L72.7744 1510.18 L52.8671 1510.18 L52.8671 1506.24 Z" fill="#000000" fill-rule="evenodd" fill-opacity="1" /><path clip-path="url(#clip170)" d="M92.2188 1478.69 Q88.6077 1478.69 86.779 1482.26 Q84.9734 1485.8 84.9734 1492.93 Q84.9734 1500.04 86.779 1503.6 Q88.6077 1507.14 92.2188 1507.14 Q95.853 1507.14 97.6585 1503.6 Q99.4872 1500.04 99.4872 1492.93 Q99.4872 1485.8 97.6585 1482.26 Q95.853 1478.69 92.2188 1478.69 M92.2188 1474.99 Q98.0289 1474.99 101.084 1479.6 Q104.163 1484.18 104.163 1492.93 Q104.163 1501.66 101.084 1506.26 Q98.0289 1510.85 92.2188 1510.85 Q86.4086 1510.85 83.3299 1506.26 Q80.2744 1501.66 80.2744 1492.93 Q80.2744 1484.18 83.3299 1479.6 Q86.4086 1474.99 92.2188 1474.99 Z" fill="#000000" fill-rule="evenodd" fill-opacity="1" /><path clip-path="url(#clip170)" d="M104.163 1469.09 L128.275 1469.09 L128.275 1472.29 L104.163 1472.29 L104.163 1469.09 Z" fill="#000000" fill-rule="evenodd" fill-opacity="1" /><path clip-path="url(#clip170)" d="M136.513 1454.69 L151.427 1454.69 L151.427 1457.88 L139.992 1457.88 L139.992 1464.77 Q140.819 1464.48 141.647 1464.35 Q142.475 1464.2 143.302 1464.2 Q148.004 1464.2 150.75 1466.78 Q153.496 1469.36 153.496 1473.76 Q153.496 1478.29 150.675 1480.81 Q147.854 1483.31 142.719 1483.31 Q140.951 1483.31 139.108 1483.01 Q137.284 1482.71 135.328 1482.11 L135.328 1478.29 Q137.02 1479.21 138.826 1479.66 Q140.631 1480.11 142.644 1480.11 Q145.898 1480.11 147.797 1478.4 Q149.697 1476.69 149.697 1473.76 Q149.697 1470.82 147.797 1469.11 Q145.898 1467.4 142.644 1467.4 Q141.12 1467.4 139.597 1467.74 Q138.092 1468.08 136.513 1468.79 L136.513 1454.69 Z" fill="#000000" fill-rule="evenodd" fill-opacity="1" /><path clip-path="url(#clip170)" d="M51.6634 1266.37 L59.3023 1266.37 L59.3023 1240.01 L50.9921 1241.67 L50.9921 1237.41 L59.256 1235.75 L63.9319 1235.75 L63.9319 1266.37 L71.5707 1266.37 L71.5707 1270.31 L51.6634 1270.31 L51.6634 1266.37 Z" fill="#000000" fill-rule="evenodd" fill-opacity="1" /><path clip-path="url(#clip170)" d="M91.0151 1238.83 Q87.404 1238.83 85.5753 1242.39 Q83.7697 1245.93 83.7697 1253.06 Q83.7697 1260.17 85.5753 1263.73 Q87.404 1267.28 91.0151 1267.28 Q94.6493 1267.28 96.4548 1263.73 Q98.2835 1260.17 98.2835 1253.06 Q98.2835 1245.93 96.4548 1242.39 Q94.6493 1238.83 91.0151 1238.83 M91.0151 1235.12 Q96.8252 1235.12 99.8808 1239.73 Q102.959 1244.31 102.959 1253.06 Q102.959 1261.79 99.8808 1266.4 Q96.8252 1270.98 91.0151 1270.98 Q85.2049 1270.98 82.1262 1266.4 Q79.0707 1261.79 79.0707 1253.06 Q79.0707 1244.31 82.1262 1239.73 Q85.2049 1235.12 91.0151 1235.12 Z" fill="#000000" fill-rule="evenodd" fill-opacity="1" /><path clip-path="url(#clip170)" d="M102.959 1229.22 L127.071 1229.22 L127.071 1232.42 L102.959 1232.42 L102.959 1229.22 Z" fill="#000000" fill-rule="evenodd" fill-opacity="1" /><path clip-path="url(#clip170)" d="M145.71 1218.13 L136.118 1233.12 L145.71 1233.12 L145.71 1218.13 M144.713 1214.82 L149.49 1214.82 L149.49 1233.12 L153.496 1233.12 L153.496 1236.28 L149.49 1236.28 L149.49 1242.9 L145.71 1242.9 L145.71 1236.28 L133.033 1236.28 L133.033 1232.61 L144.713 1214.82 Z" fill="#000000" fill-rule="evenodd" fill-opacity="1" /><path clip-path="url(#clip170)" d="M52.585 1026.51 L60.2238 1026.51 L60.2238 1000.14 L51.9137 1001.81 L51.9137 997.548 L60.1776 995.881 L64.8535 995.881 L64.8535 1026.51 L72.4923 1026.51 L72.4923 1030.44 L52.585 1030.44 L52.585 1026.51 Z" fill="#000000" fill-rule="evenodd" fill-opacity="1" /><path clip-path="url(#clip170)" d="M91.9366 998.96 Q88.3255 998.96 86.4969 1002.52 Q84.6913 1006.07 84.6913 1013.2 Q84.6913 1020.3 86.4969 1023.87 Q88.3255 1027.41 91.9366 1027.41 Q95.5709 1027.41 97.3764 1023.87 Q99.2051 1020.3 99.2051 1013.2 Q99.2051 1006.07 97.3764 1002.52 Q95.5709 998.96 91.9366 998.96 M91.9366 995.256 Q97.7468 995.256 100.802 999.862 Q103.881 1004.45 103.881 1013.2 Q103.881 1021.92 100.802 1026.53 Q97.7468 1031.11 91.9366 1031.11 Q86.1265 1031.11 83.0478 1026.53 Q79.9923 1021.92 79.9923 1013.2 Q79.9923 1004.45 83.0478 999.862 Q86.1265 995.256 91.9366 995.256 Z" fill="#000000" fill-rule="evenodd" fill-opacity="1" /><path clip-path="url(#clip170)" d="M103.881 989.357 L127.993 989.357 L127.993 992.555 L103.881 992.555 L103.881 989.357 Z" fill="#000000" fill-rule="evenodd" fill-opacity="1" /><path clip-path="url(#clip170)" d="M147.703 987.89 Q150.43 988.473 151.954 990.316 Q153.496 992.16 153.496 994.868 Q153.496 999.024 150.637 1001.3 Q147.778 1003.58 142.512 1003.58 Q140.744 1003.58 138.863 1003.22 Q137.002 1002.88 135.008 1002.18 L135.008 998.517 Q136.588 999.438 138.469 999.908 Q140.349 1000.38 142.399 1000.38 Q145.973 1000.38 147.835 998.968 Q149.716 997.557 149.716 994.868 Q149.716 992.385 147.966 990.994 Q146.236 989.583 143.133 989.583 L139.86 989.583 L139.86 986.461 L143.283 986.461 Q146.086 986.461 147.571 985.351 Q149.057 984.223 149.057 982.116 Q149.057 979.953 147.515 978.806 Q145.992 977.64 143.133 977.64 Q141.572 977.64 139.785 977.979 Q137.998 978.317 135.854 979.032 L135.854 975.646 Q138.017 975.045 139.898 974.744 Q141.797 974.443 143.471 974.443 Q147.797 974.443 150.317 976.417 Q152.838 978.373 152.838 981.721 Q152.838 984.053 151.502 985.671 Q150.167 987.27 147.703 987.89 Z" fill="#000000" fill-rule="evenodd" fill-opacity="1" /><path clip-path="url(#clip170)" d="M53.3561 786.638 L60.995 786.638 L60.995 760.273 L52.6848 761.939 L52.6848 757.68 L60.9487 756.014 L65.6246 756.014 L65.6246 786.638 L73.2634 786.638 L73.2634 790.574 L53.3561 790.574 L53.3561 786.638 Z" fill="#000000" fill-rule="evenodd" fill-opacity="1" /><path clip-path="url(#clip170)" d="M92.7078 759.092 Q89.0967 759.092 87.268 762.657 Q85.4624 766.199 85.4624 773.328 Q85.4624 780.435 87.268 784 Q89.0967 787.541 92.7078 787.541 Q96.342 787.541 98.1475 784 Q99.9762 780.435 99.9762 773.328 Q99.9762 766.199 98.1475 762.657 Q96.342 759.092 92.7078 759.092 M92.7078 755.389 Q98.5179 755.389 101.573 759.995 Q104.652 764.578 104.652 773.328 Q104.652 782.055 101.573 786.662 Q98.5179 791.245 92.7078 791.245 Q86.8976 791.245 83.8189 786.662 Q80.7634 782.055 80.7634 773.328 Q80.7634 764.578 83.8189 759.995 Q86.8976 755.389 92.7078 755.389 Z" fill="#000000" fill-rule="evenodd" fill-opacity="1" /><path clip-path="url(#clip170)" d="M104.652 749.49 L128.764 749.49 L128.764 752.687 L104.652 752.687 L104.652 749.49 Z" fill="#000000" fill-rule="evenodd" fill-opacity="1" /><path clip-path="url(#clip170)" d="M140.236 759.966 L153.496 759.966 L153.496 763.163 L135.666 763.163 L135.666 759.966 Q137.829 757.728 141.553 753.966 Q145.296 750.186 146.255 749.095 Q148.079 747.045 148.794 745.634 Q149.527 744.205 149.527 742.832 Q149.527 740.594 147.948 739.183 Q146.387 737.773 143.866 737.773 Q142.08 737.773 140.086 738.393 Q138.111 739.014 135.854 740.274 L135.854 736.437 Q138.149 735.516 140.142 735.046 Q142.136 734.575 143.791 734.575 Q148.155 734.575 150.75 736.757 Q153.345 738.939 153.345 742.587 Q153.345 744.318 152.687 745.879 Q152.048 747.421 150.336 749.528 Q149.866 750.073 147.346 752.687 Q144.826 755.283 140.236 759.966 Z" fill="#000000" fill-rule="evenodd" fill-opacity="1" /><path clip-path="url(#clip170)" d="M53.0552 546.771 L60.694 546.771 L60.694 520.406 L52.3839 522.072 L52.3839 517.813 L60.6477 516.146 L65.3236 516.146 L65.3236 546.771 L72.9625 546.771 L72.9625 550.706 L53.0552 550.706 L53.0552 546.771 Z" fill="#000000" fill-rule="evenodd" fill-opacity="1" /><path clip-path="url(#clip170)" d="M92.4068 519.225 Q88.7957 519.225 86.967 522.79 Q85.1615 526.331 85.1615 533.461 Q85.1615 540.567 86.967 544.132 Q88.7957 547.674 92.4068 547.674 Q96.0411 547.674 97.8466 544.132 Q99.6753 540.567 99.6753 533.461 Q99.6753 526.331 97.8466 522.79 Q96.0411 519.225 92.4068 519.225 M92.4068 515.521 Q98.217 515.521 101.273 520.128 Q104.351 524.711 104.351 533.461 Q104.351 542.188 101.273 546.794 Q98.217 551.378 92.4068 551.378 Q86.5967 551.378 83.518 546.794 Q80.4625 542.188 80.4625 533.461 Q80.4625 524.711 83.518 520.128 Q86.5967 515.521 92.4068 515.521 Z" fill="#000000" fill-rule="evenodd" fill-opacity="1" /><path clip-path="url(#clip170)" d="M104.351 509.623 L128.463 509.623 L128.463 512.82 L104.351 512.82 L104.351 509.623 Z" fill="#000000" fill-rule="evenodd" fill-opacity="1" /><path clip-path="url(#clip170)" d="M137.321 520.099 L143.528 520.099 L143.528 498.677 L136.776 500.031 L136.776 496.57 L143.49 495.216 L147.289 495.216 L147.289 520.099 L153.496 520.099 L153.496 523.296 L137.321 523.296 L137.321 520.099 Z" fill="#000000" fill-rule="evenodd" fill-opacity="1" /><path clip-path="url(#clip170)" d="M82.7903 306.904 L90.4291 306.904 L90.4291 280.538 L82.119 282.205 L82.119 277.946 L90.3828 276.279 L95.0587 276.279 L95.0587 306.904 L102.698 306.904 L102.698 310.839 L82.7903 310.839 L82.7903 306.904 Z" fill="#000000" fill-rule="evenodd" fill-opacity="1" /><path clip-path="url(#clip170)" d="M122.142 279.358 Q118.531 279.358 116.702 282.922 Q114.897 286.464 114.897 293.594 Q114.897 300.7 116.702 304.265 Q118.531 307.807 122.142 307.807 Q125.776 307.807 127.582 304.265 Q129.41 300.7 129.41 293.594 Q129.41 286.464 127.582 282.922 Q125.776 279.358 122.142 279.358 M122.142 275.654 Q127.952 275.654 131.008 280.26 Q134.086 284.844 134.086 293.594 Q134.086 302.321 131.008 306.927 Q127.952 311.51 122.142 311.51 Q116.332 311.51 113.253 306.927 Q110.198 302.321 110.198 293.594 Q110.198 284.844 113.253 280.26 Q116.332 275.654 122.142 275.654 Z" fill="#000000" fill-rule="evenodd" fill-opacity="1" /><path clip-path="url(#clip170)" d="M143.791 257.85 Q140.857 257.85 139.371 260.746 Q137.904 263.624 137.904 269.417 Q137.904 275.191 139.371 278.087 Q140.857 280.965 143.791 280.965 Q146.744 280.965 148.211 278.087 Q149.697 275.191 149.697 269.417 Q149.697 263.624 148.211 260.746 Q146.744 257.85 143.791 257.85 M143.791 254.841 Q148.512 254.841 150.994 258.584 Q153.496 262.307 153.496 269.417 Q153.496 276.507 150.994 280.25 Q148.512 283.974 143.791 283.974 Q139.07 283.974 136.569 280.25 Q134.086 276.507 134.086 269.417 Q134.086 262.307 136.569 258.584 Q139.07 254.841 143.791 254.841 Z" fill="#000000" fill-rule="evenodd" fill-opacity="1" /><path clip-path="url(#clip170)" d="M85.4798 67.0365 L93.1186 67.0365 L93.1186 40.6709 L84.8085 42.3376 L84.8085 38.0784 L93.0723 36.4117 L97.7482 36.4117 L97.7482 67.0365 L105.387 67.0365 L105.387 70.9717 L85.4798 70.9717 L85.4798 67.0365 Z" fill="#000000" fill-rule="evenodd" fill-opacity="1" /><path clip-path="url(#clip170)" d="M124.831 39.4904 Q121.22 39.4904 119.392 43.0552 Q117.586 46.5968 117.586 53.7264 Q117.586 60.8329 119.392 64.3977 Q121.22 67.9393 124.831 67.9393 Q128.466 67.9393 130.271 64.3977 Q132.1 60.8329 132.1 53.7264 Q132.1 46.5968 130.271 43.0552 Q128.466 39.4904 124.831 39.4904 M124.831 35.7867 Q130.642 35.7867 133.697 40.3932 Q136.776 44.9765 136.776 53.7264 Q136.776 62.4532 133.697 67.0597 Q130.642 71.643 124.831 71.643 Q119.021 71.643 115.943 67.0597 Q112.887 62.4532 112.887 53.7264 Q112.887 44.9765 115.943 40.3932 Q119.021 35.7867 124.831 35.7867 Z" fill="#000000" fill-rule="evenodd" fill-opacity="1" /><path clip-path="url(#clip170)" d="M137.321 40.364 L143.528 40.364 L143.528 18.9419 L136.776 20.2961 L136.776 16.8355 L143.49 15.4813 L147.289 15.4813 L147.289 40.364 L153.496 40.364 L153.496 43.5613 L137.321 43.5613 L137.321 40.364 Z" fill="#000000" fill-rule="evenodd" fill-opacity="1" /><polyline clip-path="url(#clip172)" style="stroke:#009af9; stroke-linecap:butt; stroke-linejoin:round; stroke-width:4; stroke-opacity:1; fill:none" points="
  250.72,308.32 290.736,319.002 330.752,400.105 370.768,522.136 410.784,690.982 450.8,976.573 490.816,853.465 530.832,887.088 570.848,947.931 610.863,1020.88 
  650.879,1100.56 690.895,1184.29 730.911,1270.45 770.927,1357.99 810.943,1446.14 850.959,1534.4 890.975,1622.4 930.991,1709.94 971.007,1796.92 1011.02,1883.31 
  1051.04,1969.13 1091.05,2054.45 1131.07,2139.34 1171.09,2223.88 1211.1,2308.14 1251.12,2392.19 1291.13,2476.09 1331.15,2559.88 1371.17,2643.61 1411.18,2727.32 
  1451.2,2811.03 1491.21,2894.77 1531.23,2978.56 1571.25,3062.42 1611.26,3146.36 1651.28,3230.39 1691.29,3314.53 1731.31,3398.79 1771.32,3483.17 1811.34,3567.68 
  1851.36,3652.33 1891.37,3737.12 1931.39,3822.06 1971.4,3907.15 2011.42,3992.39 2051.44,4077.79 2091.45,4163.36 2131.47,4249.09 2171.48,4334.98 2211.5,4421.05 
  2251.52,4507.28 2291.53,4593.69 
  "/>
<line clip-path="url(#clip172)" x1="250.72" y1="308.32" x2="250.72" y2="292.32" style="stroke:#009af9; stroke-width:3.2; stroke-opacity:1"/>
<line clip-path="url(#clip172)" x1="250.72" y1="308.32" x2="234.72" y2="308.32" style="stroke:#009af9; stroke-width:3.2; stroke-opacity:1"/>
<line clip-path="url(#clip172)" x1="250.72" y1="308.32" x2="250.72" y2="324.32" style="stroke:#009af9; stroke-width:3.2; stroke-opacity:1"/>
<line clip-path="url(#clip172)" x1="250.72" y1="308.32" x2="266.72" y2="308.32" style="stroke:#009af9; stroke-width:3.2; stroke-opacity:1"/>
<line clip-path="url(#clip172)" x1="290.736" y1="319.002" x2="290.736" y2="303.002" style="stroke:#009af9; stroke-width:3.2; stroke-opacity:1"/>
<line clip-path="url(#clip172)" x1="290.736" y1="319.002" x2="274.736" y2="319.002" style="stroke:#009af9; stroke-width:3.2; stroke-opacity:1"/>
<line clip-path="url(#clip172)" x1="290.736" y1="319.002" x2="290.736" y2="335.002" style="stroke:#009af9; stroke-width:3.2; stroke-opacity:1"/>
<line clip-path="url(#clip172)" x1="290.736" y1="319.002" x2="306.736" y2="319.002" style="stroke:#009af9; stroke-width:3.2; stroke-opacity:1"/>
<line clip-path="url(#clip172)" x1="330.752" y1="400.105" x2="330.752" y2="384.105" style="stroke:#009af9; stroke-width:3.2; stroke-opacity:1"/>
<line clip-path="url(#clip172)" x1="330.752" y1="400.105" x2="314.752" y2="400.105" style="stroke:#009af9; stroke-width:3.2; stroke-opacity:1"/>
<line clip-path="url(#clip172)" x1="330.752" y1="400.105" x2="330.752" y2="416.105" style="stroke:#009af9; stroke-width:3.2; stroke-opacity:1"/>
<line clip-path="url(#clip172)" x1="330.752" y1="400.105" x2="346.752" y2="400.105" style="stroke:#009af9; stroke-width:3.2; stroke-opacity:1"/>
<line clip-path="url(#clip172)" x1="370.768" y1="522.136" x2="370.768" y2="506.136" style="stroke:#009af9; stroke-width:3.2; stroke-opacity:1"/>
<line clip-path="url(#clip172)" x1="370.768" y1="522.136" x2="354.768" y2="522.136" style="stroke:#009af9; stroke-width:3.2; stroke-opacity:1"/>
<line clip-path="url(#clip172)" x1="370.768" y1="522.136" x2="370.768" y2="538.136" style="stroke:#009af9; stroke-width:3.2; stroke-opacity:1"/>
<line clip-path="url(#clip172)" x1="370.768" y1="522.136" x2="386.768" y2="522.136" style="stroke:#009af9; stroke-width:3.2; stroke-opacity:1"/>
<line clip-path="url(#clip172)" x1="410.784" y1="690.982" x2="410.784" y2="674.982" style="stroke:#009af9; stroke-width:3.2; stroke-opacity:1"/>
<line clip-path="url(#clip172)" x1="410.784" y1="690.982" x2="394.784" y2="690.982" style="stroke:#009af9; stroke-width:3.2; stroke-opacity:1"/>
<line clip-path="url(#clip172)" x1="410.784" y1="690.982" x2="410.784" y2="706.982" style="stroke:#009af9; stroke-width:3.2; stroke-opacity:1"/>
<line clip-path="url(#clip172)" x1="410.784" y1="690.982" x2="426.784" y2="690.982" style="stroke:#009af9; stroke-width:3.2; stroke-opacity:1"/>
<line clip-path="url(#clip172)" x1="450.8" y1="976.573" x2="450.8" y2="960.573" style="stroke:#009af9; stroke-width:3.2; stroke-opacity:1"/>
<line clip-path="url(#clip172)" x1="450.8" y1="976.573" x2="434.8" y2="976.573" style="stroke:#009af9; stroke-width:3.2; stroke-opacity:1"/>
<line clip-path="url(#clip172)" x1="450.8" y1="976.573" x2="450.8" y2="992.573" style="stroke:#009af9; stroke-width:3.2; stroke-opacity:1"/>
<line clip-path="url(#clip172)" x1="450.8" y1="976.573" x2="466.8" y2="976.573" style="stroke:#009af9; stroke-width:3.2; stroke-opacity:1"/>
<line clip-path="url(#clip172)" x1="490.816" y1="853.465" x2="490.816" y2="837.465" style="stroke:#009af9; stroke-width:3.2; stroke-opacity:1"/>
<line clip-path="url(#clip172)" x1="490.816" y1="853.465" x2="474.816" y2="853.465" style="stroke:#009af9; stroke-width:3.2; stroke-opacity:1"/>
<line clip-path="url(#clip172)" x1="490.816" y1="853.465" x2="490.816" y2="869.465" style="stroke:#009af9; stroke-width:3.2; stroke-opacity:1"/>
<line clip-path="url(#clip172)" x1="490.816" y1="853.465" x2="506.816" y2="853.465" style="stroke:#009af9; stroke-width:3.2; stroke-opacity:1"/>
<line clip-path="url(#clip172)" x1="530.832" y1="887.088" x2="530.832" y2="871.088" style="stroke:#009af9; stroke-width:3.2; stroke-opacity:1"/>
<line clip-path="url(#clip172)" x1="530.832" y1="887.088" x2="514.832" y2="887.088" style="stroke:#009af9; stroke-width:3.2; stroke-opacity:1"/>
<line clip-path="url(#clip172)" x1="530.832" y1="887.088" x2="530.832" y2="903.088" style="stroke:#009af9; stroke-width:3.2; stroke-opacity:1"/>
<line clip-path="url(#clip172)" x1="530.832" y1="887.088" x2="546.832" y2="887.088" style="stroke:#009af9; stroke-width:3.2; stroke-opacity:1"/>
<line clip-path="url(#clip172)" x1="570.848" y1="947.931" x2="570.848" y2="931.931" style="stroke:#009af9; stroke-width:3.2; stroke-opacity:1"/>
<line clip-path="url(#clip172)" x1="570.848" y1="947.931" x2="554.848" y2="947.931" style="stroke:#009af9; stroke-width:3.2; stroke-opacity:1"/>
<line clip-path="url(#clip172)" x1="570.848" y1="947.931" x2="570.848" y2="963.931" style="stroke:#009af9; stroke-width:3.2; stroke-opacity:1"/>
<line clip-path="url(#clip172)" x1="570.848" y1="947.931" x2="586.848" y2="947.931" style="stroke:#009af9; stroke-width:3.2; stroke-opacity:1"/>
<line clip-path="url(#clip172)" x1="610.863" y1="1020.88" x2="610.863" y2="1004.88" style="stroke:#009af9; stroke-width:3.2; stroke-opacity:1"/>
<line clip-path="url(#clip172)" x1="610.863" y1="1020.88" x2="594.863" y2="1020.88" style="stroke:#009af9; stroke-width:3.2; stroke-opacity:1"/>
<line clip-path="url(#clip172)" x1="610.863" y1="1020.88" x2="610.863" y2="1036.88" style="stroke:#009af9; stroke-width:3.2; stroke-opacity:1"/>
<line clip-path="url(#clip172)" x1="610.863" y1="1020.88" x2="626.863" y2="1020.88" style="stroke:#009af9; stroke-width:3.2; stroke-opacity:1"/>
<line clip-path="url(#clip172)" x1="650.879" y1="1100.56" x2="650.879" y2="1084.56" style="stroke:#009af9; stroke-width:3.2; stroke-opacity:1"/>
<line clip-path="url(#clip172)" x1="650.879" y1="1100.56" x2="634.879" y2="1100.56" style="stroke:#009af9; stroke-width:3.2; stroke-opacity:1"/>
<line clip-path="url(#clip172)" x1="650.879" y1="1100.56" x2="650.879" y2="1116.56" style="stroke:#009af9; stroke-width:3.2; stroke-opacity:1"/>
<line clip-path="url(#clip172)" x1="650.879" y1="1100.56" x2="666.879" y2="1100.56" style="stroke:#009af9; stroke-width:3.2; stroke-opacity:1"/>
<line clip-path="url(#clip172)" x1="690.895" y1="1184.29" x2="690.895" y2="1168.29" style="stroke:#009af9; stroke-width:3.2; stroke-opacity:1"/>
<line clip-path="url(#clip172)" x1="690.895" y1="1184.29" x2="674.895" y2="1184.29" style="stroke:#009af9; stroke-width:3.2; stroke-opacity:1"/>
<line clip-path="url(#clip172)" x1="690.895" y1="1184.29" x2="690.895" y2="1200.29" style="stroke:#009af9; stroke-width:3.2; stroke-opacity:1"/>
<line clip-path="url(#clip172)" x1="690.895" y1="1184.29" x2="706.895" y2="1184.29" style="stroke:#009af9; stroke-width:3.2; stroke-opacity:1"/>
<line clip-path="url(#clip172)" x1="730.911" y1="1270.45" x2="730.911" y2="1254.45" style="stroke:#009af9; stroke-width:3.2; stroke-opacity:1"/>
<line clip-path="url(#clip172)" x1="730.911" y1="1270.45" x2="714.911" y2="1270.45" style="stroke:#009af9; stroke-width:3.2; stroke-opacity:1"/>
<line clip-path="url(#clip172)" x1="730.911" y1="1270.45" x2="730.911" y2="1286.45" style="stroke:#009af9; stroke-width:3.2; stroke-opacity:1"/>
<line clip-path="url(#clip172)" x1="730.911" y1="1270.45" x2="746.911" y2="1270.45" style="stroke:#009af9; stroke-width:3.2; stroke-opacity:1"/>
<line clip-path="url(#clip172)" x1="770.927" y1="1357.99" x2="770.927" y2="1341.99" style="stroke:#009af9; stroke-width:3.2; stroke-opacity:1"/>
<line clip-path="url(#clip172)" x1="770.927" y1="1357.99" x2="754.927" y2="1357.99" style="stroke:#009af9; stroke-width:3.2; stroke-opacity:1"/>
<line clip-path="url(#clip172)" x1="770.927" y1="1357.99" x2="770.927" y2="1373.99" style="stroke:#009af9; stroke-width:3.2; stroke-opacity:1"/>
<line clip-path="url(#clip172)" x1="770.927" y1="1357.99" x2="786.927" y2="1357.99" style="stroke:#009af9; stroke-width:3.2; stroke-opacity:1"/>
<line clip-path="url(#clip172)" x1="810.943" y1="1446.14" x2="810.943" y2="1430.14" style="stroke:#009af9; stroke-width:3.2; stroke-opacity:1"/>
<line clip-path="url(#clip172)" x1="810.943" y1="1446.14" x2="794.943" y2="1446.14" style="stroke:#009af9; stroke-width:3.2; stroke-opacity:1"/>
<line clip-path="url(#clip172)" x1="810.943" y1="1446.14" x2="810.943" y2="1462.14" style="stroke:#009af9; stroke-width:3.2; stroke-opacity:1"/>
<line clip-path="url(#clip172)" x1="810.943" y1="1446.14" x2="826.943" y2="1446.14" style="stroke:#009af9; stroke-width:3.2; stroke-opacity:1"/>
<path clip-path="url(#clip170)" d="
M1987.85 198.898 L2280.65 198.898 L2280.65 95.2176 L1987.85 95.2176  Z
  " fill="#ffffff" fill-rule="evenodd" fill-opacity="1"/>
<polyline clip-path="url(#clip170)" style="stroke:#000000; stroke-linecap:butt; stroke-linejoin:round; stroke-width:4; stroke-opacity:1; fill:none" points="
  1987.85,198.898 2280.65,198.898 2280.65,95.2176 1987.85,95.2176 1987.85,198.898 
  "/>
<polyline clip-path="url(#clip170)" style="stroke:#009af9; stroke-linecap:butt; stroke-linejoin:round; stroke-width:4; stroke-opacity:1; fill:none" points="
  2011.89,147.058 2156.11,147.058 
  "/>
<line clip-path="url(#clip170)" x1="2084" y1="147.058" x2="2084" y2="121.458" style="stroke:#009af9; stroke-width:5.12; stroke-opacity:1"/>
<line clip-path="url(#clip170)" x1="2084" y1="147.058" x2="2058.4" y2="147.058" style="stroke:#009af9; stroke-width:5.12; stroke-opacity:1"/>
<line clip-path="url(#clip170)" x1="2084" y1="147.058" x2="2084" y2="172.658" style="stroke:#009af9; stroke-width:5.12; stroke-opacity:1"/>
<line clip-path="url(#clip170)" x1="2084" y1="147.058" x2="2109.6" y2="147.058" style="stroke:#009af9; stroke-width:5.12; stroke-opacity:1"/>
<path clip-path="url(#clip170)" d="M2193.99 166.745 Q2192.18 171.375 2190.47 172.787 Q2188.76 174.199 2185.89 174.199 L2182.48 174.199 L2182.48 170.634 L2184.98 170.634 Q2186.74 170.634 2187.71 169.8 Q2188.69 168.967 2189.87 165.865 L2190.63 163.921 L2180.14 138.412 L2184.66 138.412 L2192.76 158.689 L2200.86 138.412 L2205.38 138.412 L2193.99 166.745 Z" fill="#000000" fill-rule="evenodd" fill-opacity="1" /><path clip-path="url(#clip170)" d="M2212.67 160.402 L2220.31 160.402 L2220.31 134.037 L2212 135.703 L2212 131.444 L2220.26 129.778 L2224.94 129.778 L2224.94 160.402 L2232.57 160.402 L2232.57 164.338 L2212.67 164.338 L2212.67 160.402 Z" fill="#000000" fill-rule="evenodd" fill-opacity="1" /></svg>
