<?xml version="1.0" encoding="utf-8"?>
<svg xmlns="http://www.w3.org/2000/svg" xmlns:xlink="http://www.w3.org/1999/xlink" width="600" height="400" viewBox="0 0 2400 1600">
<defs>
  <clipPath id="clip540">
    <rect x="0" y="0" width="2400" height="1600"/>
  </clipPath>
</defs>
<path clip-path="url(#clip540)" d="
M0 1600 L2400 1600 L2400 0 L0 0  Z
  " fill="#ffffff" fill-rule="evenodd" fill-opacity="1"/>
<defs>
  <clipPath id="clip541">
    <rect x="480" y="0" width="1681" height="1600"/>
  </clipPath>
</defs>
<path clip-path="url(#clip540)" d="
M219.866 1423.18 L2352.76 1423.18 L2352.76 47.2441 L219.866 47.2441  Z
  " fill="#ffffff" fill-rule="evenodd" fill-opacity="1"/>
<defs>
  <clipPath id="clip542">
    <rect x="219" y="47" width="2134" height="1377"/>
  </clipPath>
</defs>
<polyline clip-path="url(#clip542)" style="stroke:#000000; stroke-linecap:butt; stroke-linejoin:round; stroke-width:2; stroke-opacity:0.1; fill:none" points="
  280.231,1423.18 280.231,47.2441 
  "/>
<polyline clip-path="url(#clip542)" style="stroke:#000000; stroke-linecap:butt; stroke-linejoin:round; stroke-width:2; stroke-opacity:0.1; fill:none" points="
  783.271,1423.18 783.271,47.2441 
  "/>
<polyline clip-path="url(#clip542)" style="stroke:#000000; stroke-linecap:butt; stroke-linejoin:round; stroke-width:2; stroke-opacity:0.1; fill:none" points="
  1286.31,1423.18 1286.31,47.2441 
  "/>
<polyline clip-path="url(#clip542)" style="stroke:#000000; stroke-linecap:butt; stroke-linejoin:round; stroke-width:2; stroke-opacity:0.1; fill:none" points="
  1789.35,1423.18 1789.35,47.2441 
  "/>
<polyline clip-path="url(#clip542)" style="stroke:#000000; stroke-linecap:butt; stroke-linejoin:round; stroke-width:2; stroke-opacity:0.1; fill:none" points="
  2292.39,1423.18 2292.39,47.2441 
  "/>
<polyline clip-path="url(#clip540)" style="stroke:#000000; stroke-linecap:butt; stroke-linejoin:round; stroke-width:4; stroke-opacity:1; fill:none" points="
  219.866,1423.18 2352.76,1423.18 
  "/>
<polyline clip-path="url(#clip540)" style="stroke:#000000; stroke-linecap:butt; stroke-linejoin:round; stroke-width:4; stroke-opacity:1; fill:none" points="
  280.231,1423.18 280.231,1404.28 
  "/>
<polyline clip-path="url(#clip540)" style="stroke:#000000; stroke-linecap:butt; stroke-linejoin:round; stroke-width:4; stroke-opacity:1; fill:none" points="
  783.271,1423.18 783.271,1404.28 
  "/>
<polyline clip-path="url(#clip540)" style="stroke:#000000; stroke-linecap:butt; stroke-linejoin:round; stroke-width:4; stroke-opacity:1; fill:none" points="
  1286.31,1423.18 1286.31,1404.28 
  "/>
<polyline clip-path="url(#clip540)" style="stroke:#000000; stroke-linecap:butt; stroke-linejoin:round; stroke-width:4; stroke-opacity:1; fill:none" points="
  1789.35,1423.18 1789.35,1404.28 
  "/>
<polyline clip-path="url(#clip540)" style="stroke:#000000; stroke-linecap:butt; stroke-linejoin:round; stroke-width:4; stroke-opacity:1; fill:none" points="
  2292.39,1423.18 2292.39,1404.28 
  "/>
<path clip-path="url(#clip540)" d="M226.759 1468.75 L256.435 1468.75 L256.435 1472.69 L226.759 1472.69 L226.759 1468.75 Z" fill="#000000" fill-rule="evenodd" fill-opacity="1" /><path clip-path="url(#clip540)" d="M267.338 1481.64 L274.976 1481.64 L274.976 1455.28 L266.666 1456.95 L266.666 1452.69 L274.93 1451.02 L279.606 1451.02 L279.606 1481.64 L287.245 1481.64 L287.245 1485.58 L267.338 1485.58 L267.338 1481.64 Z" fill="#000000" fill-rule="evenodd" fill-opacity="1" /><path clip-path="url(#clip540)" d="M296.689 1479.7 L301.574 1479.7 L301.574 1485.58 L296.689 1485.58 L296.689 1479.7 Z" fill="#000000" fill-rule="evenodd" fill-opacity="1" /><path clip-path="url(#clip540)" d="M321.759 1454.1 Q318.148 1454.1 316.319 1457.66 Q314.513 1461.2 314.513 1468.33 Q314.513 1475.44 316.319 1479.01 Q318.148 1482.55 321.759 1482.55 Q325.393 1482.55 327.198 1479.01 Q329.027 1475.44 329.027 1468.33 Q329.027 1461.2 327.198 1457.66 Q325.393 1454.1 321.759 1454.1 M321.759 1450.39 Q327.569 1450.39 330.624 1455 Q333.703 1459.58 333.703 1468.33 Q333.703 1477.06 330.624 1481.67 Q327.569 1486.25 321.759 1486.25 Q315.948 1486.25 312.87 1481.67 Q309.814 1477.06 309.814 1468.33 Q309.814 1459.58 312.87 1455 Q315.948 1450.39 321.759 1450.39 Z" fill="#000000" fill-rule="evenodd" fill-opacity="1" /><path clip-path="url(#clip540)" d="M730.297 1468.75 L759.973 1468.75 L759.973 1472.69 L730.297 1472.69 L730.297 1468.75 Z" fill="#000000" fill-rule="evenodd" fill-opacity="1" /><path clip-path="url(#clip540)" d="M780.065 1454.1 Q776.454 1454.1 774.625 1457.66 Q772.82 1461.2 772.82 1468.33 Q772.82 1475.44 774.625 1479.01 Q776.454 1482.55 780.065 1482.55 Q783.699 1482.55 785.505 1479.01 Q787.334 1475.44 787.334 1468.33 Q787.334 1461.2 785.505 1457.66 Q783.699 1454.1 780.065 1454.1 M780.065 1450.39 Q785.875 1450.39 788.931 1455 Q792.009 1459.58 792.009 1468.33 Q792.009 1477.06 788.931 1481.67 Q785.875 1486.25 780.065 1486.25 Q774.255 1486.25 771.176 1481.67 Q768.121 1477.06 768.121 1468.33 Q768.121 1459.58 771.176 1455 Q774.255 1450.39 780.065 1450.39 Z" fill="#000000" fill-rule="evenodd" fill-opacity="1" /><path clip-path="url(#clip540)" d="M800.227 1479.7 L805.111 1479.7 L805.111 1485.58 L800.227 1485.58 L800.227 1479.7 Z" fill="#000000" fill-rule="evenodd" fill-opacity="1" /><path clip-path="url(#clip540)" d="M815.343 1451.02 L833.699 1451.02 L833.699 1454.96 L819.625 1454.96 L819.625 1463.43 Q820.644 1463.08 821.662 1462.92 Q822.681 1462.73 823.699 1462.73 Q829.486 1462.73 832.866 1465.9 Q836.245 1469.08 836.245 1474.49 Q836.245 1480.07 832.773 1483.17 Q829.301 1486.25 822.982 1486.25 Q820.806 1486.25 818.537 1485.88 Q816.292 1485.51 813.884 1484.77 L813.884 1480.07 Q815.968 1481.2 818.19 1481.76 Q820.412 1482.32 822.889 1482.32 Q826.894 1482.32 829.231 1480.21 Q831.569 1478.1 831.569 1474.49 Q831.569 1470.88 829.231 1468.77 Q826.894 1466.67 822.889 1466.67 Q821.014 1466.67 819.139 1467.08 Q817.287 1467.5 815.343 1468.38 L815.343 1451.02 Z" fill="#000000" fill-rule="evenodd" fill-opacity="1" /><path clip-path="url(#clip540)" d="M1263.7 1454.1 Q1260.08 1454.1 1258.26 1457.66 Q1256.45 1461.2 1256.45 1468.33 Q1256.45 1475.44 1258.26 1479.01 Q1260.08 1482.55 1263.7 1482.55 Q1267.33 1482.55 1269.14 1479.01 Q1270.96 1475.44 1270.96 1468.33 Q1270.96 1461.2 1269.14 1457.66 Q1267.33 1454.1 1263.7 1454.1 M1263.7 1450.39 Q1269.51 1450.39 1272.56 1455 Q1275.64 1459.58 1275.64 1468.33 Q1275.64 1477.06 1272.56 1481.67 Q1269.51 1486.25 1263.7 1486.25 Q1257.89 1486.25 1254.81 1481.67 Q1251.75 1477.06 1251.75 1468.33 Q1251.75 1459.58 1254.81 1455 Q1257.89 1450.39 1263.7 1450.39 Z" fill="#000000" fill-rule="evenodd" fill-opacity="1" /><path clip-path="url(#clip540)" d="M1283.86 1479.7 L1288.74 1479.7 L1288.74 1485.58 L1283.86 1485.58 L1283.86 1479.7 Z" fill="#000000" fill-rule="evenodd" fill-opacity="1" /><path clip-path="url(#clip540)" d="M1308.93 1454.1 Q1305.32 1454.1 1303.49 1457.66 Q1301.68 1461.2 1301.68 1468.33 Q1301.68 1475.44 1303.49 1479.01 Q1305.32 1482.55 1308.93 1482.55 Q1312.56 1482.55 1314.37 1479.01 Q1316.2 1475.44 1316.2 1468.33 Q1316.2 1461.2 1314.37 1457.66 Q1312.56 1454.1 1308.93 1454.1 M1308.93 1450.39 Q1314.74 1450.39 1317.79 1455 Q1320.87 1459.58 1320.87 1468.33 Q1320.87 1477.06 1317.79 1481.67 Q1314.74 1486.25 1308.93 1486.25 Q1303.12 1486.25 1300.04 1481.67 Q1296.98 1477.06 1296.98 1468.33 Q1296.98 1459.58 1300.04 1455 Q1303.12 1450.39 1308.93 1450.39 Z" fill="#000000" fill-rule="evenodd" fill-opacity="1" /><path clip-path="url(#clip540)" d="M1767.23 1454.1 Q1763.62 1454.1 1761.79 1457.66 Q1759.99 1461.2 1759.99 1468.33 Q1759.99 1475.44 1761.79 1479.01 Q1763.62 1482.55 1767.23 1482.55 Q1770.87 1482.55 1772.67 1479.01 Q1774.5 1475.44 1774.5 1468.33 Q1774.5 1461.2 1772.67 1457.66 Q1770.87 1454.1 1767.23 1454.1 M1767.23 1450.39 Q1773.04 1450.39 1776.1 1455 Q1779.18 1459.58 1779.18 1468.33 Q1779.18 1477.06 1776.1 1481.67 Q1773.04 1486.25 1767.23 1486.25 Q1761.42 1486.25 1758.34 1481.67 Q1755.29 1477.06 1755.29 1468.33 Q1755.29 1459.58 1758.34 1455 Q1761.42 1450.39 1767.23 1450.39 Z" fill="#000000" fill-rule="evenodd" fill-opacity="1" /><path clip-path="url(#clip540)" d="M1787.4 1479.7 L1792.28 1479.7 L1792.28 1485.58 L1787.4 1485.58 L1787.4 1479.7 Z" fill="#000000" fill-rule="evenodd" fill-opacity="1" /><path clip-path="url(#clip540)" d="M1802.51 1451.02 L1820.87 1451.02 L1820.87 1454.96 L1806.79 1454.96 L1806.79 1463.43 Q1807.81 1463.08 1808.83 1462.92 Q1809.85 1462.73 1810.87 1462.73 Q1816.65 1462.73 1820.03 1465.9 Q1823.41 1469.08 1823.41 1474.49 Q1823.41 1480.07 1819.94 1483.17 Q1816.47 1486.25 1810.15 1486.25 Q1807.97 1486.25 1805.71 1485.88 Q1803.46 1485.51 1801.05 1484.77 L1801.05 1480.07 Q1803.14 1481.2 1805.36 1481.76 Q1807.58 1482.32 1810.06 1482.32 Q1814.06 1482.32 1816.4 1480.21 Q1818.74 1478.1 1818.74 1474.49 Q1818.74 1470.88 1816.4 1468.77 Q1814.06 1466.67 1810.06 1466.67 Q1808.18 1466.67 1806.31 1467.08 Q1804.46 1467.5 1802.51 1468.38 L1802.51 1451.02 Z" fill="#000000" fill-rule="evenodd" fill-opacity="1" /><path clip-path="url(#clip540)" d="M2259.54 1481.64 L2267.18 1481.64 L2267.18 1455.28 L2258.87 1456.95 L2258.87 1452.69 L2267.14 1451.02 L2271.81 1451.02 L2271.81 1481.64 L2279.45 1481.64 L2279.45 1485.58 L2259.54 1485.58 L2259.54 1481.64 Z" fill="#000000" fill-rule="evenodd" fill-opacity="1" /><path clip-path="url(#clip540)" d="M2288.9 1479.7 L2293.78 1479.7 L2293.78 1485.58 L2288.9 1485.58 L2288.9 1479.7 Z" fill="#000000" fill-rule="evenodd" fill-opacity="1" /><path clip-path="url(#clip540)" d="M2313.97 1454.1 Q2310.35 1454.1 2308.53 1457.66 Q2306.72 1461.2 2306.72 1468.33 Q2306.72 1475.44 2308.53 1479.01 Q2310.35 1482.55 2313.97 1482.55 Q2317.6 1482.55 2319.4 1479.01 Q2321.23 1475.44 2321.23 1468.33 Q2321.23 1461.2 2319.4 1457.66 Q2317.6 1454.1 2313.97 1454.1 M2313.97 1450.39 Q2319.78 1450.39 2322.83 1455 Q2325.91 1459.58 2325.91 1468.33 Q2325.91 1477.06 2322.83 1481.67 Q2319.78 1486.25 2313.97 1486.25 Q2308.15 1486.25 2305.08 1481.67 Q2302.02 1477.06 2302.02 1468.33 Q2302.02 1459.58 2305.08 1455 Q2308.15 1450.39 2313.97 1450.39 Z" fill="#000000" fill-rule="evenodd" fill-opacity="1" /><path clip-path="url(#clip540)" d="M1304.98 1529.06 Q1304.98 1532.06 1303.46 1537.85 Q1302.85 1540.37 1302.01 1542.65 Q1301.21 1544.91 1300.02 1547.1 Q1298.83 1549.29 1297.44 1550.86 Q1296.06 1552.41 1294.25 1553.38 Q1292.45 1554.34 1290.45 1554.34 Q1287.3 1554.34 1285.43 1552.47 Q1283.59 1550.57 1283.01 1547.32 Q1278.7 1554.34 1272.93 1554.34 Q1269.36 1554.34 1267.68 1551.8 Q1266.01 1549.22 1266.01 1544.91 Q1266.01 1541.27 1266.97 1537.5 Q1268.81 1530.35 1272.38 1525.36 Q1272.87 1524.78 1273.58 1524.78 Q1273.99 1524.78 1274.19 1524.91 Q1274.77 1525.26 1274.77 1525.84 Q1274.77 1526.26 1274.45 1526.68 Q1272.19 1529.8 1270.71 1532.48 Q1269.23 1535.15 1268.55 1537.85 Q1268.04 1540.17 1268.04 1542.14 Q1268.04 1545.45 1269.45 1547.52 Q1270.9 1549.58 1273.77 1549.58 Q1276.41 1549.58 1278.73 1547.93 Q1281.05 1546.26 1282.75 1543.46 Q1282.85 1540.4 1283.59 1537.5 Q1284.27 1534.41 1285.85 1534.41 Q1287.1 1534.41 1287.1 1536.11 Q1287.1 1536.69 1286.84 1537.85 Q1286.14 1540.91 1284.85 1543.65 Q1285.3 1546.32 1286.97 1547.97 Q1288.65 1549.58 1291.32 1549.58 Q1293.8 1549.58 1295.99 1547.77 Q1298.21 1545.97 1299.63 1543.33 Q1301.08 1540.66 1301.89 1537.5 Q1302.14 1536.44 1302.14 1535.08 Q1302.14 1531.48 1299.63 1529.25 Q1298.92 1528.55 1298.92 1527.61 Q1298.92 1526.52 1299.82 1525.52 Q1300.89 1524.46 1302.14 1524.46 Q1303.08 1524.46 1303.66 1525.04 Q1304.98 1526.19 1304.98 1529.06 Z" fill="#000000" fill-rule="evenodd" fill-opacity="1" /><polyline clip-path="url(#clip542)" style="stroke:#000000; stroke-linecap:butt; stroke-linejoin:round; stroke-width:2; stroke-opacity:0.1; fill:none" points="
  219.866,1384.24 2352.76,1384.24 
  "/>
<polyline clip-path="url(#clip542)" style="stroke:#000000; stroke-linecap:butt; stroke-linejoin:round; stroke-width:2; stroke-opacity:0.1; fill:none" points="
  219.866,1058.86 2352.76,1058.86 
  "/>
<polyline clip-path="url(#clip542)" style="stroke:#000000; stroke-linecap:butt; stroke-linejoin:round; stroke-width:2; stroke-opacity:0.1; fill:none" points="
  219.866,733.491 2352.76,733.491 
  "/>
<polyline clip-path="url(#clip542)" style="stroke:#000000; stroke-linecap:butt; stroke-linejoin:round; stroke-width:2; stroke-opacity:0.1; fill:none" points="
  219.866,408.117 2352.76,408.117 
  "/>
<polyline clip-path="url(#clip542)" style="stroke:#000000; stroke-linecap:butt; stroke-linejoin:round; stroke-width:2; stroke-opacity:0.1; fill:none" points="
  219.866,82.7435 2352.76,82.7435 
  "/>
<polyline clip-path="url(#clip540)" style="stroke:#000000; stroke-linecap:butt; stroke-linejoin:round; stroke-width:4; stroke-opacity:1; fill:none" points="
  219.866,1423.18 219.866,47.2441 
  "/>
<polyline clip-path="url(#clip540)" style="stroke:#000000; stroke-linecap:butt; stroke-linejoin:round; stroke-width:4; stroke-opacity:1; fill:none" points="
  219.866,1384.24 238.764,1384.24 
  "/>
<polyline clip-path="url(#clip540)" style="stroke:#000000; stroke-linecap:butt; stroke-linejoin:round; stroke-width:4; stroke-opacity:1; fill:none" points="
  219.866,1058.86 238.764,1058.86 
  "/>
<polyline clip-path="url(#clip540)" style="stroke:#000000; stroke-linecap:butt; stroke-linejoin:round; stroke-width:4; stroke-opacity:1; fill:none" points="
  219.866,733.491 238.764,733.491 
  "/>
<polyline clip-path="url(#clip540)" style="stroke:#000000; stroke-linecap:butt; stroke-linejoin:round; stroke-width:4; stroke-opacity:1; fill:none" points="
  219.866,408.117 238.764,408.117 
  "/>
<polyline clip-path="url(#clip540)" style="stroke:#000000; stroke-linecap:butt; stroke-linejoin:round; stroke-width:4; stroke-opacity:1; fill:none" points="
  219.866,82.7435 238.764,82.7435 
  "/>
<path clip-path="url(#clip540)" d="M126.691 1370.04 Q123.08 1370.04 121.251 1373.6 Q119.445 1377.14 119.445 1384.27 Q119.445 1391.38 121.251 1394.94 Q123.08 1398.49 126.691 1398.49 Q130.325 1398.49 132.13 1394.94 Q133.959 1391.38 133.959 1384.27 Q133.959 1377.14 132.13 1373.6 Q130.325 1370.04 126.691 1370.04 M126.691 1366.33 Q132.501 1366.33 135.556 1370.94 Q138.635 1375.52 138.635 1384.27 Q138.635 1393 135.556 1397.61 Q132.501 1402.19 126.691 1402.19 Q120.88 1402.19 117.802 1397.61 Q114.746 1393 114.746 1384.27 Q114.746 1375.52 117.802 1370.94 Q120.88 1366.33 126.691 1366.33 Z" fill="#000000" fill-rule="evenodd" fill-opacity="1" /><path clip-path="url(#clip540)" d="M146.853 1395.64 L151.737 1395.64 L151.737 1401.52 L146.853 1401.52 L146.853 1395.64 Z" fill="#000000" fill-rule="evenodd" fill-opacity="1" /><path clip-path="url(#clip540)" d="M171.922 1370.04 Q168.311 1370.04 166.482 1373.6 Q164.677 1377.14 164.677 1384.27 Q164.677 1391.38 166.482 1394.94 Q168.311 1398.49 171.922 1398.49 Q175.556 1398.49 177.362 1394.94 Q179.19 1391.38 179.19 1384.27 Q179.19 1377.14 177.362 1373.6 Q175.556 1370.04 171.922 1370.04 M171.922 1366.33 Q177.732 1366.33 180.788 1370.94 Q183.866 1375.52 183.866 1384.27 Q183.866 1393 180.788 1397.61 Q177.732 1402.19 171.922 1402.19 Q166.112 1402.19 163.033 1397.61 Q159.978 1393 159.978 1384.27 Q159.978 1375.52 163.033 1370.94 Q166.112 1366.33 171.922 1366.33 Z" fill="#000000" fill-rule="evenodd" fill-opacity="1" /><path clip-path="url(#clip540)" d="M128.288 1044.66 Q124.677 1044.66 122.848 1048.23 Q121.043 1051.77 121.043 1058.9 Q121.043 1066.01 122.848 1069.57 Q124.677 1073.11 128.288 1073.11 Q131.922 1073.11 133.728 1069.57 Q135.556 1066.01 135.556 1058.9 Q135.556 1051.77 133.728 1048.23 Q131.922 1044.66 128.288 1044.66 M128.288 1040.96 Q134.098 1040.96 137.154 1045.57 Q140.232 1050.15 140.232 1058.9 Q140.232 1067.63 137.154 1072.23 Q134.098 1076.82 128.288 1076.82 Q122.478 1076.82 119.399 1072.23 Q116.343 1067.63 116.343 1058.9 Q116.343 1050.15 119.399 1045.57 Q122.478 1040.96 128.288 1040.96 Z" fill="#000000" fill-rule="evenodd" fill-opacity="1" /><path clip-path="url(#clip540)" d="M148.45 1070.26 L153.334 1070.26 L153.334 1076.14 L148.45 1076.14 L148.45 1070.26 Z" fill="#000000" fill-rule="evenodd" fill-opacity="1" /><path clip-path="url(#clip540)" d="M167.547 1072.21 L183.866 1072.21 L183.866 1076.14 L161.922 1076.14 L161.922 1072.21 Q164.584 1069.45 169.167 1064.83 Q173.774 1060.17 174.954 1058.83 Q177.2 1056.31 178.079 1054.57 Q178.982 1052.81 178.982 1051.12 Q178.982 1048.37 177.038 1046.63 Q175.116 1044.89 172.014 1044.89 Q169.815 1044.89 167.362 1045.66 Q164.931 1046.42 162.153 1047.97 L162.153 1043.25 Q164.977 1042.12 167.431 1041.54 Q169.885 1040.96 171.922 1040.96 Q177.292 1040.96 180.487 1043.64 Q183.681 1046.33 183.681 1050.82 Q183.681 1052.95 182.871 1054.87 Q182.084 1056.77 179.977 1059.36 Q179.399 1060.03 176.297 1063.25 Q173.195 1066.45 167.547 1072.21 Z" fill="#000000" fill-rule="evenodd" fill-opacity="1" /><path clip-path="url(#clip540)" d="M126.205 719.29 Q122.593 719.29 120.765 722.854 Q118.959 726.396 118.959 733.526 Q118.959 740.632 120.765 744.197 Q122.593 747.738 126.205 747.738 Q129.839 747.738 131.644 744.197 Q133.473 740.632 133.473 733.526 Q133.473 726.396 131.644 722.854 Q129.839 719.29 126.205 719.29 M126.205 715.586 Q132.015 715.586 135.07 720.192 Q138.149 724.776 138.149 733.526 Q138.149 742.252 135.07 746.859 Q132.015 751.442 126.205 751.442 Q120.394 751.442 117.316 746.859 Q114.26 742.252 114.26 733.526 Q114.26 724.776 117.316 720.192 Q120.394 715.586 126.205 715.586 Z" fill="#000000" fill-rule="evenodd" fill-opacity="1" /><path clip-path="url(#clip540)" d="M146.366 744.891 L151.251 744.891 L151.251 750.771 L146.366 750.771 L146.366 744.891 Z" fill="#000000" fill-rule="evenodd" fill-opacity="1" /><path clip-path="url(#clip540)" d="M174.283 720.285 L162.477 738.734 L174.283 738.734 L174.283 720.285 M173.056 716.211 L178.936 716.211 L178.936 738.734 L183.866 738.734 L183.866 742.623 L178.936 742.623 L178.936 750.771 L174.283 750.771 L174.283 742.623 L158.681 742.623 L158.681 738.109 L173.056 716.211 Z" fill="#000000" fill-rule="evenodd" fill-opacity="1" /><path clip-path="url(#clip540)" d="M126.529 393.916 Q122.918 393.916 121.089 397.481 Q119.283 401.022 119.283 408.152 Q119.283 415.258 121.089 418.823 Q122.918 422.365 126.529 422.365 Q130.163 422.365 131.968 418.823 Q133.797 415.258 133.797 408.152 Q133.797 401.022 131.968 397.481 Q130.163 393.916 126.529 393.916 M126.529 390.212 Q132.339 390.212 135.394 394.819 Q138.473 399.402 138.473 408.152 Q138.473 416.879 135.394 421.485 Q132.339 426.068 126.529 426.068 Q120.718 426.068 117.64 421.485 Q114.584 416.879 114.584 408.152 Q114.584 399.402 117.64 394.819 Q120.718 390.212 126.529 390.212 Z" fill="#000000" fill-rule="evenodd" fill-opacity="1" /><path clip-path="url(#clip540)" d="M146.691 419.518 L151.575 419.518 L151.575 425.397 L146.691 425.397 L146.691 419.518 Z" fill="#000000" fill-rule="evenodd" fill-opacity="1" /><path clip-path="url(#clip540)" d="M172.339 406.254 Q169.19 406.254 167.339 408.407 Q165.51 410.559 165.51 414.309 Q165.51 418.036 167.339 420.212 Q169.19 422.365 172.339 422.365 Q175.487 422.365 177.315 420.212 Q179.167 418.036 179.167 414.309 Q179.167 410.559 177.315 408.407 Q175.487 406.254 172.339 406.254 M181.621 391.601 L181.621 395.86 Q179.862 395.027 178.056 394.587 Q176.274 394.147 174.514 394.147 Q169.885 394.147 167.431 397.272 Q165.001 400.397 164.653 406.717 Q166.019 404.703 168.079 403.638 Q170.139 402.55 172.616 402.55 Q177.825 402.55 180.834 405.721 Q183.866 408.869 183.866 414.309 Q183.866 419.633 180.718 422.851 Q177.57 426.068 172.339 426.068 Q166.343 426.068 163.172 421.485 Q160.001 416.879 160.001 408.152 Q160.001 399.957 163.89 395.096 Q167.778 390.212 174.329 390.212 Q176.089 390.212 177.871 390.559 Q179.676 390.907 181.621 391.601 Z" fill="#000000" fill-rule="evenodd" fill-opacity="1" /><path clip-path="url(#clip540)" d="M126.783 68.5422 Q123.172 68.5422 121.343 72.107 Q119.538 75.6486 119.538 82.7782 Q119.538 89.8846 121.343 93.4494 Q123.172 96.9911 126.783 96.9911 Q130.417 96.9911 132.223 93.4494 Q134.052 89.8846 134.052 82.7782 Q134.052 75.6486 132.223 72.107 Q130.417 68.5422 126.783 68.5422 M126.783 64.8385 Q132.593 64.8385 135.649 69.4449 Q138.728 74.0282 138.728 82.7782 Q138.728 91.505 135.649 96.1115 Q132.593 100.695 126.783 100.695 Q120.973 100.695 117.894 96.1115 Q114.839 91.505 114.839 82.7782 Q114.839 74.0282 117.894 69.4449 Q120.973 64.8385 126.783 64.8385 Z" fill="#000000" fill-rule="evenodd" fill-opacity="1" /><path clip-path="url(#clip540)" d="M146.945 94.1439 L151.829 94.1439 L151.829 100.023 L146.945 100.023 L146.945 94.1439 Z" fill="#000000" fill-rule="evenodd" fill-opacity="1" /><path clip-path="url(#clip540)" d="M172.014 83.6115 Q168.681 83.6115 166.76 85.3939 Q164.862 87.1763 164.862 90.3013 Q164.862 93.4263 166.76 95.2087 Q168.681 96.9911 172.014 96.9911 Q175.348 96.9911 177.269 95.2087 Q179.19 93.4031 179.19 90.3013 Q179.19 87.1763 177.269 85.3939 Q175.371 83.6115 172.014 83.6115 M167.339 81.6208 Q164.329 80.8801 162.64 78.8199 Q160.973 76.7597 160.973 73.7968 Q160.973 69.6533 163.913 67.2459 Q166.876 64.8385 172.014 64.8385 Q177.176 64.8385 180.116 67.2459 Q183.056 69.6533 183.056 73.7968 Q183.056 76.7597 181.366 78.8199 Q179.7 80.8801 176.714 81.6208 Q180.093 82.4078 181.968 84.6995 Q183.866 86.9911 183.866 90.3013 Q183.866 95.3244 180.788 98.0096 Q177.732 100.695 172.014 100.695 Q166.297 100.695 163.218 98.0096 Q160.163 95.3244 160.163 90.3013 Q160.163 86.9911 162.061 84.6995 Q163.959 82.4078 167.339 81.6208 M165.626 74.2366 Q165.626 76.9218 167.292 78.4264 Q168.982 79.931 172.014 79.931 Q175.024 79.931 176.714 78.4264 Q178.426 76.9218 178.426 74.2366 Q178.426 71.5514 176.714 70.0468 Q175.024 68.5422 172.014 68.5422 Q168.982 68.5422 167.292 70.0468 Q165.626 71.5514 165.626 74.2366 Z" fill="#000000" fill-rule="evenodd" fill-opacity="1" /><path clip-path="url(#clip540)" d="M47.6945 768.686 Q52.461 768.686 56.9376 771.134 Q61.4142 773.549 64.1195 777.349 Q66.8248 781.117 66.8248 784.918 Q66.8248 789.201 62.3804 791.423 Q78.5156 795.449 78.9342 795.675 Q80.3191 796.608 80.3191 797.961 Q80.3191 798.798 79.8038 799.314 Q79.3207 799.829 78.5478 799.829 Q78.2901 799.797 77.485 799.604 L51.5593 793.162 Q45.5368 791.681 41.2534 787.204 Q36.9378 782.696 36.9378 777.865 Q36.9378 774.032 39.8041 771.359 Q42.6704 768.686 47.6945 768.686 M44.8604 773.42 Q41.6398 773.42 40.0296 774.709 Q38.3871 775.997 38.3871 777.993 Q38.3871 779.829 39.8685 782.051 Q41.35 784.241 44.635 786.174 Q46.5351 787.204 48.8862 787.945 Q51.2372 788.686 57.0342 790.135 Q59.3531 790.65 59.4819 790.65 Q59.7395 790.65 60.3192 790.522 Q60.899 790.361 61.8007 789.974 Q62.6703 789.555 63.4432 788.976 Q64.2162 788.396 64.7959 787.333 Q65.3434 786.27 65.3434 784.982 Q65.3434 782.985 63.7331 780.86 Q62.0906 778.702 59.0954 777.124 Q56.68 775.804 52.139 774.612 Q47.5657 773.42 44.8604 773.42 Z" fill="#000000" fill-rule="evenodd" fill-opacity="1" /><path clip-path="url(#clip540)" d="M49.5947 761.856 Q38.4515 761.856 29.466 757.702 Q25.6979 755.931 22.5418 753.451 Q19.3856 750.971 18.0007 749.328 Q16.6159 747.686 16.6159 747.235 Q16.6159 746.591 17.26 746.559 Q17.5821 746.559 18.3872 747.428 Q29.2084 758.056 49.5947 758.024 Q70.0454 758.024 80.4479 747.686 Q81.5751 746.559 81.9294 746.559 Q82.5735 746.559 82.5735 747.235 Q82.5735 747.686 81.2531 749.264 Q79.9326 750.842 76.9053 753.29 Q73.8779 755.737 70.1742 757.509 Q61.1888 761.856 49.5947 761.856 Z" fill="#000000" fill-rule="evenodd" fill-opacity="1" /><path clip-path="url(#clip540)" d="M41.5432 703.896 Q44.5384 703.896 50.3354 705.41 Q52.8475 706.022 55.1341 706.859 Q57.3885 707.664 59.5785 708.856 Q61.7685 710.047 63.3466 711.432 Q64.8925 712.817 65.8587 714.621 Q66.8248 716.424 66.8248 718.421 Q66.8248 721.577 64.9569 723.445 Q63.0567 725.281 59.804 725.86 Q66.8248 730.176 66.8248 735.941 Q66.8248 739.516 64.2806 741.19 Q61.7041 742.865 57.3885 742.865 Q53.7493 742.865 49.9812 741.899 Q42.8315 740.063 37.8396 736.488 Q37.2598 736.005 37.2598 735.297 Q37.2598 734.878 37.3887 734.685 Q37.7429 734.105 38.3226 734.105 Q38.7413 734.105 39.16 734.427 Q42.284 736.682 44.957 738.163 Q47.6301 739.644 50.3354 740.321 Q52.6543 740.836 54.6188 740.836 Q57.936 740.836 59.9972 739.419 Q62.0584 737.97 62.0584 735.103 Q62.0584 732.463 60.4159 730.144 Q58.7412 727.825 55.9392 726.118 Q52.8797 726.021 49.9812 725.281 Q46.8894 724.604 46.8894 723.026 Q46.8894 721.77 48.5963 721.77 Q49.176 721.77 50.3354 722.028 Q53.395 722.736 56.1325 724.025 Q58.8056 723.574 60.4481 721.899 Q62.0584 720.224 62.0584 717.551 Q62.0584 715.071 60.2548 712.881 Q58.4513 710.659 55.8104 709.242 Q53.1373 707.793 49.9812 706.988 Q48.9184 706.73 47.5657 706.73 Q43.9587 706.73 41.7365 709.242 Q41.0279 709.951 40.094 709.951 Q38.999 709.951 38.0006 709.049 Q36.9378 707.986 36.9378 706.73 Q36.9378 705.796 37.5175 705.216 Q38.6769 703.896 41.5432 703.896 Z" fill="#000000" fill-rule="evenodd" fill-opacity="1" /><path clip-path="url(#clip540)" d="M81.9294 695.922 Q81.6073 695.922 80.8022 695.085 Q69.981 684.457 49.5947 684.457 Q29.144 684.457 18.8059 694.666 Q17.6143 695.922 17.26 695.922 Q16.6159 695.922 16.6159 695.278 Q16.6159 694.827 17.9363 693.249 Q19.2568 691.639 22.2841 689.223 Q25.3115 686.776 29.0151 684.972 Q38.0006 680.624 49.5947 680.624 Q60.7379 680.624 69.7234 684.779 Q73.4914 686.55 76.6476 689.03 Q79.8038 691.51 81.1886 693.153 Q82.5735 694.795 82.5735 695.278 Q82.5735 695.922 81.9294 695.922 Z" fill="#000000" fill-rule="evenodd" fill-opacity="1" /><polyline clip-path="url(#clip542)" style="stroke:#009af9; stroke-linecap:butt; stroke-linejoin:round; stroke-width:4; stroke-opacity:1; fill:none" points="
  280.231,1384.24 282.245,1302.14 284.259,1268.2 286.274,1242.19 288.288,1220.29 290.302,1201.03 292.316,1183.65 294.33,1167.69 296.344,1152.85 298.359,1138.94 
  300.373,1125.8 302.387,1113.32 304.401,1101.42 306.415,1090.02 308.43,1079.07 310.444,1068.52 312.458,1058.33 314.472,1048.47 316.486,1038.91 318.5,1029.63 
  320.515,1020.61 322.529,1011.82 324.543,1003.25 326.557,994.883 328.571,986.713 330.585,978.724 332.6,970.905 334.614,963.248 336.628,955.743 338.642,948.383 
  340.656,941.161 342.67,934.069 344.685,927.102 346.699,920.255 348.713,913.521 350.727,906.896 352.741,900.376 354.756,893.957 356.77,887.634 358.784,881.404 
  360.798,875.263 362.812,869.209 364.826,863.238 366.841,857.348 368.855,851.535 370.869,845.798 372.883,840.134 374.897,834.54 376.911,829.015 378.926,823.556 
  380.94,818.162 382.954,812.83 384.968,807.56 386.982,802.349 388.996,797.195 391.011,792.098 393.025,787.056 395.039,782.067 397.053,777.13 399.067,772.245 
  401.082,767.408 403.096,762.621 405.11,757.88 407.124,753.186 409.138,748.537 411.152,743.933 413.167,739.372 415.181,734.853 417.195,730.376 419.209,725.94 
  421.223,721.543 423.237,717.186 425.252,712.866 427.266,708.585 429.28,704.34 431.294,700.132 433.308,695.959 435.322,691.821 437.337,687.717 439.351,683.647 
  441.365,679.61 443.379,675.606 445.393,671.634 447.408,667.693 449.422,663.783 451.436,659.903 453.45,656.053 455.464,652.233 457.478,648.442 459.493,644.679 
  461.507,640.945 463.521,637.238 465.535,633.559 467.549,629.906 469.563,626.28 471.578,622.68 473.592,619.106 475.606,615.557 477.62,612.034 479.634,608.535 
  481.648,605.06 483.663,601.609 485.677,598.183 487.691,594.779 489.705,591.399 491.719,588.041 493.734,584.707 495.748,581.394 497.762,578.103 499.776,574.834 
  501.79,571.587 503.804,568.361 505.819,565.155 507.833,561.971 509.847,558.807 511.861,555.663 513.875,552.539 515.889,549.435 517.904,546.35 519.918,543.285 
  521.932,540.239 523.946,537.212 525.96,534.203 527.974,531.214 529.989,528.242 532.003,525.289 534.017,522.353 536.031,519.435 538.045,516.535 540.06,513.653 
  542.074,510.787 544.088,507.939 546.102,505.107 548.116,502.293 550.13,499.495 552.145,496.713 554.159,493.948 556.173,491.198 558.187,488.465 560.201,485.747 
  562.215,483.046 564.23,480.359 566.244,477.689 568.258,475.033 570.272,472.393 572.286,469.767 574.301,467.157 576.315,464.561 578.329,461.98 580.343,459.413 
  582.357,456.861 584.371,454.323 586.386,451.799 588.4,449.289 590.414,446.793 592.428,444.311 594.442,441.843 596.456,439.388 598.471,436.947 600.485,434.519 
  602.499,432.104 604.513,429.703 606.527,427.315 608.541,424.939 610.556,422.577 612.57,420.227 614.584,417.89 616.598,415.566 618.612,413.254 620.627,410.955 
  622.641,408.668 624.655,406.393 626.669,404.13 628.683,401.88 630.697,399.641 632.712,397.414 634.726,395.2 636.74,392.997 638.754,390.805 640.768,388.626 
  642.782,386.457 644.797,384.301 646.811,382.155 648.825,380.021 650.839,377.898 652.853,375.787 654.867,373.686 656.882,371.597 658.896,369.518 660.91,367.45 
  662.924,365.393 664.938,363.347 666.953,361.312 668.967,359.287 670.981,357.273 672.995,355.269 675.009,353.276 677.023,351.293 679.038,349.32 681.052,347.358 
  683.066,345.406 685.08,343.464 687.094,341.532 689.108,339.61 691.123,337.699 693.137,335.797 695.151,333.905 697.165,332.023 699.179,330.15 701.193,328.287 
  703.208,326.434 705.222,324.591 707.236,322.757 709.25,320.933 711.264,319.118 713.279,317.312 715.293,315.516 717.307,313.729 719.321,311.952 721.335,310.184 
  723.349,308.425 725.364,306.675 727.378,304.934 729.392,303.202 731.406,301.479 733.42,299.765 735.434,298.06 737.449,296.364 739.463,294.677 741.477,292.999 
  743.491,291.329 745.505,289.668 747.519,288.016 749.534,286.372 751.548,284.737 753.562,283.111 755.576,281.493 757.59,279.883 759.605,278.282 761.619,276.69 
  763.633,275.106 765.647,273.53 767.661,271.962 769.675,270.403 771.69,268.852 773.704,267.309 775.718,265.774 777.732,264.248 779.746,262.729 781.76,261.219 
  783.775,259.716 785.789,258.222 787.803,256.736 789.817,255.257 791.831,253.787 793.845,252.324 795.86,250.869 797.874,249.422 799.888,247.983 801.902,246.551 
  803.916,245.128 805.931,243.712 807.945,242.303 809.959,240.902 811.973,239.509 813.987,238.124 816.001,236.746 818.016,235.375 820.03,234.012 822.044,232.657 
  824.058,231.309 826.072,229.968 828.086,228.635 830.101,227.309 832.115,225.991 834.129,224.68 836.143,223.376 838.157,222.079 840.171,220.79 842.186,219.508 
  844.2,218.233 846.214,216.965 848.228,215.705 850.242,214.451 852.257,213.205 854.271,211.966 856.285,210.734 858.299,209.509 860.313,208.29 862.327,207.079 
  864.342,205.875 866.356,204.678 868.37,203.488 870.384,202.304 872.398,201.128 874.412,199.958 876.427,198.796 878.441,197.64 880.455,196.491 882.469,195.348 
  884.483,194.213 886.498,193.084 888.512,191.962 890.526,190.847 892.54,189.738 894.554,188.636 896.568,187.541 898.583,186.452 900.597,185.37 902.611,184.295 
  904.625,183.226 906.639,182.164 908.653,181.108 910.668,180.059 912.682,179.016 914.696,177.98 916.71,176.95 918.724,175.927 920.738,174.91 922.753,173.9 
  924.767,172.896 926.781,171.898 928.795,170.907 930.809,169.923 932.824,168.944 934.838,167.972 936.852,167.006 938.866,166.047 940.88,165.094 942.894,164.147 
  944.909,163.206 946.923,162.272 948.937,161.344 950.951,160.422 952.965,159.506 954.979,158.597 956.994,157.693 959.008,156.796 961.022,155.905 963.036,155.02 
  965.05,154.142 967.064,153.269 969.079,152.403 971.093,151.542 973.107,150.688 975.121,149.84 977.135,148.997 979.15,148.161 981.164,147.331 983.178,146.507 
  985.192,145.689 987.206,144.877 989.22,144.07 991.235,143.27 993.249,142.476 995.263,141.688 997.277,140.905 999.291,140.129 1001.31,139.358 1003.32,138.593 
  1005.33,137.835 1007.35,137.082 1009.36,136.335 1011.38,135.594 1013.39,134.858 1015.4,134.129 1017.42,133.405 1019.43,132.687 1021.45,131.975 1023.46,131.269 
  1025.48,130.568 1027.49,129.874 1029.5,129.185 1031.52,128.502 1033.53,127.824 1035.55,127.152 1037.56,126.486 1039.57,125.826 1041.59,125.172 1043.6,124.523 
  1045.62,123.88 1047.63,123.242 1049.65,122.61 1051.66,121.984 1053.67,121.364 1055.69,120.749 1057.7,120.14 1059.72,119.536 1061.73,118.938 1063.74,118.346 
  1065.76,117.759 1067.77,117.178 1069.79,116.603 1071.8,116.033 1073.82,115.469 1075.83,114.91 1077.84,114.357 1079.86,113.809 1081.87,113.267 1083.89,112.73 
  1085.9,112.199 1087.91,111.674 1089.93,111.154 1091.94,110.639 1093.96,110.13 1095.97,109.627 1097.99,109.129 1100,108.637 1102.01,108.15 1104.03,107.668 
  1106.04,107.192 1108.06,106.722 1110.07,106.256 1112.09,105.797 1114.1,105.343 1116.11,104.894 1118.13,104.45 1120.14,104.013 1122.16,103.58 1124.17,103.153 
  1126.18,102.731 1128.2,102.315 1130.21,101.904 1132.23,101.499 1134.24,101.099 1136.26,100.704 1138.27,100.315 1140.28,99.9309 1142.3,99.5524 1144.31,99.1792 
  1146.33,98.8114 1148.34,98.4489 1150.35,98.0918 1152.37,97.7401 1154.38,97.3937 1156.4,97.0526 1158.41,96.7169 1160.43,96.3865 1162.44,96.0614 1164.45,95.7416 
  1166.47,95.4272 1168.48,95.1181 1170.5,94.8143 1172.51,94.5158 1174.52,94.2226 1176.54,93.9347 1178.55,93.6521 1180.57,93.3748 1182.58,93.1028 1184.6,92.836 
  1186.61,92.5746 1188.62,92.3184 1190.64,92.0675 1192.65,91.8219 1194.67,91.5816 1196.68,91.3465 1198.69,91.1167 1200.71,90.8922 1202.72,90.6729 1204.74,90.4589 
  1206.75,90.2501 1208.77,90.0466 1210.78,89.8483 1212.79,89.6553 1214.81,89.4675 1216.82,89.2849 1218.84,89.1076 1220.85,88.9356 1222.86,88.7687 1224.88,88.6071 
  1226.89,88.4508 1228.91,88.2997 1230.92,88.1538 1232.94,88.0131 1234.95,87.8776 1236.96,87.7474 1238.98,87.6224 1240.99,87.5026 1243.01,87.388 1245.02,87.2787 
  1247.03,87.1745 1249.05,87.0756 1251.06,86.9819 1253.08,86.8934 1255.09,86.8101 1257.11,86.7321 1259.12,86.6592 1261.13,86.5915 1263.15,86.5291 1265.16,86.4718 
  1267.18,86.4198 1269.19,86.373 1271.2,86.3314 1273.22,86.2949 1275.23,86.2637 1277.25,86.2377 1279.26,86.2169 1281.28,86.2013 1283.29,86.1909 1285.3,86.1857 
  1287.32,86.1857 1289.33,86.1909 1291.35,86.2013 1293.36,86.2169 1295.37,86.2377 1297.39,86.2637 1299.4,86.2949 1301.42,86.3314 1303.43,86.373 1305.45,86.4198 
  1307.46,86.4718 1309.47,86.5291 1311.49,86.5915 1313.5,86.6592 1315.52,86.7321 1317.53,86.8101 1319.54,86.8934 1321.56,86.9819 1323.57,87.0756 1325.59,87.1745 
  1327.6,87.2787 1329.62,87.388 1331.63,87.5026 1333.64,87.6224 1335.66,87.7474 1337.67,87.8776 1339.69,88.0131 1341.7,88.1538 1343.72,88.2997 1345.73,88.4508 
  1347.74,88.6071 1349.76,88.7687 1351.77,88.9356 1353.79,89.1076 1355.8,89.2849 1357.81,89.4675 1359.83,89.6553 1361.84,89.8483 1363.86,90.0466 1365.87,90.2501 
  1367.89,90.4589 1369.9,90.6729 1371.91,90.8922 1373.93,91.1167 1375.94,91.3465 1377.96,91.5816 1379.97,91.8219 1381.98,92.0675 1384,92.3184 1386.01,92.5746 
  1388.03,92.836 1390.04,93.1028 1392.06,93.3748 1394.07,93.6521 1396.08,93.9347 1398.1,94.2226 1400.11,94.5158 1402.13,94.8143 1404.14,95.1181 1406.15,95.4272 
  1408.17,95.7416 1410.18,96.0614 1412.2,96.3865 1414.21,96.7169 1416.23,97.0526 1418.24,97.3937 1420.25,97.7401 1422.27,98.0918 1424.28,98.4489 1426.3,98.8114 
  1428.31,99.1792 1430.32,99.5524 1432.34,99.9309 1434.35,100.315 1436.37,100.704 1438.38,101.099 1440.4,101.499 1442.41,101.904 1444.42,102.315 1446.44,102.731 
  1448.45,103.153 1450.47,103.58 1452.48,104.013 1454.49,104.45 1456.51,104.894 1458.52,105.343 1460.54,105.797 1462.55,106.256 1464.57,106.722 1466.58,107.192 
  1468.59,107.668 1470.61,108.15 1472.62,108.637 1474.64,109.129 1476.65,109.627 1478.66,110.13 1480.68,110.639 1482.69,111.154 1484.71,111.674 1486.72,112.199 
  1488.74,112.73 1490.75,113.267 1492.76,113.809 1494.78,114.357 1496.79,114.91 1498.81,115.469 1500.82,116.033 1502.83,116.603 1504.85,117.178 1506.86,117.759 
  1508.88,118.346 1510.89,118.938 1512.91,119.536 1514.92,120.14 1516.93,120.749 1518.95,121.364 1520.96,121.984 1522.98,122.61 1524.99,123.242 1527,123.88 
  1529.02,124.523 1531.03,125.172 1533.05,125.826 1535.06,126.486 1537.08,127.152 1539.09,127.824 1541.1,128.502 1543.12,129.185 1545.13,129.874 1547.15,130.568 
  1549.16,131.269 1551.17,131.975 1553.19,132.687 1555.2,133.405 1557.22,134.129 1559.23,134.858 1561.25,135.594 1563.26,136.335 1565.27,137.082 1567.29,137.835 
  1569.3,138.593 1571.32,139.358 1573.33,140.129 1575.35,140.905 1577.36,141.688 1579.37,142.476 1581.39,143.27 1583.4,144.07 1585.42,144.877 1587.43,145.689 
  1589.44,146.507 1591.46,147.331 1593.47,148.161 1595.49,148.997 1597.5,149.84 1599.52,150.688 1601.53,151.542 1603.54,152.403 1605.56,153.269 1607.57,154.142 
  1609.59,155.02 1611.6,155.905 1613.61,156.796 1615.63,157.693 1617.64,158.597 1619.66,159.506 1621.67,160.422 1623.69,161.344 1625.7,162.272 1627.71,163.206 
  1629.73,164.147 1631.74,165.094 1633.76,166.047 1635.77,167.006 1637.78,167.972 1639.8,168.944 1641.81,169.923 1643.83,170.907 1645.84,171.898 1647.86,172.896 
  1649.87,173.9 1651.88,174.91 1653.9,175.927 1655.91,176.95 1657.93,177.98 1659.94,179.016 1661.95,180.059 1663.97,181.108 1665.98,182.164 1668,183.226 
  1670.01,184.295 1672.03,185.37 1674.04,186.452 1676.05,187.541 1678.07,188.636 1680.08,189.738 1682.1,190.847 1684.11,191.962 1686.12,193.084 1688.14,194.213 
  1690.15,195.348 1692.17,196.491 1694.18,197.64 1696.2,198.796 1698.21,199.958 1700.22,201.128 1702.24,202.304 1704.25,203.488 1706.27,204.678 1708.28,205.875 
  1710.29,207.079 1712.31,208.29 1714.32,209.509 1716.34,210.734 1718.35,211.966 1720.37,213.205 1722.38,214.451 1724.39,215.705 1726.41,216.965 1728.42,218.233 
  1730.44,219.508 1732.45,220.79 1734.46,222.079 1736.48,223.376 1738.49,224.68 1740.51,225.991 1742.52,227.309 1744.54,228.635 1746.55,229.968 1748.56,231.309 
  1750.58,232.657 1752.59,234.012 1754.61,235.375 1756.62,236.746 1758.63,238.124 1760.65,239.509 1762.66,240.902 1764.68,242.303 1766.69,243.712 1768.71,245.128 
  1770.72,246.551 1772.73,247.983 1774.75,249.422 1776.76,250.869 1778.78,252.324 1780.79,253.787 1782.81,255.257 1784.82,256.736 1786.83,258.222 1788.85,259.716 
  1790.86,261.219 1792.88,262.729 1794.89,264.248 1796.9,265.774 1798.92,267.309 1800.93,268.852 1802.95,270.403 1804.96,271.962 1806.98,273.53 1808.99,275.106 
  1811,276.69 1813.02,278.282 1815.03,279.883 1817.05,281.493 1819.06,283.111 1821.07,284.737 1823.09,286.372 1825.1,288.016 1827.12,289.668 1829.13,291.329 
  1831.15,292.999 1833.16,294.677 1835.17,296.364 1837.19,298.06 1839.2,299.765 1841.22,301.479 1843.23,303.202 1845.24,304.934 1847.26,306.675 1849.27,308.425 
  1851.29,310.184 1853.3,311.952 1855.32,313.729 1857.33,315.516 1859.34,317.312 1861.36,319.118 1863.37,320.933 1865.39,322.757 1867.4,324.591 1869.41,326.434 
  1871.43,328.287 1873.44,330.15 1875.46,332.023 1877.47,333.905 1879.49,335.797 1881.5,337.699 1883.51,339.61 1885.53,341.532 1887.54,343.464 1889.56,345.406 
  1891.57,347.358 1893.58,349.32 1895.6,351.293 1897.61,353.276 1899.63,355.269 1901.64,357.273 1903.66,359.287 1905.67,361.312 1907.68,363.347 1909.7,365.393 
  1911.71,367.45 1913.73,369.518 1915.74,371.597 1917.75,373.686 1919.77,375.787 1921.78,377.898 1923.8,380.021 1925.81,382.155 1927.83,384.301 1929.84,386.457 
  1931.85,388.626 1933.87,390.805 1935.88,392.997 1937.9,395.2 1939.91,397.414 1941.92,399.641 1943.94,401.88 1945.95,404.13 1947.97,406.393 1949.98,408.668 
  1952,410.955 1954.01,413.254 1956.02,415.566 1958.04,417.89 1960.05,420.227 1962.07,422.577 1964.08,424.939 1966.09,427.315 1968.11,429.703 1970.12,432.104 
  1972.14,434.519 1974.15,436.947 1976.17,439.388 1978.18,441.843 1980.19,444.311 1982.21,446.793 1984.22,449.289 1986.24,451.799 1988.25,454.323 1990.26,456.861 
  1992.28,459.413 1994.29,461.98 1996.31,464.561 1998.32,467.157 2000.34,469.767 2002.35,472.393 2004.36,475.033 2006.38,477.689 2008.39,480.359 2010.41,483.046 
  2012.42,485.747 2014.44,488.465 2016.45,491.198 2018.46,493.948 2020.48,496.713 2022.49,499.495 2024.51,502.293 2026.52,505.107 2028.53,507.939 2030.55,510.787 
  2032.56,513.653 2034.58,516.535 2036.59,519.435 2038.61,522.353 2040.62,525.289 2042.63,528.242 2044.65,531.214 2046.66,534.203 2048.68,537.212 2050.69,540.239 
  2052.7,543.285 2054.72,546.35 2056.73,549.435 2058.75,552.539 2060.76,555.663 2062.78,558.807 2064.79,561.971 2066.8,565.155 2068.82,568.361 2070.83,571.587 
  2072.85,574.834 2074.86,578.103 2076.87,581.394 2078.89,584.707 2080.9,588.041 2082.92,591.399 2084.93,594.779 2086.95,598.183 2088.96,601.609 2090.97,605.06 
  2092.99,608.535 2095,612.034 2097.02,615.557 2099.03,619.106 2101.04,622.68 2103.06,626.28 2105.07,629.906 2107.09,633.559 2109.1,637.238 2111.12,640.945 
  2113.13,644.679 2115.14,648.442 2117.16,652.233 2119.17,656.053 2121.19,659.903 2123.2,663.783 2125.21,667.693 2127.23,671.634 2129.24,675.606 2131.26,679.61 
  2133.27,683.647 2135.29,687.717 2137.3,691.821 2139.31,695.959 2141.33,700.132 2143.34,704.34 2145.36,708.585 2147.37,712.866 2149.38,717.186 2151.4,721.543 
  2153.41,725.94 2155.43,730.376 2157.44,734.853 2159.46,739.372 2161.47,743.933 2163.48,748.537 2165.5,753.186 2167.51,757.88 2169.53,762.621 2171.54,767.408 
  2173.55,772.245 2175.57,777.13 2177.58,782.067 2179.6,787.056 2181.61,792.098 2183.63,797.195 2185.64,802.349 2187.65,807.56 2189.67,812.83 2191.68,818.162 
  2193.7,823.556 2195.71,829.015 2197.72,834.54 2199.74,840.134 2201.75,845.798 2203.77,851.535 2205.78,857.348 2207.8,863.238 2209.81,869.209 2211.82,875.263 
  2213.84,881.404 2215.85,887.634 2217.87,893.957 2219.88,900.376 2221.9,906.896 2223.91,913.521 2225.92,920.255 2227.94,927.102 2229.95,934.069 2231.97,941.161 
  2233.98,948.383 2235.99,955.743 2238.01,963.248 2240.02,970.905 2242.04,978.724 2244.05,986.713 2246.07,994.883 2248.08,1003.25 2250.09,1011.82 2252.11,1020.61 
  2254.12,1029.63 2256.14,1038.91 2258.15,1048.47 2260.16,1058.33 2262.18,1068.52 2264.19,1079.07 2266.21,1090.02 2268.22,1101.42 2270.24,1113.32 2272.25,1125.8 
  2274.26,1138.94 2276.28,1152.85 2278.29,1167.69 2280.31,1183.65 2282.32,1201.03 2284.33,1220.29 2286.35,1242.19 2288.36,1268.2 2290.38,1302.14 2292.39,1384.24 
  
  "/>
<path clip-path="url(#clip540)" d="
M1992.24 196.789 L2281.66 196.789 L2281.66 93.1086 L1992.24 93.1086  Z
  " fill="#ffffff" fill-rule="evenodd" fill-opacity="1"/>
<polyline clip-path="url(#clip540)" style="stroke:#000000; stroke-linecap:butt; stroke-linejoin:round; stroke-width:4; stroke-opacity:1; fill:none" points="
  1992.24,196.789 2281.66,196.789 2281.66,93.1086 1992.24,93.1086 1992.24,196.789 
  "/>
<polyline clip-path="url(#clip540)" style="stroke:#009af9; stroke-linecap:butt; stroke-linejoin:round; stroke-width:4; stroke-opacity:1; fill:none" points="
  2015.94,144.949 2158.13,144.949 
  "/>
<path clip-path="url(#clip540)" d="M2195.67 164.636 Q2193.87 169.266 2192.16 170.678 Q2190.44 172.09 2187.57 172.09 L2184.17 172.09 L2184.17 168.525 L2186.67 168.525 Q2188.43 168.525 2189.4 167.692 Q2190.37 166.858 2191.55 163.756 L2192.32 161.812 L2181.83 136.303 L2186.35 136.303 L2194.45 156.581 L2202.55 136.303 L2207.06 136.303 L2195.67 164.636 Z" fill="#000000" fill-rule="evenodd" fill-opacity="1" /><path clip-path="url(#clip540)" d="M2214.35 158.293 L2221.99 158.293 L2221.99 131.928 L2213.68 133.595 L2213.68 129.335 L2221.95 127.669 L2226.62 127.669 L2226.62 158.293 L2234.26 158.293 L2234.26 162.229 L2214.35 162.229 L2214.35 158.293 Z" fill="#000000" fill-rule="evenodd" fill-opacity="1" /></svg>
