<?xml version="1.0" encoding="utf-8"?>
<svg xmlns="http://www.w3.org/2000/svg" xmlns:xlink="http://www.w3.org/1999/xlink" width="600" height="400" viewBox="0 0 2400 1600">
<defs>
  <clipPath id="clip990">
    <rect x="0" y="0" width="2400" height="1600"/>
  </clipPath>
</defs>
<path clip-path="url(#clip990)" d="
M0 1600 L2400 1600 L2400 0 L0 0  Z
  " fill="#ffffff" fill-rule="evenodd" fill-opacity="1"/>
<defs>
  <clipPath id="clip991">
    <rect x="480" y="0" width="1681" height="1600"/>
  </clipPath>
</defs>
<defs>
  <clipPath id="clip992">
    <rect x="219" y="47" width="2134" height="1377"/>
  </clipPath>
</defs>
<path clip-path="url(#clip990)" d="
M189.496 1423.18 L2352.76 1423.18 L2352.76 47.2441 L189.496 47.2441  Z
  " fill="#ffffff" fill-rule="evenodd" fill-opacity="1"/>
<defs>
  <clipPath id="clip993">
    <rect x="189" y="47" width="2164" height="1377"/>
  </clipPath>
</defs>
<polyline clip-path="url(#clip993)" style="stroke:#000000; stroke-linecap:butt; stroke-linejoin:round; stroke-width:2; stroke-opacity:0.1; fill:none" points="
  605.644,1423.18 605.644,47.2441 
  "/>
<polyline clip-path="url(#clip993)" style="stroke:#000000; stroke-linecap:butt; stroke-linejoin:round; stroke-width:2; stroke-opacity:0.1; fill:none" points="
  1049.3,1423.18 1049.3,47.2441 
  "/>
<polyline clip-path="url(#clip993)" style="stroke:#000000; stroke-linecap:butt; stroke-linejoin:round; stroke-width:2; stroke-opacity:0.1; fill:none" points="
  1492.95,1423.18 1492.95,47.2441 
  "/>
<polyline clip-path="url(#clip993)" style="stroke:#000000; stroke-linecap:butt; stroke-linejoin:round; stroke-width:2; stroke-opacity:0.1; fill:none" points="
  1936.61,1423.18 1936.61,47.2441 
  "/>
<polyline clip-path="url(#clip990)" style="stroke:#000000; stroke-linecap:butt; stroke-linejoin:round; stroke-width:4; stroke-opacity:1; fill:none" points="
  189.496,1423.18 2352.76,1423.18 
  "/>
<polyline clip-path="url(#clip990)" style="stroke:#000000; stroke-linecap:butt; stroke-linejoin:round; stroke-width:4; stroke-opacity:1; fill:none" points="
  605.644,1423.18 605.644,1404.28 
  "/>
<polyline clip-path="url(#clip990)" style="stroke:#000000; stroke-linecap:butt; stroke-linejoin:round; stroke-width:4; stroke-opacity:1; fill:none" points="
  1049.3,1423.18 1049.3,1404.28 
  "/>
<polyline clip-path="url(#clip990)" style="stroke:#000000; stroke-linecap:butt; stroke-linejoin:round; stroke-width:4; stroke-opacity:1; fill:none" points="
  1492.95,1423.18 1492.95,1404.28 
  "/>
<polyline clip-path="url(#clip990)" style="stroke:#000000; stroke-linecap:butt; stroke-linejoin:round; stroke-width:4; stroke-opacity:1; fill:none" points="
  1936.61,1423.18 1936.61,1404.28 
  "/>
<path clip-path="url(#clip990)" d="M595.922 1451.02 L614.278 1451.02 L614.278 1454.96 L600.204 1454.96 L600.204 1463.43 Q601.223 1463.08 602.241 1462.92 Q603.26 1462.73 604.278 1462.73 Q610.065 1462.73 613.445 1465.9 Q616.824 1469.08 616.824 1474.49 Q616.824 1480.07 613.352 1483.17 Q609.88 1486.25 603.561 1486.25 Q601.385 1486.25 599.116 1485.88 Q596.871 1485.51 594.463 1484.77 L594.463 1480.07 Q596.547 1481.2 598.769 1481.76 Q600.991 1482.32 603.468 1482.32 Q607.473 1482.32 609.811 1480.21 Q612.149 1478.1 612.149 1474.49 Q612.149 1470.88 609.811 1468.77 Q607.473 1466.67 603.468 1466.67 Q601.593 1466.67 599.718 1467.08 Q597.866 1467.5 595.922 1468.38 L595.922 1451.02 Z" fill="#000000" fill-rule="evenodd" fill-opacity="1" /><path clip-path="url(#clip990)" d="M1023.99 1481.64 L1031.63 1481.64 L1031.63 1455.28 L1023.31 1456.95 L1023.31 1452.69 L1031.58 1451.02 L1036.25 1451.02 L1036.25 1481.64 L1043.89 1481.64 L1043.89 1485.58 L1023.99 1485.58 L1023.99 1481.64 Z" fill="#000000" fill-rule="evenodd" fill-opacity="1" /><path clip-path="url(#clip990)" d="M1063.34 1454.1 Q1059.73 1454.1 1057.9 1457.66 Q1056.09 1461.2 1056.09 1468.33 Q1056.09 1475.44 1057.9 1479.01 Q1059.73 1482.55 1063.34 1482.55 Q1066.97 1482.55 1068.78 1479.01 Q1070.61 1475.44 1070.61 1468.33 Q1070.61 1461.2 1068.78 1457.66 Q1066.97 1454.1 1063.34 1454.1 M1063.34 1450.39 Q1069.15 1450.39 1072.2 1455 Q1075.28 1459.58 1075.28 1468.33 Q1075.28 1477.06 1072.2 1481.67 Q1069.15 1486.25 1063.34 1486.25 Q1057.53 1486.25 1054.45 1481.67 Q1051.39 1477.06 1051.39 1468.33 Q1051.39 1459.58 1054.45 1455 Q1057.53 1450.39 1063.34 1450.39 Z" fill="#000000" fill-rule="evenodd" fill-opacity="1" /><path clip-path="url(#clip990)" d="M1468.14 1481.64 L1475.78 1481.64 L1475.78 1455.28 L1467.47 1456.95 L1467.47 1452.69 L1475.73 1451.02 L1480.41 1451.02 L1480.41 1481.64 L1488.05 1481.64 L1488.05 1485.58 L1468.14 1485.58 L1468.14 1481.64 Z" fill="#000000" fill-rule="evenodd" fill-opacity="1" /><path clip-path="url(#clip990)" d="M1497.54 1451.02 L1515.89 1451.02 L1515.89 1454.96 L1501.82 1454.96 L1501.82 1463.43 Q1502.84 1463.08 1503.86 1462.92 Q1504.87 1462.73 1505.89 1462.73 Q1511.68 1462.73 1515.06 1465.9 Q1518.44 1469.08 1518.44 1474.49 Q1518.44 1480.07 1514.97 1483.17 Q1511.49 1486.25 1505.18 1486.25 Q1503 1486.25 1500.73 1485.88 Q1498.49 1485.51 1496.08 1484.77 L1496.08 1480.07 Q1498.16 1481.2 1500.38 1481.76 Q1502.61 1482.32 1505.08 1482.32 Q1509.09 1482.32 1511.43 1480.21 Q1513.76 1478.1 1513.76 1474.49 Q1513.76 1470.88 1511.43 1468.77 Q1509.09 1466.67 1505.08 1466.67 Q1503.21 1466.67 1501.33 1467.08 Q1499.48 1467.5 1497.54 1468.38 L1497.54 1451.02 Z" fill="#000000" fill-rule="evenodd" fill-opacity="1" /><path clip-path="url(#clip990)" d="M1915.38 1481.64 L1931.7 1481.64 L1931.7 1485.58 L1909.76 1485.58 L1909.76 1481.64 Q1912.42 1478.89 1917 1474.26 Q1921.61 1469.61 1922.79 1468.27 Q1925.03 1465.74 1925.91 1464.01 Q1926.82 1462.25 1926.82 1460.56 Q1926.82 1457.8 1924.87 1456.07 Q1922.95 1454.33 1919.85 1454.33 Q1917.65 1454.33 1915.2 1455.09 Q1912.77 1455.86 1909.99 1457.41 L1909.99 1452.69 Q1912.81 1451.55 1915.27 1450.97 Q1917.72 1450.39 1919.76 1450.39 Q1925.13 1450.39 1928.32 1453.08 Q1931.52 1455.77 1931.52 1460.26 Q1931.52 1462.39 1930.71 1464.31 Q1929.92 1466.2 1927.81 1468.8 Q1927.23 1469.47 1924.13 1472.69 Q1921.03 1475.88 1915.38 1481.64 Z" fill="#000000" fill-rule="evenodd" fill-opacity="1" /><path clip-path="url(#clip990)" d="M1951.52 1454.1 Q1947.9 1454.1 1946.08 1457.66 Q1944.27 1461.2 1944.27 1468.33 Q1944.27 1475.44 1946.08 1479.01 Q1947.9 1482.55 1951.52 1482.55 Q1955.15 1482.55 1956.95 1479.01 Q1958.78 1475.44 1958.78 1468.33 Q1958.78 1461.2 1956.95 1457.66 Q1955.15 1454.1 1951.52 1454.1 M1951.52 1450.39 Q1957.33 1450.39 1960.38 1455 Q1963.46 1459.58 1963.46 1468.33 Q1963.46 1477.06 1960.38 1481.67 Q1957.33 1486.25 1951.52 1486.25 Q1945.71 1486.25 1942.63 1481.67 Q1939.57 1477.06 1939.57 1468.33 Q1939.57 1459.58 1942.63 1455 Q1945.71 1450.39 1951.52 1450.39 Z" fill="#000000" fill-rule="evenodd" fill-opacity="1" /><path clip-path="url(#clip990)" d="M1275.5 1533.4 L1266 1571.54 Q1265.62 1573.05 1265.62 1574.69 Q1265.62 1577.72 1267.61 1577.72 Q1268.55 1577.72 1269.32 1577.11 Q1270.09 1576.46 1270.67 1575.21 Q1271.28 1573.92 1271.67 1572.7 Q1272.09 1571.47 1272.6 1569.57 Q1272.77 1568.83 1272.93 1568.61 Q1273.09 1568.38 1273.54 1568.38 Q1274.34 1568.38 1274.34 1569.02 Q1273.54 1572.99 1272.35 1575.5 Q1270.61 1579.2 1267.39 1579.2 Q1264.97 1579.2 1263.17 1577.53 Q1261.4 1575.82 1261.4 1573.11 Q1261.4 1572.08 1261.72 1570.86 L1270.03 1537.88 L1270.25 1536.59 Q1270.25 1536.24 1270.12 1536.05 Q1270 1535.85 1269.22 1535.66 Q1268.48 1535.47 1267 1535.47 Q1266.39 1535.47 1266.1 1535.43 Q1265.84 1535.4 1265.58 1535.24 Q1265.36 1535.08 1265.36 1534.73 Q1265.36 1534.15 1265.58 1533.82 Q1265.84 1533.5 1266.03 1533.44 Q1266.23 1533.37 1266.61 1533.34 Q1267.16 1533.31 1269 1533.15 Q1270.83 1532.95 1272.41 1532.83 Q1273.99 1532.7 1274.67 1532.7 Q1275.05 1532.7 1275.25 1532.89 Q1275.47 1533.05 1275.5 1533.24 L1275.5 1533.4 Z" fill="#000000" fill-rule="evenodd" fill-opacity="1" /><polyline clip-path="url(#clip993)" style="stroke:#000000; stroke-linecap:butt; stroke-linejoin:round; stroke-width:2; stroke-opacity:0.1; fill:none" points="
  189.496,1423.18 2352.76,1423.18 
  "/>
<polyline clip-path="url(#clip993)" style="stroke:#000000; stroke-linecap:butt; stroke-linejoin:round; stroke-width:2; stroke-opacity:0.1; fill:none" points="
  189.496,1147.99 2352.76,1147.99 
  "/>
<polyline clip-path="url(#clip993)" style="stroke:#000000; stroke-linecap:butt; stroke-linejoin:round; stroke-width:2; stroke-opacity:0.1; fill:none" points="
  189.496,872.806 2352.76,872.806 
  "/>
<polyline clip-path="url(#clip993)" style="stroke:#000000; stroke-linecap:butt; stroke-linejoin:round; stroke-width:2; stroke-opacity:0.1; fill:none" points="
  189.496,597.618 2352.76,597.618 
  "/>
<polyline clip-path="url(#clip993)" style="stroke:#000000; stroke-linecap:butt; stroke-linejoin:round; stroke-width:2; stroke-opacity:0.1; fill:none" points="
  189.496,322.431 2352.76,322.431 
  "/>
<polyline clip-path="url(#clip993)" style="stroke:#000000; stroke-linecap:butt; stroke-linejoin:round; stroke-width:2; stroke-opacity:0.1; fill:none" points="
  189.496,47.2441 2352.76,47.2441 
  "/>
<polyline clip-path="url(#clip990)" style="stroke:#000000; stroke-linecap:butt; stroke-linejoin:round; stroke-width:4; stroke-opacity:1; fill:none" points="
  189.496,1423.18 189.496,47.2441 
  "/>
<polyline clip-path="url(#clip990)" style="stroke:#000000; stroke-linecap:butt; stroke-linejoin:round; stroke-width:4; stroke-opacity:1; fill:none" points="
  189.496,1423.18 208.394,1423.18 
  "/>
<polyline clip-path="url(#clip990)" style="stroke:#000000; stroke-linecap:butt; stroke-linejoin:round; stroke-width:4; stroke-opacity:1; fill:none" points="
  189.496,1147.99 208.394,1147.99 
  "/>
<polyline clip-path="url(#clip990)" style="stroke:#000000; stroke-linecap:butt; stroke-linejoin:round; stroke-width:4; stroke-opacity:1; fill:none" points="
  189.496,872.806 208.394,872.806 
  "/>
<polyline clip-path="url(#clip990)" style="stroke:#000000; stroke-linecap:butt; stroke-linejoin:round; stroke-width:4; stroke-opacity:1; fill:none" points="
  189.496,597.618 208.394,597.618 
  "/>
<polyline clip-path="url(#clip990)" style="stroke:#000000; stroke-linecap:butt; stroke-linejoin:round; stroke-width:4; stroke-opacity:1; fill:none" points="
  189.496,322.431 208.394,322.431 
  "/>
<polyline clip-path="url(#clip990)" style="stroke:#000000; stroke-linecap:butt; stroke-linejoin:round; stroke-width:4; stroke-opacity:1; fill:none" points="
  189.496,47.2441 208.394,47.2441 
  "/>
<path clip-path="url(#clip990)" d="M52.8671 1442.97 L60.506 1442.97 L60.506 1416.61 L52.1958 1418.27 L52.1958 1414.01 L60.4597 1412.35 L65.1356 1412.35 L65.1356 1442.97 L72.7744 1442.97 L72.7744 1446.91 L52.8671 1446.91 L52.8671 1442.97 Z" fill="#000000" fill-rule="evenodd" fill-opacity="1" /><path clip-path="url(#clip990)" d="M92.2188 1415.43 Q88.6077 1415.43 86.779 1418.99 Q84.9734 1422.53 84.9734 1429.66 Q84.9734 1436.77 86.779 1440.33 Q88.6077 1443.88 92.2188 1443.88 Q95.853 1443.88 97.6585 1440.33 Q99.4872 1436.77 99.4872 1429.66 Q99.4872 1422.53 97.6585 1418.99 Q95.853 1415.43 92.2188 1415.43 M92.2188 1411.72 Q98.0289 1411.72 101.084 1416.33 Q104.163 1420.91 104.163 1429.66 Q104.163 1438.39 101.084 1443 Q98.0289 1447.58 92.2188 1447.58 Q86.4086 1447.58 83.3299 1443 Q80.2744 1438.39 80.2744 1429.66 Q80.2744 1420.91 83.3299 1416.33 Q86.4086 1411.72 92.2188 1411.72 Z" fill="#000000" fill-rule="evenodd" fill-opacity="1" /><path clip-path="url(#clip990)" d="M104.163 1405.82 L128.275 1405.82 L128.275 1409.02 L104.163 1409.02 L104.163 1405.82 Z" fill="#000000" fill-rule="evenodd" fill-opacity="1" /><path clip-path="url(#clip990)" d="M136.513 1391.42 L151.427 1391.42 L151.427 1394.61 L139.992 1394.61 L139.992 1401.5 Q140.819 1401.22 141.647 1401.08 Q142.475 1400.93 143.302 1400.93 Q148.004 1400.93 150.75 1403.51 Q153.496 1406.09 153.496 1410.49 Q153.496 1415.02 150.675 1417.54 Q147.854 1420.04 142.719 1420.04 Q140.951 1420.04 139.108 1419.74 Q137.284 1419.44 135.328 1418.84 L135.328 1415.02 Q137.02 1415.94 138.826 1416.39 Q140.631 1416.85 142.644 1416.85 Q145.898 1416.85 147.797 1415.13 Q149.697 1413.42 149.697 1410.49 Q149.697 1407.55 147.797 1405.84 Q145.898 1404.13 142.644 1404.13 Q141.12 1404.13 139.597 1404.47 Q138.092 1404.81 136.513 1405.52 L136.513 1391.42 Z" fill="#000000" fill-rule="evenodd" fill-opacity="1" /><path clip-path="url(#clip990)" d="M51.6634 1167.79 L59.3023 1167.79 L59.3023 1141.42 L50.9921 1143.09 L50.9921 1138.83 L59.256 1137.16 L63.9319 1137.16 L63.9319 1167.79 L71.5707 1167.79 L71.5707 1171.72 L51.6634 1171.72 L51.6634 1167.79 Z" fill="#000000" fill-rule="evenodd" fill-opacity="1" /><path clip-path="url(#clip990)" d="M91.0151 1140.24 Q87.404 1140.24 85.5753 1143.8 Q83.7697 1147.35 83.7697 1154.48 Q83.7697 1161.58 85.5753 1165.15 Q87.404 1168.69 91.0151 1168.69 Q94.6493 1168.69 96.4548 1165.15 Q98.2835 1161.58 98.2835 1154.48 Q98.2835 1147.35 96.4548 1143.8 Q94.6493 1140.24 91.0151 1140.24 M91.0151 1136.54 Q96.8252 1136.54 99.8808 1141.14 Q102.959 1145.73 102.959 1154.48 Q102.959 1163.2 99.8808 1167.81 Q96.8252 1172.39 91.0151 1172.39 Q85.2049 1172.39 82.1262 1167.81 Q79.0707 1163.2 79.0707 1154.48 Q79.0707 1145.73 82.1262 1141.14 Q85.2049 1136.54 91.0151 1136.54 Z" fill="#000000" fill-rule="evenodd" fill-opacity="1" /><path clip-path="url(#clip990)" d="M102.959 1130.64 L127.071 1130.64 L127.071 1133.83 L102.959 1133.83 L102.959 1130.64 Z" fill="#000000" fill-rule="evenodd" fill-opacity="1" /><path clip-path="url(#clip990)" d="M145.71 1119.54 L136.118 1134.53 L145.71 1134.53 L145.71 1119.54 M144.713 1116.23 L149.49 1116.23 L149.49 1134.53 L153.496 1134.53 L153.496 1137.69 L149.49 1137.69 L149.49 1144.31 L145.71 1144.31 L145.71 1137.69 L133.033 1137.69 L133.033 1134.02 L144.713 1116.23 Z" fill="#000000" fill-rule="evenodd" fill-opacity="1" /><path clip-path="url(#clip990)" d="M52.585 892.598 L60.2238 892.598 L60.2238 866.232 L51.9137 867.899 L51.9137 863.64 L60.1776 861.973 L64.8535 861.973 L64.8535 892.598 L72.4923 892.598 L72.4923 896.533 L52.585 896.533 L52.585 892.598 Z" fill="#000000" fill-rule="evenodd" fill-opacity="1" /><path clip-path="url(#clip990)" d="M91.9366 865.052 Q88.3255 865.052 86.4969 868.617 Q84.6913 872.158 84.6913 879.288 Q84.6913 886.394 86.4969 889.959 Q88.3255 893.501 91.9366 893.501 Q95.5709 893.501 97.3764 889.959 Q99.2051 886.394 99.2051 879.288 Q99.2051 872.158 97.3764 868.617 Q95.5709 865.052 91.9366 865.052 M91.9366 861.348 Q97.7468 861.348 100.802 865.955 Q103.881 870.538 103.881 879.288 Q103.881 888.015 100.802 892.621 Q97.7468 897.204 91.9366 897.204 Q86.1265 897.204 83.0478 892.621 Q79.9923 888.015 79.9923 879.288 Q79.9923 870.538 83.0478 865.955 Q86.1265 861.348 91.9366 861.348 Z" fill="#000000" fill-rule="evenodd" fill-opacity="1" /><path clip-path="url(#clip990)" d="M103.881 855.449 L127.993 855.449 L127.993 858.647 L103.881 858.647 L103.881 855.449 Z" fill="#000000" fill-rule="evenodd" fill-opacity="1" /><path clip-path="url(#clip990)" d="M147.703 853.982 Q150.43 854.566 151.954 856.409 Q153.496 858.252 153.496 860.96 Q153.496 865.117 150.637 867.392 Q147.778 869.668 142.512 869.668 Q140.744 869.668 138.863 869.311 Q137.002 868.972 135.008 868.276 L135.008 864.609 Q136.588 865.53 138.469 866.001 Q140.349 866.471 142.399 866.471 Q145.973 866.471 147.835 865.06 Q149.716 863.65 149.716 860.96 Q149.716 858.478 147.966 857.086 Q146.236 855.675 143.133 855.675 L139.86 855.675 L139.86 852.553 L143.283 852.553 Q146.086 852.553 147.571 851.443 Q149.057 850.315 149.057 848.209 Q149.057 846.046 147.515 844.898 Q145.992 843.732 143.133 843.732 Q141.572 843.732 139.785 844.071 Q137.998 844.409 135.854 845.124 L135.854 841.739 Q138.017 841.137 139.898 840.836 Q141.797 840.535 143.471 840.535 Q147.797 840.535 150.317 842.51 Q152.838 844.466 152.838 847.814 Q152.838 850.146 151.502 851.763 Q150.167 853.362 147.703 853.982 Z" fill="#000000" fill-rule="evenodd" fill-opacity="1" /><path clip-path="url(#clip990)" d="M53.3561 617.411 L60.995 617.411 L60.995 591.045 L52.6848 592.712 L52.6848 588.453 L60.9487 586.786 L65.6246 586.786 L65.6246 617.411 L73.2634 617.411 L73.2634 621.346 L53.3561 621.346 L53.3561 617.411 Z" fill="#000000" fill-rule="evenodd" fill-opacity="1" /><path clip-path="url(#clip990)" d="M92.7078 589.865 Q89.0967 589.865 87.268 593.429 Q85.4624 596.971 85.4624 604.101 Q85.4624 611.207 87.268 614.772 Q89.0967 618.314 92.7078 618.314 Q96.342 618.314 98.1475 614.772 Q99.9762 611.207 99.9762 604.101 Q99.9762 596.971 98.1475 593.429 Q96.342 589.865 92.7078 589.865 M92.7078 586.161 Q98.5179 586.161 101.573 590.767 Q104.652 595.351 104.652 604.101 Q104.652 612.828 101.573 617.434 Q98.5179 622.017 92.7078 622.017 Q86.8976 622.017 83.8189 617.434 Q80.7634 612.828 80.7634 604.101 Q80.7634 595.351 83.8189 590.767 Q86.8976 586.161 92.7078 586.161 Z" fill="#000000" fill-rule="evenodd" fill-opacity="1" /><path clip-path="url(#clip990)" d="M104.652 580.262 L128.764 580.262 L128.764 583.46 L104.652 583.46 L104.652 580.262 Z" fill="#000000" fill-rule="evenodd" fill-opacity="1" /><path clip-path="url(#clip990)" d="M140.236 590.738 L153.496 590.738 L153.496 593.936 L135.666 593.936 L135.666 590.738 Q137.829 588.5 141.553 584.739 Q145.296 580.958 146.255 579.867 Q148.079 577.817 148.794 576.407 Q149.527 574.977 149.527 573.604 Q149.527 571.366 147.948 569.956 Q146.387 568.545 143.866 568.545 Q142.08 568.545 140.086 569.166 Q138.111 569.786 135.854 571.047 L135.854 567.21 Q138.149 566.288 140.142 565.818 Q142.136 565.348 143.791 565.348 Q148.155 565.348 150.75 567.529 Q153.345 569.711 153.345 573.36 Q153.345 575.09 152.687 576.651 Q152.048 578.193 150.336 580.3 Q149.866 580.845 147.346 583.46 Q144.826 586.055 140.236 590.738 Z" fill="#000000" fill-rule="evenodd" fill-opacity="1" /><path clip-path="url(#clip990)" d="M53.0552 342.224 L60.694 342.224 L60.694 315.858 L52.3839 317.525 L52.3839 313.266 L60.6477 311.599 L65.3236 311.599 L65.3236 342.224 L72.9625 342.224 L72.9625 346.159 L53.0552 346.159 L53.0552 342.224 Z" fill="#000000" fill-rule="evenodd" fill-opacity="1" /><path clip-path="url(#clip990)" d="M92.4068 314.678 Q88.7957 314.678 86.967 318.242 Q85.1615 321.784 85.1615 328.914 Q85.1615 336.02 86.967 339.585 Q88.7957 343.126 92.4068 343.126 Q96.0411 343.126 97.8466 339.585 Q99.6753 336.02 99.6753 328.914 Q99.6753 321.784 97.8466 318.242 Q96.0411 314.678 92.4068 314.678 M92.4068 310.974 Q98.217 310.974 101.273 315.58 Q104.351 320.164 104.351 328.914 Q104.351 337.64 101.273 342.247 Q98.217 346.83 92.4068 346.83 Q86.5967 346.83 83.518 342.247 Q80.4625 337.64 80.4625 328.914 Q80.4625 320.164 83.518 315.58 Q86.5967 310.974 92.4068 310.974 Z" fill="#000000" fill-rule="evenodd" fill-opacity="1" /><path clip-path="url(#clip990)" d="M104.351 305.075 L128.463 305.075 L128.463 308.273 L104.351 308.273 L104.351 305.075 Z" fill="#000000" fill-rule="evenodd" fill-opacity="1" /><path clip-path="url(#clip990)" d="M137.321 315.551 L143.528 315.551 L143.528 294.129 L136.776 295.483 L136.776 292.023 L143.49 290.668 L147.289 290.668 L147.289 315.551 L153.496 315.551 L153.496 318.748 L137.321 318.748 L137.321 315.551 Z" fill="#000000" fill-rule="evenodd" fill-opacity="1" /><path clip-path="url(#clip990)" d="M82.7903 67.0365 L90.4291 67.0365 L90.4291 40.6709 L82.119 42.3376 L82.119 38.0784 L90.3828 36.4117 L95.0587 36.4117 L95.0587 67.0365 L102.698 67.0365 L102.698 70.9717 L82.7903 70.9717 L82.7903 67.0365 Z" fill="#000000" fill-rule="evenodd" fill-opacity="1" /><path clip-path="url(#clip990)" d="M122.142 39.4904 Q118.531 39.4904 116.702 43.0552 Q114.897 46.5968 114.897 53.7264 Q114.897 60.8329 116.702 64.3977 Q118.531 67.9393 122.142 67.9393 Q125.776 67.9393 127.582 64.3977 Q129.41 60.8329 129.41 53.7264 Q129.41 46.5968 127.582 43.0552 Q125.776 39.4904 122.142 39.4904 M122.142 35.7867 Q127.952 35.7867 131.008 40.3932 Q134.086 44.9765 134.086 53.7264 Q134.086 62.4532 131.008 67.0597 Q127.952 71.643 122.142 71.643 Q116.332 71.643 113.253 67.0597 Q110.198 62.4532 110.198 53.7264 Q110.198 44.9765 113.253 40.3932 Q116.332 35.7867 122.142 35.7867 Z" fill="#000000" fill-rule="evenodd" fill-opacity="1" /><path clip-path="url(#clip990)" d="M143.791 17.9827 Q140.857 17.9827 139.371 20.8791 Q137.904 23.7567 137.904 29.5495 Q137.904 35.3235 139.371 38.2199 Q140.857 41.0975 143.791 41.0975 Q146.744 41.0975 148.211 38.2199 Q149.697 35.3235 149.697 29.5495 Q149.697 23.7567 148.211 20.8791 Q146.744 17.9827 143.791 17.9827 M143.791 14.9735 Q148.512 14.9735 150.994 18.7162 Q153.496 22.4402 153.496 29.5495 Q153.496 36.64 150.994 40.3828 Q148.512 44.1067 143.791 44.1067 Q139.07 44.1067 136.569 40.3828 Q134.086 36.64 134.086 29.5495 Q134.086 22.4402 136.569 18.7162 Q139.07 14.9735 143.791 14.9735 Z" fill="#000000" fill-rule="evenodd" fill-opacity="1" /><polyline clip-path="url(#clip993)" style="stroke:#000000; stroke-linecap:butt; stroke-linejoin:round; stroke-width:4; stroke-opacity:0; fill:none" points="
  250.72,135.959 339.451,4891.41 428.182,264.337 516.913,4787.21 605.644,319.24 694.375,5134.84 783.106,693.878 871.837,5100.46 960.568,281.348 1049.3,4777.81 
  1138.03,272.938 1226.76,4755.02 1315.49,334.239 1404.22,4826.78 1492.95,441.542 1581.68,4851.94 1670.42,546.602 1759.15,5057.09 1847.88,545.473 1936.61,4786.13 
  2025.34,504.738 2114.07,4841.23 2202.8,484.017 2291.53,4883.86 
  "/>
<circle clip-path="url(#clip993)" cx="250.72" cy="135.959" r="14" fill="#009af9" fill-rule="evenodd" fill-opacity="1" stroke="#000000" stroke-opacity="1" stroke-width="3.2"/>
<circle clip-path="url(#clip993)" cx="428.182" cy="264.337" r="14" fill="#009af9" fill-rule="evenodd" fill-opacity="1" stroke="#000000" stroke-opacity="1" stroke-width="3.2"/>
<circle clip-path="url(#clip993)" cx="605.644" cy="319.24" r="14" fill="#009af9" fill-rule="evenodd" fill-opacity="1" stroke="#000000" stroke-opacity="1" stroke-width="3.2"/>
<circle clip-path="url(#clip993)" cx="783.106" cy="693.878" r="14" fill="#009af9" fill-rule="evenodd" fill-opacity="1" stroke="#000000" stroke-opacity="1" stroke-width="3.2"/>
<circle clip-path="url(#clip993)" cx="960.568" cy="281.348" r="14" fill="#009af9" fill-rule="evenodd" fill-opacity="1" stroke="#000000" stroke-opacity="1" stroke-width="3.2"/>
<circle clip-path="url(#clip993)" cx="1138.03" cy="272.938" r="14" fill="#009af9" fill-rule="evenodd" fill-opacity="1" stroke="#000000" stroke-opacity="1" stroke-width="3.2"/>
<circle clip-path="url(#clip993)" cx="1315.49" cy="334.239" r="14" fill="#009af9" fill-rule="evenodd" fill-opacity="1" stroke="#000000" stroke-opacity="1" stroke-width="3.2"/>
<circle clip-path="url(#clip993)" cx="1492.95" cy="441.542" r="14" fill="#009af9" fill-rule="evenodd" fill-opacity="1" stroke="#000000" stroke-opacity="1" stroke-width="3.2"/>
<circle clip-path="url(#clip993)" cx="1670.42" cy="546.602" r="14" fill="#009af9" fill-rule="evenodd" fill-opacity="1" stroke="#000000" stroke-opacity="1" stroke-width="3.2"/>
<circle clip-path="url(#clip993)" cx="1847.88" cy="545.473" r="14" fill="#009af9" fill-rule="evenodd" fill-opacity="1" stroke="#000000" stroke-opacity="1" stroke-width="3.2"/>
<circle clip-path="url(#clip993)" cx="2025.34" cy="504.738" r="14" fill="#009af9" fill-rule="evenodd" fill-opacity="1" stroke="#000000" stroke-opacity="1" stroke-width="3.2"/>
<circle clip-path="url(#clip993)" cx="2202.8" cy="484.017" r="14" fill="#009af9" fill-rule="evenodd" fill-opacity="1" stroke="#000000" stroke-opacity="1" stroke-width="3.2"/>
<polyline clip-path="url(#clip993)" style="stroke:#000000; stroke-linecap:butt; stroke-linejoin:round; stroke-width:4; stroke-opacity:0; fill:none" points="
  250.72,91.2338 339.451,4865.57 428.182,291.247 516.913,4862.16 605.644,455.715 694.375,5334.46 783.106,961.797 871.837,5439.79 960.568,695.498 1049.3,5269.83 
  1138.03,845.782 1226.76,5411.55 1315.49,1077.23 1404.22,5658.96 1492.95,1365.58 1581.68,5870.47 1670.42,1662.21 1759.15,6272.35 1847.88,1862.93 1936.61,6208.31 
  2025.34,2034.13 2114.07,6480.33 2202.8,2235.29 2291.53,6749.77 
  "/>
<path clip-path="url(#clip993)" d="M250.72 75.2338 L234.72 91.2338 L250.72 107.234 L266.72 91.2338 L250.72 75.2338 Z" fill="#e26f46" fill-rule="evenodd" fill-opacity="1" stroke="#000000" stroke-opacity="1" stroke-width="3.2"/>
<path clip-path="url(#clip993)" d="M428.182 275.247 L412.182 291.247 L428.182 307.247 L444.182 291.247 L428.182 275.247 Z" fill="#e26f46" fill-rule="evenodd" fill-opacity="1" stroke="#000000" stroke-opacity="1" stroke-width="3.2"/>
<path clip-path="url(#clip993)" d="M605.644 439.715 L589.644 455.715 L605.644 471.715 L621.644 455.715 L605.644 439.715 Z" fill="#e26f46" fill-rule="evenodd" fill-opacity="1" stroke="#000000" stroke-opacity="1" stroke-width="3.2"/>
<path clip-path="url(#clip993)" d="M783.106 945.797 L767.106 961.797 L783.106 977.797 L799.106 961.797 L783.106 945.797 Z" fill="#e26f46" fill-rule="evenodd" fill-opacity="1" stroke="#000000" stroke-opacity="1" stroke-width="3.2"/>
<path clip-path="url(#clip993)" d="M960.568 679.498 L944.568 695.498 L960.568 711.498 L976.568 695.498 L960.568 679.498 Z" fill="#e26f46" fill-rule="evenodd" fill-opacity="1" stroke="#000000" stroke-opacity="1" stroke-width="3.2"/>
<path clip-path="url(#clip993)" d="M1138.03 829.782 L1122.03 845.782 L1138.03 861.782 L1154.03 845.782 L1138.03 829.782 Z" fill="#e26f46" fill-rule="evenodd" fill-opacity="1" stroke="#000000" stroke-opacity="1" stroke-width="3.2"/>
<path clip-path="url(#clip993)" d="M1315.49 1061.23 L1299.49 1077.23 L1315.49 1093.23 L1331.49 1077.23 L1315.49 1061.23 Z" fill="#e26f46" fill-rule="evenodd" fill-opacity="1" stroke="#000000" stroke-opacity="1" stroke-width="3.2"/>
<path clip-path="url(#clip993)" d="M1492.95 1349.58 L1476.95 1365.58 L1492.95 1381.58 L1508.95 1365.58 L1492.95 1349.58 Z" fill="#e26f46" fill-rule="evenodd" fill-opacity="1" stroke="#000000" stroke-opacity="1" stroke-width="3.2"/>
<path clip-path="url(#clip990)" d="
M1961.55 271.683 L2280.65 271.683 L2280.65 93.1086 L1961.55 93.1086  Z
  " fill="#ffffff" fill-rule="evenodd" fill-opacity="1"/>
<polyline clip-path="url(#clip990)" style="stroke:#000000; stroke-linecap:butt; stroke-linejoin:round; stroke-width:4; stroke-opacity:1; fill:none" points="
  1961.55,271.683 2280.65,271.683 2280.65,93.1086 1961.55,93.1086 1961.55,271.683 
  "/>
<polyline clip-path="url(#clip990)" style="stroke:#000000; stroke-linecap:butt; stroke-linejoin:round; stroke-width:4; stroke-opacity:0; fill:none" points="
  1985.58,152.633 2129.8,152.633 
  "/>
<circle clip-path="url(#clip990)" cx="2057.69" cy="152.633" r="23" fill="#009af9" fill-rule="evenodd" fill-opacity="1" stroke="#000000" stroke-opacity="1" stroke-width="5.12"/>
<path clip-path="url(#clip990)" d="M2176.49 144.432 Q2176.49 147.899 2174.71 151.154 Q2172.95 154.41 2170.19 156.378 Q2167.45 158.345 2164.68 158.345 Q2161.57 158.345 2159.95 155.113 Q2157.02 166.847 2156.86 167.152 Q2156.18 168.159 2155.2 168.159 Q2154.59 168.159 2154.21 167.784 Q2153.84 167.433 2153.84 166.871 Q2153.86 166.684 2154 166.098 L2158.69 147.243 Q2159.76 142.863 2163.02 139.748 Q2166.3 136.609 2169.81 136.609 Q2172.6 136.609 2174.54 138.694 Q2176.49 140.778 2176.49 144.432 M2173.04 142.371 Q2173.04 140.029 2172.11 138.858 Q2171.17 137.663 2169.72 137.663 Q2168.38 137.663 2166.77 138.741 Q2165.17 139.818 2163.77 142.207 Q2163.02 143.589 2162.48 145.299 Q2161.94 147.009 2160.89 151.225 Q2160.51 152.911 2160.51 153.005 Q2160.51 153.192 2160.61 153.614 Q2160.72 154.035 2161 154.691 Q2161.31 155.324 2161.73 155.886 Q2162.15 156.448 2162.93 156.87 Q2163.7 157.268 2164.64 157.268 Q2166.09 157.268 2167.63 156.097 Q2169.2 154.902 2170.35 152.724 Q2171.31 150.967 2172.18 147.664 Q2173.04 144.338 2173.04 142.371 Z" fill="#000000" fill-rule="evenodd" fill-opacity="1" /><path clip-path="url(#clip990)" d="M2188.56 158.959 L2183.72 178.372 Q2183.53 179.142 2183.53 179.978 Q2183.53 181.52 2184.54 181.52 Q2185.02 181.52 2185.41 181.208 Q2185.81 180.88 2186.1 180.241 Q2186.41 179.585 2186.61 178.962 Q2186.82 178.339 2187.09 177.371 Q2187.17 176.994 2187.25 176.88 Q2187.33 176.765 2187.56 176.765 Q2187.97 176.765 2187.97 177.093 Q2187.56 179.109 2186.95 180.388 Q2186.07 182.274 2184.43 182.274 Q2183.2 182.274 2182.28 181.421 Q2181.38 180.552 2181.38 179.175 Q2181.38 178.65 2181.54 178.027 L2185.77 161.238 L2185.89 160.582 Q2185.89 160.402 2185.82 160.304 Q2185.76 160.205 2185.36 160.107 Q2184.99 160.008 2184.23 160.008 Q2183.92 160.008 2183.77 159.992 Q2183.64 159.976 2183.51 159.894 Q2183.4 159.812 2183.4 159.631 Q2183.4 159.336 2183.51 159.172 Q2183.64 159.008 2183.74 158.976 Q2183.84 158.943 2184.04 158.926 Q2184.31 158.91 2185.25 158.828 Q2186.18 158.73 2186.99 158.664 Q2187.79 158.598 2188.13 158.598 Q2188.33 158.598 2188.43 158.697 Q2188.54 158.779 2188.56 158.877 L2188.56 158.959 Z" fill="#000000" fill-rule="evenodd" fill-opacity="1" /><polyline clip-path="url(#clip990)" style="stroke:#000000; stroke-linecap:butt; stroke-linejoin:round; stroke-width:4; stroke-opacity:0; fill:none" points="
  1985.58,212.158 2129.8,212.158 
  "/>
<path clip-path="url(#clip990)" d="M2057.69 186.558 L2032.09 212.158 L2057.69 237.758 L2083.29 212.158 L2057.69 186.558 Z" fill="#e26f46" fill-rule="evenodd" fill-opacity="1" stroke="#000000" stroke-opacity="1" stroke-width="5.12"/>
<path clip-path="url(#clip990)" d="M2153.84 235.402 L2153.84 190.736 Q2153.84 188.956 2154.8 188.956 Q2155.76 188.956 2155.76 190.385 L2155.76 235.051 Q2155.76 236.831 2154.8 236.831 Q2153.84 236.831 2153.84 235.402 Z" fill="#000000" fill-rule="evenodd" fill-opacity="1" /><path clip-path="url(#clip990)" d="M2195.65 205.937 Q2195.65 205.96 2195.51 206.804 L2190.17 228.095 Q2189.89 229.219 2189.09 230.343 Q2188.32 231.491 2187.08 232.475 Q2185.86 233.482 2183.99 234.091 Q2182.14 234.723 2180 234.723 Q2176.61 234.723 2175.11 233.997 Q2173.63 233.294 2173.63 231.795 Q2173.63 230.484 2174.45 229.734 Q2175.27 229.008 2176.21 229.008 Q2177.1 229.008 2177.57 229.523 Q2178.04 230.039 2178.04 230.695 Q2178.04 231.421 2177.54 232.147 Q2177.05 232.896 2176.07 233.177 Q2177.64 233.669 2179.91 233.669 Q2184.71 233.669 2186.77 228.587 Q2186.82 228.516 2186.82 228.493 L2188.41 222.145 L2188.34 222.099 Q2187.94 222.567 2187.31 223.106 Q2186.7 223.621 2185.39 224.253 Q2184.08 224.886 2182.79 224.886 Q2180.1 224.886 2178.25 222.825 Q2176.42 220.74 2176.42 217.297 Q2176.42 214.791 2177.43 212.285 Q2178.46 209.755 2180.05 207.905 Q2181.67 206.031 2183.73 204.86 Q2185.81 203.688 2187.83 203.688 Q2189.23 203.688 2190.43 204.532 Q2191.62 205.351 2192.28 206.71 Q2192.39 205.586 2193.03 205.117 Q2193.68 204.649 2194.24 204.649 Q2194.88 204.649 2195.25 205 Q2195.65 205.328 2195.65 205.937 M2191.72 208.865 Q2191.72 208.724 2191.62 208.35 Q2191.53 207.951 2191.25 207.319 Q2190.99 206.687 2190.59 206.124 Q2190.19 205.562 2189.47 205.164 Q2188.76 204.742 2187.87 204.742 Q2186.42 204.742 2184.97 205.96 Q2183.52 207.155 2182.51 209.005 Q2181.57 210.785 2180.68 214.229 Q2179.82 217.672 2179.82 219.428 Q2179.82 221.162 2180.57 222.497 Q2181.32 223.832 2182.93 223.832 Q2184.81 223.832 2186.82 222.099 Q2188.9 220.295 2189.26 218.749 L2191.57 209.591 Q2191.72 209.029 2191.72 208.865 Z" fill="#000000" fill-rule="evenodd" fill-opacity="1" /><path clip-path="url(#clip990)" d="M2207.73 225.523 L2202.89 244.935 Q2202.7 245.706 2202.7 246.542 Q2202.7 248.083 2203.71 248.083 Q2204.19 248.083 2204.58 247.772 Q2204.98 247.444 2205.27 246.804 Q2205.58 246.149 2205.78 245.526 Q2205.99 244.903 2206.26 243.935 Q2206.34 243.558 2206.42 243.443 Q2206.5 243.329 2206.73 243.329 Q2207.14 243.329 2207.14 243.657 Q2206.73 245.673 2206.12 246.952 Q2205.24 248.838 2203.6 248.838 Q2202.37 248.838 2201.45 247.985 Q2200.55 247.116 2200.55 245.739 Q2200.55 245.214 2200.71 244.591 L2204.94 227.802 L2205.06 227.146 Q2205.06 226.966 2204.99 226.867 Q2204.93 226.769 2204.53 226.671 Q2204.16 226.572 2203.4 226.572 Q2203.09 226.572 2202.94 226.556 Q2202.81 226.539 2202.68 226.457 Q2202.57 226.375 2202.57 226.195 Q2202.57 225.9 2202.68 225.736 Q2202.81 225.572 2202.91 225.539 Q2203.01 225.506 2203.21 225.49 Q2203.48 225.474 2204.42 225.392 Q2205.35 225.293 2206.16 225.228 Q2206.96 225.162 2207.3 225.162 Q2207.5 225.162 2207.6 225.261 Q2207.71 225.343 2207.73 225.441 L2207.73 225.523 Z" fill="#000000" fill-rule="evenodd" fill-opacity="1" /><path clip-path="url(#clip990)" d="M2212.78 235.402 L2212.78 190.736 Q2212.78 188.956 2213.74 188.956 Q2214.7 188.956 2214.7 190.385 L2214.7 235.051 Q2214.7 236.831 2213.74 236.831 Q2212.78 236.831 2212.78 235.402 Z" fill="#000000" fill-rule="evenodd" fill-opacity="1" /></svg>
