<?xml version="1.0" encoding="utf-8"?>
<svg xmlns="http://www.w3.org/2000/svg" xmlns:xlink="http://www.w3.org/1999/xlink" width="600" height="400" viewBox="0 0 2400 1600">
<defs>
  <clipPath id="clip560">
    <rect x="0" y="0" width="2400" height="1600"/>
  </clipPath>
</defs>
<path clip-path="url(#clip560)" d="
M0 1600 L2400 1600 L2400 0 L0 0  Z
  " fill="#ffffff" fill-rule="evenodd" fill-opacity="1"/>
<defs>
  <clipPath id="clip561">
    <rect x="480" y="0" width="1681" height="1600"/>
  </clipPath>
</defs>
<defs>
  <clipPath id="clip562">
    <rect x="257" y="47" width="2096" height="1377"/>
  </clipPath>
</defs>
<path clip-path="url(#clip560)" d="
M213.607 1423.18 L2352.76 1423.18 L2352.76 47.2441 L213.607 47.2441  Z
  " fill="#ffffff" fill-rule="evenodd" fill-opacity="1"/>
<defs>
  <clipPath id="clip563">
    <rect x="213" y="47" width="2140" height="1377"/>
  </clipPath>
</defs>
<polyline clip-path="url(#clip563)" style="stroke:#000000; stroke-linecap:butt; stroke-linejoin:round; stroke-width:2; stroke-opacity:0.1; fill:none" points="
  274.149,1423.18 274.149,47.2441 
  "/>
<polyline clip-path="url(#clip563)" style="stroke:#000000; stroke-linecap:butt; stroke-linejoin:round; stroke-width:2; stroke-opacity:0.1; fill:none" points="
  732.8,1423.18 732.8,47.2441 
  "/>
<polyline clip-path="url(#clip563)" style="stroke:#000000; stroke-linecap:butt; stroke-linejoin:round; stroke-width:2; stroke-opacity:0.1; fill:none" points="
  1191.45,1423.18 1191.45,47.2441 
  "/>
<polyline clip-path="url(#clip563)" style="stroke:#000000; stroke-linecap:butt; stroke-linejoin:round; stroke-width:2; stroke-opacity:0.1; fill:none" points="
  1650.1,1423.18 1650.1,47.2441 
  "/>
<polyline clip-path="url(#clip563)" style="stroke:#000000; stroke-linecap:butt; stroke-linejoin:round; stroke-width:2; stroke-opacity:0.1; fill:none" points="
  2108.75,1423.18 2108.75,47.2441 
  "/>
<polyline clip-path="url(#clip560)" style="stroke:#000000; stroke-linecap:butt; stroke-linejoin:round; stroke-width:4; stroke-opacity:1; fill:none" points="
  213.607,1423.18 2352.76,1423.18 
  "/>
<polyline clip-path="url(#clip560)" style="stroke:#000000; stroke-linecap:butt; stroke-linejoin:round; stroke-width:4; stroke-opacity:1; fill:none" points="
  274.149,1423.18 274.149,1404.28 
  "/>
<polyline clip-path="url(#clip560)" style="stroke:#000000; stroke-linecap:butt; stroke-linejoin:round; stroke-width:4; stroke-opacity:1; fill:none" points="
  732.8,1423.18 732.8,1404.28 
  "/>
<polyline clip-path="url(#clip560)" style="stroke:#000000; stroke-linecap:butt; stroke-linejoin:round; stroke-width:4; stroke-opacity:1; fill:none" points="
  1191.45,1423.18 1191.45,1404.28 
  "/>
<polyline clip-path="url(#clip560)" style="stroke:#000000; stroke-linecap:butt; stroke-linejoin:round; stroke-width:4; stroke-opacity:1; fill:none" points="
  1650.1,1423.18 1650.1,1404.28 
  "/>
<polyline clip-path="url(#clip560)" style="stroke:#000000; stroke-linecap:butt; stroke-linejoin:round; stroke-width:4; stroke-opacity:1; fill:none" points="
  2108.75,1423.18 2108.75,1404.28 
  "/>
<path clip-path="url(#clip560)" d="M274.149 1454.1 Q270.538 1454.1 268.71 1457.66 Q266.904 1461.2 266.904 1468.33 Q266.904 1475.44 268.71 1479.01 Q270.538 1482.55 274.149 1482.55 Q277.784 1482.55 279.589 1479.01 Q281.418 1475.44 281.418 1468.33 Q281.418 1461.2 279.589 1457.66 Q277.784 1454.1 274.149 1454.1 M274.149 1450.39 Q279.96 1450.39 283.015 1455 Q286.094 1459.58 286.094 1468.33 Q286.094 1477.06 283.015 1481.67 Q279.96 1486.25 274.149 1486.25 Q268.339 1486.25 265.261 1481.67 Q262.205 1477.06 262.205 1468.33 Q262.205 1459.58 265.261 1455 Q268.339 1450.39 274.149 1450.39 Z" fill="#000000" fill-rule="evenodd" fill-opacity="1" /><path clip-path="url(#clip560)" d="M723.078 1451.02 L741.435 1451.02 L741.435 1454.96 L727.361 1454.96 L727.361 1463.43 Q728.379 1463.08 729.398 1462.92 Q730.416 1462.73 731.435 1462.73 Q737.222 1462.73 740.601 1465.9 Q743.981 1469.08 743.981 1474.49 Q743.981 1480.07 740.509 1483.17 Q737.037 1486.25 730.717 1486.25 Q728.541 1486.25 726.273 1485.88 Q724.027 1485.51 721.62 1484.77 L721.62 1480.07 Q723.703 1481.2 725.925 1481.76 Q728.148 1482.32 730.625 1482.32 Q734.629 1482.32 736.967 1480.21 Q739.305 1478.1 739.305 1474.49 Q739.305 1470.88 736.967 1468.77 Q734.629 1466.67 730.625 1466.67 Q728.75 1466.67 726.875 1467.08 Q725.023 1467.5 723.078 1468.38 L723.078 1451.02 Z" fill="#000000" fill-rule="evenodd" fill-opacity="1" /><path clip-path="url(#clip560)" d="M1166.14 1481.64 L1173.78 1481.64 L1173.78 1455.28 L1165.47 1456.95 L1165.47 1452.69 L1173.73 1451.02 L1178.41 1451.02 L1178.41 1481.64 L1186.05 1481.64 L1186.05 1485.58 L1166.14 1485.58 L1166.14 1481.64 Z" fill="#000000" fill-rule="evenodd" fill-opacity="1" /><path clip-path="url(#clip560)" d="M1205.49 1454.1 Q1201.88 1454.1 1200.05 1457.66 Q1198.25 1461.2 1198.25 1468.33 Q1198.25 1475.44 1200.05 1479.01 Q1201.88 1482.55 1205.49 1482.55 Q1209.13 1482.55 1210.93 1479.01 Q1212.76 1475.44 1212.76 1468.33 Q1212.76 1461.2 1210.93 1457.66 Q1209.13 1454.1 1205.49 1454.1 M1205.49 1450.39 Q1211.3 1450.39 1214.36 1455 Q1217.44 1459.58 1217.44 1468.33 Q1217.44 1477.06 1214.36 1481.67 Q1211.3 1486.25 1205.49 1486.25 Q1199.68 1486.25 1196.6 1481.67 Q1193.55 1477.06 1193.55 1468.33 Q1193.55 1459.58 1196.6 1455 Q1199.68 1450.39 1205.49 1450.39 Z" fill="#000000" fill-rule="evenodd" fill-opacity="1" /><path clip-path="url(#clip560)" d="M1625.29 1481.64 L1632.93 1481.64 L1632.93 1455.28 L1624.62 1456.95 L1624.62 1452.69 L1632.88 1451.02 L1637.56 1451.02 L1637.56 1481.64 L1645.2 1481.64 L1645.2 1485.58 L1625.29 1485.58 L1625.29 1481.64 Z" fill="#000000" fill-rule="evenodd" fill-opacity="1" /><path clip-path="url(#clip560)" d="M1654.69 1451.02 L1673.04 1451.02 L1673.04 1454.96 L1658.97 1454.96 L1658.97 1463.43 Q1659.99 1463.08 1661.01 1462.92 Q1662.02 1462.73 1663.04 1462.73 Q1668.83 1462.73 1672.21 1465.9 Q1675.59 1469.08 1675.59 1474.49 Q1675.59 1480.07 1672.12 1483.17 Q1668.64 1486.25 1662.32 1486.25 Q1660.15 1486.25 1657.88 1485.88 Q1655.63 1485.51 1653.23 1484.77 L1653.23 1480.07 Q1655.31 1481.2 1657.53 1481.76 Q1659.76 1482.32 1662.23 1482.32 Q1666.24 1482.32 1668.57 1480.21 Q1670.91 1478.1 1670.91 1474.49 Q1670.91 1470.88 1668.57 1468.77 Q1666.24 1466.67 1662.23 1466.67 Q1660.36 1466.67 1658.48 1467.08 Q1656.63 1467.5 1654.69 1468.38 L1654.69 1451.02 Z" fill="#000000" fill-rule="evenodd" fill-opacity="1" /><path clip-path="url(#clip560)" d="M2087.53 1481.64 L2103.85 1481.64 L2103.85 1485.58 L2081.9 1485.58 L2081.9 1481.64 Q2084.56 1478.89 2089.15 1474.26 Q2093.75 1469.61 2094.93 1468.27 Q2097.18 1465.74 2098.06 1464.01 Q2098.96 1462.25 2098.96 1460.56 Q2098.96 1457.8 2097.02 1456.07 Q2095.1 1454.33 2091.99 1454.33 Q2089.8 1454.33 2087.34 1455.09 Q2084.91 1455.86 2082.13 1457.41 L2082.13 1452.69 Q2084.96 1451.55 2087.41 1450.97 Q2089.86 1450.39 2091.9 1450.39 Q2097.27 1450.39 2100.47 1453.08 Q2103.66 1455.77 2103.66 1460.26 Q2103.66 1462.39 2102.85 1464.31 Q2102.06 1466.2 2099.96 1468.8 Q2099.38 1469.47 2096.28 1472.69 Q2093.17 1475.88 2087.53 1481.64 Z" fill="#000000" fill-rule="evenodd" fill-opacity="1" /><path clip-path="url(#clip560)" d="M2123.66 1454.1 Q2120.05 1454.1 2118.22 1457.66 Q2116.42 1461.2 2116.42 1468.33 Q2116.42 1475.44 2118.22 1479.01 Q2120.05 1482.55 2123.66 1482.55 Q2127.3 1482.55 2129.1 1479.01 Q2130.93 1475.44 2130.93 1468.33 Q2130.93 1461.2 2129.1 1457.66 Q2127.3 1454.1 2123.66 1454.1 M2123.66 1450.39 Q2129.47 1450.39 2132.53 1455 Q2135.61 1459.58 2135.61 1468.33 Q2135.61 1477.06 2132.53 1481.67 Q2129.47 1486.25 2123.66 1486.25 Q2117.85 1486.25 2114.77 1481.67 Q2111.72 1477.06 2111.72 1468.33 Q2111.72 1459.58 2114.77 1455 Q2117.85 1450.39 2123.66 1450.39 Z" fill="#000000" fill-rule="evenodd" fill-opacity="1" /><path clip-path="url(#clip560)" d="M1287.56 1516.77 L1278.06 1554.9 Q1277.67 1556.42 1277.67 1558.06 Q1277.67 1561.09 1279.67 1561.09 Q1280.6 1561.09 1281.38 1560.48 Q1282.15 1559.83 1282.73 1558.58 Q1283.34 1557.29 1283.73 1556.06 Q1284.14 1554.84 1284.66 1552.94 Q1284.82 1552.2 1284.98 1551.97 Q1285.14 1551.75 1285.59 1551.75 Q1286.4 1551.75 1286.4 1552.39 Q1285.59 1556.35 1284.4 1558.87 Q1282.66 1562.57 1279.44 1562.57 Q1277.03 1562.57 1275.22 1560.89 Q1273.45 1559.19 1273.45 1556.48 Q1273.45 1555.45 1273.77 1554.23 L1282.08 1521.25 L1282.31 1519.96 Q1282.31 1519.61 1282.18 1519.41 Q1282.05 1519.22 1281.28 1519.03 Q1280.54 1518.83 1279.06 1518.83 Q1278.44 1518.83 1278.15 1518.8 Q1277.9 1518.77 1277.64 1518.61 Q1277.41 1518.45 1277.41 1518.09 Q1277.41 1517.51 1277.64 1517.19 Q1277.9 1516.87 1278.09 1516.8 Q1278.28 1516.74 1278.67 1516.71 Q1279.22 1516.68 1281.05 1516.52 Q1282.89 1516.32 1284.47 1516.19 Q1286.05 1516.06 1286.72 1516.06 Q1287.11 1516.06 1287.3 1516.26 Q1287.53 1516.42 1287.56 1516.61 L1287.56 1516.77 Z" fill="#000000" fill-rule="evenodd" fill-opacity="1" /><polyline clip-path="url(#clip563)" style="stroke:#000000; stroke-linecap:butt; stroke-linejoin:round; stroke-width:2; stroke-opacity:0.1; fill:none" points="
  213.607,876.518 2352.76,876.518 
  "/>
<polyline clip-path="url(#clip563)" style="stroke:#000000; stroke-linecap:butt; stroke-linejoin:round; stroke-width:2; stroke-opacity:0.1; fill:none" points="
  213.607,73.3467 2352.76,73.3467 
  "/>
<polyline clip-path="url(#clip560)" style="stroke:#000000; stroke-linecap:butt; stroke-linejoin:round; stroke-width:4; stroke-opacity:1; fill:none" points="
  213.607,1423.18 213.607,47.2441 
  "/>
<polyline clip-path="url(#clip560)" style="stroke:#000000; stroke-linecap:butt; stroke-linejoin:round; stroke-width:4; stroke-opacity:1; fill:none" points="
  213.607,876.518 232.505,876.518 
  "/>
<polyline clip-path="url(#clip560)" style="stroke:#000000; stroke-linecap:butt; stroke-linejoin:round; stroke-width:4; stroke-opacity:1; fill:none" points="
  213.607,73.3467 232.505,73.3467 
  "/>
<path clip-path="url(#clip560)" d="M51.6634 896.311 L59.3023 896.311 L59.3023 869.945 L50.9921 871.612 L50.9921 867.353 L59.256 865.686 L63.9319 865.686 L63.9319 896.311 L71.5707 896.311 L71.5707 900.246 L51.6634 900.246 L51.6634 896.311 Z" fill="#000000" fill-rule="evenodd" fill-opacity="1" /><path clip-path="url(#clip560)" d="M91.0151 868.765 Q87.404 868.765 85.5753 872.329 Q83.7697 875.871 83.7697 883.001 Q83.7697 890.107 85.5753 893.672 Q87.404 897.214 91.0151 897.214 Q94.6493 897.214 96.4548 893.672 Q98.2835 890.107 98.2835 883.001 Q98.2835 875.871 96.4548 872.329 Q94.6493 868.765 91.0151 868.765 M91.0151 865.061 Q96.8252 865.061 99.8808 869.667 Q102.959 874.251 102.959 883.001 Q102.959 891.727 99.8808 896.334 Q96.8252 900.917 91.0151 900.917 Q85.2049 900.917 82.1262 896.334 Q79.0707 891.727 79.0707 883.001 Q79.0707 874.251 82.1262 869.667 Q85.2049 865.061 91.0151 865.061 Z" fill="#000000" fill-rule="evenodd" fill-opacity="1" /><path clip-path="url(#clip560)" d="M102.959 859.162 L127.071 859.162 L127.071 862.36 L102.959 862.36 L102.959 859.162 Z" fill="#000000" fill-rule="evenodd" fill-opacity="1" /><path clip-path="url(#clip560)" d="M135.929 869.638 L142.136 869.638 L142.136 848.216 L135.384 849.57 L135.384 846.11 L142.098 844.756 L145.898 844.756 L145.898 869.638 L152.104 869.638 L152.104 872.836 L135.929 872.836 L135.929 869.638 Z" fill="#000000" fill-rule="evenodd" fill-opacity="1" /><path clip-path="url(#clip560)" d="M167.903 847.257 Q164.969 847.257 163.483 850.153 Q162.016 853.031 162.016 858.824 Q162.016 864.598 163.483 867.494 Q164.969 870.372 167.903 870.372 Q170.855 870.372 172.322 867.494 Q173.808 864.598 173.808 858.824 Q173.808 853.031 172.322 850.153 Q170.855 847.257 167.903 847.257 M167.903 844.248 Q172.623 844.248 175.106 847.99 Q177.607 851.714 177.607 858.824 Q177.607 865.914 175.106 869.657 Q172.623 873.381 167.903 873.381 Q163.182 873.381 160.68 869.657 Q158.198 865.914 158.198 858.824 Q158.198 851.714 160.68 847.99 Q163.182 844.248 167.903 844.248 Z" fill="#000000" fill-rule="evenodd" fill-opacity="1" /><path clip-path="url(#clip560)" d="M106.902 93.1391 L114.541 93.1391 L114.541 66.7735 L106.231 68.4402 L106.231 64.1809 L114.494 62.5143 L119.17 62.5143 L119.17 93.1391 L126.809 93.1391 L126.809 97.0743 L106.902 97.0743 L106.902 93.1391 Z" fill="#000000" fill-rule="evenodd" fill-opacity="1" /><path clip-path="url(#clip560)" d="M146.253 65.5929 Q142.642 65.5929 140.814 69.1577 Q139.008 72.6994 139.008 79.829 Q139.008 86.9354 140.814 90.5002 Q142.642 94.0419 146.253 94.0419 Q149.888 94.0419 151.693 90.5002 Q153.522 86.9354 153.522 79.829 Q153.522 72.6994 151.693 69.1577 Q149.888 65.5929 146.253 65.5929 M146.253 61.8893 Q152.064 61.8893 155.119 66.4957 Q158.198 71.079 158.198 79.829 Q158.198 88.5558 155.119 93.1622 Q152.064 97.7455 146.253 97.7455 Q140.443 97.7455 137.365 93.1622 Q134.309 88.5558 134.309 79.829 Q134.309 71.079 137.365 66.4957 Q140.443 61.8893 146.253 61.8893 Z" fill="#000000" fill-rule="evenodd" fill-opacity="1" /><path clip-path="url(#clip560)" d="M167.903 44.0853 Q164.969 44.0853 163.483 46.9817 Q162.016 49.8593 162.016 55.6521 Q162.016 61.4261 163.483 64.3224 Q164.969 67.2 167.903 67.2 Q170.855 67.2 172.322 64.3224 Q173.808 61.4261 173.808 55.6521 Q173.808 49.8593 172.322 46.9817 Q170.855 44.0853 167.903 44.0853 M167.903 41.076 Q172.623 41.076 175.106 44.8188 Q177.607 48.5427 177.607 55.6521 Q177.607 62.7426 175.106 66.4853 Q172.623 70.2093 167.903 70.2093 Q163.182 70.2093 160.68 66.4853 Q158.198 62.7426 158.198 55.6521 Q158.198 48.5427 160.68 44.8188 Q163.182 41.076 167.903 41.076 Z" fill="#000000" fill-rule="evenodd" fill-opacity="1" /><polyline clip-path="url(#clip563)" style="stroke:#009af9; stroke-linecap:butt; stroke-linejoin:round; stroke-width:4; stroke-opacity:1; fill:none" points="
  274.149,86.1857 457.61,144.562 641.07,192.564 824.531,340.272 1007.99,262.549 1191.45,306.411 1374.91,373.963 1558.37,458.121 1741.83,544.697 1925.29,603.28 
  2108.75,653.247 2292.21,711.959 
  "/>
<line clip-path="url(#clip563)" x1="274.149" y1="86.1857" x2="274.149" y2="46.1857" style="stroke:#009af9; stroke-width:3.2; stroke-opacity:1"/>
<line clip-path="url(#clip563)" x1="274.149" y1="86.1857" x2="234.149" y2="86.1857" style="stroke:#009af9; stroke-width:3.2; stroke-opacity:1"/>
<line clip-path="url(#clip563)" x1="274.149" y1="86.1857" x2="274.149" y2="126.186" style="stroke:#009af9; stroke-width:3.2; stroke-opacity:1"/>
<line clip-path="url(#clip563)" x1="274.149" y1="86.1857" x2="314.149" y2="86.1857" style="stroke:#009af9; stroke-width:3.2; stroke-opacity:1"/>
<line clip-path="url(#clip563)" x1="457.61" y1="144.562" x2="457.61" y2="104.562" style="stroke:#009af9; stroke-width:3.2; stroke-opacity:1"/>
<line clip-path="url(#clip563)" x1="457.61" y1="144.562" x2="417.61" y2="144.562" style="stroke:#009af9; stroke-width:3.2; stroke-opacity:1"/>
<line clip-path="url(#clip563)" x1="457.61" y1="144.562" x2="457.61" y2="184.562" style="stroke:#009af9; stroke-width:3.2; stroke-opacity:1"/>
<line clip-path="url(#clip563)" x1="457.61" y1="144.562" x2="497.61" y2="144.562" style="stroke:#009af9; stroke-width:3.2; stroke-opacity:1"/>
<line clip-path="url(#clip563)" x1="641.07" y1="192.564" x2="641.07" y2="152.564" style="stroke:#009af9; stroke-width:3.2; stroke-opacity:1"/>
<line clip-path="url(#clip563)" x1="641.07" y1="192.564" x2="601.07" y2="192.564" style="stroke:#009af9; stroke-width:3.2; stroke-opacity:1"/>
<line clip-path="url(#clip563)" x1="641.07" y1="192.564" x2="641.07" y2="232.564" style="stroke:#009af9; stroke-width:3.2; stroke-opacity:1"/>
<line clip-path="url(#clip563)" x1="641.07" y1="192.564" x2="681.07" y2="192.564" style="stroke:#009af9; stroke-width:3.2; stroke-opacity:1"/>
<line clip-path="url(#clip563)" x1="824.531" y1="340.272" x2="824.531" y2="300.272" style="stroke:#009af9; stroke-width:3.2; stroke-opacity:1"/>
<line clip-path="url(#clip563)" x1="824.531" y1="340.272" x2="784.531" y2="340.272" style="stroke:#009af9; stroke-width:3.2; stroke-opacity:1"/>
<line clip-path="url(#clip563)" x1="824.531" y1="340.272" x2="824.531" y2="380.272" style="stroke:#009af9; stroke-width:3.2; stroke-opacity:1"/>
<line clip-path="url(#clip563)" x1="824.531" y1="340.272" x2="864.531" y2="340.272" style="stroke:#009af9; stroke-width:3.2; stroke-opacity:1"/>
<line clip-path="url(#clip563)" x1="1007.99" y1="262.549" x2="1007.99" y2="222.549" style="stroke:#009af9; stroke-width:3.2; stroke-opacity:1"/>
<line clip-path="url(#clip563)" x1="1007.99" y1="262.549" x2="967.991" y2="262.549" style="stroke:#009af9; stroke-width:3.2; stroke-opacity:1"/>
<line clip-path="url(#clip563)" x1="1007.99" y1="262.549" x2="1007.99" y2="302.549" style="stroke:#009af9; stroke-width:3.2; stroke-opacity:1"/>
<line clip-path="url(#clip563)" x1="1007.99" y1="262.549" x2="1047.99" y2="262.549" style="stroke:#009af9; stroke-width:3.2; stroke-opacity:1"/>
<line clip-path="url(#clip563)" x1="1191.45" y1="306.411" x2="1191.45" y2="266.411" style="stroke:#009af9; stroke-width:3.2; stroke-opacity:1"/>
<line clip-path="url(#clip563)" x1="1191.45" y1="306.411" x2="1151.45" y2="306.411" style="stroke:#009af9; stroke-width:3.2; stroke-opacity:1"/>
<line clip-path="url(#clip563)" x1="1191.45" y1="306.411" x2="1191.45" y2="346.411" style="stroke:#009af9; stroke-width:3.2; stroke-opacity:1"/>
<line clip-path="url(#clip563)" x1="1191.45" y1="306.411" x2="1231.45" y2="306.411" style="stroke:#009af9; stroke-width:3.2; stroke-opacity:1"/>
<line clip-path="url(#clip563)" x1="1374.91" y1="373.963" x2="1374.91" y2="333.963" style="stroke:#009af9; stroke-width:3.2; stroke-opacity:1"/>
<line clip-path="url(#clip563)" x1="1374.91" y1="373.963" x2="1334.91" y2="373.963" style="stroke:#009af9; stroke-width:3.2; stroke-opacity:1"/>
<line clip-path="url(#clip563)" x1="1374.91" y1="373.963" x2="1374.91" y2="413.963" style="stroke:#009af9; stroke-width:3.2; stroke-opacity:1"/>
<line clip-path="url(#clip563)" x1="1374.91" y1="373.963" x2="1414.91" y2="373.963" style="stroke:#009af9; stroke-width:3.2; stroke-opacity:1"/>
<line clip-path="url(#clip563)" x1="1558.37" y1="458.121" x2="1558.37" y2="418.121" style="stroke:#009af9; stroke-width:3.2; stroke-opacity:1"/>
<line clip-path="url(#clip563)" x1="1558.37" y1="458.121" x2="1518.37" y2="458.121" style="stroke:#009af9; stroke-width:3.2; stroke-opacity:1"/>
<line clip-path="url(#clip563)" x1="1558.37" y1="458.121" x2="1558.37" y2="498.121" style="stroke:#009af9; stroke-width:3.2; stroke-opacity:1"/>
<line clip-path="url(#clip563)" x1="1558.37" y1="458.121" x2="1598.37" y2="458.121" style="stroke:#009af9; stroke-width:3.2; stroke-opacity:1"/>
<line clip-path="url(#clip563)" x1="1741.83" y1="544.697" x2="1741.83" y2="504.697" style="stroke:#009af9; stroke-width:3.2; stroke-opacity:1"/>
<line clip-path="url(#clip563)" x1="1741.83" y1="544.697" x2="1701.83" y2="544.697" style="stroke:#009af9; stroke-width:3.2; stroke-opacity:1"/>
<line clip-path="url(#clip563)" x1="1741.83" y1="544.697" x2="1741.83" y2="584.697" style="stroke:#009af9; stroke-width:3.2; stroke-opacity:1"/>
<line clip-path="url(#clip563)" x1="1741.83" y1="544.697" x2="1781.83" y2="544.697" style="stroke:#009af9; stroke-width:3.2; stroke-opacity:1"/>
<line clip-path="url(#clip563)" x1="1925.29" y1="603.28" x2="1925.29" y2="563.28" style="stroke:#009af9; stroke-width:3.2; stroke-opacity:1"/>
<line clip-path="url(#clip563)" x1="1925.29" y1="603.28" x2="1885.29" y2="603.28" style="stroke:#009af9; stroke-width:3.2; stroke-opacity:1"/>
<line clip-path="url(#clip563)" x1="1925.29" y1="603.28" x2="1925.29" y2="643.28" style="stroke:#009af9; stroke-width:3.2; stroke-opacity:1"/>
<line clip-path="url(#clip563)" x1="1925.29" y1="603.28" x2="1965.29" y2="603.28" style="stroke:#009af9; stroke-width:3.2; stroke-opacity:1"/>
<line clip-path="url(#clip563)" x1="2108.75" y1="653.247" x2="2108.75" y2="613.247" style="stroke:#009af9; stroke-width:3.2; stroke-opacity:1"/>
<line clip-path="url(#clip563)" x1="2108.75" y1="653.247" x2="2068.75" y2="653.247" style="stroke:#009af9; stroke-width:3.2; stroke-opacity:1"/>
<line clip-path="url(#clip563)" x1="2108.75" y1="653.247" x2="2108.75" y2="693.247" style="stroke:#009af9; stroke-width:3.2; stroke-opacity:1"/>
<line clip-path="url(#clip563)" x1="2108.75" y1="653.247" x2="2148.75" y2="653.247" style="stroke:#009af9; stroke-width:3.2; stroke-opacity:1"/>
<line clip-path="url(#clip563)" x1="2292.21" y1="711.959" x2="2292.21" y2="671.959" style="stroke:#009af9; stroke-width:3.2; stroke-opacity:1"/>
<line clip-path="url(#clip563)" x1="2292.21" y1="711.959" x2="2252.21" y2="711.959" style="stroke:#009af9; stroke-width:3.2; stroke-opacity:1"/>
<line clip-path="url(#clip563)" x1="2292.21" y1="711.959" x2="2292.21" y2="751.959" style="stroke:#009af9; stroke-width:3.2; stroke-opacity:1"/>
<line clip-path="url(#clip563)" x1="2292.21" y1="711.959" x2="2332.21" y2="711.959" style="stroke:#009af9; stroke-width:3.2; stroke-opacity:1"/>
<polyline clip-path="url(#clip563)" style="stroke:#e26f46; stroke-linecap:butt; stroke-linejoin:round; stroke-width:4; stroke-opacity:1; fill:none" points="
  274.149,86.1857 457.61,144.562 641.07,192.564 824.531,340.272 1007.99,262.549 1191.45,306.411 1374.91,373.963 1558.37,458.121 1741.83,544.697 1925.29,603.28 
  2108.75,653.247 2292.21,711.959 
  "/>
<line clip-path="url(#clip563)" x1="274.149" y1="86.1857" x2="234.149" y2="46.1857" style="stroke:#e26f46; stroke-width:3.2; stroke-opacity:1"/>
<line clip-path="url(#clip563)" x1="274.149" y1="86.1857" x2="234.149" y2="126.186" style="stroke:#e26f46; stroke-width:3.2; stroke-opacity:1"/>
<line clip-path="url(#clip563)" x1="274.149" y1="86.1857" x2="314.149" y2="126.186" style="stroke:#e26f46; stroke-width:3.2; stroke-opacity:1"/>
<line clip-path="url(#clip563)" x1="274.149" y1="86.1857" x2="314.149" y2="46.1857" style="stroke:#e26f46; stroke-width:3.2; stroke-opacity:1"/>
<line clip-path="url(#clip563)" x1="457.61" y1="144.562" x2="417.61" y2="104.562" style="stroke:#e26f46; stroke-width:3.2; stroke-opacity:1"/>
<line clip-path="url(#clip563)" x1="457.61" y1="144.562" x2="417.61" y2="184.562" style="stroke:#e26f46; stroke-width:3.2; stroke-opacity:1"/>
<line clip-path="url(#clip563)" x1="457.61" y1="144.562" x2="497.61" y2="184.562" style="stroke:#e26f46; stroke-width:3.2; stroke-opacity:1"/>
<line clip-path="url(#clip563)" x1="457.61" y1="144.562" x2="497.61" y2="104.562" style="stroke:#e26f46; stroke-width:3.2; stroke-opacity:1"/>
<line clip-path="url(#clip563)" x1="641.07" y1="192.564" x2="601.07" y2="152.564" style="stroke:#e26f46; stroke-width:3.2; stroke-opacity:1"/>
<line clip-path="url(#clip563)" x1="641.07" y1="192.564" x2="601.07" y2="232.564" style="stroke:#e26f46; stroke-width:3.2; stroke-opacity:1"/>
<line clip-path="url(#clip563)" x1="641.07" y1="192.564" x2="681.07" y2="232.564" style="stroke:#e26f46; stroke-width:3.2; stroke-opacity:1"/>
<line clip-path="url(#clip563)" x1="641.07" y1="192.564" x2="681.07" y2="152.564" style="stroke:#e26f46; stroke-width:3.2; stroke-opacity:1"/>
<line clip-path="url(#clip563)" x1="824.531" y1="340.272" x2="784.531" y2="300.272" style="stroke:#e26f46; stroke-width:3.2; stroke-opacity:1"/>
<line clip-path="url(#clip563)" x1="824.531" y1="340.272" x2="784.531" y2="380.272" style="stroke:#e26f46; stroke-width:3.2; stroke-opacity:1"/>
<line clip-path="url(#clip563)" x1="824.531" y1="340.272" x2="864.531" y2="380.272" style="stroke:#e26f46; stroke-width:3.2; stroke-opacity:1"/>
<line clip-path="url(#clip563)" x1="824.531" y1="340.272" x2="864.531" y2="300.272" style="stroke:#e26f46; stroke-width:3.2; stroke-opacity:1"/>
<line clip-path="url(#clip563)" x1="1007.99" y1="262.549" x2="967.991" y2="222.549" style="stroke:#e26f46; stroke-width:3.2; stroke-opacity:1"/>
<line clip-path="url(#clip563)" x1="1007.99" y1="262.549" x2="967.991" y2="302.549" style="stroke:#e26f46; stroke-width:3.2; stroke-opacity:1"/>
<line clip-path="url(#clip563)" x1="1007.99" y1="262.549" x2="1047.99" y2="302.549" style="stroke:#e26f46; stroke-width:3.2; stroke-opacity:1"/>
<line clip-path="url(#clip563)" x1="1007.99" y1="262.549" x2="1047.99" y2="222.549" style="stroke:#e26f46; stroke-width:3.2; stroke-opacity:1"/>
<line clip-path="url(#clip563)" x1="1191.45" y1="306.411" x2="1151.45" y2="266.411" style="stroke:#e26f46; stroke-width:3.2; stroke-opacity:1"/>
<line clip-path="url(#clip563)" x1="1191.45" y1="306.411" x2="1151.45" y2="346.411" style="stroke:#e26f46; stroke-width:3.2; stroke-opacity:1"/>
<line clip-path="url(#clip563)" x1="1191.45" y1="306.411" x2="1231.45" y2="346.411" style="stroke:#e26f46; stroke-width:3.2; stroke-opacity:1"/>
<line clip-path="url(#clip563)" x1="1191.45" y1="306.411" x2="1231.45" y2="266.411" style="stroke:#e26f46; stroke-width:3.2; stroke-opacity:1"/>
<line clip-path="url(#clip563)" x1="1374.91" y1="373.963" x2="1334.91" y2="333.963" style="stroke:#e26f46; stroke-width:3.2; stroke-opacity:1"/>
<line clip-path="url(#clip563)" x1="1374.91" y1="373.963" x2="1334.91" y2="413.963" style="stroke:#e26f46; stroke-width:3.2; stroke-opacity:1"/>
<line clip-path="url(#clip563)" x1="1374.91" y1="373.963" x2="1414.91" y2="413.963" style="stroke:#e26f46; stroke-width:3.2; stroke-opacity:1"/>
<line clip-path="url(#clip563)" x1="1374.91" y1="373.963" x2="1414.91" y2="333.963" style="stroke:#e26f46; stroke-width:3.2; stroke-opacity:1"/>
<line clip-path="url(#clip563)" x1="1558.37" y1="458.121" x2="1518.37" y2="418.121" style="stroke:#e26f46; stroke-width:3.2; stroke-opacity:1"/>
<line clip-path="url(#clip563)" x1="1558.37" y1="458.121" x2="1518.37" y2="498.121" style="stroke:#e26f46; stroke-width:3.2; stroke-opacity:1"/>
<line clip-path="url(#clip563)" x1="1558.37" y1="458.121" x2="1598.37" y2="498.121" style="stroke:#e26f46; stroke-width:3.2; stroke-opacity:1"/>
<line clip-path="url(#clip563)" x1="1558.37" y1="458.121" x2="1598.37" y2="418.121" style="stroke:#e26f46; stroke-width:3.2; stroke-opacity:1"/>
<line clip-path="url(#clip563)" x1="1741.83" y1="544.697" x2="1701.83" y2="504.697" style="stroke:#e26f46; stroke-width:3.2; stroke-opacity:1"/>
<line clip-path="url(#clip563)" x1="1741.83" y1="544.697" x2="1701.83" y2="584.697" style="stroke:#e26f46; stroke-width:3.2; stroke-opacity:1"/>
<line clip-path="url(#clip563)" x1="1741.83" y1="544.697" x2="1781.83" y2="584.697" style="stroke:#e26f46; stroke-width:3.2; stroke-opacity:1"/>
<line clip-path="url(#clip563)" x1="1741.83" y1="544.697" x2="1781.83" y2="504.697" style="stroke:#e26f46; stroke-width:3.2; stroke-opacity:1"/>
<line clip-path="url(#clip563)" x1="1925.29" y1="603.28" x2="1885.29" y2="563.28" style="stroke:#e26f46; stroke-width:3.2; stroke-opacity:1"/>
<line clip-path="url(#clip563)" x1="1925.29" y1="603.28" x2="1885.29" y2="643.28" style="stroke:#e26f46; stroke-width:3.2; stroke-opacity:1"/>
<line clip-path="url(#clip563)" x1="1925.29" y1="603.28" x2="1965.29" y2="643.28" style="stroke:#e26f46; stroke-width:3.2; stroke-opacity:1"/>
<line clip-path="url(#clip563)" x1="1925.29" y1="603.28" x2="1965.29" y2="563.28" style="stroke:#e26f46; stroke-width:3.2; stroke-opacity:1"/>
<line clip-path="url(#clip563)" x1="2108.75" y1="653.247" x2="2068.75" y2="613.247" style="stroke:#e26f46; stroke-width:3.2; stroke-opacity:1"/>
<line clip-path="url(#clip563)" x1="2108.75" y1="653.247" x2="2068.75" y2="693.247" style="stroke:#e26f46; stroke-width:3.2; stroke-opacity:1"/>
<line clip-path="url(#clip563)" x1="2108.75" y1="653.247" x2="2148.75" y2="693.247" style="stroke:#e26f46; stroke-width:3.2; stroke-opacity:1"/>
<line clip-path="url(#clip563)" x1="2108.75" y1="653.247" x2="2148.75" y2="613.247" style="stroke:#e26f46; stroke-width:3.2; stroke-opacity:1"/>
<line clip-path="url(#clip563)" x1="2292.21" y1="711.959" x2="2252.21" y2="671.959" style="stroke:#e26f46; stroke-width:3.2; stroke-opacity:1"/>
<line clip-path="url(#clip563)" x1="2292.21" y1="711.959" x2="2252.21" y2="751.959" style="stroke:#e26f46; stroke-width:3.2; stroke-opacity:1"/>
<line clip-path="url(#clip563)" x1="2292.21" y1="711.959" x2="2332.21" y2="751.959" style="stroke:#e26f46; stroke-width:3.2; stroke-opacity:1"/>
<line clip-path="url(#clip563)" x1="2292.21" y1="711.959" x2="2332.21" y2="671.959" style="stroke:#e26f46; stroke-width:3.2; stroke-opacity:1"/>
<polyline clip-path="url(#clip563)" style="stroke:#3da44d; stroke-linecap:butt; stroke-linejoin:round; stroke-width:4; stroke-opacity:1; fill:none" points="
  274.149,1278.13 457.61,1313.66 641.07,1322.81 824.531,1321.53 1007.99,1384.24 1191.45,1326.64 1374.91,1344.67 1558.37,1351.91 1741.83,1317.02 1925.29,1299.46 
  2108.75,1327.63 2292.21,1313.51 
  "/>
<path clip-path="url(#clip560)" d="
M1722.91 300.469 L2281.45 300.469 L2281.45 93.1086 L1722.91 93.1086  Z
  " fill="#ffffff" fill-rule="evenodd" fill-opacity="1"/>
<polyline clip-path="url(#clip560)" style="stroke:#000000; stroke-linecap:butt; stroke-linejoin:round; stroke-width:4; stroke-opacity:1; fill:none" points="
  1722.91,300.469 2281.45,300.469 2281.45,93.1086 1722.91,93.1086 1722.91,300.469 
  "/>
<polyline clip-path="url(#clip560)" style="stroke:#009af9; stroke-linecap:butt; stroke-linejoin:round; stroke-width:4; stroke-opacity:1; fill:none" points="
  1746.68,144.949 1889.29,144.949 
  "/>
<line clip-path="url(#clip560)" x1="1817.99" y1="144.949" x2="1817.99" y2="119.349" style="stroke:#009af9; stroke-width:2.048; stroke-opacity:1"/>
<line clip-path="url(#clip560)" x1="1817.99" y1="144.949" x2="1792.39" y2="144.949" style="stroke:#009af9; stroke-width:2.048; stroke-opacity:1"/>
<line clip-path="url(#clip560)" x1="1817.99" y1="144.949" x2="1817.99" y2="170.549" style="stroke:#009af9; stroke-width:2.048; stroke-opacity:1"/>
<line clip-path="url(#clip560)" x1="1817.99" y1="144.949" x2="1843.59" y2="144.949" style="stroke:#009af9; stroke-width:2.048; stroke-opacity:1"/>
<path clip-path="url(#clip560)" d="M1928.24 140.284 Q1927.53 139.868 1926.67 139.682 Q1925.84 139.474 1924.82 139.474 Q1921.21 139.474 1919.26 141.835 Q1917.34 144.173 1917.34 148.571 L1917.34 162.229 L1913.06 162.229 L1913.06 136.303 L1917.34 136.303 L1917.34 140.331 Q1918.68 137.969 1920.84 136.835 Q1922.99 135.678 1926.07 135.678 Q1926.51 135.678 1927.04 135.747 Q1927.57 135.794 1928.22 135.909 L1928.24 140.284 Z" fill="#000000" fill-rule="evenodd" fill-opacity="1" /><path clip-path="url(#clip560)" d="M1953.85 148.201 L1953.85 150.284 L1934.26 150.284 Q1934.54 154.682 1936.9 156.997 Q1939.29 159.289 1943.52 159.289 Q1945.98 159.289 1948.27 158.687 Q1950.58 158.085 1952.85 156.881 L1952.85 160.909 Q1950.56 161.881 1948.15 162.391 Q1945.74 162.9 1943.27 162.9 Q1937.06 162.9 1933.43 159.289 Q1929.82 155.678 1929.82 149.52 Q1929.82 143.155 1933.24 139.428 Q1936.69 135.678 1942.53 135.678 Q1947.76 135.678 1950.79 139.057 Q1953.85 142.414 1953.85 148.201 M1949.59 146.951 Q1949.54 143.456 1947.62 141.372 Q1945.72 139.289 1942.57 139.289 Q1939.01 139.289 1936.86 141.303 Q1934.73 143.317 1934.4 146.974 L1949.59 146.951 Z" fill="#000000" fill-rule="evenodd" fill-opacity="1" /><path clip-path="url(#clip560)" d="M1979.49 137.298 L1979.49 141.28 Q1977.69 140.284 1975.86 139.798 Q1974.05 139.289 1972.2 139.289 Q1968.06 139.289 1965.77 141.928 Q1963.48 144.544 1963.48 149.289 Q1963.48 154.034 1965.77 156.673 Q1968.06 159.289 1972.2 159.289 Q1974.05 159.289 1975.86 158.803 Q1977.69 158.293 1979.49 157.298 L1979.49 161.233 Q1977.71 162.067 1975.79 162.483 Q1973.89 162.9 1971.74 162.9 Q1965.88 162.9 1962.43 159.219 Q1958.99 155.539 1958.99 149.289 Q1958.99 142.946 1962.46 139.312 Q1965.95 135.678 1972.02 135.678 Q1973.99 135.678 1975.86 136.095 Q1977.74 136.488 1979.49 137.298 Z" fill="#000000" fill-rule="evenodd" fill-opacity="1" /><path clip-path="url(#clip560)" d="M1996.95 139.289 Q1993.52 139.289 1991.53 141.974 Q1989.54 144.636 1989.54 149.289 Q1989.54 153.942 1991.51 156.627 Q1993.5 159.289 1996.95 159.289 Q2000.35 159.289 2002.34 156.604 Q2004.33 153.918 2004.33 149.289 Q2004.33 144.682 2002.34 141.997 Q2000.35 139.289 1996.95 139.289 M1996.95 135.678 Q2002.5 135.678 2005.67 139.289 Q2008.85 142.9 2008.85 149.289 Q2008.85 155.655 2005.67 159.289 Q2002.5 162.9 1996.95 162.9 Q1991.37 162.9 1988.2 159.289 Q1985.05 155.655 1985.05 149.289 Q1985.05 142.9 1988.2 139.289 Q1991.37 135.678 1996.95 135.678 Z" fill="#000000" fill-rule="evenodd" fill-opacity="1" /><path clip-path="url(#clip560)" d="M2037.46 146.581 L2037.46 162.229 L2033.2 162.229 L2033.2 146.719 Q2033.2 143.039 2031.76 141.21 Q2030.33 139.382 2027.46 139.382 Q2024.01 139.382 2022.02 141.581 Q2020.03 143.78 2020.03 147.576 L2020.03 162.229 L2015.74 162.229 L2015.74 136.303 L2020.03 136.303 L2020.03 140.331 Q2021.55 137.993 2023.61 136.835 Q2025.7 135.678 2028.41 135.678 Q2032.87 135.678 2035.17 138.456 Q2037.46 141.21 2037.46 146.581 Z" fill="#000000" fill-rule="evenodd" fill-opacity="1" /><path clip-path="url(#clip560)" d="M2062.48 137.067 L2062.48 141.094 Q2060.67 140.169 2058.73 139.706 Q2056.79 139.243 2054.7 139.243 Q2051.53 139.243 2049.93 140.215 Q2048.36 141.187 2048.36 143.131 Q2048.36 144.613 2049.49 145.469 Q2050.63 146.303 2054.05 147.067 L2055.51 147.391 Q2060.05 148.363 2061.95 150.145 Q2063.87 151.905 2063.87 155.076 Q2063.87 158.687 2061 160.793 Q2058.15 162.9 2053.15 162.9 Q2051.07 162.9 2048.8 162.483 Q2046.55 162.09 2044.05 161.28 L2044.05 156.881 Q2046.42 158.108 2048.71 158.733 Q2051 159.335 2053.24 159.335 Q2056.25 159.335 2057.87 158.317 Q2059.49 157.275 2059.49 155.4 Q2059.49 153.664 2058.31 152.738 Q2057.16 151.812 2053.2 150.956 L2051.72 150.608 Q2047.76 149.775 2046 148.062 Q2044.24 146.326 2044.24 143.317 Q2044.24 139.659 2046.83 137.669 Q2049.42 135.678 2054.19 135.678 Q2056.55 135.678 2058.64 136.025 Q2060.72 136.372 2062.48 137.067 Z" fill="#000000" fill-rule="evenodd" fill-opacity="1" /><path clip-path="url(#clip560)" d="M2074.86 128.942 L2074.86 136.303 L2083.64 136.303 L2083.64 139.613 L2074.86 139.613 L2074.86 153.687 Q2074.86 156.858 2075.72 157.761 Q2076.6 158.664 2079.26 158.664 L2083.64 158.664 L2083.64 162.229 L2079.26 162.229 Q2074.33 162.229 2072.46 160.4 Q2070.58 158.548 2070.58 153.687 L2070.58 139.613 L2067.46 139.613 L2067.46 136.303 L2070.58 136.303 L2070.58 128.942 L2074.86 128.942 Z" fill="#000000" fill-rule="evenodd" fill-opacity="1" /><path clip-path="url(#clip560)" d="M2104.26 140.284 Q2103.54 139.868 2102.69 139.682 Q2101.85 139.474 2100.84 139.474 Q2097.23 139.474 2095.28 141.835 Q2093.36 144.173 2093.36 148.571 L2093.36 162.229 L2089.08 162.229 L2089.08 136.303 L2093.36 136.303 L2093.36 140.331 Q2094.7 137.969 2096.85 136.835 Q2099.01 135.678 2102.09 135.678 Q2102.53 135.678 2103.06 135.747 Q2103.59 135.794 2104.24 135.909 L2104.26 140.284 Z" fill="#000000" fill-rule="evenodd" fill-opacity="1" /><path clip-path="url(#clip560)" d="M2108.29 151.997 L2108.29 136.303 L2112.55 136.303 L2112.55 151.835 Q2112.55 155.516 2113.98 157.368 Q2115.42 159.196 2118.29 159.196 Q2121.74 159.196 2123.73 156.997 Q2125.74 154.798 2125.74 151.002 L2125.74 136.303 L2130 136.303 L2130 162.229 L2125.74 162.229 L2125.74 158.247 Q2124.19 160.608 2122.13 161.766 Q2120.1 162.9 2117.39 162.9 Q2112.92 162.9 2110.6 160.122 Q2108.29 157.344 2108.29 151.997 M2119.01 135.678 L2119.01 135.678 Z" fill="#000000" fill-rule="evenodd" fill-opacity="1" /><path clip-path="url(#clip560)" d="M2157.43 137.298 L2157.43 141.28 Q2155.63 140.284 2153.8 139.798 Q2151.99 139.289 2150.14 139.289 Q2146 139.289 2143.71 141.928 Q2141.41 144.544 2141.41 149.289 Q2141.41 154.034 2143.71 156.673 Q2146 159.289 2150.14 159.289 Q2151.99 159.289 2153.8 158.803 Q2155.63 158.293 2157.43 157.298 L2157.43 161.233 Q2155.65 162.067 2153.73 162.483 Q2151.83 162.9 2149.68 162.9 Q2143.82 162.9 2140.37 159.219 Q2136.92 155.539 2136.92 149.289 Q2136.92 142.946 2140.4 139.312 Q2143.89 135.678 2149.96 135.678 Q2151.92 135.678 2153.8 136.095 Q2155.67 136.488 2157.43 137.298 Z" fill="#000000" fill-rule="evenodd" fill-opacity="1" /><path clip-path="url(#clip560)" d="M2169.05 128.942 L2169.05 136.303 L2177.83 136.303 L2177.83 139.613 L2169.05 139.613 L2169.05 153.687 Q2169.05 156.858 2169.91 157.761 Q2170.79 158.664 2173.45 158.664 L2177.83 158.664 L2177.83 162.229 L2173.45 162.229 Q2168.52 162.229 2166.65 160.4 Q2164.77 158.548 2164.77 153.687 L2164.77 139.613 L2161.65 139.613 L2161.65 136.303 L2164.77 136.303 L2164.77 128.942 L2169.05 128.942 Z" fill="#000000" fill-rule="evenodd" fill-opacity="1" /><path clip-path="url(#clip560)" d="M2205.6 148.201 L2205.6 150.284 L2186.02 150.284 Q2186.3 154.682 2188.66 156.997 Q2191.04 159.289 2195.28 159.289 Q2197.73 159.289 2200.03 158.687 Q2202.34 158.085 2204.61 156.881 L2204.61 160.909 Q2202.32 161.881 2199.91 162.391 Q2197.5 162.9 2195.03 162.9 Q2188.82 162.9 2185.19 159.289 Q2181.58 155.678 2181.58 149.52 Q2181.58 143.155 2185 139.428 Q2188.45 135.678 2194.28 135.678 Q2199.52 135.678 2202.55 139.057 Q2205.6 142.414 2205.6 148.201 M2201.35 146.951 Q2201.3 143.456 2199.38 141.372 Q2197.48 139.289 2194.33 139.289 Q2190.77 139.289 2188.61 141.303 Q2186.48 143.317 2186.16 146.974 L2201.35 146.951 Z" fill="#000000" fill-rule="evenodd" fill-opacity="1" /><path clip-path="url(#clip560)" d="M2229.66 140.238 L2229.66 126.21 L2233.91 126.21 L2233.91 162.229 L2229.66 162.229 L2229.66 158.34 Q2228.31 160.655 2226.25 161.789 Q2224.22 162.9 2221.34 162.9 Q2216.65 162.9 2213.68 159.15 Q2210.74 155.4 2210.74 149.289 Q2210.74 143.178 2213.68 139.428 Q2216.65 135.678 2221.34 135.678 Q2224.22 135.678 2226.25 136.812 Q2228.31 137.923 2229.66 140.238 M2215.14 149.289 Q2215.14 153.988 2217.06 156.673 Q2219.01 159.335 2222.39 159.335 Q2225.77 159.335 2227.71 156.673 Q2229.66 153.988 2229.66 149.289 Q2229.66 144.59 2227.71 141.928 Q2225.77 139.243 2222.39 139.243 Q2219.01 139.243 2217.06 141.928 Q2215.14 144.59 2215.14 149.289 Z" fill="#000000" fill-rule="evenodd" fill-opacity="1" /><polyline clip-path="url(#clip560)" style="stroke:#e26f46; stroke-linecap:butt; stroke-linejoin:round; stroke-width:4; stroke-opacity:1; fill:none" points="
  1746.68,196.789 1889.29,196.789 
  "/>
<line clip-path="url(#clip560)" x1="1817.99" y1="196.789" x2="1792.39" y2="171.189" style="stroke:#e26f46; stroke-width:2.048; stroke-opacity:1"/>
<line clip-path="url(#clip560)" x1="1817.99" y1="196.789" x2="1792.39" y2="222.389" style="stroke:#e26f46; stroke-width:2.048; stroke-opacity:1"/>
<line clip-path="url(#clip560)" x1="1817.99" y1="196.789" x2="1843.59" y2="222.389" style="stroke:#e26f46; stroke-width:2.048; stroke-opacity:1"/>
<line clip-path="url(#clip560)" x1="1817.99" y1="196.789" x2="1843.59" y2="171.189" style="stroke:#e26f46; stroke-width:2.048; stroke-opacity:1"/>
<path clip-path="url(#clip560)" d="M1937.09 200.041 L1937.09 202.124 L1917.5 202.124 Q1917.78 206.522 1920.14 208.837 Q1922.53 211.129 1926.76 211.129 Q1929.22 211.129 1931.51 210.527 Q1933.82 209.925 1936.09 208.721 L1936.09 212.749 Q1933.8 213.721 1931.39 214.231 Q1928.99 214.74 1926.51 214.74 Q1920.3 214.74 1916.67 211.129 Q1913.06 207.518 1913.06 201.36 Q1913.06 194.995 1916.49 191.268 Q1919.93 187.518 1925.77 187.518 Q1931 187.518 1934.03 190.897 Q1937.09 194.254 1937.09 200.041 M1932.83 198.791 Q1932.78 195.296 1930.86 193.212 Q1928.96 191.129 1925.81 191.129 Q1922.25 191.129 1920.1 193.143 Q1917.97 195.157 1917.64 198.814 L1932.83 198.791 Z" fill="#000000" fill-rule="evenodd" fill-opacity="1" /><path clip-path="url(#clip560)" d="M1964.8 188.143 L1955.42 200.759 L1965.28 214.069 L1960.26 214.069 L1952.71 203.883 L1945.17 214.069 L1940.14 214.069 L1950.21 200.504 L1941 188.143 L1946.02 188.143 L1952.9 197.379 L1959.77 188.143 L1964.8 188.143 Z" fill="#000000" fill-rule="evenodd" fill-opacity="1" /><path clip-path="url(#clip560)" d="M1983.08 201.036 Q1977.92 201.036 1975.93 202.217 Q1973.94 203.397 1973.94 206.245 Q1973.94 208.513 1975.42 209.856 Q1976.92 211.175 1979.49 211.175 Q1983.04 211.175 1985.17 208.675 Q1987.32 206.152 1987.32 201.985 L1987.32 201.036 L1983.08 201.036 M1991.58 199.277 L1991.58 214.069 L1987.32 214.069 L1987.32 210.133 Q1985.86 212.495 1983.68 213.629 Q1981.51 214.74 1978.36 214.74 Q1974.38 214.74 1972.02 212.518 Q1969.68 210.272 1969.68 206.522 Q1969.68 202.147 1972.6 199.925 Q1975.54 197.703 1981.35 197.703 L1987.32 197.703 L1987.32 197.286 Q1987.32 194.347 1985.37 192.749 Q1983.45 191.129 1979.96 191.129 Q1977.74 191.129 1975.63 191.661 Q1973.52 192.194 1971.58 193.259 L1971.58 189.323 Q1973.92 188.421 1976.11 187.981 Q1978.31 187.518 1980.4 187.518 Q1986.02 187.518 1988.8 190.434 Q1991.58 193.351 1991.58 199.277 Z" fill="#000000" fill-rule="evenodd" fill-opacity="1" /><path clip-path="url(#clip560)" d="M2019.01 189.138 L2019.01 193.12 Q2017.2 192.124 2015.37 191.638 Q2013.57 191.129 2011.72 191.129 Q2007.57 191.129 2005.28 193.768 Q2002.99 196.384 2002.99 201.129 Q2002.99 205.874 2005.28 208.513 Q2007.57 211.129 2011.72 211.129 Q2013.57 211.129 2015.37 210.643 Q2017.2 210.133 2019.01 209.138 L2019.01 213.073 Q2017.23 213.907 2015.3 214.323 Q2013.41 214.74 2011.25 214.74 Q2005.4 214.74 2001.95 211.059 Q1998.5 207.379 1998.5 201.129 Q1998.5 194.786 2001.97 191.152 Q2005.47 187.518 2011.53 187.518 Q2013.5 187.518 2015.37 187.935 Q2017.25 188.328 2019.01 189.138 Z" fill="#000000" fill-rule="evenodd" fill-opacity="1" /><path clip-path="url(#clip560)" d="M2030.63 180.782 L2030.63 188.143 L2039.4 188.143 L2039.4 191.453 L2030.63 191.453 L2030.63 205.527 Q2030.63 208.698 2031.48 209.601 Q2032.36 210.504 2035.03 210.504 L2039.4 210.504 L2039.4 214.069 L2035.03 214.069 Q2030.1 214.069 2028.22 212.24 Q2026.35 210.388 2026.35 205.527 L2026.35 191.453 L2023.22 191.453 L2023.22 188.143 L2026.35 188.143 L2026.35 180.782 L2030.63 180.782 Z" fill="#000000" fill-rule="evenodd" fill-opacity="1" /><polyline clip-path="url(#clip560)" style="stroke:#3da44d; stroke-linecap:butt; stroke-linejoin:round; stroke-width:4; stroke-opacity:1; fill:none" points="
  1746.68,248.629 1889.29,248.629 
  "/>
<path clip-path="url(#clip560)" d="M1937.09 251.881 L1937.09 253.964 L1917.5 253.964 Q1917.78 258.362 1920.14 260.677 Q1922.53 262.969 1926.76 262.969 Q1929.22 262.969 1931.51 262.367 Q1933.82 261.765 1936.09 260.561 L1936.09 264.589 Q1933.8 265.561 1931.39 266.071 Q1928.99 266.58 1926.51 266.58 Q1920.3 266.58 1916.67 262.969 Q1913.06 259.358 1913.06 253.2 Q1913.06 246.835 1916.49 243.108 Q1919.93 239.358 1925.77 239.358 Q1931 239.358 1934.03 242.737 Q1937.09 246.094 1937.09 251.881 M1932.83 250.631 Q1932.78 247.136 1930.86 245.052 Q1928.96 242.969 1925.81 242.969 Q1922.25 242.969 1920.1 244.983 Q1917.97 246.997 1917.64 250.654 L1932.83 250.631 Z" fill="#000000" fill-rule="evenodd" fill-opacity="1" /><path clip-path="url(#clip560)" d="M1959.1 243.964 Q1958.38 243.548 1957.53 243.362 Q1956.69 243.154 1955.68 243.154 Q1952.06 243.154 1950.12 245.515 Q1948.2 247.853 1948.2 252.251 L1948.2 265.909 L1943.92 265.909 L1943.92 239.983 L1948.2 239.983 L1948.2 244.011 Q1949.54 241.649 1951.69 240.515 Q1953.85 239.358 1956.93 239.358 Q1957.36 239.358 1957.9 239.427 Q1958.43 239.474 1959.08 239.589 L1959.1 243.964 Z" fill="#000000" fill-rule="evenodd" fill-opacity="1" /><path clip-path="url(#clip560)" d="M1977.76 243.964 Q1977.04 243.548 1976.18 243.362 Q1975.35 243.154 1974.33 243.154 Q1970.72 243.154 1968.78 245.515 Q1966.86 247.853 1966.86 252.251 L1966.86 265.909 L1962.57 265.909 L1962.57 239.983 L1966.86 239.983 L1966.86 244.011 Q1968.2 241.649 1970.35 240.515 Q1972.5 239.358 1975.58 239.358 Q1976.02 239.358 1976.55 239.427 Q1977.09 239.474 1977.74 239.589 L1977.76 243.964 Z" fill="#000000" fill-rule="evenodd" fill-opacity="1" /><path clip-path="url(#clip560)" d="M1991.23 242.969 Q1987.8 242.969 1985.81 245.654 Q1983.82 248.316 1983.82 252.969 Q1983.82 257.622 1985.79 260.307 Q1987.78 262.969 1991.23 262.969 Q1994.63 262.969 1996.62 260.284 Q1998.61 257.598 1998.61 252.969 Q1998.61 248.362 1996.62 245.677 Q1994.63 242.969 1991.23 242.969 M1991.23 239.358 Q1996.79 239.358 1999.96 242.969 Q2003.13 246.58 2003.13 252.969 Q2003.13 259.335 1999.96 262.969 Q1996.79 266.58 1991.23 266.58 Q1985.65 266.58 1982.48 262.969 Q1979.33 259.335 1979.33 252.969 Q1979.33 246.58 1982.48 242.969 Q1985.65 239.358 1991.23 239.358 Z" fill="#000000" fill-rule="evenodd" fill-opacity="1" /><path clip-path="url(#clip560)" d="M2025.21 243.964 Q2024.49 243.548 2023.64 243.362 Q2022.8 243.154 2021.79 243.154 Q2018.17 243.154 2016.23 245.515 Q2014.31 247.853 2014.31 252.251 L2014.31 265.909 L2010.03 265.909 L2010.03 239.983 L2014.31 239.983 L2014.31 244.011 Q2015.65 241.649 2017.8 240.515 Q2019.96 239.358 2023.04 239.358 Q2023.48 239.358 2024.01 239.427 Q2024.54 239.474 2025.19 239.589 L2025.21 243.964 Z" fill="#000000" fill-rule="evenodd" fill-opacity="1" /></svg>
