<?xml version="1.0" encoding="utf-8"?>
<svg xmlns="http://www.w3.org/2000/svg" xmlns:xlink="http://www.w3.org/1999/xlink" width="600" height="400" viewBox="0 0 2400 1600">
<defs>
  <clipPath id="clip820">
    <rect x="0" y="0" width="2400" height="1600"/>
  </clipPath>
</defs>
<path clip-path="url(#clip820)" d="
M0 1600 L2400 1600 L2400 0 L0 0  Z
  " fill="#ffffff" fill-rule="evenodd" fill-opacity="1"/>
<defs>
  <clipPath id="clip821">
    <rect x="480" y="0" width="1681" height="1600"/>
  </clipPath>
</defs>
<path clip-path="url(#clip820)" d="
M189.496 1423.18 L2352.76 1423.18 L2352.76 47.2441 L189.496 47.2441  Z
  " fill="#ffffff" fill-rule="evenodd" fill-opacity="1"/>
<defs>
  <clipPath id="clip822">
    <rect x="189" y="47" width="2164" height="1377"/>
  </clipPath>
</defs>
<polyline clip-path="url(#clip822)" style="stroke:#000000; stroke-linecap:butt; stroke-linejoin:round; stroke-width:2; stroke-opacity:0.1; fill:none" points="
  577.25,1423.18 577.25,47.2441 
  "/>
<polyline clip-path="url(#clip822)" style="stroke:#000000; stroke-linecap:butt; stroke-linejoin:round; stroke-width:2; stroke-opacity:0.1; fill:none" points="
  985.412,1423.18 985.412,47.2441 
  "/>
<polyline clip-path="url(#clip822)" style="stroke:#000000; stroke-linecap:butt; stroke-linejoin:round; stroke-width:2; stroke-opacity:0.1; fill:none" points="
  1393.57,1423.18 1393.57,47.2441 
  "/>
<polyline clip-path="url(#clip822)" style="stroke:#000000; stroke-linecap:butt; stroke-linejoin:round; stroke-width:2; stroke-opacity:0.1; fill:none" points="
  1801.74,1423.18 1801.74,47.2441 
  "/>
<polyline clip-path="url(#clip822)" style="stroke:#000000; stroke-linecap:butt; stroke-linejoin:round; stroke-width:2; stroke-opacity:0.1; fill:none" points="
  2209.9,1423.18 2209.9,47.2441 
  "/>
<polyline clip-path="url(#clip820)" style="stroke:#000000; stroke-linecap:butt; stroke-linejoin:round; stroke-width:4; stroke-opacity:1; fill:none" points="
  189.496,1423.18 2352.76,1423.18 
  "/>
<polyline clip-path="url(#clip820)" style="stroke:#000000; stroke-linecap:butt; stroke-linejoin:round; stroke-width:4; stroke-opacity:1; fill:none" points="
  577.25,1423.18 577.25,1404.28 
  "/>
<polyline clip-path="url(#clip820)" style="stroke:#000000; stroke-linecap:butt; stroke-linejoin:round; stroke-width:4; stroke-opacity:1; fill:none" points="
  985.412,1423.18 985.412,1404.28 
  "/>
<polyline clip-path="url(#clip820)" style="stroke:#000000; stroke-linecap:butt; stroke-linejoin:round; stroke-width:4; stroke-opacity:1; fill:none" points="
  1393.57,1423.18 1393.57,1404.28 
  "/>
<polyline clip-path="url(#clip820)" style="stroke:#000000; stroke-linecap:butt; stroke-linejoin:round; stroke-width:4; stroke-opacity:1; fill:none" points="
  1801.74,1423.18 1801.74,1404.28 
  "/>
<polyline clip-path="url(#clip820)" style="stroke:#000000; stroke-linecap:butt; stroke-linejoin:round; stroke-width:4; stroke-opacity:1; fill:none" points="
  2209.9,1423.18 2209.9,1404.28 
  "/>
<path clip-path="url(#clip820)" d="M567.528 1451.02 L585.884 1451.02 L585.884 1454.96 L571.81 1454.96 L571.81 1463.43 Q572.829 1463.08 573.847 1462.92 Q574.866 1462.73 575.884 1462.73 Q581.671 1462.73 585.051 1465.9 Q588.431 1469.08 588.431 1474.49 Q588.431 1480.07 584.958 1483.17 Q581.486 1486.25 575.167 1486.25 Q572.991 1486.25 570.722 1485.88 Q568.477 1485.51 566.07 1484.77 L566.07 1480.07 Q568.153 1481.2 570.375 1481.76 Q572.597 1482.32 575.074 1482.32 Q579.079 1482.32 581.417 1480.21 Q583.755 1478.1 583.755 1474.49 Q583.755 1470.88 581.417 1468.77 Q579.079 1466.67 575.074 1466.67 Q573.199 1466.67 571.324 1467.08 Q569.472 1467.5 567.528 1468.38 L567.528 1451.02 Z" fill="#000000" fill-rule="evenodd" fill-opacity="1" /><path clip-path="url(#clip820)" d="M960.1 1481.64 L967.739 1481.64 L967.739 1455.28 L959.429 1456.95 L959.429 1452.69 L967.693 1451.02 L972.368 1451.02 L972.368 1481.64 L980.007 1481.64 L980.007 1485.58 L960.1 1485.58 L960.1 1481.64 Z" fill="#000000" fill-rule="evenodd" fill-opacity="1" /><path clip-path="url(#clip820)" d="M999.452 1454.1 Q995.841 1454.1 994.012 1457.66 Q992.206 1461.2 992.206 1468.33 Q992.206 1475.44 994.012 1479.01 Q995.841 1482.55 999.452 1482.55 Q1003.09 1482.55 1004.89 1479.01 Q1006.72 1475.44 1006.72 1468.33 Q1006.72 1461.2 1004.89 1457.66 Q1003.09 1454.1 999.452 1454.1 M999.452 1450.39 Q1005.26 1450.39 1008.32 1455 Q1011.4 1459.58 1011.4 1468.33 Q1011.4 1477.06 1008.32 1481.67 Q1005.26 1486.25 999.452 1486.25 Q993.641 1486.25 990.563 1481.67 Q987.507 1477.06 987.507 1468.33 Q987.507 1459.58 990.563 1455 Q993.641 1450.39 999.452 1450.39 Z" fill="#000000" fill-rule="evenodd" fill-opacity="1" /><path clip-path="url(#clip820)" d="M1368.76 1481.64 L1376.4 1481.64 L1376.4 1455.28 L1368.09 1456.95 L1368.09 1452.69 L1376.35 1451.02 L1381.03 1451.02 L1381.03 1481.64 L1388.67 1481.64 L1388.67 1485.58 L1368.76 1485.58 L1368.76 1481.64 Z" fill="#000000" fill-rule="evenodd" fill-opacity="1" /><path clip-path="url(#clip820)" d="M1398.16 1451.02 L1416.51 1451.02 L1416.51 1454.96 L1402.44 1454.96 L1402.44 1463.43 Q1403.46 1463.08 1404.48 1462.92 Q1405.5 1462.73 1406.51 1462.73 Q1412.3 1462.73 1415.68 1465.9 Q1419.06 1469.08 1419.06 1474.49 Q1419.06 1480.07 1415.59 1483.17 Q1412.12 1486.25 1405.8 1486.25 Q1403.62 1486.25 1401.35 1485.88 Q1399.11 1485.51 1396.7 1484.77 L1396.7 1480.07 Q1398.78 1481.2 1401.01 1481.76 Q1403.23 1482.32 1405.7 1482.32 Q1409.71 1482.32 1412.05 1480.21 Q1414.38 1478.1 1414.38 1474.49 Q1414.38 1470.88 1412.05 1468.77 Q1409.71 1466.67 1405.7 1466.67 Q1403.83 1466.67 1401.95 1467.08 Q1400.1 1467.5 1398.16 1468.38 L1398.16 1451.02 Z" fill="#000000" fill-rule="evenodd" fill-opacity="1" /><path clip-path="url(#clip820)" d="M1780.51 1481.64 L1796.83 1481.64 L1796.83 1485.58 L1774.89 1485.58 L1774.89 1481.64 Q1777.55 1478.89 1782.13 1474.26 Q1786.74 1469.61 1787.92 1468.27 Q1790.16 1465.74 1791.04 1464.01 Q1791.95 1462.25 1791.95 1460.56 Q1791.95 1457.8 1790 1456.07 Q1788.08 1454.33 1784.98 1454.33 Q1782.78 1454.33 1780.32 1455.09 Q1777.89 1455.86 1775.12 1457.41 L1775.12 1452.69 Q1777.94 1451.55 1780.39 1450.97 Q1782.85 1450.39 1784.89 1450.39 Q1790.26 1450.39 1793.45 1453.08 Q1796.64 1455.77 1796.64 1460.26 Q1796.64 1462.39 1795.83 1464.31 Q1795.05 1466.2 1792.94 1468.8 Q1792.36 1469.47 1789.26 1472.69 Q1786.16 1475.88 1780.51 1481.64 Z" fill="#000000" fill-rule="evenodd" fill-opacity="1" /><path clip-path="url(#clip820)" d="M1816.64 1454.1 Q1813.03 1454.1 1811.2 1457.66 Q1809.4 1461.2 1809.4 1468.33 Q1809.4 1475.44 1811.2 1479.01 Q1813.03 1482.55 1816.64 1482.55 Q1820.28 1482.55 1822.08 1479.01 Q1823.91 1475.44 1823.91 1468.33 Q1823.91 1461.2 1822.08 1457.66 Q1820.28 1454.1 1816.64 1454.1 M1816.64 1450.39 Q1822.45 1450.39 1825.51 1455 Q1828.59 1459.58 1828.59 1468.33 Q1828.59 1477.06 1825.51 1481.67 Q1822.45 1486.25 1816.64 1486.25 Q1810.83 1486.25 1807.76 1481.67 Q1804.7 1477.06 1804.7 1468.33 Q1804.7 1459.58 1807.76 1455 Q1810.83 1450.39 1816.64 1450.39 Z" fill="#000000" fill-rule="evenodd" fill-opacity="1" /><path clip-path="url(#clip820)" d="M2189.17 1481.64 L2205.49 1481.64 L2205.49 1485.58 L2183.55 1485.58 L2183.55 1481.64 Q2186.21 1478.89 2190.79 1474.26 Q2195.4 1469.61 2196.58 1468.27 Q2198.82 1465.74 2199.7 1464.01 Q2200.61 1462.25 2200.61 1460.56 Q2200.61 1457.8 2198.66 1456.07 Q2196.74 1454.33 2193.64 1454.33 Q2191.44 1454.33 2188.98 1455.09 Q2186.55 1455.86 2183.78 1457.41 L2183.78 1452.69 Q2186.6 1451.55 2189.05 1450.97 Q2191.51 1450.39 2193.55 1450.39 Q2198.92 1450.39 2202.11 1453.08 Q2205.3 1455.77 2205.3 1460.26 Q2205.3 1462.39 2204.49 1464.31 Q2203.71 1466.2 2201.6 1468.8 Q2201.02 1469.47 2197.92 1472.69 Q2194.82 1475.88 2189.17 1481.64 Z" fill="#000000" fill-rule="evenodd" fill-opacity="1" /><path clip-path="url(#clip820)" d="M2215.35 1451.02 L2233.71 1451.02 L2233.71 1454.96 L2219.63 1454.96 L2219.63 1463.43 Q2220.65 1463.08 2221.67 1462.92 Q2222.69 1462.73 2223.71 1462.73 Q2229.49 1462.73 2232.87 1465.9 Q2236.25 1469.08 2236.25 1474.49 Q2236.25 1480.07 2232.78 1483.17 Q2229.31 1486.25 2222.99 1486.25 Q2220.81 1486.25 2218.54 1485.88 Q2216.3 1485.51 2213.89 1484.77 L2213.89 1480.07 Q2215.98 1481.2 2218.2 1481.76 Q2220.42 1482.32 2222.9 1482.32 Q2226.9 1482.32 2229.24 1480.21 Q2231.58 1478.1 2231.58 1474.49 Q2231.58 1470.88 2229.24 1468.77 Q2226.9 1466.67 2222.9 1466.67 Q2221.02 1466.67 2219.15 1467.08 Q2217.29 1467.5 2215.35 1468.38 L2215.35 1451.02 Z" fill="#000000" fill-rule="evenodd" fill-opacity="1" /><path clip-path="url(#clip820)" d="M1275.5 1516.77 L1266 1554.9 Q1265.62 1556.42 1265.62 1558.06 Q1265.62 1561.09 1267.61 1561.09 Q1268.55 1561.09 1269.32 1560.48 Q1270.09 1559.83 1270.67 1558.58 Q1271.28 1557.29 1271.67 1556.06 Q1272.09 1554.84 1272.6 1552.94 Q1272.77 1552.2 1272.93 1551.97 Q1273.09 1551.75 1273.54 1551.75 Q1274.34 1551.75 1274.34 1552.39 Q1273.54 1556.35 1272.35 1558.87 Q1270.61 1562.57 1267.39 1562.57 Q1264.97 1562.57 1263.17 1560.89 Q1261.4 1559.19 1261.4 1556.48 Q1261.4 1555.45 1261.72 1554.23 L1270.03 1521.25 L1270.25 1519.96 Q1270.25 1519.61 1270.12 1519.41 Q1270 1519.22 1269.22 1519.03 Q1268.48 1518.83 1267 1518.83 Q1266.39 1518.83 1266.1 1518.8 Q1265.84 1518.77 1265.58 1518.61 Q1265.36 1518.45 1265.36 1518.09 Q1265.36 1517.51 1265.58 1517.19 Q1265.84 1516.87 1266.03 1516.8 Q1266.23 1516.74 1266.61 1516.71 Q1267.16 1516.68 1269 1516.52 Q1270.83 1516.32 1272.41 1516.19 Q1273.99 1516.06 1274.67 1516.06 Q1275.05 1516.06 1275.25 1516.26 Q1275.47 1516.42 1275.5 1516.61 L1275.5 1516.77 Z" fill="#000000" fill-rule="evenodd" fill-opacity="1" /><polyline clip-path="url(#clip822)" style="stroke:#000000; stroke-linecap:butt; stroke-linejoin:round; stroke-width:2; stroke-opacity:0.1; fill:none" points="
  189.496,1423.18 2352.76,1423.18 
  "/>
<polyline clip-path="url(#clip822)" style="stroke:#000000; stroke-linecap:butt; stroke-linejoin:round; stroke-width:2; stroke-opacity:0.1; fill:none" points="
  189.496,1193.86 2352.76,1193.86 
  "/>
<polyline clip-path="url(#clip822)" style="stroke:#000000; stroke-linecap:butt; stroke-linejoin:round; stroke-width:2; stroke-opacity:0.1; fill:none" points="
  189.496,964.535 2352.76,964.535 
  "/>
<polyline clip-path="url(#clip822)" style="stroke:#000000; stroke-linecap:butt; stroke-linejoin:round; stroke-width:2; stroke-opacity:0.1; fill:none" points="
  189.496,735.212 2352.76,735.212 
  "/>
<polyline clip-path="url(#clip822)" style="stroke:#000000; stroke-linecap:butt; stroke-linejoin:round; stroke-width:2; stroke-opacity:0.1; fill:none" points="
  189.496,505.889 2352.76,505.889 
  "/>
<polyline clip-path="url(#clip822)" style="stroke:#000000; stroke-linecap:butt; stroke-linejoin:round; stroke-width:2; stroke-opacity:0.1; fill:none" points="
  189.496,276.567 2352.76,276.567 
  "/>
<polyline clip-path="url(#clip822)" style="stroke:#000000; stroke-linecap:butt; stroke-linejoin:round; stroke-width:2; stroke-opacity:0.1; fill:none" points="
  189.496,47.2441 2352.76,47.2441 
  "/>
<polyline clip-path="url(#clip820)" style="stroke:#000000; stroke-linecap:butt; stroke-linejoin:round; stroke-width:4; stroke-opacity:1; fill:none" points="
  189.496,1423.18 189.496,47.2441 
  "/>
<polyline clip-path="url(#clip820)" style="stroke:#000000; stroke-linecap:butt; stroke-linejoin:round; stroke-width:4; stroke-opacity:1; fill:none" points="
  189.496,1423.18 208.394,1423.18 
  "/>
<polyline clip-path="url(#clip820)" style="stroke:#000000; stroke-linecap:butt; stroke-linejoin:round; stroke-width:4; stroke-opacity:1; fill:none" points="
  189.496,1193.86 208.394,1193.86 
  "/>
<polyline clip-path="url(#clip820)" style="stroke:#000000; stroke-linecap:butt; stroke-linejoin:round; stroke-width:4; stroke-opacity:1; fill:none" points="
  189.496,964.535 208.394,964.535 
  "/>
<polyline clip-path="url(#clip820)" style="stroke:#000000; stroke-linecap:butt; stroke-linejoin:round; stroke-width:4; stroke-opacity:1; fill:none" points="
  189.496,735.212 208.394,735.212 
  "/>
<polyline clip-path="url(#clip820)" style="stroke:#000000; stroke-linecap:butt; stroke-linejoin:round; stroke-width:4; stroke-opacity:1; fill:none" points="
  189.496,505.889 208.394,505.889 
  "/>
<polyline clip-path="url(#clip820)" style="stroke:#000000; stroke-linecap:butt; stroke-linejoin:round; stroke-width:4; stroke-opacity:1; fill:none" points="
  189.496,276.567 208.394,276.567 
  "/>
<polyline clip-path="url(#clip820)" style="stroke:#000000; stroke-linecap:butt; stroke-linejoin:round; stroke-width:4; stroke-opacity:1; fill:none" points="
  189.496,47.2441 208.394,47.2441 
  "/>
<path clip-path="url(#clip820)" d="M52.8671 1442.97 L60.506 1442.97 L60.506 1416.61 L52.1958 1418.27 L52.1958 1414.01 L60.4597 1412.35 L65.1356 1412.35 L65.1356 1442.97 L72.7744 1442.97 L72.7744 1446.91 L52.8671 1446.91 L52.8671 1442.97 Z" fill="#000000" fill-rule="evenodd" fill-opacity="1" /><path clip-path="url(#clip820)" d="M92.2188 1415.43 Q88.6077 1415.43 86.779 1418.99 Q84.9734 1422.53 84.9734 1429.66 Q84.9734 1436.77 86.779 1440.33 Q88.6077 1443.88 92.2188 1443.88 Q95.853 1443.88 97.6585 1440.33 Q99.4872 1436.77 99.4872 1429.66 Q99.4872 1422.53 97.6585 1418.99 Q95.853 1415.43 92.2188 1415.43 M92.2188 1411.72 Q98.0289 1411.72 101.084 1416.33 Q104.163 1420.91 104.163 1429.66 Q104.163 1438.39 101.084 1443 Q98.0289 1447.58 92.2188 1447.58 Q86.4086 1447.58 83.3299 1443 Q80.2744 1438.39 80.2744 1429.66 Q80.2744 1420.91 83.3299 1416.33 Q86.4086 1411.72 92.2188 1411.72 Z" fill="#000000" fill-rule="evenodd" fill-opacity="1" /><path clip-path="url(#clip820)" d="M104.163 1405.82 L128.275 1405.82 L128.275 1409.02 L104.163 1409.02 L104.163 1405.82 Z" fill="#000000" fill-rule="evenodd" fill-opacity="1" /><path clip-path="url(#clip820)" d="M136.513 1391.42 L151.427 1391.42 L151.427 1394.61 L139.992 1394.61 L139.992 1401.5 Q140.819 1401.22 141.647 1401.08 Q142.475 1400.93 143.302 1400.93 Q148.004 1400.93 150.75 1403.51 Q153.496 1406.09 153.496 1410.49 Q153.496 1415.02 150.675 1417.54 Q147.854 1420.04 142.719 1420.04 Q140.951 1420.04 139.108 1419.74 Q137.284 1419.44 135.328 1418.84 L135.328 1415.02 Q137.02 1415.94 138.826 1416.39 Q140.631 1416.85 142.644 1416.85 Q145.898 1416.85 147.797 1415.13 Q149.697 1413.42 149.697 1410.49 Q149.697 1407.55 147.797 1405.84 Q145.898 1404.13 142.644 1404.13 Q141.12 1404.13 139.597 1404.47 Q138.092 1404.81 136.513 1405.52 L136.513 1391.42 Z" fill="#000000" fill-rule="evenodd" fill-opacity="1" /><path clip-path="url(#clip820)" d="M51.6634 1213.65 L59.3023 1213.65 L59.3023 1187.28 L50.9921 1188.95 L50.9921 1184.69 L59.256 1183.02 L63.9319 1183.02 L63.9319 1213.65 L71.5707 1213.65 L71.5707 1217.58 L51.6634 1217.58 L51.6634 1213.65 Z" fill="#000000" fill-rule="evenodd" fill-opacity="1" /><path clip-path="url(#clip820)" d="M91.0151 1186.1 Q87.404 1186.1 85.5753 1189.67 Q83.7697 1193.21 83.7697 1200.34 Q83.7697 1207.45 85.5753 1211.01 Q87.404 1214.55 91.0151 1214.55 Q94.6493 1214.55 96.4548 1211.01 Q98.2835 1207.45 98.2835 1200.34 Q98.2835 1193.21 96.4548 1189.67 Q94.6493 1186.1 91.0151 1186.1 M91.0151 1182.4 Q96.8252 1182.4 99.8808 1187.01 Q102.959 1191.59 102.959 1200.34 Q102.959 1209.07 99.8808 1213.67 Q96.8252 1218.26 91.0151 1218.26 Q85.2049 1218.26 82.1262 1213.67 Q79.0707 1209.07 79.0707 1200.34 Q79.0707 1191.59 82.1262 1187.01 Q85.2049 1182.4 91.0151 1182.4 Z" fill="#000000" fill-rule="evenodd" fill-opacity="1" /><path clip-path="url(#clip820)" d="M102.959 1176.5 L127.071 1176.5 L127.071 1179.7 L102.959 1179.7 L102.959 1176.5 Z" fill="#000000" fill-rule="evenodd" fill-opacity="1" /><path clip-path="url(#clip820)" d="M145.71 1165.4 L136.118 1180.39 L145.71 1180.39 L145.71 1165.4 M144.713 1162.09 L149.49 1162.09 L149.49 1180.39 L153.496 1180.39 L153.496 1183.55 L149.49 1183.55 L149.49 1190.17 L145.71 1190.17 L145.71 1183.55 L133.033 1183.55 L133.033 1179.89 L144.713 1162.09 Z" fill="#000000" fill-rule="evenodd" fill-opacity="1" /><path clip-path="url(#clip820)" d="M52.585 984.327 L60.2238 984.327 L60.2238 957.961 L51.9137 959.628 L51.9137 955.369 L60.1776 953.702 L64.8535 953.702 L64.8535 984.327 L72.4923 984.327 L72.4923 988.262 L52.585 988.262 L52.585 984.327 Z" fill="#000000" fill-rule="evenodd" fill-opacity="1" /><path clip-path="url(#clip820)" d="M91.9366 956.781 Q88.3255 956.781 86.4969 960.346 Q84.6913 963.887 84.6913 971.017 Q84.6913 978.123 86.4969 981.688 Q88.3255 985.23 91.9366 985.23 Q95.5709 985.23 97.3764 981.688 Q99.2051 978.123 99.2051 971.017 Q99.2051 963.887 97.3764 960.346 Q95.5709 956.781 91.9366 956.781 M91.9366 953.077 Q97.7468 953.077 100.802 957.684 Q103.881 962.267 103.881 971.017 Q103.881 979.744 100.802 984.35 Q97.7468 988.933 91.9366 988.933 Q86.1265 988.933 83.0478 984.35 Q79.9923 979.744 79.9923 971.017 Q79.9923 962.267 83.0478 957.684 Q86.1265 953.077 91.9366 953.077 Z" fill="#000000" fill-rule="evenodd" fill-opacity="1" /><path clip-path="url(#clip820)" d="M103.881 947.179 L127.993 947.179 L127.993 950.376 L103.881 950.376 L103.881 947.179 Z" fill="#000000" fill-rule="evenodd" fill-opacity="1" /><path clip-path="url(#clip820)" d="M147.703 945.712 Q150.43 946.295 151.954 948.138 Q153.496 949.981 153.496 952.689 Q153.496 956.846 150.637 959.121 Q147.778 961.397 142.512 961.397 Q140.744 961.397 138.863 961.04 Q137.002 960.701 135.008 960.005 L135.008 956.338 Q136.588 957.26 138.469 957.73 Q140.349 958.2 142.399 958.2 Q145.973 958.2 147.835 956.789 Q149.716 955.379 149.716 952.689 Q149.716 950.207 147.966 948.815 Q146.236 947.404 143.133 947.404 L139.86 947.404 L139.86 944.282 L143.283 944.282 Q146.086 944.282 147.571 943.172 Q149.057 942.044 149.057 939.938 Q149.057 937.775 147.515 936.627 Q145.992 935.461 143.133 935.461 Q141.572 935.461 139.785 935.8 Q137.998 936.138 135.854 936.853 L135.854 933.468 Q138.017 932.866 139.898 932.565 Q141.797 932.264 143.471 932.264 Q147.797 932.264 150.317 934.239 Q152.838 936.195 152.838 939.543 Q152.838 941.875 151.502 943.492 Q150.167 945.091 147.703 945.712 Z" fill="#000000" fill-rule="evenodd" fill-opacity="1" /><path clip-path="url(#clip820)" d="M53.3561 755.004 L60.995 755.004 L60.995 728.639 L52.6848 730.305 L52.6848 726.046 L60.9487 724.38 L65.6246 724.38 L65.6246 755.004 L73.2634 755.004 L73.2634 758.94 L53.3561 758.94 L53.3561 755.004 Z" fill="#000000" fill-rule="evenodd" fill-opacity="1" /><path clip-path="url(#clip820)" d="M92.7078 727.458 Q89.0967 727.458 87.268 731.023 Q85.4624 734.565 85.4624 741.694 Q85.4624 748.801 87.268 752.366 Q89.0967 755.907 92.7078 755.907 Q96.342 755.907 98.1475 752.366 Q99.9762 748.801 99.9762 741.694 Q99.9762 734.565 98.1475 731.023 Q96.342 727.458 92.7078 727.458 M92.7078 723.755 Q98.5179 723.755 101.573 728.361 Q104.652 732.944 104.652 741.694 Q104.652 750.421 101.573 755.028 Q98.5179 759.611 92.7078 759.611 Q86.8976 759.611 83.8189 755.028 Q80.7634 750.421 80.7634 741.694 Q80.7634 732.944 83.8189 728.361 Q86.8976 723.755 92.7078 723.755 Z" fill="#000000" fill-rule="evenodd" fill-opacity="1" /><path clip-path="url(#clip820)" d="M104.652 717.856 L128.764 717.856 L128.764 721.053 L104.652 721.053 L104.652 717.856 Z" fill="#000000" fill-rule="evenodd" fill-opacity="1" /><path clip-path="url(#clip820)" d="M140.236 728.332 L153.496 728.332 L153.496 731.529 L135.666 731.529 L135.666 728.332 Q137.829 726.094 141.553 722.332 Q145.296 718.552 146.255 717.461 Q148.079 715.411 148.794 714 Q149.527 712.571 149.527 711.198 Q149.527 708.96 147.948 707.549 Q146.387 706.139 143.866 706.139 Q142.08 706.139 140.086 706.759 Q138.111 707.38 135.854 708.64 L135.854 704.803 Q138.149 703.882 140.142 703.412 Q142.136 702.941 143.791 702.941 Q148.155 702.941 150.75 705.123 Q153.345 707.305 153.345 710.953 Q153.345 712.684 152.687 714.245 Q152.048 715.787 150.336 717.894 Q149.866 718.439 147.346 721.053 Q144.826 723.649 140.236 728.332 Z" fill="#000000" fill-rule="evenodd" fill-opacity="1" /><path clip-path="url(#clip820)" d="M53.0552 525.682 L60.694 525.682 L60.694 499.316 L52.3839 500.983 L52.3839 496.724 L60.6477 495.057 L65.3236 495.057 L65.3236 525.682 L72.9625 525.682 L72.9625 529.617 L53.0552 529.617 L53.0552 525.682 Z" fill="#000000" fill-rule="evenodd" fill-opacity="1" /><path clip-path="url(#clip820)" d="M92.4068 498.136 Q88.7957 498.136 86.967 501.7 Q85.1615 505.242 85.1615 512.372 Q85.1615 519.478 86.967 523.043 Q88.7957 526.585 92.4068 526.585 Q96.0411 526.585 97.8466 523.043 Q99.6753 519.478 99.6753 512.372 Q99.6753 505.242 97.8466 501.7 Q96.0411 498.136 92.4068 498.136 M92.4068 494.432 Q98.217 494.432 101.273 499.038 Q104.351 503.622 104.351 512.372 Q104.351 521.098 101.273 525.705 Q98.217 530.288 92.4068 530.288 Q86.5967 530.288 83.518 525.705 Q80.4625 521.098 80.4625 512.372 Q80.4625 503.622 83.518 499.038 Q86.5967 494.432 92.4068 494.432 Z" fill="#000000" fill-rule="evenodd" fill-opacity="1" /><path clip-path="url(#clip820)" d="M104.351 488.533 L128.463 488.533 L128.463 491.731 L104.351 491.731 L104.351 488.533 Z" fill="#000000" fill-rule="evenodd" fill-opacity="1" /><path clip-path="url(#clip820)" d="M137.321 499.009 L143.528 499.009 L143.528 477.587 L136.776 478.941 L136.776 475.481 L143.49 474.127 L147.289 474.127 L147.289 499.009 L153.496 499.009 L153.496 502.207 L137.321 502.207 L137.321 499.009 Z" fill="#000000" fill-rule="evenodd" fill-opacity="1" /><path clip-path="url(#clip820)" d="M82.7903 296.359 L90.4291 296.359 L90.4291 269.994 L82.119 271.66 L82.119 267.401 L90.3828 265.734 L95.0587 265.734 L95.0587 296.359 L102.698 296.359 L102.698 300.294 L82.7903 300.294 L82.7903 296.359 Z" fill="#000000" fill-rule="evenodd" fill-opacity="1" /><path clip-path="url(#clip820)" d="M122.142 268.813 Q118.531 268.813 116.702 272.378 Q114.897 275.919 114.897 283.049 Q114.897 290.155 116.702 293.72 Q118.531 297.262 122.142 297.262 Q125.776 297.262 127.582 293.72 Q129.41 290.155 129.41 283.049 Q129.41 275.919 127.582 272.378 Q125.776 268.813 122.142 268.813 M122.142 265.109 Q127.952 265.109 131.008 269.716 Q134.086 274.299 134.086 283.049 Q134.086 291.776 131.008 296.382 Q127.952 300.966 122.142 300.966 Q116.332 300.966 113.253 296.382 Q110.198 291.776 110.198 283.049 Q110.198 274.299 113.253 269.716 Q116.332 265.109 122.142 265.109 Z" fill="#000000" fill-rule="evenodd" fill-opacity="1" /><path clip-path="url(#clip820)" d="M143.791 247.305 Q140.857 247.305 139.371 250.202 Q137.904 253.079 137.904 258.872 Q137.904 264.646 139.371 267.543 Q140.857 270.42 143.791 270.42 Q146.744 270.42 148.211 267.543 Q149.697 264.646 149.697 258.872 Q149.697 253.079 148.211 250.202 Q146.744 247.305 143.791 247.305 M143.791 244.296 Q148.512 244.296 150.994 248.039 Q153.496 251.763 153.496 258.872 Q153.496 265.963 150.994 269.705 Q148.512 273.429 143.791 273.429 Q139.07 273.429 136.569 269.705 Q134.086 265.963 134.086 258.872 Q134.086 251.763 136.569 248.039 Q139.07 244.296 143.791 244.296 Z" fill="#000000" fill-rule="evenodd" fill-opacity="1" /><path clip-path="url(#clip820)" d="M85.4798 67.0365 L93.1186 67.0365 L93.1186 40.6709 L84.8085 42.3376 L84.8085 38.0784 L93.0723 36.4117 L97.7482 36.4117 L97.7482 67.0365 L105.387 67.0365 L105.387 70.9717 L85.4798 70.9717 L85.4798 67.0365 Z" fill="#000000" fill-rule="evenodd" fill-opacity="1" /><path clip-path="url(#clip820)" d="M124.831 39.4904 Q121.22 39.4904 119.392 43.0552 Q117.586 46.5968 117.586 53.7264 Q117.586 60.8329 119.392 64.3977 Q121.22 67.9393 124.831 67.9393 Q128.466 67.9393 130.271 64.3977 Q132.1 60.8329 132.1 53.7264 Q132.1 46.5968 130.271 43.0552 Q128.466 39.4904 124.831 39.4904 M124.831 35.7867 Q130.642 35.7867 133.697 40.3932 Q136.776 44.9765 136.776 53.7264 Q136.776 62.4532 133.697 67.0597 Q130.642 71.643 124.831 71.643 Q119.021 71.643 115.943 67.0597 Q112.887 62.4532 112.887 53.7264 Q112.887 44.9765 115.943 40.3932 Q119.021 35.7867 124.831 35.7867 Z" fill="#000000" fill-rule="evenodd" fill-opacity="1" /><path clip-path="url(#clip820)" d="M137.321 40.364 L143.528 40.364 L143.528 18.9419 L136.776 20.2961 L136.776 16.8355 L143.49 15.4813 L147.289 15.4813 L147.289 40.364 L153.496 40.364 L153.496 43.5613 L137.321 43.5613 L137.321 40.364 Z" fill="#000000" fill-rule="evenodd" fill-opacity="1" /><polyline clip-path="url(#clip822)" style="stroke:#009af9; stroke-linecap:butt; stroke-linejoin:round; stroke-width:4; stroke-opacity:1; fill:none" points="
  250.72,235.553 332.353,317.528 413.985,236.675 495.618,275.146 577.25,285.247 658.883,269.031 740.515,341.061 822.147,272.998 903.78,399.94 985.412,279.606 
  1067.04,472.96 1148.68,286.699 1230.31,612.69 1311.94,293.692 1393.57,589.804 1475.21,300.439 1556.84,503.752 1638.47,306.917 1720.1,466.39 1801.74,313.14 
  1883.37,444.038 1965,319.131 2046.63,428.862 2128.27,324.917 2209.9,417.799 2291.53,330.522 
  "/>
<polyline clip-path="url(#clip822)" style="stroke:#e26f46; stroke-linecap:butt; stroke-linejoin:round; stroke-width:4; stroke-opacity:1; fill:none" points="
  250.72,196.821 332.353,292.623 413.985,252.363 495.618,326.391 577.25,383.246 658.883,414.045 740.515,537.119 822.147,521.953 903.78,704.13 985.412,640.962 
  1067.04,893.394 1148.68,768.009 1230.31,1156.62 1311.94,901.92 1393.57,1263.97 1475.21,1042.16 1556.84,1314.59 1638.47,1188.42 1720.1,1420.07 1801.74,1340.51 
  1883.37,1546.59 1965,1498.32 2046.63,1686.15 2128.27,1661.75 2209.9,1835.61 2291.53,1830.73 
  "/>
<path clip-path="url(#clip820)" d="
M1960.92 273.23 L2280.65 273.23 L2280.65 93.1086 L1960.92 93.1086  Z
  " fill="#ffffff" fill-rule="evenodd" fill-opacity="1"/>
<polyline clip-path="url(#clip820)" style="stroke:#000000; stroke-linecap:butt; stroke-linejoin:round; stroke-width:4; stroke-opacity:1; fill:none" points="
  1960.92,273.23 2280.65,273.23 2280.65,93.1086 1960.92,93.1086 1960.92,273.23 
  "/>
<polyline clip-path="url(#clip820)" style="stroke:#009af9; stroke-linecap:butt; stroke-linejoin:round; stroke-width:4; stroke-opacity:1; fill:none" points="
  1984.96,153.149 2129.18,153.149 
  "/>
<path clip-path="url(#clip820)" d="M2153.21 169.224 L2153.21 124.557 Q2153.21 122.777 2154.17 122.777 Q2155.13 122.777 2155.13 124.206 L2155.13 168.872 Q2155.13 170.652 2154.17 170.652 Q2153.21 170.652 2153.21 169.224 Z" fill="#000000" fill-rule="evenodd" fill-opacity="1" /><path clip-path="url(#clip820)" d="M2195.66 145.333 Q2195.66 148.799 2193.88 152.055 Q2192.12 155.311 2189.36 157.278 Q2186.62 159.246 2183.85 159.246 Q2180.74 159.246 2179.12 156.013 Q2176.19 167.748 2176.03 168.052 Q2175.35 169.06 2174.37 169.06 Q2173.76 169.06 2173.38 168.685 Q2173.01 168.334 2173.01 167.771 Q2173.03 167.584 2173.17 166.998 L2177.86 148.143 Q2178.93 143.763 2182.19 140.648 Q2185.47 137.51 2188.98 137.51 Q2191.77 137.51 2193.71 139.594 Q2195.66 141.679 2195.66 145.333 M2192.21 143.272 Q2192.21 140.929 2191.28 139.758 Q2190.34 138.564 2188.89 138.564 Q2187.55 138.564 2185.94 139.641 Q2184.34 140.718 2182.94 143.108 Q2182.19 144.489 2181.65 146.199 Q2181.11 147.909 2180.06 152.125 Q2179.68 153.812 2179.68 153.905 Q2179.68 154.093 2179.78 154.514 Q2179.89 154.936 2180.18 155.592 Q2180.48 156.224 2180.9 156.786 Q2181.32 157.348 2182.1 157.77 Q2182.87 158.168 2183.81 158.168 Q2185.26 158.168 2186.8 156.997 Q2188.37 155.803 2189.52 153.624 Q2190.48 151.868 2191.35 148.565 Q2192.21 145.239 2192.21 143.272 Z" fill="#000000" fill-rule="evenodd" fill-opacity="1" /><path clip-path="url(#clip820)" d="M2207.73 159.86 L2202.89 179.272 Q2202.7 180.043 2202.7 180.879 Q2202.7 182.42 2203.71 182.42 Q2204.19 182.42 2204.58 182.109 Q2204.98 181.781 2205.27 181.141 Q2205.58 180.485 2205.78 179.862 Q2205.99 179.239 2206.26 178.272 Q2206.34 177.895 2206.42 177.78 Q2206.5 177.665 2206.73 177.665 Q2207.14 177.665 2207.14 177.993 Q2206.73 180.01 2206.12 181.289 Q2205.24 183.174 2203.6 183.174 Q2202.37 183.174 2201.45 182.322 Q2200.55 181.453 2200.55 180.076 Q2200.55 179.551 2200.71 178.928 L2204.94 162.139 L2205.06 161.483 Q2205.06 161.302 2204.99 161.204 Q2204.93 161.106 2204.53 161.007 Q2204.16 160.909 2203.4 160.909 Q2203.09 160.909 2202.94 160.893 Q2202.81 160.876 2202.68 160.794 Q2202.57 160.712 2202.57 160.532 Q2202.57 160.237 2202.68 160.073 Q2202.81 159.909 2202.91 159.876 Q2203.01 159.843 2203.21 159.827 Q2203.48 159.81 2204.42 159.728 Q2205.35 159.63 2206.16 159.564 Q2206.96 159.499 2207.3 159.499 Q2207.5 159.499 2207.6 159.597 Q2207.71 159.679 2207.73 159.778 L2207.73 159.86 Z" fill="#000000" fill-rule="evenodd" fill-opacity="1" /><path clip-path="url(#clip820)" d="M2212.78 169.224 L2212.78 124.557 Q2212.78 122.777 2213.74 122.777 Q2214.7 122.777 2214.7 124.206 L2214.7 168.872 Q2214.7 170.652 2213.74 170.652 Q2212.78 170.652 2212.78 169.224 Z" fill="#000000" fill-rule="evenodd" fill-opacity="1" /><polyline clip-path="url(#clip820)" style="stroke:#e26f46; stroke-linecap:butt; stroke-linejoin:round; stroke-width:4; stroke-opacity:1; fill:none" points="
  1984.96,213.189 2129.18,213.189 
  "/>
<path clip-path="url(#clip820)" d="M2153.21 229.522 L2153.21 184.855 Q2153.21 183.075 2154.17 183.075 Q2155.13 183.075 2155.13 184.504 L2155.13 229.17 Q2155.13 230.95 2154.17 230.95 Q2153.21 230.95 2153.21 229.522 Z" fill="#000000" fill-rule="evenodd" fill-opacity="1" /><path clip-path="url(#clip820)" d="M2195.03 200.056 Q2195.03 200.08 2194.88 200.923 L2189.54 222.214 Q2189.26 223.338 2188.47 224.462 Q2187.69 225.61 2186.45 226.594 Q2185.23 227.601 2183.36 228.21 Q2181.51 228.842 2179.38 228.842 Q2175.98 228.842 2174.48 228.116 Q2173.01 227.414 2173.01 225.915 Q2173.01 224.603 2173.83 223.853 Q2174.65 223.127 2175.58 223.127 Q2176.47 223.127 2176.94 223.643 Q2177.41 224.158 2177.41 224.814 Q2177.41 225.54 2176.92 226.266 Q2176.43 227.016 2175.44 227.297 Q2177.01 227.788 2179.29 227.788 Q2184.09 227.788 2186.15 222.706 Q2186.19 222.636 2186.19 222.612 L2187.79 216.265 L2187.72 216.218 Q2187.32 216.686 2186.69 217.225 Q2186.08 217.74 2184.77 218.373 Q2183.45 219.005 2182.17 219.005 Q2179.47 219.005 2177.62 216.944 Q2175.8 214.859 2175.8 211.416 Q2175.8 208.91 2176.8 206.404 Q2177.83 203.874 2179.43 202.024 Q2181.04 200.15 2183.1 198.979 Q2185.19 197.808 2187.2 197.808 Q2188.61 197.808 2189.8 198.651 Q2191 199.471 2191.65 200.829 Q2191.77 199.705 2192.4 199.236 Q2193.06 198.768 2193.62 198.768 Q2194.25 198.768 2194.63 199.119 Q2195.03 199.447 2195.03 200.056 M2191.09 202.984 Q2191.09 202.844 2191 202.469 Q2190.9 202.071 2190.62 201.438 Q2190.36 200.806 2189.97 200.244 Q2189.57 199.682 2188.84 199.283 Q2188.14 198.862 2187.25 198.862 Q2185.8 198.862 2184.34 200.08 Q2182.89 201.274 2181.89 203.125 Q2180.95 204.905 2180.06 208.348 Q2179.19 211.791 2179.19 213.548 Q2179.19 215.281 2179.94 216.616 Q2180.69 217.951 2182.31 217.951 Q2184.18 217.951 2186.19 216.218 Q2188.28 214.414 2188.63 212.868 L2190.95 203.71 Q2191.09 203.148 2191.09 202.984 Z" fill="#000000" fill-rule="evenodd" fill-opacity="1" /><path clip-path="url(#clip820)" d="M2207.11 219.642 L2202.27 239.055 Q2202.07 239.825 2202.07 240.661 Q2202.07 242.203 2203.09 242.203 Q2203.56 242.203 2203.96 241.891 Q2204.35 241.563 2204.65 240.924 Q2204.96 240.268 2205.16 239.645 Q2205.37 239.022 2205.63 238.054 Q2205.71 237.677 2205.79 237.563 Q2205.88 237.448 2206.11 237.448 Q2206.52 237.448 2206.52 237.776 Q2206.11 239.792 2205.5 241.071 Q2204.61 242.957 2202.97 242.957 Q2201.74 242.957 2200.83 242.104 Q2199.92 241.235 2199.92 239.858 Q2199.92 239.333 2200.09 238.71 L2204.32 221.921 L2204.43 221.265 Q2204.43 221.085 2204.37 220.987 Q2204.3 220.888 2203.91 220.79 Q2203.53 220.691 2202.78 220.691 Q2202.47 220.691 2202.32 220.675 Q2202.19 220.659 2202.06 220.577 Q2201.94 220.495 2201.94 220.314 Q2201.94 220.019 2202.06 219.855 Q2202.19 219.691 2202.29 219.659 Q2202.38 219.626 2202.58 219.609 Q2202.86 219.593 2203.79 219.511 Q2204.73 219.413 2205.53 219.347 Q2206.34 219.281 2206.68 219.281 Q2206.88 219.281 2206.98 219.38 Q2207.09 219.462 2207.11 219.56 L2207.11 219.642 Z" fill="#000000" fill-rule="evenodd" fill-opacity="1" /><path clip-path="url(#clip820)" d="M2212.15 229.522 L2212.15 184.855 Q2212.15 183.075 2213.11 183.075 Q2214.07 183.075 2214.07 184.504 L2214.07 229.17 Q2214.07 230.95 2213.11 230.95 Q2212.15 230.95 2212.15 229.522 Z" fill="#000000" fill-rule="evenodd" fill-opacity="1" /></svg>
