<?xml version="1.0" encoding="utf-8"?>
<svg xmlns="http://www.w3.org/2000/svg" xmlns:xlink="http://www.w3.org/1999/xlink" width="600" height="400" viewBox="0 0 2400 1600">
<defs>
  <clipPath id="clip840">
    <rect x="0" y="0" width="2400" height="1600"/>
  </clipPath>
</defs>
<path clip-path="url(#clip840)" d="
M0 1600 L2400 1600 L2400 0 L0 0  Z
  " fill="#ffffff" fill-rule="evenodd" fill-opacity="1"/>
<defs>
  <clipPath id="clip841">
    <rect x="480" y="0" width="1681" height="1600"/>
  </clipPath>
</defs>
<defs>
  <clipPath id="clip842">
    <rect x="252" y="47" width="2101" height="1377"/>
  </clipPath>
</defs>
<path clip-path="url(#clip840)" d="
M219.866 1423.18 L2352.76 1423.18 L2352.76 47.2441 L219.866 47.2441  Z
  " fill="#ffffff" fill-rule="evenodd" fill-opacity="1"/>
<defs>
  <clipPath id="clip843">
    <rect x="219" y="47" width="2134" height="1377"/>
  </clipPath>
</defs>
<polyline clip-path="url(#clip843)" style="stroke:#000000; stroke-linecap:butt; stroke-linejoin:round; stroke-width:2; stroke-opacity:0.1; fill:none" points="
  481.447,1423.18 481.447,47.2441 
  "/>
<polyline clip-path="url(#clip843)" style="stroke:#000000; stroke-linecap:butt; stroke-linejoin:round; stroke-width:2; stroke-opacity:0.1; fill:none" points="
  883.879,1423.18 883.879,47.2441 
  "/>
<polyline clip-path="url(#clip843)" style="stroke:#000000; stroke-linecap:butt; stroke-linejoin:round; stroke-width:2; stroke-opacity:0.1; fill:none" points="
  1286.31,1423.18 1286.31,47.2441 
  "/>
<polyline clip-path="url(#clip843)" style="stroke:#000000; stroke-linecap:butt; stroke-linejoin:round; stroke-width:2; stroke-opacity:0.1; fill:none" points="
  1688.74,1423.18 1688.74,47.2441 
  "/>
<polyline clip-path="url(#clip843)" style="stroke:#000000; stroke-linecap:butt; stroke-linejoin:round; stroke-width:2; stroke-opacity:0.1; fill:none" points="
  2091.18,1423.18 2091.18,47.2441 
  "/>
<polyline clip-path="url(#clip840)" style="stroke:#000000; stroke-linecap:butt; stroke-linejoin:round; stroke-width:4; stroke-opacity:1; fill:none" points="
  219.866,1423.18 2352.76,1423.18 
  "/>
<polyline clip-path="url(#clip840)" style="stroke:#000000; stroke-linecap:butt; stroke-linejoin:round; stroke-width:4; stroke-opacity:1; fill:none" points="
  481.447,1423.18 481.447,1404.28 
  "/>
<polyline clip-path="url(#clip840)" style="stroke:#000000; stroke-linecap:butt; stroke-linejoin:round; stroke-width:4; stroke-opacity:1; fill:none" points="
  883.879,1423.18 883.879,1404.28 
  "/>
<polyline clip-path="url(#clip840)" style="stroke:#000000; stroke-linecap:butt; stroke-linejoin:round; stroke-width:4; stroke-opacity:1; fill:none" points="
  1286.31,1423.18 1286.31,1404.28 
  "/>
<polyline clip-path="url(#clip840)" style="stroke:#000000; stroke-linecap:butt; stroke-linejoin:round; stroke-width:4; stroke-opacity:1; fill:none" points="
  1688.74,1423.18 1688.74,1404.28 
  "/>
<polyline clip-path="url(#clip840)" style="stroke:#000000; stroke-linecap:butt; stroke-linejoin:round; stroke-width:4; stroke-opacity:1; fill:none" points="
  2091.18,1423.18 2091.18,1404.28 
  "/>
<path clip-path="url(#clip840)" d="M450.348 1468.75 L480.023 1468.75 L480.023 1472.69 L450.348 1472.69 L450.348 1468.75 Z" fill="#000000" fill-rule="evenodd" fill-opacity="1" /><path clip-path="url(#clip840)" d="M502.963 1455.09 L491.158 1473.54 L502.963 1473.54 L502.963 1455.09 M501.736 1451.02 L507.616 1451.02 L507.616 1473.54 L512.546 1473.54 L512.546 1477.43 L507.616 1477.43 L507.616 1485.58 L502.963 1485.58 L502.963 1477.43 L487.361 1477.43 L487.361 1472.92 L501.736 1451.02 Z" fill="#000000" fill-rule="evenodd" fill-opacity="1" /><path clip-path="url(#clip840)" d="M853.821 1468.75 L883.497 1468.75 L883.497 1472.69 L853.821 1472.69 L853.821 1468.75 Z" fill="#000000" fill-rule="evenodd" fill-opacity="1" /><path clip-path="url(#clip840)" d="M897.617 1481.64 L913.937 1481.64 L913.937 1485.58 L891.992 1485.58 L891.992 1481.64 Q894.654 1478.89 899.238 1474.26 Q903.844 1469.61 905.025 1468.27 Q907.27 1465.74 908.15 1464.01 Q909.053 1462.25 909.053 1460.56 Q909.053 1457.8 907.108 1456.07 Q905.187 1454.33 902.085 1454.33 Q899.886 1454.33 897.432 1455.09 Q895.002 1455.86 892.224 1457.41 L892.224 1452.69 Q895.048 1451.55 897.502 1450.97 Q899.955 1450.39 901.992 1450.39 Q907.363 1450.39 910.557 1453.08 Q913.752 1455.77 913.752 1460.26 Q913.752 1462.39 912.941 1464.31 Q912.154 1466.2 910.048 1468.8 Q909.469 1469.47 906.367 1472.69 Q903.266 1475.88 897.617 1481.64 Z" fill="#000000" fill-rule="evenodd" fill-opacity="1" /><path clip-path="url(#clip840)" d="M1286.31 1454.1 Q1282.7 1454.1 1280.87 1457.66 Q1279.07 1461.2 1279.07 1468.33 Q1279.07 1475.44 1280.87 1479.01 Q1282.7 1482.55 1286.31 1482.55 Q1289.95 1482.55 1291.75 1479.01 Q1293.58 1475.44 1293.58 1468.33 Q1293.58 1461.2 1291.75 1457.66 Q1289.95 1454.1 1286.31 1454.1 M1286.31 1450.39 Q1292.12 1450.39 1295.18 1455 Q1298.26 1459.58 1298.26 1468.33 Q1298.26 1477.06 1295.18 1481.67 Q1292.12 1486.25 1286.31 1486.25 Q1280.5 1486.25 1277.42 1481.67 Q1274.37 1477.06 1274.37 1468.33 Q1274.37 1459.58 1277.42 1455 Q1280.5 1450.39 1286.31 1450.39 Z" fill="#000000" fill-rule="evenodd" fill-opacity="1" /><path clip-path="url(#clip840)" d="M1683.4 1481.64 L1699.72 1481.64 L1699.72 1485.58 L1677.77 1485.58 L1677.77 1481.64 Q1680.43 1478.89 1685.02 1474.26 Q1689.62 1469.61 1690.8 1468.27 Q1693.05 1465.74 1693.93 1464.01 Q1694.83 1462.25 1694.83 1460.56 Q1694.83 1457.8 1692.89 1456.07 Q1690.97 1454.33 1687.86 1454.33 Q1685.66 1454.33 1683.21 1455.09 Q1680.78 1455.86 1678 1457.41 L1678 1452.69 Q1680.83 1451.55 1683.28 1450.97 Q1685.73 1450.39 1687.77 1450.39 Q1693.14 1450.39 1696.34 1453.08 Q1699.53 1455.77 1699.53 1460.26 Q1699.53 1462.39 1698.72 1464.31 Q1697.93 1466.2 1695.83 1468.8 Q1695.25 1469.47 1692.15 1472.69 Q1689.04 1475.88 1683.4 1481.64 Z" fill="#000000" fill-rule="evenodd" fill-opacity="1" /><path clip-path="url(#clip840)" d="M2094.18 1455.09 L2082.38 1473.54 L2094.18 1473.54 L2094.18 1455.09 M2092.96 1451.02 L2098.84 1451.02 L2098.84 1473.54 L2103.77 1473.54 L2103.77 1477.43 L2098.84 1477.43 L2098.84 1485.58 L2094.18 1485.58 L2094.18 1477.43 L2078.58 1477.43 L2078.58 1472.92 L2092.96 1451.02 Z" fill="#000000" fill-rule="evenodd" fill-opacity="1" /><path clip-path="url(#clip840)" d="M1304.98 1545.69 Q1304.98 1548.69 1303.46 1554.49 Q1302.85 1557 1302.01 1559.28 Q1301.21 1561.54 1300.02 1563.73 Q1298.83 1565.92 1297.44 1567.5 Q1296.06 1569.04 1294.25 1570.01 Q1292.45 1570.97 1290.45 1570.97 Q1287.3 1570.97 1285.43 1569.11 Q1283.59 1567.21 1283.01 1563.95 Q1278.7 1570.97 1272.93 1570.97 Q1269.36 1570.97 1267.68 1568.43 Q1266.01 1565.85 1266.01 1561.54 Q1266.01 1557.9 1266.97 1554.13 Q1268.81 1546.98 1272.38 1541.99 Q1272.87 1541.41 1273.58 1541.41 Q1273.99 1541.41 1274.19 1541.54 Q1274.77 1541.89 1274.77 1542.47 Q1274.77 1542.89 1274.45 1543.31 Q1272.19 1546.43 1270.71 1549.11 Q1269.23 1551.78 1268.55 1554.49 Q1268.04 1556.8 1268.04 1558.77 Q1268.04 1562.09 1269.45 1564.15 Q1270.9 1566.21 1273.77 1566.21 Q1276.41 1566.21 1278.73 1564.57 Q1281.05 1562.89 1282.75 1560.09 Q1282.85 1557.03 1283.59 1554.13 Q1284.27 1551.04 1285.85 1551.04 Q1287.1 1551.04 1287.1 1552.75 Q1287.1 1553.33 1286.84 1554.49 Q1286.14 1557.55 1284.85 1560.28 Q1285.3 1562.96 1286.97 1564.6 Q1288.65 1566.21 1291.32 1566.21 Q1293.8 1566.21 1295.99 1564.4 Q1298.21 1562.6 1299.63 1559.96 Q1301.08 1557.29 1301.89 1554.13 Q1302.14 1553.07 1302.14 1551.72 Q1302.14 1548.11 1299.63 1545.89 Q1298.92 1545.18 1298.92 1544.24 Q1298.92 1543.15 1299.82 1542.15 Q1300.89 1541.09 1302.14 1541.09 Q1303.08 1541.09 1303.66 1541.67 Q1304.98 1542.83 1304.98 1545.69 Z" fill="#000000" fill-rule="evenodd" fill-opacity="1" /><polyline clip-path="url(#clip843)" style="stroke:#000000; stroke-linecap:butt; stroke-linejoin:round; stroke-width:2; stroke-opacity:0.1; fill:none" points="
  219.866,1384.24 2352.76,1384.24 
  "/>
<polyline clip-path="url(#clip843)" style="stroke:#000000; stroke-linecap:butt; stroke-linejoin:round; stroke-width:2; stroke-opacity:0.1; fill:none" points="
  219.866,1085.73 2352.76,1085.73 
  "/>
<polyline clip-path="url(#clip843)" style="stroke:#000000; stroke-linecap:butt; stroke-linejoin:round; stroke-width:2; stroke-opacity:0.1; fill:none" points="
  219.866,787.217 2352.76,787.217 
  "/>
<polyline clip-path="url(#clip843)" style="stroke:#000000; stroke-linecap:butt; stroke-linejoin:round; stroke-width:2; stroke-opacity:0.1; fill:none" points="
  219.866,488.706 2352.76,488.706 
  "/>
<polyline clip-path="url(#clip843)" style="stroke:#000000; stroke-linecap:butt; stroke-linejoin:round; stroke-width:2; stroke-opacity:0.1; fill:none" points="
  219.866,190.196 2352.76,190.196 
  "/>
<polyline clip-path="url(#clip840)" style="stroke:#000000; stroke-linecap:butt; stroke-linejoin:round; stroke-width:4; stroke-opacity:1; fill:none" points="
  219.866,1423.18 219.866,47.2441 
  "/>
<polyline clip-path="url(#clip840)" style="stroke:#000000; stroke-linecap:butt; stroke-linejoin:round; stroke-width:4; stroke-opacity:1; fill:none" points="
  219.866,1384.24 238.764,1384.24 
  "/>
<polyline clip-path="url(#clip840)" style="stroke:#000000; stroke-linecap:butt; stroke-linejoin:round; stroke-width:4; stroke-opacity:1; fill:none" points="
  219.866,1085.73 238.764,1085.73 
  "/>
<polyline clip-path="url(#clip840)" style="stroke:#000000; stroke-linecap:butt; stroke-linejoin:round; stroke-width:4; stroke-opacity:1; fill:none" points="
  219.866,787.217 238.764,787.217 
  "/>
<polyline clip-path="url(#clip840)" style="stroke:#000000; stroke-linecap:butt; stroke-linejoin:round; stroke-width:4; stroke-opacity:1; fill:none" points="
  219.866,488.706 238.764,488.706 
  "/>
<polyline clip-path="url(#clip840)" style="stroke:#000000; stroke-linecap:butt; stroke-linejoin:round; stroke-width:4; stroke-opacity:1; fill:none" points="
  219.866,190.196 238.764,190.196 
  "/>
<path clip-path="url(#clip840)" d="M126.691 1370.04 Q123.08 1370.04 121.251 1373.6 Q119.445 1377.14 119.445 1384.27 Q119.445 1391.38 121.251 1394.94 Q123.08 1398.49 126.691 1398.49 Q130.325 1398.49 132.13 1394.94 Q133.959 1391.38 133.959 1384.27 Q133.959 1377.14 132.13 1373.6 Q130.325 1370.04 126.691 1370.04 M126.691 1366.33 Q132.501 1366.33 135.556 1370.94 Q138.635 1375.52 138.635 1384.27 Q138.635 1393 135.556 1397.61 Q132.501 1402.19 126.691 1402.19 Q120.88 1402.19 117.802 1397.61 Q114.746 1393 114.746 1384.27 Q114.746 1375.52 117.802 1370.94 Q120.88 1366.33 126.691 1366.33 Z" fill="#000000" fill-rule="evenodd" fill-opacity="1" /><path clip-path="url(#clip840)" d="M146.853 1395.64 L151.737 1395.64 L151.737 1401.52 L146.853 1401.52 L146.853 1395.64 Z" fill="#000000" fill-rule="evenodd" fill-opacity="1" /><path clip-path="url(#clip840)" d="M171.922 1370.04 Q168.311 1370.04 166.482 1373.6 Q164.677 1377.14 164.677 1384.27 Q164.677 1391.38 166.482 1394.94 Q168.311 1398.49 171.922 1398.49 Q175.556 1398.49 177.362 1394.94 Q179.19 1391.38 179.19 1384.27 Q179.19 1377.14 177.362 1373.6 Q175.556 1370.04 171.922 1370.04 M171.922 1366.33 Q177.732 1366.33 180.788 1370.94 Q183.866 1375.52 183.866 1384.27 Q183.866 1393 180.788 1397.61 Q177.732 1402.19 171.922 1402.19 Q166.112 1402.19 163.033 1397.61 Q159.978 1393 159.978 1384.27 Q159.978 1375.52 163.033 1370.94 Q166.112 1366.33 171.922 1366.33 Z" fill="#000000" fill-rule="evenodd" fill-opacity="1" /><path clip-path="url(#clip840)" d="M128.288 1071.53 Q124.677 1071.53 122.848 1075.09 Q121.043 1078.63 121.043 1085.76 Q121.043 1092.87 122.848 1096.43 Q124.677 1099.98 128.288 1099.98 Q131.922 1099.98 133.728 1096.43 Q135.556 1092.87 135.556 1085.76 Q135.556 1078.63 133.728 1075.09 Q131.922 1071.53 128.288 1071.53 M128.288 1067.82 Q134.098 1067.82 137.154 1072.43 Q140.232 1077.01 140.232 1085.76 Q140.232 1094.49 137.154 1099.1 Q134.098 1103.68 128.288 1103.68 Q122.478 1103.68 119.399 1099.1 Q116.343 1094.49 116.343 1085.76 Q116.343 1077.01 119.399 1072.43 Q122.478 1067.82 128.288 1067.82 Z" fill="#000000" fill-rule="evenodd" fill-opacity="1" /><path clip-path="url(#clip840)" d="M148.45 1097.13 L153.334 1097.13 L153.334 1103.01 L148.45 1103.01 L148.45 1097.13 Z" fill="#000000" fill-rule="evenodd" fill-opacity="1" /><path clip-path="url(#clip840)" d="M167.547 1099.07 L183.866 1099.07 L183.866 1103.01 L161.922 1103.01 L161.922 1099.07 Q164.584 1096.32 169.167 1091.69 Q173.774 1087.04 174.954 1085.69 Q177.2 1083.17 178.079 1081.43 Q178.982 1079.67 178.982 1077.98 Q178.982 1075.23 177.038 1073.49 Q175.116 1071.76 172.014 1071.76 Q169.815 1071.76 167.362 1072.52 Q164.931 1073.29 162.153 1074.84 L162.153 1070.11 Q164.977 1068.98 167.431 1068.4 Q169.885 1067.82 171.922 1067.82 Q177.292 1067.82 180.487 1070.51 Q183.681 1073.19 183.681 1077.68 Q183.681 1079.81 182.871 1081.73 Q182.084 1083.63 179.977 1086.23 Q179.399 1086.9 176.297 1090.11 Q173.195 1093.31 167.547 1099.07 Z" fill="#000000" fill-rule="evenodd" fill-opacity="1" /><path clip-path="url(#clip840)" d="M126.205 773.016 Q122.593 773.016 120.765 776.581 Q118.959 780.122 118.959 787.252 Q118.959 794.358 120.765 797.923 Q122.593 801.465 126.205 801.465 Q129.839 801.465 131.644 797.923 Q133.473 794.358 133.473 787.252 Q133.473 780.122 131.644 776.581 Q129.839 773.016 126.205 773.016 M126.205 769.312 Q132.015 769.312 135.07 773.919 Q138.149 778.502 138.149 787.252 Q138.149 795.979 135.07 800.585 Q132.015 805.168 126.205 805.168 Q120.394 805.168 117.316 800.585 Q114.26 795.979 114.26 787.252 Q114.26 778.502 117.316 773.919 Q120.394 769.312 126.205 769.312 Z" fill="#000000" fill-rule="evenodd" fill-opacity="1" /><path clip-path="url(#clip840)" d="M146.366 798.617 L151.251 798.617 L151.251 804.497 L146.366 804.497 L146.366 798.617 Z" fill="#000000" fill-rule="evenodd" fill-opacity="1" /><path clip-path="url(#clip840)" d="M174.283 774.011 L162.477 792.46 L174.283 792.46 L174.283 774.011 M173.056 769.937 L178.936 769.937 L178.936 792.46 L183.866 792.46 L183.866 796.349 L178.936 796.349 L178.936 804.497 L174.283 804.497 L174.283 796.349 L158.681 796.349 L158.681 791.835 L173.056 769.937 Z" fill="#000000" fill-rule="evenodd" fill-opacity="1" /><path clip-path="url(#clip840)" d="M126.529 474.505 Q122.918 474.505 121.089 478.07 Q119.283 481.612 119.283 488.741 Q119.283 495.848 121.089 499.412 Q122.918 502.954 126.529 502.954 Q130.163 502.954 131.968 499.412 Q133.797 495.848 133.797 488.741 Q133.797 481.612 131.968 478.07 Q130.163 474.505 126.529 474.505 M126.529 470.802 Q132.339 470.802 135.394 475.408 Q138.473 479.991 138.473 488.741 Q138.473 497.468 135.394 502.074 Q132.339 506.658 126.529 506.658 Q120.718 506.658 117.64 502.074 Q114.584 497.468 114.584 488.741 Q114.584 479.991 117.64 475.408 Q120.718 470.802 126.529 470.802 Z" fill="#000000" fill-rule="evenodd" fill-opacity="1" /><path clip-path="url(#clip840)" d="M146.691 500.107 L151.575 500.107 L151.575 505.986 L146.691 505.986 L146.691 500.107 Z" fill="#000000" fill-rule="evenodd" fill-opacity="1" /><path clip-path="url(#clip840)" d="M172.339 486.843 Q169.19 486.843 167.339 488.996 Q165.51 491.149 165.51 494.899 Q165.51 498.625 167.339 500.801 Q169.19 502.954 172.339 502.954 Q175.487 502.954 177.315 500.801 Q179.167 498.625 179.167 494.899 Q179.167 491.149 177.315 488.996 Q175.487 486.843 172.339 486.843 M181.621 472.19 L181.621 476.45 Q179.862 475.616 178.056 475.176 Q176.274 474.737 174.514 474.737 Q169.885 474.737 167.431 477.862 Q165.001 480.987 164.653 487.306 Q166.019 485.292 168.079 484.227 Q170.139 483.139 172.616 483.139 Q177.825 483.139 180.834 486.311 Q183.866 489.459 183.866 494.899 Q183.866 500.223 180.718 503.44 Q177.57 506.658 172.339 506.658 Q166.343 506.658 163.172 502.074 Q160.001 497.468 160.001 488.741 Q160.001 480.547 163.89 475.686 Q167.778 470.802 174.329 470.802 Q176.089 470.802 177.871 471.149 Q179.676 471.496 181.621 472.19 Z" fill="#000000" fill-rule="evenodd" fill-opacity="1" /><path clip-path="url(#clip840)" d="M126.783 175.995 Q123.172 175.995 121.343 179.559 Q119.538 183.101 119.538 190.231 Q119.538 197.337 121.343 200.902 Q123.172 204.444 126.783 204.444 Q130.417 204.444 132.223 200.902 Q134.052 197.337 134.052 190.231 Q134.052 183.101 132.223 179.559 Q130.417 175.995 126.783 175.995 M126.783 172.291 Q132.593 172.291 135.649 176.897 Q138.728 181.481 138.728 190.231 Q138.728 198.957 135.649 203.564 Q132.593 208.147 126.783 208.147 Q120.973 208.147 117.894 203.564 Q114.839 198.957 114.839 190.231 Q114.839 181.481 117.894 176.897 Q120.973 172.291 126.783 172.291 Z" fill="#000000" fill-rule="evenodd" fill-opacity="1" /><path clip-path="url(#clip840)" d="M146.945 201.596 L151.829 201.596 L151.829 207.476 L146.945 207.476 L146.945 201.596 Z" fill="#000000" fill-rule="evenodd" fill-opacity="1" /><path clip-path="url(#clip840)" d="M172.014 191.064 Q168.681 191.064 166.76 192.846 Q164.862 194.629 164.862 197.754 Q164.862 200.879 166.76 202.661 Q168.681 204.444 172.014 204.444 Q175.348 204.444 177.269 202.661 Q179.19 200.856 179.19 197.754 Q179.19 194.629 177.269 192.846 Q175.371 191.064 172.014 191.064 M167.339 189.073 Q164.329 188.332 162.64 186.272 Q160.973 184.212 160.973 181.249 Q160.973 177.106 163.913 174.698 Q166.876 172.291 172.014 172.291 Q177.176 172.291 180.116 174.698 Q183.056 177.106 183.056 181.249 Q183.056 184.212 181.366 186.272 Q179.7 188.332 176.714 189.073 Q180.093 189.86 181.968 192.152 Q183.866 194.444 183.866 197.754 Q183.866 202.777 180.788 205.462 Q177.732 208.147 172.014 208.147 Q166.297 208.147 163.218 205.462 Q160.163 202.777 160.163 197.754 Q160.163 194.444 162.061 192.152 Q163.959 189.86 167.339 189.073 M165.626 181.689 Q165.626 184.374 167.292 185.879 Q168.982 187.383 172.014 187.383 Q175.024 187.383 176.714 185.879 Q178.426 184.374 178.426 181.689 Q178.426 179.004 176.714 177.499 Q175.024 175.995 172.014 175.995 Q168.982 175.995 167.292 177.499 Q165.626 179.004 165.626 181.689 Z" fill="#000000" fill-rule="evenodd" fill-opacity="1" /><path clip-path="url(#clip840)" d="M50.0705 768.686 Q54.837 768.686 59.3136 771.134 Q63.7902 773.549 66.4955 777.349 Q69.2008 781.117 69.2008 784.918 Q69.2008 789.201 64.7564 791.423 Q80.8916 795.449 81.3102 795.675 Q82.6951 796.608 82.6951 797.961 Q82.6951 798.798 82.1798 799.314 Q81.6967 799.829 80.9238 799.829 Q80.6661 799.797 79.861 799.604 L53.9353 793.162 Q47.9128 791.681 43.6294 787.204 Q39.3138 782.696 39.3138 777.865 Q39.3138 774.032 42.1801 771.359 Q45.0464 768.686 50.0705 768.686 M47.2364 773.42 Q44.0158 773.42 42.4056 774.709 Q40.7631 775.997 40.7631 777.993 Q40.7631 779.829 42.2445 782.051 Q43.726 784.241 47.011 786.174 Q48.9111 787.204 51.2622 787.945 Q53.6132 788.686 59.4102 790.135 Q61.7291 790.65 61.8579 790.65 Q62.1155 790.65 62.6952 790.522 Q63.275 790.361 64.1767 789.974 Q65.0463 789.555 65.8192 788.976 Q66.5922 788.396 67.1719 787.333 Q67.7194 786.27 67.7194 784.982 Q67.7194 782.985 66.1091 780.86 Q64.4666 778.702 61.4714 777.124 Q59.056 775.804 54.515 774.612 Q49.9417 773.42 47.2364 773.42 Z" fill="#000000" fill-rule="evenodd" fill-opacity="1" /><path clip-path="url(#clip840)" d="M51.9707 761.856 Q40.8275 761.856 31.842 757.702 Q28.0739 755.931 24.9178 753.451 Q21.7616 750.971 20.3767 749.328 Q18.9919 747.686 18.9919 747.235 Q18.9919 746.591 19.636 746.559 Q19.9581 746.559 20.7632 747.428 Q31.5844 758.056 51.9707 758.024 Q72.4214 758.024 82.8239 747.686 Q83.9511 746.559 84.3054 746.559 Q84.9495 746.559 84.9495 747.235 Q84.9495 747.686 83.6291 749.264 Q82.3086 750.842 79.2813 753.29 Q76.2539 755.737 72.5502 757.509 Q63.5648 761.856 51.9707 761.856 Z" fill="#000000" fill-rule="evenodd" fill-opacity="1" /><path clip-path="url(#clip840)" d="M43.9192 703.896 Q46.9144 703.896 52.7114 705.41 Q55.2235 706.022 57.5101 706.859 Q59.7645 707.664 61.9545 708.856 Q64.1445 710.047 65.7226 711.432 Q67.2685 712.817 68.2347 714.621 Q69.2008 716.424 69.2008 718.421 Q69.2008 721.577 67.3329 723.445 Q65.4327 725.281 62.18 725.86 Q69.2008 730.176 69.2008 735.941 Q69.2008 739.516 66.6566 741.19 Q64.0801 742.865 59.7645 742.865 Q56.1253 742.865 52.3572 741.899 Q45.2075 740.063 40.2156 736.488 Q39.6358 736.005 39.6358 735.297 Q39.6358 734.878 39.7647 734.685 Q40.1189 734.105 40.6986 734.105 Q41.1173 734.105 41.536 734.427 Q44.66 736.682 47.333 738.163 Q50.0061 739.644 52.7114 740.321 Q55.0303 740.836 56.9948 740.836 Q60.312 740.836 62.3732 739.419 Q64.4344 737.97 64.4344 735.103 Q64.4344 732.463 62.7919 730.144 Q61.1172 727.825 58.3152 726.118 Q55.2557 726.021 52.3572 725.281 Q49.2654 724.604 49.2654 723.026 Q49.2654 721.77 50.9723 721.77 Q51.552 721.77 52.7114 722.028 Q55.771 722.736 58.5085 724.025 Q61.1816 723.574 62.8241 721.899 Q64.4344 720.224 64.4344 717.551 Q64.4344 715.071 62.6308 712.881 Q60.8273 710.659 58.1864 709.242 Q55.5133 707.793 52.3572 706.988 Q51.2944 706.73 49.9417 706.73 Q46.3347 706.73 44.1125 709.242 Q43.4039 709.951 42.47 709.951 Q41.375 709.951 40.3766 709.049 Q39.3138 707.986 39.3138 706.73 Q39.3138 705.796 39.8935 705.216 Q41.0529 703.896 43.9192 703.896 Z" fill="#000000" fill-rule="evenodd" fill-opacity="1" /><path clip-path="url(#clip840)" d="M84.3054 695.922 Q83.9833 695.922 83.1782 695.085 Q72.357 684.457 51.9707 684.457 Q31.52 684.457 21.1819 694.666 Q19.9903 695.922 19.636 695.922 Q18.9919 695.922 18.9919 695.278 Q18.9919 694.827 20.3123 693.249 Q21.6328 691.639 24.6601 689.223 Q27.6875 686.776 31.3911 684.972 Q40.3766 680.624 51.9707 680.624 Q63.1139 680.624 72.0994 684.779 Q75.8674 686.55 79.0236 689.03 Q82.1798 691.51 83.5646 693.153 Q84.9495 694.795 84.9495 695.278 Q84.9495 695.922 84.3054 695.922 Z" fill="#000000" fill-rule="evenodd" fill-opacity="1" /><polyline clip-path="url(#clip843)" style="stroke:#009af9; stroke-linecap:butt; stroke-linejoin:round; stroke-width:4; stroke-opacity:1; fill:none" points="
  280.231,1384.24 282.245,1384.24 284.259,1384.24 286.274,1384.24 288.288,1384.24 290.302,1384.24 292.316,1384.24 294.33,1384.24 296.344,1384.24 298.359,1384.24 
  300.373,1384.24 302.387,1384.24 304.401,1384.24 306.415,1384.24 308.43,1384.24 310.444,1384.24 312.458,1384.24 314.472,1384.24 316.486,1384.24 318.5,1384.24 
  320.515,1384.24 322.529,1384.24 324.543,1384.24 326.557,1384.24 328.571,1384.24 330.585,1384.24 332.6,1384.24 334.614,1384.24 336.628,1384.24 338.642,1384.24 
  340.656,1384.24 342.67,1384.24 344.685,1384.24 346.699,1384.24 348.713,1384.24 350.727,1384.24 352.741,1384.24 354.756,1384.24 356.77,1384.24 358.784,1384.24 
  360.798,1384.24 362.812,1384.24 364.826,1384.24 366.841,1384.24 368.855,1384.24 370.869,1384.24 372.883,1384.24 374.897,1384.24 376.911,1384.24 378.926,1384.24 
  380.94,1384.24 382.954,1384.24 384.968,1384.24 386.982,1384.24 388.996,1384.24 391.011,1384.24 393.025,1384.24 395.039,1384.24 397.053,1384.24 399.067,1384.24 
  401.082,1384.24 403.096,1384.24 405.11,1384.24 407.124,1384.24 409.138,1384.24 411.152,1384.24 413.167,1384.24 415.181,1384.24 417.195,1384.24 419.209,1384.24 
  421.223,1384.24 423.237,1384.24 425.252,1384.24 427.266,1384.24 429.28,1384.24 431.294,1384.24 433.308,1384.24 435.322,1384.24 437.337,1384.24 439.351,1384.24 
  441.365,1384.24 443.379,1384.24 445.393,1384.24 447.408,1384.24 449.422,1384.24 451.436,1384.24 453.45,1384.24 455.464,1384.24 457.478,1384.24 459.493,1384.24 
  461.507,1384.24 463.521,1384.24 465.535,1384.24 467.549,1384.24 469.563,1384.24 471.578,1384.24 473.592,1384.24 475.606,1384.24 477.62,1384.24 479.634,1384.24 
  481.648,1384.24 483.663,1384.24 485.677,1384.24 487.691,1384.24 489.705,1384.24 491.719,1384.24 493.734,1384.24 495.748,1384.24 497.762,1384.24 499.776,1384.24 
  501.79,1384.24 503.804,1384.24 505.819,1384.24 507.833,1384.24 509.847,1384.24 511.861,1384.24 513.875,1384.24 515.889,1384.24 517.904,1384.24 519.918,1384.24 
  521.932,1384.24 523.946,1384.24 525.96,1384.24 527.974,1384.24 529.989,1384.24 532.003,1384.24 534.017,1384.23 536.031,1384.23 538.045,1384.23 540.06,1384.23 
  542.074,1384.23 544.088,1384.23 546.102,1384.23 548.116,1384.23 550.13,1384.23 552.145,1384.23 554.159,1384.23 556.173,1384.23 558.187,1384.23 560.201,1384.23 
  562.215,1384.23 564.23,1384.23 566.244,1384.23 568.258,1384.22 570.272,1384.22 572.286,1384.22 574.301,1384.22 576.315,1384.22 578.329,1384.22 580.343,1384.22 
  582.357,1384.21 584.371,1384.21 586.386,1384.21 588.4,1384.21 590.414,1384.2 592.428,1384.2 594.442,1384.2 596.456,1384.2 598.471,1384.19 600.485,1384.19 
  602.499,1384.19 604.513,1384.18 606.527,1384.18 608.541,1384.17 610.556,1384.17 612.57,1384.16 614.584,1384.16 616.598,1384.15 618.612,1384.14 620.627,1384.14 
  622.641,1384.13 624.655,1384.12 626.669,1384.11 628.683,1384.1 630.697,1384.09 632.712,1384.08 634.726,1384.07 636.74,1384.06 638.754,1384.05 640.768,1384.03 
  642.782,1384.02 644.797,1384 646.811,1383.98 648.825,1383.97 650.839,1383.95 652.853,1383.93 654.867,1383.91 656.882,1383.88 658.896,1383.86 660.91,1383.83 
  662.924,1383.8 664.938,1383.78 666.953,1383.74 668.967,1383.71 670.981,1383.68 672.995,1383.64 675.009,1383.6 677.023,1383.56 679.038,1383.51 681.052,1383.47 
  683.066,1383.42 685.08,1383.36 687.094,1383.31 689.108,1383.25 691.123,1383.18 693.137,1383.12 695.151,1383.05 697.165,1382.97 699.179,1382.89 701.193,1382.81 
  703.208,1382.72 705.222,1382.63 707.236,1382.53 709.25,1382.43 711.264,1382.32 713.279,1382.21 715.293,1382.09 717.307,1381.96 719.321,1381.83 721.335,1381.69 
  723.349,1381.54 725.364,1381.38 727.378,1381.22 729.392,1381.05 731.406,1380.87 733.42,1380.68 735.434,1380.48 737.449,1380.27 739.463,1380.05 741.477,1379.82 
  743.491,1379.58 745.505,1379.32 747.519,1379.06 749.534,1378.78 751.548,1378.49 753.562,1378.18 755.576,1377.86 757.59,1377.53 759.605,1377.18 761.619,1376.82 
  763.633,1376.43 765.647,1376.03 767.661,1375.62 769.675,1375.18 771.69,1374.73 773.704,1374.26 775.718,1373.76 777.732,1373.25 779.746,1372.71 781.76,1372.15 
  783.775,1371.57 785.789,1370.97 787.803,1370.34 789.817,1369.68 791.831,1369 793.845,1368.29 795.86,1367.56 797.874,1366.79 799.888,1366 801.902,1365.18 
  803.916,1364.32 805.931,1363.43 807.945,1362.51 809.959,1361.56 811.973,1360.57 813.987,1359.55 816.001,1358.49 818.016,1357.4 820.03,1356.26 822.044,1355.09 
  824.058,1353.88 826.072,1352.63 828.086,1351.33 830.101,1350 832.115,1348.62 834.129,1347.2 836.143,1345.73 838.157,1344.21 840.171,1342.65 842.186,1341.05 
  844.2,1339.39 846.214,1337.69 848.228,1335.93 850.242,1334.13 852.257,1332.28 854.271,1330.37 856.285,1328.41 858.299,1326.4 860.313,1324.33 862.327,1322.21 
  864.342,1320.03 866.356,1317.8 868.37,1315.52 870.384,1313.17 872.398,1310.77 874.412,1308.31 876.427,1305.8 878.441,1303.22 880.455,1300.59 882.469,1297.9 
  884.483,1295.15 886.498,1292.34 888.512,1289.48 890.526,1286.55 892.54,1283.57 894.554,1280.53 896.568,1277.42 898.583,1274.26 900.597,1271.05 902.611,1267.77 
  904.625,1264.44 906.639,1261.05 908.653,1257.6 910.668,1254.1 912.682,1250.55 914.696,1246.93 916.71,1243.27 918.724,1239.55 920.738,1235.79 922.753,1231.97 
  924.767,1228.1 926.781,1224.19 928.795,1220.22 930.809,1216.21 932.824,1212.16 934.838,1208.07 936.852,1203.93 938.866,1199.76 940.88,1195.54 942.894,1191.3 
  944.909,1187.01 946.923,1182.7 948.937,1178.36 950.951,1173.98 952.965,1169.59 954.979,1165.17 956.994,1160.72 959.008,1156.26 961.022,1151.79 963.036,1147.3 
  965.05,1142.79 967.064,1138.28 969.079,1133.77 971.093,1129.25 973.107,1124.73 975.121,1120.21 977.135,1115.7 979.15,1111.19 981.164,1106.7 983.178,1102.22 
  985.192,1097.76 987.206,1093.32 989.22,1088.91 991.235,1084.52 993.249,1080.16 995.263,1075.83 997.277,1071.54 999.291,1067.29 1001.31,1063.08 1003.32,1058.92 
  1005.33,1054.8 1007.35,1050.74 1009.36,1046.74 1011.38,1042.79 1013.39,1038.9 1015.4,1035.08 1017.42,1031.33 1019.43,1027.65 1021.45,1024.04 1023.46,1020.51 
  1025.48,1017.06 1027.49,1013.69 1029.5,1010.4 1031.52,1007.21 1033.53,1004.11 1035.55,1001.1 1037.56,998.186 1039.57,995.372 1041.59,992.66 1043.6,990.052 
  1045.62,987.549 1047.63,985.155 1049.65,982.871 1051.66,980.7 1053.67,978.642 1055.69,976.701 1057.7,974.877 1059.72,973.173 1061.73,971.589 1063.74,970.127 
  1065.76,968.789 1067.77,967.575 1069.79,966.487 1071.8,965.524 1073.82,964.689 1075.83,963.982 1077.84,963.403 1079.86,962.952 1081.87,962.63 1083.89,962.438 
  1085.9,962.374 1087.91,962.439 1089.93,962.633 1091.94,962.955 1093.96,963.404 1095.97,963.98 1097.99,964.683 1100,965.511 1102.01,966.463 1104.03,967.538 
  1106.04,968.735 1108.06,970.052 1110.07,971.488 1112.09,973.041 1114.1,974.709 1116.11,976.491 1118.13,978.384 1120.14,980.387 1122.16,982.496 1124.17,984.71 
  1126.18,987.027 1128.2,989.443 1130.21,991.955 1132.23,994.563 1134.24,997.261 1136.26,1000.05 1138.27,1002.92 1140.28,1005.88 1142.3,1008.91 1144.31,1012.02 
  1146.33,1015.2 1148.34,1018.46 1150.35,1021.77 1152.37,1025.15 1154.38,1028.59 1156.4,1032.09 1158.41,1035.63 1160.43,1039.23 1162.44,1042.87 1164.45,1046.54 
  1166.47,1050.26 1168.48,1054.01 1170.5,1057.78 1172.51,1061.58 1174.52,1065.4 1176.54,1069.24 1178.55,1073.1 1180.57,1076.96 1182.58,1080.82 1184.6,1084.69 
  1186.61,1088.55 1188.62,1092.4 1190.64,1096.24 1192.65,1100.05 1194.67,1103.84 1196.68,1107.58 1198.69,1111.28 1200.71,1114.91 1202.72,1118.47 1204.74,1121.92 
  1206.75,1125.24 1208.77,1128.39 1210.78,1131.33 1212.79,1133.99 1214.81,1136.32 1216.82,1138.21 1218.84,1139.57 1220.85,1140.25 1222.86,1140.11 1224.88,1138.94 
  1226.89,1136.55 1228.91,1132.68 1230.92,1127.06 1232.94,1119.38 1234.95,1109.31 1236.96,1096.51 1238.98,1080.62 1240.99,1061.29 1243.01,1038.19 1245.02,1011.02 
  1247.03,979.544 1249.05,943.586 1251.06,903.077 1253.08,858.06 1255.09,808.713 1257.11,755.365 1259.12,698.502 1261.13,638.776 1263.15,577 1265.16,514.138 
  1267.18,451.283 1269.19,389.633 1271.2,330.457 1273.22,275.048 1275.23,224.687 1277.25,180.585 1279.26,143.843 1281.28,115.404 1283.29,96.013 1285.3,86.1857 
  1287.32,86.1857 1289.33,96.013 1291.35,115.404 1293.36,143.843 1295.37,180.585 1297.39,224.687 1299.4,275.048 1301.42,330.457 1303.43,389.633 1305.45,451.283 
  1307.46,514.138 1309.47,577 1311.49,638.776 1313.5,698.502 1315.52,755.365 1317.53,808.713 1319.54,858.06 1321.56,903.077 1323.57,943.586 1325.59,979.544 
  1327.6,1011.02 1329.62,1038.19 1331.63,1061.29 1333.64,1080.62 1335.66,1096.51 1337.67,1109.31 1339.69,1119.38 1341.7,1127.06 1343.72,1132.68 1345.73,1136.55 
  1347.74,1138.94 1349.76,1140.11 1351.77,1140.25 1353.79,1139.57 1355.8,1138.21 1357.81,1136.32 1359.83,1133.99 1361.84,1131.33 1363.86,1128.39 1365.87,1125.24 
  1367.89,1121.92 1369.9,1118.47 1371.91,1114.91 1373.93,1111.28 1375.94,1107.58 1377.96,1103.84 1379.97,1100.05 1381.98,1096.24 1384,1092.4 1386.01,1088.55 
  1388.03,1084.69 1390.04,1080.82 1392.06,1076.96 1394.07,1073.1 1396.08,1069.24 1398.1,1065.4 1400.11,1061.58 1402.13,1057.78 1404.14,1054.01 1406.15,1050.26 
  1408.17,1046.54 1410.18,1042.87 1412.2,1039.23 1414.21,1035.63 1416.23,1032.09 1418.24,1028.59 1420.25,1025.15 1422.27,1021.77 1424.28,1018.46 1426.3,1015.2 
  1428.31,1012.02 1430.32,1008.91 1432.34,1005.88 1434.35,1002.92 1436.37,1000.05 1438.38,997.261 1440.4,994.563 1442.41,991.955 1444.42,989.443 1446.44,987.027 
  1448.45,984.71 1450.47,982.496 1452.48,980.387 1454.49,978.384 1456.51,976.491 1458.52,974.709 1460.54,973.041 1462.55,971.488 1464.57,970.052 1466.58,968.735 
  1468.59,967.538 1470.61,966.463 1472.62,965.511 1474.64,964.683 1476.65,963.98 1478.66,963.404 1480.68,962.955 1482.69,962.633 1484.71,962.439 1486.72,962.374 
  1488.74,962.438 1490.75,962.63 1492.76,962.952 1494.78,963.403 1496.79,963.982 1498.81,964.689 1500.82,965.524 1502.83,966.487 1504.85,967.575 1506.86,968.789 
  1508.88,970.127 1510.89,971.589 1512.91,973.173 1514.92,974.877 1516.93,976.701 1518.95,978.642 1520.96,980.7 1522.98,982.871 1524.99,985.155 1527,987.549 
  1529.02,990.052 1531.03,992.66 1533.05,995.372 1535.06,998.186 1537.08,1001.1 1539.09,1004.11 1541.1,1007.21 1543.12,1010.4 1545.13,1013.69 1547.15,1017.06 
  1549.16,1020.51 1551.17,1024.04 1553.19,1027.65 1555.2,1031.33 1557.22,1035.08 1559.23,1038.9 1561.25,1042.79 1563.26,1046.74 1565.27,1050.74 1567.29,1054.8 
  1569.3,1058.92 1571.32,1063.08 1573.33,1067.29 1575.35,1071.54 1577.36,1075.83 1579.37,1080.16 1581.39,1084.52 1583.4,1088.91 1585.42,1093.32 1587.43,1097.76 
  1589.44,1102.22 1591.46,1106.7 1593.47,1111.19 1595.49,1115.7 1597.5,1120.21 1599.52,1124.73 1601.53,1129.25 1603.54,1133.77 1605.56,1138.28 1607.57,1142.79 
  1609.59,1147.3 1611.6,1151.79 1613.61,1156.26 1615.63,1160.72 1617.64,1165.17 1619.66,1169.59 1621.67,1173.98 1623.69,1178.36 1625.7,1182.7 1627.71,1187.01 
  1629.73,1191.3 1631.74,1195.54 1633.76,1199.76 1635.77,1203.93 1637.78,1208.07 1639.8,1212.16 1641.81,1216.21 1643.83,1220.22 1645.84,1224.19 1647.86,1228.1 
  1649.87,1231.97 1651.88,1235.79 1653.9,1239.55 1655.91,1243.27 1657.93,1246.93 1659.94,1250.55 1661.95,1254.1 1663.97,1257.6 1665.98,1261.05 1668,1264.44 
  1670.01,1267.77 1672.03,1271.05 1674.04,1274.26 1676.05,1277.42 1678.07,1280.53 1680.08,1283.57 1682.1,1286.55 1684.11,1289.48 1686.12,1292.34 1688.14,1295.15 
  1690.15,1297.9 1692.17,1300.59 1694.18,1303.22 1696.2,1305.8 1698.21,1308.31 1700.22,1310.77 1702.24,1313.17 1704.25,1315.52 1706.27,1317.8 1708.28,1320.03 
  1710.29,1322.21 1712.31,1324.33 1714.32,1326.4 1716.34,1328.41 1718.35,1330.37 1720.37,1332.28 1722.38,1334.13 1724.39,1335.93 1726.41,1337.69 1728.42,1339.39 
  1730.44,1341.05 1732.45,1342.65 1734.46,1344.21 1736.48,1345.73 1738.49,1347.2 1740.51,1348.62 1742.52,1350 1744.54,1351.33 1746.55,1352.63 1748.56,1353.88 
  1750.58,1355.09 1752.59,1356.26 1754.61,1357.4 1756.62,1358.49 1758.63,1359.55 1760.65,1360.57 1762.66,1361.56 1764.68,1362.51 1766.69,1363.43 1768.71,1364.32 
  1770.72,1365.18 1772.73,1366 1774.75,1366.79 1776.76,1367.56 1778.78,1368.29 1780.79,1369 1782.81,1369.68 1784.82,1370.34 1786.83,1370.97 1788.85,1371.57 
  1790.86,1372.15 1792.88,1372.71 1794.89,1373.25 1796.9,1373.76 1798.92,1374.26 1800.93,1374.73 1802.95,1375.18 1804.96,1375.62 1806.98,1376.03 1808.99,1376.43 
  1811,1376.82 1813.02,1377.18 1815.03,1377.53 1817.05,1377.86 1819.06,1378.18 1821.07,1378.49 1823.09,1378.78 1825.1,1379.06 1827.12,1379.32 1829.13,1379.58 
  1831.15,1379.82 1833.16,1380.05 1835.17,1380.27 1837.19,1380.48 1839.2,1380.68 1841.22,1380.87 1843.23,1381.05 1845.24,1381.22 1847.26,1381.38 1849.27,1381.54 
  1851.29,1381.69 1853.3,1381.83 1855.32,1381.96 1857.33,1382.09 1859.34,1382.21 1861.36,1382.32 1863.37,1382.43 1865.39,1382.53 1867.4,1382.63 1869.41,1382.72 
  1871.43,1382.81 1873.44,1382.89 1875.46,1382.97 1877.47,1383.05 1879.49,1383.12 1881.5,1383.18 1883.51,1383.25 1885.53,1383.31 1887.54,1383.36 1889.56,1383.42 
  1891.57,1383.47 1893.58,1383.51 1895.6,1383.56 1897.61,1383.6 1899.63,1383.64 1901.64,1383.68 1903.66,1383.71 1905.67,1383.74 1907.68,1383.78 1909.7,1383.8 
  1911.71,1383.83 1913.73,1383.86 1915.74,1383.88 1917.75,1383.91 1919.77,1383.93 1921.78,1383.95 1923.8,1383.97 1925.81,1383.98 1927.83,1384 1929.84,1384.02 
  1931.85,1384.03 1933.87,1384.05 1935.88,1384.06 1937.9,1384.07 1939.91,1384.08 1941.92,1384.09 1943.94,1384.1 1945.95,1384.11 1947.97,1384.12 1949.98,1384.13 
  1952,1384.14 1954.01,1384.14 1956.02,1384.15 1958.04,1384.16 1960.05,1384.16 1962.07,1384.17 1964.08,1384.17 1966.09,1384.18 1968.11,1384.18 1970.12,1384.19 
  1972.14,1384.19 1974.15,1384.19 1976.17,1384.2 1978.18,1384.2 1980.19,1384.2 1982.21,1384.2 1984.22,1384.21 1986.24,1384.21 1988.25,1384.21 1990.26,1384.21 
  1992.28,1384.22 1994.29,1384.22 1996.31,1384.22 1998.32,1384.22 2000.34,1384.22 2002.35,1384.22 2004.36,1384.22 2006.38,1384.23 2008.39,1384.23 2010.41,1384.23 
  2012.42,1384.23 2014.44,1384.23 2016.45,1384.23 2018.46,1384.23 2020.48,1384.23 2022.49,1384.23 2024.51,1384.23 2026.52,1384.23 2028.53,1384.23 2030.55,1384.23 
  2032.56,1384.23 2034.58,1384.23 2036.59,1384.23 2038.61,1384.23 2040.62,1384.24 2042.63,1384.24 2044.65,1384.24 2046.66,1384.24 2048.68,1384.24 2050.69,1384.24 
  2052.7,1384.24 2054.72,1384.24 2056.73,1384.24 2058.75,1384.24 2060.76,1384.24 2062.78,1384.24 2064.79,1384.24 2066.8,1384.24 2068.82,1384.24 2070.83,1384.24 
  2072.85,1384.24 2074.86,1384.24 2076.87,1384.24 2078.89,1384.24 2080.9,1384.24 2082.92,1384.24 2084.93,1384.24 2086.95,1384.24 2088.96,1384.24 2090.97,1384.24 
  2092.99,1384.24 2095,1384.24 2097.02,1384.24 2099.03,1384.24 2101.04,1384.24 2103.06,1384.24 2105.07,1384.24 2107.09,1384.24 2109.1,1384.24 2111.12,1384.24 
  2113.13,1384.24 2115.14,1384.24 2117.16,1384.24 2119.17,1384.24 2121.19,1384.24 2123.2,1384.24 2125.21,1384.24 2127.23,1384.24 2129.24,1384.24 2131.26,1384.24 
  2133.27,1384.24 2135.29,1384.24 2137.3,1384.24 2139.31,1384.24 2141.33,1384.24 2143.34,1384.24 2145.36,1384.24 2147.37,1384.24 2149.38,1384.24 2151.4,1384.24 
  2153.41,1384.24 2155.43,1384.24 2157.44,1384.24 2159.46,1384.24 2161.47,1384.24 2163.48,1384.24 2165.5,1384.24 2167.51,1384.24 2169.53,1384.24 2171.54,1384.24 
  2173.55,1384.24 2175.57,1384.24 2177.58,1384.24 2179.6,1384.24 2181.61,1384.24 2183.63,1384.24 2185.64,1384.24 2187.65,1384.24 2189.67,1384.24 2191.68,1384.24 
  2193.7,1384.24 2195.71,1384.24 2197.72,1384.24 2199.74,1384.24 2201.75,1384.24 2203.77,1384.24 2205.78,1384.24 2207.8,1384.24 2209.81,1384.24 2211.82,1384.24 
  2213.84,1384.24 2215.85,1384.24 2217.87,1384.24 2219.88,1384.24 2221.9,1384.24 2223.91,1384.24 2225.92,1384.24 2227.94,1384.24 2229.95,1384.24 2231.97,1384.24 
  2233.98,1384.24 2235.99,1384.24 2238.01,1384.24 2240.02,1384.24 2242.04,1384.24 2244.05,1384.24 2246.07,1384.24 2248.08,1384.24 2250.09,1384.24 2252.11,1384.24 
  2254.12,1384.24 2256.14,1384.24 2258.15,1384.24 2260.16,1384.24 2262.18,1384.24 2264.19,1384.24 2266.21,1384.24 2268.22,1384.24 2270.24,1384.24 2272.25,1384.24 
  2274.26,1384.24 2276.28,1384.24 2278.29,1384.24 2280.31,1384.24 2282.32,1384.24 2284.33,1384.24 2286.35,1384.24 2288.36,1384.24 2290.38,1384.24 2292.39,1384.24 
  
  "/>
</svg>
