<?xml version="1.0" encoding="utf-8"?>
<svg xmlns="http://www.w3.org/2000/svg" xmlns:xlink="http://www.w3.org/1999/xlink" width="600" height="400" viewBox="0 0 2400 1600">
<defs>
  <clipPath id="clip440">
    <rect x="0" y="0" width="2400" height="1600"/>
  </clipPath>
</defs>
<path clip-path="url(#clip440)" d="
M0 1600 L2400 1600 L2400 0 L0 0  Z
  " fill="#ffffff" fill-rule="evenodd" fill-opacity="1"/>
<defs>
  <clipPath id="clip441">
    <rect x="480" y="0" width="1681" height="1600"/>
  </clipPath>
</defs>
<defs>
  <clipPath id="clip442">
    <rect x="189" y="47" width="2164" height="1377"/>
  </clipPath>
</defs>
<path clip-path="url(#clip440)" d="
M219.866 1423.18 L2352.76 1423.18 L2352.76 47.2441 L219.866 47.2441  Z
  " fill="#ffffff" fill-rule="evenodd" fill-opacity="1"/>
<defs>
  <clipPath id="clip443">
    <rect x="219" y="47" width="2134" height="1377"/>
  </clipPath>
</defs>
<polyline clip-path="url(#clip443)" style="stroke:#000000; stroke-linecap:butt; stroke-linejoin:round; stroke-width:2; stroke-opacity:0.1; fill:none" points="
  481.447,1423.18 481.447,47.2441 
  "/>
<polyline clip-path="url(#clip443)" style="stroke:#000000; stroke-linecap:butt; stroke-linejoin:round; stroke-width:2; stroke-opacity:0.1; fill:none" points="
  883.879,1423.18 883.879,47.2441 
  "/>
<polyline clip-path="url(#clip443)" style="stroke:#000000; stroke-linecap:butt; stroke-linejoin:round; stroke-width:2; stroke-opacity:0.1; fill:none" points="
  1286.31,1423.18 1286.31,47.2441 
  "/>
<polyline clip-path="url(#clip443)" style="stroke:#000000; stroke-linecap:butt; stroke-linejoin:round; stroke-width:2; stroke-opacity:0.1; fill:none" points="
  1688.74,1423.18 1688.74,47.2441 
  "/>
<polyline clip-path="url(#clip443)" style="stroke:#000000; stroke-linecap:butt; stroke-linejoin:round; stroke-width:2; stroke-opacity:0.1; fill:none" points="
  2091.18,1423.18 2091.18,47.2441 
  "/>
<polyline clip-path="url(#clip440)" style="stroke:#000000; stroke-linecap:butt; stroke-linejoin:round; stroke-width:4; stroke-opacity:1; fill:none" points="
  219.866,1423.18 2352.76,1423.18 
  "/>
<polyline clip-path="url(#clip440)" style="stroke:#000000; stroke-linecap:butt; stroke-linejoin:round; stroke-width:4; stroke-opacity:1; fill:none" points="
  481.447,1423.18 481.447,1404.28 
  "/>
<polyline clip-path="url(#clip440)" style="stroke:#000000; stroke-linecap:butt; stroke-linejoin:round; stroke-width:4; stroke-opacity:1; fill:none" points="
  883.879,1423.18 883.879,1404.28 
  "/>
<polyline clip-path="url(#clip440)" style="stroke:#000000; stroke-linecap:butt; stroke-linejoin:round; stroke-width:4; stroke-opacity:1; fill:none" points="
  1286.31,1423.18 1286.31,1404.28 
  "/>
<polyline clip-path="url(#clip440)" style="stroke:#000000; stroke-linecap:butt; stroke-linejoin:round; stroke-width:4; stroke-opacity:1; fill:none" points="
  1688.74,1423.18 1688.74,1404.28 
  "/>
<polyline clip-path="url(#clip440)" style="stroke:#000000; stroke-linecap:butt; stroke-linejoin:round; stroke-width:4; stroke-opacity:1; fill:none" points="
  2091.18,1423.18 2091.18,1404.28 
  "/>
<path clip-path="url(#clip440)" d="M450.348 1468.75 L480.023 1468.75 L480.023 1472.69 L450.348 1472.69 L450.348 1468.75 Z" fill="#000000" fill-rule="evenodd" fill-opacity="1" /><path clip-path="url(#clip440)" d="M502.963 1455.09 L491.158 1473.54 L502.963 1473.54 L502.963 1455.09 M501.736 1451.02 L507.616 1451.02 L507.616 1473.54 L512.546 1473.54 L512.546 1477.43 L507.616 1477.43 L507.616 1485.58 L502.963 1485.58 L502.963 1477.43 L487.361 1477.43 L487.361 1472.92 L501.736 1451.02 Z" fill="#000000" fill-rule="evenodd" fill-opacity="1" /><path clip-path="url(#clip440)" d="M853.821 1468.75 L883.497 1468.75 L883.497 1472.69 L853.821 1472.69 L853.821 1468.75 Z" fill="#000000" fill-rule="evenodd" fill-opacity="1" /><path clip-path="url(#clip440)" d="M897.617 1481.64 L913.937 1481.64 L913.937 1485.58 L891.992 1485.58 L891.992 1481.64 Q894.654 1478.89 899.238 1474.26 Q903.844 1469.61 905.025 1468.27 Q907.27 1465.74 908.15 1464.01 Q909.053 1462.25 909.053 1460.56 Q909.053 1457.8 907.108 1456.07 Q905.187 1454.33 902.085 1454.33 Q899.886 1454.33 897.432 1455.09 Q895.002 1455.86 892.224 1457.41 L892.224 1452.69 Q895.048 1451.55 897.502 1450.97 Q899.955 1450.39 901.992 1450.39 Q907.363 1450.39 910.557 1453.08 Q913.752 1455.77 913.752 1460.26 Q913.752 1462.39 912.941 1464.31 Q912.154 1466.2 910.048 1468.8 Q909.469 1469.47 906.367 1472.69 Q903.266 1475.88 897.617 1481.64 Z" fill="#000000" fill-rule="evenodd" fill-opacity="1" /><path clip-path="url(#clip440)" d="M1286.31 1454.1 Q1282.7 1454.1 1280.87 1457.66 Q1279.07 1461.2 1279.07 1468.33 Q1279.07 1475.44 1280.87 1479.01 Q1282.7 1482.55 1286.31 1482.55 Q1289.95 1482.55 1291.75 1479.01 Q1293.58 1475.44 1293.58 1468.33 Q1293.58 1461.2 1291.75 1457.66 Q1289.95 1454.1 1286.31 1454.1 M1286.31 1450.39 Q1292.12 1450.39 1295.18 1455 Q1298.26 1459.58 1298.26 1468.33 Q1298.26 1477.06 1295.18 1481.67 Q1292.12 1486.25 1286.31 1486.25 Q1280.5 1486.25 1277.42 1481.67 Q1274.37 1477.06 1274.37 1468.33 Q1274.37 1459.58 1277.42 1455 Q1280.5 1450.39 1286.31 1450.39 Z" fill="#000000" fill-rule="evenodd" fill-opacity="1" /><path clip-path="url(#clip440)" d="M1683.4 1481.64 L1699.72 1481.64 L1699.72 1485.58 L1677.77 1485.58 L1677.77 1481.64 Q1680.43 1478.89 1685.02 1474.26 Q1689.62 1469.61 1690.8 1468.27 Q1693.05 1465.74 1693.93 1464.01 Q1694.83 1462.25 1694.83 1460.56 Q1694.83 1457.8 1692.89 1456.07 Q1690.97 1454.33 1687.86 1454.33 Q1685.66 1454.33 1683.21 1455.09 Q1680.78 1455.86 1678 1457.41 L1678 1452.69 Q1680.83 1451.55 1683.28 1450.97 Q1685.73 1450.39 1687.77 1450.39 Q1693.14 1450.39 1696.34 1453.08 Q1699.53 1455.77 1699.53 1460.26 Q1699.53 1462.39 1698.72 1464.31 Q1697.93 1466.2 1695.83 1468.8 Q1695.25 1469.47 1692.15 1472.69 Q1689.04 1475.88 1683.4 1481.64 Z" fill="#000000" fill-rule="evenodd" fill-opacity="1" /><path clip-path="url(#clip440)" d="M2094.18 1455.09 L2082.38 1473.54 L2094.18 1473.54 L2094.18 1455.09 M2092.96 1451.02 L2098.84 1451.02 L2098.84 1473.54 L2103.77 1473.54 L2103.77 1477.43 L2098.84 1477.43 L2098.84 1485.58 L2094.18 1485.58 L2094.18 1477.43 L2078.58 1477.43 L2078.58 1472.92 L2092.96 1451.02 Z" fill="#000000" fill-rule="evenodd" fill-opacity="1" /><path clip-path="url(#clip440)" d="M1304.98 1529.06 Q1304.98 1532.06 1303.46 1537.85 Q1302.85 1540.37 1302.01 1542.65 Q1301.21 1544.91 1300.02 1547.1 Q1298.83 1549.29 1297.44 1550.86 Q1296.06 1552.41 1294.25 1553.38 Q1292.45 1554.34 1290.45 1554.34 Q1287.3 1554.34 1285.43 1552.47 Q1283.59 1550.57 1283.01 1547.32 Q1278.7 1554.34 1272.93 1554.34 Q1269.36 1554.34 1267.68 1551.8 Q1266.01 1549.22 1266.01 1544.91 Q1266.01 1541.27 1266.97 1537.5 Q1268.81 1530.35 1272.38 1525.36 Q1272.87 1524.78 1273.58 1524.78 Q1273.99 1524.78 1274.19 1524.91 Q1274.77 1525.26 1274.77 1525.84 Q1274.77 1526.26 1274.45 1526.68 Q1272.19 1529.8 1270.71 1532.48 Q1269.23 1535.15 1268.55 1537.85 Q1268.04 1540.17 1268.04 1542.14 Q1268.04 1545.45 1269.45 1547.52 Q1270.9 1549.58 1273.77 1549.58 Q1276.41 1549.58 1278.73 1547.93 Q1281.05 1546.26 1282.75 1543.46 Q1282.85 1540.4 1283.59 1537.5 Q1284.27 1534.41 1285.85 1534.41 Q1287.1 1534.41 1287.1 1536.11 Q1287.1 1536.69 1286.84 1537.85 Q1286.14 1540.91 1284.85 1543.65 Q1285.3 1546.32 1286.97 1547.97 Q1288.65 1549.58 1291.32 1549.58 Q1293.8 1549.58 1295.99 1547.77 Q1298.21 1545.97 1299.63 1543.33 Q1301.08 1540.66 1301.89 1537.5 Q1302.14 1536.44 1302.14 1535.08 Q1302.14 1531.48 1299.63 1529.25 Q1298.92 1528.55 1298.92 1527.61 Q1298.92 1526.52 1299.82 1525.52 Q1300.89 1524.46 1302.14 1524.46 Q1303.08 1524.46 1303.66 1525.04 Q1304.98 1526.19 1304.98 1529.06 Z" fill="#000000" fill-rule="evenodd" fill-opacity="1" /><polyline clip-path="url(#clip443)" style="stroke:#000000; stroke-linecap:butt; stroke-linejoin:round; stroke-width:2; stroke-opacity:0.1; fill:none" points="
  219.866,1370.99 2352.76,1370.99 
  "/>
<polyline clip-path="url(#clip443)" style="stroke:#000000; stroke-linecap:butt; stroke-linejoin:round; stroke-width:2; stroke-opacity:0.1; fill:none" points="
  219.866,1035.29 2352.76,1035.29 
  "/>
<polyline clip-path="url(#clip443)" style="stroke:#000000; stroke-linecap:butt; stroke-linejoin:round; stroke-width:2; stroke-opacity:0.1; fill:none" points="
  219.866,699.592 2352.76,699.592 
  "/>
<polyline clip-path="url(#clip443)" style="stroke:#000000; stroke-linecap:butt; stroke-linejoin:round; stroke-width:2; stroke-opacity:0.1; fill:none" points="
  219.866,363.894 2352.76,363.894 
  "/>
<polyline clip-path="url(#clip440)" style="stroke:#000000; stroke-linecap:butt; stroke-linejoin:round; stroke-width:4; stroke-opacity:1; fill:none" points="
  219.866,1423.18 219.866,47.2441 
  "/>
<polyline clip-path="url(#clip440)" style="stroke:#000000; stroke-linecap:butt; stroke-linejoin:round; stroke-width:4; stroke-opacity:1; fill:none" points="
  219.866,1370.99 238.764,1370.99 
  "/>
<polyline clip-path="url(#clip440)" style="stroke:#000000; stroke-linecap:butt; stroke-linejoin:round; stroke-width:4; stroke-opacity:1; fill:none" points="
  219.866,1035.29 238.764,1035.29 
  "/>
<polyline clip-path="url(#clip440)" style="stroke:#000000; stroke-linecap:butt; stroke-linejoin:round; stroke-width:4; stroke-opacity:1; fill:none" points="
  219.866,699.592 238.764,699.592 
  "/>
<polyline clip-path="url(#clip440)" style="stroke:#000000; stroke-linecap:butt; stroke-linejoin:round; stroke-width:4; stroke-opacity:1; fill:none" points="
  219.866,363.894 238.764,363.894 
  "/>
<path clip-path="url(#clip440)" d="M126.691 1356.79 Q123.08 1356.79 121.251 1360.35 Q119.445 1363.89 119.445 1371.02 Q119.445 1378.13 121.251 1381.69 Q123.08 1385.23 126.691 1385.23 Q130.325 1385.23 132.13 1381.69 Q133.959 1378.13 133.959 1371.02 Q133.959 1363.89 132.13 1360.35 Q130.325 1356.79 126.691 1356.79 M126.691 1353.08 Q132.501 1353.08 135.556 1357.69 Q138.635 1362.27 138.635 1371.02 Q138.635 1379.75 135.556 1384.35 Q132.501 1388.94 126.691 1388.94 Q120.88 1388.94 117.802 1384.35 Q114.746 1379.75 114.746 1371.02 Q114.746 1362.27 117.802 1357.69 Q120.88 1353.08 126.691 1353.08 Z" fill="#000000" fill-rule="evenodd" fill-opacity="1" /><path clip-path="url(#clip440)" d="M146.853 1382.39 L151.737 1382.39 L151.737 1388.27 L146.853 1388.27 L146.853 1382.39 Z" fill="#000000" fill-rule="evenodd" fill-opacity="1" /><path clip-path="url(#clip440)" d="M171.922 1356.79 Q168.311 1356.79 166.482 1360.35 Q164.677 1363.89 164.677 1371.02 Q164.677 1378.13 166.482 1381.69 Q168.311 1385.23 171.922 1385.23 Q175.556 1385.23 177.362 1381.69 Q179.19 1378.13 179.19 1371.02 Q179.19 1363.89 177.362 1360.35 Q175.556 1356.79 171.922 1356.79 M171.922 1353.08 Q177.732 1353.08 180.788 1357.69 Q183.866 1362.27 183.866 1371.02 Q183.866 1379.75 180.788 1384.35 Q177.732 1388.94 171.922 1388.94 Q166.112 1388.94 163.033 1384.35 Q159.978 1379.75 159.978 1371.02 Q159.978 1362.27 163.033 1357.69 Q166.112 1353.08 171.922 1353.08 Z" fill="#000000" fill-rule="evenodd" fill-opacity="1" /><path clip-path="url(#clip440)" d="M128.288 1021.09 Q124.677 1021.09 122.848 1024.65 Q121.043 1028.19 121.043 1035.32 Q121.043 1042.43 122.848 1046 Q124.677 1049.54 128.288 1049.54 Q131.922 1049.54 133.728 1046 Q135.556 1042.43 135.556 1035.32 Q135.556 1028.19 133.728 1024.65 Q131.922 1021.09 128.288 1021.09 M128.288 1017.38 Q134.098 1017.38 137.154 1021.99 Q140.232 1026.57 140.232 1035.32 Q140.232 1044.05 137.154 1048.66 Q134.098 1053.24 128.288 1053.24 Q122.478 1053.24 119.399 1048.66 Q116.343 1044.05 116.343 1035.32 Q116.343 1026.57 119.399 1021.99 Q122.478 1017.38 128.288 1017.38 Z" fill="#000000" fill-rule="evenodd" fill-opacity="1" /><path clip-path="url(#clip440)" d="M148.45 1046.69 L153.334 1046.69 L153.334 1052.57 L148.45 1052.57 L148.45 1046.69 Z" fill="#000000" fill-rule="evenodd" fill-opacity="1" /><path clip-path="url(#clip440)" d="M167.547 1048.63 L183.866 1048.63 L183.866 1052.57 L161.922 1052.57 L161.922 1048.63 Q164.584 1045.88 169.167 1041.25 Q173.774 1036.6 174.954 1035.25 Q177.2 1032.73 178.079 1031 Q178.982 1029.24 178.982 1027.55 Q178.982 1024.79 177.038 1023.06 Q175.116 1021.32 172.014 1021.32 Q169.815 1021.32 167.362 1022.08 Q164.931 1022.85 162.153 1024.4 L162.153 1019.68 Q164.977 1018.54 167.431 1017.96 Q169.885 1017.38 171.922 1017.38 Q177.292 1017.38 180.487 1020.07 Q183.681 1022.75 183.681 1027.25 Q183.681 1029.38 182.871 1031.3 Q182.084 1033.19 179.977 1035.79 Q179.399 1036.46 176.297 1039.68 Q173.195 1042.87 167.547 1048.63 Z" fill="#000000" fill-rule="evenodd" fill-opacity="1" /><path clip-path="url(#clip440)" d="M126.205 685.391 Q122.593 685.391 120.765 688.955 Q118.959 692.497 118.959 699.627 Q118.959 706.733 120.765 710.298 Q122.593 713.839 126.205 713.839 Q129.839 713.839 131.644 710.298 Q133.473 706.733 133.473 699.627 Q133.473 692.497 131.644 688.955 Q129.839 685.391 126.205 685.391 M126.205 681.687 Q132.015 681.687 135.07 686.293 Q138.149 690.877 138.149 699.627 Q138.149 708.353 135.07 712.96 Q132.015 717.543 126.205 717.543 Q120.394 717.543 117.316 712.96 Q114.26 708.353 114.26 699.627 Q114.26 690.877 117.316 686.293 Q120.394 681.687 126.205 681.687 Z" fill="#000000" fill-rule="evenodd" fill-opacity="1" /><path clip-path="url(#clip440)" d="M146.366 710.992 L151.251 710.992 L151.251 716.872 L146.366 716.872 L146.366 710.992 Z" fill="#000000" fill-rule="evenodd" fill-opacity="1" /><path clip-path="url(#clip440)" d="M174.283 686.386 L162.477 704.835 L174.283 704.835 L174.283 686.386 M173.056 682.312 L178.936 682.312 L178.936 704.835 L183.866 704.835 L183.866 708.724 L178.936 708.724 L178.936 716.872 L174.283 716.872 L174.283 708.724 L158.681 708.724 L158.681 704.21 L173.056 682.312 Z" fill="#000000" fill-rule="evenodd" fill-opacity="1" /><path clip-path="url(#clip440)" d="M126.529 349.693 Q122.918 349.693 121.089 353.258 Q119.283 356.799 119.283 363.929 Q119.283 371.036 121.089 374.6 Q122.918 378.142 126.529 378.142 Q130.163 378.142 131.968 374.6 Q133.797 371.036 133.797 363.929 Q133.797 356.799 131.968 353.258 Q130.163 349.693 126.529 349.693 M126.529 345.989 Q132.339 345.989 135.394 350.596 Q138.473 355.179 138.473 363.929 Q138.473 372.656 135.394 377.262 Q132.339 381.846 126.529 381.846 Q120.718 381.846 117.64 377.262 Q114.584 372.656 114.584 363.929 Q114.584 355.179 117.64 350.596 Q120.718 345.989 126.529 345.989 Z" fill="#000000" fill-rule="evenodd" fill-opacity="1" /><path clip-path="url(#clip440)" d="M146.691 375.295 L151.575 375.295 L151.575 381.174 L146.691 381.174 L146.691 375.295 Z" fill="#000000" fill-rule="evenodd" fill-opacity="1" /><path clip-path="url(#clip440)" d="M172.339 362.031 Q169.19 362.031 167.339 364.184 Q165.51 366.336 165.51 370.086 Q165.51 373.813 167.339 375.989 Q169.19 378.142 172.339 378.142 Q175.487 378.142 177.315 375.989 Q179.167 373.813 179.167 370.086 Q179.167 366.336 177.315 364.184 Q175.487 362.031 172.339 362.031 M181.621 347.378 L181.621 351.637 Q179.862 350.804 178.056 350.364 Q176.274 349.925 174.514 349.925 Q169.885 349.925 167.431 353.049 Q165.001 356.174 164.653 362.494 Q166.019 360.48 168.079 359.415 Q170.139 358.327 172.616 358.327 Q177.825 358.327 180.834 361.499 Q183.866 364.647 183.866 370.086 Q183.866 375.41 180.718 378.628 Q177.57 381.846 172.339 381.846 Q166.343 381.846 163.172 377.262 Q160.001 372.656 160.001 363.929 Q160.001 355.735 163.89 350.874 Q167.778 345.989 174.329 345.989 Q176.089 345.989 177.871 346.337 Q179.676 346.684 181.621 347.378 Z" fill="#000000" fill-rule="evenodd" fill-opacity="1" /><path clip-path="url(#clip440)" d="M47.6945 768.686 Q52.461 768.686 56.9376 771.134 Q61.4142 773.549 64.1195 777.349 Q66.8248 781.117 66.8248 784.918 Q66.8248 789.201 62.3804 791.423 Q78.5156 795.449 78.9342 795.675 Q80.3191 796.608 80.3191 797.961 Q80.3191 798.798 79.8038 799.314 Q79.3207 799.829 78.5478 799.829 Q78.2901 799.797 77.485 799.604 L51.5593 793.162 Q45.5368 791.681 41.2534 787.204 Q36.9378 782.696 36.9378 777.865 Q36.9378 774.032 39.8041 771.359 Q42.6704 768.686 47.6945 768.686 M44.8604 773.42 Q41.6398 773.42 40.0296 774.709 Q38.3871 775.997 38.3871 777.993 Q38.3871 779.829 39.8685 782.051 Q41.35 784.241 44.635 786.174 Q46.5351 787.204 48.8862 787.945 Q51.2372 788.686 57.0342 790.135 Q59.3531 790.65 59.4819 790.65 Q59.7395 790.65 60.3192 790.522 Q60.899 790.361 61.8007 789.974 Q62.6703 789.555 63.4432 788.976 Q64.2162 788.396 64.7959 787.333 Q65.3434 786.27 65.3434 784.982 Q65.3434 782.985 63.7331 780.86 Q62.0906 778.702 59.0954 777.124 Q56.68 775.804 52.139 774.612 Q47.5657 773.42 44.8604 773.42 Z" fill="#000000" fill-rule="evenodd" fill-opacity="1" /><path clip-path="url(#clip440)" d="M49.5947 761.856 Q38.4515 761.856 29.466 757.702 Q25.6979 755.931 22.5418 753.451 Q19.3856 750.971 18.0007 749.328 Q16.6159 747.686 16.6159 747.235 Q16.6159 746.591 17.26 746.559 Q17.5821 746.559 18.3872 747.428 Q29.2084 758.056 49.5947 758.024 Q70.0454 758.024 80.4479 747.686 Q81.5751 746.559 81.9294 746.559 Q82.5735 746.559 82.5735 747.235 Q82.5735 747.686 81.2531 749.264 Q79.9326 750.842 76.9053 753.29 Q73.8779 755.737 70.1742 757.509 Q61.1888 761.856 49.5947 761.856 Z" fill="#000000" fill-rule="evenodd" fill-opacity="1" /><path clip-path="url(#clip440)" d="M41.5432 703.896 Q44.5384 703.896 50.3354 705.41 Q52.8475 706.022 55.1341 706.859 Q57.3885 707.664 59.5785 708.856 Q61.7685 710.047 63.3466 711.432 Q64.8925 712.817 65.8587 714.621 Q66.8248 716.424 66.8248 718.421 Q66.8248 721.577 64.9569 723.445 Q63.0567 725.281 59.804 725.86 Q66.8248 730.176 66.8248 735.941 Q66.8248 739.516 64.2806 741.19 Q61.7041 742.865 57.3885 742.865 Q53.7493 742.865 49.9812 741.899 Q42.8315 740.063 37.8396 736.488 Q37.2598 736.005 37.2598 735.297 Q37.2598 734.878 37.3887 734.685 Q37.7429 734.105 38.3226 734.105 Q38.7413 734.105 39.16 734.427 Q42.284 736.682 44.957 738.163 Q47.6301 739.644 50.3354 740.321 Q52.6543 740.836 54.6188 740.836 Q57.936 740.836 59.9972 739.419 Q62.0584 737.97 62.0584 735.103 Q62.0584 732.463 60.4159 730.144 Q58.7412 727.825 55.9392 726.118 Q52.8797 726.021 49.9812 725.281 Q46.8894 724.604 46.8894 723.026 Q46.8894 721.77 48.5963 721.77 Q49.176 721.77 50.3354 722.028 Q53.395 722.736 56.1325 724.025 Q58.8056 723.574 60.4481 721.899 Q62.0584 720.224 62.0584 717.551 Q62.0584 715.071 60.2548 712.881 Q58.4513 710.659 55.8104 709.242 Q53.1373 707.793 49.9812 706.988 Q48.9184 706.73 47.5657 706.73 Q43.9587 706.73 41.7365 709.242 Q41.0279 709.951 40.094 709.951 Q38.999 709.951 38.0006 709.049 Q36.9378 707.986 36.9378 706.73 Q36.9378 705.796 37.5175 705.216 Q38.6769 703.896 41.5432 703.896 Z" fill="#000000" fill-rule="evenodd" fill-opacity="1" /><path clip-path="url(#clip440)" d="M81.9294 695.922 Q81.6073 695.922 80.8022 695.085 Q69.981 684.457 49.5947 684.457 Q29.144 684.457 18.8059 694.666 Q17.6143 695.922 17.26 695.922 Q16.6159 695.922 16.6159 695.278 Q16.6159 694.827 17.9363 693.249 Q19.2568 691.639 22.2841 689.223 Q25.3115 686.776 29.0151 684.972 Q38.0006 680.624 49.5947 680.624 Q60.7379 680.624 69.7234 684.779 Q73.4914 686.55 76.6476 689.03 Q79.8038 691.51 81.1886 693.153 Q82.5735 694.795 82.5735 695.278 Q82.5735 695.922 81.9294 695.922 Z" fill="#000000" fill-rule="evenodd" fill-opacity="1" /><polyline clip-path="url(#clip443)" style="stroke:#009af9; stroke-linecap:butt; stroke-linejoin:round; stroke-width:4; stroke-opacity:1; fill:none" points="
  280.231,1379.85 282.245,1379.82 284.259,1379.79 286.274,1379.75 288.288,1379.71 290.302,1379.66 292.316,1379.6 294.33,1379.55 296.344,1379.48 298.359,1379.42 
  300.373,1379.34 302.387,1379.26 304.401,1379.18 306.415,1379.09 308.43,1379 310.444,1378.9 312.458,1378.8 314.472,1378.69 316.486,1378.58 318.5,1378.47 
  320.515,1378.34 322.529,1378.22 324.543,1378.09 326.557,1377.95 328.571,1377.81 330.585,1377.67 332.6,1377.52 334.614,1377.36 336.628,1377.2 338.642,1377.04 
  340.656,1376.88 342.67,1376.7 344.685,1376.53 346.699,1376.35 348.713,1376.17 350.727,1375.98 352.741,1375.79 354.756,1375.59 356.77,1375.39 358.784,1375.19 
  360.798,1374.98 362.812,1374.77 364.826,1374.56 366.841,1374.34 368.855,1374.13 370.869,1373.9 372.883,1373.68 374.897,1373.45 376.911,1373.22 378.926,1372.98 
  380.94,1372.75 382.954,1372.51 384.968,1372.27 386.982,1372.03 388.996,1371.78 391.011,1371.53 393.025,1371.29 395.039,1371.03 397.053,1370.78 399.067,1370.53 
  401.082,1370.28 403.096,1370.02 405.11,1369.76 407.124,1369.51 409.138,1369.25 411.152,1368.99 413.167,1368.74 415.181,1368.48 417.195,1368.22 419.209,1367.96 
  421.223,1367.7 423.237,1367.45 425.252,1367.19 427.266,1366.94 429.28,1366.68 431.294,1366.43 433.308,1366.18 435.322,1365.93 437.337,1365.68 439.351,1365.44 
  441.365,1365.19 443.379,1364.95 445.393,1364.71 447.408,1364.48 449.422,1364.24 451.436,1364.01 453.45,1363.79 455.464,1363.56 457.478,1363.34 459.493,1363.13 
  461.507,1362.92 463.521,1362.71 465.535,1362.51 467.549,1362.31 469.563,1362.11 471.578,1361.93 473.592,1361.74 475.606,1361.56 477.62,1361.39 479.634,1361.22 
  481.648,1361.06 483.663,1360.91 485.677,1360.76 487.691,1360.61 489.705,1360.48 491.719,1360.35 493.734,1360.23 495.748,1360.11 497.762,1360 499.776,1359.9 
  501.79,1359.81 503.804,1359.72 505.819,1359.64 507.833,1359.57 509.847,1359.51 511.861,1359.45 513.875,1359.41 515.889,1359.37 517.904,1359.34 519.918,1359.32 
  521.932,1359.31 523.946,1359.31 525.96,1359.31 527.974,1359.33 529.989,1359.35 532.003,1359.39 534.017,1359.43 536.031,1359.48 538.045,1359.54 540.06,1359.62 
  542.074,1359.7 544.088,1359.79 546.102,1359.89 548.116,1360 550.13,1360.12 552.145,1360.25 554.159,1360.38 556.173,1360.53 558.187,1360.69 560.201,1360.86 
  562.215,1361.04 564.23,1361.22 566.244,1361.42 568.258,1361.63 570.272,1361.84 572.286,1362.07 574.301,1362.3 576.315,1362.54 578.329,1362.8 580.343,1363.06 
  582.357,1363.33 584.371,1363.6 586.386,1363.89 588.4,1364.19 590.414,1364.49 592.428,1364.8 594.442,1365.12 596.456,1365.45 598.471,1365.78 600.485,1366.12 
  602.499,1366.47 604.513,1366.83 606.527,1367.19 608.541,1367.55 610.556,1367.93 612.57,1368.31 614.584,1368.69 616.598,1369.08 618.612,1369.47 620.627,1369.87 
  622.641,1370.27 624.655,1370.67 626.669,1371.08 628.683,1371.49 630.697,1371.9 632.712,1372.32 634.726,1372.73 636.74,1373.15 638.754,1373.57 640.768,1373.99 
  642.782,1374.4 644.797,1374.82 646.811,1375.23 648.825,1375.65 650.839,1376.06 652.853,1376.47 654.867,1376.87 656.882,1377.27 658.896,1377.66 660.91,1378.05 
  662.924,1378.44 664.938,1378.82 666.953,1379.19 668.967,1379.55 670.981,1379.9 672.995,1380.25 675.009,1380.58 677.023,1380.91 679.038,1381.23 681.052,1381.53 
  683.066,1381.82 685.08,1382.1 687.094,1382.36 689.108,1382.61 691.123,1382.85 693.137,1383.07 695.151,1383.27 697.165,1383.46 699.179,1383.62 701.193,1383.77 
  703.208,1383.9 705.222,1384.01 707.236,1384.1 709.25,1384.17 711.264,1384.22 713.279,1384.24 715.293,1384.24 717.307,1384.21 719.321,1384.16 721.335,1384.08 
  723.349,1383.98 725.364,1383.85 727.378,1383.69 729.392,1383.5 731.406,1383.28 733.42,1383.03 735.434,1382.75 737.449,1382.44 739.463,1382.1 741.477,1381.72 
  743.491,1381.31 745.505,1380.87 747.519,1380.39 749.534,1379.87 751.548,1379.32 753.562,1378.73 755.576,1378.11 757.59,1377.44 759.605,1376.74 761.619,1376 
  763.633,1375.21 765.647,1374.39 767.661,1373.53 769.675,1372.62 771.69,1371.68 773.704,1370.69 775.718,1369.66 777.732,1368.58 779.746,1367.46 781.76,1366.3 
  783.775,1365.1 785.789,1363.85 787.803,1362.55 789.817,1361.21 791.831,1359.82 793.845,1358.39 795.86,1356.92 797.874,1355.39 799.888,1353.82 801.902,1352.21 
  803.916,1350.55 805.931,1348.84 807.945,1347.08 809.959,1345.28 811.973,1343.44 813.987,1341.54 816.001,1339.6 818.016,1337.62 820.03,1335.59 822.044,1333.51 
  824.058,1331.39 826.072,1329.22 828.086,1327.01 830.101,1324.75 832.115,1322.45 834.129,1320.1 836.143,1317.71 838.157,1315.28 840.171,1312.8 842.186,1310.29 
  844.2,1307.73 846.214,1305.12 848.228,1302.48 850.242,1299.8 852.257,1297.08 854.271,1294.32 856.285,1291.52 858.299,1288.69 860.313,1285.82 862.327,1282.91 
  864.342,1279.96 866.356,1276.98 868.37,1273.97 870.384,1270.93 872.398,1267.85 874.412,1264.74 876.427,1261.6 878.441,1258.43 880.455,1255.24 882.469,1252.01 
  884.483,1248.76 886.498,1245.48 888.512,1242.18 890.526,1238.85 892.54,1235.5 894.554,1232.12 896.568,1228.72 898.583,1225.31 900.597,1221.87 902.611,1218.42 
  904.625,1214.94 906.639,1211.45 908.653,1207.94 910.668,1204.42 912.682,1200.88 914.696,1197.33 916.71,1193.76 918.724,1190.18 920.738,1186.59 922.753,1182.99 
  924.767,1179.38 926.781,1175.75 928.795,1172.12 930.809,1168.48 932.824,1164.83 934.838,1161.17 936.852,1157.51 938.866,1153.84 940.88,1150.16 942.894,1146.47 
  944.909,1142.78 946.923,1139.08 948.937,1135.38 950.951,1131.67 952.965,1127.96 954.979,1124.24 956.994,1120.52 959.008,1116.79 961.022,1113.05 963.036,1109.31 
  965.05,1105.57 967.064,1101.82 969.079,1098.06 971.093,1094.3 973.107,1090.53 975.121,1086.75 977.135,1082.97 979.15,1079.18 981.164,1075.38 983.178,1071.57 
  985.192,1067.76 987.206,1063.94 989.22,1060.1 991.235,1056.26 993.249,1052.41 995.263,1048.55 997.277,1044.68 999.291,1040.79 1001.31,1036.9 1003.32,1032.99 
  1005.33,1029.08 1007.35,1025.15 1009.36,1021.21 1011.38,1017.26 1013.39,1013.3 1015.4,1009.32 1017.42,1005.34 1019.43,1001.35 1021.45,997.344 1023.46,993.333 
  1025.48,989.314 1027.49,985.289 1029.5,981.258 1031.52,977.224 1033.53,973.188 1035.55,969.151 1037.56,965.117 1039.57,961.087 1041.59,957.064 1043.6,953.051 
  1045.62,949.051 1047.63,945.067 1049.65,941.103 1051.66,937.164 1053.67,933.253 1055.69,929.375 1057.7,925.536 1059.72,921.74 1061.73,917.993 1063.74,914.302 
  1065.76,910.672 1067.77,907.111 1069.79,903.625 1071.8,900.222 1073.82,896.911 1075.83,893.699 1077.84,890.594 1079.86,887.607 1081.87,884.745 1083.89,882.019 
  1085.9,879.439 1087.91,877.014 1089.93,874.757 1091.94,872.676 1093.96,870.784 1095.97,869.091 1097.99,867.61 1100,866.351 1102.01,865.327 1104.03,864.549 
  1106.04,864.029 1108.06,863.779 1110.07,863.811 1112.09,864.137 1114.1,864.767 1116.11,865.713 1118.13,866.985 1120.14,868.595 1122.16,870.552 1124.17,872.866 
  1126.18,875.545 1128.2,878.596 1130.21,882.028 1132.23,885.846 1134.24,890.055 1136.26,894.659 1138.27,899.659 1140.28,905.059 1142.3,910.855 1144.31,917.047 
  1146.33,923.629 1148.34,930.596 1150.35,937.939 1152.37,945.647 1154.38,953.708 1156.4,962.104 1158.41,970.818 1160.43,979.828 1162.44,989.108 1164.45,998.632 
  1166.47,1008.37 1168.48,1018.28 1170.5,1028.33 1172.51,1038.47 1174.52,1048.66 1176.54,1058.85 1178.55,1068.99 1180.57,1079 1182.58,1088.83 1184.6,1098.42 
  1186.61,1107.68 1188.62,1116.55 1190.64,1124.93 1192.65,1132.74 1194.67,1139.9 1196.68,1146.31 1198.69,1151.86 1200.71,1156.46 1202.72,1159.99 1204.74,1162.36 
  1206.75,1163.45 1208.77,1163.15 1210.78,1161.34 1212.79,1157.91 1214.81,1152.75 1216.82,1145.74 1218.84,1136.77 1220.85,1125.74 1222.86,1112.56 1224.88,1097.14 
  1226.89,1079.38 1228.91,1059.24 1230.92,1036.65 1232.94,1011.57 1234.95,984.007 1236.96,953.953 1238.98,921.445 1240.99,886.547 1243.01,849.353 1245.02,809.994 
  1247.03,768.636 1249.05,725.486 1251.06,680.795 1253.08,634.851 1255.09,587.991 1257.11,540.588 1259.12,493.059 1261.13,445.856 1263.15,399.462 1265.16,354.385 
  1267.18,311.15 1269.19,270.29 1271.2,232.334 1273.22,197.798 1275.23,167.166 1277.25,140.888 1279.26,119.357 1281.28,102.904 1283.29,91.7885 1285.3,86.1857 
  1287.32,86.1857 1289.33,91.7885 1291.35,102.904 1293.36,119.357 1295.37,140.888 1297.39,167.166 1299.4,197.798 1301.42,232.334 1303.43,270.29 1305.45,311.15 
  1307.46,354.385 1309.47,399.462 1311.49,445.856 1313.5,493.059 1315.52,540.588 1317.53,587.991 1319.54,634.851 1321.56,680.795 1323.57,725.486 1325.59,768.636 
  1327.6,809.994 1329.62,849.353 1331.63,886.547 1333.64,921.445 1335.66,953.953 1337.67,984.007 1339.69,1011.57 1341.7,1036.65 1343.72,1059.24 1345.73,1079.38 
  1347.74,1097.14 1349.76,1112.56 1351.77,1125.74 1353.79,1136.77 1355.8,1145.74 1357.81,1152.75 1359.83,1157.91 1361.84,1161.34 1363.86,1163.15 1365.87,1163.45 
  1367.89,1162.36 1369.9,1159.99 1371.91,1156.46 1373.93,1151.86 1375.94,1146.31 1377.96,1139.9 1379.97,1132.74 1381.98,1124.93 1384,1116.55 1386.01,1107.68 
  1388.03,1098.42 1390.04,1088.83 1392.06,1079 1394.07,1068.99 1396.08,1058.85 1398.1,1048.66 1400.11,1038.47 1402.13,1028.33 1404.14,1018.28 1406.15,1008.37 
  1408.17,998.632 1410.18,989.108 1412.2,979.828 1414.21,970.818 1416.23,962.104 1418.24,953.708 1420.25,945.647 1422.27,937.939 1424.28,930.596 1426.3,923.629 
  1428.31,917.047 1430.32,910.855 1432.34,905.059 1434.35,899.659 1436.37,894.659 1438.38,890.055 1440.4,885.846 1442.41,882.028 1444.42,878.596 1446.44,875.545 
  1448.45,872.866 1450.47,870.552 1452.48,868.595 1454.49,866.985 1456.51,865.713 1458.52,864.767 1460.54,864.137 1462.55,863.811 1464.57,863.779 1466.58,864.029 
  1468.59,864.549 1470.61,865.327 1472.62,866.351 1474.64,867.61 1476.65,869.091 1478.66,870.784 1480.68,872.676 1482.69,874.757 1484.71,877.014 1486.72,879.439 
  1488.74,882.019 1490.75,884.745 1492.76,887.607 1494.78,890.594 1496.79,893.699 1498.81,896.911 1500.82,900.222 1502.83,903.625 1504.85,907.111 1506.86,910.672 
  1508.88,914.302 1510.89,917.993 1512.91,921.74 1514.92,925.536 1516.93,929.375 1518.95,933.253 1520.96,937.164 1522.98,941.103 1524.99,945.067 1527,949.051 
  1529.02,953.051 1531.03,957.064 1533.05,961.087 1535.06,965.117 1537.08,969.151 1539.09,973.188 1541.1,977.224 1543.12,981.258 1545.13,985.289 1547.15,989.314 
  1549.16,993.333 1551.17,997.344 1553.19,1001.35 1555.2,1005.34 1557.22,1009.32 1559.23,1013.3 1561.25,1017.26 1563.26,1021.21 1565.27,1025.15 1567.29,1029.08 
  1569.3,1032.99 1571.32,1036.9 1573.33,1040.79 1575.35,1044.68 1577.36,1048.55 1579.37,1052.41 1581.39,1056.26 1583.4,1060.1 1585.42,1063.94 1587.43,1067.76 
  1589.44,1071.57 1591.46,1075.38 1593.47,1079.18 1595.49,1082.97 1597.5,1086.75 1599.52,1090.53 1601.53,1094.3 1603.54,1098.06 1605.56,1101.82 1607.57,1105.57 
  1609.59,1109.31 1611.6,1113.05 1613.61,1116.79 1615.63,1120.52 1617.64,1124.24 1619.66,1127.96 1621.67,1131.67 1623.69,1135.38 1625.7,1139.08 1627.71,1142.78 
  1629.73,1146.47 1631.74,1150.16 1633.76,1153.84 1635.77,1157.51 1637.78,1161.17 1639.8,1164.83 1641.81,1168.48 1643.83,1172.12 1645.84,1175.75 1647.86,1179.38 
  1649.87,1182.99 1651.88,1186.59 1653.9,1190.18 1655.91,1193.76 1657.93,1197.33 1659.94,1200.88 1661.95,1204.42 1663.97,1207.94 1665.98,1211.45 1668,1214.94 
  1670.01,1218.42 1672.03,1221.87 1674.04,1225.31 1676.05,1228.72 1678.07,1232.12 1680.08,1235.5 1682.1,1238.85 1684.11,1242.18 1686.12,1245.48 1688.14,1248.76 
  1690.15,1252.01 1692.17,1255.24 1694.18,1258.43 1696.2,1261.6 1698.21,1264.74 1700.22,1267.85 1702.24,1270.93 1704.25,1273.97 1706.27,1276.98 1708.28,1279.96 
  1710.29,1282.91 1712.31,1285.82 1714.32,1288.69 1716.34,1291.52 1718.35,1294.32 1720.37,1297.08 1722.38,1299.8 1724.39,1302.48 1726.41,1305.12 1728.42,1307.73 
  1730.44,1310.29 1732.45,1312.8 1734.46,1315.28 1736.48,1317.71 1738.49,1320.1 1740.51,1322.45 1742.52,1324.75 1744.54,1327.01 1746.55,1329.22 1748.56,1331.39 
  1750.58,1333.51 1752.59,1335.59 1754.61,1337.62 1756.62,1339.6 1758.63,1341.54 1760.65,1343.44 1762.66,1345.28 1764.68,1347.08 1766.69,1348.84 1768.71,1350.55 
  1770.72,1352.21 1772.73,1353.82 1774.75,1355.39 1776.76,1356.92 1778.78,1358.39 1780.79,1359.82 1782.81,1361.21 1784.82,1362.55 1786.83,1363.85 1788.85,1365.1 
  1790.86,1366.3 1792.88,1367.46 1794.89,1368.58 1796.9,1369.66 1798.92,1370.69 1800.93,1371.68 1802.95,1372.62 1804.96,1373.53 1806.98,1374.39 1808.99,1375.21 
  1811,1376 1813.02,1376.74 1815.03,1377.44 1817.05,1378.11 1819.06,1378.73 1821.07,1379.32 1823.09,1379.87 1825.1,1380.39 1827.12,1380.87 1829.13,1381.31 
  1831.15,1381.72 1833.16,1382.1 1835.17,1382.44 1837.19,1382.75 1839.2,1383.03 1841.22,1383.28 1843.23,1383.5 1845.24,1383.69 1847.26,1383.85 1849.27,1383.98 
  1851.29,1384.08 1853.3,1384.16 1855.32,1384.21 1857.33,1384.24 1859.34,1384.24 1861.36,1384.22 1863.37,1384.17 1865.39,1384.1 1867.4,1384.01 1869.41,1383.9 
  1871.43,1383.77 1873.44,1383.62 1875.46,1383.46 1877.47,1383.27 1879.49,1383.07 1881.5,1382.85 1883.51,1382.61 1885.53,1382.36 1887.54,1382.1 1889.56,1381.82 
  1891.57,1381.53 1893.58,1381.23 1895.6,1380.91 1897.61,1380.58 1899.63,1380.25 1901.64,1379.9 1903.66,1379.55 1905.67,1379.19 1907.68,1378.82 1909.7,1378.44 
  1911.71,1378.05 1913.73,1377.66 1915.74,1377.27 1917.75,1376.87 1919.77,1376.47 1921.78,1376.06 1923.8,1375.65 1925.81,1375.23 1927.83,1374.82 1929.84,1374.4 
  1931.85,1373.99 1933.87,1373.57 1935.88,1373.15 1937.9,1372.73 1939.91,1372.32 1941.92,1371.9 1943.94,1371.49 1945.95,1371.08 1947.97,1370.67 1949.98,1370.27 
  1952,1369.87 1954.01,1369.47 1956.02,1369.08 1958.04,1368.69 1960.05,1368.31 1962.07,1367.93 1964.08,1367.55 1966.09,1367.19 1968.11,1366.83 1970.12,1366.47 
  1972.14,1366.12 1974.15,1365.78 1976.17,1365.45 1978.18,1365.12 1980.19,1364.8 1982.21,1364.49 1984.22,1364.19 1986.24,1363.89 1988.25,1363.6 1990.26,1363.33 
  1992.28,1363.06 1994.29,1362.8 1996.31,1362.54 1998.32,1362.3 2000.34,1362.07 2002.35,1361.84 2004.36,1361.63 2006.38,1361.42 2008.39,1361.22 2010.41,1361.04 
  2012.42,1360.86 2014.44,1360.69 2016.45,1360.53 2018.46,1360.38 2020.48,1360.25 2022.49,1360.12 2024.51,1360 2026.52,1359.89 2028.53,1359.79 2030.55,1359.7 
  2032.56,1359.62 2034.58,1359.54 2036.59,1359.48 2038.61,1359.43 2040.62,1359.39 2042.63,1359.35 2044.65,1359.33 2046.66,1359.31 2048.68,1359.31 2050.69,1359.31 
  2052.7,1359.32 2054.72,1359.34 2056.73,1359.37 2058.75,1359.41 2060.76,1359.45 2062.78,1359.51 2064.79,1359.57 2066.8,1359.64 2068.82,1359.72 2070.83,1359.81 
  2072.85,1359.9 2074.86,1360 2076.87,1360.11 2078.89,1360.23 2080.9,1360.35 2082.92,1360.48 2084.93,1360.61 2086.95,1360.76 2088.96,1360.91 2090.97,1361.06 
  2092.99,1361.22 2095,1361.39 2097.02,1361.56 2099.03,1361.74 2101.04,1361.93 2103.06,1362.11 2105.07,1362.31 2107.09,1362.51 2109.1,1362.71 2111.12,1362.92 
  2113.13,1363.13 2115.14,1363.34 2117.16,1363.56 2119.17,1363.79 2121.19,1364.01 2123.2,1364.24 2125.21,1364.48 2127.23,1364.71 2129.24,1364.95 2131.26,1365.19 
  2133.27,1365.44 2135.29,1365.68 2137.3,1365.93 2139.31,1366.18 2141.33,1366.43 2143.34,1366.68 2145.36,1366.94 2147.37,1367.19 2149.38,1367.45 2151.4,1367.7 
  2153.41,1367.96 2155.43,1368.22 2157.44,1368.48 2159.46,1368.74 2161.47,1368.99 2163.48,1369.25 2165.5,1369.51 2167.51,1369.76 2169.53,1370.02 2171.54,1370.28 
  2173.55,1370.53 2175.57,1370.78 2177.58,1371.03 2179.6,1371.29 2181.61,1371.53 2183.63,1371.78 2185.64,1372.03 2187.65,1372.27 2189.67,1372.51 2191.68,1372.75 
  2193.7,1372.98 2195.71,1373.22 2197.72,1373.45 2199.74,1373.68 2201.75,1373.9 2203.77,1374.13 2205.78,1374.34 2207.8,1374.56 2209.81,1374.77 2211.82,1374.98 
  2213.84,1375.19 2215.85,1375.39 2217.87,1375.59 2219.88,1375.79 2221.9,1375.98 2223.91,1376.17 2225.92,1376.35 2227.94,1376.53 2229.95,1376.7 2231.97,1376.88 
  2233.98,1377.04 2235.99,1377.2 2238.01,1377.36 2240.02,1377.52 2242.04,1377.67 2244.05,1377.81 2246.07,1377.95 2248.08,1378.09 2250.09,1378.22 2252.11,1378.34 
  2254.12,1378.47 2256.14,1378.58 2258.15,1378.69 2260.16,1378.8 2262.18,1378.9 2264.19,1379 2266.21,1379.09 2268.22,1379.18 2270.24,1379.26 2272.25,1379.34 
  2274.26,1379.42 2276.28,1379.48 2278.29,1379.55 2280.31,1379.6 2282.32,1379.66 2284.33,1379.71 2286.35,1379.75 2288.36,1379.79 2290.38,1379.82 2292.39,1379.85 
  
  "/>
</svg>
