<?xml version="1.0" encoding="utf-8"?>
<svg xmlns="http://www.w3.org/2000/svg" xmlns:xlink="http://www.w3.org/1999/xlink" width="600" height="400" viewBox="0 0 2400 1600">
<defs>
  <clipPath id="clip220">
    <rect x="0" y="0" width="2400" height="1600"/>
  </clipPath>
</defs>
<path clip-path="url(#clip220)" d="
M0 1600 L2400 1600 L2400 0 L0 0  Z
  " fill="#ffffff" fill-rule="evenodd" fill-opacity="1"/>
<defs>
  <clipPath id="clip221">
    <rect x="480" y="0" width="1681" height="1600"/>
  </clipPath>
</defs>
<defs>
  <clipPath id="clip222">
    <rect x="219" y="47" width="2134" height="1377"/>
  </clipPath>
</defs>
<path clip-path="url(#clip220)" d="
M257.69 1423.18 L2352.76 1423.18 L2352.76 47.2441 L257.69 47.2441  Z
  " fill="#ffffff" fill-rule="evenodd" fill-opacity="1"/>
<defs>
  <clipPath id="clip223">
    <rect x="257" y="47" width="2096" height="1377"/>
  </clipPath>
</defs>
<polyline clip-path="url(#clip223)" style="stroke:#000000; stroke-linecap:butt; stroke-linejoin:round; stroke-width:2; stroke-opacity:0.1; fill:none" points="
  316.984,1423.18 316.984,47.2441 
  "/>
<polyline clip-path="url(#clip223)" style="stroke:#000000; stroke-linecap:butt; stroke-linejoin:round; stroke-width:2; stroke-opacity:0.1; fill:none" points="
  811.104,1423.18 811.104,47.2441 
  "/>
<polyline clip-path="url(#clip223)" style="stroke:#000000; stroke-linecap:butt; stroke-linejoin:round; stroke-width:2; stroke-opacity:0.1; fill:none" points="
  1305.22,1423.18 1305.22,47.2441 
  "/>
<polyline clip-path="url(#clip223)" style="stroke:#000000; stroke-linecap:butt; stroke-linejoin:round; stroke-width:2; stroke-opacity:0.1; fill:none" points="
  1799.34,1423.18 1799.34,47.2441 
  "/>
<polyline clip-path="url(#clip223)" style="stroke:#000000; stroke-linecap:butt; stroke-linejoin:round; stroke-width:2; stroke-opacity:0.1; fill:none" points="
  2293.46,1423.18 2293.46,47.2441 
  "/>
<polyline clip-path="url(#clip220)" style="stroke:#000000; stroke-linecap:butt; stroke-linejoin:round; stroke-width:4; stroke-opacity:1; fill:none" points="
  257.69,1423.18 2352.76,1423.18 
  "/>
<polyline clip-path="url(#clip220)" style="stroke:#000000; stroke-linecap:butt; stroke-linejoin:round; stroke-width:4; stroke-opacity:1; fill:none" points="
  316.984,1423.18 316.984,1404.28 
  "/>
<polyline clip-path="url(#clip220)" style="stroke:#000000; stroke-linecap:butt; stroke-linejoin:round; stroke-width:4; stroke-opacity:1; fill:none" points="
  811.104,1423.18 811.104,1404.28 
  "/>
<polyline clip-path="url(#clip220)" style="stroke:#000000; stroke-linecap:butt; stroke-linejoin:round; stroke-width:4; stroke-opacity:1; fill:none" points="
  1305.22,1423.18 1305.22,1404.28 
  "/>
<polyline clip-path="url(#clip220)" style="stroke:#000000; stroke-linecap:butt; stroke-linejoin:round; stroke-width:4; stroke-opacity:1; fill:none" points="
  1799.34,1423.18 1799.34,1404.28 
  "/>
<polyline clip-path="url(#clip220)" style="stroke:#000000; stroke-linecap:butt; stroke-linejoin:round; stroke-width:4; stroke-opacity:1; fill:none" points="
  2293.46,1423.18 2293.46,1404.28 
  "/>
<path clip-path="url(#clip220)" d="M294.369 1454.1 Q290.758 1454.1 288.929 1457.66 Q287.124 1461.2 287.124 1468.33 Q287.124 1475.44 288.929 1479.01 Q290.758 1482.55 294.369 1482.55 Q298.003 1482.55 299.809 1479.01 Q301.637 1475.44 301.637 1468.33 Q301.637 1461.2 299.809 1457.66 Q298.003 1454.1 294.369 1454.1 M294.369 1450.39 Q300.179 1450.39 303.235 1455 Q306.313 1459.58 306.313 1468.33 Q306.313 1477.06 303.235 1481.67 Q300.179 1486.25 294.369 1486.25 Q288.559 1486.25 285.48 1481.67 Q282.424 1477.06 282.424 1468.33 Q282.424 1459.58 285.48 1455 Q288.559 1450.39 294.369 1450.39 Z" fill="#000000" fill-rule="evenodd" fill-opacity="1" /><path clip-path="url(#clip220)" d="M314.531 1479.7 L319.415 1479.7 L319.415 1485.58 L314.531 1485.58 L314.531 1479.7 Z" fill="#000000" fill-rule="evenodd" fill-opacity="1" /><path clip-path="url(#clip220)" d="M339.6 1454.1 Q335.989 1454.1 334.16 1457.66 Q332.355 1461.2 332.355 1468.33 Q332.355 1475.44 334.16 1479.01 Q335.989 1482.55 339.6 1482.55 Q343.234 1482.55 345.04 1479.01 Q346.869 1475.44 346.869 1468.33 Q346.869 1461.2 345.04 1457.66 Q343.234 1454.1 339.6 1454.1 M339.6 1450.39 Q345.41 1450.39 348.466 1455 Q351.544 1459.58 351.544 1468.33 Q351.544 1477.06 348.466 1481.67 Q345.41 1486.25 339.6 1486.25 Q333.79 1486.25 330.711 1481.67 Q327.656 1477.06 327.656 1468.33 Q327.656 1459.58 330.711 1455 Q333.79 1450.39 339.6 1450.39 Z" fill="#000000" fill-rule="evenodd" fill-opacity="1" /><path clip-path="url(#clip220)" d="M782.84 1481.64 L799.159 1481.64 L799.159 1485.58 L777.215 1485.58 L777.215 1481.64 Q779.877 1478.89 784.46 1474.26 Q789.067 1469.61 790.247 1468.27 Q792.493 1465.74 793.372 1464.01 Q794.275 1462.25 794.275 1460.56 Q794.275 1457.8 792.331 1456.07 Q790.409 1454.33 787.308 1454.33 Q785.109 1454.33 782.655 1455.09 Q780.224 1455.86 777.447 1457.41 L777.447 1452.69 Q780.271 1451.55 782.724 1450.97 Q785.178 1450.39 787.215 1450.39 Q792.585 1450.39 795.78 1453.08 Q798.974 1455.77 798.974 1460.26 Q798.974 1462.39 798.164 1464.31 Q797.377 1466.2 795.27 1468.8 Q794.692 1469.47 791.59 1472.69 Q788.488 1475.88 782.84 1481.64 Z" fill="#000000" fill-rule="evenodd" fill-opacity="1" /><path clip-path="url(#clip220)" d="M808.974 1479.7 L813.858 1479.7 L813.858 1485.58 L808.974 1485.58 L808.974 1479.7 Z" fill="#000000" fill-rule="evenodd" fill-opacity="1" /><path clip-path="url(#clip220)" d="M824.09 1451.02 L842.446 1451.02 L842.446 1454.96 L828.372 1454.96 L828.372 1463.43 Q829.391 1463.08 830.409 1462.92 Q831.428 1462.73 832.446 1462.73 Q838.233 1462.73 841.613 1465.9 Q844.992 1469.08 844.992 1474.49 Q844.992 1480.07 841.52 1483.17 Q838.048 1486.25 831.729 1486.25 Q829.553 1486.25 827.284 1485.88 Q825.039 1485.51 822.631 1484.77 L822.631 1480.07 Q824.715 1481.2 826.937 1481.76 Q829.159 1482.32 831.636 1482.32 Q835.641 1482.32 837.979 1480.21 Q840.317 1478.1 840.317 1474.49 Q840.317 1470.88 837.979 1468.77 Q835.641 1466.67 831.636 1466.67 Q829.761 1466.67 827.886 1467.08 Q826.034 1467.5 824.09 1468.38 L824.09 1451.02 Z" fill="#000000" fill-rule="evenodd" fill-opacity="1" /><path clip-path="url(#clip220)" d="M1272.39 1451.02 L1290.74 1451.02 L1290.74 1454.96 L1276.67 1454.96 L1276.67 1463.43 Q1277.69 1463.08 1278.71 1462.92 Q1279.73 1462.73 1280.74 1462.73 Q1286.53 1462.73 1289.91 1465.9 Q1293.29 1469.08 1293.29 1474.49 Q1293.29 1480.07 1289.82 1483.17 Q1286.35 1486.25 1280.03 1486.25 Q1277.85 1486.25 1275.58 1485.88 Q1273.34 1485.51 1270.93 1484.77 L1270.93 1480.07 Q1273.01 1481.2 1275.23 1481.76 Q1277.46 1482.32 1279.93 1482.32 Q1283.94 1482.32 1286.28 1480.21 Q1288.61 1478.1 1288.61 1474.49 Q1288.61 1470.88 1286.28 1468.77 Q1283.94 1466.67 1279.93 1466.67 Q1278.06 1466.67 1276.18 1467.08 Q1274.33 1467.5 1272.39 1468.38 L1272.39 1451.02 Z" fill="#000000" fill-rule="evenodd" fill-opacity="1" /><path clip-path="url(#clip220)" d="M1302.5 1479.7 L1307.39 1479.7 L1307.39 1485.58 L1302.5 1485.58 L1302.5 1479.7 Z" fill="#000000" fill-rule="evenodd" fill-opacity="1" /><path clip-path="url(#clip220)" d="M1327.57 1454.1 Q1323.96 1454.1 1322.13 1457.66 Q1320.33 1461.2 1320.33 1468.33 Q1320.33 1475.44 1322.13 1479.01 Q1323.96 1482.55 1327.57 1482.55 Q1331.21 1482.55 1333.01 1479.01 Q1334.84 1475.44 1334.84 1468.33 Q1334.84 1461.2 1333.01 1457.66 Q1331.21 1454.1 1327.57 1454.1 M1327.57 1450.39 Q1333.38 1450.39 1336.44 1455 Q1339.52 1459.58 1339.52 1468.33 Q1339.52 1477.06 1336.44 1481.67 Q1333.38 1486.25 1327.57 1486.25 Q1321.76 1486.25 1318.68 1481.67 Q1315.63 1477.06 1315.63 1468.33 Q1315.63 1459.58 1318.68 1455 Q1321.76 1450.39 1327.57 1450.39 Z" fill="#000000" fill-rule="evenodd" fill-opacity="1" /><path clip-path="url(#clip220)" d="M1765.66 1451.02 L1787.88 1451.02 L1787.88 1453.01 L1775.34 1485.58 L1770.45 1485.58 L1782.26 1454.96 L1765.66 1454.96 L1765.66 1451.02 Z" fill="#000000" fill-rule="evenodd" fill-opacity="1" /><path clip-path="url(#clip220)" d="M1797 1479.7 L1801.89 1479.7 L1801.89 1485.58 L1797 1485.58 L1797 1479.7 Z" fill="#000000" fill-rule="evenodd" fill-opacity="1" /><path clip-path="url(#clip220)" d="M1812.12 1451.02 L1830.48 1451.02 L1830.48 1454.96 L1816.4 1454.96 L1816.4 1463.43 Q1817.42 1463.08 1818.44 1462.92 Q1819.46 1462.73 1820.48 1462.73 Q1826.26 1462.73 1829.64 1465.9 Q1833.02 1469.08 1833.02 1474.49 Q1833.02 1480.07 1829.55 1483.17 Q1826.08 1486.25 1819.76 1486.25 Q1817.58 1486.25 1815.31 1485.88 Q1813.07 1485.51 1810.66 1484.77 L1810.66 1480.07 Q1812.75 1481.2 1814.97 1481.76 Q1817.19 1482.32 1819.67 1482.32 Q1823.67 1482.32 1826.01 1480.21 Q1828.35 1478.1 1828.35 1474.49 Q1828.35 1470.88 1826.01 1468.77 Q1823.67 1466.67 1819.67 1466.67 Q1817.79 1466.67 1815.92 1467.08 Q1814.06 1467.5 1812.12 1468.38 L1812.12 1451.02 Z" fill="#000000" fill-rule="evenodd" fill-opacity="1" /><path clip-path="url(#clip220)" d="M2245.53 1481.64 L2253.17 1481.64 L2253.17 1455.28 L2244.86 1456.95 L2244.86 1452.69 L2253.13 1451.02 L2257.8 1451.02 L2257.8 1481.64 L2265.44 1481.64 L2265.44 1485.58 L2245.53 1485.58 L2245.53 1481.64 Z" fill="#000000" fill-rule="evenodd" fill-opacity="1" /><path clip-path="url(#clip220)" d="M2284.89 1454.1 Q2281.27 1454.1 2279.45 1457.66 Q2277.64 1461.2 2277.64 1468.33 Q2277.64 1475.44 2279.45 1479.01 Q2281.27 1482.55 2284.89 1482.55 Q2288.52 1482.55 2290.33 1479.01 Q2292.15 1475.44 2292.15 1468.33 Q2292.15 1461.2 2290.33 1457.66 Q2288.52 1454.1 2284.89 1454.1 M2284.89 1450.39 Q2290.7 1450.39 2293.75 1455 Q2296.83 1459.58 2296.83 1468.33 Q2296.83 1477.06 2293.75 1481.67 Q2290.7 1486.25 2284.89 1486.25 Q2279.08 1486.25 2276 1481.67 Q2272.94 1477.06 2272.94 1468.33 Q2272.94 1459.58 2276 1455 Q2279.08 1450.39 2284.89 1450.39 Z" fill="#000000" fill-rule="evenodd" fill-opacity="1" /><path clip-path="url(#clip220)" d="M2305.05 1479.7 L2309.93 1479.7 L2309.93 1485.58 L2305.05 1485.58 L2305.05 1479.7 Z" fill="#000000" fill-rule="evenodd" fill-opacity="1" /><path clip-path="url(#clip220)" d="M2330.12 1454.1 Q2326.51 1454.1 2324.68 1457.66 Q2322.87 1461.2 2322.87 1468.33 Q2322.87 1475.44 2324.68 1479.01 Q2326.51 1482.55 2330.12 1482.55 Q2333.75 1482.55 2335.56 1479.01 Q2337.38 1475.44 2337.38 1468.33 Q2337.38 1461.2 2335.56 1457.66 Q2333.75 1454.1 2330.12 1454.1 M2330.12 1450.39 Q2335.93 1450.39 2338.98 1455 Q2342.06 1459.58 2342.06 1468.33 Q2342.06 1477.06 2338.98 1481.67 Q2335.93 1486.25 2330.12 1486.25 Q2324.31 1486.25 2321.23 1481.67 Q2318.17 1477.06 2318.17 1468.33 Q2318.17 1459.58 2321.23 1455 Q2324.31 1450.39 2330.12 1450.39 Z" fill="#000000" fill-rule="evenodd" fill-opacity="1" /><path clip-path="url(#clip220)" d="M1322.91 1542.99 Q1322.91 1545.25 1319.66 1545.25 L1308.58 1545.25 L1304.17 1567.82 Q1304.07 1568.4 1303.94 1568.72 Q1303.85 1569.05 1303.56 1569.59 Q1303.3 1570.11 1302.75 1570.37 Q1302.24 1570.66 1301.46 1570.66 Q1300.5 1570.66 1300.01 1570.08 Q1299.56 1569.53 1299.56 1568.85 Q1299.56 1568.43 1300.21 1566.44 L1306.68 1545.25 L1301.21 1545.25 Q1296.05 1545.25 1292.83 1550.33 Q1292.32 1551.01 1292.03 1551.08 Q1291.9 1551.11 1291.77 1551.11 Q1291.42 1551.11 1291.19 1550.95 Q1291 1550.79 1291 1550.62 L1290.96 1550.46 Q1290.96 1550.24 1291.48 1549.34 Q1292.03 1548.4 1292.99 1547.02 Q1293.99 1545.63 1294.99 1544.54 Q1296.31 1543.12 1297.79 1542.38 Q1299.27 1541.61 1300.01 1541.51 Q1300.79 1541.41 1301.79 1541.41 L1320.27 1541.41 Q1321.11 1541.41 1321.56 1541.48 Q1322.01 1541.51 1322.46 1541.9 Q1322.91 1542.25 1322.91 1542.99 Z" fill="#000000" fill-rule="evenodd" fill-opacity="1" /><polyline clip-path="url(#clip223)" style="stroke:#000000; stroke-linecap:butt; stroke-linejoin:round; stroke-width:2; stroke-opacity:0.1; fill:none" points="
  257.69,1384.24 2352.76,1384.24 
  "/>
<polyline clip-path="url(#clip223)" style="stroke:#000000; stroke-linecap:butt; stroke-linejoin:round; stroke-width:2; stroke-opacity:0.1; fill:none" points="
  257.69,1028.46 2352.76,1028.46 
  "/>
<polyline clip-path="url(#clip223)" style="stroke:#000000; stroke-linecap:butt; stroke-linejoin:round; stroke-width:2; stroke-opacity:0.1; fill:none" points="
  257.69,672.678 2352.76,672.678 
  "/>
<polyline clip-path="url(#clip223)" style="stroke:#000000; stroke-linecap:butt; stroke-linejoin:round; stroke-width:2; stroke-opacity:0.1; fill:none" points="
  257.69,316.898 2352.76,316.898 
  "/>
<polyline clip-path="url(#clip220)" style="stroke:#000000; stroke-linecap:butt; stroke-linejoin:round; stroke-width:4; stroke-opacity:1; fill:none" points="
  257.69,1423.18 257.69,47.2441 
  "/>
<polyline clip-path="url(#clip220)" style="stroke:#000000; stroke-linecap:butt; stroke-linejoin:round; stroke-width:4; stroke-opacity:1; fill:none" points="
  257.69,1384.24 276.588,1384.24 
  "/>
<polyline clip-path="url(#clip220)" style="stroke:#000000; stroke-linecap:butt; stroke-linejoin:round; stroke-width:4; stroke-opacity:1; fill:none" points="
  257.69,1028.46 276.588,1028.46 
  "/>
<polyline clip-path="url(#clip220)" style="stroke:#000000; stroke-linecap:butt; stroke-linejoin:round; stroke-width:4; stroke-opacity:1; fill:none" points="
  257.69,672.678 276.588,672.678 
  "/>
<polyline clip-path="url(#clip220)" style="stroke:#000000; stroke-linecap:butt; stroke-linejoin:round; stroke-width:4; stroke-opacity:1; fill:none" points="
  257.69,316.898 276.588,316.898 
  "/>
<path clip-path="url(#clip220)" d="M115.742 1384.69 L145.417 1384.69 L145.417 1388.62 L115.742 1388.62 L115.742 1384.69 Z" fill="#000000" fill-rule="evenodd" fill-opacity="1" /><path clip-path="url(#clip220)" d="M165.51 1370.04 Q161.899 1370.04 160.07 1373.6 Q158.265 1377.14 158.265 1384.27 Q158.265 1391.38 160.07 1394.94 Q161.899 1398.49 165.51 1398.49 Q169.144 1398.49 170.95 1394.94 Q172.778 1391.38 172.778 1384.27 Q172.778 1377.14 170.95 1373.6 Q169.144 1370.04 165.51 1370.04 M165.51 1366.33 Q171.32 1366.33 174.376 1370.94 Q177.454 1375.52 177.454 1384.27 Q177.454 1393 174.376 1397.61 Q171.32 1402.19 165.51 1402.19 Q159.7 1402.19 156.621 1397.61 Q153.566 1393 153.566 1384.27 Q153.566 1375.52 156.621 1370.94 Q159.7 1366.33 165.51 1366.33 Z" fill="#000000" fill-rule="evenodd" fill-opacity="1" /><path clip-path="url(#clip220)" d="M185.672 1395.64 L190.556 1395.64 L190.556 1401.52 L185.672 1401.52 L185.672 1395.64 Z" fill="#000000" fill-rule="evenodd" fill-opacity="1" /><path clip-path="url(#clip220)" d="M200.787 1366.96 L219.144 1366.96 L219.144 1370.89 L205.07 1370.89 L205.07 1379.37 Q206.088 1379.02 207.107 1378.86 Q208.125 1378.67 209.144 1378.67 Q214.931 1378.67 218.311 1381.84 Q221.69 1385.01 221.69 1390.43 Q221.69 1396.01 218.218 1399.11 Q214.746 1402.19 208.426 1402.19 Q206.25 1402.19 203.982 1401.82 Q201.737 1401.45 199.329 1400.71 L199.329 1396.01 Q201.412 1397.14 203.635 1397.7 Q205.857 1398.25 208.334 1398.25 Q212.338 1398.25 214.676 1396.15 Q217.014 1394.04 217.014 1390.43 Q217.014 1386.82 214.676 1384.71 Q212.338 1382.61 208.334 1382.61 Q206.459 1382.61 204.584 1383.02 Q202.732 1383.44 200.787 1384.32 L200.787 1366.96 Z" fill="#000000" fill-rule="evenodd" fill-opacity="1" /><path clip-path="url(#clip220)" d="M114.26 1028.91 L143.936 1028.91 L143.936 1032.84 L114.26 1032.84 L114.26 1028.91 Z" fill="#000000" fill-rule="evenodd" fill-opacity="1" /><path clip-path="url(#clip220)" d="M164.028 1014.26 Q160.417 1014.26 158.589 1017.82 Q156.783 1021.36 156.783 1028.49 Q156.783 1035.6 158.589 1039.16 Q160.417 1042.71 164.028 1042.71 Q167.663 1042.71 169.468 1039.16 Q171.297 1035.6 171.297 1028.49 Q171.297 1021.36 169.468 1017.82 Q167.663 1014.26 164.028 1014.26 M164.028 1010.55 Q169.839 1010.55 172.894 1015.16 Q175.973 1019.74 175.973 1028.49 Q175.973 1037.22 172.894 1041.83 Q169.839 1046.41 164.028 1046.41 Q158.218 1046.41 155.14 1041.83 Q152.084 1037.22 152.084 1028.49 Q152.084 1019.74 155.14 1015.16 Q158.218 1010.55 164.028 1010.55 Z" fill="#000000" fill-rule="evenodd" fill-opacity="1" /><path clip-path="url(#clip220)" d="M184.19 1039.86 L189.075 1039.86 L189.075 1045.74 L184.19 1045.74 L184.19 1039.86 Z" fill="#000000" fill-rule="evenodd" fill-opacity="1" /><path clip-path="url(#clip220)" d="M212.107 1015.25 L200.301 1033.7 L212.107 1033.7 L212.107 1015.25 M210.88 1011.18 L216.76 1011.18 L216.76 1033.7 L221.69 1033.7 L221.69 1037.59 L216.76 1037.59 L216.76 1045.74 L212.107 1045.74 L212.107 1037.59 L196.505 1037.59 L196.505 1033.08 L210.88 1011.18 Z" fill="#000000" fill-rule="evenodd" fill-opacity="1" /><path clip-path="url(#clip220)" d="M115.394 673.129 L145.07 673.129 L145.07 677.065 L115.394 677.065 L115.394 673.129 Z" fill="#000000" fill-rule="evenodd" fill-opacity="1" /><path clip-path="url(#clip220)" d="M165.163 658.477 Q161.552 658.477 159.723 662.042 Q157.917 665.583 157.917 672.713 Q157.917 679.819 159.723 683.384 Q161.552 686.926 165.163 686.926 Q168.797 686.926 170.602 683.384 Q172.431 679.819 172.431 672.713 Q172.431 665.583 170.602 662.042 Q168.797 658.477 165.163 658.477 M165.163 654.773 Q170.973 654.773 174.028 659.38 Q177.107 663.963 177.107 672.713 Q177.107 681.44 174.028 686.046 Q170.973 690.629 165.163 690.629 Q159.353 690.629 156.274 686.046 Q153.218 681.44 153.218 672.713 Q153.218 663.963 156.274 659.38 Q159.353 654.773 165.163 654.773 Z" fill="#000000" fill-rule="evenodd" fill-opacity="1" /><path clip-path="url(#clip220)" d="M185.325 684.078 L190.209 684.078 L190.209 689.958 L185.325 689.958 L185.325 684.078 Z" fill="#000000" fill-rule="evenodd" fill-opacity="1" /><path clip-path="url(#clip220)" d="M214.561 671.324 Q217.917 672.042 219.792 674.31 Q221.69 676.579 221.69 679.912 Q221.69 685.028 218.172 687.828 Q214.653 690.629 208.172 690.629 Q205.996 690.629 203.681 690.19 Q201.389 689.773 198.936 688.916 L198.936 684.403 Q200.88 685.537 203.195 686.116 Q205.51 686.694 208.033 686.694 Q212.431 686.694 214.723 684.958 Q217.037 683.222 217.037 679.912 Q217.037 676.856 214.885 675.143 Q212.755 673.407 208.936 673.407 L204.908 673.407 L204.908 669.565 L209.121 669.565 Q212.57 669.565 214.399 668.199 Q216.227 666.81 216.227 664.217 Q216.227 661.555 214.329 660.143 Q212.454 658.708 208.936 658.708 Q207.014 658.708 204.815 659.125 Q202.616 659.542 199.977 660.421 L199.977 656.255 Q202.639 655.514 204.954 655.143 Q207.292 654.773 209.352 654.773 Q214.676 654.773 217.778 657.204 Q220.88 659.611 220.88 663.731 Q220.88 666.602 219.236 668.592 Q217.593 670.56 214.561 671.324 Z" fill="#000000" fill-rule="evenodd" fill-opacity="1" /><path clip-path="url(#clip220)" d="M116.343 317.349 L146.019 317.349 L146.019 321.285 L116.343 321.285 L116.343 317.349 Z" fill="#000000" fill-rule="evenodd" fill-opacity="1" /><path clip-path="url(#clip220)" d="M166.112 302.697 Q162.501 302.697 160.672 306.261 Q158.866 309.803 158.866 316.933 Q158.866 324.039 160.672 327.604 Q162.501 331.146 166.112 331.146 Q169.746 331.146 171.552 327.604 Q173.38 324.039 173.38 316.933 Q173.38 309.803 171.552 306.261 Q169.746 302.697 166.112 302.697 M166.112 298.993 Q171.922 298.993 174.977 303.599 Q178.056 308.183 178.056 316.933 Q178.056 325.66 174.977 330.266 Q171.922 334.849 166.112 334.849 Q160.302 334.849 157.223 330.266 Q154.167 325.66 154.167 316.933 Q154.167 308.183 157.223 303.599 Q160.302 298.993 166.112 298.993 Z" fill="#000000" fill-rule="evenodd" fill-opacity="1" /><path clip-path="url(#clip220)" d="M186.274 328.298 L191.158 328.298 L191.158 334.178 L186.274 334.178 L186.274 328.298 Z" fill="#000000" fill-rule="evenodd" fill-opacity="1" /><path clip-path="url(#clip220)" d="M205.371 330.243 L221.69 330.243 L221.69 334.178 L199.746 334.178 L199.746 330.243 Q202.408 327.488 206.991 322.859 Q211.598 318.206 212.778 316.863 Q215.024 314.34 215.903 312.604 Q216.806 310.845 216.806 309.155 Q216.806 306.4 214.861 304.664 Q212.94 302.928 209.838 302.928 Q207.639 302.928 205.186 303.692 Q202.755 304.456 199.977 306.007 L199.977 301.285 Q202.801 300.15 205.255 299.572 Q207.709 298.993 209.746 298.993 Q215.116 298.993 218.311 301.678 Q221.505 304.363 221.505 308.854 Q221.505 310.984 220.695 312.905 Q219.908 314.803 217.801 317.396 Q217.223 318.067 214.121 321.285 Q211.019 324.479 205.371 330.243 Z" fill="#000000" fill-rule="evenodd" fill-opacity="1" /><path clip-path="url(#clip220)" d="M22.6312 757.593 L39.4426 761.748 Q40.5054 762.037 40.6342 762.231 Q40.7631 762.392 40.7631 762.907 Q40.7631 763.905 40.0867 763.905 Q40.0223 763.905 39.185 763.809 Q38.3154 763.712 36.7373 763.712 Q30.9081 763.712 27.462 766.546 Q24.016 769.348 24.016 774.34 Q24.016 779.01 26.4637 783.487 Q28.9113 787.963 32.5184 790.829 Q35.4813 793.245 39.0883 794.92 Q42.6954 796.562 45.8516 797.238 Q48.9755 797.915 50.8757 798.172 Q52.7758 798.398 53.9997 798.398 Q57.6067 798.398 60.4086 797.238 Q63.1783 796.079 64.7564 794.147 Q66.3345 792.182 67.1074 789.928 Q67.8804 787.641 67.8804 785.161 Q67.8804 784.227 67.7516 783.1 Q67.6227 781.973 67.1397 780.234 Q66.6566 778.462 65.8514 777.013 Q65.0463 775.532 63.5004 774.243 Q61.9545 772.923 59.8933 772.408 Q54.6438 771.023 53.8708 771.023 Q53.2267 771.023 53.0013 771.409 Q52.7758 771.796 52.6148 773.084 L52.486 776.562 Q52.486 776.627 52.486 776.723 Q52.486 777.335 52.486 777.593 Q52.4538 777.851 52.3894 778.14 Q52.325 778.398 52.1961 778.495 Q52.0351 778.559 51.7775 778.559 Q51.1655 778.559 50.8757 778.301 Q50.5536 778.044 50.5214 777.818 Q50.457 777.593 50.457 777.174 L50.6503 767.931 Q50.6503 767.19 50.5536 764.485 Q50.457 761.78 50.457 761.007 Q50.457 760.137 51.1655 760.137 Q52.486 760.137 52.486 761.2 Q52.5182 762.263 52.5504 762.81 Q52.5504 763.358 52.7114 763.905 Q52.8725 764.421 53.0013 764.614 Q53.0979 764.807 53.581 765.065 Q54.0319 765.322 54.4183 765.419 Q54.7726 765.516 55.6744 765.741 Q56.2541 765.87 57.3491 766.192 Q58.4441 766.482 59.0238 766.611 L64.1123 767.867 Q67.8804 768.736 68.138 768.994 Q68.3957 769.123 68.3957 769.445 Q68.3957 769.928 66.9786 770.958 Q65.5616 771.957 64.3055 772.408 Q65.1751 773.213 65.6904 773.728 Q66.1735 774.243 66.9464 775.435 Q67.7194 776.594 68.3313 778.14 Q69.9094 781.908 69.9094 786.385 Q69.9094 794.372 64.853 799.396 Q59.7645 804.42 51.8419 804.42 Q46.2381 804.42 40.7308 801.844 Q35.2236 799.267 31.1335 795.177 Q27.0434 791.087 24.4991 785.677 Q21.9548 780.266 21.9548 774.855 Q21.9548 772.794 22.5023 770.958 Q23.0498 769.123 23.7262 768.028 Q24.4025 766.901 25.4009 765.902 Q26.367 764.904 26.8179 764.582 Q27.2688 764.227 27.8163 763.905 L22.76 759.3 Q21.9548 758.495 21.9548 758.302 Q21.9548 757.915 22.1803 757.754 Q22.4057 757.593 22.6312 757.593 Z" fill="#000000" fill-rule="evenodd" fill-opacity="1" /><path clip-path="url(#clip220)" d="M51.9707 749.664 Q40.8275 749.664 31.842 745.509 Q28.0739 743.738 24.9178 741.258 Q21.7616 738.778 20.3767 737.136 Q18.9919 735.493 18.9919 735.042 Q18.9919 734.398 19.636 734.366 Q19.9581 734.366 20.7632 735.235 Q31.5844 745.863 51.9707 745.831 Q72.4214 745.831 82.8239 735.493 Q83.9511 734.366 84.3054 734.366 Q84.9495 734.366 84.9495 735.042 Q84.9495 735.493 83.6291 737.071 Q82.3086 738.649 79.2813 741.097 Q76.2539 743.545 72.5502 745.316 Q63.5648 749.664 51.9707 749.664 Z" fill="#000000" fill-rule="evenodd" fill-opacity="1" /><path clip-path="url(#clip220)" d="M41.6004 697.404 Q43.8548 697.404 43.8548 700.657 L43.8548 711.736 L66.4311 716.148 Q67.0108 716.244 67.3329 716.373 Q67.6549 716.47 68.2024 716.76 Q68.7177 717.017 68.9754 717.565 Q69.2652 718.08 69.2652 718.853 Q69.2652 719.819 68.6855 720.302 Q68.138 720.753 67.4617 720.753 Q67.043 720.753 65.0463 720.109 L43.8548 713.636 L43.8548 719.111 Q43.8548 724.264 48.9433 727.484 Q49.6197 728 49.6841 728.289 Q49.7163 728.418 49.7163 728.547 Q49.7163 728.901 49.5553 729.127 Q49.3942 729.32 49.2332 729.32 L49.0722 729.352 Q48.8467 729.352 47.945 728.837 Q47.011 728.289 45.6261 727.323 Q44.2413 726.325 43.1463 725.327 Q41.7292 724.006 40.9885 722.525 Q40.2156 721.043 40.1189 720.302 Q40.0223 719.529 40.0223 718.531 L40.0223 700.045 Q40.0223 699.208 40.0867 698.757 Q40.1189 698.306 40.5054 697.855 Q40.8597 697.404 41.6004 697.404 Z" fill="#000000" fill-rule="evenodd" fill-opacity="1" /><path clip-path="url(#clip220)" d="M84.3054 691.331 Q83.9833 691.331 83.1782 690.494 Q72.357 679.866 51.9707 679.866 Q31.52 679.866 21.1819 690.075 Q19.9903 691.331 19.636 691.331 Q18.9919 691.331 18.9919 690.687 Q18.9919 690.236 20.3123 688.658 Q21.6328 687.048 24.6601 684.632 Q27.6875 682.185 31.3911 680.381 Q40.3766 676.033 51.9707 676.033 Q63.1139 676.033 72.0994 680.188 Q75.8674 681.959 79.0236 684.439 Q82.1798 686.919 83.5646 688.561 Q84.9495 690.204 84.9495 690.687 Q84.9495 691.331 84.3054 691.331 Z" fill="#000000" fill-rule="evenodd" fill-opacity="1" /><polyline clip-path="url(#clip223)" style="stroke:#009af9; stroke-linecap:butt; stroke-linejoin:round; stroke-width:4; stroke-opacity:1; fill:none" points="
  316.984,1384.24 318.963,1369.76 320.941,1355.46 322.92,1341.35 324.898,1327.42 326.877,1313.67 328.855,1300.09 330.834,1286.68 332.812,1273.45 334.791,1260.38 
  336.769,1247.48 338.747,1234.74 340.726,1222.16 342.704,1209.74 344.683,1197.47 346.661,1185.36 348.64,1173.4 350.618,1161.59 352.597,1149.92 354.575,1138.4 
  356.554,1127.02 358.532,1115.79 360.51,1104.69 362.489,1093.73 364.467,1082.9 366.446,1072.21 368.424,1061.65 370.403,1051.22 372.381,1040.91 374.36,1030.73 
  376.338,1020.68 378.317,1010.74 380.295,1000.93 382.273,991.236 384.252,981.659 386.23,972.196 388.209,962.848 390.187,953.612 392.166,944.486 394.144,935.469 
  396.123,926.56 398.101,917.757 400.08,909.059 402.058,900.463 404.036,891.97 406.015,883.577 407.993,875.282 409.972,867.086 411.95,858.985 413.929,850.98 
  415.907,843.068 417.886,835.249 419.864,827.52 421.843,819.882 423.821,812.332 425.8,804.87 427.778,797.494 429.756,790.203 431.735,782.996 433.713,775.872 
  435.692,768.83 437.67,761.869 439.649,754.987 441.627,748.183 443.606,741.457 445.584,734.807 447.563,728.233 449.541,721.733 451.519,715.307 453.498,708.953 
  455.476,702.671 457.455,696.459 459.433,690.317 461.412,684.243 463.39,678.237 465.369,672.299 467.347,666.426 469.326,660.618 471.304,654.875 473.282,649.196 
  475.261,643.579 477.239,638.023 479.218,632.529 481.196,627.096 483.175,621.722 485.153,616.406 487.132,611.149 489.11,605.948 491.089,600.805 493.067,595.717 
  495.045,590.684 497.024,585.706 499.002,580.781 500.981,575.909 502.959,571.09 504.938,566.322 506.916,561.605 508.895,556.939 510.873,552.322 512.852,547.755 
  514.83,543.236 516.808,538.765 518.787,534.341 520.765,529.964 522.744,525.634 524.722,521.348 526.701,517.108 528.679,512.912 530.658,508.76 532.636,504.652 
  534.615,500.586 536.593,496.562 538.571,492.581 540.55,488.64 542.528,484.74 544.507,480.881 546.485,477.061 548.464,473.281 550.442,469.539 552.421,465.836 
  554.399,462.171 556.378,458.543 558.356,454.952 560.334,451.397 562.313,447.879 564.291,444.396 566.27,440.949 568.248,437.536 570.227,434.158 572.205,430.814 
  574.184,427.503 576.162,424.225 578.141,420.981 580.119,417.768 582.098,414.588 584.076,411.439 586.054,408.322 588.033,405.235 590.011,402.18 591.99,399.154 
  593.968,396.158 595.947,393.191 597.925,390.254 599.904,387.346 601.882,384.466 603.861,381.614 605.839,378.79 607.817,375.993 609.796,373.224 611.774,370.481 
  613.753,367.766 615.731,365.076 617.71,362.412 619.688,359.774 621.667,357.162 623.645,354.574 625.624,352.012 627.602,349.473 629.58,346.959 631.559,344.47 
  633.537,342.003 635.516,339.561 637.494,337.141 639.473,334.744 641.451,332.37 643.43,330.019 645.408,327.689 647.387,325.382 649.365,323.096 651.343,320.832 
  653.322,318.589 655.3,316.367 657.279,314.165 659.257,311.984 661.236,309.824 663.214,307.683 665.193,305.563 667.171,303.462 669.15,301.38 671.128,299.318 
  673.106,297.274 675.085,295.25 677.063,293.244 679.042,291.256 681.02,289.287 682.999,287.336 684.977,285.402 686.956,283.486 688.934,281.588 690.913,279.707 
  692.891,277.843 694.869,275.996 696.848,274.165 698.826,272.352 700.805,270.554 702.783,268.773 704.762,267.008 706.74,265.258 708.719,263.525 710.697,261.806 
  712.676,260.104 714.654,258.416 716.632,256.744 718.611,255.086 720.589,253.444 722.568,251.815 724.546,250.202 726.525,248.602 728.503,247.017 730.482,245.446 
  732.46,243.889 734.439,242.345 736.417,240.815 738.395,239.299 740.374,237.795 742.352,236.306 744.331,234.829 746.309,233.365 748.288,231.914 750.266,230.475 
  752.245,229.049 754.223,227.636 756.202,226.235 758.18,224.846 760.159,223.469 762.137,222.104 764.115,220.751 766.094,219.409 768.072,218.08 770.051,216.761 
  772.029,215.455 774.008,214.159 775.986,212.875 777.965,211.601 779.943,210.339 781.922,209.087 783.9,207.847 785.878,206.616 787.857,205.397 789.835,204.188 
  791.814,202.989 793.792,201.8 795.771,200.622 797.749,199.454 799.728,198.295 801.706,197.147 803.685,196.008 805.663,194.879 807.641,193.76 809.62,192.65 
  811.598,191.549 813.577,190.458 815.555,189.376 817.534,188.304 819.512,187.24 821.491,186.185 823.469,185.14 825.448,184.103 827.426,183.075 829.404,182.055 
  831.383,181.045 833.361,180.042 835.34,179.049 837.318,178.063 839.297,177.086 841.275,176.117 843.254,175.157 845.232,174.204 847.211,173.259 849.189,172.323 
  851.167,171.394 853.146,170.473 855.124,169.56 857.103,168.655 859.081,167.757 861.06,166.866 863.038,165.983 865.017,165.108 866.995,164.24 868.974,163.379 
  870.952,162.526 872.93,161.679 874.909,160.84 876.887,160.008 878.866,159.183 880.844,158.364 882.823,157.553 884.801,156.749 886.78,155.951 888.758,155.16 
  890.737,154.375 892.715,153.598 894.693,152.826 896.672,152.062 898.65,151.303 900.629,150.551 902.607,149.806 904.586,149.067 906.564,148.334 908.543,147.607 
  910.521,146.886 912.5,146.171 914.478,145.463 916.456,144.76 918.435,144.064 920.413,143.373 922.392,142.688 924.37,142.009 926.349,141.336 928.327,140.668 
  930.306,140.007 932.284,139.35 934.263,138.7 936.241,138.055 938.22,137.415 940.198,136.781 942.176,136.153 944.155,135.53 946.133,134.912 948.112,134.299 
  950.09,133.692 952.069,133.09 954.047,132.493 956.026,131.902 958.004,131.315 959.983,130.734 961.961,130.157 963.939,129.586 965.918,129.019 967.896,128.458 
  969.875,127.901 971.853,127.35 973.832,126.803 975.81,126.261 977.789,125.724 979.767,125.191 981.746,124.664 983.724,124.14 985.702,123.622 987.681,123.108 
  989.659,122.599 991.638,122.094 993.616,121.594 995.595,121.098 997.573,120.607 999.552,120.12 1001.53,119.638 1003.51,119.16 1005.49,118.686 1007.47,118.217 
  1009.44,117.752 1011.42,117.291 1013.4,116.835 1015.38,116.383 1017.36,115.934 1019.34,115.49 1021.31,115.051 1023.29,114.615 1025.27,114.183 1027.25,113.756 
  1029.23,113.332 1031.21,112.913 1033.19,112.497 1035.16,112.086 1037.14,111.678 1039.12,111.274 1041.1,110.874 1043.08,110.478 1045.06,110.086 1047.03,109.698 
  1049.01,109.314 1050.99,108.933 1052.97,108.556 1054.95,108.183 1056.93,107.813 1058.91,107.448 1060.88,107.086 1062.86,106.727 1064.84,106.372 1066.82,106.021 
  1068.8,105.674 1070.78,105.33 1072.75,104.989 1074.73,104.652 1076.71,104.319 1078.69,103.989 1080.67,103.663 1082.65,103.34 1084.63,103.021 1086.6,102.705 
  1088.58,102.392 1090.56,102.083 1092.54,101.777 1094.52,101.475 1096.5,101.176 1098.47,100.88 1100.45,100.588 1102.43,100.299 1104.41,100.013 1106.39,99.7302 
  1108.37,99.451 1110.35,99.175 1112.32,98.9022 1114.3,98.6326 1116.28,98.3663 1118.26,98.1031 1120.24,97.8432 1122.22,97.5863 1124.19,97.3327 1126.17,97.0821 
  1128.15,96.8347 1130.13,96.5904 1132.11,96.3492 1134.09,96.1111 1136.07,95.876 1138.04,95.644 1140.02,95.4151 1142,95.1891 1143.98,94.9662 1145.96,94.7464 
  1147.94,94.5295 1149.91,94.3156 1151.89,94.1047 1153.87,93.8968 1155.85,93.6918 1157.83,93.4897 1159.81,93.2907 1161.78,93.0945 1163.76,92.9012 1165.74,92.7109 
  1167.72,92.5234 1169.7,92.3389 1171.68,92.1572 1173.66,91.9784 1175.63,91.8024 1177.61,91.6293 1179.59,91.4591 1181.57,91.2916 1183.55,91.127 1185.53,90.9652 
  1187.5,90.8063 1189.48,90.6501 1191.46,90.4967 1193.44,90.3461 1195.42,90.1983 1197.4,90.0533 1199.38,89.911 1201.35,89.7715 1203.33,89.6347 1205.31,89.5006 
  1207.29,89.3693 1209.27,89.2408 1211.25,89.1149 1213.22,88.9918 1215.2,88.8714 1217.18,88.7537 1219.16,88.6387 1221.14,88.5264 1223.12,88.4167 1225.1,88.3098 
  1227.07,88.2055 1229.05,88.1039 1231.03,88.005 1233.01,87.9087 1234.99,87.8151 1236.97,87.7241 1238.94,87.6358 1240.92,87.5501 1242.9,87.4671 1244.88,87.3867 
  1246.86,87.309 1248.84,87.2338 1250.82,87.1613 1252.79,87.0914 1254.77,87.0242 1256.75,86.9595 1258.73,86.8975 1260.71,86.838 1262.69,86.7812 1264.66,86.727 
  1266.64,86.6753 1268.62,86.6263 1270.6,86.5799 1272.58,86.536 1274.56,86.4948 1276.54,86.4561 1278.51,86.42 1280.49,86.3865 1282.47,86.3556 1284.45,86.3273 
  1286.43,86.3015 1288.41,86.2783 1290.38,86.2577 1292.36,86.2397 1294.34,86.2243 1296.32,86.2114 1298.3,86.2011 1300.28,86.1934 1302.26,86.1882 1304.23,86.1857 
  1306.21,86.1857 1308.19,86.1882 1310.17,86.1934 1312.15,86.2011 1314.13,86.2114 1316.1,86.2243 1318.08,86.2397 1320.06,86.2577 1322.04,86.2783 1324.02,86.3015 
  1326,86.3273 1327.98,86.3556 1329.95,86.3865 1331.93,86.42 1333.91,86.4561 1335.89,86.4948 1337.87,86.536 1339.85,86.5799 1341.82,86.6263 1343.8,86.6753 
  1345.78,86.727 1347.76,86.7812 1349.74,86.838 1351.72,86.8975 1353.7,86.9595 1355.67,87.0242 1357.65,87.0914 1359.63,87.1613 1361.61,87.2338 1363.59,87.309 
  1365.57,87.3867 1367.54,87.4671 1369.52,87.5501 1371.5,87.6358 1373.48,87.7241 1375.46,87.8151 1377.44,87.9087 1379.42,88.005 1381.39,88.1039 1383.37,88.2055 
  1385.35,88.3098 1387.33,88.4167 1389.31,88.5264 1391.29,88.6387 1393.26,88.7537 1395.24,88.8714 1397.22,88.9918 1399.2,89.1149 1401.18,89.2408 1403.16,89.3693 
  1405.14,89.5006 1407.11,89.6347 1409.09,89.7715 1411.07,89.911 1413.05,90.0533 1415.03,90.1983 1417.01,90.3461 1418.98,90.4967 1420.96,90.6501 1422.94,90.8063 
  1424.92,90.9652 1426.9,91.127 1428.88,91.2916 1430.85,91.4591 1432.83,91.6293 1434.81,91.8024 1436.79,91.9784 1438.77,92.1572 1440.75,92.3389 1442.73,92.5234 
  1444.7,92.7109 1446.68,92.9012 1448.66,93.0945 1450.64,93.2907 1452.62,93.4897 1454.6,93.6918 1456.57,93.8968 1458.55,94.1047 1460.53,94.3156 1462.51,94.5295 
  1464.49,94.7464 1466.47,94.9662 1468.45,95.1891 1470.42,95.4151 1472.4,95.644 1474.38,95.876 1476.36,96.1111 1478.34,96.3492 1480.32,96.5904 1482.29,96.8347 
  1484.27,97.0821 1486.25,97.3327 1488.23,97.5863 1490.21,97.8432 1492.19,98.1031 1494.17,98.3663 1496.14,98.6326 1498.12,98.9022 1500.1,99.175 1502.08,99.451 
  1504.06,99.7302 1506.04,100.013 1508.01,100.299 1509.99,100.588 1511.97,100.88 1513.95,101.176 1515.93,101.475 1517.91,101.777 1519.89,102.083 1521.86,102.392 
  1523.84,102.705 1525.82,103.021 1527.8,103.34 1529.78,103.663 1531.76,103.989 1533.73,104.319 1535.71,104.652 1537.69,104.989 1539.67,105.33 1541.65,105.674 
  1543.63,106.021 1545.61,106.372 1547.58,106.727 1549.56,107.086 1551.54,107.448 1553.52,107.813 1555.5,108.183 1557.48,108.556 1559.45,108.933 1561.43,109.314 
  1563.41,109.698 1565.39,110.086 1567.37,110.478 1569.35,110.874 1571.33,111.274 1573.3,111.678 1575.28,112.086 1577.26,112.497 1579.24,112.913 1581.22,113.332 
  1583.2,113.756 1585.17,114.183 1587.15,114.615 1589.13,115.051 1591.11,115.49 1593.09,115.934 1595.07,116.383 1597.05,116.835 1599.02,117.291 1601,117.752 
  1602.98,118.217 1604.96,118.686 1606.94,119.16 1608.92,119.638 1610.89,120.12 1612.87,120.607 1614.85,121.098 1616.83,121.594 1618.81,122.094 1620.79,122.599 
  1622.77,123.108 1624.74,123.622 1626.72,124.14 1628.7,124.664 1630.68,125.191 1632.66,125.724 1634.64,126.261 1636.61,126.803 1638.59,127.35 1640.57,127.901 
  1642.55,128.458 1644.53,129.019 1646.51,129.586 1648.49,130.157 1650.46,130.734 1652.44,131.315 1654.42,131.902 1656.4,132.493 1658.38,133.09 1660.36,133.692 
  1662.33,134.299 1664.31,134.912 1666.29,135.53 1668.27,136.153 1670.25,136.781 1672.23,137.415 1674.2,138.055 1676.18,138.7 1678.16,139.35 1680.14,140.007 
  1682.12,140.668 1684.1,141.336 1686.08,142.009 1688.05,142.688 1690.03,143.373 1692.01,144.064 1693.99,144.76 1695.97,145.463 1697.95,146.171 1699.92,146.886 
  1701.9,147.607 1703.88,148.334 1705.86,149.067 1707.84,149.806 1709.82,150.551 1711.8,151.303 1713.77,152.062 1715.75,152.826 1717.73,153.598 1719.71,154.375 
  1721.69,155.16 1723.67,155.951 1725.64,156.749 1727.62,157.553 1729.6,158.364 1731.58,159.183 1733.56,160.008 1735.54,160.84 1737.52,161.679 1739.49,162.526 
  1741.47,163.379 1743.45,164.24 1745.43,165.108 1747.41,165.983 1749.39,166.866 1751.36,167.757 1753.34,168.655 1755.32,169.56 1757.3,170.473 1759.28,171.394 
  1761.26,172.323 1763.24,173.259 1765.21,174.204 1767.19,175.157 1769.17,176.117 1771.15,177.086 1773.13,178.063 1775.11,179.049 1777.08,180.042 1779.06,181.045 
  1781.04,182.055 1783.02,183.075 1785,184.103 1786.98,185.14 1788.96,186.185 1790.93,187.24 1792.91,188.304 1794.89,189.376 1796.87,190.458 1798.85,191.549 
  1800.83,192.65 1802.8,193.76 1804.78,194.879 1806.76,196.008 1808.74,197.147 1810.72,198.295 1812.7,199.454 1814.68,200.622 1816.65,201.8 1818.63,202.989 
  1820.61,204.188 1822.59,205.397 1824.57,206.616 1826.55,207.847 1828.52,209.087 1830.5,210.339 1832.48,211.601 1834.46,212.875 1836.44,214.159 1838.42,215.455 
  1840.4,216.761 1842.37,218.08 1844.35,219.409 1846.33,220.751 1848.31,222.104 1850.29,223.469 1852.27,224.846 1854.24,226.235 1856.22,227.636 1858.2,229.049 
  1860.18,230.475 1862.16,231.914 1864.14,233.365 1866.12,234.829 1868.09,236.306 1870.07,237.795 1872.05,239.299 1874.03,240.815 1876.01,242.345 1877.99,243.889 
  1879.96,245.446 1881.94,247.017 1883.92,248.602 1885.9,250.202 1887.88,251.815 1889.86,253.444 1891.84,255.086 1893.81,256.744 1895.79,258.416 1897.77,260.104 
  1899.75,261.806 1901.73,263.525 1903.71,265.258 1905.68,267.008 1907.66,268.773 1909.64,270.554 1911.62,272.352 1913.6,274.165 1915.58,275.996 1917.56,277.843 
  1919.53,279.707 1921.51,281.588 1923.49,283.486 1925.47,285.402 1927.45,287.336 1929.43,289.287 1931.4,291.256 1933.38,293.244 1935.36,295.25 1937.34,297.274 
  1939.32,299.318 1941.3,301.38 1943.27,303.462 1945.25,305.563 1947.23,307.683 1949.21,309.824 1951.19,311.984 1953.17,314.165 1955.15,316.367 1957.12,318.589 
  1959.1,320.832 1961.08,323.096 1963.06,325.382 1965.04,327.689 1967.02,330.019 1968.99,332.37 1970.97,334.744 1972.95,337.141 1974.93,339.561 1976.91,342.003 
  1978.89,344.47 1980.87,346.959 1982.84,349.473 1984.82,352.012 1986.8,354.574 1988.78,357.162 1990.76,359.774 1992.74,362.412 1994.71,365.076 1996.69,367.766 
  1998.67,370.481 2000.65,373.224 2002.63,375.993 2004.61,378.79 2006.59,381.614 2008.56,384.466 2010.54,387.346 2012.52,390.254 2014.5,393.191 2016.48,396.158 
  2018.46,399.154 2020.43,402.18 2022.41,405.235 2024.39,408.322 2026.37,411.439 2028.35,414.588 2030.33,417.768 2032.31,420.981 2034.28,424.225 2036.26,427.503 
  2038.24,430.814 2040.22,434.158 2042.2,437.536 2044.18,440.949 2046.15,444.396 2048.13,447.879 2050.11,451.397 2052.09,454.952 2054.07,458.543 2056.05,462.171 
  2058.03,465.836 2060,469.539 2061.98,473.281 2063.96,477.061 2065.94,480.881 2067.92,484.74 2069.9,488.64 2071.87,492.581 2073.85,496.562 2075.83,500.586 
  2077.81,504.652 2079.79,508.76 2081.77,512.912 2083.75,517.108 2085.72,521.348 2087.7,525.634 2089.68,529.964 2091.66,534.341 2093.64,538.765 2095.62,543.236 
  2097.59,547.755 2099.57,552.322 2101.55,556.939 2103.53,561.605 2105.51,566.322 2107.49,571.09 2109.47,575.909 2111.44,580.781 2113.42,585.706 2115.4,590.684 
  2117.38,595.717 2119.36,600.805 2121.34,605.948 2123.31,611.149 2125.29,616.406 2127.27,621.722 2129.25,627.096 2131.23,632.529 2133.21,638.023 2135.19,643.579 
  2137.16,649.196 2139.14,654.875 2141.12,660.618 2143.1,666.426 2145.08,672.299 2147.06,678.237 2149.03,684.243 2151.01,690.317 2152.99,696.459 2154.97,702.671 
  2156.95,708.953 2158.93,715.307 2160.91,721.733 2162.88,728.233 2164.86,734.807 2166.84,741.457 2168.82,748.183 2170.8,754.987 2172.78,761.869 2174.75,768.83 
  2176.73,775.872 2178.71,782.996 2180.69,790.203 2182.67,797.494 2184.65,804.87 2186.62,812.332 2188.6,819.882 2190.58,827.52 2192.56,835.249 2194.54,843.068 
  2196.52,850.98 2198.5,858.985 2200.47,867.086 2202.45,875.282 2204.43,883.577 2206.41,891.97 2208.39,900.463 2210.37,909.059 2212.34,917.757 2214.32,926.56 
  2216.3,935.469 2218.28,944.486 2220.26,953.612 2222.24,962.848 2224.22,972.196 2226.19,981.659 2228.17,991.236 2230.15,1000.93 2232.13,1010.74 2234.11,1020.68 
  2236.09,1030.73 2238.06,1040.91 2240.04,1051.22 2242.02,1061.65 2244,1072.21 2245.98,1082.9 2247.96,1093.73 2249.94,1104.69 2251.91,1115.79 2253.89,1127.02 
  2255.87,1138.4 2257.85,1149.92 2259.83,1161.59 2261.81,1173.4 2263.78,1185.36 2265.76,1197.47 2267.74,1209.74 2269.72,1222.16 2271.7,1234.74 2273.68,1247.48 
  2275.66,1260.38 2277.63,1273.45 2279.61,1286.68 2281.59,1300.09 2283.57,1313.67 2285.55,1327.42 2287.53,1341.35 2289.5,1355.46 2291.48,1369.76 2293.46,1384.24 
  
  "/>
</svg>
