<?xml version="1.0" encoding="utf-8"?>
<svg xmlns="http://www.w3.org/2000/svg" xmlns:xlink="http://www.w3.org/1999/xlink" width="600" height="400" viewBox="0 0 2400 1600">
<defs>
  <clipPath id="clip480">
    <rect x="0" y="0" width="2400" height="1600"/>
  </clipPath>
</defs>
<path clip-path="url(#clip480)" d="
M0 1600 L2400 1600 L2400 0 L0 0  Z
  " fill="#ffffff" fill-rule="evenodd" fill-opacity="1"/>
<defs>
  <clipPath id="clip481">
    <rect x="480" y="0" width="1681" height="1600"/>
  </clipPath>
</defs>
<defs>
  <clipPath id="clip482">
    <rect x="189" y="47" width="2164" height="1377"/>
  </clipPath>
</defs>
<path clip-path="url(#clip480)" d="
M252.764 1423.18 L2352.76 1423.18 L2352.76 47.2441 L252.764 47.2441  Z
  " fill="#ffffff" fill-rule="evenodd" fill-opacity="1"/>
<defs>
  <clipPath id="clip483">
    <rect x="252" y="47" width="2101" height="1377"/>
  </clipPath>
</defs>
<polyline clip-path="url(#clip483)" style="stroke:#000000; stroke-linecap:butt; stroke-linejoin:round; stroke-width:2; stroke-opacity:0.1; fill:none" points="
  629.178,1423.18 629.178,47.2441 
  "/>
<polyline clip-path="url(#clip483)" style="stroke:#000000; stroke-linecap:butt; stroke-linejoin:round; stroke-width:2; stroke-opacity:0.1; fill:none" points="
  1025.4,1423.18 1025.4,47.2441 
  "/>
<polyline clip-path="url(#clip483)" style="stroke:#000000; stroke-linecap:butt; stroke-linejoin:round; stroke-width:2; stroke-opacity:0.1; fill:none" points="
  1421.63,1423.18 1421.63,47.2441 
  "/>
<polyline clip-path="url(#clip483)" style="stroke:#000000; stroke-linecap:butt; stroke-linejoin:round; stroke-width:2; stroke-opacity:0.1; fill:none" points="
  1817.85,1423.18 1817.85,47.2441 
  "/>
<polyline clip-path="url(#clip483)" style="stroke:#000000; stroke-linecap:butt; stroke-linejoin:round; stroke-width:2; stroke-opacity:0.1; fill:none" points="
  2214.08,1423.18 2214.08,47.2441 
  "/>
<polyline clip-path="url(#clip480)" style="stroke:#000000; stroke-linecap:butt; stroke-linejoin:round; stroke-width:4; stroke-opacity:1; fill:none" points="
  252.764,1423.18 2352.76,1423.18 
  "/>
<polyline clip-path="url(#clip480)" style="stroke:#000000; stroke-linecap:butt; stroke-linejoin:round; stroke-width:4; stroke-opacity:1; fill:none" points="
  629.178,1423.18 629.178,1404.28 
  "/>
<polyline clip-path="url(#clip480)" style="stroke:#000000; stroke-linecap:butt; stroke-linejoin:round; stroke-width:4; stroke-opacity:1; fill:none" points="
  1025.4,1423.18 1025.4,1404.28 
  "/>
<polyline clip-path="url(#clip480)" style="stroke:#000000; stroke-linecap:butt; stroke-linejoin:round; stroke-width:4; stroke-opacity:1; fill:none" points="
  1421.63,1423.18 1421.63,1404.28 
  "/>
<polyline clip-path="url(#clip480)" style="stroke:#000000; stroke-linecap:butt; stroke-linejoin:round; stroke-width:4; stroke-opacity:1; fill:none" points="
  1817.85,1423.18 1817.85,1404.28 
  "/>
<polyline clip-path="url(#clip480)" style="stroke:#000000; stroke-linecap:butt; stroke-linejoin:round; stroke-width:4; stroke-opacity:1; fill:none" points="
  2214.08,1423.18 2214.08,1404.28 
  "/>
<path clip-path="url(#clip480)" d="M619.455 1451.02 L637.812 1451.02 L637.812 1454.96 L623.738 1454.96 L623.738 1463.43 Q624.756 1463.08 625.775 1462.92 Q626.793 1462.73 627.812 1462.73 Q633.599 1462.73 636.978 1465.9 Q640.358 1469.08 640.358 1474.49 Q640.358 1480.07 636.886 1483.17 Q633.414 1486.25 627.094 1486.25 Q624.918 1486.25 622.65 1485.88 Q620.405 1485.51 617.997 1484.77 L617.997 1480.07 Q620.08 1481.2 622.303 1481.76 Q624.525 1482.32 627.002 1482.32 Q631.006 1482.32 633.344 1480.21 Q635.682 1478.1 635.682 1474.49 Q635.682 1470.88 633.344 1468.77 Q631.006 1466.67 627.002 1466.67 Q625.127 1466.67 623.252 1467.08 Q621.4 1467.5 619.455 1468.38 L619.455 1451.02 Z" fill="#000000" fill-rule="evenodd" fill-opacity="1" /><path clip-path="url(#clip480)" d="M1000.09 1481.64 L1007.73 1481.64 L1007.73 1455.28 L999.419 1456.95 L999.419 1452.69 L1007.68 1451.02 L1012.36 1451.02 L1012.36 1481.64 L1020 1481.64 L1020 1485.58 L1000.09 1485.58 L1000.09 1481.64 Z" fill="#000000" fill-rule="evenodd" fill-opacity="1" /><path clip-path="url(#clip480)" d="M1039.44 1454.1 Q1035.83 1454.1 1034 1457.66 Q1032.2 1461.2 1032.2 1468.33 Q1032.2 1475.44 1034 1479.01 Q1035.83 1482.55 1039.44 1482.55 Q1043.08 1482.55 1044.88 1479.01 Q1046.71 1475.44 1046.71 1468.33 Q1046.71 1461.2 1044.88 1457.66 Q1043.08 1454.1 1039.44 1454.1 M1039.44 1450.39 Q1045.25 1450.39 1048.31 1455 Q1051.39 1459.58 1051.39 1468.33 Q1051.39 1477.06 1048.31 1481.67 Q1045.25 1486.25 1039.44 1486.25 Q1033.63 1486.25 1030.55 1481.67 Q1027.5 1477.06 1027.5 1468.33 Q1027.5 1459.58 1030.55 1455 Q1033.63 1450.39 1039.44 1450.39 Z" fill="#000000" fill-rule="evenodd" fill-opacity="1" /><path clip-path="url(#clip480)" d="M1396.81 1481.64 L1404.45 1481.64 L1404.45 1455.28 L1396.14 1456.95 L1396.14 1452.69 L1404.41 1451.02 L1409.08 1451.02 L1409.08 1481.64 L1416.72 1481.64 L1416.72 1485.58 L1396.81 1485.58 L1396.81 1481.64 Z" fill="#000000" fill-rule="evenodd" fill-opacity="1" /><path clip-path="url(#clip480)" d="M1426.21 1451.02 L1444.57 1451.02 L1444.57 1454.96 L1430.49 1454.96 L1430.49 1463.43 Q1431.51 1463.08 1432.53 1462.92 Q1433.55 1462.73 1434.57 1462.73 Q1440.35 1462.73 1443.73 1465.9 Q1447.11 1469.08 1447.11 1474.49 Q1447.11 1480.07 1443.64 1483.17 Q1440.17 1486.25 1433.85 1486.25 Q1431.67 1486.25 1429.41 1485.88 Q1427.16 1485.51 1424.75 1484.77 L1424.75 1480.07 Q1426.84 1481.2 1429.06 1481.76 Q1431.28 1482.32 1433.76 1482.32 Q1437.76 1482.32 1440.1 1480.21 Q1442.44 1478.1 1442.44 1474.49 Q1442.44 1470.88 1440.1 1468.77 Q1437.76 1466.67 1433.76 1466.67 Q1431.88 1466.67 1430.01 1467.08 Q1428.16 1467.5 1426.21 1468.38 L1426.21 1451.02 Z" fill="#000000" fill-rule="evenodd" fill-opacity="1" /><path clip-path="url(#clip480)" d="M1796.63 1481.64 L1812.94 1481.64 L1812.94 1485.58 L1791 1485.58 L1791 1481.64 Q1793.66 1478.89 1798.25 1474.26 Q1802.85 1469.61 1804.03 1468.27 Q1806.28 1465.74 1807.16 1464.01 Q1808.06 1462.25 1808.06 1460.56 Q1808.06 1457.8 1806.12 1456.07 Q1804.19 1454.33 1801.09 1454.33 Q1798.89 1454.33 1796.44 1455.09 Q1794.01 1455.86 1791.23 1457.41 L1791.23 1452.69 Q1794.06 1451.55 1796.51 1450.97 Q1798.96 1450.39 1801 1450.39 Q1806.37 1450.39 1809.57 1453.08 Q1812.76 1455.77 1812.76 1460.26 Q1812.76 1462.39 1811.95 1464.31 Q1811.16 1466.2 1809.06 1468.8 Q1808.48 1469.47 1805.38 1472.69 Q1802.27 1475.88 1796.63 1481.64 Z" fill="#000000" fill-rule="evenodd" fill-opacity="1" /><path clip-path="url(#clip480)" d="M1832.76 1454.1 Q1829.15 1454.1 1827.32 1457.66 Q1825.51 1461.2 1825.51 1468.33 Q1825.51 1475.44 1827.32 1479.01 Q1829.15 1482.55 1832.76 1482.55 Q1836.39 1482.55 1838.2 1479.01 Q1840.03 1475.44 1840.03 1468.33 Q1840.03 1461.2 1838.2 1457.66 Q1836.39 1454.1 1832.76 1454.1 M1832.76 1450.39 Q1838.57 1450.39 1841.63 1455 Q1844.7 1459.58 1844.7 1468.33 Q1844.7 1477.06 1841.63 1481.67 Q1838.57 1486.25 1832.76 1486.25 Q1826.95 1486.25 1823.87 1481.67 Q1820.82 1477.06 1820.82 1468.33 Q1820.82 1459.58 1823.87 1455 Q1826.95 1450.39 1832.76 1450.39 Z" fill="#000000" fill-rule="evenodd" fill-opacity="1" /><path clip-path="url(#clip480)" d="M2193.35 1481.64 L2209.67 1481.64 L2209.67 1485.58 L2187.72 1485.58 L2187.72 1481.64 Q2190.39 1478.89 2194.97 1474.26 Q2199.57 1469.61 2200.76 1468.27 Q2203 1465.74 2203.88 1464.01 Q2204.78 1462.25 2204.78 1460.56 Q2204.78 1457.8 2202.84 1456.07 Q2200.92 1454.33 2197.82 1454.33 Q2195.62 1454.33 2193.16 1455.09 Q2190.73 1455.86 2187.95 1457.41 L2187.95 1452.69 Q2190.78 1451.55 2193.23 1450.97 Q2195.69 1450.39 2197.72 1450.39 Q2203.09 1450.39 2206.29 1453.08 Q2209.48 1455.77 2209.48 1460.26 Q2209.48 1462.39 2208.67 1464.31 Q2207.89 1466.2 2205.78 1468.8 Q2205.2 1469.47 2202.1 1472.69 Q2199 1475.88 2193.35 1481.64 Z" fill="#000000" fill-rule="evenodd" fill-opacity="1" /><path clip-path="url(#clip480)" d="M2219.53 1451.02 L2237.88 1451.02 L2237.88 1454.96 L2223.81 1454.96 L2223.81 1463.43 Q2224.83 1463.08 2225.85 1462.92 Q2226.87 1462.73 2227.88 1462.73 Q2233.67 1462.73 2237.05 1465.9 Q2240.43 1469.08 2240.43 1474.49 Q2240.43 1480.07 2236.96 1483.17 Q2233.49 1486.25 2227.17 1486.25 Q2224.99 1486.25 2222.72 1485.88 Q2220.48 1485.51 2218.07 1484.77 L2218.07 1480.07 Q2220.15 1481.2 2222.38 1481.76 Q2224.6 1482.32 2227.07 1482.32 Q2231.08 1482.32 2233.42 1480.21 Q2235.76 1478.1 2235.76 1474.49 Q2235.76 1470.88 2233.42 1468.77 Q2231.08 1466.67 2227.07 1466.67 Q2225.2 1466.67 2223.32 1467.08 Q2221.47 1467.5 2219.53 1468.38 L2219.53 1451.02 Z" fill="#000000" fill-rule="evenodd" fill-opacity="1" /><path clip-path="url(#clip480)" d="M1307.14 1516.77 L1297.64 1554.9 Q1297.25 1556.42 1297.25 1558.06 Q1297.25 1561.09 1299.25 1561.09 Q1300.18 1561.09 1300.95 1560.48 Q1301.73 1559.83 1302.31 1558.58 Q1302.92 1557.29 1303.3 1556.06 Q1303.72 1554.84 1304.24 1552.94 Q1304.4 1552.2 1304.56 1551.97 Q1304.72 1551.75 1305.17 1551.75 Q1305.98 1551.75 1305.98 1552.39 Q1305.17 1556.35 1303.98 1558.87 Q1302.24 1562.57 1299.02 1562.57 Q1296.61 1562.57 1294.8 1560.89 Q1293.03 1559.19 1293.03 1556.48 Q1293.03 1555.45 1293.35 1554.23 L1301.66 1521.25 L1301.89 1519.96 Q1301.89 1519.61 1301.76 1519.41 Q1301.63 1519.22 1300.86 1519.03 Q1300.12 1518.83 1298.63 1518.83 Q1298.02 1518.83 1297.73 1518.8 Q1297.48 1518.77 1297.22 1518.61 Q1296.99 1518.45 1296.99 1518.09 Q1296.99 1517.51 1297.22 1517.19 Q1297.48 1516.87 1297.67 1516.8 Q1297.86 1516.74 1298.25 1516.71 Q1298.8 1516.68 1300.63 1516.52 Q1302.47 1516.32 1304.05 1516.19 Q1305.62 1516.06 1306.3 1516.06 Q1306.69 1516.06 1306.88 1516.26 Q1307.1 1516.42 1307.14 1516.61 L1307.14 1516.77 Z" fill="#000000" fill-rule="evenodd" fill-opacity="1" /><polyline clip-path="url(#clip483)" style="stroke:#000000; stroke-linecap:butt; stroke-linejoin:round; stroke-width:2; stroke-opacity:0.1; fill:none" points="
  252.764,1423.18 2352.76,1423.18 
  "/>
<polyline clip-path="url(#clip483)" style="stroke:#000000; stroke-linecap:butt; stroke-linejoin:round; stroke-width:2; stroke-opacity:0.1; fill:none" points="
  252.764,1193.86 2352.76,1193.86 
  "/>
<polyline clip-path="url(#clip483)" style="stroke:#000000; stroke-linecap:butt; stroke-linejoin:round; stroke-width:2; stroke-opacity:0.1; fill:none" points="
  252.764,964.535 2352.76,964.535 
  "/>
<polyline clip-path="url(#clip483)" style="stroke:#000000; stroke-linecap:butt; stroke-linejoin:round; stroke-width:2; stroke-opacity:0.1; fill:none" points="
  252.764,735.212 2352.76,735.212 
  "/>
<polyline clip-path="url(#clip483)" style="stroke:#000000; stroke-linecap:butt; stroke-linejoin:round; stroke-width:2; stroke-opacity:0.1; fill:none" points="
  252.764,505.889 2352.76,505.889 
  "/>
<polyline clip-path="url(#clip483)" style="stroke:#000000; stroke-linecap:butt; stroke-linejoin:round; stroke-width:2; stroke-opacity:0.1; fill:none" points="
  252.764,276.567 2352.76,276.567 
  "/>
<polyline clip-path="url(#clip483)" style="stroke:#000000; stroke-linecap:butt; stroke-linejoin:round; stroke-width:2; stroke-opacity:0.1; fill:none" points="
  252.764,47.2441 2352.76,47.2441 
  "/>
<polyline clip-path="url(#clip480)" style="stroke:#000000; stroke-linecap:butt; stroke-linejoin:round; stroke-width:4; stroke-opacity:1; fill:none" points="
  252.764,1423.18 252.764,47.2441 
  "/>
<polyline clip-path="url(#clip480)" style="stroke:#000000; stroke-linecap:butt; stroke-linejoin:round; stroke-width:4; stroke-opacity:1; fill:none" points="
  252.764,1423.18 271.662,1423.18 
  "/>
<polyline clip-path="url(#clip480)" style="stroke:#000000; stroke-linecap:butt; stroke-linejoin:round; stroke-width:4; stroke-opacity:1; fill:none" points="
  252.764,1193.86 271.662,1193.86 
  "/>
<polyline clip-path="url(#clip480)" style="stroke:#000000; stroke-linecap:butt; stroke-linejoin:round; stroke-width:4; stroke-opacity:1; fill:none" points="
  252.764,964.535 271.662,964.535 
  "/>
<polyline clip-path="url(#clip480)" style="stroke:#000000; stroke-linecap:butt; stroke-linejoin:round; stroke-width:4; stroke-opacity:1; fill:none" points="
  252.764,735.212 271.662,735.212 
  "/>
<polyline clip-path="url(#clip480)" style="stroke:#000000; stroke-linecap:butt; stroke-linejoin:round; stroke-width:4; stroke-opacity:1; fill:none" points="
  252.764,505.889 271.662,505.889 
  "/>
<polyline clip-path="url(#clip480)" style="stroke:#000000; stroke-linecap:butt; stroke-linejoin:round; stroke-width:4; stroke-opacity:1; fill:none" points="
  252.764,276.567 271.662,276.567 
  "/>
<polyline clip-path="url(#clip480)" style="stroke:#000000; stroke-linecap:butt; stroke-linejoin:round; stroke-width:4; stroke-opacity:1; fill:none" points="
  252.764,47.2441 271.662,47.2441 
  "/>
<path clip-path="url(#clip480)" d="M116.135 1442.97 L123.774 1442.97 L123.774 1416.61 L115.464 1418.27 L115.464 1414.01 L123.728 1412.35 L128.404 1412.35 L128.404 1442.97 L136.042 1442.97 L136.042 1446.91 L116.135 1446.91 L116.135 1442.97 Z" fill="#000000" fill-rule="evenodd" fill-opacity="1" /><path clip-path="url(#clip480)" d="M155.487 1415.43 Q151.876 1415.43 150.047 1418.99 Q148.241 1422.53 148.241 1429.66 Q148.241 1436.77 150.047 1440.33 Q151.876 1443.88 155.487 1443.88 Q159.121 1443.88 160.927 1440.33 Q162.755 1436.77 162.755 1429.66 Q162.755 1422.53 160.927 1418.99 Q159.121 1415.43 155.487 1415.43 M155.487 1411.72 Q161.297 1411.72 164.352 1416.33 Q167.431 1420.91 167.431 1429.66 Q167.431 1438.39 164.352 1443 Q161.297 1447.58 155.487 1447.58 Q149.677 1447.58 146.598 1443 Q143.542 1438.39 143.542 1429.66 Q143.542 1420.91 146.598 1416.33 Q149.677 1411.72 155.487 1411.72 Z" fill="#000000" fill-rule="evenodd" fill-opacity="1" /><path clip-path="url(#clip480)" d="M167.431 1405.82 L191.543 1405.82 L191.543 1409.02 L167.431 1409.02 L167.431 1405.82 Z" fill="#000000" fill-rule="evenodd" fill-opacity="1" /><path clip-path="url(#clip480)" d="M199.781 1391.42 L214.695 1391.42 L214.695 1394.61 L203.26 1394.61 L203.26 1401.5 Q204.088 1401.22 204.915 1401.08 Q205.743 1400.93 206.57 1400.93 Q211.272 1400.93 214.018 1403.51 Q216.764 1406.09 216.764 1410.49 Q216.764 1415.02 213.943 1417.54 Q211.122 1420.04 205.987 1420.04 Q204.219 1420.04 202.376 1419.74 Q200.552 1419.44 198.596 1418.84 L198.596 1415.02 Q200.288 1415.94 202.094 1416.39 Q203.899 1416.85 205.912 1416.85 Q209.166 1416.85 211.065 1415.13 Q212.965 1413.42 212.965 1410.49 Q212.965 1407.55 211.065 1405.84 Q209.166 1404.13 205.912 1404.13 Q204.388 1404.13 202.865 1404.47 Q201.36 1404.81 199.781 1405.52 L199.781 1391.42 Z" fill="#000000" fill-rule="evenodd" fill-opacity="1" /><path clip-path="url(#clip480)" d="M114.931 1213.65 L122.57 1213.65 L122.57 1187.28 L114.26 1188.95 L114.26 1184.69 L122.524 1183.02 L127.2 1183.02 L127.2 1213.65 L134.839 1213.65 L134.839 1217.58 L114.931 1217.58 L114.931 1213.65 Z" fill="#000000" fill-rule="evenodd" fill-opacity="1" /><path clip-path="url(#clip480)" d="M154.283 1186.1 Q150.672 1186.1 148.843 1189.67 Q147.038 1193.21 147.038 1200.34 Q147.038 1207.45 148.843 1211.01 Q150.672 1214.55 154.283 1214.55 Q157.917 1214.55 159.723 1211.01 Q161.552 1207.45 161.552 1200.34 Q161.552 1193.21 159.723 1189.67 Q157.917 1186.1 154.283 1186.1 M154.283 1182.4 Q160.093 1182.4 163.149 1187.01 Q166.227 1191.59 166.227 1200.34 Q166.227 1209.07 163.149 1213.67 Q160.093 1218.26 154.283 1218.26 Q148.473 1218.26 145.394 1213.67 Q142.339 1209.07 142.339 1200.34 Q142.339 1191.59 145.394 1187.01 Q148.473 1182.4 154.283 1182.4 Z" fill="#000000" fill-rule="evenodd" fill-opacity="1" /><path clip-path="url(#clip480)" d="M166.227 1176.5 L190.339 1176.5 L190.339 1179.7 L166.227 1179.7 L166.227 1176.5 Z" fill="#000000" fill-rule="evenodd" fill-opacity="1" /><path clip-path="url(#clip480)" d="M208.978 1165.4 L199.386 1180.39 L208.978 1180.39 L208.978 1165.4 M207.981 1162.09 L212.758 1162.09 L212.758 1180.39 L216.764 1180.39 L216.764 1183.55 L212.758 1183.55 L212.758 1190.17 L208.978 1190.17 L208.978 1183.55 L196.301 1183.55 L196.301 1179.89 L207.981 1162.09 Z" fill="#000000" fill-rule="evenodd" fill-opacity="1" /><path clip-path="url(#clip480)" d="M115.853 984.327 L123.492 984.327 L123.492 957.961 L115.182 959.628 L115.182 955.369 L123.446 953.702 L128.121 953.702 L128.121 984.327 L135.76 984.327 L135.76 988.262 L115.853 988.262 L115.853 984.327 Z" fill="#000000" fill-rule="evenodd" fill-opacity="1" /><path clip-path="url(#clip480)" d="M155.205 956.781 Q151.594 956.781 149.765 960.346 Q147.959 963.887 147.959 971.017 Q147.959 978.123 149.765 981.688 Q151.594 985.23 155.205 985.23 Q158.839 985.23 160.644 981.688 Q162.473 978.123 162.473 971.017 Q162.473 963.887 160.644 960.346 Q158.839 956.781 155.205 956.781 M155.205 953.077 Q161.015 953.077 164.07 957.684 Q167.149 962.267 167.149 971.017 Q167.149 979.744 164.07 984.35 Q161.015 988.933 155.205 988.933 Q149.395 988.933 146.316 984.35 Q143.26 979.744 143.26 971.017 Q143.26 962.267 146.316 957.684 Q149.395 953.077 155.205 953.077 Z" fill="#000000" fill-rule="evenodd" fill-opacity="1" /><path clip-path="url(#clip480)" d="M167.149 947.179 L191.261 947.179 L191.261 950.376 L167.149 950.376 L167.149 947.179 Z" fill="#000000" fill-rule="evenodd" fill-opacity="1" /><path clip-path="url(#clip480)" d="M210.971 945.712 Q213.698 946.295 215.222 948.138 Q216.764 949.981 216.764 952.689 Q216.764 956.846 213.905 959.121 Q211.046 961.397 205.78 961.397 Q204.012 961.397 202.132 961.04 Q200.27 960.701 198.276 960.005 L198.276 956.338 Q199.856 957.26 201.737 957.73 Q203.617 958.2 205.667 958.2 Q209.241 958.2 211.103 956.789 Q212.984 955.379 212.984 952.689 Q212.984 950.207 211.234 948.815 Q209.504 947.404 206.401 947.404 L203.128 947.404 L203.128 944.282 L206.551 944.282 Q209.354 944.282 210.84 943.172 Q212.325 942.044 212.325 939.938 Q212.325 937.775 210.783 936.627 Q209.26 935.461 206.401 935.461 Q204.84 935.461 203.053 935.8 Q201.266 936.138 199.122 936.853 L199.122 933.468 Q201.285 932.866 203.166 932.565 Q205.066 932.264 206.739 932.264 Q211.065 932.264 213.585 934.239 Q216.106 936.195 216.106 939.543 Q216.106 941.875 214.77 943.492 Q213.435 945.091 210.971 945.712 Z" fill="#000000" fill-rule="evenodd" fill-opacity="1" /><path clip-path="url(#clip480)" d="M116.624 755.004 L124.263 755.004 L124.263 728.639 L115.953 730.305 L115.953 726.046 L124.217 724.38 L128.893 724.38 L128.893 755.004 L136.531 755.004 L136.531 758.94 L116.624 758.94 L116.624 755.004 Z" fill="#000000" fill-rule="evenodd" fill-opacity="1" /><path clip-path="url(#clip480)" d="M155.976 727.458 Q152.365 727.458 150.536 731.023 Q148.73 734.565 148.73 741.694 Q148.73 748.801 150.536 752.366 Q152.365 755.907 155.976 755.907 Q159.61 755.907 161.416 752.366 Q163.244 748.801 163.244 741.694 Q163.244 734.565 161.416 731.023 Q159.61 727.458 155.976 727.458 M155.976 723.755 Q161.786 723.755 164.841 728.361 Q167.92 732.944 167.92 741.694 Q167.92 750.421 164.841 755.028 Q161.786 759.611 155.976 759.611 Q150.166 759.611 147.087 755.028 Q144.031 750.421 144.031 741.694 Q144.031 732.944 147.087 728.361 Q150.166 723.755 155.976 723.755 Z" fill="#000000" fill-rule="evenodd" fill-opacity="1" /><path clip-path="url(#clip480)" d="M167.92 717.856 L192.032 717.856 L192.032 721.053 L167.92 721.053 L167.92 717.856 Z" fill="#000000" fill-rule="evenodd" fill-opacity="1" /><path clip-path="url(#clip480)" d="M203.504 728.332 L216.764 728.332 L216.764 731.529 L198.934 731.529 L198.934 728.332 Q201.097 726.094 204.821 722.332 Q208.564 718.552 209.523 717.461 Q211.347 715.411 212.062 714 Q212.796 712.571 212.796 711.198 Q212.796 708.96 211.216 707.549 Q209.655 706.139 207.134 706.139 Q205.348 706.139 203.354 706.759 Q201.379 707.38 199.122 708.64 L199.122 704.803 Q201.417 703.882 203.41 703.412 Q205.404 702.941 207.059 702.941 Q211.423 702.941 214.018 705.123 Q216.613 707.305 216.613 710.953 Q216.613 712.684 215.955 714.245 Q215.316 715.787 213.604 717.894 Q213.134 718.439 210.614 721.053 Q208.094 723.649 203.504 728.332 Z" fill="#000000" fill-rule="evenodd" fill-opacity="1" /><path clip-path="url(#clip480)" d="M116.323 525.682 L123.962 525.682 L123.962 499.316 L115.652 500.983 L115.652 496.724 L123.916 495.057 L128.592 495.057 L128.592 525.682 L136.231 525.682 L136.231 529.617 L116.323 529.617 L116.323 525.682 Z" fill="#000000" fill-rule="evenodd" fill-opacity="1" /><path clip-path="url(#clip480)" d="M155.675 498.136 Q152.064 498.136 150.235 501.7 Q148.43 505.242 148.43 512.372 Q148.43 519.478 150.235 523.043 Q152.064 526.585 155.675 526.585 Q159.309 526.585 161.115 523.043 Q162.943 519.478 162.943 512.372 Q162.943 505.242 161.115 501.7 Q159.309 498.136 155.675 498.136 M155.675 494.432 Q161.485 494.432 164.541 499.038 Q167.619 503.622 167.619 512.372 Q167.619 521.098 164.541 525.705 Q161.485 530.288 155.675 530.288 Q149.865 530.288 146.786 525.705 Q143.73 521.098 143.73 512.372 Q143.73 503.622 146.786 499.038 Q149.865 494.432 155.675 494.432 Z" fill="#000000" fill-rule="evenodd" fill-opacity="1" /><path clip-path="url(#clip480)" d="M167.619 488.533 L191.731 488.533 L191.731 491.731 L167.619 491.731 L167.619 488.533 Z" fill="#000000" fill-rule="evenodd" fill-opacity="1" /><path clip-path="url(#clip480)" d="M200.589 499.009 L206.796 499.009 L206.796 477.587 L200.044 478.941 L200.044 475.481 L206.758 474.127 L210.557 474.127 L210.557 499.009 L216.764 499.009 L216.764 502.207 L200.589 502.207 L200.589 499.009 Z" fill="#000000" fill-rule="evenodd" fill-opacity="1" /><path clip-path="url(#clip480)" d="M146.058 296.359 L153.697 296.359 L153.697 269.994 L145.387 271.66 L145.387 267.401 L153.651 265.734 L158.327 265.734 L158.327 296.359 L165.966 296.359 L165.966 300.294 L146.058 300.294 L146.058 296.359 Z" fill="#000000" fill-rule="evenodd" fill-opacity="1" /><path clip-path="url(#clip480)" d="M185.41 268.813 Q181.799 268.813 179.97 272.378 Q178.165 275.919 178.165 283.049 Q178.165 290.155 179.97 293.72 Q181.799 297.262 185.41 297.262 Q189.044 297.262 190.85 293.72 Q192.678 290.155 192.678 283.049 Q192.678 275.919 190.85 272.378 Q189.044 268.813 185.41 268.813 M185.41 265.109 Q191.22 265.109 194.276 269.716 Q197.354 274.299 197.354 283.049 Q197.354 291.776 194.276 296.382 Q191.22 300.966 185.41 300.966 Q179.6 300.966 176.521 296.382 Q173.466 291.776 173.466 283.049 Q173.466 274.299 176.521 269.716 Q179.6 265.109 185.41 265.109 Z" fill="#000000" fill-rule="evenodd" fill-opacity="1" /><path clip-path="url(#clip480)" d="M207.059 247.305 Q204.125 247.305 202.639 250.202 Q201.172 253.079 201.172 258.872 Q201.172 264.646 202.639 267.543 Q204.125 270.42 207.059 270.42 Q210.012 270.42 211.479 267.543 Q212.965 264.646 212.965 258.872 Q212.965 253.079 211.479 250.202 Q210.012 247.305 207.059 247.305 M207.059 244.296 Q211.78 244.296 214.263 248.039 Q216.764 251.763 216.764 258.872 Q216.764 265.963 214.263 269.705 Q211.78 273.429 207.059 273.429 Q202.338 273.429 199.837 269.705 Q197.354 265.963 197.354 258.872 Q197.354 251.763 199.837 248.039 Q202.338 244.296 207.059 244.296 Z" fill="#000000" fill-rule="evenodd" fill-opacity="1" /><path clip-path="url(#clip480)" d="M148.748 67.0365 L156.387 67.0365 L156.387 40.6709 L148.077 42.3376 L148.077 38.0784 L156.34 36.4117 L161.016 36.4117 L161.016 67.0365 L168.655 67.0365 L168.655 70.9717 L148.748 70.9717 L148.748 67.0365 Z" fill="#000000" fill-rule="evenodd" fill-opacity="1" /><path clip-path="url(#clip480)" d="M188.099 39.4904 Q184.488 39.4904 182.66 43.0552 Q180.854 46.5968 180.854 53.7264 Q180.854 60.8329 182.66 64.3977 Q184.488 67.9393 188.099 67.9393 Q191.734 67.9393 193.539 64.3977 Q195.368 60.8329 195.368 53.7264 Q195.368 46.5968 193.539 43.0552 Q191.734 39.4904 188.099 39.4904 M188.099 35.7867 Q193.91 35.7867 196.965 40.3932 Q200.044 44.9765 200.044 53.7264 Q200.044 62.4532 196.965 67.0597 Q193.91 71.643 188.099 71.643 Q182.289 71.643 179.211 67.0597 Q176.155 62.4532 176.155 53.7264 Q176.155 44.9765 179.211 40.3932 Q182.289 35.7867 188.099 35.7867 Z" fill="#000000" fill-rule="evenodd" fill-opacity="1" /><path clip-path="url(#clip480)" d="M200.589 40.364 L206.796 40.364 L206.796 18.9419 L200.044 20.2961 L200.044 16.8355 L206.758 15.4813 L210.557 15.4813 L210.557 40.364 L216.764 40.364 L216.764 43.5613 L200.589 43.5613 L200.589 40.364 Z" fill="#000000" fill-rule="evenodd" fill-opacity="1" /><path clip-path="url(#clip480)" d="M21.6599 731.86 Q21.6921 731.86 22.8515 732.053 L52.1266 739.396 Q53.6725 739.782 55.2184 740.877 Q56.7965 741.94 58.1491 743.647 Q59.534 745.322 60.3713 747.898 Q61.2409 750.442 61.2409 753.373 Q61.2409 758.043 60.2425 760.104 Q59.2763 762.133 57.2151 762.133 Q55.4116 762.133 54.381 761.006 Q53.3826 759.879 53.3826 758.591 Q53.3826 757.367 54.0912 756.723 Q54.7997 756.079 55.7015 756.079 Q56.6998 756.079 57.6982 756.755 Q58.7288 757.431 59.1153 758.784 Q59.7916 756.626 59.7916 753.502 Q59.7916 746.9 52.8029 744.066 Q52.7063 744.001 52.6741 744.001 L43.9463 741.811 L43.8819 741.908 Q44.526 742.455 45.2668 743.325 Q45.9753 744.162 46.8448 745.966 Q47.7144 747.769 47.7144 749.541 Q47.7144 753.244 44.8803 755.789 Q42.014 758.301 37.2797 758.301 Q33.8337 758.301 30.3877 756.916 Q26.9094 755.499 24.3652 753.309 Q21.7887 751.087 20.1784 748.252 Q18.5681 745.386 18.5681 742.616 Q18.5681 740.684 19.7275 739.042 Q20.8547 737.399 22.7227 736.497 Q21.1768 736.336 20.5327 735.467 Q19.8885 734.565 19.8885 733.792 Q19.8885 732.923 20.3716 732.407 Q20.8225 731.86 21.6599 731.86 M25.6856 737.27 Q25.4924 737.27 24.9771 737.399 Q24.4296 737.528 23.56 737.914 Q22.6905 738.269 21.9175 738.816 Q21.1446 739.364 20.5971 740.362 Q20.0174 741.328 20.0174 742.552 Q20.0174 744.549 21.6921 746.546 Q23.3346 748.542 25.8788 749.927 Q28.3265 751.215 33.0607 752.439 Q37.795 753.631 40.2104 753.631 Q42.5937 753.631 44.4294 752.6 Q46.2651 751.57 46.2651 749.347 Q46.2651 746.771 43.8819 744.001 Q41.4021 741.135 39.2765 740.652 L26.684 737.464 Q25.911 737.27 25.6856 737.27 Z" fill="#000000" fill-rule="evenodd" fill-opacity="1" /><path clip-path="url(#clip480)" d="M48.6036 715.235 L75.2959 721.885 Q76.3554 722.156 77.5052 722.156 Q79.6243 722.156 79.6243 720.758 Q79.6243 720.104 79.196 719.563 Q78.7451 719.022 77.8659 718.616 Q76.9641 718.188 76.1075 717.917 Q75.2508 717.624 73.9207 717.263 Q73.4022 717.151 73.2443 717.038 Q73.0865 716.925 73.0865 716.61 Q73.0865 716.046 73.5374 716.046 Q76.3103 716.61 78.0688 717.444 Q80.6614 718.661 80.6614 720.916 Q80.6614 722.606 79.4891 723.869 Q78.2942 725.109 76.4005 725.109 Q75.6791 725.109 74.8224 724.883 L51.7373 719.067 L50.8355 718.909 Q50.5875 718.909 50.4523 718.999 Q50.317 719.09 50.1817 719.631 Q50.0465 720.149 50.0465 721.186 Q50.0465 721.615 50.0239 721.817 Q50.0014 721.998 49.8887 722.178 Q49.7759 722.336 49.528 722.336 Q49.1222 722.336 48.8967 722.178 Q48.6713 721.998 48.6262 721.862 Q48.5811 721.727 48.5586 721.457 Q48.536 721.073 48.4233 719.788 Q48.288 718.503 48.1979 717.399 Q48.1077 716.294 48.1077 715.821 Q48.1077 715.55 48.2429 715.415 Q48.3557 715.257 48.4909 715.235 L48.6036 715.235 Z" fill="#000000" fill-rule="evenodd" fill-opacity="1" /><polyline clip-path="url(#clip483)" style="stroke:#009af9; stroke-linecap:butt; stroke-linejoin:round; stroke-width:4; stroke-opacity:1; fill:none" points="
  312.198,196.821 391.443,292.623 470.688,252.363 549.933,326.391 629.178,383.246 708.423,414.045 787.668,537.119 866.913,521.953 946.158,704.13 1025.4,640.962 
  1104.65,893.394 1183.89,768.009 1263.14,1156.62 1342.38,901.92 1421.63,1263.97 1500.87,1042.16 1580.12,1314.59 1659.36,1188.42 1738.61,1420.07 1817.85,1340.51 
  1897.1,1546.59 1976.34,1498.32 2055.59,1686.15 2134.83,1661.75 2214.08,1835.61 2293.32,1830.73 
  "/>
<line clip-path="url(#clip483)" x1="312.198" y1="196.821" x2="312.198" y2="180.821" style="stroke:#009af9; stroke-width:3.2; stroke-opacity:1"/>
<line clip-path="url(#clip483)" x1="312.198" y1="196.821" x2="296.198" y2="196.821" style="stroke:#009af9; stroke-width:3.2; stroke-opacity:1"/>
<line clip-path="url(#clip483)" x1="312.198" y1="196.821" x2="312.198" y2="212.821" style="stroke:#009af9; stroke-width:3.2; stroke-opacity:1"/>
<line clip-path="url(#clip483)" x1="312.198" y1="196.821" x2="328.198" y2="196.821" style="stroke:#009af9; stroke-width:3.2; stroke-opacity:1"/>
<line clip-path="url(#clip483)" x1="391.443" y1="292.623" x2="391.443" y2="276.623" style="stroke:#009af9; stroke-width:3.2; stroke-opacity:1"/>
<line clip-path="url(#clip483)" x1="391.443" y1="292.623" x2="375.443" y2="292.623" style="stroke:#009af9; stroke-width:3.2; stroke-opacity:1"/>
<line clip-path="url(#clip483)" x1="391.443" y1="292.623" x2="391.443" y2="308.623" style="stroke:#009af9; stroke-width:3.2; stroke-opacity:1"/>
<line clip-path="url(#clip483)" x1="391.443" y1="292.623" x2="407.443" y2="292.623" style="stroke:#009af9; stroke-width:3.2; stroke-opacity:1"/>
<line clip-path="url(#clip483)" x1="470.688" y1="252.363" x2="470.688" y2="236.363" style="stroke:#009af9; stroke-width:3.2; stroke-opacity:1"/>
<line clip-path="url(#clip483)" x1="470.688" y1="252.363" x2="454.688" y2="252.363" style="stroke:#009af9; stroke-width:3.2; stroke-opacity:1"/>
<line clip-path="url(#clip483)" x1="470.688" y1="252.363" x2="470.688" y2="268.363" style="stroke:#009af9; stroke-width:3.2; stroke-opacity:1"/>
<line clip-path="url(#clip483)" x1="470.688" y1="252.363" x2="486.688" y2="252.363" style="stroke:#009af9; stroke-width:3.2; stroke-opacity:1"/>
<line clip-path="url(#clip483)" x1="549.933" y1="326.391" x2="549.933" y2="310.391" style="stroke:#009af9; stroke-width:3.2; stroke-opacity:1"/>
<line clip-path="url(#clip483)" x1="549.933" y1="326.391" x2="533.933" y2="326.391" style="stroke:#009af9; stroke-width:3.2; stroke-opacity:1"/>
<line clip-path="url(#clip483)" x1="549.933" y1="326.391" x2="549.933" y2="342.391" style="stroke:#009af9; stroke-width:3.2; stroke-opacity:1"/>
<line clip-path="url(#clip483)" x1="549.933" y1="326.391" x2="565.933" y2="326.391" style="stroke:#009af9; stroke-width:3.2; stroke-opacity:1"/>
<line clip-path="url(#clip483)" x1="629.178" y1="383.246" x2="629.178" y2="367.246" style="stroke:#009af9; stroke-width:3.2; stroke-opacity:1"/>
<line clip-path="url(#clip483)" x1="629.178" y1="383.246" x2="613.178" y2="383.246" style="stroke:#009af9; stroke-width:3.2; stroke-opacity:1"/>
<line clip-path="url(#clip483)" x1="629.178" y1="383.246" x2="629.178" y2="399.246" style="stroke:#009af9; stroke-width:3.2; stroke-opacity:1"/>
<line clip-path="url(#clip483)" x1="629.178" y1="383.246" x2="645.178" y2="383.246" style="stroke:#009af9; stroke-width:3.2; stroke-opacity:1"/>
<line clip-path="url(#clip483)" x1="708.423" y1="414.045" x2="708.423" y2="398.045" style="stroke:#009af9; stroke-width:3.2; stroke-opacity:1"/>
<line clip-path="url(#clip483)" x1="708.423" y1="414.045" x2="692.423" y2="414.045" style="stroke:#009af9; stroke-width:3.2; stroke-opacity:1"/>
<line clip-path="url(#clip483)" x1="708.423" y1="414.045" x2="708.423" y2="430.045" style="stroke:#009af9; stroke-width:3.2; stroke-opacity:1"/>
<line clip-path="url(#clip483)" x1="708.423" y1="414.045" x2="724.423" y2="414.045" style="stroke:#009af9; stroke-width:3.2; stroke-opacity:1"/>
<line clip-path="url(#clip483)" x1="787.668" y1="537.119" x2="787.668" y2="521.119" style="stroke:#009af9; stroke-width:3.2; stroke-opacity:1"/>
<line clip-path="url(#clip483)" x1="787.668" y1="537.119" x2="771.668" y2="537.119" style="stroke:#009af9; stroke-width:3.2; stroke-opacity:1"/>
<line clip-path="url(#clip483)" x1="787.668" y1="537.119" x2="787.668" y2="553.119" style="stroke:#009af9; stroke-width:3.2; stroke-opacity:1"/>
<line clip-path="url(#clip483)" x1="787.668" y1="537.119" x2="803.668" y2="537.119" style="stroke:#009af9; stroke-width:3.2; stroke-opacity:1"/>
<line clip-path="url(#clip483)" x1="866.913" y1="521.953" x2="866.913" y2="505.953" style="stroke:#009af9; stroke-width:3.2; stroke-opacity:1"/>
<line clip-path="url(#clip483)" x1="866.913" y1="521.953" x2="850.913" y2="521.953" style="stroke:#009af9; stroke-width:3.2; stroke-opacity:1"/>
<line clip-path="url(#clip483)" x1="866.913" y1="521.953" x2="866.913" y2="537.953" style="stroke:#009af9; stroke-width:3.2; stroke-opacity:1"/>
<line clip-path="url(#clip483)" x1="866.913" y1="521.953" x2="882.913" y2="521.953" style="stroke:#009af9; stroke-width:3.2; stroke-opacity:1"/>
<line clip-path="url(#clip483)" x1="946.158" y1="704.13" x2="946.158" y2="688.13" style="stroke:#009af9; stroke-width:3.2; stroke-opacity:1"/>
<line clip-path="url(#clip483)" x1="946.158" y1="704.13" x2="930.158" y2="704.13" style="stroke:#009af9; stroke-width:3.2; stroke-opacity:1"/>
<line clip-path="url(#clip483)" x1="946.158" y1="704.13" x2="946.158" y2="720.13" style="stroke:#009af9; stroke-width:3.2; stroke-opacity:1"/>
<line clip-path="url(#clip483)" x1="946.158" y1="704.13" x2="962.158" y2="704.13" style="stroke:#009af9; stroke-width:3.2; stroke-opacity:1"/>
<line clip-path="url(#clip483)" x1="1025.4" y1="640.962" x2="1025.4" y2="624.962" style="stroke:#009af9; stroke-width:3.2; stroke-opacity:1"/>
<line clip-path="url(#clip483)" x1="1025.4" y1="640.962" x2="1009.4" y2="640.962" style="stroke:#009af9; stroke-width:3.2; stroke-opacity:1"/>
<line clip-path="url(#clip483)" x1="1025.4" y1="640.962" x2="1025.4" y2="656.962" style="stroke:#009af9; stroke-width:3.2; stroke-opacity:1"/>
<line clip-path="url(#clip483)" x1="1025.4" y1="640.962" x2="1041.4" y2="640.962" style="stroke:#009af9; stroke-width:3.2; stroke-opacity:1"/>
<line clip-path="url(#clip483)" x1="1104.65" y1="893.394" x2="1104.65" y2="877.394" style="stroke:#009af9; stroke-width:3.2; stroke-opacity:1"/>
<line clip-path="url(#clip483)" x1="1104.65" y1="893.394" x2="1088.65" y2="893.394" style="stroke:#009af9; stroke-width:3.2; stroke-opacity:1"/>
<line clip-path="url(#clip483)" x1="1104.65" y1="893.394" x2="1104.65" y2="909.394" style="stroke:#009af9; stroke-width:3.2; stroke-opacity:1"/>
<line clip-path="url(#clip483)" x1="1104.65" y1="893.394" x2="1120.65" y2="893.394" style="stroke:#009af9; stroke-width:3.2; stroke-opacity:1"/>
<line clip-path="url(#clip483)" x1="1183.89" y1="768.009" x2="1183.89" y2="752.009" style="stroke:#009af9; stroke-width:3.2; stroke-opacity:1"/>
<line clip-path="url(#clip483)" x1="1183.89" y1="768.009" x2="1167.89" y2="768.009" style="stroke:#009af9; stroke-width:3.2; stroke-opacity:1"/>
<line clip-path="url(#clip483)" x1="1183.89" y1="768.009" x2="1183.89" y2="784.009" style="stroke:#009af9; stroke-width:3.2; stroke-opacity:1"/>
<line clip-path="url(#clip483)" x1="1183.89" y1="768.009" x2="1199.89" y2="768.009" style="stroke:#009af9; stroke-width:3.2; stroke-opacity:1"/>
<line clip-path="url(#clip483)" x1="1263.14" y1="1156.62" x2="1263.14" y2="1140.62" style="stroke:#009af9; stroke-width:3.2; stroke-opacity:1"/>
<line clip-path="url(#clip483)" x1="1263.14" y1="1156.62" x2="1247.14" y2="1156.62" style="stroke:#009af9; stroke-width:3.2; stroke-opacity:1"/>
<line clip-path="url(#clip483)" x1="1263.14" y1="1156.62" x2="1263.14" y2="1172.62" style="stroke:#009af9; stroke-width:3.2; stroke-opacity:1"/>
<line clip-path="url(#clip483)" x1="1263.14" y1="1156.62" x2="1279.14" y2="1156.62" style="stroke:#009af9; stroke-width:3.2; stroke-opacity:1"/>
<line clip-path="url(#clip483)" x1="1342.38" y1="901.92" x2="1342.38" y2="885.92" style="stroke:#009af9; stroke-width:3.2; stroke-opacity:1"/>
<line clip-path="url(#clip483)" x1="1342.38" y1="901.92" x2="1326.38" y2="901.92" style="stroke:#009af9; stroke-width:3.2; stroke-opacity:1"/>
<line clip-path="url(#clip483)" x1="1342.38" y1="901.92" x2="1342.38" y2="917.92" style="stroke:#009af9; stroke-width:3.2; stroke-opacity:1"/>
<line clip-path="url(#clip483)" x1="1342.38" y1="901.92" x2="1358.38" y2="901.92" style="stroke:#009af9; stroke-width:3.2; stroke-opacity:1"/>
<line clip-path="url(#clip483)" x1="1421.63" y1="1263.97" x2="1421.63" y2="1247.97" style="stroke:#009af9; stroke-width:3.2; stroke-opacity:1"/>
<line clip-path="url(#clip483)" x1="1421.63" y1="1263.97" x2="1405.63" y2="1263.97" style="stroke:#009af9; stroke-width:3.2; stroke-opacity:1"/>
<line clip-path="url(#clip483)" x1="1421.63" y1="1263.97" x2="1421.63" y2="1279.97" style="stroke:#009af9; stroke-width:3.2; stroke-opacity:1"/>
<line clip-path="url(#clip483)" x1="1421.63" y1="1263.97" x2="1437.63" y2="1263.97" style="stroke:#009af9; stroke-width:3.2; stroke-opacity:1"/>
<line clip-path="url(#clip483)" x1="1500.87" y1="1042.16" x2="1500.87" y2="1026.16" style="stroke:#009af9; stroke-width:3.2; stroke-opacity:1"/>
<line clip-path="url(#clip483)" x1="1500.87" y1="1042.16" x2="1484.87" y2="1042.16" style="stroke:#009af9; stroke-width:3.2; stroke-opacity:1"/>
<line clip-path="url(#clip483)" x1="1500.87" y1="1042.16" x2="1500.87" y2="1058.16" style="stroke:#009af9; stroke-width:3.2; stroke-opacity:1"/>
<line clip-path="url(#clip483)" x1="1500.87" y1="1042.16" x2="1516.87" y2="1042.16" style="stroke:#009af9; stroke-width:3.2; stroke-opacity:1"/>
<line clip-path="url(#clip483)" x1="1580.12" y1="1314.59" x2="1580.12" y2="1298.59" style="stroke:#009af9; stroke-width:3.2; stroke-opacity:1"/>
<line clip-path="url(#clip483)" x1="1580.12" y1="1314.59" x2="1564.12" y2="1314.59" style="stroke:#009af9; stroke-width:3.2; stroke-opacity:1"/>
<line clip-path="url(#clip483)" x1="1580.12" y1="1314.59" x2="1580.12" y2="1330.59" style="stroke:#009af9; stroke-width:3.2; stroke-opacity:1"/>
<line clip-path="url(#clip483)" x1="1580.12" y1="1314.59" x2="1596.12" y2="1314.59" style="stroke:#009af9; stroke-width:3.2; stroke-opacity:1"/>
<line clip-path="url(#clip483)" x1="1659.36" y1="1188.42" x2="1659.36" y2="1172.42" style="stroke:#009af9; stroke-width:3.2; stroke-opacity:1"/>
<line clip-path="url(#clip483)" x1="1659.36" y1="1188.42" x2="1643.36" y2="1188.42" style="stroke:#009af9; stroke-width:3.2; stroke-opacity:1"/>
<line clip-path="url(#clip483)" x1="1659.36" y1="1188.42" x2="1659.36" y2="1204.42" style="stroke:#009af9; stroke-width:3.2; stroke-opacity:1"/>
<line clip-path="url(#clip483)" x1="1659.36" y1="1188.42" x2="1675.36" y2="1188.42" style="stroke:#009af9; stroke-width:3.2; stroke-opacity:1"/>
<line clip-path="url(#clip483)" x1="1738.61" y1="1420.07" x2="1738.61" y2="1404.07" style="stroke:#009af9; stroke-width:3.2; stroke-opacity:1"/>
<line clip-path="url(#clip483)" x1="1738.61" y1="1420.07" x2="1722.61" y2="1420.07" style="stroke:#009af9; stroke-width:3.2; stroke-opacity:1"/>
<line clip-path="url(#clip483)" x1="1738.61" y1="1420.07" x2="1738.61" y2="1436.07" style="stroke:#009af9; stroke-width:3.2; stroke-opacity:1"/>
<line clip-path="url(#clip483)" x1="1738.61" y1="1420.07" x2="1754.61" y2="1420.07" style="stroke:#009af9; stroke-width:3.2; stroke-opacity:1"/>
<line clip-path="url(#clip483)" x1="1817.85" y1="1340.51" x2="1817.85" y2="1324.51" style="stroke:#009af9; stroke-width:3.2; stroke-opacity:1"/>
<line clip-path="url(#clip483)" x1="1817.85" y1="1340.51" x2="1801.85" y2="1340.51" style="stroke:#009af9; stroke-width:3.2; stroke-opacity:1"/>
<line clip-path="url(#clip483)" x1="1817.85" y1="1340.51" x2="1817.85" y2="1356.51" style="stroke:#009af9; stroke-width:3.2; stroke-opacity:1"/>
<line clip-path="url(#clip483)" x1="1817.85" y1="1340.51" x2="1833.85" y2="1340.51" style="stroke:#009af9; stroke-width:3.2; stroke-opacity:1"/>
<polyline clip-path="url(#clip483)" style="stroke:#e26f46; stroke-linecap:butt; stroke-linejoin:round; stroke-width:4; stroke-opacity:1; fill:none" points="
  312.198,196.821 391.443,292.623 470.688,252.363 549.933,326.391 629.178,383.246 708.423,414.045 787.668,537.119 866.913,521.953 946.158,704.13 1025.4,640.962 
  1104.65,893.394 1183.89,768.009 1263.14,1156.62 1342.38,901.92 1421.63,1263.97 1500.87,1042.16 1580.12,1314.59 1659.36,1188.42 1738.61,1420.07 1817.85,1340.51 
  1897.1,1546.59 1976.34,1498.32 2055.59,1686.15 2134.83,1661.75 2214.08,1835.61 2293.32,1830.73 
  "/>
<circle clip-path="url(#clip483)" cx="312.198" cy="196.821" r="14" fill="#e26f46" fill-rule="evenodd" fill-opacity="1" stroke="#000000" stroke-opacity="1" stroke-width="3.2"/>
<circle clip-path="url(#clip483)" cx="391.443" cy="292.623" r="14" fill="#e26f46" fill-rule="evenodd" fill-opacity="1" stroke="#000000" stroke-opacity="1" stroke-width="3.2"/>
<circle clip-path="url(#clip483)" cx="470.688" cy="252.363" r="14" fill="#e26f46" fill-rule="evenodd" fill-opacity="1" stroke="#000000" stroke-opacity="1" stroke-width="3.2"/>
<circle clip-path="url(#clip483)" cx="549.933" cy="326.391" r="14" fill="#e26f46" fill-rule="evenodd" fill-opacity="1" stroke="#000000" stroke-opacity="1" stroke-width="3.2"/>
<circle clip-path="url(#clip483)" cx="629.178" cy="383.246" r="14" fill="#e26f46" fill-rule="evenodd" fill-opacity="1" stroke="#000000" stroke-opacity="1" stroke-width="3.2"/>
<circle clip-path="url(#clip483)" cx="708.423" cy="414.045" r="14" fill="#e26f46" fill-rule="evenodd" fill-opacity="1" stroke="#000000" stroke-opacity="1" stroke-width="3.2"/>
<circle clip-path="url(#clip483)" cx="787.668" cy="537.119" r="14" fill="#e26f46" fill-rule="evenodd" fill-opacity="1" stroke="#000000" stroke-opacity="1" stroke-width="3.2"/>
<circle clip-path="url(#clip483)" cx="866.913" cy="521.953" r="14" fill="#e26f46" fill-rule="evenodd" fill-opacity="1" stroke="#000000" stroke-opacity="1" stroke-width="3.2"/>
<circle clip-path="url(#clip483)" cx="946.158" cy="704.13" r="14" fill="#e26f46" fill-rule="evenodd" fill-opacity="1" stroke="#000000" stroke-opacity="1" stroke-width="3.2"/>
<circle clip-path="url(#clip483)" cx="1025.4" cy="640.962" r="14" fill="#e26f46" fill-rule="evenodd" fill-opacity="1" stroke="#000000" stroke-opacity="1" stroke-width="3.2"/>
<circle clip-path="url(#clip483)" cx="1104.65" cy="893.394" r="14" fill="#e26f46" fill-rule="evenodd" fill-opacity="1" stroke="#000000" stroke-opacity="1" stroke-width="3.2"/>
<circle clip-path="url(#clip483)" cx="1183.89" cy="768.009" r="14" fill="#e26f46" fill-rule="evenodd" fill-opacity="1" stroke="#000000" stroke-opacity="1" stroke-width="3.2"/>
<circle clip-path="url(#clip483)" cx="1263.14" cy="1156.62" r="14" fill="#e26f46" fill-rule="evenodd" fill-opacity="1" stroke="#000000" stroke-opacity="1" stroke-width="3.2"/>
<circle clip-path="url(#clip483)" cx="1342.38" cy="901.92" r="14" fill="#e26f46" fill-rule="evenodd" fill-opacity="1" stroke="#000000" stroke-opacity="1" stroke-width="3.2"/>
<circle clip-path="url(#clip483)" cx="1421.63" cy="1263.97" r="14" fill="#e26f46" fill-rule="evenodd" fill-opacity="1" stroke="#000000" stroke-opacity="1" stroke-width="3.2"/>
<circle clip-path="url(#clip483)" cx="1500.87" cy="1042.16" r="14" fill="#e26f46" fill-rule="evenodd" fill-opacity="1" stroke="#000000" stroke-opacity="1" stroke-width="3.2"/>
<circle clip-path="url(#clip483)" cx="1580.12" cy="1314.59" r="14" fill="#e26f46" fill-rule="evenodd" fill-opacity="1" stroke="#000000" stroke-opacity="1" stroke-width="3.2"/>
<circle clip-path="url(#clip483)" cx="1659.36" cy="1188.42" r="14" fill="#e26f46" fill-rule="evenodd" fill-opacity="1" stroke="#000000" stroke-opacity="1" stroke-width="3.2"/>
<circle clip-path="url(#clip483)" cx="1738.61" cy="1420.07" r="14" fill="#e26f46" fill-rule="evenodd" fill-opacity="1" stroke="#000000" stroke-opacity="1" stroke-width="3.2"/>
<circle clip-path="url(#clip483)" cx="1817.85" cy="1340.51" r="14" fill="#e26f46" fill-rule="evenodd" fill-opacity="1" stroke="#000000" stroke-opacity="1" stroke-width="3.2"/>
<path clip-path="url(#clip480)" d="
M1834.86 248.629 L2282.76 248.629 L2282.76 93.1086 L1834.86 93.1086  Z
  " fill="#ffffff" fill-rule="evenodd" fill-opacity="1"/>
<polyline clip-path="url(#clip480)" style="stroke:#000000; stroke-linecap:butt; stroke-linejoin:round; stroke-width:4; stroke-opacity:1; fill:none" points="
  1834.86,248.629 2282.76,248.629 2282.76,93.1086 1834.86,93.1086 1834.86,248.629 
  "/>
<polyline clip-path="url(#clip480)" style="stroke:#009af9; stroke-linecap:butt; stroke-linejoin:round; stroke-width:4; stroke-opacity:1; fill:none" points="
  1858.2,144.949 1998.2,144.949 
  "/>
<line clip-path="url(#clip480)" x1="1928.2" y1="144.949" x2="1928.2" y2="119.349" style="stroke:#009af9; stroke-width:5.12; stroke-opacity:1"/>
<line clip-path="url(#clip480)" x1="1928.2" y1="144.949" x2="1902.6" y2="144.949" style="stroke:#009af9; stroke-width:5.12; stroke-opacity:1"/>
<line clip-path="url(#clip480)" x1="1928.2" y1="144.949" x2="1928.2" y2="170.549" style="stroke:#009af9; stroke-width:5.12; stroke-opacity:1"/>
<line clip-path="url(#clip480)" x1="1928.2" y1="144.949" x2="1953.8" y2="144.949" style="stroke:#009af9; stroke-width:5.12; stroke-opacity:1"/>
<path clip-path="url(#clip480)" d="M2038.04 126.21 L2038.04 129.752 L2033.96 129.752 Q2031.67 129.752 2030.77 130.678 Q2029.89 131.604 2029.89 134.011 L2029.89 136.303 L2036.9 136.303 L2036.9 139.613 L2029.89 139.613 L2029.89 162.229 L2025.6 162.229 L2025.6 139.613 L2021.53 139.613 L2021.53 136.303 L2025.6 136.303 L2025.6 134.497 Q2025.6 130.169 2027.62 128.201 Q2029.63 126.21 2034.01 126.21 L2038.04 126.21 Z" fill="#000000" fill-rule="evenodd" fill-opacity="1" /><path clip-path="url(#clip480)" d="M2056.62 140.284 Q2055.91 139.868 2055.05 139.682 Q2054.22 139.474 2053.2 139.474 Q2049.59 139.474 2047.64 141.835 Q2045.72 144.173 2045.72 148.571 L2045.72 162.229 L2041.44 162.229 L2041.44 136.303 L2045.72 136.303 L2045.72 140.331 Q2047.06 137.969 2049.22 136.835 Q2051.37 135.678 2054.45 135.678 Q2054.89 135.678 2055.42 135.747 Q2055.95 135.794 2056.6 135.909 L2056.62 140.284 Z" fill="#000000" fill-rule="evenodd" fill-opacity="1" /><path clip-path="url(#clip480)" d="M2070.1 139.289 Q2066.67 139.289 2064.68 141.974 Q2062.69 144.636 2062.69 149.289 Q2062.69 153.942 2064.66 156.627 Q2066.65 159.289 2070.1 159.289 Q2073.5 159.289 2075.49 156.604 Q2077.48 153.918 2077.48 149.289 Q2077.48 144.682 2075.49 141.997 Q2073.5 139.289 2070.1 139.289 M2070.1 135.678 Q2075.65 135.678 2078.82 139.289 Q2081.99 142.9 2081.99 149.289 Q2081.99 155.655 2078.82 159.289 Q2075.65 162.9 2070.1 162.9 Q2064.52 162.9 2061.35 159.289 Q2058.2 155.655 2058.2 149.289 Q2058.2 142.9 2061.35 139.289 Q2064.52 135.678 2070.1 135.678 Z" fill="#000000" fill-rule="evenodd" fill-opacity="1" /><path clip-path="url(#clip480)" d="M2109.24 141.28 Q2110.84 138.409 2113.06 137.044 Q2115.28 135.678 2118.29 135.678 Q2122.34 135.678 2124.54 138.525 Q2126.74 141.349 2126.74 146.581 L2126.74 162.229 L2122.46 162.229 L2122.46 146.719 Q2122.46 142.993 2121.14 141.187 Q2119.82 139.382 2117.11 139.382 Q2113.8 139.382 2111.88 141.581 Q2109.96 143.78 2109.96 147.576 L2109.96 162.229 L2105.67 162.229 L2105.67 146.719 Q2105.67 142.969 2104.35 141.187 Q2103.03 139.382 2100.28 139.382 Q2097.02 139.382 2095.1 141.604 Q2093.17 143.803 2093.17 147.576 L2093.17 162.229 L2088.89 162.229 L2088.89 136.303 L2093.17 136.303 L2093.17 140.331 Q2094.63 137.946 2096.67 136.812 Q2098.71 135.678 2101.51 135.678 Q2104.33 135.678 2106.3 137.113 Q2108.29 138.548 2109.24 141.28 Z" fill="#000000" fill-rule="evenodd" fill-opacity="1" /><path clip-path="url(#clip480)" d="M2171.21 128.803 L2171.21 133.363 Q2168.54 132.09 2166.18 131.465 Q2163.82 130.84 2161.62 130.84 Q2157.8 130.84 2155.72 132.321 Q2153.66 133.803 2153.66 136.534 Q2153.66 138.826 2155.03 140.007 Q2156.41 141.164 2160.26 141.882 L2163.08 142.46 Q2168.31 143.456 2170.79 145.979 Q2173.29 148.479 2173.29 152.692 Q2173.29 157.715 2169.91 160.307 Q2166.55 162.9 2160.05 162.9 Q2157.59 162.9 2154.82 162.344 Q2152.06 161.789 2149.1 160.701 L2149.1 155.886 Q2151.95 157.483 2154.68 158.293 Q2157.41 159.104 2160.05 159.104 Q2164.05 159.104 2166.23 157.53 Q2168.4 155.956 2168.4 153.039 Q2168.4 150.493 2166.83 149.057 Q2165.28 147.622 2161.72 146.905 L2158.87 146.349 Q2153.64 145.307 2151.3 143.085 Q2148.96 140.863 2148.96 136.905 Q2148.96 132.321 2152.18 129.682 Q2155.42 127.044 2161.09 127.044 Q2163.52 127.044 2166.04 127.483 Q2168.57 127.923 2171.21 128.803 Z" fill="#000000" fill-rule="evenodd" fill-opacity="1" /><path clip-path="url(#clip480)" d="M2185.26 131.511 L2185.26 144.497 L2191.14 144.497 Q2194.4 144.497 2196.18 142.807 Q2197.96 141.118 2197.96 137.993 Q2197.96 134.891 2196.18 133.201 Q2194.4 131.511 2191.14 131.511 L2185.26 131.511 M2180.58 127.669 L2191.14 127.669 Q2196.95 127.669 2199.91 130.307 Q2202.9 132.923 2202.9 137.993 Q2202.9 143.108 2199.91 145.724 Q2196.95 148.34 2191.14 148.34 L2185.26 148.34 L2185.26 162.229 L2180.58 162.229 L2180.58 127.669 Z" fill="#000000" fill-rule="evenodd" fill-opacity="1" /><path clip-path="url(#clip480)" d="M2225.56 146.025 Q2227.06 146.534 2228.47 148.201 Q2229.91 149.868 2231.34 152.784 L2236.09 162.229 L2231.07 162.229 L2226.65 153.363 Q2224.93 149.891 2223.31 148.756 Q2221.71 147.622 2218.94 147.622 L2213.84 147.622 L2213.84 162.229 L2209.17 162.229 L2209.17 127.669 L2219.72 127.669 Q2225.65 127.669 2228.57 130.145 Q2231.48 132.622 2231.48 137.622 Q2231.48 140.886 2229.96 143.039 Q2228.45 145.192 2225.56 146.025 M2213.84 131.511 L2213.84 143.78 L2219.72 143.78 Q2223.1 143.78 2224.82 142.229 Q2226.55 140.655 2226.55 137.622 Q2226.55 134.59 2224.82 133.062 Q2223.1 131.511 2219.72 131.511 L2213.84 131.511 Z" fill="#000000" fill-rule="evenodd" fill-opacity="1" /><polyline clip-path="url(#clip480)" style="stroke:#e26f46; stroke-linecap:butt; stroke-linejoin:round; stroke-width:4; stroke-opacity:1; fill:none" points="
  1858.2,196.789 1998.2,196.789 
  "/>
<circle clip-path="url(#clip480)" cx="1928.2" cy="196.789" r="23" fill="#e26f46" fill-rule="evenodd" fill-opacity="1" stroke="#000000" stroke-opacity="1" stroke-width="5.12"/>
<path clip-path="url(#clip480)" d="M2045.56 200.041 L2045.56 202.124 L2025.98 202.124 Q2026.25 206.522 2028.61 208.837 Q2031 211.129 2035.23 211.129 Q2037.69 211.129 2039.98 210.527 Q2042.29 209.925 2044.56 208.721 L2044.56 212.749 Q2042.27 213.721 2039.86 214.231 Q2037.46 214.74 2034.98 214.74 Q2028.78 214.74 2025.14 211.129 Q2021.53 207.518 2021.53 201.36 Q2021.53 194.995 2024.96 191.268 Q2028.41 187.518 2034.24 187.518 Q2039.47 187.518 2042.5 190.897 Q2045.56 194.254 2045.56 200.041 M2041.3 198.791 Q2041.25 195.296 2039.33 193.212 Q2037.43 191.129 2034.29 191.129 Q2030.72 191.129 2028.57 193.143 Q2026.44 195.157 2026.11 198.814 L2041.3 198.791 Z" fill="#000000" fill-rule="evenodd" fill-opacity="1" /><path clip-path="url(#clip480)" d="M2073.27 188.143 L2063.89 200.759 L2073.75 214.069 L2068.73 214.069 L2061.18 203.883 L2053.64 214.069 L2048.61 214.069 L2058.68 200.504 L2049.47 188.143 L2054.49 188.143 L2061.37 197.379 L2068.24 188.143 L2073.27 188.143 Z" fill="#000000" fill-rule="evenodd" fill-opacity="1" /><path clip-path="url(#clip480)" d="M2091.55 201.036 Q2086.39 201.036 2084.4 202.217 Q2082.41 203.397 2082.41 206.245 Q2082.41 208.513 2083.89 209.856 Q2085.4 211.175 2087.97 211.175 Q2091.51 211.175 2093.64 208.675 Q2095.79 206.152 2095.79 201.985 L2095.79 201.036 L2091.55 201.036 M2100.05 199.277 L2100.05 214.069 L2095.79 214.069 L2095.79 210.133 Q2094.33 212.495 2092.16 213.629 Q2089.98 214.74 2086.83 214.74 Q2082.85 214.74 2080.49 212.518 Q2078.15 210.272 2078.15 206.522 Q2078.15 202.147 2081.07 199.925 Q2084.01 197.703 2089.82 197.703 L2095.79 197.703 L2095.79 197.286 Q2095.79 194.347 2093.85 192.749 Q2091.92 191.129 2088.43 191.129 Q2086.21 191.129 2084.1 191.661 Q2081.99 192.194 2080.05 193.259 L2080.05 189.323 Q2082.39 188.421 2084.59 187.981 Q2086.78 187.518 2088.87 187.518 Q2094.49 187.518 2097.27 190.434 Q2100.05 193.351 2100.05 199.277 Z" fill="#000000" fill-rule="evenodd" fill-opacity="1" /><path clip-path="url(#clip480)" d="M2127.48 189.138 L2127.48 193.12 Q2125.67 192.124 2123.84 191.638 Q2122.04 191.129 2120.19 191.129 Q2116.04 191.129 2113.75 193.768 Q2111.46 196.384 2111.46 201.129 Q2111.46 205.874 2113.75 208.513 Q2116.04 211.129 2120.19 211.129 Q2122.04 211.129 2123.84 210.643 Q2125.67 210.133 2127.48 209.138 L2127.48 213.073 Q2125.7 213.907 2123.78 214.323 Q2121.88 214.74 2119.72 214.74 Q2113.87 214.74 2110.42 211.059 Q2106.97 207.379 2106.97 201.129 Q2106.97 194.786 2110.44 191.152 Q2113.94 187.518 2120 187.518 Q2121.97 187.518 2123.84 187.935 Q2125.72 188.328 2127.48 189.138 Z" fill="#000000" fill-rule="evenodd" fill-opacity="1" /><path clip-path="url(#clip480)" d="M2139.1 180.782 L2139.1 188.143 L2147.87 188.143 L2147.87 191.453 L2139.1 191.453 L2139.1 205.527 Q2139.1 208.698 2139.96 209.601 Q2140.84 210.504 2143.5 210.504 L2147.87 210.504 L2147.87 214.069 L2143.5 214.069 Q2138.57 214.069 2136.69 212.24 Q2134.82 210.388 2134.82 205.527 L2134.82 191.453 L2131.69 191.453 L2131.69 188.143 L2134.82 188.143 L2134.82 180.782 L2139.1 180.782 Z" fill="#000000" fill-rule="evenodd" fill-opacity="1" /></svg>
