<?xml version="1.0" encoding="utf-8"?>
<svg xmlns="http://www.w3.org/2000/svg" xmlns:xlink="http://www.w3.org/1999/xlink" width="600" height="400" viewBox="0 0 2400 1600">
<defs>
  <clipPath id="clip110">
    <rect x="0" y="0" width="2400" height="1600"/>
  </clipPath>
</defs>
<path clip-path="url(#clip110)" d="
M0 1600 L2400 1600 L2400 0 L0 0  Z
  " fill="#ffffff" fill-rule="evenodd" fill-opacity="1"/>
<defs>
  <clipPath id="clip111">
    <rect x="480" y="0" width="1681" height="1600"/>
  </clipPath>
</defs>
<defs>
  <clipPath id="clip112">
    <rect x="219" y="47" width="2134" height="1377"/>
  </clipPath>
</defs>
<path clip-path="url(#clip110)" d="
M189.496 1423.18 L2352.76 1423.18 L2352.76 47.2441 L189.496 47.2441  Z
  " fill="#ffffff" fill-rule="evenodd" fill-opacity="1"/>
<defs>
  <clipPath id="clip113">
    <rect x="189" y="47" width="2164" height="1377"/>
  </clipPath>
</defs>
<polyline clip-path="url(#clip113)" style="stroke:#000000; stroke-linecap:round; stroke-linejoin:round; stroke-width:2; stroke-opacity:0.1; fill:none" points="
  605.644,1423.18 605.644,47.2441 
  "/>
<polyline clip-path="url(#clip113)" style="stroke:#000000; stroke-linecap:round; stroke-linejoin:round; stroke-width:2; stroke-opacity:0.1; fill:none" points="
  1049.3,1423.18 1049.3,47.2441 
  "/>
<polyline clip-path="url(#clip113)" style="stroke:#000000; stroke-linecap:round; stroke-linejoin:round; stroke-width:2; stroke-opacity:0.1; fill:none" points="
  1492.95,1423.18 1492.95,47.2441 
  "/>
<polyline clip-path="url(#clip113)" style="stroke:#000000; stroke-linecap:round; stroke-linejoin:round; stroke-width:2; stroke-opacity:0.1; fill:none" points="
  1936.61,1423.18 1936.61,47.2441 
  "/>
<polyline clip-path="url(#clip110)" style="stroke:#000000; stroke-linecap:round; stroke-linejoin:round; stroke-width:4; stroke-opacity:1; fill:none" points="
  189.496,1423.18 2352.76,1423.18 
  "/>
<polyline clip-path="url(#clip110)" style="stroke:#000000; stroke-linecap:round; stroke-linejoin:round; stroke-width:4; stroke-opacity:1; fill:none" points="
  605.644,1423.18 605.644,1404.28 
  "/>
<polyline clip-path="url(#clip110)" style="stroke:#000000; stroke-linecap:round; stroke-linejoin:round; stroke-width:4; stroke-opacity:1; fill:none" points="
  1049.3,1423.18 1049.3,1404.28 
  "/>
<polyline clip-path="url(#clip110)" style="stroke:#000000; stroke-linecap:round; stroke-linejoin:round; stroke-width:4; stroke-opacity:1; fill:none" points="
  1492.95,1423.18 1492.95,1404.28 
  "/>
<polyline clip-path="url(#clip110)" style="stroke:#000000; stroke-linecap:round; stroke-linejoin:round; stroke-width:4; stroke-opacity:1; fill:none" points="
  1936.61,1423.18 1936.61,1404.28 
  "/>
<path clip-path="url(#clip110)" d="M595.922 1451.02 L614.278 1451.02 L614.278 1454.96 L600.204 1454.96 L600.204 1463.43 Q601.223 1463.08 602.241 1462.92 Q603.26 1462.73 604.278 1462.73 Q610.065 1462.73 613.445 1465.9 Q616.824 1469.08 616.824 1474.49 Q616.824 1480.07 613.352 1483.17 Q609.88 1486.25 603.561 1486.25 Q601.385 1486.25 599.116 1485.88 Q596.871 1485.51 594.463 1484.77 L594.463 1480.07 Q596.547 1481.2 598.769 1481.76 Q600.991 1482.32 603.468 1482.32 Q607.473 1482.32 609.811 1480.21 Q612.149 1478.1 612.149 1474.49 Q612.149 1470.88 609.811 1468.77 Q607.473 1466.67 603.468 1466.67 Q601.593 1466.67 599.718 1467.08 Q597.866 1467.5 595.922 1468.38 L595.922 1451.02 Z" fill="#000000" fill-rule="evenodd" fill-opacity="1" /><path clip-path="url(#clip110)" d="M1023.99 1481.64 L1031.63 1481.64 L1031.63 1455.28 L1023.31 1456.95 L1023.31 1452.69 L1031.58 1451.02 L1036.25 1451.02 L1036.25 1481.64 L1043.89 1481.64 L1043.89 1485.58 L1023.99 1485.58 L1023.99 1481.64 Z" fill="#000000" fill-rule="evenodd" fill-opacity="1" /><path clip-path="url(#clip110)" d="M1063.34 1454.1 Q1059.73 1454.1 1057.9 1457.66 Q1056.09 1461.2 1056.09 1468.33 Q1056.09 1475.44 1057.9 1479.01 Q1059.73 1482.55 1063.34 1482.55 Q1066.97 1482.55 1068.78 1479.01 Q1070.61 1475.44 1070.61 1468.33 Q1070.61 1461.2 1068.78 1457.66 Q1066.97 1454.1 1063.34 1454.1 M1063.34 1450.39 Q1069.15 1450.39 1072.2 1455 Q1075.28 1459.58 1075.28 1468.33 Q1075.28 1477.06 1072.2 1481.67 Q1069.15 1486.25 1063.34 1486.25 Q1057.53 1486.25 1054.45 1481.67 Q1051.39 1477.06 1051.39 1468.33 Q1051.39 1459.58 1054.45 1455 Q1057.53 1450.39 1063.34 1450.39 Z" fill="#000000" fill-rule="evenodd" fill-opacity="1" /><path clip-path="url(#clip110)" d="M1468.14 1481.64 L1475.78 1481.64 L1475.78 1455.28 L1467.47 1456.95 L1467.47 1452.69 L1475.73 1451.02 L1480.41 1451.02 L1480.41 1481.64 L1488.05 1481.64 L1488.05 1485.58 L1468.14 1485.58 L1468.14 1481.64 Z" fill="#000000" fill-rule="evenodd" fill-opacity="1" /><path clip-path="url(#clip110)" d="M1497.54 1451.02 L1515.89 1451.02 L1515.89 1454.96 L1501.82 1454.96 L1501.82 1463.43 Q1502.84 1463.08 1503.86 1462.92 Q1504.87 1462.73 1505.89 1462.73 Q1511.68 1462.73 1515.06 1465.9 Q1518.44 1469.08 1518.44 1474.49 Q1518.44 1480.07 1514.97 1483.17 Q1511.49 1486.25 1505.18 1486.25 Q1503 1486.25 1500.73 1485.88 Q1498.49 1485.51 1496.08 1484.77 L1496.08 1480.07 Q1498.16 1481.2 1500.38 1481.76 Q1502.61 1482.32 1505.08 1482.32 Q1509.09 1482.32 1511.43 1480.21 Q1513.76 1478.1 1513.76 1474.49 Q1513.76 1470.88 1511.43 1468.77 Q1509.09 1466.67 1505.08 1466.67 Q1503.21 1466.67 1501.33 1467.08 Q1499.48 1467.5 1497.54 1468.38 L1497.54 1451.02 Z" fill="#000000" fill-rule="evenodd" fill-opacity="1" /><path clip-path="url(#clip110)" d="M1915.38 1481.64 L1931.7 1481.64 L1931.7 1485.58 L1909.76 1485.58 L1909.76 1481.64 Q1912.42 1478.89 1917 1474.26 Q1921.61 1469.61 1922.79 1468.27 Q1925.03 1465.74 1925.91 1464.01 Q1926.82 1462.25 1926.82 1460.56 Q1926.82 1457.8 1924.87 1456.07 Q1922.95 1454.33 1919.85 1454.33 Q1917.65 1454.33 1915.2 1455.09 Q1912.77 1455.86 1909.99 1457.41 L1909.99 1452.69 Q1912.81 1451.55 1915.27 1450.97 Q1917.72 1450.39 1919.76 1450.39 Q1925.13 1450.39 1928.32 1453.08 Q1931.52 1455.77 1931.52 1460.26 Q1931.52 1462.39 1930.71 1464.31 Q1929.92 1466.2 1927.81 1468.8 Q1927.23 1469.47 1924.13 1472.69 Q1921.03 1475.88 1915.38 1481.64 Z" fill="#000000" fill-rule="evenodd" fill-opacity="1" /><path clip-path="url(#clip110)" d="M1951.52 1454.1 Q1947.9 1454.1 1946.08 1457.66 Q1944.27 1461.2 1944.27 1468.33 Q1944.27 1475.44 1946.08 1479.01 Q1947.9 1482.55 1951.52 1482.55 Q1955.15 1482.55 1956.95 1479.01 Q1958.78 1475.44 1958.78 1468.33 Q1958.78 1461.2 1956.95 1457.66 Q1955.15 1454.1 1951.52 1454.1 M1951.52 1450.39 Q1957.33 1450.39 1960.38 1455 Q1963.46 1459.58 1963.46 1468.33 Q1963.46 1477.06 1960.38 1481.67 Q1957.33 1486.25 1951.52 1486.25 Q1945.71 1486.25 1942.63 1481.67 Q1939.57 1477.06 1939.57 1468.33 Q1939.57 1459.58 1942.63 1455 Q1945.71 1450.39 1951.52 1450.39 Z" fill="#000000" fill-rule="evenodd" fill-opacity="1" /><path clip-path="url(#clip110)" d="M1275.5 1516.77 L1266 1554.9 Q1265.62 1556.42 1265.62 1558.06 Q1265.62 1561.09 1267.61 1561.09 Q1268.55 1561.09 1269.32 1560.48 Q1270.09 1559.83 1270.67 1558.58 Q1271.28 1557.29 1271.67 1556.06 Q1272.09 1554.84 1272.6 1552.94 Q1272.77 1552.2 1272.93 1551.97 Q1273.09 1551.75 1273.54 1551.75 Q1274.34 1551.75 1274.34 1552.39 Q1273.54 1556.35 1272.35 1558.87 Q1270.61 1562.57 1267.39 1562.57 Q1264.97 1562.57 1263.17 1560.89 Q1261.4 1559.19 1261.4 1556.48 Q1261.4 1555.45 1261.72 1554.23 L1270.03 1521.25 L1270.25 1519.96 Q1270.25 1519.61 1270.12 1519.41 Q1270 1519.22 1269.22 1519.03 Q1268.48 1518.83 1267 1518.83 Q1266.39 1518.83 1266.1 1518.8 Q1265.84 1518.77 1265.58 1518.61 Q1265.36 1518.45 1265.36 1518.09 Q1265.36 1517.51 1265.58 1517.19 Q1265.84 1516.87 1266.03 1516.8 Q1266.23 1516.74 1266.61 1516.71 Q1267.16 1516.68 1269 1516.52 Q1270.83 1516.32 1272.41 1516.19 Q1273.99 1516.06 1274.67 1516.06 Q1275.05 1516.06 1275.25 1516.26 Q1275.47 1516.42 1275.5 1516.61 L1275.5 1516.77 Z" fill="#000000" fill-rule="evenodd" fill-opacity="1" /><polyline clip-path="url(#clip113)" style="stroke:#000000; stroke-linecap:round; stroke-linejoin:round; stroke-width:2; stroke-opacity:0.1; fill:none" points="
  189.496,1423.18 2352.76,1423.18 
  "/>
<polyline clip-path="url(#clip113)" style="stroke:#000000; stroke-linecap:round; stroke-linejoin:round; stroke-width:2; stroke-opacity:0.1; fill:none" points="
  189.496,1147.99 2352.76,1147.99 
  "/>
<polyline clip-path="url(#clip113)" style="stroke:#000000; stroke-linecap:round; stroke-linejoin:round; stroke-width:2; stroke-opacity:0.1; fill:none" points="
  189.496,872.806 2352.76,872.806 
  "/>
<polyline clip-path="url(#clip113)" style="stroke:#000000; stroke-linecap:round; stroke-linejoin:round; stroke-width:2; stroke-opacity:0.1; fill:none" points="
  189.496,597.618 2352.76,597.618 
  "/>
<polyline clip-path="url(#clip113)" style="stroke:#000000; stroke-linecap:round; stroke-linejoin:round; stroke-width:2; stroke-opacity:0.1; fill:none" points="
  189.496,322.431 2352.76,322.431 
  "/>
<polyline clip-path="url(#clip113)" style="stroke:#000000; stroke-linecap:round; stroke-linejoin:round; stroke-width:2; stroke-opacity:0.1; fill:none" points="
  189.496,47.2441 2352.76,47.2441 
  "/>
<polyline clip-path="url(#clip110)" style="stroke:#000000; stroke-linecap:round; stroke-linejoin:round; stroke-width:4; stroke-opacity:1; fill:none" points="
  189.496,1423.18 189.496,47.2441 
  "/>
<polyline clip-path="url(#clip110)" style="stroke:#000000; stroke-linecap:round; stroke-linejoin:round; stroke-width:4; stroke-opacity:1; fill:none" points="
  189.496,1423.18 208.394,1423.18 
  "/>
<polyline clip-path="url(#clip110)" style="stroke:#000000; stroke-linecap:round; stroke-linejoin:round; stroke-width:4; stroke-opacity:1; fill:none" points="
  189.496,1147.99 208.394,1147.99 
  "/>
<polyline clip-path="url(#clip110)" style="stroke:#000000; stroke-linecap:round; stroke-linejoin:round; stroke-width:4; stroke-opacity:1; fill:none" points="
  189.496,872.806 208.394,872.806 
  "/>
<polyline clip-path="url(#clip110)" style="stroke:#000000; stroke-linecap:round; stroke-linejoin:round; stroke-width:4; stroke-opacity:1; fill:none" points="
  189.496,597.618 208.394,597.618 
  "/>
<polyline clip-path="url(#clip110)" style="stroke:#000000; stroke-linecap:round; stroke-linejoin:round; stroke-width:4; stroke-opacity:1; fill:none" points="
  189.496,322.431 208.394,322.431 
  "/>
<polyline clip-path="url(#clip110)" style="stroke:#000000; stroke-linecap:round; stroke-linejoin:round; stroke-width:4; stroke-opacity:1; fill:none" points="
  189.496,47.2441 208.394,47.2441 
  "/>
<path clip-path="url(#clip110)" d="M52.8671 1442.97 L60.506 1442.97 L60.506 1416.61 L52.1958 1418.27 L52.1958 1414.01 L60.4597 1412.35 L65.1356 1412.35 L65.1356 1442.97 L72.7744 1442.97 L72.7744 1446.91 L52.8671 1446.91 L52.8671 1442.97 Z" fill="#000000" fill-rule="evenodd" fill-opacity="1" /><path clip-path="url(#clip110)" d="M92.2188 1415.43 Q88.6077 1415.43 86.779 1418.99 Q84.9734 1422.53 84.9734 1429.66 Q84.9734 1436.77 86.779 1440.33 Q88.6077 1443.88 92.2188 1443.88 Q95.853 1443.88 97.6585 1440.33 Q99.4872 1436.77 99.4872 1429.66 Q99.4872 1422.53 97.6585 1418.99 Q95.853 1415.43 92.2188 1415.43 M92.2188 1411.72 Q98.0289 1411.72 101.084 1416.33 Q104.163 1420.91 104.163 1429.66 Q104.163 1438.39 101.084 1443 Q98.0289 1447.58 92.2188 1447.58 Q86.4086 1447.58 83.3299 1443 Q80.2744 1438.39 80.2744 1429.66 Q80.2744 1420.91 83.3299 1416.33 Q86.4086 1411.72 92.2188 1411.72 Z" fill="#000000" fill-rule="evenodd" fill-opacity="1" /><path clip-path="url(#clip110)" d="M104.163 1405.82 L128.275 1405.82 L128.275 1409.02 L104.163 1409.02 L104.163 1405.82 Z" fill="#000000" fill-rule="evenodd" fill-opacity="1" /><path clip-path="url(#clip110)" d="M136.513 1391.42 L151.427 1391.42 L151.427 1394.61 L139.992 1394.61 L139.992 1401.5 Q140.819 1401.22 141.647 1401.08 Q142.475 1400.93 143.302 1400.93 Q148.004 1400.93 150.75 1403.51 Q153.496 1406.09 153.496 1410.49 Q153.496 1415.02 150.675 1417.54 Q147.854 1420.04 142.719 1420.04 Q140.951 1420.04 139.108 1419.74 Q137.284 1419.44 135.328 1418.84 L135.328 1415.02 Q137.02 1415.94 138.826 1416.39 Q140.631 1416.85 142.644 1416.85 Q145.898 1416.85 147.797 1415.13 Q149.697 1413.42 149.697 1410.49 Q149.697 1407.55 147.797 1405.84 Q145.898 1404.13 142.644 1404.13 Q141.12 1404.13 139.597 1404.47 Q138.092 1404.81 136.513 1405.52 L136.513 1391.42 Z" fill="#000000" fill-rule="evenodd" fill-opacity="1" /><path clip-path="url(#clip110)" d="M51.6634 1167.79 L59.3023 1167.79 L59.3023 1141.42 L50.9921 1143.09 L50.9921 1138.83 L59.256 1137.16 L63.9319 1137.16 L63.9319 1167.79 L71.5707 1167.79 L71.5707 1171.72 L51.6634 1171.72 L51.6634 1167.79 Z" fill="#000000" fill-rule="evenodd" fill-opacity="1" /><path clip-path="url(#clip110)" d="M91.0151 1140.24 Q87.404 1140.24 85.5753 1143.8 Q83.7697 1147.35 83.7697 1154.48 Q83.7697 1161.58 85.5753 1165.15 Q87.404 1168.69 91.0151 1168.69 Q94.6493 1168.69 96.4548 1165.15 Q98.2835 1161.58 98.2835 1154.48 Q98.2835 1147.35 96.4548 1143.8 Q94.6493 1140.24 91.0151 1140.24 M91.0151 1136.54 Q96.8252 1136.54 99.8808 1141.14 Q102.959 1145.73 102.959 1154.48 Q102.959 1163.2 99.8808 1167.81 Q96.8252 1172.39 91.0151 1172.39 Q85.2049 1172.39 82.1262 1167.81 Q79.0707 1163.2 79.0707 1154.48 Q79.0707 1145.73 82.1262 1141.14 Q85.2049 1136.54 91.0151 1136.54 Z" fill="#000000" fill-rule="evenodd" fill-opacity="1" /><path clip-path="url(#clip110)" d="M102.959 1130.64 L127.071 1130.64 L127.071 1133.83 L102.959 1133.83 L102.959 1130.64 Z" fill="#000000" fill-rule="evenodd" fill-opacity="1" /><path clip-path="url(#clip110)" d="M145.71 1119.54 L136.118 1134.53 L145.71 1134.53 L145.71 1119.54 M144.713 1116.23 L149.49 1116.23 L149.49 1134.53 L153.496 1134.53 L153.496 1137.69 L149.49 1137.69 L149.49 1144.31 L145.71 1144.31 L145.71 1137.69 L133.033 1137.69 L133.033 1134.02 L144.713 1116.23 Z" fill="#000000" fill-rule="evenodd" fill-opacity="1" /><path clip-path="url(#clip110)" d="M52.585 892.598 L60.2238 892.598 L60.2238 866.232 L51.9137 867.899 L51.9137 863.64 L60.1776 861.973 L64.8535 861.973 L64.8535 892.598 L72.4923 892.598 L72.4923 896.533 L52.585 896.533 L52.585 892.598 Z" fill="#000000" fill-rule="evenodd" fill-opacity="1" /><path clip-path="url(#clip110)" d="M91.9366 865.052 Q88.3255 865.052 86.4969 868.617 Q84.6913 872.158 84.6913 879.288 Q84.6913 886.394 86.4969 889.959 Q88.3255 893.501 91.9366 893.501 Q95.5709 893.501 97.3764 889.959 Q99.2051 886.394 99.2051 879.288 Q99.2051 872.158 97.3764 868.617 Q95.5709 865.052 91.9366 865.052 M91.9366 861.348 Q97.7468 861.348 100.802 865.955 Q103.881 870.538 103.881 879.288 Q103.881 888.015 100.802 892.621 Q97.7468 897.204 91.9366 897.204 Q86.1265 897.204 83.0478 892.621 Q79.9923 888.015 79.9923 879.288 Q79.9923 870.538 83.0478 865.955 Q86.1265 861.348 91.9366 861.348 Z" fill="#000000" fill-rule="evenodd" fill-opacity="1" /><path clip-path="url(#clip110)" d="M103.881 855.449 L127.993 855.449 L127.993 858.647 L103.881 858.647 L103.881 855.449 Z" fill="#000000" fill-rule="evenodd" fill-opacity="1" /><path clip-path="url(#clip110)" d="M147.703 853.982 Q150.43 854.566 151.954 856.409 Q153.496 858.252 153.496 860.96 Q153.496 865.117 150.637 867.392 Q147.778 869.668 142.512 869.668 Q140.744 869.668 138.863 869.311 Q137.002 868.972 135.008 868.276 L135.008 864.609 Q136.588 865.53 138.469 866.001 Q140.349 866.471 142.399 866.471 Q145.973 866.471 147.835 865.06 Q149.716 863.65 149.716 860.96 Q149.716 858.478 147.966 857.086 Q146.236 855.675 143.133 855.675 L139.86 855.675 L139.86 852.553 L143.283 852.553 Q146.086 852.553 147.571 851.443 Q149.057 850.315 149.057 848.209 Q149.057 846.046 147.515 844.898 Q145.992 843.732 143.133 843.732 Q141.572 843.732 139.785 844.071 Q137.998 844.409 135.854 845.124 L135.854 841.739 Q138.017 841.137 139.898 840.836 Q141.797 840.535 143.471 840.535 Q147.797 840.535 150.317 842.51 Q152.838 844.466 152.838 847.814 Q152.838 850.146 151.502 851.763 Q150.167 853.362 147.703 853.982 Z" fill="#000000" fill-rule="evenodd" fill-opacity="1" /><path clip-path="url(#clip110)" d="M53.3561 617.411 L60.995 617.411 L60.995 591.045 L52.6848 592.712 L52.6848 588.453 L60.9487 586.786 L65.6246 586.786 L65.6246 617.411 L73.2634 617.411 L73.2634 621.346 L53.3561 621.346 L53.3561 617.411 Z" fill="#000000" fill-rule="evenodd" fill-opacity="1" /><path clip-path="url(#clip110)" d="M92.7078 589.865 Q89.0967 589.865 87.268 593.429 Q85.4624 596.971 85.4624 604.101 Q85.4624 611.207 87.268 614.772 Q89.0967 618.314 92.7078 618.314 Q96.342 618.314 98.1475 614.772 Q99.9762 611.207 99.9762 604.101 Q99.9762 596.971 98.1475 593.429 Q96.342 589.865 92.7078 589.865 M92.7078 586.161 Q98.5179 586.161 101.573 590.767 Q104.652 595.351 104.652 604.101 Q104.652 612.828 101.573 617.434 Q98.5179 622.017 92.7078 622.017 Q86.8976 622.017 83.8189 617.434 Q80.7634 612.828 80.7634 604.101 Q80.7634 595.351 83.8189 590.767 Q86.8976 586.161 92.7078 586.161 Z" fill="#000000" fill-rule="evenodd" fill-opacity="1" /><path clip-path="url(#clip110)" d="M104.652 580.262 L128.764 580.262 L128.764 583.46 L104.652 583.46 L104.652 580.262 Z" fill="#000000" fill-rule="evenodd" fill-opacity="1" /><path clip-path="url(#clip110)" d="M140.236 590.738 L153.496 590.738 L153.496 593.936 L135.666 593.936 L135.666 590.738 Q137.829 588.5 141.553 584.739 Q145.296 580.958 146.255 579.867 Q148.079 577.817 148.794 576.407 Q149.527 574.977 149.527 573.604 Q149.527 571.366 147.948 569.956 Q146.387 568.545 143.866 568.545 Q142.08 568.545 140.086 569.166 Q138.111 569.786 135.854 571.047 L135.854 567.21 Q138.149 566.288 140.142 565.818 Q142.136 565.348 143.791 565.348 Q148.155 565.348 150.75 567.529 Q153.345 569.711 153.345 573.36 Q153.345 575.09 152.687 576.651 Q152.048 578.193 150.336 580.3 Q149.866 580.845 147.346 583.46 Q144.826 586.055 140.236 590.738 Z" fill="#000000" fill-rule="evenodd" fill-opacity="1" /><path clip-path="url(#clip110)" d="M53.0552 342.224 L60.694 342.224 L60.694 315.858 L52.3839 317.525 L52.3839 313.266 L60.6477 311.599 L65.3236 311.599 L65.3236 342.224 L72.9625 342.224 L72.9625 346.159 L53.0552 346.159 L53.0552 342.224 Z" fill="#000000" fill-rule="evenodd" fill-opacity="1" /><path clip-path="url(#clip110)" d="M92.4068 314.678 Q88.7957 314.678 86.967 318.242 Q85.1615 321.784 85.1615 328.914 Q85.1615 336.02 86.967 339.585 Q88.7957 343.126 92.4068 343.126 Q96.0411 343.126 97.8466 339.585 Q99.6753 336.02 99.6753 328.914 Q99.6753 321.784 97.8466 318.242 Q96.0411 314.678 92.4068 314.678 M92.4068 310.974 Q98.217 310.974 101.273 315.58 Q104.351 320.164 104.351 328.914 Q104.351 337.64 101.273 342.247 Q98.217 346.83 92.4068 346.83 Q86.5967 346.83 83.518 342.247 Q80.4625 337.64 80.4625 328.914 Q80.4625 320.164 83.518 315.58 Q86.5967 310.974 92.4068 310.974 Z" fill="#000000" fill-rule="evenodd" fill-opacity="1" /><path clip-path="url(#clip110)" d="M104.351 305.075 L128.463 305.075 L128.463 308.273 L104.351 308.273 L104.351 305.075 Z" fill="#000000" fill-rule="evenodd" fill-opacity="1" /><path clip-path="url(#clip110)" d="M137.321 315.551 L143.528 315.551 L143.528 294.129 L136.776 295.483 L136.776 292.023 L143.49 290.668 L147.289 290.668 L147.289 315.551 L153.496 315.551 L153.496 318.748 L137.321 318.748 L137.321 315.551 Z" fill="#000000" fill-rule="evenodd" fill-opacity="1" /><path clip-path="url(#clip110)" d="M82.7903 67.0365 L90.4291 67.0365 L90.4291 40.6709 L82.119 42.3376 L82.119 38.0784 L90.3828 36.4117 L95.0587 36.4117 L95.0587 67.0365 L102.698 67.0365 L102.698 70.9717 L82.7903 70.9717 L82.7903 67.0365 Z" fill="#000000" fill-rule="evenodd" fill-opacity="1" /><path clip-path="url(#clip110)" d="M122.142 39.4904 Q118.531 39.4904 116.702 43.0552 Q114.897 46.5968 114.897 53.7264 Q114.897 60.8329 116.702 64.3977 Q118.531 67.9393 122.142 67.9393 Q125.776 67.9393 127.582 64.3977 Q129.41 60.8329 129.41 53.7264 Q129.41 46.5968 127.582 43.0552 Q125.776 39.4904 122.142 39.4904 M122.142 35.7867 Q127.952 35.7867 131.008 40.3932 Q134.086 44.9765 134.086 53.7264 Q134.086 62.4532 131.008 67.0597 Q127.952 71.643 122.142 71.643 Q116.332 71.643 113.253 67.0597 Q110.198 62.4532 110.198 53.7264 Q110.198 44.9765 113.253 40.3932 Q116.332 35.7867 122.142 35.7867 Z" fill="#000000" fill-rule="evenodd" fill-opacity="1" /><path clip-path="url(#clip110)" d="M143.791 17.9827 Q140.857 17.9827 139.371 20.8791 Q137.904 23.7567 137.904 29.5495 Q137.904 35.3235 139.371 38.2199 Q140.857 41.0975 143.791 41.0975 Q146.744 41.0975 148.211 38.2199 Q149.697 35.3235 149.697 29.5495 Q149.697 23.7567 148.211 20.8791 Q146.744 17.9827 143.791 17.9827 M143.791 14.9735 Q148.512 14.9735 150.994 18.7162 Q153.496 22.4402 153.496 29.5495 Q153.496 36.64 150.994 40.3828 Q148.512 44.1067 143.791 44.1067 Q139.07 44.1067 136.569 40.3828 Q134.086 36.64 134.086 29.5495 Q134.086 22.4402 136.569 18.7162 Q139.07 14.9735 143.791 14.9735 Z" fill="#000000" fill-rule="evenodd" fill-opacity="1" /><polyline clip-path="url(#clip113)" style="stroke:#000000; stroke-linecap:round; stroke-linejoin:round; stroke-width:4; stroke-opacity:0; fill:none" points="
  250.72,135.959 339.451,4679.9 428.182,264.337 516.913,4825.27 605.644,319.24 694.375,4886.32 783.106,693.878 871.837,4914.24 960.568,281.348 1049.3,5348.98 
  1138.03,272.938 1226.76,4801.02 1315.49,334.239 1404.22,5052 1492.95,441.542 1581.68,4831.4 1670.42,546.602 1759.15,5033.58 1847.88,545.473 1936.61,4750.94 
  2025.34,504.738 2114.07,4906.63 2202.8,484.017 2291.53,4920.7 
  "/>
<circle clip-path="url(#clip113)" cx="250.72" cy="135.959" r="14.4" fill="#009af9" fill-rule="evenodd" fill-opacity="1" stroke="#000000" stroke-opacity="1" stroke-width="3.2"/>
<circle clip-path="url(#clip113)" cx="428.182" cy="264.337" r="14.4" fill="#009af9" fill-rule="evenodd" fill-opacity="1" stroke="#000000" stroke-opacity="1" stroke-width="3.2"/>
<circle clip-path="url(#clip113)" cx="605.644" cy="319.24" r="14.4" fill="#009af9" fill-rule="evenodd" fill-opacity="1" stroke="#000000" stroke-opacity="1" stroke-width="3.2"/>
<circle clip-path="url(#clip113)" cx="783.106" cy="693.878" r="14.4" fill="#009af9" fill-rule="evenodd" fill-opacity="1" stroke="#000000" stroke-opacity="1" stroke-width="3.2"/>
<circle clip-path="url(#clip113)" cx="960.568" cy="281.348" r="14.4" fill="#009af9" fill-rule="evenodd" fill-opacity="1" stroke="#000000" stroke-opacity="1" stroke-width="3.2"/>
<circle clip-path="url(#clip113)" cx="1138.03" cy="272.938" r="14.4" fill="#009af9" fill-rule="evenodd" fill-opacity="1" stroke="#000000" stroke-opacity="1" stroke-width="3.2"/>
<circle clip-path="url(#clip113)" cx="1315.49" cy="334.239" r="14.4" fill="#009af9" fill-rule="evenodd" fill-opacity="1" stroke="#000000" stroke-opacity="1" stroke-width="3.2"/>
<circle clip-path="url(#clip113)" cx="1492.95" cy="441.542" r="14.4" fill="#009af9" fill-rule="evenodd" fill-opacity="1" stroke="#000000" stroke-opacity="1" stroke-width="3.2"/>
<circle clip-path="url(#clip113)" cx="1670.42" cy="546.602" r="14.4" fill="#009af9" fill-rule="evenodd" fill-opacity="1" stroke="#000000" stroke-opacity="1" stroke-width="3.2"/>
<circle clip-path="url(#clip113)" cx="1847.88" cy="545.473" r="14.4" fill="#009af9" fill-rule="evenodd" fill-opacity="1" stroke="#000000" stroke-opacity="1" stroke-width="3.2"/>
<circle clip-path="url(#clip113)" cx="2025.34" cy="504.738" r="14.4" fill="#009af9" fill-rule="evenodd" fill-opacity="1" stroke="#000000" stroke-opacity="1" stroke-width="3.2"/>
<circle clip-path="url(#clip113)" cx="2202.8" cy="484.017" r="14.4" fill="#009af9" fill-rule="evenodd" fill-opacity="1" stroke="#000000" stroke-opacity="1" stroke-width="3.2"/>
<polyline clip-path="url(#clip113)" style="stroke:#000000; stroke-linecap:round; stroke-linejoin:round; stroke-width:4; stroke-opacity:0; fill:none" points="
  250.72,91.2338 339.451,4654.06 428.182,291.247 516.913,4900.22 605.644,455.715 694.375,5085.94 783.106,961.797 871.837,5253.57 960.568,695.498 1049.3,5840.99 
  1138.03,845.782 1226.76,5457.55 1315.49,1077.23 1404.22,5884.18 1492.95,1365.58 1581.68,5849.93 1670.42,1662.21 1759.15,6248.84 1847.88,1862.93 1936.61,6173.12 
  2025.34,2034.13 2114.07,6545.73 2202.8,2235.29 2291.53,6786.61 
  "/>
<path clip-path="url(#clip113)" d="M250.72 75.2338 L234.72 91.2338 L250.72 107.234 L266.72 91.2338 L250.72 75.2338 Z" fill="#e26f46" fill-rule="evenodd" fill-opacity="1" stroke="#000000" stroke-opacity="1" stroke-width="3.2"/>
<path clip-path="url(#clip113)" d="M428.182 275.247 L412.182 291.247 L428.182 307.247 L444.182 291.247 L428.182 275.247 Z" fill="#e26f46" fill-rule="evenodd" fill-opacity="1" stroke="#000000" stroke-opacity="1" stroke-width="3.2"/>
<path clip-path="url(#clip113)" d="M605.644 439.715 L589.644 455.715 L605.644 471.715 L621.644 455.715 L605.644 439.715 Z" fill="#e26f46" fill-rule="evenodd" fill-opacity="1" stroke="#000000" stroke-opacity="1" stroke-width="3.2"/>
<path clip-path="url(#clip113)" d="M783.106 945.797 L767.106 961.797 L783.106 977.797 L799.106 961.797 L783.106 945.797 Z" fill="#e26f46" fill-rule="evenodd" fill-opacity="1" stroke="#000000" stroke-opacity="1" stroke-width="3.2"/>
<path clip-path="url(#clip113)" d="M960.568 679.498 L944.568 695.498 L960.568 711.498 L976.568 695.498 L960.568 679.498 Z" fill="#e26f46" fill-rule="evenodd" fill-opacity="1" stroke="#000000" stroke-opacity="1" stroke-width="3.2"/>
<path clip-path="url(#clip113)" d="M1138.03 829.782 L1122.03 845.782 L1138.03 861.782 L1154.03 845.782 L1138.03 829.782 Z" fill="#e26f46" fill-rule="evenodd" fill-opacity="1" stroke="#000000" stroke-opacity="1" stroke-width="3.2"/>
<path clip-path="url(#clip113)" d="M1315.49 1061.23 L1299.49 1077.23 L1315.49 1093.23 L1331.49 1077.23 L1315.49 1061.23 Z" fill="#e26f46" fill-rule="evenodd" fill-opacity="1" stroke="#000000" stroke-opacity="1" stroke-width="3.2"/>
<path clip-path="url(#clip113)" d="M1492.95 1349.58 L1476.95 1365.58 L1492.95 1381.58 L1508.95 1365.58 L1492.95 1349.58 Z" fill="#e26f46" fill-rule="evenodd" fill-opacity="1" stroke="#000000" stroke-opacity="1" stroke-width="3.2"/>
<path clip-path="url(#clip110)" d="
M1961.55 271.683 L2280.65 271.683 L2280.65 93.1086 L1961.55 93.1086  Z
  " fill="#ffffff" fill-rule="evenodd" fill-opacity="1"/>
<polyline clip-path="url(#clip110)" style="stroke:#000000; stroke-linecap:round; stroke-linejoin:round; stroke-width:4; stroke-opacity:1; fill:none" points="
  1961.55,271.683 2280.65,271.683 2280.65,93.1086 1961.55,93.1086 1961.55,271.683 
  "/>
<polyline clip-path="url(#clip110)" style="stroke:#000000; stroke-linecap:round; stroke-linejoin:round; stroke-width:4; stroke-opacity:0; fill:none" points="
  1985.58,152.633 2129.8,152.633 
  "/>
<circle clip-path="url(#clip110)" cx="2057.69" cy="152.633" r="17.4443" fill="#009af9" fill-rule="evenodd" fill-opacity="1" stroke="#000000" stroke-opacity="1" stroke-width="5.12"/>
<path clip-path="url(#clip110)" d="M2176.49 137.52 Q2176.49 140.987 2174.71 144.242 Q2172.95 147.498 2170.19 149.466 Q2167.45 151.433 2164.68 151.433 Q2161.57 151.433 2159.95 148.201 Q2157.02 159.935 2156.86 160.24 Q2156.18 161.247 2155.2 161.247 Q2154.59 161.247 2154.21 160.872 Q2153.84 160.521 2153.84 159.959 Q2153.86 159.772 2154 159.186 L2158.69 140.331 Q2159.76 135.951 2163.02 132.836 Q2166.3 129.697 2169.81 129.697 Q2172.6 129.697 2174.54 131.782 Q2176.49 133.866 2176.49 137.52 M2173.04 135.459 Q2173.04 133.117 2172.11 131.946 Q2171.17 130.751 2169.72 130.751 Q2168.38 130.751 2166.77 131.829 Q2165.17 132.906 2163.77 135.295 Q2163.02 136.677 2162.48 138.387 Q2161.94 140.097 2160.89 144.313 Q2160.51 145.999 2160.51 146.093 Q2160.51 146.28 2160.61 146.702 Q2160.72 147.123 2161 147.779 Q2161.31 148.412 2161.73 148.974 Q2162.15 149.536 2162.93 149.958 Q2163.7 150.356 2164.64 150.356 Q2166.09 150.356 2167.63 149.185 Q2169.2 147.99 2170.35 145.812 Q2171.31 144.055 2172.18 140.752 Q2173.04 137.426 2173.04 135.459 Z" fill="#000000" fill-rule="evenodd" fill-opacity="1" /><path clip-path="url(#clip110)" d="M2188.56 152.047 L2183.72 171.46 Q2183.53 172.23 2183.53 173.066 Q2183.53 174.608 2184.54 174.608 Q2185.02 174.608 2185.41 174.296 Q2185.81 173.968 2186.1 173.329 Q2186.41 172.673 2186.61 172.05 Q2186.82 171.427 2187.09 170.459 Q2187.17 170.082 2187.25 169.968 Q2187.33 169.853 2187.56 169.853 Q2187.97 169.853 2187.97 170.181 Q2187.56 172.197 2186.95 173.476 Q2186.07 175.362 2184.43 175.362 Q2183.2 175.362 2182.28 174.509 Q2181.38 173.64 2181.38 172.263 Q2181.38 171.738 2181.54 171.115 L2185.77 154.326 L2185.89 153.67 Q2185.89 153.49 2185.82 153.392 Q2185.76 153.293 2185.36 153.195 Q2184.99 153.096 2184.23 153.096 Q2183.92 153.096 2183.77 153.08 Q2183.64 153.064 2183.51 152.982 Q2183.4 152.9 2183.4 152.719 Q2183.4 152.424 2183.51 152.26 Q2183.64 152.096 2183.74 152.064 Q2183.84 152.031 2184.04 152.014 Q2184.31 151.998 2185.25 151.916 Q2186.18 151.818 2186.99 151.752 Q2187.79 151.686 2188.13 151.686 Q2188.33 151.686 2188.43 151.785 Q2188.54 151.867 2188.56 151.965 L2188.56 152.047 Z" fill="#000000" fill-rule="evenodd" fill-opacity="1" /><polyline clip-path="url(#clip110)" style="stroke:#000000; stroke-linecap:round; stroke-linejoin:round; stroke-width:4; stroke-opacity:0; fill:none" points="
  1985.58,212.158 2129.8,212.158 
  "/>
<path clip-path="url(#clip110)" d="M2057.69 192.775 L2038.31 212.158 L2057.69 231.541 L2077.08 212.158 L2057.69 192.775 Z" fill="#e26f46" fill-rule="evenodd" fill-opacity="1" stroke="#000000" stroke-opacity="1" stroke-width="5.12"/>
<path clip-path="url(#clip110)" d="M2153.84 228.49 L2153.84 183.824 Q2153.84 182.044 2154.8 182.044 Q2155.76 182.044 2155.76 183.473 L2155.76 228.139 Q2155.76 229.919 2154.8 229.919 Q2153.84 229.919 2153.84 228.49 Z" fill="#000000" fill-rule="evenodd" fill-opacity="1" /><path clip-path="url(#clip110)" d="M2195.65 199.025 Q2195.65 199.048 2195.51 199.892 L2190.17 221.183 Q2189.89 222.307 2189.09 223.431 Q2188.32 224.579 2187.08 225.563 Q2185.86 226.57 2183.99 227.179 Q2182.14 227.811 2180 227.811 Q2176.61 227.811 2175.11 227.085 Q2173.63 226.382 2173.63 224.883 Q2173.63 223.572 2174.45 222.822 Q2175.27 222.096 2176.21 222.096 Q2177.1 222.096 2177.57 222.611 Q2178.04 223.127 2178.04 223.783 Q2178.04 224.509 2177.54 225.235 Q2177.05 225.984 2176.07 226.265 Q2177.64 226.757 2179.91 226.757 Q2184.71 226.757 2186.77 221.675 Q2186.82 221.604 2186.82 221.581 L2188.41 215.233 L2188.34 215.187 Q2187.94 215.655 2187.31 216.194 Q2186.7 216.709 2185.39 217.341 Q2184.08 217.974 2182.79 217.974 Q2180.1 217.974 2178.25 215.913 Q2176.42 213.828 2176.42 210.385 Q2176.42 207.879 2177.43 205.373 Q2178.46 202.843 2180.05 200.993 Q2181.67 199.119 2183.73 197.948 Q2185.81 196.776 2187.83 196.776 Q2189.23 196.776 2190.43 197.62 Q2191.62 198.439 2192.28 199.798 Q2192.39 198.674 2193.03 198.205 Q2193.68 197.737 2194.24 197.737 Q2194.88 197.737 2195.25 198.088 Q2195.65 198.416 2195.65 199.025 M2191.72 201.953 Q2191.72 201.812 2191.62 201.438 Q2191.53 201.039 2191.25 200.407 Q2190.99 199.775 2190.59 199.212 Q2190.19 198.65 2189.47 198.252 Q2188.76 197.83 2187.87 197.83 Q2186.42 197.83 2184.97 199.048 Q2183.52 200.243 2182.51 202.093 Q2181.57 203.873 2180.68 207.317 Q2179.82 210.76 2179.82 212.516 Q2179.82 214.25 2180.57 215.585 Q2181.32 216.92 2182.93 216.92 Q2184.81 216.92 2186.82 215.187 Q2188.9 213.383 2189.26 211.837 L2191.57 202.679 Q2191.72 202.117 2191.72 201.953 Z" fill="#000000" fill-rule="evenodd" fill-opacity="1" /><path clip-path="url(#clip110)" d="M2207.73 218.611 L2202.89 238.023 Q2202.7 238.794 2202.7 239.63 Q2202.7 241.171 2203.71 241.171 Q2204.19 241.171 2204.58 240.86 Q2204.98 240.532 2205.27 239.892 Q2205.58 239.237 2205.78 238.614 Q2205.99 237.991 2206.26 237.023 Q2206.34 236.646 2206.42 236.531 Q2206.5 236.417 2206.73 236.417 Q2207.14 236.417 2207.14 236.745 Q2206.73 238.761 2206.12 240.04 Q2205.24 241.926 2203.6 241.926 Q2202.37 241.926 2201.45 241.073 Q2200.55 240.204 2200.55 238.827 Q2200.55 238.302 2200.71 237.679 L2204.94 220.89 L2205.06 220.234 Q2205.06 220.054 2204.99 219.955 Q2204.93 219.857 2204.53 219.759 Q2204.16 219.66 2203.4 219.66 Q2203.09 219.66 2202.94 219.644 Q2202.81 219.627 2202.68 219.545 Q2202.57 219.463 2202.57 219.283 Q2202.57 218.988 2202.68 218.824 Q2202.81 218.66 2202.91 218.627 Q2203.01 218.594 2203.21 218.578 Q2203.48 218.562 2204.42 218.48 Q2205.35 218.381 2206.16 218.316 Q2206.96 218.25 2207.3 218.25 Q2207.5 218.25 2207.6 218.349 Q2207.71 218.431 2207.73 218.529 L2207.73 218.611 Z" fill="#000000" fill-rule="evenodd" fill-opacity="1" /><path clip-path="url(#clip110)" d="M2212.78 228.49 L2212.78 183.824 Q2212.78 182.044 2213.74 182.044 Q2214.7 182.044 2214.7 183.473 L2214.7 228.139 Q2214.7 229.919 2213.74 229.919 Q2212.78 229.919 2212.78 228.49 Z" fill="#000000" fill-rule="evenodd" fill-opacity="1" /></svg>
